<?xml version="1.0" encoding="UTF-8"?>
<svg width="199px" height="20px" viewBox="0 0 199 20" version="1.1" xmlns="http://www.w3.org/2000/svg" xmlns:xlink="http://www.w3.org/1999/xlink">
    <!-- Generator: Sketch 58 (84663) - https://sketch.com -->
    <title>footer_knowtheodds</title>
    <desc>Created with Sketch.</desc>
    <g id="Symbols" stroke="none" stroke-width="1" fill="none" fill-rule="evenodd">
        <g id="Footer" transform="translate(-741.000000, -646.000000)" fill="#DA0000">
            <g id="Group-26" transform="translate(741.000000, 646.000000)">
                <path d="M42.3573,0.0003 C43.8843,0.0003 45.2233,0.2993 46.3783,0.8993 C47.5313,1.4993 48.4263,2.3443 49.0633,3.4343 C49.6983,4.5253 50.0173,5.7793 50.0173,7.1953 L50.0173,12.3203 C50.0173,13.7743 49.6983,15.0503 49.0633,16.1503 C48.4263,17.2503 47.5313,18.1033 46.3783,18.7133 C45.2233,19.3213 43.8843,19.6263 42.3573,19.6263 C40.8493,19.6263 39.5183,19.3213 38.3643,18.7133 C37.2103,18.1033 36.3153,17.2503 35.6793,16.1503 C35.0433,15.0503 34.7253,13.7743 34.7253,12.3203 L34.7253,7.1953 C34.7253,5.7793 35.0433,4.5253 35.6793,3.4343 C36.3153,2.3443 37.2103,1.4993 38.3643,0.8993 C39.5183,0.2993 40.8493,0.0003 42.3573,0.0003 Z M142.7537,0.0003 C144.2807,0.0003 145.6197,0.2993 146.7747,0.8993 C147.9277,1.4993 148.8227,2.3443 149.4597,3.4343 C150.0947,4.5253 150.4137,5.7793 150.4137,7.1953 L150.4137,12.3203 C150.4137,13.7743 150.0947,15.0503 149.4597,16.1503 C148.8227,17.2503 147.9277,18.1033 146.7747,18.7133 C145.6197,19.3213 144.2807,19.6263 142.7537,19.6263 C141.2457,19.6263 139.9147,19.3213 138.7607,18.7133 C137.6067,18.1033 136.7117,17.2503 136.0757,16.1503 C135.4397,15.0503 135.1217,13.7743 135.1217,12.3203 L135.1217,7.1953 C135.1217,5.7793 135.4397,4.5253 136.0757,3.4343 C136.7117,2.3443 137.6067,1.4993 138.7607,0.8993 C139.9147,0.2993 141.2457,0.0003 142.7537,0.0003 Z M191.244,-0.0004 C192.662,-0.0004 193.947,0.2636 195.101,0.7906 C196.254,1.3176 197.163,2.0626 197.827,3.0256 C198.49,3.9896 198.822,5.0886 198.822,6.3236 L198.822,6.4596 C198.822,6.8056 198.649,6.9776 198.303,6.9776 L194.296,6.9776 C193.952,6.9776 193.779,6.9056 193.779,6.7596 L193.779,6.5416 C193.779,5.9966 193.534,5.5016 193.042,5.0566 C192.552,4.6116 191.889,4.3886 191.053,4.3886 C190.471,4.3886 190.012,4.5066 189.676,4.7426 C189.34,4.9786 189.172,5.3066 189.172,5.7246 C189.172,6.0516 189.295,6.3286 189.541,6.5556 C189.786,6.7826 190.163,7.0006 190.671,7.2096 C191.18,7.4186 191.961,7.6866 193.016,8.0136 C193.161,8.0686 193.801,8.2636 194.937,8.5996 C196.073,8.9356 197.023,9.5446 197.786,10.4266 C198.549,11.3076 198.93,12.3746 198.93,13.6286 C198.93,14.8106 198.622,15.8466 198.003,16.7366 C197.386,17.6266 196.518,18.3136 195.401,18.7936 C194.283,19.2766 192.998,19.5166 191.543,19.5166 C190.072,19.5166 188.773,19.2666 187.646,18.7666 C186.519,18.2676 185.647,17.5536 185.029,16.6266 C184.412,15.7006 184.103,14.6286 184.103,13.4116 L184.103,13.1386 C184.103,12.7926 184.275,12.6206 184.621,12.6206 L188.627,12.6206 C188.972,12.6206 189.145,12.7116 189.145,12.8936 L189.145,13.1936 C189.145,13.6836 189.409,14.1286 189.936,14.5286 C190.462,14.9286 191.125,15.1276 191.925,15.1276 C192.597,15.1276 193.08,14.9876 193.37,14.7056 C193.661,14.4236 193.806,14.1106 193.806,13.7656 C193.806,13.3666 193.625,13.0666 193.261,12.8666 C192.897,12.6656 192.234,12.4206 191.271,12.1296 L190.481,11.9116 C188.682,11.3666 187.173,10.6396 185.956,9.7306 C184.739,8.8226 184.13,7.5056 184.13,5.7786 C184.13,4.6336 184.439,3.6206 185.056,2.7396 C185.674,1.8586 186.524,1.1816 187.605,0.7086 C188.686,0.2366 189.899,-0.0004 191.244,-0.0004 Z M4.606,0.2183 C4.952,0.2183 5.125,0.3913 5.125,0.7363 L5.125,6.9783 C5.125,7.0693 5.156,7.1233 5.22,7.1413 C5.283,7.1593 5.342,7.1323 5.397,7.0593 L10.003,0.5453 C10.149,0.3273 10.358,0.2183 10.63,0.2183 L15.264,0.2183 C15.537,0.2183 15.673,0.3183 15.673,0.5183 C15.673,0.6453 15.636,0.7543 15.564,0.8453 L10.058,8.5313 C9.985,8.6403 9.976,8.7403 10.031,8.8313 L15.81,18.6723 C15.864,18.7803 15.891,18.8813 15.891,18.9713 C15.891,19.1893 15.746,19.2993 15.455,19.2993 L10.849,19.2993 C10.576,19.2993 10.376,19.1803 10.249,18.9443 L6.569,12.4023 C6.533,12.3293 6.482,12.2933 6.419,12.2933 C6.355,12.2933 6.306,12.3293 6.269,12.4023 L5.206,14.0103 C5.152,14.1203 5.125,14.2113 5.125,14.2833 L5.125,18.7803 C5.125,19.1263 4.952,19.2993 4.606,19.2993 L0.518,19.2993 C0.172,19.2993 -1.89182003e-13,19.1263 -1.89182003e-13,18.7803 L-1.89182003e-13,0.7363 C-1.89182003e-13,0.3913 0.172,0.2183 0.518,0.2183 L4.606,0.2183 Z M21.7784,0.2183 C22.0684,0.2183 22.2774,0.3363 22.4054,0.5723 L27.7744,9.5943 C27.8294,9.6673 27.8844,9.7033 27.9384,9.7033 C28.0114,9.7033 28.0474,9.6403 28.0474,9.5123 L28.0204,0.7363 C28.0204,0.3913 28.1924,0.2183 28.5384,0.2183 L32.6274,0.2183 C32.9714,0.2183 33.1454,0.3913 33.1454,0.7363 L33.1454,18.7803 C33.1454,19.1263 32.9714,19.2993 32.6274,19.2993 L28.7014,19.2993 C28.4114,19.2993 28.2014,19.1803 28.0744,18.9443 L22.6774,9.7583 C22.6234,9.6673 22.5644,9.6263 22.5014,9.6353 C22.4374,9.6453 22.4054,9.7033 22.4054,9.8123 L22.4604,18.7803 C22.4604,19.1263 22.2874,19.2993 21.9414,19.2993 L17.8534,19.2993 C17.5074,19.2993 17.3354,19.1263 17.3354,18.7803 L17.3354,0.7363 C17.3354,0.3913 17.5074,0.2183 17.8534,0.2183 L21.7784,0.2183 Z M54.759,0.2183 C55.068,0.2183 55.259,0.3633 55.332,0.6543 L57.567,9.2673 C57.603,9.3593 57.653,9.4043 57.717,9.4043 C57.78,9.4043 57.821,9.3593 57.839,9.2673 L59.911,0.6813 C60.002,0.3723 60.193,0.2183 60.483,0.2183 L63.673,0.2183 C63.981,0.2183 64.172,0.3633 64.245,0.6543 L66.426,9.2673 C66.462,9.3593 66.512,9.4043 66.576,9.4043 C66.639,9.4043 66.68,9.3593 66.698,9.2673 L68.715,0.6813 C68.788,0.3723 68.979,0.2183 69.288,0.2183 L73.704,0.2183 C73.885,0.2183 74.012,0.2683 74.085,0.3683 C74.157,0.4683 74.176,0.6093 74.14,0.7903 L69.37,18.8623 C69.297,19.1533 69.106,19.2993 68.797,19.2993 L64.626,19.2993 C64.3,19.2993 64.109,19.1443 64.054,18.8353 L62.173,9.8123 C62.137,9.7223 62.092,9.6723 62.037,9.6623 C61.983,9.6543 61.946,9.7033 61.928,9.8123 L60.266,18.8353 C60.211,19.1443 60.029,19.2993 59.72,19.2993 L55.85,19.2993 C55.541,19.2993 55.341,19.1533 55.25,18.8623 L49.908,0.7903 C49.89,0.7363 49.88,0.6723 49.88,0.5993 C49.88,0.3453 50.035,0.2183 50.344,0.2183 L54.759,0.2183 Z M95.7506,0.2179 C96.0956,0.2179 96.2686,0.3909 96.2686,0.7359 L96.2686,4.1159 C96.2686,4.4619 96.0956,4.6339 95.7506,4.6339 L91.3626,4.6339 C91.2166,4.6339 91.1436,4.7069 91.1436,4.8519 L91.1436,18.7799 C91.1436,19.1259 90.9716,19.2989 90.6266,19.2989 L86.5376,19.2989 C86.1926,19.2989 86.0196,19.1259 86.0196,18.7799 L86.0196,4.8519 C86.0196,4.7069 85.9466,4.6339 85.8016,4.6339 L81.5496,4.6339 C81.2046,4.6339 81.0316,4.4619 81.0316,4.1159 L81.0316,0.7359 C81.0316,0.3909 81.2046,0.2179 81.5496,0.2179 L95.7506,0.2179 Z M102.4278,0.2183 C102.7738,0.2183 102.9468,0.3913 102.9468,0.7363 L102.9468,7.2233 C102.9468,7.3693 103.0188,7.4413 103.1638,7.4413 L107.2528,7.4413 C107.3978,7.4413 107.4708,7.3693 107.4708,7.2233 L107.4708,0.7363 C107.4708,0.3913 107.6438,0.2183 107.9888,0.2183 L112.0778,0.2183 C112.4228,0.2183 112.5948,0.3913 112.5948,0.7363 L112.5948,18.7803 C112.5948,19.1263 112.4228,19.2993 112.0778,19.2993 L107.9888,19.2993 C107.6438,19.2993 107.4708,19.1263 107.4708,18.7803 L107.4708,12.0483 C107.4708,11.9033 107.3978,11.8293 107.2528,11.8293 L103.1638,11.8293 C103.0188,11.8293 102.9468,11.9033 102.9468,12.0483 L102.9468,18.7803 C102.9468,19.1263 102.7738,19.2993 102.4278,19.2993 L98.3398,19.2993 C97.9938,19.2993 97.8218,19.1263 97.8218,18.7803 L97.8218,0.7363 C97.8218,0.3913 97.9938,0.2183 98.3398,0.2183 L102.4278,0.2183 Z M159.1902,0.2182 C160.6612,0.2182 161.9652,0.4722 163.1012,0.9812 C164.2372,1.4902 165.1142,2.2082 165.7322,3.1352 C166.3492,4.0612 166.6592,5.1342 166.6592,6.3512 L166.6592,13.1662 C166.6592,14.3832 166.3492,15.4552 165.7322,16.3822 C165.1142,17.3082 164.2372,18.0262 163.1012,18.5352 C161.9652,19.0442 160.6612,19.2992 159.1902,19.2992 L152.2942,19.2992 C151.9482,19.2992 151.7762,19.1262 151.7762,18.7802 L151.7762,0.7362 C151.7762,0.3912 151.9482,0.2182 152.2942,0.2182 L159.1902,0.2182 Z M175.5168,0.2182 C176.9878,0.2182 178.2918,0.4722 179.4278,0.9812 C180.5638,1.4902 181.4408,2.2082 182.0588,3.1352 C182.6758,4.0612 182.9858,5.1342 182.9858,6.3512 L182.9858,13.1662 C182.9858,14.3832 182.6758,15.4552 182.0588,16.3822 C181.4408,17.3082 180.5638,18.0262 179.4278,18.5352 C178.2918,19.0442 176.9878,19.2992 175.5168,19.2992 L168.6208,19.2992 C168.2748,19.2992 168.1028,19.1262 168.1028,18.7802 L168.1028,0.7362 C168.1028,0.3912 168.2748,0.2182 168.6208,0.2182 L175.5168,0.2182 Z M127.4507,0.2185 C127.7957,0.2185 127.9687,0.3915 127.9687,0.7355 L127.9687,4.0885 C127.9687,4.4345 127.7957,4.6065 127.4507,4.6065 L119.4917,4.6065 C119.3457,4.6065 119.2737,4.6795 119.2737,4.8245 L119.2737,7.2235 C119.2737,7.3695 119.3457,7.4415 119.4917,7.4415 L124.3437,7.4415 C124.6887,7.4415 124.8617,7.6145 124.8617,7.9595 L124.8617,11.2845 C124.8617,11.6295 124.6887,11.8025 124.3437,11.8025 L119.4917,11.8025 C119.3457,11.8025 119.2737,11.8755 119.2737,12.0205 L119.2737,14.6925 C119.2737,14.8375 119.3457,14.9105 119.4917,14.9105 L127.4507,14.9105 C127.7957,14.9105 127.9687,15.0835 127.9687,15.4275 L127.9687,18.7805 C127.9687,19.1265 127.7957,19.2985 127.4507,19.2985 L114.6667,19.2985 C114.3217,19.2985 114.1487,19.1265 114.1487,18.7805 L114.1487,0.7355 C114.1487,0.3915 114.3217,0.2185 114.6667,0.2185 L127.4507,0.2185 Z M42.3573,4.3883 C41.6123,4.3883 41.0083,4.6383 40.5453,5.1383 C40.0813,5.6383 39.8493,6.3053 39.8493,7.1413 L39.8493,12.4843 C39.8493,13.3203 40.0813,13.9883 40.5453,14.4873 C41.0083,14.9873 41.6123,15.2373 42.3573,15.2373 C43.1203,15.2373 43.7343,14.9873 44.1973,14.4873 C44.6603,13.9883 44.8923,13.3203 44.8923,12.4843 L44.8923,7.1413 C44.8923,6.3053 44.6603,5.6383 44.1973,5.1383 C43.7343,4.6383 43.1203,4.3883 42.3573,4.3883 Z M142.7537,4.3883 C142.0087,4.3883 141.4047,4.6383 140.9417,5.1383 C140.4777,5.6383 140.2457,6.3053 140.2457,7.1413 L140.2457,12.4843 C140.2457,13.3203 140.4777,13.9883 140.9417,14.4873 C141.4047,14.9873 142.0087,15.2373 142.7537,15.2373 C143.5167,15.2373 144.1307,14.9873 144.5937,14.4873 C145.0567,13.9883 145.2887,13.3203 145.2887,12.4843 L145.2887,7.1413 C145.2887,6.3053 145.0567,5.6383 144.5937,5.1383 C144.1307,4.6383 143.5167,4.3883 142.7537,4.3883 Z M159.3532,4.6062 L157.1182,4.6062 C156.9722,4.6062 156.9002,4.6792 156.9002,4.8252 L156.9002,14.6922 C156.9002,14.8382 156.9722,14.9102 157.1182,14.9102 L159.3812,14.9102 C159.9982,14.9102 160.5072,14.6702 160.9072,14.1872 C161.3062,13.7072 161.5152,13.0752 161.5342,12.2932 L161.5342,7.2232 C161.5342,6.4422 161.3342,5.8102 160.9342,5.3292 C160.5352,4.8472 160.0082,4.6062 159.3532,4.6062 Z M175.6798,4.6062 L173.4448,4.6062 C173.2988,4.6062 173.2268,4.6792 173.2268,4.8252 L173.2268,14.6922 C173.2268,14.8382 173.2988,14.9102 173.4448,14.9102 L175.7078,14.9102 C176.3248,14.9102 176.8338,14.6702 177.2338,14.1872 C177.6328,13.7072 177.8418,13.0752 177.8608,12.2932 L177.8608,7.2232 C177.8608,6.4422 177.6608,5.8102 177.2608,5.3292 C176.8618,4.8472 176.3348,4.6062 175.6798,4.6062 Z" id="footer_knowtheodds"></path>
            </g>
        </g>
    </g>
</svg>