<svg width="122" height="53" viewBox="0 0 122 53" fill="none" xmlns="http://www.w3.org/2000/svg">
<path d="M37.9699 21.9462C40.5406 25.5594 41.2293 34.573 39.3946 37.9556C39.3946 37.9556 38.2013 36.7215 37.3732 35.8988C37.0079 42.486 33.4279 47.7002 30.6285 49.2567C30.6285 49.2567 30.1684 47.4723 29.792 46.4189C24.3773 51.1772 16.4365 50.6269 13.3639 48.6619C14.4178 43.6756 13.9215 37.0412 12.5274 35.0761C12.3434 35.7154 8.4427 41.4326 6.28463 42.8585C4.67862 39.5649 4.77063 32.0632 5.77996 29.5173C5.77996 29.5173 3.34864 30.2038 1.83464 30.6596C2.1999 28.3277 3.94532 23.0218 7.10994 20.2757C6.26315 20.1055 5.40477 19.9987 4.542 19.9561C5.80919 17.7226 7.48833 15.748 9.49107 14.136C9.30426 15.8287 9.88142 17.6742 11.5237 18.4636C8.94458 13.3272 12.7756 10.5895 15.7367 13.1577C15.4374 12.3879 14.9426 11.7088 14.3007 11.1871C17.9996 9.51964 22.0922 8.91511 26.1172 9.44161C26.9034 9.66952 28.1107 11.4205 28.1916 11.5512C28.2113 10.9686 28.1899 10.3853 28.1275 9.80571C30.1173 10.2686 32.0326 11.0058 33.8182 11.9959C27.3691 6.87621 19.4255 7.30424 12.8313 10.5839C12.2203 10.5491 11.6152 10.7205 11.1138 11.0703C10.7083 11.3446 10.3723 11.709 10.1324 12.1349C6.56345 14.4696 3.58006 17.6353 1.74263 21.1096C1.74263 21.1096 2.32816 21.2263 3.88119 21.4598C1.48333 24.9063 0.136622 29.609 0 32.9026C0 32.9026 1.99636 32.4134 3.64977 31.8631C2.91368 36.5881 3.89792 43.0558 5.73535 45.3433C6.9287 44.6567 10.5534 41.3631 11.8834 39.0757C12.7198 41.8217 11.9308 46.808 11.3257 49.4596C16.2358 52.7532 24.8625 52.4335 28.6712 49.1399C29.0337 50.0774 29.3245 51.0409 29.5411 52.0222C32.3293 50.3295 37.6269 45.9853 38.4439 39.5343C38.4439 39.5343 39.3166 40.4042 39.9579 41.0908C42.0546 36.035 43.1113 26.8101 37.9699 21.9462Z" fill="white"/>
<path d="M11.6687 9.93918C16.0685 6.69838 24.04 6.3593 28.8887 7.79903C29.0141 5.78674 29.9733 2.31247 30.2493 1.90946C29.2929 2.50147 27.1237 4.91678 26.9313 5.34203C26.8895 3.71051 26.6135 0 26.6135 0C26.5075 0.0639265 22.2555 4.8334 22.2555 4.8334L19.2136 0L17.3873 5.51157L12.1148 1.73991L12.7951 6.79844C11.8164 5.90903 9.47713 4.46652 8.86093 4.23305C9.90372 5.30034 11.4345 8.96638 11.6687 9.93918Z" fill="white"/>
<path d="M28.7325 14.2139C27.5419 13.1911 24.3718 11.5234 24.3718 11.5234C21.486 11.3817 18.6029 13.5663 17.7442 14.3279C18.1262 14.6836 18.628 15.0644 18.628 15.0644C16.983 15.6203 15.7673 16.9878 15.338 17.4158C16.0043 17.6937 17.1977 17.6937 17.1977 17.6937C18.4357 23.9168 24.5614 20.3786 28.0717 22.0407C26.7613 20.6149 24.592 18.6443 24.592 18.6443C22.1356 18.8083 20.6411 18.686 18.8706 17.2546C20.5157 16.0177 22.0659 15.637 22.3977 15.637C22.7295 15.637 24.8541 16.7487 25.4647 17.2073C25.9889 16.7321 26.9425 16.4458 27.4667 16.304C26.7752 17.0406 26.6079 18.0606 26.7752 18.4164C27.8013 19.3697 29.1117 20.7955 29.8422 21.5543C31.3897 20.8178 34.0608 20.676 35.5608 21.5543C34.6117 20.4796 33.5582 19.5011 32.4157 18.6332C32.2011 17.9911 30.9854 16.4708 30.9854 16.4708C31.7246 16.8069 32.4209 17.2296 33.0598 17.7299C33.4246 17.2818 33.9073 16.944 34.4539 16.7543C34.8715 17.2179 35.1303 17.802 35.1928 18.4219C35.2179 18.6387 34.5961 18.9 34.5961 18.9L36.336 20.8956C37.7663 16.6904 32.6667 13.8137 29.5439 12.0793C29.4491 12.9298 28.7325 14.2139 28.7325 14.2139Z" fill="white"/>
<path d="M36.099 23.4332C35.5413 23.8529 34.9112 24.4116 34.0915 24.6562V27.8386C35.0367 28.6196 35.9122 30.0177 36.3973 31.0683C37.2087 28.3139 37.1139 25.5067 36.099 23.4332Z" fill="white"/>
<path d="M32.1425 34.1728C32.307 35.3902 32.4213 36.7465 32.4743 37.3802C33.1546 36.7627 33.7686 36.0762 34.3062 35.3318C34.768 34.5972 35.0744 33.7762 35.2067 32.9193C35.2067 32.5913 34.8973 31.7825 34.0915 30.5234H31.8609C31.8609 30.5234 29.2706 33.1611 27.1655 33.2445C27.8961 34.5536 28.5178 35.6376 28.7576 36.0239C30.082 35.7571 31.9975 34.4591 32.1425 34.1728Z" fill="white"/>
<path d="M32.3628 27.6801V24.6589C31.4337 24.3624 30.5784 23.8726 29.8534 23.2219C28.0606 23.2886 24.2937 25.7373 23.5883 26.4738C23.7472 26.963 24.776 28.9058 25.883 30.9209C27.9769 30.9376 31.4204 29.0337 32.3628 27.6801Z" fill="white"/>
<path d="M50.843 20.1535H52.1981C56.6592 20.184 59.0348 18.2301 59.0376 14.3834C59.0376 12.6574 58.1705 10.8814 56.9381 10.0726C55.7057 9.26374 54.7884 8.92187 51.9528 8.88574H47.6589V25.6984H50.843V20.1535ZM50.843 11.9348H52.7948C54.9975 12.0626 55.714 13.2411 55.7363 14.4807C55.7363 16.5013 54.2419 17.1684 52.463 17.1545H50.8542L50.843 11.9348Z" fill="white"/>
<path d="M63.0972 19.82C63.2338 17.9661 64.8343 16.9739 66.7693 17.5075V14.6753C64.9123 14.314 63.8779 14.8837 63.0777 16.3429L62.7348 14.6753H60.1389V25.6984H63.0916L63.0972 19.82Z" fill="white"/>
<path d="M73.171 26.0014C74.9023 25.909 76.5342 25.1661 77.7381 23.9224L75.976 22.0852C75.3598 22.6995 74.6794 23.3637 72.9089 23.4221C71.342 23.4221 70.1207 22.2659 70.1207 21.1041H78.2985C78.4646 19.9144 78.3146 18.702 77.8636 17.5881C77.4395 16.6349 76.7486 15.8237 75.8738 15.2519C74.999 14.68 73.9773 14.3718 72.9312 14.364C69.6746 14.4085 67.1318 16.7877 67.037 20.2925C67.0704 23.4555 69.3679 25.9597 73.171 26.0014ZM72.7974 16.9266C73.4204 16.9252 74.0253 17.1361 74.5116 17.5244C74.9979 17.9126 75.3365 18.4548 75.4713 19.0612H70.1151C70.2769 17.9745 71.3364 16.9516 72.7974 16.9266V16.9266Z" fill="white"/>
<path d="M82.6035 18.8388C82.6872 17.7854 83.4818 17.2601 84.3992 17.1712C84.8449 17.15 85.2828 17.2939 85.6286 17.575C85.9745 17.8561 86.2039 18.2548 86.2728 18.6943V25.6622H89.1726V19.2168C89.2367 17.9939 90.009 17.2323 91.0239 17.16C91.813 17.1044 92.8251 17.7159 92.9032 19.1556V25.6734H95.8448V18.7499C95.9089 16.4985 94.6012 14.4779 92.0695 14.3528C90.338 14.4223 89.5295 14.8531 88.6149 16.14C87.8984 15.2144 87.1344 14.3389 85.3834 14.3528C84.1371 14.3528 83.3619 14.9087 82.6175 16.0566L82.3219 14.653H79.6564V25.6817H82.6175L82.6035 18.8388Z" fill="white"/>
<path d="M100.49 14.6753H97.4424V25.6734H100.49V14.6753Z" fill="white"/>
<path d="M50.9518 27.505H47.6087V43.9119H58.0227V40.874H50.9518V27.505Z" fill="white"/>
<path d="M80.1165 34.2702C79.1713 33.0667 78.0894 32.7082 76.8208 32.697C75.4767 32.6938 74.1755 33.1688 73.1515 34.0367C71.8996 35.2152 71.183 36.7105 71.183 38.2253C71.145 39.6359 71.6093 41.0144 72.4935 42.1165C72.9462 42.7175 73.5234 43.2143 74.1859 43.573C74.8484 43.9317 75.5807 44.144 76.3329 44.1955C77.0578 44.2569 77.7866 44.1366 78.4528 43.8453C79.119 43.554 79.7015 43.1011 80.1471 42.5278L80.4789 43.8925H83.15V32.8527H80.4176L80.1165 34.2702ZM77.4258 41.3799C76.6734 41.4026 75.9373 41.1583 75.3486 40.6906C75.0268 40.4048 74.7726 40.0514 74.6043 39.6559C74.4361 39.2603 74.3579 38.8325 74.3755 38.4032C74.4787 36.6021 75.6191 35.5682 77.3199 35.457C79.1155 35.5626 80.1639 36.8245 80.1416 38.5143C80.1489 39.2495 79.87 39.9588 79.3635 40.4932C78.8571 41.0276 78.1625 41.3454 77.4258 41.3799V41.3799Z" fill="white"/>
<path d="M105.489 38.278C105.489 39.1257 105.403 40.2236 104.653 40.8156C104.165 41.216 103.539 41.4087 102.91 41.3521C102.585 41.3324 102.267 41.2438 101.979 41.0924C101.69 40.941 101.438 40.7301 101.237 40.4738C100.752 39.8484 100.824 38.934 100.824 38.203V32.8721H97.6766V39.0396C97.6571 39.7287 97.7799 40.4144 98.0375 41.0541C98.2951 41.6939 98.6819 42.274 99.1739 42.7584C100.127 43.6423 101.201 44.1259 102.896 44.2037C104.591 44.2815 105.963 43.784 106.956 42.903C107.982 41.8829 108.559 40.71 108.559 39.2897V32.8721H105.492L105.489 38.278Z" fill="white"/>
<path d="M99.0233 13.1661C99.2722 13.1694 99.5192 13.1218 99.7489 13.0262C99.9786 12.9305 100.186 12.789 100.359 12.6102C100.539 12.4358 100.681 12.2265 100.777 11.9951C100.873 11.7638 100.921 11.5153 100.917 11.265C100.909 10.7645 100.707 10.2865 100.352 9.93259C99.9965 9.57864 99.517 9.37663 99.015 9.36945C98.7639 9.36591 98.5148 9.41337 98.2828 9.50894C98.0508 9.60451 97.8408 9.74619 97.6655 9.92533C97.4863 10.0982 97.3445 10.3057 97.2486 10.5351C97.1527 10.7645 97.1048 11.0109 97.1078 11.2594C97.1048 11.5088 97.1519 11.7563 97.2463 11.9873C97.3406 12.2183 97.4804 12.4281 97.6573 12.6045C97.8342 12.7808 98.0447 12.9202 98.2764 13.0142C98.5082 13.1083 98.7564 13.1552 99.0066 13.1522L99.0233 13.1661Z" fill="white"/>
<path d="M117.333 19.82C117.47 17.9661 119.071 16.9739 121.006 17.5075V14.6753C119.149 14.314 118.114 14.8837 117.314 16.3429L116.971 14.6753H114.381V25.6984H117.333V19.82Z" fill="white"/>
<path d="M107.859 26.0014C109.59 25.909 111.222 25.1661 112.426 23.9224L110.664 22.0852C110.048 22.6995 109.368 23.3637 107.597 23.4221C106.03 23.4221 104.809 22.2659 104.809 21.1041H112.987C113.153 19.9148 113.005 18.7028 112.557 17.5881C112.132 16.635 111.441 15.8242 110.565 15.2524C109.69 14.6807 108.668 14.3723 107.622 14.364C104.366 14.4085 101.823 16.7877 101.728 20.2925C101.759 23.4555 104.056 25.9597 107.859 26.0014ZM107.486 16.9266C108.109 16.9252 108.713 17.1361 109.2 17.5244C109.686 17.9126 110.025 18.4548 110.159 19.0612H104.803C104.965 17.9745 106.025 16.9516 107.486 16.9266Z" fill="white"/>
<path d="M96.2463 32.8527H93.5138L93.2127 34.2702C92.2675 33.0667 91.1857 32.7082 89.917 32.697C88.5737 32.6932 87.2732 33.1684 86.2505 34.0367C84.9986 35.2152 84.2793 36.7105 84.2793 38.2253C84.2408 39.6365 84.7062 41.0154 85.5925 42.1165C86.811 43.6062 88.6595 44.5568 91.3306 44.0315C92.0028 43.8255 92.6061 43.4412 93.0761 42.9197C93.5752 45.9771 91.2442 46.8109 89.0889 46.4496C88.4114 46.3384 87.561 45.9771 86.468 45.0126L84.7672 47.3862C86.1812 48.6231 87.9836 49.3298 89.864 49.3846C92.761 49.4096 96.3634 47.9115 96.2463 43.0365V32.8527ZM90.5304 41.3799C89.778 41.4026 89.0419 41.1583 88.4532 40.6906C88.1317 40.4047 87.878 40.0512 87.7102 39.6556C87.5424 39.26 87.4648 38.8323 87.4829 38.4032C87.5833 36.6021 88.7265 35.5682 90.4245 35.457C92.2229 35.5626 93.2712 36.8245 93.2489 38.5144C93.2548 39.2495 92.9751 39.9585 92.4683 40.4926C91.9616 41.0268 91.2671 41.3448 90.5304 41.3799V41.3799Z" fill="white"/>
<path d="M120.523 35.8099C120.099 34.8567 119.408 34.0455 118.533 33.4737C117.659 32.9018 116.637 32.5936 115.591 32.5858C112.334 32.6303 109.791 35.0095 109.697 38.5143C109.73 41.6773 112.025 44.1815 115.831 44.2232C117.562 44.1308 119.194 43.3879 120.398 42.1442L118.636 40.307C118.019 40.9213 117.339 41.5855 115.569 41.6439C114.004 41.6439 112.78 40.4877 112.78 39.3259H120.958C121.123 38.1361 120.973 36.9242 120.523 35.8099V35.8099ZM112.775 37.283C112.934 36.1963 113.993 35.1734 115.454 35.1484C116.078 35.1464 116.683 35.357 117.17 35.7453C117.657 36.1336 117.996 36.6762 118.131 37.283H112.775Z" fill="white"/>
<path d="M64.6224 32.5858C61.363 32.6303 58.8201 35.0095 58.7253 38.5143C58.7616 41.6773 61.0563 44.1815 64.8594 44.2232C66.5908 44.1313 68.2229 43.3884 69.4265 42.1442L67.6671 40.307C67.0509 40.9213 66.3706 41.5855 64.6001 41.6439C63.0331 41.6439 61.8119 40.4877 61.8119 39.3259H69.9925C70.1557 38.1361 70.0058 36.9245 69.5575 35.8099C69.1329 34.8564 68.4416 34.0452 67.5663 33.4733C66.691 32.9015 65.6689 32.5934 64.6224 32.5858V32.5858ZM61.8119 37.283C61.9736 36.1963 63.0331 35.1734 64.4941 35.1484C65.1172 35.147 65.722 35.3579 66.2083 35.7462C66.6946 36.1344 67.0332 36.6766 67.168 37.283H61.8119Z" fill="white"/>
</svg>
