<?xml version="1.0" encoding="UTF-8"?>
<svg xmlns="http://www.w3.org/2000/svg" xmlns:xlink="http://www.w3.org/1999/xlink" xmlns:v="https://vecta.io/nano" width="98" height="36" fill="none">
  <style><![CDATA[.B{fill:#ff5100}.C{fill:#93d500}]]></style>
  <path d="M20.004 17.211c-1.053-.018-1.823-.973-1.747-2.117.091-1.122.988-2.052 2.023-2.081 1.384-.025 1.834 1.071 3.091 1.075 1.286.014 1.921-1.097 3.45-1.071h.084c1.213.033 2.165 1.031 2.121 2.241a2.24 2.24 0 0 1-2.314 2.15c-.029 0-.058 0-.084-.004-1.551-.055-2.077-1.22-3.37-1.253-1.26-.029-1.856 1.093-3.258 1.053" class="B"></path>
  <path d="M19.862 35.995c-.89.044-1.62-.196-1.602-.581 0-.461.806-.904 1.801-.941.999-.065 1.711.287 1.598.741-.102.374-.912.704-1.798.781z" class="C"></path>
  <path d="M14.745 35.817c-.85-.134-1.674-.508-1.838-.875-.163-.447.479-.744 1.424-.628.988.094 1.838.577 1.885 1.039.062.381-.603.57-1.471.465zm-4.532-1.188c-.665-.301-1.427-.759-1.747-1.075-.323-.399.022-.53.774-.272.803.24 1.656.821 1.87 1.246.222.349-.185.378-.897.102z" class="B"></path>
  <path d="M25.779 32.853c-.912.174-1.565-.247-1.427-.988.12-.799 1.042-1.591 2.034-1.729.955-.16 1.543.36 1.344 1.119-.221.704-1.079 1.402-1.954 1.598" class="C"></path>
  <path d="M14.186 33.391c-.984-.105-1.892-.766-2.023-1.507-.123-.806.639-1.416 1.711-1.329 1.097.069 2.041.821 2.085 1.645.044.759-.752 1.275-1.769 1.191" class="B"></path>
  <path d="M7.863 28.473c-.883-.163-1.707-1.046-1.87-1.99-.138-.973.472-1.703 1.398-1.598.977.094 1.881 1.039 1.979 2.077.116.999-.574 1.663-1.507 1.511zm19.372-9.29c1.053-.018 1.856.908 1.82 2.056-.051 1.122-.915 2.085-1.95 2.15-1.384.073-1.87-1.002-3.123-.966-1.286.033-1.881 1.162-3.414 1.191l-.084.004c-1.213.011-2.197-.955-2.197-2.165s1.006-2.226 2.237-2.23h.084c1.555 0 2.117 1.148 3.414 1.133 1.26-.015 1.816-1.158 3.218-1.166" class="C"></path>
  <path d="M13.517 23.56c-1.166-.036-2.128-1.017-2.161-2.201-.022-1.191.912-2.161 2.096-2.157 1.206 0 2.201 1.006 2.208 2.23a2.09 2.09 0 0 1-2.139 2.128m-11.11-6.055c-.585.022-.977-.755-.922-1.714.084-.944.588-1.812 1.162-1.925.643-.105 1.144.635 1.075 1.678-.047 1.06-.657 1.947-1.315 1.961zm4.98-5.836c-.93.105-1.54-.625-1.398-1.598.163-.944.991-1.827 1.87-1.99.933-.156 1.623.508 1.507 1.511-.098 1.039-1.002 1.983-1.979 2.077z" class="B"></path>
  <path d="M26.389 6.417c-.992-.142-1.914-.93-2.034-1.729-.142-.741.512-1.166 1.427-.988.875.2 1.732.893 1.954 1.598.196.759-.389 1.278-1.344 1.119" class="C"></path>
  <path d="M20.298 5.884c-1.118-.025-2.034-.752-2.03-1.58-.011-.763.835-1.322 1.881-1.286 1.024.058 1.914.686 2.008 1.442.076.817-.744 1.471-1.86 1.424z" class="B"></path>
  <path d="M20.313 7.318c-1.46-.025-2.012.926-3.291.937-1.267.025-1.783-.908-3.214-.839h-.036c-1.104.076-2.052.944-2.135 1.968-.08 1.068.784 1.91 1.939 1.859h.04c1.5-.044 2.092-1.115 3.389-1.137 1.307-.007 1.881 1.057 3.41 1.075h.047c1.188.026 2.103-.85 2.048-1.932-.047-1.035-1.02-1.892-2.15-1.932h-.044m-6.798 5.674c-1.485.051-2.066 1.173-3.294 1.22-1.18.047-1.623-1.002-2.902-.908-.022 0-.047.007-.069.007-.941.08-1.732 1.028-1.79 2.11-.044 1.111.676 1.997 1.631 1.99.022 0 .047-.007.069-.007 1.297-.015 1.82-1.133 3.011-1.162 1.235-.022 1.772 1.119 3.28 1.108 1.206 0 2.201-1.006 2.208-2.23a2.09 2.09 0 0 0-2.139-2.128m6.935 12.377c-1.533.018-2.106 1.082-3.414 1.079-1.304-.022-1.892-1.093-3.392-1.137-.029 0-.058-.007-.08 0-1.155-.051-2.019.792-1.939 1.86.084 1.024 1.031 1.892 2.136 1.968h.076c1.431.069 1.943-.864 3.218-.839 1.278.007 1.823.962 3.294.933 1.13-.04 2.103-.897 2.15-1.932.055-1.082-.864-1.957-2.052-1.932" class="C"></path>
  <path d="M7.096 19.143c-1.209-.018-1.616 1.028-2.55.984-.857-.033-1.235-1.046-2.092-1.079H2.41c-.585-.022-.977.756-.919 1.714.084.948.588 1.812 1.162 1.925.018.011.029.007.04.004.843.142 1.1-.777 1.95-.687.922.073 1.42 1.133 2.611 1.239.991.073 1.787-.792 1.743-1.947-.029-1.173-.897-2.139-1.903-2.154zm1.78-15.025c-.991.309-1.605 1.031-2.382 1.318-.715.312-.708-.087-1.395.345l-.033.022c-.45.349-1.068 1.064-1.413 1.623-.334.628-.214.926.291.654.015-.011.033-.022.036-.018.755-.338 1.315-1.166 2.063-1.449.806-.251.991.381 2.077.134.912-.174 1.801-.977 1.972-1.765.167-.715-.389-1.09-1.22-.868m-.748 25.689c-1.09-.247-1.271.385-2.077.134-.748-.28-1.307-1.108-2.063-1.449-.004 0-.022-.007-.036-.018-.505-.272-.625.025-.291.654.345.559.962 1.275 1.413 1.623.015.011.029.022.033.022.686.432.679.033 1.395.345.777.287 1.391 1.006 2.382 1.318.832.221 1.387-.152 1.22-.868-.171-.785-1.064-1.591-1.972-1.765" class="B"></path>
  <path d="M2.913 8.285v-.004l.004-.004-.004.008z" fill="#1aaedc"></path>
  <path d="M.614 13.322a17.98 17.98 0 0 1 .926-2.542c.243-.374.109.182.461-.091.45-.272.901-1.129 1.562-1.445.603-.24.962.291.774 1.188-.163.93-.846 1.83-1.482 1.979-.708.203-.77-.556-1.235-.341-.37.225-.686 1.086-.952 1.311-.007.018-.011.018-.011.014-.058.08-.073.055-.044-.069v-.004z" class="C"></path>
  <path d="M.189 21.341l-.145-1.039v-.007c-.069-.781-.062-1.402.065-1.387.211.029.469.795.53 1.696.091.883-.029 1.489-.232 1.347-.062-.073-.145-.298-.218-.61z" class="B"></path>
  <path d="M1.54 25.775a17.98 17.98 0 0 1-.926-2.542c-.029-.127-.015-.149.044-.073.276.24.592 1.1.962 1.326.461.214.527-.541 1.235-.341.636.145 1.318 1.046 1.482 1.976.189.901-.171 1.427-.774 1.188-.661-.312-1.111-1.169-1.562-1.445-.352-.272-.218.283-.454-.087" class="C"></path>
  <path d="M2.913 28.274l-.657-1.082.654 1.079.004.004z" fill="#1aaedc"></path>
  <path d="M20.058 2.081c-.995-.036-1.805-.479-1.801-.941-.015-.385.715-.625 1.602-.581.89.076 1.696.407 1.798.781.112.458-.599.806-1.598.741z" class="C"></path>
  <path d="M14.331 2.237c-.944.116-1.591-.182-1.424-.628.163-.367.988-.741 1.838-.875.868-.105 1.536.084 1.471.465-.047.458-.897.944-1.885 1.039z" class="B"></path>
  <path d="M9.239 3.269c-.748.258-1.093.123-.774-.272.32-.312 1.082-.774 1.747-1.075.712-.276 1.115-.247.897.102-.214.425-1.068 1.006-1.87 1.246z" class="C"></path>
  <path d="M32.007 34.016V0" stroke="#ff5100" stroke-width=".53"></path>
  <path d="M35.09.864h3.007v20.603H35.09V.864zm8.027 0h13.22c2.219 0 5.048.087 6.712 2.19.875 1.137 1.021 2.335 1.021 3.181 0 2.012-.933 3.181-1.867 3.763-.203.116-.962.465-1.021.465.904.291 3.911 1.315 3.911 5.252 0 1.605-.614 3.152-1.838 4.173-1.867 1.576-4.699 1.576-6.915 1.576H43.12V.864h-.004zm2.916 2.393v6.334h10.768c.904 0 1.954 0 2.771-.468 1.021-.556 1.46-1.692 1.46-2.684A2.96 2.96 0 0 0 59.688 3.9c-1.02-.643-2.306-.643-3.385-.643h-10.27zm0 8.695v7.118h11.175c1.224 0 2.626-.058 3.733-.991 1.079-.933 1.108-2.161 1.108-2.597 0-1.722-.992-2.481-1.224-2.684-1.05-.817-2.422-.846-3.617-.846H46.033zM69.262.864h3.007v20.603h-3.007V.864zM84.233.835h3.094l10.565 20.629h-3.356l-2.51-5.077H79.362l-2.51 5.077h-3.269L84.233.835zm2.19 4.493l-.469-1.05-.232-.788-.291.846c-.145.378-.32.73-.498 1.108l-4.347 8.549H90.77l-4.347-8.666z" class="B"></path>
  <g fill="#dadada">
    <use xlink:href="#B"></use>
    <use xlink:href="#C"></use>
    <use xlink:href="#D"></use>
    <use xlink:href="#E"></use>
    <use xlink:href="#F"></use>
    <use xlink:href="#C" x="12.839"></use>
    <path d="M53.242 26.465c.065-.636.41-1.028 1.449-1.028s1.391.316 1.391.901v1.587c0 .251.069.338.24.338l.229-.011v.291c-.087.018-.222.047-.363.047-.44 0-.461-.298-.468-.538h-.011c-.134.2-.425.607-1.42.607-.519 0-1.18-.229-1.18-.912 0-.825.846-.915 1.511-.952.944-.051 1.064-.105 1.064-.403 0-.439-.291-.596-1.006-.596s-1.01.182-1.039.665h-.396v.004zm2.441.468c-.192.123-.483.145-1.347.229-.501.047-.795.2-.795.559 0 .472.41.614.875.614.585 0 1.267-.316 1.267-.941v-.461z"></path>
    <use xlink:href="#D" x="16.696"></use>
    <use xlink:href="#B" x="24.376"></use>
    <path d="M62.449 25.437c1.169 0 1.721.766 1.721 1.613s-.556 1.612-1.721 1.612-1.721-.766-1.721-1.612.556-1.613 1.721-1.613zm0 2.862c.817 0 1.289-.519 1.289-1.249s-.472-1.249-1.289-1.249-1.289.519-1.289 1.249.472 1.249 1.289 1.249z"></path>
    <use xlink:href="#C" x="28.565"></use>
    <path d="M68.968 26.465c.065-.636.41-1.028 1.449-1.028s1.391.316 1.391.901v1.587c0 .251.069.338.24.338l.229-.011v.291c-.087.018-.222.047-.363.047-.439 0-.461-.298-.468-.538h-.011c-.134.2-.425.607-1.42.607-.519 0-1.18-.229-1.18-.912 0-.825.846-.915 1.511-.952.944-.051 1.061-.105 1.061-.403 0-.439-.291-.596-1.002-.596s-1.01.182-1.039.665h-.396v.004zm2.441.468c-.193.123-.483.145-1.347.229-.501.047-.795.2-.795.559 0 .472.41.614.875.614.585 0 1.268-.316 1.268-.941v-.461zm1.427-2.571h.432v4.202h-.432v-4.202zm3.29 0h.432v1.776h.011c.2-.385.661-.701 1.239-.701 1.133 0 1.652.766 1.652 1.613 0 .741-.41 1.612-1.652 1.612-.737 0-1.122-.443-1.239-.701h-.011v.607h-.432v-4.202-.004zm1.682 3.933c.882 0 1.22-.643 1.22-1.249 0-.77-.537-1.249-1.22-1.249-.883 0-1.271.625-1.271 1.249 0 .795.556 1.249 1.271 1.249z"></path>
    <use xlink:href="#E" x="37.539"></use>
    <use xlink:href="#D" x="43.96"></use>
    <use xlink:href="#D" x="46.306"></use>
    <use xlink:href="#B" x="53.983"></use>
    <use xlink:href="#C" x="53.984"></use>
    <path d="M97.216 25.532h.432v2.92c0 1.122-.904 1.402-1.703 1.402-1.384 0-1.518-.661-1.555-.988h.396c.065.327.152.661 1.173.661.795 0 1.257-.374 1.257-1.104v-.545h-.011c-.163.309-.559.69-1.344.69s-1.612-.396-1.612-1.584c0-.806.516-1.547 1.66-1.547.588 0 1.093.222 1.297.683h.011v-.588zm-1.286.269c-.759 0-1.249.439-1.249 1.184 0 .886.556 1.22 1.286 1.22s1.26-.45 1.26-1.22c0-.636-.439-1.184-1.297-1.184z"></path>
    <use xlink:href="#B" y="5.452"></use>
    <use xlink:href="#C" y="5.452"></use>
    <path d="M40.716 30.024h.432v.959h.857v.327h-.857v2.008c0 .261.08.385.432.385a1.97 1.97 0 0 0 .425-.036v.363c-.163.022-.334.036-.472.036-.672 0-.817-.261-.817-.752v-2.001h-.661v-.327h.661v-.959-.004zm5.237 3.022c-.174.537-.632 1.064-1.634 1.064-1.242 0-1.652-.868-1.652-1.612 0-.846.519-1.613 1.652-1.613.781 0 1.711.338 1.711 1.718h-2.931c0 .632.45 1.144 1.22 1.144.723 0 1.05-.24 1.202-.701h.432zm-.356-.77c-.123-.748-.672-1.028-1.249-1.028s-1.151.287-1.249 1.028h2.499zm4.057-1.297h.432v2.92c0 1.122-.904 1.402-1.703 1.402-1.384 0-1.518-.661-1.554-.988h.396c.065.327.152.661 1.173.661.795 0 1.257-.374 1.257-1.104v-.545h-.011c-.163.309-.559.69-1.344.69s-1.612-.396-1.612-1.584c0-.806.512-1.547 1.66-1.547.588 0 1.093.221 1.297.683h.011v-.588zm-1.286.269c-.759 0-1.249.439-1.249 1.184 0 .886.556 1.22 1.286 1.22s1.26-.45 1.26-1.22c0-.635-.439-1.184-1.297-1.184z"></path>
    <use xlink:href="#F" x="4.188" y="5.447"></use>
    <use xlink:href="#B" x="18.387" y="5.452"></use>
    <use xlink:href="#G"></use>
    <path d="M59.671 30.979h.468l-1.645 3.603c-.222.479-.41.614-.886.614-.134 0-.287 0-.414-.011v-.363l.309.011c.309 0 .461-.069.603-.374l.2-.421-1.478-3.058h.468l1.238 2.528 1.144-2.528h-.007zm2.949.934c.065-.636.41-1.028 1.449-1.028s1.391.316 1.391.901v1.587c0 .251.069.338.24.338l.229-.011v.291c-.087.018-.222.047-.363.047-.439 0-.461-.298-.468-.538h-.011c-.134.2-.425.607-1.42.607-.519 0-1.18-.229-1.18-.912 0-.824.846-.915 1.511-.952.944-.051 1.064-.105 1.064-.403 0-.439-.29-.596-1.006-.596s-1.01.182-1.039.665h-.396v.004zm2.441.469c-.192.123-.483.145-1.347.229-.501.047-.795.2-.795.559 0 .472.41.614.875.614.585 0 1.267-.316 1.267-.941v-.461zm3.696-.502c-.113-.49-.414-.632-1.046-.632-.454 0-.875.098-.875.519 0 .316.203.378 1.126.501.93.123 1.315.287 1.315.875s-.49.962-1.442.962-1.536-.316-1.536-1.046h.396c.076.508.363.683 1.137.683.603 0 1.01-.123 1.01-.578 0-.305-.214-.439-1.162-.53s-1.278-.316-1.278-.854.425-.901 1.308-.901c.988 0 1.391.356 1.442.992h-.396l.004.007zm3.538 0c-.113-.49-.414-.632-1.046-.632-.454 0-.875.098-.875.519 0 .316.203.378 1.126.501.93.123 1.315.287 1.315.875s-.49.962-1.442.962-1.536-.316-1.536-1.046h.396c.076.508.363.683 1.137.683.603 0 1.01-.123 1.01-.578 0-.305-.214-.439-1.162-.53s-1.278-.316-1.278-.854.425-.901 1.307-.901c.988 0 1.391.356 1.442.992h-.396l.004.007zm2.894-.991c1.166 0 1.721.766 1.721 1.613s-.556 1.612-1.721 1.612-1.722-.766-1.722-1.612.556-1.613 1.722-1.613zm0 2.862c.817 0 1.289-.519 1.289-1.249s-.472-1.249-1.289-1.249-1.289.519-1.289 1.249.472 1.249 1.289 1.249zm5.662-.821c-.08.396-.432 1.18-1.536 1.18s-1.711-.661-1.711-1.612.559-1.613 1.711-1.613c1.039 0 1.442.646 1.511 1.086h-.432c-.134-.519-.545-.723-1.079-.723-.868 0-1.278.549-1.278 1.249 0 .752.454 1.249 1.278 1.249.635 0 .991-.345 1.104-.817h.432z"></path>
    <use xlink:href="#B" x="46.527" y="5.452"></use>
    <path d="M82.961 31.913c.065-.636.41-1.028 1.449-1.028s1.391.316 1.391.901v1.587c0 .251.069.338.24.338l.229-.011v.291c-.087.018-.222.047-.363.047-.44 0-.461-.298-.469-.538h-.011c-.134.2-.425.607-1.42.607-.519 0-1.18-.229-1.18-.912 0-.824.846-.915 1.511-.952.944-.051 1.06-.105 1.06-.403 0-.439-.291-.596-1.002-.596s-1.01.182-1.039.665h-.396v.004zm2.441.469c-.192.123-.483.145-1.347.229-.501.047-.795.2-.795.559 0 .472.41.614.875.614.585 0 1.267-.316 1.267-.941v-.461z"></path>
    <use xlink:href="#G" x="31.996"></use>
    <use xlink:href="#B" x="54.096" y="5.452"></use>
    <path d="M92.168 30.889c1.166 0 1.721.766 1.721 1.613s-.556 1.612-1.721 1.612-1.721-.766-1.721-1.612.556-1.613 1.721-1.613zm0 2.862c.817 0 1.289-.519 1.289-1.249s-.472-1.249-1.289-1.249-1.289.519-1.289 1.249.472 1.249 1.289 1.249z"></path>
    <use xlink:href="#C" x="58.284" y="5.452"></use>
  </g>
  <defs>
    <path id="B" d="M35.08 24.362h.432v.643h-.432v-.643zm0 1.166h.432v3.036h-.432v-3.036z"></path>
    <path id="C" d="M39.038 26.61c0-.603-.367-.81-.915-.81-.846 0-1.231.432-1.231 1.122v1.645h-.432v-3.036h.432v.596h.011c.127-.32.585-.69 1.257-.69 1.01 0 1.315.527 1.315 1.249v1.881h-.432v-1.954l-.004-.004z"></path>
    <path id="D" d="M40.716 24.573h.432v.959h.857v.327h-.857v2.008c0 .261.08.385.432.385.211 0 .345-.018.425-.036v.363c-.163.022-.334.036-.472.036-.672 0-.817-.262-.817-.752v-2.001h-.661v-.327h.661v-.959-.004z"></path>
    <path id="E" d="M45.953 27.598c-.174.538-.632 1.064-1.634 1.064-1.242 0-1.652-.868-1.652-1.612 0-.846.519-1.613 1.652-1.613.781 0 1.711.338 1.711 1.718h-2.931c0 .632.45 1.144 1.22 1.144.723 0 1.05-.24 1.202-.701h.432zm-.356-.77c-.123-.748-.672-1.028-1.249-1.028s-1.151.287-1.249 1.028h2.499z"></path>
    <path id="F" d="M46.843 25.532h.432v.694h.011c.156-.363.443-.788 1.162-.788a1.38 1.38 0 0 1 .258.022v.443a2.43 2.43 0 0 0-.396-.036c-.468 0-1.035.287-1.035 1.151v1.547h-.432v-3.036.004z"></path>
    <path id="G" d="M55.138 30.024h.432v.959h.857v.327h-.857v2.008c0 .261.08.385.432.385.211 0 .345-.018.425-.036v.363c-.163.022-.334.036-.472.036-.672 0-.817-.261-.817-.752v-2.001h-.661v-.327h.661v-.959-.004z"></path>
  </defs>
</svg>
