<svg width="24" height="24" viewBox="0 0 24 24" fill="none" xmlns="http://www.w3.org/2000/svg">
<path fill-rule="evenodd" clip-rule="evenodd" d="M13.4551 15.4884H18.3073V12.3155H13.4551V15.4884ZM12.7044 8.73886H15.758V8.73915C15.7629 8.73909 15.7676 8.73886 15.7725 8.73886C16.9981 8.73886 18.0231 9.52959 18.2571 10.5766H13.4276C13.3478 9.89881 13.092 9.27223 12.7044 8.73886ZM6.69624 15.4883C6.69624 15.4883 6.6955 11.0527 6.6955 11.0313C6.6955 9.76724 7.82982 8.73886 9.22757 8.73886C10.6253 8.73886 11.7597 9.76724 11.7597 11.0313C11.7597 11.0528 11.7625 15.4883 11.7625 15.4883H6.69624ZM15.7724 7C15.7676 7 15.7628 7.00035 15.758 7.00035V7H9.22756C6.89274 7 5 8.80491 5 11.0314L5.00355 17.2273H20V11.0314C20 8.80491 18.1073 7 15.7724 7Z" fill="white"/>
</svg>
