<svg width="126" height="13" viewBox="0 0 126 13" fill="none" xmlns="http://www.w3.org/2000/svg">
<path fill-rule="evenodd" clip-rule="evenodd" d="M54.425 0.0487395V7.60343L54.5849 7.64567L56.2665 4.55556L57.2196 2.77818C57.4053 2.33139 57.7268 2.31352 58.0644 2.32652L58.2502 2.33464L58.4327 2.33302C58.8769 2.3054 59.2452 2.31677 59.4908 2.8058L61.9364 7.37922C61.9768 7.45558 62.0414 7.52057 62.2013 7.7334V0.0617374H64.9184V12.9811L63.6988 12.9908C63.2933 12.9924 62.8863 12.9859 62.484 12.9567C62.2886 12.9421 62.0608 12.6594 61.9445 12.4531L58.5248 6.34431C58.4795 6.26308 58.4117 6.19322 58.2889 6.034L55.9483 10.2029L54.6334 12.5278C54.4572 12.7653 54.1947 12.923 53.9032 12.9664C53.2151 13.0266 52.5173 12.9876 51.758 12.9876V0.0487395H54.4266H54.425V0.0487395ZM117.599 0.040616C117.788 0.055238 117.999 0.297314 118.124 0.479276L122.663 7.14202L123.241 7.92186V0.0682356H126V12.9827C125.284 12.9827 124.593 13.0184 123.913 12.9616C123.698 12.9437 123.449 12.7146 123.315 12.5229L118.615 5.69932L118.185 5.11769V12.9437H115.46V0.0194961L117.599 0.040616H117.6H117.599ZM92.1356 0.0389922L92.8512 0.0503648L94.284 0.0617374L97.1368 0.188461C99.0784 0.381796 100.311 1.53206 100.771 3.22658C101.345 5.3354 101.342 7.50107 100.817 9.61964C100.296 11.7155 98.6891 12.8836 96.3468 12.9616L91.0226 12.9778C90.9273 12.9778 90.8304 12.9421 90.7011 12.9161V0.0373669L91.6574 0.0341178L92.134 0.0389922H92.1356V0.0389922ZM74.554 1.77088L78.5601 12.3247C78.6263 12.5002 78.6699 12.6838 78.7539 12.9599C77.796 12.9599 76.8866 12.9681 75.9771 12.9502C75.8608 12.9486 75.73 12.83 75.6379 12.7374C75.5733 12.674 75.5636 12.5635 75.5281 12.4758C75.2745 11.8389 75.2115 10.9535 74.7172 10.6351C74.2115 10.3085 73.2811 10.5278 72.538 10.5295C71.7691 10.5327 70.8257 10.3215 70.2862 10.6529C69.7919 10.9551 69.7063 11.8519 69.4915 12.5002C69.3735 12.8576 69.1845 12.9811 68.7839 12.9697L66.2333 12.9616L68.4011 7.21188L70.9001 0.596251C71.0567 0.170589 71.2554 0.00324999 71.761 0.00162532C73.8529 -0.00324867 73.8659 -0.0243703 74.5524 1.76926H74.554V1.77088ZM107.121 0C109.224 0.0227453 109.218 0.00324948 109.895 1.805L113.873 12.3621L114.069 12.9616C113.142 12.9616 112.273 12.9827 111.407 12.9437C111.298 12.9246 111.195 12.8815 111.105 12.8174C111.015 12.7534 110.941 12.67 110.887 12.5733C110.652 12.0518 110.52 11.4913 110.284 10.9714C110.2 10.7861 109.937 10.5522 109.748 10.5473L105.97 10.5295C105.818 10.5295 105.666 10.5506 105.478 10.5636L104.629 12.9323H101.543L103.175 8.62697L106.205 0.609249C106.37 0.164091 106.58 -0.00324956 107.118 0.00324909L107.12 0.00162532L107.121 0ZM88.6303 0.07311C88.6335 0.869195 88.7756 1.66041 88.2458 2.46624L83.4223 10.0437C83.3093 10.2224 83.2156 10.4108 83.0379 10.7277H88.8257V12.9599H79.3403C79.2596 12.0761 79.2224 11.2735 79.7732 10.4498L84.5854 2.94876L84.9602 2.30215H79.3258V0.0747338H88.6319V0.07311H88.6303ZM43.9704 0.0584883C44.3112 0.0666116 44.7926 0.282692 44.9315 0.534515C45.0414 0.732724 44.8184 1.21362 44.5891 1.42646L32.4561 12.5408C32.2073 12.765 31.6743 12.9697 31.4126 12.8706C31.1509 12.7715 30.9053 12.2841 30.9021 11.9657L30.8843 1.03329C30.886 0.256696 31.1444 0.0406162 32.0022 0.0373669H38.0242L43.9688 0.0584883H43.9704ZM4.02897 0.032494L7.03677 0.0373669H12.823C13.8164 0.0389916 14.0167 0.212831 14.0167 1.09502L13.999 11.9462C13.9957 12.2695 13.7761 12.8089 13.5531 12.8592C13.3532 12.881 13.1509 12.8621 12.9584 12.8038C12.7658 12.7455 12.5868 12.6488 12.4321 12.5197L0.373412 1.43783C0.129492 1.212 -0.0788889 0.719727 0.0293403 0.476027C0.132723 0.2437 0.669023 0.0617379 1.01956 0.0552392L4.02736 0.0308687L4.02897 0.032494ZM28.5211 0.0552392C28.8748 0.0584886 29.4741 0.261572 29.5226 0.461405C29.5953 0.765217 29.3837 1.23637 29.122 1.47844L17.1748 12.4596C16.8921 12.7162 16.3639 12.9161 16.0036 12.8592C15.7936 12.8251 15.5691 12.2288 15.561 11.8812L15.54 6.49053L15.5416 1.02841C15.5449 0.212832 15.7355 0.0389922 16.6401 0.0389922L28.5211 0.0552392V0.0536139V0.0552392ZM93.6023 2.37526V10.7114L95.6748 10.7098C97.0447 10.6935 97.9073 10.1704 98.0187 8.9324C98.1657 7.29799 98.1076 5.63921 98.0155 3.9983C97.9703 3.19734 97.3887 2.52473 96.4954 2.4045C95.5537 2.27778 94.578 2.37526 93.6039 2.37526H93.6023ZM107.832 3.82771L106.27 8.2468H109.362L107.83 3.82771H107.832V3.82771ZM72.5186 3.82446L70.9711 8.22892H74.0565L72.5186 3.82446Z" fill="white"/>
</svg>
