<svg fill="none" xmlns="http://www.w3.org/2000/svg">
    <symbol id="teams" viewBox="0 0 14 9">
		<path d="M4.2 4.5C5.55406 4.5 6.65 3.49353 6.65 2.25C6.65 1.00647 5.55406 0 4.2 0C2.84594 0 1.75 1.00647 1.75 2.25C1.75 3.49353 2.84594 4.5 4.2 4.5ZM5.88 5.14286H5.69844C5.24344 5.34375 4.73812 5.46429 4.2 5.46429C3.66188 5.46429 3.15875 5.34375 2.70156 5.14286H2.52C1.12875 5.14286 0 6.17946 0 7.45714V8.03571C0 8.56808 0.470313 9 1.05 9H7.35C7.92969 9 8.4 8.56808 8.4 8.03571V7.45714C8.4 6.17946 7.27125 5.14286 5.88 5.14286ZM10.5 4.5C11.6594 4.5 12.6 3.63616 12.6 2.57143C12.6 1.5067 11.6594 0.642857 10.5 0.642857C9.34062 0.642857 8.4 1.5067 8.4 2.57143C8.4 3.63616 9.34062 4.5 10.5 4.5ZM11.55 5.14286H11.4669C11.1628 5.23929 10.8412 5.30357 10.5 5.30357C10.1587 5.30357 9.83719 5.23929 9.53312 5.14286H9.45C9.00375 5.14286 8.5925 5.26138 8.23156 5.45223C8.76531 5.98058 9.1 6.6817 9.1 7.45714V8.22857C9.1 8.27277 9.08906 8.31496 9.08687 8.35714H12.95C13.5297 8.35714 14 7.92522 14 7.39286C14 6.14933 12.9041 5.14286 11.55 5.14286Z"/>
	</symbol>
	<symbol id="championships" viewBox="0 0 14 14">
		<path d="M6.18693 10.5H4.88223C4.76828 10.4996 4.65537 10.5211 4.54998 10.5631C4.44459 10.6051 4.34879 10.667 4.26807 10.745C4.18736 10.823 4.12332 10.9158 4.07962 11.0179C4.03592 11.12 4.01343 11.2294 4.01343 11.34V12.2763H9.9868V11.34C9.9868 11.2294 9.96431 11.12 9.92061 11.0179C9.87691 10.9158 9.81287 10.823 9.73215 10.745C9.65144 10.667 9.55564 10.6051 9.45025 10.5631C9.34486 10.5211 9.23195 10.4996 9.118 10.5H6.18693Z"/>
		<path d="M13.6273 1.91917C13.3829 1.57661 13.0519 1.30069 12.6661 1.11786C12.2802 0.935025 11.8524 0.851402 11.4237 0.875005H2.58541C2.1552 0.84987 1.72558 0.932752 1.33802 1.11565C0.950451 1.29855 0.618024 1.5753 0.372823 1.91917C-0.11118 2.65709 -0.123205 3.63417 0.339754 4.6025C1.20254 6.38167 3.87508 6.97375 3.98931 7L4.25086 7.05542H9.74925L10.0108 7C10.125 6.97667 12.8096 6.38459 13.6603 4.60542C14.1293 3.63417 14.1113 2.65709 13.6273 1.91917ZM12.8577 4.2525C12.515 4.95834 11.7243 5.43375 11.1231 5.71375C10.8968 5.81615 10.665 5.90669 10.4287 5.985H3.58347C3.34716 5.90669 3.11535 5.81615 2.88903 5.71375C2.28779 5.42209 1.48513 4.9525 1.14242 4.24084C0.799707 3.52917 0.802713 2.86709 1.12137 2.38292C1.28662 2.16042 1.50809 1.98292 1.76449 1.86747C2.02089 1.75203 2.30359 1.70254 2.58541 1.72375H11.4237C11.7055 1.70254 11.9882 1.75203 12.2446 1.86747C12.501 1.98292 12.7225 2.16042 12.8877 2.38292C13.1974 2.86709 13.1914 3.54375 12.8577 4.24084V4.2525Z"/>
		<path d="M7.62068 10.5V9.66583C7.62093 9.37189 7.69972 9.08303 7.84935 8.82744C7.99899 8.57185 8.21436 8.35825 8.47445 8.2075C10.176 7.23917 11.3905 4.64042 11.3905 1.58958V0H2.6123V1.58083C2.6123 4.63167 3.8148 7.23042 5.52835 8.19875C5.78848 8.34921 6.00374 8.56282 6.15292 8.81853C6.3021 9.07425 6.38005 9.36325 6.37911 9.65708V10.5L7.08858 11.2117L7.62068 10.5Z"/>
		<path d="M5.96128 11.8183H3.67955C3.6147 11.818 3.55041 11.8301 3.49041 11.854C3.43042 11.8779 3.37591 11.9131 3.33005 11.9576C3.28418 12.0021 3.24788 12.055 3.22325 12.1132C3.19861 12.1714 3.18613 12.2337 3.18653 12.2967V14H10.8224V12.2967C10.8227 12.2337 10.8103 12.1714 10.7856 12.1132C10.761 12.055 10.7247 12.0021 10.6788 11.9576C10.633 11.9131 10.5785 11.8779 10.5185 11.854C10.4585 11.8301 10.3942 11.818 10.3293 11.8183H8.03858"/>
	</symbol>
	<symbol id="star" viewBox="0 0 32 32">
		<path d="m30.4 11-8.8-1.3-3.9-8a2 2 0 0 0-3.4 0l-4 8-8.7 1.2a2 2 0 0 0-1 3.3l6.3 6.2L5.4 29a2 2 0 0 0 2.8 2l7.8-4 7.8 4a2 2 0 0 0 2.8-2L25 20.5l6.3-6.2a2 2 0 0 0-1-3.3zM23 19.6l1.7 9.7-8.7-4.6-8.7 4.6L9 19.7l-7-6.9 9.6-1.4L16 2.6l4.4 8.8 9.7 1.4-7 6.9z"/>
	</symbol>
	<symbol id="solidstar" viewBox="0 0 32 32">
		<path d="m14.3 1.8-4 7.9-8.7 1.2a2 2 0 0 0-1 3.3l6.3 6.2L5.4 29a2 2 0 0 0 2.8 2l7.8-4 7.8 4a2 2 0 0 0 2.8-2L25 20.5l6.3-6.2a2 2 0 0 0-1-3.3l-8.8-1.2-3.9-8a2 2 0 0 0-3.4 0z"/>
	</symbol>
</svg>
