<svg width="88" height="51" viewBox="0 0 88 51" fill="none" xmlns="http://www.w3.org/2000/svg">
<path d="M52.9505 13.2614C52.7334 13.2593 52.5236 13.3394 52.3637 13.4853C52.1807 13.6562 52.0417 13.8682 51.9584 14.1035C51.8089 14.5157 51.7106 14.9445 51.6658 15.3804C51.6068 15.6882 51.5724 16.0001 51.5628 16.3133C51.5588 16.4218 51.5642 16.5303 51.5791 16.6378C51.5758 16.8765 51.6479 17.1103 51.7851 17.3063C51.8518 17.3908 51.938 17.4581 52.0365 17.5024C52.1349 17.5468 52.2427 17.5669 52.3507 17.561C52.464 17.5633 52.5766 17.5425 52.6815 17.4998C52.7864 17.4571 52.8813 17.3934 52.9604 17.3128C53.1431 17.1224 53.282 16.8949 53.3674 16.6459C53.4685 16.2291 53.5471 15.8072 53.6027 15.382C53.6664 15.051 53.7062 14.7159 53.722 14.3793C53.7397 14.0951 53.678 13.8116 53.5439 13.5599C53.482 13.461 53.3939 13.3809 53.2893 13.3282C53.1847 13.2756 53.0675 13.2525 52.9505 13.2614V13.2614Z" fill="white"/>
<path d="M16.1409 13.0536H14.9968C14.9298 13.0536 14.8938 13.0812 14.8905 13.1363L14.4705 14.4165C14.4705 14.4717 14.4917 14.4992 14.5342 14.4992H15.6784C15.7037 14.4984 15.7282 14.4899 15.7486 14.4749C15.7588 14.469 15.7673 14.4607 15.7736 14.4509C15.7798 14.441 15.7836 14.4297 15.7846 14.4181L16.1884 13.1347C16.2112 13.0747 16.1982 13.0536 16.1409 13.0536Z" fill="white"/>
<path d="M61.8147 13.2628C61.5934 13.2602 61.3795 13.3414 61.2165 13.4899C61.0314 13.6623 60.8912 13.8767 60.8078 14.1146C60.6605 14.5315 60.5649 14.9646 60.5234 15.4045C60.4654 15.7156 60.4332 16.0309 60.427 16.3472C60.4247 16.4583 60.4308 16.5695 60.445 16.6798C60.4445 16.922 60.5212 17.1583 60.664 17.3547C60.7329 17.4406 60.8216 17.5088 60.9225 17.5537C61.0235 17.5986 61.1338 17.6188 61.2442 17.6127C61.3593 17.6152 61.4737 17.5941 61.5803 17.5508C61.6868 17.5076 61.7833 17.443 61.8637 17.3612C62.0492 17.1699 62.1894 16.9398 62.274 16.6879C62.3733 16.2667 62.4491 15.8404 62.5012 15.411C62.5626 15.076 62.6003 14.7371 62.6139 14.3969C62.6286 14.1083 62.5624 13.8213 62.4227 13.5678C62.3586 13.4672 62.2682 13.3856 62.1611 13.3319C62.0541 13.2782 61.9343 13.2543 61.8147 13.2628Z" fill="white"/>
<path d="M44.392 10.1543C44.0057 10.146 43.6319 10.2901 43.3525 10.555C43.0597 10.8382 42.8729 11.2119 42.8229 11.6145L42.1331 16.0716C42.1172 16.1561 42.109 16.2419 42.1086 16.3279C42.0974 16.4869 42.1191 16.6464 42.1722 16.7968C42.2253 16.9472 42.3088 17.0852 42.4175 17.2024C42.5319 17.3129 42.6681 17.3987 42.8174 17.4545C42.9667 17.5103 43.126 17.535 43.2854 17.5269C43.674 17.5337 44.0502 17.3906 44.3348 17.1278C44.6361 16.8534 44.8252 16.4786 44.866 16.0748L45.5297 11.6032C45.5437 11.5244 45.5508 11.4446 45.5509 11.3647C45.5711 11.0429 45.4624 10.7262 45.2485 10.4836C45.1383 10.3704 45.0046 10.2824 44.8567 10.2255C44.7089 10.1686 44.5503 10.1443 44.392 10.1543V10.1543Z" fill="white"/>
<path d="M87.457 14.3289C87.2266 6.25367 79.7372 -0.13415 70.9777 0.00214091L14.3885 0.878295C6.91872 0.995115 0.517875 6.93999 0.0291494 14.1975C-0.461211 21.5718 5.29234 27.8119 12.9714 27.958L59.9446 28.852C62.6432 31.9867 67.0614 36.0332 73.2726 38.3485C73.2726 38.3485 70.7865 33.421 70.7227 29.058L71.2866 29.0678C80.337 29.2414 87.6924 22.5485 87.457 14.3289ZM20.3464 12.9968C20.3059 13.0337 20.2527 13.054 20.1976 13.0536H19.0535C19.0267 13.0529 19.0003 13.0605 18.9781 13.0753C18.9558 13.0901 18.9387 13.1115 18.9292 13.1364L18.5271 14.4246C18.5271 14.4798 18.5419 14.5074 18.5746 14.5074H19.3444C19.3701 14.5058 19.3957 14.5103 19.4193 14.5205C19.4429 14.5306 19.4637 14.5461 19.4801 14.5658C19.4959 14.585 19.5067 14.6078 19.5116 14.6321C19.5164 14.6564 19.5152 14.6816 19.5079 14.7053L19.1532 16.6442C19.1393 16.6985 19.1098 16.7475 19.0682 16.7854C19.0484 16.8041 19.025 16.8188 18.9995 16.8285C18.974 16.8382 18.9468 16.8429 18.9195 16.8422H17.8063C17.7797 16.8413 17.7535 16.8488 17.7315 16.8637C17.7094 16.8786 17.6927 16.9 17.6837 16.9249L17.0577 18.9011C17.045 18.9559 17.0129 19.0043 16.9674 19.0376C16.9218 19.071 16.8657 19.087 16.8093 19.0828L14.4555 19.065C14.3199 19.065 14.2725 18.992 14.3133 18.8476L14.9394 16.9103C14.9655 16.8551 14.9492 16.8276 14.8936 16.8276H13.7396C13.6726 16.8276 13.6366 16.8551 13.635 16.9087L12.9812 18.8768C12.9679 18.9308 12.9358 18.9784 12.8907 19.0113C12.8456 19.0443 12.7903 19.0604 12.7344 19.0569L10.4215 19.039C10.2875 19.039 10.2401 18.966 10.2826 18.8232L10.9102 16.8957C10.9102 16.8405 10.8922 16.813 10.8481 16.813H10.093C9.97039 16.813 9.91154 16.7464 9.91971 16.615L10.2777 14.6956C10.2917 14.6427 10.3206 14.5948 10.361 14.5577C10.3801 14.5388 10.4028 14.524 10.4278 14.5143C10.4529 14.5045 10.4796 14.4999 10.5065 14.5009H11.6311C11.6981 14.5009 11.7324 14.4733 11.7357 14.4181L12.1574 13.1412C12.1574 13.0877 12.1394 13.0601 12.0953 13.0601H11.3565C11.3318 13.0611 11.3072 13.0565 11.2845 13.0466C11.2619 13.0368 11.2418 13.022 11.2257 13.0033C11.2103 12.9839 11.2 12.961 11.1957 12.9366C11.1914 12.9123 11.1933 12.8872 11.2012 12.8638L11.5412 10.9411C11.5539 10.888 11.5824 10.84 11.6229 10.8032C11.6421 10.7846 11.6649 10.7701 11.6899 10.7603C11.7149 10.7506 11.7416 10.7458 11.7684 10.7464H12.857C12.8834 10.7465 12.9093 10.7387 12.9312 10.7239C12.9531 10.7092 12.97 10.6881 12.9796 10.6636L13.6186 8.71664C13.6319 8.66322 13.6634 8.61603 13.7078 8.58317C13.7523 8.5503 13.8068 8.53382 13.8622 8.53654H16.1669C16.3009 8.53654 16.3483 8.6063 16.3075 8.74746L15.7207 10.6409C15.6945 10.6961 15.7109 10.7221 15.7664 10.7221H16.9008C16.9678 10.7221 17.0038 10.6945 17.0054 10.6409L17.6429 8.67769C17.6565 8.62386 17.6886 8.57642 17.7336 8.54354C17.7787 8.51067 17.8339 8.49442 17.8897 8.4976H20.2336C20.3693 8.4976 20.4183 8.56736 20.3775 8.70852L19.7612 10.6409C19.7612 10.6945 19.7743 10.7221 19.8086 10.7221H20.5949C20.6201 10.7206 20.6453 10.7249 20.6686 10.7348C20.6919 10.7447 20.7125 10.7597 20.7289 10.7788C20.7447 10.798 20.7555 10.8208 20.7604 10.8452C20.7652 10.8695 20.764 10.8946 20.7567 10.9184L20.4298 12.8654C20.4142 12.9158 20.3854 12.9611 20.3464 12.9968V12.9968ZM30.881 8.20717L27.0398 13.0747C27.0239 13.111 27.0166 13.1504 27.0186 13.1899L29.2105 19.469L29.2252 19.5371C29.2252 19.6507 29.1484 19.6994 29.0078 19.6994L26.3696 19.6767C26.3215 19.6753 26.2748 19.66 26.2353 19.6326C26.1958 19.6052 26.1652 19.567 26.1474 19.5225L24.7416 15.317C24.709 15.2602 24.6697 15.2602 24.6207 15.317L23.8901 16.2175C23.869 16.2474 23.8556 16.2819 23.8508 16.3181L23.3212 19.4512C23.3077 19.5056 23.2788 19.5552 23.2379 19.5939C23.2179 19.6129 23.1943 19.6276 23.1684 19.6374C23.1426 19.6471 23.1151 19.6517 23.0875 19.6507L20.6945 19.6313C20.6688 19.6326 20.643 19.6279 20.6194 19.6174C20.5959 19.607 20.5751 19.5912 20.5589 19.5712C20.5425 19.5517 20.5314 19.5283 20.5265 19.5034C20.5217 19.4784 20.5232 19.4526 20.5311 19.4284L22.45 8.22501C22.4627 8.17149 22.4912 8.12292 22.5318 8.08548C22.5717 8.04737 22.6251 8.02639 22.6805 8.02707L25.0522 8.01247C25.0777 8.01074 25.1033 8.01498 25.1269 8.02484C25.1504 8.0347 25.1713 8.04991 25.1879 8.06925C25.2044 8.08808 25.2158 8.11079 25.2209 8.13522C25.2261 8.15965 25.2248 8.18498 25.2173 8.20879L24.5373 12.2229C24.5243 12.2667 24.5374 12.291 24.5602 12.2975C24.5763 12.2993 24.5925 12.2963 24.6068 12.2888C24.6211 12.2812 24.6328 12.2696 24.6403 12.2553L27.9094 8.12604C27.9338 8.08273 27.9701 8.04721 28.0141 8.02365C28.0581 8.00009 28.108 7.98946 28.1578 7.993L30.7911 7.97677C30.8957 7.97677 30.9545 8.0076 30.9447 8.07412C30.9358 8.12331 30.9138 8.16924 30.881 8.20717V8.20717ZM36.7849 10.4122L35.3514 19.5485C35.3375 19.6056 35.3047 19.6565 35.2582 19.6929C35.2122 19.7305 35.1544 19.7512 35.0948 19.7513L32.643 19.7302C32.6165 19.7317 32.59 19.727 32.5656 19.7166C32.5412 19.7062 32.5196 19.6903 32.5024 19.6702C32.4853 19.6507 32.4736 19.6272 32.4681 19.602C32.4627 19.5767 32.4638 19.5505 32.4714 19.5258L33.9228 10.4219C33.9228 10.3667 33.8999 10.3391 33.8542 10.3391L31.3877 10.3473C31.3616 10.3484 31.3356 10.3438 31.3115 10.3337C31.2875 10.3236 31.266 10.3083 31.2487 10.2888C31.2332 10.2692 31.2225 10.2462 31.2174 10.2217C31.2123 10.1972 31.2129 10.1719 31.2193 10.1477L31.5299 8.16985C31.5436 8.11355 31.5765 8.06369 31.623 8.02869C31.6685 7.99007 31.7267 7.9693 31.7865 7.97028L39.8464 7.91836C39.8736 7.9128 39.9017 7.9142 39.9282 7.92244C39.9547 7.93067 39.9787 7.94548 39.9978 7.96545C40.0169 7.98541 40.0307 8.00989 40.0376 8.03657C40.0446 8.06325 40.0446 8.09125 40.0376 8.11793L39.7222 10.1169C39.71 10.1723 39.6802 10.2223 39.6372 10.2596C39.6169 10.2793 39.5928 10.2948 39.5665 10.3051C39.5401 10.3154 39.5118 10.3203 39.4835 10.3197L36.8682 10.3278C36.8159 10.331 36.7866 10.3586 36.7849 10.4138V10.4122ZM48.4718 11.6696L47.8392 15.9952C47.7324 16.7607 47.4365 17.4881 46.9778 18.1126C46.5281 18.7183 45.9316 19.2016 45.2436 19.5177C44.5121 19.8531 43.7135 20.0195 42.9079 20.0044C41.7408 19.9925 40.8222 19.6751 40.152 19.052C39.4819 18.429 39.161 17.6058 39.1893 16.5826C39.1893 16.4463 39.2089 16.2418 39.2399 15.9692L39.8938 11.6988C39.9942 10.9558 40.2827 10.2503 40.7323 9.64796C41.1773 9.05676 41.7623 8.58363 42.4355 8.27045C43.1559 7.93478 43.9427 7.76295 44.7385 7.76747C45.91 7.76098 46.8362 8.05682 47.5173 8.65498C48.1983 9.25315 48.5312 10.0644 48.5159 11.0887C48.5143 11.1991 48.4996 11.397 48.4718 11.6712V11.6696ZM55.9612 19.8633C55.9398 19.8841 55.9141 19.9002 55.8859 19.9105C55.8578 19.9209 55.8277 19.9252 55.7978 19.9233L53.2038 19.9022C53.176 19.9032 53.1483 19.8982 53.1226 19.8875C53.097 19.8769 53.0739 19.8609 53.055 19.8406C53.0371 19.8206 53.0244 19.7965 53.0182 19.7704C53.0119 19.7444 53.0122 19.7172 53.0191 19.6913L53.0583 19.3781C53.0714 19.3424 53.0583 19.323 53.0403 19.3165C53.0266 19.3138 53.0124 19.3147 52.9992 19.3193C52.9859 19.3239 52.9742 19.3319 52.9652 19.3424C52.424 19.8115 51.7215 20.0556 51.0037 20.0239C50.2464 20.0174 49.6705 19.7605 49.276 19.2532C48.8815 18.7459 48.6533 18.0428 48.5912 17.1439C48.5813 17.0174 48.5781 16.834 48.5813 16.5923C48.594 16.1428 48.631 15.6944 48.6925 15.2489C48.7759 14.6712 48.9132 14.1025 49.1027 13.5501C49.4079 12.6848 49.8312 12.0141 50.3728 11.5382C50.9125 11.0632 51.6131 10.8083 52.3342 10.8243C53.1482 10.8243 53.7274 11.0406 54.0717 11.4733C54.0807 11.4834 54.0923 11.4911 54.1052 11.4953C54.1181 11.4996 54.132 11.5004 54.1453 11.4976C54.1698 11.4976 54.1829 11.4717 54.1829 11.4376L54.6732 8.03032C54.6851 7.97423 54.7142 7.92319 54.7566 7.88429C54.7784 7.86395 54.8041 7.84815 54.8322 7.83784C54.8603 7.82753 54.8902 7.82291 54.9201 7.82426L57.4895 7.80803C57.5171 7.80631 57.5448 7.81065 57.5705 7.82075C57.5962 7.83084 57.6193 7.84644 57.6383 7.86644C57.6557 7.88577 57.6682 7.90898 57.6748 7.9341C57.6813 7.95923 57.6817 7.98555 57.6759 8.01085L56.0593 19.7156C56.0443 19.7748 56.0098 19.8274 55.9612 19.8649V19.8633ZM64.9512 19.9379C64.9071 19.9791 64.8483 20.0013 64.7877 19.9996L62.1365 19.9768C62.108 19.9781 62.0796 19.9731 62.0533 19.9621C62.0271 19.9512 62.0036 19.9346 61.9845 19.9136C61.9657 19.8937 61.9523 19.8695 61.9454 19.8431C61.9386 19.8167 61.9385 19.7891 61.9453 19.7627L61.9845 19.4382C61.9959 19.4025 61.9845 19.383 61.9649 19.3765C61.9509 19.3737 61.9364 19.3746 61.9229 19.3791C61.9094 19.3837 61.8974 19.3918 61.8881 19.4025C61.3345 19.8798 60.6165 20.1263 59.8841 20.0904C59.1115 20.0839 58.5204 19.8243 58.1107 19.3116C57.7009 18.7989 57.4612 18.0888 57.3915 17.1813C57.3784 17.0531 57.3735 16.8665 57.3751 16.6215C57.384 16.1679 57.4172 15.7151 57.4748 15.2651C57.5599 14.6855 57.6994 14.1152 57.8916 13.5614C58.1957 12.6853 58.6217 12.0076 59.1698 11.5284C59.7181 11.047 60.4288 10.788 61.1607 10.8032C61.9932 10.8032 62.5871 11.0195 62.9423 11.4522C62.9516 11.4629 62.9637 11.471 62.9772 11.4755C62.9907 11.4801 63.0052 11.481 63.0192 11.4781C63.0437 11.4781 63.0568 11.4522 63.0568 11.4181L63.5242 7.97515C63.5363 7.91832 63.566 7.86667 63.6092 7.8275C63.6533 7.78628 63.7121 7.76411 63.7727 7.76585L66.3977 7.74962C66.4262 7.74815 66.4546 7.75275 66.4811 7.76311C66.5076 7.77346 66.5316 7.78933 66.5514 7.80965C66.5694 7.82901 66.5823 7.85241 66.5892 7.87785C66.596 7.90329 66.5965 7.93001 66.5906 7.95568L65.0558 19.787C65.0412 19.8469 65.0073 19.9004 64.9593 19.9395L64.9512 19.9379ZM69.8548 20.1845C68.6997 20.1748 67.7909 19.9417 67.1284 19.4852C66.8225 19.2947 66.5706 19.03 66.3965 18.716C66.2223 18.402 66.1316 18.0492 66.1329 17.6907C66.1301 17.585 66.1362 17.4791 66.1509 17.3743L66.1689 17.2332C66.1809 17.1755 66.2112 17.1231 66.2555 17.0839C66.2773 17.0634 66.303 17.0474 66.3311 17.0369C66.3591 17.0263 66.389 17.0213 66.419 17.0223L68.9525 17.0336C69.116 17.0336 69.1912 17.0709 69.1666 17.1407L69.147 17.2656C69.1345 17.3674 69.1511 17.4705 69.195 17.5633C69.239 17.656 69.3085 17.7345 69.3955 17.7897C69.6105 17.9343 69.8665 18.0071 70.1261 17.9974C70.3655 18.0111 70.6031 17.9504 70.8061 17.8238C70.884 17.7748 70.9479 17.7066 70.9914 17.6259C71.035 17.5451 71.0567 17.4545 71.0545 17.363C71.0488 17.2749 71.0166 17.1906 70.9621 17.1209C70.9076 17.0512 70.8333 16.9993 70.7489 16.972C70.4504 16.8457 70.1399 16.7495 69.8221 16.6848C69.7175 16.6604 69.5459 16.615 69.3072 16.5501C69.0845 16.4899 68.8661 16.4151 68.6534 16.3262C68.1422 16.1395 67.6736 15.8532 67.2755 15.4841C67.091 15.2984 66.9472 15.0769 66.853 14.8334C66.7588 14.59 66.7162 14.3298 66.7279 14.0693C66.7109 13.4463 66.8997 12.8348 67.2657 12.3283C67.6469 11.8166 68.1634 11.4195 68.758 11.1812C69.4453 10.9014 70.1826 10.7628 70.9254 10.774C72.0151 10.774 72.8792 11.0114 73.5178 11.4863C73.8265 11.7071 74.0769 11.9987 74.2477 12.3363C74.4184 12.6739 74.5045 13.0475 74.4985 13.4252C74.5016 13.5546 74.4967 13.6841 74.4838 13.8129C74.4743 13.8693 74.4432 13.9198 74.3971 13.9541C74.3506 13.9903 74.2928 14.0093 74.2337 14.0076H71.7558C71.6992 14.009 71.6431 13.9968 71.5923 13.9719C71.5718 13.9643 71.5552 13.9489 71.546 13.9292C71.5368 13.9095 71.5358 13.8869 71.5433 13.8665L71.5612 13.7253C71.5734 13.634 71.5615 13.5411 71.5265 13.4557C71.4915 13.3704 71.4348 13.2955 71.3618 13.2386C71.1706 13.0995 70.9365 13.0311 70.6998 13.0455C70.4486 13.0359 70.201 13.1071 69.9937 13.2483C69.9124 13.2967 69.8445 13.3644 69.7962 13.4455C69.748 13.5265 69.7209 13.6183 69.7175 13.7123C69.7188 13.8169 69.7524 13.9186 69.8138 14.0036C69.8752 14.0886 69.9614 14.1529 70.0607 14.1877C70.4022 14.3316 70.7577 14.4403 71.1215 14.5122L71.8636 14.7248C72.4889 14.9039 73.0753 15.1966 73.593 15.588C73.8091 15.7625 73.9818 15.9841 74.0975 16.2357C74.2131 16.4873 74.2687 16.7621 74.2598 17.0385C74.2631 17.1577 74.2582 17.2769 74.2451 17.3954C74.1943 17.823 74.0445 18.2332 73.8075 18.5937C73.5704 18.9543 73.2525 19.2555 72.8787 19.4739C72.0924 19.9541 71.0823 20.1959 69.8597 20.1861L69.8548 20.1845Z" fill="white"/>
<path d="M2.6445 48.3318C2.62967 48.3146 2.61888 48.2943 2.61294 48.2724C2.607 48.2505 2.60607 48.2275 2.61019 48.2052L3.41436 41.7412C3.41918 41.6926 3.4419 41.6476 3.47813 41.6146C3.51431 41.5821 3.5617 41.5646 3.6105 41.5659H4.8364C4.87603 41.5627 4.91567 41.5723 4.94929 41.5934C4.98291 41.6145 5.00869 41.6458 5.02276 41.6828L6.02307 43.7758C6.04922 43.8147 6.08193 43.8147 6.12116 43.7758L7.65106 41.6828C7.67361 41.6463 7.70543 41.6163 7.74328 41.5958C7.78114 41.5753 7.82372 41.565 7.86683 41.5659H9.09273C9.11481 41.5644 9.13695 41.568 9.15738 41.5764C9.17781 41.5849 9.19596 41.598 9.21041 41.6146C9.22383 41.6326 9.2334 41.6531 9.23847 41.6748C9.24353 41.6966 9.244 41.7192 9.23986 41.7412L8.44546 48.2052C8.44065 48.2538 8.41796 48.2988 8.38173 48.3318C8.34556 48.3643 8.29812 48.3818 8.24933 48.3805H7.01361C6.90464 48.3805 6.85562 48.3221 6.86652 48.2052L7.33724 44.3988V44.3794C7.33724 44.3534 7.32909 44.3404 7.31274 44.3404C7.2964 44.3404 7.2784 44.3534 7.25879 44.3794L6.33693 45.6644C6.31438 45.7009 6.28256 45.7309 6.24471 45.7514C6.20685 45.7719 6.16427 45.7821 6.12116 45.7812H5.54253C5.50264 45.7862 5.46224 45.7773 5.42824 45.756C5.39424 45.7347 5.36879 45.7023 5.35621 45.6644L4.73835 44.3794C4.72527 44.3469 4.71056 44.3339 4.69422 44.3404C4.67787 44.3469 4.66643 44.3664 4.6599 44.3988L4.18913 48.2052C4.18466 48.2529 4.16391 48.2975 4.13031 48.3318C4.11349 48.3481 4.09349 48.3608 4.07157 48.3691C4.04965 48.3775 4.02628 48.3813 4.00281 48.3805H2.76709C2.74437 48.3813 2.72172 48.3773 2.70061 48.369C2.6795 48.3606 2.6604 48.3479 2.6445 48.3318V48.3318Z" fill="white"/>
<path d="M12.9422 43.3474H14.1779C14.1999 43.3459 14.2221 43.3495 14.2425 43.3579C14.2629 43.3664 14.2811 43.3794 14.2956 43.3961C14.309 43.414 14.3185 43.4345 14.3236 43.4563C14.3286 43.4781 14.3291 43.5007 14.325 43.5226L13.7594 48.2052C13.7549 48.2528 13.7342 48.2975 13.7006 48.3317C13.6837 48.348 13.6638 48.3607 13.6419 48.3691C13.6199 48.3774 13.5966 48.3813 13.5731 48.3804H12.3374C12.3147 48.3812 12.292 48.3773 12.2709 48.3689C12.2498 48.3605 12.2307 48.3479 12.2148 48.3317C12.2 48.3145 12.1892 48.2942 12.1832 48.2723C12.1773 48.2504 12.1764 48.2275 12.1805 48.2052L12.2099 47.9715C12.2164 47.9391 12.2115 47.9196 12.1952 47.9131C12.1788 47.9066 12.1609 47.9164 12.1412 47.9423C12.0025 48.109 11.8274 48.242 11.6291 48.3314C11.4309 48.4208 11.2147 48.4642 10.9971 48.4583C10.5924 48.4611 10.2016 48.3115 9.90354 48.0397C9.58591 47.7597 9.37908 47.3767 9.32004 46.9591C9.28943 46.7757 9.27303 46.5901 9.271 46.4042C9.271 46.2744 9.28407 46.0862 9.31022 45.8396C9.35798 45.414 9.47731 44.9994 9.66327 44.613C9.85084 44.2233 10.1362 43.888 10.492 43.6394C10.8237 43.3974 11.2244 43.2661 11.6362 43.2646C12.1265 43.2646 12.4698 43.4139 12.6659 43.7125C12.679 43.7384 12.6954 43.7482 12.715 43.7417C12.7346 43.7352 12.7444 43.7157 12.7444 43.6833L12.764 43.521C12.766 43.4751 12.7856 43.4316 12.8186 43.3994C12.8517 43.3672 12.8958 43.3486 12.9422 43.3474V43.3474ZM12.4518 45.8688C12.4649 45.713 12.4714 45.6048 12.4714 45.5443C12.4769 45.3618 12.4469 45.18 12.3832 45.0088C12.342 44.9093 12.2709 44.8248 12.1797 44.7668C12.0885 44.7087 11.9814 44.6799 11.8732 44.6843C11.7508 44.6844 11.6306 44.7158 11.5241 44.7755C11.4176 44.8352 11.3284 44.9212 11.2651 45.0251C11.108 45.2829 11.0109 45.5722 10.9807 45.872C10.9676 46.0018 10.9611 46.0927 10.9611 46.1446C10.9567 46.327 10.9867 46.5085 11.0493 46.68C11.0842 46.7903 11.1554 46.8857 11.2514 46.951C11.3475 47.0163 11.4628 47.0477 11.5789 47.0402C11.7044 47.0384 11.827 47.003 11.934 46.9379C12.041 46.8729 12.1284 46.7804 12.187 46.6703C12.3327 46.4253 12.423 46.1518 12.4518 45.8688V45.8688Z" fill="white"/>
<path d="M18.9193 43.6639C19.058 43.8096 19.1652 43.9819 19.2344 44.1703C19.3035 44.3586 19.3332 44.559 19.3214 44.7591C19.3214 44.8175 19.3149 44.9181 19.3018 45.0609L18.9095 48.2053C18.905 48.2529 18.8842 48.2976 18.8506 48.3319C18.8338 48.3481 18.8139 48.3608 18.7919 48.3692C18.77 48.3776 18.7466 48.3814 18.7232 48.3805H17.4875C17.4647 48.3813 17.4421 48.3774 17.421 48.3691C17.3999 48.3607 17.3808 48.348 17.3649 48.3319C17.35 48.3146 17.3393 48.2943 17.3333 48.2724C17.3274 48.2506 17.3264 48.2276 17.3306 48.2053L17.682 45.4114L17.6918 45.2848C17.6994 45.1189 17.6453 44.9561 17.5397 44.8273C17.488 44.7688 17.4237 44.7227 17.3515 44.6924C17.2793 44.6621 17.2012 44.6483 17.123 44.652C17.0312 44.6522 16.9404 44.6708 16.8562 44.7068C16.7719 44.7428 16.6958 44.7953 16.6326 44.8613C16.4875 45.0104 16.3991 45.2048 16.3825 45.4114L16.0393 48.2053C16.0384 48.2298 16.0326 48.2538 16.0223 48.276C16.0119 48.2981 15.9971 48.318 15.9788 48.3344C15.9604 48.3507 15.939 48.3633 15.9157 48.3712C15.8924 48.3791 15.8677 48.3823 15.8431 48.3805H14.6074C14.5853 48.3821 14.5632 48.3785 14.5428 48.37C14.5223 48.3616 14.5042 48.3485 14.4897 48.3319C14.4763 48.3139 14.4668 48.2934 14.4617 48.2716C14.4566 48.2499 14.4562 48.2273 14.4603 48.2053L15.0389 43.5228C15.0434 43.4751 15.0642 43.4305 15.0978 43.3962C15.1146 43.3799 15.1345 43.3672 15.1565 43.3589C15.1784 43.3505 15.2018 43.3466 15.2253 43.3475H16.461C16.4837 43.3467 16.5063 43.3506 16.5274 43.359C16.5485 43.3674 16.5677 43.3801 16.5836 43.3962C16.5984 43.4134 16.6092 43.4337 16.6151 43.4556C16.6211 43.4775 16.622 43.5005 16.6179 43.5228L16.5787 43.7953C16.5721 43.8278 16.577 43.8473 16.5934 43.8538C16.6097 43.8602 16.6277 43.8505 16.6473 43.8246C16.7879 43.6442 16.9698 43.4998 17.1779 43.4033C17.386 43.3068 17.6143 43.261 17.8438 43.2696C18.0405 43.2606 18.2371 43.2908 18.4218 43.3585C18.6066 43.4262 18.7758 43.5301 18.9193 43.6639V43.6639Z" fill="white"/>
<path d="M23.4029 41.6145C23.4197 41.5982 23.4397 41.5855 23.4616 41.5771C23.4835 41.5687 23.5069 41.5649 23.5304 41.5658H24.7759C24.798 41.5642 24.8201 41.5678 24.8405 41.5763C24.861 41.5847 24.8792 41.5978 24.8936 41.6145C24.907 41.6324 24.9166 41.6529 24.9216 41.6747C24.9267 41.6965 24.9272 41.719 24.923 41.741L24.1188 48.2051C24.1143 48.2527 24.0936 48.2974 24.06 48.3316C24.0432 48.3479 24.0232 48.3606 24.0013 48.369C23.9794 48.3773 23.9559 48.3812 23.9325 48.3803H22.6968C22.674 48.3811 22.6514 48.3772 22.6303 48.3688C22.6092 48.3604 22.5901 48.3478 22.5742 48.3316C22.5593 48.3144 22.5486 48.2941 22.5426 48.2722C22.5367 48.2503 22.5357 48.2274 22.5398 48.2051L22.5693 47.9714C22.5758 47.939 22.5709 47.9195 22.5546 47.913C22.5382 47.9065 22.5202 47.9163 22.5006 47.9422C22.3619 48.1089 22.1868 48.2419 21.9886 48.3313C21.7903 48.4207 21.5741 48.4641 21.3564 48.4582C20.9517 48.461 20.561 48.3114 20.263 48.0396C19.9453 47.7596 19.7385 47.3766 19.6794 46.959C19.6488 46.7756 19.6324 46.59 19.6304 46.4041C19.6304 46.2743 19.6434 46.0861 19.6696 45.8395C19.7174 45.4139 19.8367 44.9993 20.0227 44.6129C20.2103 44.2232 20.4956 43.8879 20.8514 43.6393C21.1831 43.3973 21.5838 43.266 21.9955 43.2645C22.4859 43.2645 22.8292 43.4138 23.0253 43.7124C23.0384 43.7383 23.0547 43.7481 23.0743 43.7416C23.094 43.7351 23.1038 43.7156 23.1038 43.6832L23.3489 41.7459C23.3509 41.6972 23.37 41.6507 23.4029 41.6145V41.6145ZM22.8243 45.8687C22.8373 45.7129 22.8439 45.6047 22.8439 45.5442C22.8494 45.3617 22.8194 45.1799 22.7556 45.0087C22.7144 44.9092 22.6434 44.8247 22.5522 44.7667C22.4609 44.7086 22.3539 44.6798 22.2456 44.6842C22.1233 44.6843 22.0031 44.7157 21.8966 44.7754C21.7901 44.8351 21.7009 44.9211 21.6376 45.025C21.4805 45.2828 21.3833 45.5721 21.3532 45.8719C21.3401 46.0017 21.3336 46.0926 21.3336 46.1445C21.3292 46.3269 21.3591 46.5084 21.4218 46.6799C21.4567 46.7902 21.5279 46.8856 21.6239 46.9509C21.7199 47.0162 21.8353 47.0476 21.9514 47.0401C22.0769 47.0383 22.1995 47.0029 22.3065 46.9378C22.4135 46.8728 22.5009 46.7803 22.5595 46.6702C22.7046 46.4251 22.7944 46.1516 22.8226 45.8687H22.8243Z" fill="white"/>
<path d="M28.0206 46.9933C28.1826 46.9399 28.3326 46.8556 28.4619 46.745C28.4938 46.7066 28.5396 46.6821 28.5894 46.6769C28.6121 46.6769 28.6343 46.6833 28.6534 46.6954C28.6725 46.7075 28.6877 46.7247 28.6973 46.745L29.1975 47.4654C29.2239 47.4986 29.2377 47.54 29.2367 47.5822C29.2321 47.6327 29.2115 47.6804 29.1779 47.7185C28.9203 47.9578 28.6168 48.1432 28.2854 48.2637C27.9408 48.3932 27.5752 48.4592 27.2066 48.4584C26.8202 48.4683 26.4369 48.3865 26.0886 48.2199C25.7837 48.069 25.5261 47.8384 25.3433 47.553C25.1166 47.163 25.0035 46.7181 25.0164 46.268C25.0196 45.8159 25.1026 45.3678 25.2616 44.944C25.4491 44.4491 25.7844 44.0229 26.2226 43.7223C26.6584 43.4168 27.1799 43.255 27.7134 43.2599C28.3475 43.2599 28.8346 43.4611 29.1746 43.8635C29.5146 44.2658 29.7009 44.8272 29.7336 45.5476C29.7336 45.8072 29.7271 46.0052 29.714 46.1414C29.7166 46.1668 29.7131 46.1925 29.7039 46.2163C29.6946 46.2401 29.6799 46.2614 29.6607 46.2785C29.6416 46.2956 29.6187 46.3079 29.5939 46.3146C29.5691 46.3212 29.543 46.3219 29.5178 46.3167H26.6444C26.635 46.3153 26.6255 46.3161 26.6165 46.3191C26.6076 46.322 26.5994 46.327 26.5928 46.3336C26.5861 46.3402 26.5811 46.3483 26.5781 46.3572C26.5752 46.3661 26.5743 46.3756 26.5757 46.3848C26.5748 46.5006 26.6046 46.6145 26.6619 46.7153C26.7193 46.8161 26.8023 46.9002 26.9026 46.9592C27.0761 47.0498 27.2706 47.0935 27.4665 47.0858C27.6551 47.0856 27.8424 47.0544 28.0206 46.9933V46.9933ZM26.7849 45.129L26.7261 45.275L26.7163 45.3042C26.7168 45.3116 26.7195 45.3187 26.7238 45.3247C26.7281 45.3307 26.7339 45.3354 26.7408 45.3383C26.7539 45.347 26.7691 45.3521 26.7849 45.3529H28.0795C28.0905 45.3537 28.1016 45.352 28.1118 45.3477C28.1221 45.3435 28.1311 45.3369 28.1383 45.3286C28.1446 45.3213 28.1489 45.3125 28.1506 45.3031C28.1523 45.2937 28.1515 45.284 28.1481 45.275L28.1285 45.1485C28.1073 45.0019 28.0306 44.8689 27.9139 44.7766C27.7973 44.6843 27.6495 44.6397 27.5009 44.652C27.3473 44.6519 27.1972 44.6973 27.0697 44.7822C26.9422 44.8672 26.843 44.9879 26.7849 45.129V45.129Z" fill="white"/>
<path d="M35.5133 43.3474H36.7489C36.771 43.3459 36.7932 43.3495 36.8136 43.3579C36.834 43.3664 36.8522 43.3794 36.8667 43.3961C36.8801 43.414 36.8896 43.4345 36.8947 43.4563C36.8997 43.4781 36.9002 43.5007 36.8961 43.5226L36.3158 48.2052C36.3106 48.2526 36.2899 48.297 36.257 48.3317C36.2401 48.348 36.2202 48.3607 36.1983 48.3691C36.1763 48.3774 36.153 48.3813 36.1295 48.3804H34.8938C34.8711 48.3812 34.8484 48.3773 34.8273 48.3689C34.8062 48.3605 34.7871 48.3479 34.7712 48.3317C34.7564 48.3145 34.7456 48.2942 34.7396 48.2723C34.7337 48.2504 34.7328 48.2275 34.7369 48.2052L34.7663 47.9715C34.7663 47.9391 34.7663 47.9196 34.7516 47.9131C34.7368 47.9066 34.7173 47.9131 34.6976 47.9423C34.5589 48.109 34.3838 48.242 34.1855 48.3314C33.9873 48.4208 33.7711 48.4642 33.5535 48.4583C33.1488 48.4611 32.758 48.3115 32.4599 48.0397C32.1423 47.7597 31.9355 47.3767 31.8764 46.9591C31.8458 46.7757 31.8294 46.5901 31.8274 46.4042C31.8274 46.2744 31.8405 46.0862 31.8666 45.8396C31.9144 45.414 32.0337 44.9994 32.2197 44.613C32.4067 44.223 32.6922 43.8876 33.0484 43.6394C33.3801 43.3974 33.7808 43.2661 34.1926 43.2646C34.6829 43.2646 35.0262 43.4139 35.2223 43.7125C35.2354 43.7384 35.2518 43.7482 35.2714 43.7417C35.291 43.7352 35.3008 43.7157 35.3008 43.6833L35.3204 43.521C35.3214 43.497 35.3273 43.4734 35.3376 43.4517C35.3479 43.4299 35.3624 43.4104 35.3803 43.3942C35.3982 43.3781 35.4192 43.3656 35.442 43.3576C35.4649 43.3495 35.4891 43.3461 35.5133 43.3474V43.3474ZM35.0229 45.8688C35.036 45.713 35.0425 45.6048 35.0425 45.5443C35.048 45.3618 35.018 45.18 34.9542 45.0088C34.9131 44.9093 34.842 44.8248 34.7508 44.7668C34.6596 44.7087 34.5526 44.6799 34.4443 44.6843C34.3219 44.6841 34.2016 44.7154 34.095 44.7751C33.9884 44.8348 33.8993 44.9209 33.8362 45.0251C33.6791 45.2829 33.582 45.5722 33.5518 45.872C33.5388 46.0018 33.5322 46.0927 33.5322 46.1446C33.5279 46.327 33.5578 46.5085 33.6205 46.68C33.6554 46.7903 33.7265 46.8857 33.8226 46.951C33.9186 47.0163 34.0339 47.0477 34.1501 47.0402C34.2755 47.0384 34.3982 47.003 34.5051 46.9379C34.6121 46.8729 34.6995 46.7804 34.7581 46.6703C34.9038 46.4253 34.9941 46.1518 35.0229 45.8688V45.8688Z" fill="white"/>
<path d="M39.3921 48.0884C39.2234 47.9853 39.0845 47.8405 38.9891 47.6681C38.8937 47.4958 38.845 47.3018 38.8478 47.1051C38.8469 47.0509 38.8502 46.9967 38.8576 46.9429L38.8674 46.8942C38.8705 46.8462 38.8914 46.8011 38.9262 46.7677C38.9431 46.7514 38.963 46.7387 38.985 46.7303C39.0069 46.722 39.0303 46.7181 39.0537 46.719H40.2208C40.3439 46.719 40.3984 46.7385 40.3842 46.7774L40.3728 46.8358C40.3668 46.8972 40.3791 46.959 40.4081 47.0135C40.4372 47.068 40.4818 47.1129 40.5363 47.1425C40.6835 47.2315 40.8545 47.274 41.0266 47.2641C41.1852 47.2717 41.3428 47.2364 41.4827 47.1619C41.5335 47.1373 41.5765 47.0993 41.607 47.0521C41.6376 47.0049 41.6545 46.9503 41.6559 46.8942C41.6541 46.8473 41.6373 46.8022 41.6079 46.7654C41.5785 46.7287 41.5381 46.7022 41.4925 46.6898C41.3281 46.6274 41.1578 46.5817 40.9841 46.5535C40.6634 46.4963 40.3507 46.4015 40.0525 46.2712C39.8056 46.1663 39.5831 46.0122 39.3987 45.8185C39.229 45.623 39.1413 45.3704 39.1535 45.1127C39.152 45.0476 39.1558 44.9825 39.1649 44.918C39.1911 44.6776 39.2694 44.4457 39.3943 44.2382C39.5193 44.0306 39.6881 43.8524 39.889 43.7157C40.3525 43.4074 40.9022 43.2524 41.4598 43.2728C42.0537 43.2728 42.526 43.4074 42.8769 43.6768C43.0448 43.8012 43.1801 43.9639 43.2714 44.1511C43.3627 44.3383 43.4074 44.5446 43.4016 44.7525C43.4023 44.8176 43.3985 44.8826 43.3902 44.9472C43.3824 44.981 43.3619 45.0106 43.3329 45.03C43.2948 45.0537 43.2504 45.0655 43.2054 45.064H42.0613C41.9485 45.064 41.8978 45.0446 41.8978 45.0056L41.9076 44.9472C41.9147 44.8898 41.9061 44.8315 41.8829 44.7784C41.8596 44.7254 41.8224 44.6794 41.7752 44.6454C41.6434 44.5591 41.4866 44.5181 41.329 44.5286C41.1674 44.522 41.0069 44.5572 40.8632 44.6308C40.8094 44.655 40.7637 44.694 40.7315 44.7432C40.6994 44.7924 40.6821 44.8496 40.6817 44.9083C40.6825 44.9602 40.7001 45.0104 40.7319 45.0516C40.7637 45.0928 40.808 45.1228 40.8583 45.137C41.0461 45.2049 41.2398 45.2554 41.4369 45.2879C41.6899 45.3254 41.9392 45.384 42.1822 45.4632C42.4783 45.5538 42.7487 45.7121 42.9717 45.9256C43.0664 46.0266 43.1399 46.1454 43.1879 46.2749C43.2359 46.4045 43.2574 46.5422 43.2512 46.68C43.2515 46.7451 43.2482 46.8101 43.2414 46.8748C43.2164 47.1123 43.1377 47.3411 43.0112 47.5442C42.8847 47.7473 42.7136 47.9195 42.5108 48.0478C42.0226 48.3415 41.458 48.4854 40.8877 48.4616C40.2535 48.4594 39.755 48.335 39.3921 48.0884Z" fill="white"/>
<path d="M47.0743 43.396C47.0911 43.3797 47.1111 43.367 47.133 43.3586C47.1549 43.3503 47.1783 43.3464 47.2018 43.3473H48.4375C48.4602 43.3465 48.4828 43.3504 48.5039 43.3588C48.525 43.3672 48.5441 43.3798 48.56 43.396C48.5749 43.4132 48.5857 43.4335 48.5916 43.4554C48.5975 43.4773 48.5985 43.5002 48.5944 43.5225L48.0158 48.2051C48.015 48.2295 48.0092 48.2536 47.9988 48.2757C47.9884 48.2979 47.9736 48.3178 47.9553 48.3341C47.937 48.3505 47.9155 48.363 47.8922 48.371C47.8689 48.3789 47.8442 48.3821 47.8196 48.3803H46.5839C46.5618 48.3818 46.5397 48.3783 46.5193 48.3698C46.4988 48.3614 46.4807 48.3483 46.4662 48.3316C46.4528 48.3137 46.4432 48.2932 46.4382 48.2714C46.4331 48.2496 46.4326 48.2271 46.4368 48.2051L46.4662 47.9617C46.4662 47.9293 46.4597 47.9098 46.4466 47.9033C46.4335 47.8968 46.4139 47.9065 46.3878 47.9325C46.2338 48.1079 46.0416 48.2464 45.8259 48.3375C45.6101 48.4285 45.3764 48.4698 45.1423 48.4582C44.954 48.4676 44.7658 48.4393 44.5889 48.3749C44.412 48.3105 44.25 48.2113 44.1125 48.0834C43.9791 47.9409 43.8764 47.7728 43.8106 47.5895C43.7448 47.4062 43.7174 47.2116 43.73 47.0174C43.7283 46.9089 43.7348 46.8004 43.7496 46.6929L44.1419 43.529C44.1464 43.4814 44.1672 43.4367 44.2008 43.4025C44.2176 43.3862 44.2375 43.3735 44.2595 43.3651C44.2814 43.3568 44.3048 43.3529 44.3283 43.3538H45.564C45.5867 43.353 45.6093 43.3569 45.6304 43.3653C45.6515 43.3737 45.6707 43.3863 45.6866 43.4025C45.7014 43.4197 45.7122 43.44 45.7181 43.4619C45.724 43.4838 45.725 43.5067 45.7209 43.529L45.3678 46.323L45.358 46.4495C45.3483 46.6149 45.4007 46.7779 45.5051 46.9071C45.5575 46.9626 45.6216 47.0059 45.6928 47.034C45.764 47.062 45.8406 47.0741 45.917 47.0693C46.0855 47.0729 46.2494 47.0152 46.378 46.9071C46.5119 46.7919 46.6076 46.6392 46.6526 46.469L47.0154 43.529C47.0184 43.4791 47.0393 43.4319 47.0743 43.396V43.396Z" fill="white"/>
<path d="M52.4391 43.3474H53.6748C53.6969 43.3459 53.719 43.3495 53.7395 43.3579C53.7599 43.3664 53.778 43.3794 53.7925 43.3961C53.8059 43.414 53.8155 43.4345 53.8205 43.4563C53.8256 43.4781 53.8261 43.5007 53.8219 43.5226L53.2433 48.2052C53.2388 48.2528 53.218 48.2975 53.1844 48.3317C53.1676 48.348 53.1477 48.3607 53.1257 48.3691C53.1038 48.3774 53.0804 48.3813 53.0569 48.3804H51.8213C51.7985 48.3812 51.7759 48.3773 51.7548 48.3689C51.7337 48.3605 51.7146 48.3479 51.6987 48.3317C51.6838 48.3145 51.6731 48.2942 51.6671 48.2723C51.6612 48.2504 51.6602 48.2275 51.6643 48.2052L51.6938 47.9715C51.7003 47.9391 51.6954 47.9196 51.679 47.9131C51.6627 47.9066 51.6447 47.9164 51.6251 47.9423C51.4864 48.109 51.3113 48.242 51.113 48.3314C50.9148 48.4208 50.6986 48.4642 50.4809 48.4583C50.0762 48.4611 49.6855 48.3115 49.3874 48.0397C49.0698 47.7597 48.8629 47.3767 48.8039 46.9591C48.7733 46.7757 48.7569 46.5901 48.7549 46.4042C48.7549 46.2744 48.768 46.0862 48.7941 45.8396C48.8419 45.414 48.9612 44.9994 49.1472 44.613C49.3347 44.2233 49.6201 43.888 49.9759 43.6394C50.3076 43.3974 50.7083 43.2661 51.12 43.2646C51.6104 43.2646 51.9537 43.4139 52.1498 43.7125C52.1629 43.7384 52.1792 43.7482 52.1988 43.7417C52.2184 43.7352 52.2283 43.7157 52.2283 43.6833L52.2479 43.521C52.2489 43.4971 52.2547 43.4737 52.2649 43.4521C52.2751 43.4304 52.2894 43.4109 52.3072 43.3948C52.325 43.3787 52.3458 43.3662 52.3684 43.3581C52.391 43.3499 52.415 43.3463 52.4391 43.3474V43.3474ZM51.9487 45.8688C51.9618 45.713 51.9684 45.6048 51.9684 45.5443C51.9738 45.3618 51.9439 45.18 51.8801 45.0088C51.8389 44.9093 51.7679 44.8248 51.6767 44.7668C51.5854 44.7087 51.4784 44.6799 51.3701 44.6843C51.2478 44.6844 51.1276 44.7158 51.021 44.7755C50.9145 44.8352 50.8253 44.9212 50.7621 45.0251C50.605 45.2829 50.5078 45.5722 50.4776 45.872C50.4646 46.0018 50.4581 46.0927 50.4581 46.1446C50.4537 46.327 50.4837 46.5085 50.5463 46.68C50.5812 46.7903 50.6524 46.8857 50.7484 46.951C50.8444 47.0163 50.9598 47.0477 51.0759 47.0402C51.2018 47.0368 51.3245 46.9998 51.4309 46.933C51.5374 46.8661 51.6236 46.772 51.6807 46.6606C51.8262 46.4188 51.9176 46.1487 51.9487 45.8688V45.8688Z" fill="white"/>
<path d="M59.4706 43.3474H60.7063C60.7284 43.3459 60.7505 43.3495 60.7709 43.3579C60.7914 43.3664 60.8095 43.3794 60.824 43.3961C60.8374 43.414 60.847 43.4345 60.852 43.4563C60.8571 43.4781 60.8576 43.5007 60.8534 43.5226L60.2748 48.2052C60.2703 48.2528 60.2495 48.2975 60.2159 48.3317C60.1991 48.348 60.1792 48.3607 60.1572 48.3691C60.1353 48.3774 60.1119 48.3813 60.0884 48.3804H58.8527C58.83 48.3812 58.8074 48.3773 58.7863 48.3689C58.7652 48.3605 58.746 48.3479 58.7301 48.3317C58.7153 48.3145 58.7045 48.2942 58.6986 48.2723C58.6927 48.2504 58.6917 48.2275 58.6958 48.2052L58.7253 47.9715C58.7318 47.9391 58.7269 47.9196 58.7105 47.9131C58.6942 47.9066 58.6762 47.9164 58.6566 47.9423C58.5179 48.109 58.3428 48.242 58.1445 48.3314C57.9463 48.4208 57.7301 48.4642 57.5124 48.4583C57.1077 48.4611 56.717 48.3115 56.4189 48.0397C56.1013 47.7597 55.8944 47.3767 55.8354 46.9591C55.8048 46.7757 55.7884 46.5901 55.7864 46.4042C55.7864 46.2744 55.7995 46.0862 55.8256 45.8396C55.8734 45.414 55.9927 44.9994 56.1786 44.613C56.3662 44.2233 56.6516 43.888 57.0074 43.6394C57.3391 43.3974 57.7398 43.2661 58.1515 43.2646C58.6419 43.2646 58.9851 43.4139 59.1813 43.7125C59.1943 43.7384 59.2107 43.7482 59.2303 43.7417C59.2499 43.7352 59.2598 43.7157 59.2598 43.6833L59.2794 43.521C59.2804 43.4971 59.2862 43.4737 59.2964 43.4521C59.3065 43.4304 59.3209 43.4109 59.3387 43.3948C59.3565 43.3787 59.3773 43.3662 59.3999 43.3581C59.4225 43.3499 59.4465 43.3463 59.4706 43.3474V43.3474ZM58.9802 45.8688C58.9933 45.713 58.9999 45.6048 58.9999 45.5443C59.0053 45.3618 58.9754 45.18 58.9116 45.0088C58.8704 44.9093 58.7994 44.8248 58.7081 44.7668C58.6169 44.7087 58.5099 44.6799 58.4016 44.6843C58.2793 44.6844 58.1591 44.7158 58.0525 44.7755C57.946 44.8352 57.8568 44.9212 57.7935 45.0251C57.6364 45.2829 57.5393 45.5722 57.5091 45.872C57.4961 46.0018 57.4895 46.0927 57.4895 46.1446C57.4852 46.327 57.5151 46.5085 57.5778 46.68C57.6127 46.7903 57.6839 46.8857 57.7799 46.951C57.8759 47.0163 57.9912 47.0477 58.1074 47.0402C58.2327 47.0363 58.3547 46.9989 58.4605 46.9321C58.5664 46.8653 58.6521 46.7715 58.7089 46.6606C58.8555 46.419 58.9481 46.149 58.9802 45.8688V45.8688Z" fill="white"/>
<path d="M66.0806 45.3723C66.0806 45.4805 66.0675 45.6525 66.0414 45.8883C65.9885 46.3129 65.8693 46.7267 65.6883 47.1149C65.5007 47.5046 65.2153 47.8398 64.8596 48.0884C64.5278 48.3305 64.1272 48.4617 63.7154 48.4632C63.225 48.4632 62.8818 48.3139 62.6857 48.0154C62.6661 47.9894 62.6481 47.9797 62.6317 47.9862C62.6154 47.9927 62.6039 48.0122 62.5974 48.0446L62.362 49.9819C62.3572 50.0304 62.3345 50.0755 62.2983 50.1084C62.2621 50.141 62.2147 50.1584 62.1659 50.1571H60.9302C60.9081 50.1586 60.886 50.155 60.8655 50.1466C60.8451 50.1381 60.827 50.1251 60.8125 50.1084C60.7991 50.0905 60.7895 50.07 60.7845 50.0482C60.7794 50.0264 60.7789 50.0038 60.7831 49.9819L61.5873 43.5178C61.5918 43.4702 61.6125 43.4255 61.6461 43.3912C61.6629 43.375 61.6829 43.3623 61.7048 43.3539C61.7267 43.3455 61.7501 43.3417 61.7736 43.3426H63.0093C63.032 43.3418 63.0547 43.3457 63.0758 43.3541C63.0969 43.3625 63.116 43.3751 63.1319 43.3912C63.1467 43.4085 63.1575 43.4288 63.1635 43.4507C63.1694 43.4726 63.1703 43.4955 63.1662 43.5178L63.1368 43.7514C63.1303 43.7839 63.1335 43.8034 63.1466 43.8099C63.1597 43.8163 63.1793 43.8066 63.2055 43.7806C63.3442 43.614 63.5193 43.481 63.7176 43.3916C63.9158 43.3022 64.132 43.2588 64.3496 43.2647C64.753 43.2614 65.1424 43.4111 65.4382 43.6833C65.7533 43.9646 65.9583 44.3473 66.0168 44.7639C66.0584 44.9641 66.0798 45.1679 66.0806 45.3723V45.3723ZM64.3447 45.8591C64.3578 45.7163 64.3644 45.6125 64.3644 45.5476C64.3675 45.3788 64.341 45.2108 64.2859 45.0511C64.2465 44.9417 64.1729 44.8477 64.0759 44.7829C63.9788 44.7181 63.8634 44.6858 63.7465 44.6909C63.6226 44.6938 63.5017 44.7297 63.3964 44.7947C63.2912 44.8598 63.2055 44.9517 63.1482 45.0608C62.9972 45.3022 62.9064 45.5759 62.8835 45.8591C62.8704 46.0148 62.8638 46.123 62.8638 46.1836C62.8595 46.366 62.8894 46.5475 62.9521 46.719C62.9933 46.8185 63.0643 46.903 63.1555 46.9611C63.2468 47.0191 63.3538 47.0479 63.4621 47.0435C63.5844 47.0434 63.7046 47.012 63.8111 46.9523C63.9177 46.8927 64.0069 46.8067 64.0701 46.7028C64.2297 46.448 64.324 46.1584 64.3447 45.8591V45.8591Z" fill="white"/>
<path d="M67.0617 47.991C66.6917 47.6654 66.4583 47.2137 66.4079 46.7254C66.3881 46.5867 66.3782 46.4469 66.3784 46.3068C66.3787 46.1538 66.3885 46.001 66.4079 45.8493C66.4499 45.5266 66.5288 45.2098 66.6432 44.9049C66.8389 44.4171 67.177 43.9984 67.6141 43.7027C68.0551 43.4111 68.5751 43.26 69.1049 43.2695C69.5967 43.2486 70.0799 43.4022 70.468 43.7027C70.8277 44.0057 71.0608 44.4308 71.1218 44.8952C71.1499 45.069 71.163 45.2449 71.1611 45.4209C71.1635 45.5575 71.1569 45.6941 71.1415 45.8298C71.11 46.1239 71.0374 46.4122 70.9257 46.6865C70.7501 47.2057 70.418 47.6588 69.9744 47.9845C69.5303 48.3045 68.9932 48.4719 68.4445 48.4615C67.9408 48.4794 67.4483 48.3119 67.0617 47.991V47.991ZM69.1114 46.8958C69.259 46.7627 69.3713 46.5955 69.4383 46.409C69.4994 46.2288 69.5421 46.0429 69.5658 45.8541C69.5788 45.7113 69.5854 45.6107 69.5854 45.5523C69.596 45.3248 69.5392 45.0991 69.4219 44.9033C69.3678 44.825 69.2942 44.762 69.2083 44.7202C69.1224 44.6784 69.0271 44.6593 68.9316 44.6648C68.5589 44.6648 68.2974 44.8757 68.147 45.2976C68.0708 45.4772 68.0244 45.6679 68.0097 45.8622C67.9904 45.9814 67.9806 46.1018 67.9803 46.2224C67.9687 46.4434 68.0258 46.6626 68.1437 46.8503C68.1981 46.9284 68.2717 46.9913 68.3576 47.0331C68.4434 47.0748 68.5386 47.094 68.6341 47.0888C68.812 47.0866 68.9825 47.0177 69.1114 46.8958V46.8958Z" fill="white"/>
<path d="M72.0093 48.0884C71.8406 47.9853 71.7017 47.8405 71.6063 47.6682C71.5109 47.4958 71.4622 47.3018 71.465 47.1052C71.4641 47.0509 71.4674 46.9967 71.4748 46.9429L71.4846 46.8942C71.489 46.8466 71.5098 46.802 71.5434 46.7677C71.5603 46.7514 71.5802 46.7387 71.6021 46.7303C71.6241 46.722 71.6475 46.7181 71.6709 46.719H72.838C72.9622 46.719 73.0167 46.7385 73.0014 46.7774L72.9916 46.8358C72.9868 46.8971 72.9997 46.9584 73.0286 47.0127C73.0575 47.0669 73.1014 47.112 73.1551 47.1425C73.3024 47.2312 73.4734 47.2736 73.6454 47.2642C73.8039 47.2715 73.9615 47.2362 74.1015 47.162C74.1505 47.1362 74.1916 47.0976 74.2204 47.0505C74.2492 47.0034 74.2646 46.9494 74.2649 46.8942C74.2634 46.8473 74.2467 46.802 74.2172 46.7652C74.1878 46.7284 74.1472 46.702 74.1015 46.6898C73.9365 46.6277 73.7656 46.582 73.5915 46.5535C73.2709 46.4958 72.9582 46.401 72.6598 46.2712C72.4131 46.1661 72.1906 46.0121 72.006 45.8185C71.8364 45.623 71.7487 45.3705 71.7608 45.1127C71.7598 45.0477 71.763 44.9826 71.7706 44.918C71.7971 44.6775 71.8757 44.4456 72.001 44.2381C72.1262 44.0305 72.2952 43.8523 72.4964 43.7157C72.9592 43.4073 73.5085 43.2523 74.0655 43.2728C74.6605 43.2728 75.1329 43.4075 75.4827 43.6768C75.6506 43.8013 75.7858 43.9639 75.8771 44.1512C75.9685 44.3384 76.0131 44.5446 76.0074 44.7525C76.0084 44.8176 76.0051 44.8826 75.9975 44.9472C75.9937 44.9642 75.9866 44.9803 75.9765 44.9945C75.9664 45.0087 75.9535 45.0207 75.9387 45.03C75.9008 45.0542 75.8562 45.0661 75.8112 45.064H74.667C74.558 45.064 74.5036 45.0446 74.5036 45.0056L74.5134 44.9472C74.5204 44.8898 74.5119 44.8315 74.4886 44.7784C74.4653 44.7254 74.4281 44.6795 74.381 44.6454C74.2492 44.5589 74.0924 44.5178 73.9347 44.5286C73.7732 44.5222 73.6127 44.5574 73.4689 44.6308C73.4154 44.6554 73.3699 44.6944 73.3378 44.7435C73.3057 44.7926 73.2882 44.8498 73.2875 44.9083C73.2883 44.9602 73.3059 45.0104 73.3377 45.0516C73.3695 45.0928 73.4137 45.1228 73.464 45.1371C73.6519 45.2047 73.8456 45.2552 74.0426 45.288C74.2957 45.3252 74.545 45.3839 74.788 45.4632C75.084 45.5538 75.3544 45.7122 75.5775 45.9256C75.6721 46.0267 75.7456 46.1454 75.7936 46.2749C75.8416 46.4045 75.8631 46.5422 75.857 46.6801C75.858 46.7451 75.8548 46.8102 75.8472 46.8748C75.8225 47.1124 75.7439 47.3413 75.6174 47.5445C75.4909 47.7477 75.3196 47.9197 75.1165 48.0478C74.6284 48.3415 74.0637 48.4854 73.4934 48.4616C72.8669 48.4594 72.3722 48.335 72.0093 48.0884Z" fill="white"/>
<path d="M79.6195 44.5936C79.5833 44.6261 79.5359 44.6436 79.4871 44.6423H78.7026C78.6834 44.6425 78.665 44.6494 78.6506 44.6619C78.6362 44.6744 78.6268 44.6916 78.6241 44.7104L78.4181 46.4141C78.4104 46.4678 78.4071 46.522 78.4083 46.5763C78.4083 46.8424 78.5326 46.9754 78.781 46.9754H79.085C79.1071 46.9739 79.1292 46.9775 79.1497 46.986C79.1701 46.9944 79.1882 47.0075 79.2027 47.0241C79.2161 47.0421 79.2257 47.0626 79.2307 47.0843C79.2358 47.1061 79.2363 47.1287 79.2321 47.1507L79.1046 48.1729C79.1042 48.1966 79.099 48.22 79.0894 48.2417C79.0798 48.2634 79.0659 48.283 79.0485 48.2993C79.0312 48.3156 79.0107 48.3283 78.9884 48.3367C78.966 48.3451 78.9422 48.349 78.9183 48.3481C78.6306 48.3611 78.4247 48.3676 78.3005 48.3676C77.797 48.3676 77.4211 48.2945 77.1726 48.1485C76.9242 48.0025 76.7999 47.7321 76.7999 47.3373C76.7999 47.2853 76.8065 47.201 76.8196 47.0842L77.1138 44.7185V44.6991C77.1138 44.6666 77.0942 44.6504 77.0549 44.6504H76.594C76.5713 44.6512 76.5486 44.6473 76.5275 44.6389C76.5064 44.6305 76.4873 44.6178 76.4714 44.6017C76.4566 44.5845 76.4458 44.5642 76.4399 44.5423C76.4339 44.5204 76.433 44.4975 76.4371 44.4752L76.5548 43.5309C76.5556 43.5064 76.5614 43.4824 76.5718 43.4602C76.5822 43.438 76.5969 43.4182 76.6153 43.4018C76.6336 43.3854 76.655 43.3729 76.6783 43.365C76.7017 43.3571 76.7263 43.3539 76.7509 43.3556H77.2118C77.2316 43.3555 77.2506 43.3487 77.2658 43.3362C77.2735 43.3305 77.2797 43.3232 77.2839 43.3147C77.2882 43.3063 77.2904 43.2969 77.2903 43.2875L77.4276 42.1874C77.4324 42.1389 77.4551 42.0938 77.4913 42.0609C77.5275 42.0283 77.5749 42.0109 77.6237 42.0122H78.7908C78.8129 42.0106 78.835 42.0143 78.8555 42.0227C78.8759 42.0312 78.8941 42.0442 78.9085 42.0609C78.9219 42.0788 78.9315 42.0993 78.9365 42.1211C78.9416 42.1429 78.9421 42.1655 78.9379 42.1874L78.8006 43.2875C78.8006 43.3329 78.8202 43.3556 78.8595 43.3556H79.6538C79.6759 43.3541 79.698 43.3577 79.7185 43.3661C79.7389 43.3746 79.7571 43.3877 79.7715 43.4043C79.785 43.4222 79.7945 43.4428 79.7996 43.4645C79.8046 43.4863 79.8051 43.5089 79.801 43.5309L79.6833 44.4752C79.6766 44.5208 79.654 44.5627 79.6195 44.5936V44.5936Z" fill="white"/>
<path d="M83.4689 43.3474H84.698C84.7201 43.3459 84.7423 43.3495 84.7627 43.3579C84.7831 43.3664 84.8013 43.3794 84.8157 43.3961C84.8291 43.414 84.8387 43.4345 84.8437 43.4563C84.8488 43.4781 84.8493 43.5007 84.8451 43.5226L84.2665 48.2052C84.2621 48.2528 84.2413 48.2975 84.2077 48.3317C84.1909 48.348 84.1709 48.3607 84.149 48.3691C84.1271 48.3774 84.1036 48.3813 84.0802 48.3804H82.8445C82.8217 48.3812 82.7991 48.3773 82.778 48.3689C82.7569 48.3605 82.7378 48.3479 82.7219 48.3317C82.707 48.3145 82.6963 48.2942 82.6903 48.2723C82.6844 48.2504 82.6834 48.2275 82.6876 48.2052L82.717 47.9715C82.7235 47.9391 82.7186 47.9196 82.7023 47.9131C82.6859 47.9066 82.6679 47.9164 82.6483 47.9423C82.5096 48.109 82.3345 48.242 82.1363 48.3314C81.938 48.4208 81.7218 48.4642 81.5042 48.4583C81.0994 48.4611 80.7087 48.3115 80.4107 48.0397C80.093 47.7597 79.8862 47.3767 79.8271 46.9591C79.7965 46.7757 79.7801 46.5901 79.7781 46.4042C79.7781 46.2744 79.7912 46.0862 79.8173 45.8396C79.8651 45.414 79.9844 44.9994 80.1704 44.613C80.358 44.2233 80.6433 43.888 80.9991 43.6394C81.3309 43.3974 81.7315 43.2661 82.1433 43.2646C82.6336 43.2646 82.9769 43.4139 83.173 43.7125C83.1861 43.7384 83.2024 43.7482 83.222 43.7417C83.2417 43.7352 83.2515 43.7157 83.2515 43.6833L83.2711 43.521C83.2721 43.4966 83.2781 43.4726 83.2887 43.4504C83.2993 43.4283 83.3143 43.4086 83.3327 43.3924C83.3512 43.3762 83.3728 43.3638 83.3962 43.3561C83.4196 43.3484 83.4443 43.3454 83.4689 43.3474V43.3474ZM82.9785 45.8688C82.9916 45.713 82.9981 45.6048 82.9981 45.5443C83.0036 45.3618 82.9737 45.18 82.9099 45.0088C82.8687 44.9093 82.7977 44.8248 82.7064 44.7668C82.6152 44.7087 82.5082 44.6799 82.3999 44.6843C82.2776 44.6844 82.1573 44.7158 82.0508 44.7755C81.9443 44.8352 81.8551 44.9212 81.7918 45.0251C81.6347 45.2829 81.5376 45.5722 81.5074 45.872C81.4943 46.0018 81.4878 46.0927 81.4878 46.1446C81.4835 46.327 81.5134 46.5085 81.5761 46.68C81.611 46.7903 81.6821 46.8857 81.7781 46.951C81.8742 47.0163 81.9895 47.0477 82.1056 47.0402C82.2311 47.0384 82.3538 47.003 82.4607 46.9379C82.5677 46.8729 82.6551 46.7804 82.7137 46.6703C82.8594 46.4253 82.9497 46.1518 82.9785 45.8688V45.8688Z" fill="white"/>
</svg>
