<svg width="40" height="40" viewBox="0 0 40 40" fill="none" xmlns="http://www.w3.org/2000/svg">
<path d="M17.8501 30.2656C17.3931 30.0551 17.054 30.1772 16.6904 30.3793C16.3269 30.5815 16.2416 30.2678 15.8414 30.2593C15.4413 30.2509 15.2585 30.5394 15.1164 30.7204C15.0131 30.843 14.895 30.9513 14.765 31.0426C16.0649 33.0428 17.2449 32.8533 18.3355 32.3732C18.9707 32.1059 19.5126 31.6448 19.8892 31.051C19.3165 31.291 18.5488 30.5836 17.8501 30.2656Z" fill="white"/>
<path d="M35 27.4107C35.0002 26.6548 34.7484 25.9221 34.2872 25.3366C33.826 24.7511 33.1838 24.3487 32.4694 24.1978C32.6937 23.9153 32.8456 23.5786 32.9109 23.219C32.9763 22.8594 32.953 22.4886 32.8432 22.1408C32.7334 21.7931 32.5407 21.4797 32.2829 21.2297C32.0251 20.9798 31.7106 20.8014 31.3685 20.7111C32.6054 19.7489 33.2554 18.5677 33.3244 17.2328C33.3935 15.898 32.4531 15.0873 31.5392 14.5589C30.5866 14.0072 28.2164 13.3293 27.4934 13.2114C26.9823 11.4184 26.3462 9.66622 25.5903 7.96873C24.9059 6.4612 23.5593 5.91588 22.4118 5.57269C21.3963 5.2674 20.5514 5 19.5907 5C19.0769 5 18.7458 5.32214 18.1406 5.3853C17.6085 5.43794 16.9687 5.16423 16.593 5.17476C15.6755 5.17435 14.7652 5.34185 13.9039 5.66954C12.009 6.38962 11.3997 8.13295 11.2372 8.85092C11.0808 9.48256 10.9264 10.0258 10.6908 10.8364L10.4085 11.8133C9.98811 12.7587 9.43364 14.6684 9.29147 15.1653C6.54148 17.3655 5.53207 18.6519 5.15431 20.4289C4.96745 21.3111 4.68514 23.5598 6.13122 25.3537C6.68808 26.0258 7.38833 26.5542 8.17645 26.897C8.3897 28.4298 8.11552 29.9583 10.3131 30.3647C10.3888 30.3789 10.4656 30.386 10.5426 30.3858C10.5636 30.6888 10.6455 30.9839 10.7832 31.252C10.9209 31.5202 11.1113 31.7555 11.342 31.9427C11.5728 32.13 11.8388 32.265 12.123 32.3392C12.4072 32.4134 12.7032 32.425 12.992 32.3733C13.6212 33.2188 14.3009 34.0226 15.027 34.7799C15.815 35.6811 16.8722 36.2817 18.0289 36.4853C19.4039 36.7485 21.4613 35.0936 22.9967 33.9335C23.6406 33.445 24.4184 32.7797 24.9587 32.3417C25.7386 31.7101 27.2029 31.4006 29.4838 32.0996C32.4958 33.0197 34.1124 32.148 33.5844 30.1478C34.0206 29.8489 34.3783 29.4423 34.6254 28.9645C34.8725 28.4867 35.0012 27.9528 35 27.4107V27.4107ZM21.4775 33.4577C20.0355 34.5483 18.7052 35.0915 18.0797 35.142C17.6085 35.1736 16.9098 34.7357 16.1644 33.9398C15.2592 32.9207 14.4795 31.7891 13.843 30.571C13.3453 29.6467 12.924 28.6804 12.5837 27.6823C12.9249 27.6823 13.3271 27.6823 13.7759 27.6486C13.8227 28.255 13.9201 29.0972 14.1151 29.5773C14.3934 30.2573 16.6133 29.0783 17.5211 29.1562C17.5211 29.1562 17.2612 27.7265 16.1319 28.4971C14.7102 29.4657 14.9296 28.394 14.9661 27.577C16.5842 27.4323 18.1893 27.1599 19.7674 26.7622C20.5514 27.236 21.5385 27.8255 22.2046 28.1392C23.1869 28.6016 24.1995 28.9914 25.2349 29.3056C24.2352 30.9197 22.9582 32.3299 21.4674 33.4661L21.4775 33.4577ZM15.7054 25.8063C10.9975 26.7201 8.08505 25.48 7.26046 24.3325C6.15356 22.7997 6.73646 20.9637 6.80552 20.7532C7.70322 18.134 10.2582 16.797 10.2745 16.7844L10.4167 16.7107C10.2459 17.4748 10.1627 18.2571 10.1689 19.0414C10.2179 19.7567 10.3798 20.4587 10.6482 21.1195C10.9102 21.7722 11.4606 22.9155 13.8978 23.1324C16.335 23.3492 18.3782 22.1028 22.4727 21.1301C27.0323 20.0479 26.7683 17.096 26.7683 17.096L26.226 14.8178C26.226 14.8178 26.226 17.376 24.8998 17.7024C23.5735 18.0287 21.3272 18.1529 19.5278 18.6688C17.7283 19.1846 16.1035 20.1426 13.6236 19.6668C10.0978 18.9741 10.7274 17.6939 10.4167 16.7191L10.4674 16.5738C10.4674 16.5549 11.162 14.5736 11.5032 13.8177C11.9582 12.8092 12.4436 10.9943 12.7686 9.651C12.7686 9.60679 12.7909 9.56047 12.8011 9.50783C12.9351 8.91619 13.1605 7.92662 14.2004 7.53921C14.4035 7.46131 14.6066 7.38551 14.7732 7.31813C15.3825 7.07811 15.7765 6.9202 16.3553 6.89704C16.464 6.94175 16.5676 6.99896 16.664 7.06758C16.9544 7.29039 17.3007 7.42129 17.6613 7.44446C17.7012 7.44656 17.7412 7.44656 17.7811 7.44446C18.1116 7.39486 18.4367 7.31236 18.7519 7.19812C19.0037 7.10258 19.2655 7.03827 19.5318 7.00652C19.876 7.00505 20.2167 7.0767 20.5331 7.21707C20.8288 7.32989 21.1314 7.42203 21.4389 7.49289C22.7916 7.80029 23.6446 8.38351 24.1199 9.32887V9.3436L24.13 9.35834C25.1455 10.9775 26.1387 14.561 26.1489 14.5968L26.2159 14.841L26.4819 14.881C27.6112 15.0494 31.0091 15.8222 31.2954 16.7044C31.5818 17.5866 29.3538 23.1513 15.7054 25.8063Z" fill="white"/>
</svg>
