<svg version="1.1" xmlns="http://www.w3.org/2000/svg">
	<symbol id="google" viewBox="0 0 32 32">
		<path d="M16 0a16 16 0 100 32 16 16 0 000-32zm0 25.6a9.6 9.6 0 116.3-16.7l-2.7 2.7A5.3 5.3 0 0016 10c-3.2 0-5.8 2.7-5.8 6s2.6 5.8 5.8 5.8c3.7 0 5-2.6 5.3-4h-5.3v-3.6h9l.2 2c0 5.4-3.6 9.3-9.2 9.3z"/>
	</symbol>
	<symbol id="gp" viewBox="0 0 32 32">
		<path d="M16 0a16 16 0 1 0 0 32 16 16 0 0 0 0-32zm1.1 21c-1.6 2.2-4.6 2.8-7 2a6.6 6.6 0 0 1-4.5-5.8v-.5a2.6 2.6 0 0 1 0-.3c0-3.3 3-6.2 6.2-6.3 1.8-.1 3.5.6 4.8 1.7l-1.7 1.7c-1.2-.7-2.6-1.3-3.9-.8a4.2 4.2 0 0 0-1.7 7c1.1 1 3 1.5 4.5.9A3.7 3.7 0 0 0 16 18h-3.8v-2.3h6.3c.1 1.8-.2 3.8-1.4 5.3zm9.2-5.2v1.9h-1.9v1.8h-1.8v-1.8h-2v-2h2V14h1.8v1.9h2z"/>
	</symbol>
	<symbol id="mr" viewBox="0 0 32 32">
		<path d="M16.06 13.13a2.81 2.81 0 1 0 2.82 2.8 2.82 2.82 0 0 0-2.82-2.8z"/><path d="M15.94 0C7.15 0 0 7.15 0 15.94S7.15 32 15.94 32 32 24.73 32 15.94 24.73 0 15.94 0zm6.69 20.63a3.74 3.74 0 0 1-3.06-1.6 4.68 4.68 0 1 1-.68-6.81h-.01v-.03a.94.94 0 0 1 1.87 0v4.69a1.87 1.87 0 1 0 3.75 0c0-6.28-4.15-9.38-8.44-9.38a8.45 8.45 0 0 0 0 16.88h.03c1.93 0 3.7-.66 5.12-1.76l-.02.02c1-.76 2.12.74 1.15 1.49a10.13 10.13 0 0 1-6.23 2.12h-.04a10.32 10.32 0 0 1 0-20.62c5.17 0 10.3 3.81 10.3 11.25a3.75 3.75 0 0 1-3.75 3.75z"/>
	</symbol>
	<symbol id="ok" viewBox="0 0 32 32">
		<path d="M16.013 13.263a2.755 2.755 0 1 0-2.78-2.755v.033-.002a2.736 2.736 0 0 0 2.737 2.724h.046-.002z"/><path d="M16 0C7.158 0 0 7.164 0 16s7.164 16 16 16 16-7.164 16-16S24.836 0 16 0zm.019 4.866c3.119.006 5.617 2.555 5.605 5.711-.019 3.081-2.555 5.573-5.667 5.561-3.081-.013-5.605-2.561-5.586-5.649a5.64 5.64 0 0 1 5.64-5.623h.009zm6.312 13.489c-.689.708-1.522 1.221-2.442 1.578-.87.338-1.822.507-2.768.62.144.157.213.232.301.319q1.929 1.935 3.845 3.864c.438.438.526.989.288 1.497-.263.557-.845.927-1.422.889-.363-.025-.651-.207-.902-.463-.971-.971-1.954-1.929-2.899-2.924-.276-.288-.407-.232-.651.019a165.441 165.441 0 0 1-2.956 2.968c-.445.438-.977.52-1.497.269-.551-.269-.902-.827-.877-1.396.019-.382.207-.676.47-.933q1.907-1.897 3.801-3.807c.081-.081.163-.175.282-.307-1.728-.182-3.281-.607-4.615-1.647-.163-.131-.338-.257-.488-.401-.582-.557-.645-1.202-.182-1.86.395-.564 1.058-.714 1.747-.395.148.073.273.148.391.232l-.009-.006c2.486 1.71 5.893 1.753 8.391.075.229-.187.501-.331.798-.416l.016-.004c.595-.15 1.152.069 1.472.589.363.595.357 1.177-.094 1.641z"/>
	</symbol>
	<symbol id="vk" viewBox="0 0 32 32">
		<path d="M16 0a16 16 0 1 0 0 32 16 16 0 0 0 0-32zm9.2 23h-2.8s-.6.2-1.4-.4c-1-.7-2-2.6-2.8-2.3-.8.2-.8 2-.8 2s0 .3-.2.5-.5.2-.5.2h-1.3s-2.8.2-5.2-2.4c-2.7-2.7-5-8.2-5-8.2s-.2-.4 0-.6c.2-.2.6-.2.6-.2h3l.5.2.3.4c.3.9.7 1.7 1.1 2.4v-.1c1.2 2.2 1.8 2.6 2.2 2.4.7-.3.5-3 .5-3s0-1-.3-1.5c-.3-.3-.8-.4-1-.5-.1 0 .1-.4.5-.5.5-.3 1.5-.3 2.6-.3l1.5.1c1 .3.7 1.2.7 3.6 0 .7-.2 1.7.4 2 .2.2.8.1 2.2-2.3l1.1-2.4.3-.4a.7.7 0 0 1 .4 0H25s1-.2 1.1.3c.2.4-.4 1.5-1.6 3.2-2.2 2.8-2.4 2.5-.6 4.2 1.6 1.5 2 2.3 2 2.4.7 1.1-.7 1.2-.7 1.2z"/>
	</symbol>
	<symbol id="ya" viewBox="0 0 32 32">
		<path d="M14.9 12.6c0 2.3 1 3.6 2.6 3.6h.4V8.8h-.6c-1.2 0-2.4 1-2.4 3.8z"/><path d="M16 0a16 16 0 1 0 0 32 16 16 0 0 0 0-32zm5.1 25.2c0 .5-.3.8-.8.8h-1.6a.8.8 0 0 1-.8-.8v-6.1h-.2l-3.3 6.4c-.1.3-.5.5-.9.5h-1.7a.9.9 0 0 1-.8-.4.9.9 0 0 1 0-1l3.5-6.3c-1.9-1-3-3-3-5.4 0-4.8 3-7 5.9-7h2.8c.5 0 1 .4 1 1v18.3z"/>
	</symbol>
	<symbol id="tg" viewBox="0 0 32 32">
		<path d="M16 0a16 16 0 1 0 16 16A16 16 0 0 0 16 0zm5.7 23.8l-5-3.7-2.8 3 .5-4.7 8.3-8-10.3 7-5.7-1.8 18.6-7.4z"/>
	</symbol>
	<symbol id="tw" viewBox="0 0 49.7 49.7">
		<path d="M24.8 0a24.8 24.8 0 1 0 0 49.6 24.8 24.8 0 0 0 0-49.6zm11.1 19.1v.7c0 7.6-5.7 16.3-16.3 16.3a16 16 0 0 1-8.8-2.6l1.4.1c2.7 0 5.1-.9 7.1-2.4a5.6 5.6 0 0 1-5.3-4l1.1.1 1.5-.2a5.7 5.7 0 0 1-4.6-5.6v-.1a6 6 0 0 0 2.6.7 5.8 5.8 0 0 1-1.7-7.7c2.8 3.5 7 5.7 11.8 6l-.1-1.3c0-3.2 2.6-5.7 5.7-5.7a6 6 0 0 1 4.2 1.8c1.3-.3 2.5-.7 3.6-1.4a5.7 5.7 0 0 1-2.5 3.2 9 9 0 0 0 3.3-.9c-.9 1.2-1.9 2.2-3 3z"/>
	</symbol>
	<symbol id="fb" viewBox="0 0 32 32">
		<path d="M16 0a16 16 0 1 0 0 32 16 16 0 0 0 0-32zm4 10.7h-1.8c-.7 0-.9.3-.9 1v1.6H20l-.3 2.7h-2.4v9.3h-4V16h-2.6v-2.7h2.6v-3c0-2.4 1.3-3.6 4-3.6H20zm0 0"/>
	</symbol>
	<symbol id="kakaotalk" viewBox="0 0 34 34">
		<path d="M15.67 14.565a.8003.8003 0 00-.2893-.4091.7996.7996 0 00-.4757-.1569.80012.80012 0 00-.765.566l-1.36 3.6c-.18.539-.02.739.13.811a.88561.88561 0 00.37.079.46401.46401 0 00.2748-.0517.4643.4643 0 00.1952-.2003l.28-.741h1.75l.2801.74a.46323.46323 0 00.195.2005.46299.46299 0 00.2749.0515.88561.88561 0 00.37-.079c.16-.072.31-.272.13-.812l-1.36-3.598zm-1.34 2.481l.58-1.621.57 1.621h-1.15zm5.45.882h-1.2101v-3.356a.57612.57612 0 00-.1718-.4055.57612.57612 0 00-.4081-.1655.58502.58502 0 00-.59.571v3.88a.54.54 0 00.1673.3751.5396.5396 0 00.3826.1489H19.78c.0688 0 .1369-.0136.2005-.0399a.52302.52302 0 00.17-.1136.52383.52383 0 00.1137-.17.52418.52418 0 00.0398-.2005c0-.0688-.0135-.137-.0398-.2005a.52383.52383 0 00-.1137-.17.52302.52302 0 00-.17-.1136.52465.52465 0 00-.2005-.0399zM17 0A16.99993 16.99993 0 001.29406 10.4944a16.99988 16.99988 0 00-.9674 9.8221 16.99991 16.99991 0 004.65246 8.7043 17.00062 17.00062 0 008.70438 4.6526 17.001 17.001 0 009.8221-.9674 17.00026 17.00026 0 007.6294-6.2613A16.99975 16.99975 0 0034 17c0-4.5087-1.791-8.8327-4.9791-12.02081C25.8328 1.79107 21.5087 0 17 0zm0 24.141c-.5888.0003-1.177-.0408-1.76-.123-.57.4-3.8699 2.721-4.1799 2.765a.30814.30814 0 01-.1215.0174.30912.30912 0 01-.1187-.0314.25474.25474 0 01-.0753-.1042.25448.25448 0 01-.0146-.1278c.03-.223.86-3.065 1.01-3.588-2.79001-1.381-4.64003-3.827-4.64003-6.615 0-4.312 4.43003-7.807 9.90003-7.807 5.47 0 9.9 3.5 9.9 7.807s-4.43 7.807-9.9 7.807zm-3.45-9.58a.55972.55972 0 00-.1644-.3953.56009.56009 0 00-.3956-.1637h-2.9299a.55926.55926 0 00-.39568.1639.55946.55946 0 00-.16394.3956c0 .1484.05902.2907.16394.3956a.55926.55926 0 00.39568.1639h.8898v3.394a.57645.57645 0 00.18.3852.57606.57606 0 00.7903 0 .57667.57667 0 00.1798-.3852V15.12h.89c.1485 0 .291-.059.396-.164.105-.105.164-.2465.164-.395zm9.19 1.7l1.3-1.3a.43987.43987 0 00.1036-.1596.43955.43955 0 00.0264-.1884.5746.5746 0 00-.17-.362.56572.56572 0 00-.39-.169.4511.4511 0 00-.32.127L21.6999 15.8v-1.228a.575.575 0 00-.1683-.4066.5751.5751 0 00-.8132 0 .57468.57468 0 00-.1684.4066v3.908c0 .1525.0605.2988.1684.4066a.5751.5751 0 00.8132 0 .575.575 0 00.1683-.4066v-1.247l.2001-.2 1.33 1.775c.054.0707.1235.1281.2033.1674a.57692.57692 0 00.2566.0596.58702.58702 0 00.5701-.492.5811.5811 0 00-.11-.423l-1.41-1.859z"/>
	</symbol>
	<symbol id="line" viewBox="0 0 1024 1024">
		<path d="M425.9 405h1.6c10.7 0 19.4 8.7 19.4 19.4v143.5c0 10.6-8.7 19.3-19.4 19.3H426a19.3 19.3 0 0 1-19.4-19.3V424.4c0-10.7 8.7-19.4 19.4-19.4zM602.7 405h-1.6a19.4 19.4 0 0 0-19.3 19.3v84.1l-70-93.7a19.4 19.4 0 0 0-16.7-9.8h-1.7a19.4 19.4 0 0 0-19.3 19.3v143.5c0 10.7 8.7 19.3 19.3 19.3h1.7c10.6 0 19.3-8.6 19.3-19.3V482l70.4 96.2 1.4 2c2 2.4 4.6 4.4 7.6 5.4 2.2 1 4.8 1.5 7.4 1.5h1.7a19 19 0 0 0 9-2.3 19.3 19.3 0 0 0 10.3-17V424.3c0-10.6-8.7-19.3-19.4-19.3zM371.6 546.8h-53.8V424.5c0-10.6-8.7-19.3-19.4-19.3h-1.6a19.4 19.4 0 0 0-19.4 19.3V568c0 10.7 8.7 19.3 19.4 19.3h74.8c10.7 0 19.3-8.6 19.3-19.3v-1.8c0-10.6-8.6-19.3-19.3-19.4zM741 405.3h-74.8a19.4 19.4 0 0 0-19.4 19.4v143.5c0 10.6 8.7 19.3 19.4 19.3H741c10.7 0 19.3-8.7 19.3-19.3v-1.7c0-10.6-8.6-19.3-19.3-19.3h-54v-30.6H741c10.7 0 19.3-8.7 19.3-19.3v-1.6c0-10.7-8.6-19.4-19.3-19.4H687v-30.6H741c10.7 0 19.3-8.7 19.3-19.3v-1.6c0-10.7-8.6-19.4-19.2-19.5z"/><path d="M512 0a512.1 512.1 0 1 0 512.1 512.1A512.1 512.1 0 0 0 512.1 0zm315.5 648.6c-2.2 3.2-4.4 6-6.9 8.6v.2a324.2 324.2 0 0 1-39.8 39.8l-.5.4C677.7 792.4 509 905.3 486.6 888c-19.3-15.3 32-89.2-27.2-101.5l-12.3-1.6c-173.8-24.6-305.8-146.2-305.8-292.4 0-164 166.1-297 371-297s370.6 133 370.6 297c0 57.2-20 110.7-55.4 156.2z"/>
	</symbol>
	<symbol id="google-new" viewBox="0 0 32 32">
		<path fill-rule="evenodd" d="M16 0a16 16 0 1 0 0 32 16 16 0 0 0 0-32Zm.3 17.6H14a.3.3 0 0 1-.2 0 .4.4 0 0 1-.1-.3v-1.4a.4.4 0 0 1 0-.3.3.3 0 0 1 .3 0h4.5v1.2c0 1-.4 2.1-1 3-.7.9-1.5 1.5-2.5 1.9a5 5 0 0 1-3 .1c-1-.3-1.9-.9-2.6-1.7a5.8 5.8 0 0 1-.8-6c.5-1 1.2-1.8 2-2.3a5 5 0 0 1 3-.8c1.3 0 2.4.6 3.3 1.5a.4.4 0 0 1 0 .5l-.9 1a.3.3 0 0 1-.4 0 3 3 0 0 0-2-1c-1 .1-1.7.5-2.3 1.1-.5.7-.9 1.5-.9 2.4 0 .8.3 1.7 1 2.3.5.7 1.3 1 2 1a3 3 0 0 0 1.9-.5c.5-.5 1-1 1.1-1.7Zm6.2-3.3v1.4h1.2a.3.3 0 0 1 .2 0 .3.3 0 0 1 .1.3v1.3l-.3.1h-1.2V19l-.3.1H21v-1.6h-1.5V16a.3.3 0 0 1 0-.2.3.3 0 0 1 .2-.1H21v-1.4l.1-.2h1.4l.1.2Z"/>
	</symbol>
	<symbol id="tg-new" viewBox="0 0 32 32">
		<path fill-rule="evenodd" d="M16 0a16 16 0 1 0 0 32 16 16 0 0 0 0-32Zm-3.2 22.3-2-5L7 15.7 23 9l-3.1 14.2-4.5-3.5-2.6 2.6Zm.7-4.7 5-4.5-6.7 4 1.1 2.8.6-2.3Z"/>
	</symbol>
</svg>
