<?xml version="1.0" encoding="UTF-8"?>
<svg width="30px" height="30px" viewBox="0 0 30 30" version="1.1" xmlns="http://www.w3.org/2000/svg" xmlns:xlink="http://www.w3.org/1999/xlink">
    <title>icon_nav_virtuals</title>
    <g id="Slicing" stroke="none" stroke-width="1" fill="none" fill-rule="evenodd">
        <g id="Group-15" transform="translate(-30.000000, -100.000000)"></g>
        <path d="M15,4 C21.0751322,4 26,8.92486775 26,15 C26,21.0751322 21.0751322,26 15,26 C8.92486775,26 4,21.0751322 4,15 C4,8.92486775 8.92486775,4 15,4 Z M15,6.44444444 C10.2748971,6.44444444 6.44444444,10.2748971 6.44444444,15 C6.44444444,19.7251029 10.2748971,23.5555556 15,23.5555556 C19.7251029,23.5555556 23.5555556,19.7251029 23.5555556,15 C23.5555556,10.2748971 19.7251029,6.44444444 15,6.44444444 Z M12.3154545,9.79545455 L12.3852505,9.80079777 C12.4889091,9.8178961 12.5540965,9.87603043 12.5808126,9.97520074 L12.5936364,10.0572727 L13.51,17.3227273 L13.5236364,17.3590909 C13.5345455,17.3784848 13.5490909,17.3881818 13.5672727,17.3881818 C13.5854545,17.3881818 13.6,17.3784848 13.6109091,17.3590909 L13.6245455,17.3227273 L16.2918182,10.0572727 L16.3286364,9.97727273 C16.3831818,9.88030303 16.4595455,9.82212121 16.5577273,9.80272727 L16.6354545,9.79545455 L18.8281818,9.79545455 L18.8981818,9.80045455 C19.0042424,9.81712121 19.0572727,9.87545455 19.0572727,9.97545455 C19.0572727,9.99727273 19.0524242,10.0263636 19.0427273,10.0627273 L19.0245455,10.1227273 L18.0255664,12.5231463 C19.5095173,12.5489135 20.7045455,13.7598999 20.7045455,15.25 C20.7045455,16.7562311 19.4835039,17.9772727 17.9772727,17.9772727 C17.237343,17.9772727 16.5662359,17.682608 16.0748955,17.2042225 L14.4918182,21.0045455 L14.4590909,21.0795455 C14.4081818,21.1704545 14.3281818,21.225 14.2190909,21.2431818 L14.1318182,21.25 L11.9063636,21.25 L11.8365677,21.2449907 C11.7329091,21.228961 11.6677217,21.1744601 11.6410056,21.0814879 L11.6281818,21.0045455 L9.79545455,10.1227273 L9.79545455,10.0572727 L9.80113173,9.98781076 C9.82005566,9.8809462 9.88628942,9.81860853 9.99983302,9.80079777 L10.0736364,9.79545455 L12.3154545,9.79545455 Z M17.9772727,12.5227273 C16.4710416,12.5227273 15.25,13.7437689 15.25,15.25 C15.25,15.9466377 15.5111927,16.5822705 15.9409906,17.0643108 L16.0748955,17.2042225 L16.0748955,17.2042225 L18.0255664,12.5231463 C18.009502,12.5228673 17.9934037,12.5227273 17.9772727,12.5227273 Z" id="Combined-Shape" fill="#FFFFFF" fill-rule="nonzero"></path>
    </g>
</svg>