<svg width="44" height="44" viewBox="0 0 44 44" fill="none" xmlns="http://www.w3.org/2000/svg">
<path d="M22 44C34.1503 44 44 34.1503 44 22C44 9.84974 34.1503 0 22 0C9.84974 0 0 9.84974 0 22C0 34.1503 9.84974 44 22 44Z" fill="#343434"/>
<path d="M22.4571 13.0009C23.8441 13.0051 28.093 13.0297 31.1 13.1713C31.62 13.2569 32.7467 13.2569 33.7 14.2847C34.48 15.0555 34.74 16.8542 34.74 16.8542C34.74 16.8542 35 18.6528 35 20.7084V23.2778C35 25.3334 34.74 27.132 34.74 27.132C34.74 27.132 34.48 28.9307 33.7 29.7015C32.7467 30.7293 31.62 30.7293 31.1 30.815C27.6183 31.0607 22.4713 30.993 22.0304 30.9867L21.7653 30.986C20.5556 30.9841 15.0089 30.9672 13.16 30.815C12.5533 30.7293 11.2533 30.7293 10.3 29.7015C9.52 28.9307 9.26 27.132 9.26 27.132C9.26 27.132 9 25.3334 9 23.2778V20.7084C9 18.6528 9.26 16.9398 9.26 16.9398C9.26 16.9398 9.52 15.1412 10.3 14.3703C11.2533 13.3425 12.38 13.3425 12.9 13.2569C15.9861 13.0391 20.3804 13.0059 21.6463 13.0009H22.4571ZM19 19V26L26 22.5L19 19Z" fill="white"/>
</svg>
