<svg width="27" height="26" viewBox="0 0 27 26" fill="none" xmlns="http://www.w3.org/2000/svg">
<path d="M9.89035 25.84H9.58035C7.75035 25.68 5.89035 25.55 4.05035 25.47C2.39035 25.39 2.39035 24.06 2.39035 23.41C2.39035 20.55 2.39035 17.69 2.39035 14.83V10.33C2.16376 10.3043 1.94483 10.2325 1.74704 10.119C1.54926 10.0055 1.37682 9.85269 1.24035 9.67C1.08932 9.37217 1.00647 9.04445 0.997825 8.71063C0.989177 8.37681 1.05494 8.04524 1.19035 7.74C1.62401 6.31151 1.95815 4.85468 2.19035 3.37999C2.21498 3.08406 2.29926 2.79616 2.43812 2.53367C2.57698 2.27117 2.76755 2.03951 2.99834 1.85264C3.22913 1.66576 3.49537 1.52755 3.781 1.44632C4.06664 1.36509 4.36576 1.34253 4.66035 1.37999H5.16035C5.70165 1.43839 6.24885 1.40799 6.78035 1.28999C9.69035 0.429994 12.0404 1.39999 13.9404 4.28999C14.2204 4.63999 14.5304 5 14.8604 5.34L15.4204 4.68C16.0904 3.91 16.7204 3.17 17.3104 2.41C17.6186 1.93769 18.0623 1.56948 18.5833 1.35358C19.1043 1.13767 19.6784 1.08414 20.2304 1.19999C21.6725 1.40807 23.1244 1.54158 24.5804 1.6V1.6C24.8432 1.57029 25.1094 1.60091 25.3586 1.68952C25.6079 1.77813 25.8336 1.9224 26.0187 2.11137C26.2039 2.30034 26.3434 2.52903 26.4269 2.78005C26.5104 3.03106 26.5355 3.29781 26.5004 3.55999C26.5004 10.1667 26.5004 16.78 26.5004 23.4C26.5336 23.6386 26.5147 23.8816 26.4452 24.1123C26.3756 24.343 26.257 24.5559 26.0974 24.7364C25.9378 24.9169 25.741 25.0607 25.5206 25.158C25.3001 25.2553 25.0613 25.3037 24.8204 25.3C23.2704 25.43 21.6204 25.57 20.0204 25.78C19.7522 25.8405 19.474 25.8404 19.2059 25.7799C18.9377 25.7193 18.6865 25.5998 18.4704 25.43C18.2691 25.2188 18.1165 24.9662 18.0232 24.6898C17.9299 24.4134 17.8982 24.1199 17.9304 23.83C17.9304 21.77 17.9304 19.71 17.9304 17.65V14.86L15.3304 17.94C15.2861 17.9933 15.2312 18.0368 15.1693 18.0678C15.1073 18.0988 15.0396 18.1166 14.9704 18.12C14.9023 18.1243 14.8341 18.114 14.7703 18.0899C14.7065 18.0657 14.6485 18.0283 14.6004 17.98L11.5504 14.98V18.04C11.5504 20.04 11.5504 22.04 11.5504 23.99C11.576 24.258 11.5448 24.5284 11.4586 24.7835C11.3724 25.0385 11.2333 25.2725 11.0504 25.47C10.7226 25.7323 10.3094 25.8641 9.89035 25.84V25.84ZM4.52035 2.35999C3.68035 2.35999 3.31035 2.68999 3.16035 3.53999C2.92478 5.06006 2.59074 6.56322 2.16035 8.03999C1.94035 8.70999 1.99035 8.98999 2.07035 9.10999C2.30953 9.31192 2.61814 9.4124 2.93035 9.38999C3.05769 9.39765 3.17729 9.45369 3.26467 9.54664C3.35204 9.63959 3.40058 9.76242 3.40035 9.88999V14.82C3.40035 17.6933 3.40035 20.5567 3.40035 23.41C3.40035 24.31 3.54035 24.41 4.11035 24.41C5.96035 24.5 7.83035 24.62 9.68035 24.78C9.93672 24.8269 10.2014 24.7845 10.4304 24.66C10.5734 24.4413 10.637 24.18 10.6104 23.92C10.6104 21.92 10.6104 19.92 10.6104 17.92V13.75C10.6081 13.6507 10.6367 13.5531 10.6922 13.4707C10.7477 13.3883 10.8274 13.3252 10.9204 13.29C11.0101 13.2508 11.1094 13.2394 11.2057 13.2572C11.3019 13.2751 11.3906 13.3213 11.4604 13.39L15.0004 16.88L18.1304 13.16C18.1952 13.0812 18.2835 13.0252 18.3824 13C18.4813 12.9748 18.5857 12.9818 18.6804 13.02C18.777 13.0549 18.8605 13.1188 18.9196 13.2029C18.9786 13.287 19.0103 13.3872 19.0104 13.49V17.64C19.0104 19.7 19.0104 21.76 19.0104 23.82C18.9627 24.1186 19.0345 24.424 19.2104 24.67C19.4438 24.7925 19.7132 24.828 19.9704 24.77C21.6004 24.55 23.2604 24.41 24.8204 24.28C25.4104 24.28 25.5804 24.04 25.5804 23.38C25.5804 16.7733 25.5804 10.1567 25.5804 3.52999C25.5804 2.80999 25.3904 2.62 24.5804 2.59C23.0878 2.52824 21.5992 2.3914 20.1204 2.18C19.742 2.08913 19.3447 2.12051 18.9853 2.26964C18.626 2.41877 18.3232 2.67797 18.1204 3.01C17.5204 3.79 16.8804 4.53999 16.2004 5.31999L15.3004 6.38999C15.208 6.49415 15.0791 6.55863 14.9404 6.56999C14.8724 6.57305 14.8045 6.56222 14.7409 6.53814C14.6773 6.51407 14.6193 6.47727 14.5704 6.43C14.0634 5.93812 13.589 5.41367 13.1504 4.85999C11.4604 2.30999 9.59035 1.52 7.09035 2.26C6.43604 2.41746 5.75955 2.46144 5.09035 2.38999H4.62035L4.52035 2.35999Z" fill="white"/>
</svg>
