<?xml version="1.0" encoding="UTF-8"?>
<svg viewBox="0 0 48 48" xmlns="http://www.w3.org/2000/svg">
<path d="m24 48c13.255 0 24-10.745 24-24s-10.745-24-24-24-24 10.745-24 24 10.745 24 24 24z" fill="#F7EC00"/>
<path d="m8.2325 23.601c-0.06595-8.6476 6.7813-15.603 15.198-15.864 9.0763-0.28307 16.164 7.0021 16.238 15.553 0.0784 8.6949-6.9442 15.827-15.63 15.874-8.6632 0.0461-15.718-6.9448-15.806-15.563zm9.7868-0.9848c-0.1715 0.3428-0.282 0.7129-0.3266 1.0937-0.0977 0.833 0.0136 1.653 0.255 2.4468 0.695 2.2882 2.2266 3.7788 4.4713 4.5347 1.6617 0.56 3.3595 0.56 5.0436 0.1126 2.2814-0.609 4.1285-1.8744 5.5245-3.7819 0.9133-1.2486 1.4832-2.6441 1.6431-4.1851 0.1479-1.4544 0.0129-2.9238-0.3975-4.3269-0.7622-2.6528-2.3673-4.6368-4.7811-5.9669-1.686-0.9276-3.5095-1.3749-5.42-1.4763-1.1821-0.0622-2.3399 0.1319-3.4753 0.4542-1.9644 0.5475-3.7582 1.5836-5.2141 3.0117-2.3728 2.3168-3.6307 5.1475-3.7862 8.461-0.053 1.1991 0.0781 2.3992 0.3888 3.5586 0.6756 2.5601 2.0176 4.7052 4.0532 6.3936 2.7747 2.3019 5.9724 3.2177 9.5485 2.7959 1.366-0.1641 2.6926-0.5667 3.9194-1.1895 1.7475-0.8716 3.2655-2.1419 4.4314-3.7085 0.0206-0.0274 0.0367-0.0579 0.0548-0.0871-0.0118 1e-4 -0.0234 0.0026-0.0341 0.0075-0.0107 0.0048-0.0203 0.0118-0.0281 0.0205-0.7211 0.7293-1.5337 1.3619-2.4176 1.8819-2.5023 1.4676-5.188 2.0387-8.0685 1.6256-1.2824-0.1881-2.5182-0.6146-3.6438-1.2573-1.673-0.9359-3.0722-2.2932-4.0587-3.9369-0.9865-1.6438-1.5259-3.517-1.5647-5.4336-0.0237-1.0471 0.2619-2.0245 0.7708-2.9378 0.0331-0.0487 0.0544-0.1045 0.0622-0.1629 0-0.4355 0.1698-0.8132 0.3994-1.1684 0.3627-0.5599 0.8324-1.0191 1.3525-1.4384 0.6582-0.5313 1.3158-1.0607 2.0493-1.4863 0.4878-0.283 0.9886-0.5717 1.5553-0.6184 0.4169-0.0342 0.7124-0.1959 1.0017-0.4703 0.3353-0.3179 0.7285-0.5524 1.2106-0.5898 0.301-0.0189 0.6032 0.0083 0.8959 0.0809l-0.1493 0.1717 0.0044 0.0485 1.7419 0.1867 0.0031-0.0255-1.6175-0.3733c0.1201-0.1661 0.2177-0.3148 0.3279-0.4535 0.3614-0.4567 1.2405-0.7845 1.8981-0.3733 0.5506 0.3465 1.182 0.4896 1.8303 0.5276 0.4019 0.0236 0.8057 0.0192 1.2063 0.0566 0.7466 0.069 1.2443 0.6084 1.2331 1.3575-4e-3 0.4771-0.0414 0.9534-0.112 1.4253-0.1052 0.675-0.3596 1.2928-0.8635 1.7805-0.1752 0.1797-0.3896 0.3164-0.6265 0.3994v-0.1468c0.0174-0.3179 0.051-0.6352 0.0504-0.9531 0-0.3627-0.0293-0.7267-0.2028-1.0576-0.0623-0.1245-0.15-0.1991-0.3074-0.178-0.2806 0.038-0.5599 0.0622-0.8448 0.0927-0.2028 0.0224-0.1867 0.0255-0.214 0.2333-0.0623 0.4977-0.1133 0.9985-0.2178 1.4875-0.1568 0.7323-0.5164 1.3389-1.225 1.6916 0.0075-0.0547 0.0181-0.1076 0.0199-0.1611 0.0175-0.4013 0.0542-0.8038 0.0411-1.2045-0.0106-0.3291-0.1026-0.6482-0.3478-0.8977-0.0852-0.0859-0.1586-0.1107-0.2818-0.0373-0.9214 0.5514-1.8892 1.0215-2.8923 1.4048-0.8701 0.3424-1.7742 0.5914-2.6969 0.7428-0.2725 0.0417-0.5463 0.0734-0.8411 0.1126 0.1157 0.0386 0.2152 0.0622 0.311 0.1039 2.0207 0.8629 3.474 2.2714 4.2056 4.3742 0.1592 0.478 0.4105 0.9201 0.7397 1.3015 0.8368 0.9506 1.9355 1.3562 3.1555 1.4999 0.2675 0.0318 0.5394 0.0336 0.8088 0.0492-0.0542 0.0573-0.1191 0.1034-0.191 0.1356-0.8088 0.4162-1.6748 0.6172-2.5744 0.6974-0.5917 0.0529-1.1733 0.0137-1.7339-0.1941-1.0321-0.3826-1.7133-1.1304-2.1457-2.1152-0.2134-0.4865-0.377-0.9954-0.5892-1.4813-0.2849-0.6557-0.6464-1.2667-1.1584-1.7756-0.3183-0.333-0.7177-0.5776-1.159-0.7098zm3.655-5.868c0.8411 0.2756 2.3909 0.0336 2.8145-0.4193-0.4809-0.0778-0.9798-0.1537-1.4775-0.2395-0.6016-0.1008-1.1286 0.1524-1.337 0.6588zm-0.5133-0.9214-0.0136-0.0354c-0.1077 0.0249-0.2489 0.0155-0.3173 0.0815-0.2875 0.283-0.5531 0.5885-0.8262 0.8859l0.0205 0.0205 1.1366-0.9525z"/>
<path d="m39.731 36.208-0.7466-0.8573c3.6121-4.6927 4.9771-9.9485 3.8734-15.765-0.8977-4.7407-3.334-8.5942-7.1415-11.55-7.3828-5.7342-17.991-5.224-24.801 1.164-2.4263 2.2745-4.1682 4.9833-5.1948 8.1499-1.0265 3.1667-1.2076 6.3955-0.568 9.6624 0.63955 3.2668 2.0593 6.1591 4.2124 8.7223l-0.84112 0.749c-5.6315-6.2307-7.2976-17.613-0.17731-26.2 7.5092-9.057 20.871-9.8066 29.346-2.0661 8.6346 7.8855 8.4455 20.382 2.0388 27.991z"/>
<path d="m16.415 42.235 0.9108 0.2644c0.0336 0.0099 0.0665 0.0205 0.1001 0.0286 0.1412 0.0355 0.2613 0.066 0.2576 0.2682 0 0.0989 0.0852 0.2239 0.1686 0.2955 0.1567 0.1259 0.3542 0.1899 0.5549 0.1798 0.0551 0.0024 0.1094-0.0135 0.1544-0.0453 0.0451-0.0317 0.0783-0.0775 0.0945-0.1302 0.0225-0.051 0.0256-0.1085 0.0089-0.1617s-0.0521-0.0985-0.0998-0.1276c-0.1636-0.1026-0.3384-0.1866-0.502-0.2893-0.2694-0.1667-0.5512-0.3204-0.797-0.5176-0.3446-0.2774-0.4734-0.6545-0.3732-1.0949 0.1082-0.4635 0.3676-0.8026 0.8342-0.9475 0.4822-0.1493 0.955-0.0622 1.4191 0.0939 0.349 0.1157 0.6676 0.2837 0.9108 0.5693 0.2738 0.321 0.3465 0.6918 0.2675 1.1198-0.199-0.0373-0.3882-0.0716-0.5761-0.1083-0.2003-0.0392-0.4006-0.0752-0.5985-0.1244-0.0236-0.0101-0.0445-0.0256-0.061-0.0453-0.0165-0.0196-0.0282-0.0429-0.0341-0.0679-0.0386-0.3017-0.4206-0.5456-0.7118-0.4473-0.1866 0.0622-0.2308 0.26-0.0671 0.3789 0.1724 0.1167 0.3523 0.2219 0.5387 0.3148 0.3416 0.1866 0.6813 0.3732 0.9376 0.675 0.1046 0.1178 0.1794 0.259 0.218 0.4118 0.0387 0.1528 0.0401 0.3126 0.0041 0.466-0.1593 0.7578-0.6414 1.1547-1.4166 1.1254-0.6595-0.0255-1.2785-0.2022-1.7812-0.6569-0.4205-0.3864-0.4765-0.8785-0.3614-1.4272z"/>
<path d="m24.586 45.093c0.0548-0.3024 0.1033-0.5798 0.1556-0.8567 0.204-1.0837 0.4079-2.1675 0.6115-3.2512 0.023-0.1244 0.0585-0.191 0.2084-0.2053 0.4299-0.0411 0.8579-0.1083 1.286-0.1655 0.097-0.0125 0.1717-0.0137 0.2258 0.1033 0.5831 1.2521 1.17 2.5026 1.7606 3.7514 0.0073 0.0204 0.0135 0.0412 0.0187 0.0622-0.1176 0.0193-0.2314 0.0411-0.3459 0.056-0.2906 0.0392-0.5811 0.0784-0.871 0.1076-0.0259-9e-4 -0.0512-8e-3 -0.0738-0.0207s-0.0419-0.0305-0.0562-0.0521c-0.0714-0.141-0.1338-0.2865-0.1867-0.4354-0.0034-0.0181-0.0106-0.0352-0.021-0.0503s-0.0239-0.0278-0.0395-0.0374-0.0331-0.0159-0.0513-0.0183c-0.0181-0.0025-0.0366-0.0012-0.0543 0.0039-0.349 0.0498-0.698 0.1002-1.0483 0.1413-0.0914 0.0111-0.1294 0.0435-0.1381 0.135-0.0126 0.1534-0.0334 0.306-0.0622 0.4572-0.0067 0.0255-0.0193 0.049-0.0367 0.0687-0.0173 0.0198-0.0391 0.0352-0.0634 0.0452-0.3995 0.0578-0.7951 0.1064-1.2182 0.1611zm2.2652-2.0138-0.5133-1.2306-0.0267 0.0043c-0.0622 0.4355-0.1195 0.8673-0.1823 1.3177l0.7223-0.0914z"/>
<path d="m15.694 43.269c-0.3733-0.2128-0.7341-0.4138-1.0887-0.6222-0.0172-0.017-0.0301-0.038-0.0376-0.061-0.0074-0.0231-0.0093-0.0476-0.0053-0.0715 0.0385-0.1866 0.0889-0.3733 0.1374-0.5717l-1.1335-0.6427c-0.1331 0.1381-0.2644 0.28-0.4031 0.4137-0.0311 0.0293-0.1033 0.0579-0.1325 0.0417-0.3565-0.1928-0.7093-0.395-1.0832-0.6053 0.1755-0.1636 0.3354-0.3154 0.4977-0.4641 0.8681-0.7959 1.736-1.5921 2.6037-2.3884 0.0827-0.0765 0.1462-0.0865 0.2445-0.0292 0.3944 0.2297 0.7921 0.4556 1.1932 0.6775 0.0828 0.046 0.0927 0.0952 0.0747 0.1804-0.1549 0.7385-0.3049 1.4782-0.4579 2.2179-0.1269 0.618-0.2551 1.2353-0.3845 1.8521-5e-3 0.0161-0.0124 0.0336-0.0249 0.0728zm-0.7266-2.3729c0.1126-0.4442 0.2208-0.8709 0.321-1.2691l-0.9494 0.9139 0.6284 0.3552z"/>
<path d="m36.395 39.747 0.4766 0.9139-2.5999 1.6997-2.2689-3.4771 2.5881-1.6873 0.5599 0.8573-1.4931 0.9793 0.2799 0.4261 1.3998-0.9095c0.1867 0.2843 0.3671 0.5599 0.5599 0.8585l-1.3935 0.9146 0.2998 0.461 1.5914-1.0365z"/>
<path d="m24.356 42.33c-0.4225 0.018-0.8343 0.0398-1.2443 0.0473-0.0348 0-0.0871-0.0884-0.1045-0.1438-0.0877-0.2805-0.2489-0.4-0.54-0.3888-0.1008-1e-3 -0.1993 0.0292-0.2822 0.0864-0.0829 0.0573-0.146 0.1388-0.1807 0.2334-0.1877 0.4438-0.2117 0.9399-0.0678 1.3998 0.0684 0.2171 0.2638 0.3372 0.5238 0.3459 0.2601 0.0087 0.4113-0.0859 0.5108-0.3073 0.028-0.0623 0.0492-0.1288 0.079-0.2072l1.3021 0.0858c-0.0622 0.5108-0.2445 0.9332-0.6513 1.2399-0.7086 0.5351-2.2011 0.4324-2.804-0.2861-0.2911-0.3478-0.4162-0.7522-0.4461-1.1933-0.036-0.54 0.0349-1.0632 0.28-1.551 0.3111-0.6221 0.8386-0.9238 1.5137-0.9842 0.3528-0.0339 0.7089 0.0035 1.047 0.1101 0.5705 0.1836 0.8847 0.5967 1.0209 1.1634 0.0199 0.0815 0.0311 0.1655 0.0442 0.2489 0.0018 0.0336 0.0016 0.0672-6e-4 0.1008z"/>
<path d="m13.42 39.06-0.6115-0.4547c-0.056-0.0417-0.1107-0.084-0.1661-0.1245-0.084-0.0622-0.2059-0.1088-0.2395-0.1916-0.0299-0.0734 0.0342-0.1866 0.0622-0.2824 0.0622-0.1997-0.0193-0.349-0.1574-0.4797-0.1587-0.1499-0.3534-0.2103-0.55-0.1176-0.4629 0.2112-0.8235 0.5967-1.0035 1.0726-0.0927 0.2395 0 0.461 0.2184 0.6289 0.1941 0.15 0.3988 0.1618 0.6221 0.0125 0.1002-0.0678 0.1537-0.0541 0.2358 0.0261 0.2731 0.2675 0.5562 0.5245 0.8349 0.7845-0.3963 0.4467-1.0446 0.7043-1.6561 0.4822-0.8038-0.2918-1.3687-0.8337-1.579-1.6866-0.07462-0.329-0.03376-0.6737 0.11572-0.9761 0.27468-0.6137 0.74716-1.1175 1.342-1.4309 0.698-0.3771 1.4856-0.2651 2.1258 0.306 0.2019 0.1766 0.381 0.3777 0.5332 0.5985 0.3732 0.5556 0.2868 1.1199-0.0262 1.6742-0.0267 0.0442-0.0572 0.089-0.1008 0.1586z"/>
<path d="m31.721 39.142c0.0398 0.4548 0.0802 0.8996 0.1188 1.3444 0.0771 0.9058 0.1539 1.8119 0.2302 2.7181 0.0218 0.2458 0.0255 0.2451-0.196 0.3322-0.4106 0.1624-0.8224 0.3229-1.2318 0.4903-0.0145 0.0084-0.0306 0.014-0.0473 0.0162-0.0166 0.0022-0.0336 0.0012-0.0498-0.0032-0.0163-0.0043-0.0315-0.0118-0.0448-0.0221-0.0134-0.0102-0.0245-0.023-0.0329-0.0376-0.8594-1.0817-1.7192-2.1627-2.5794-3.2432-0.0129-0.0199-0.0246-0.0407-0.0348-0.0622l0.7888-0.3198c0.1245-0.0497 0.2539-0.0902 0.3733-0.1499 0.1089-0.0541 0.1705-0.0373 0.2433 0.0622 0.4697 0.6657 0.9469 1.3264 1.4222 1.9908 0.028 0.0392 0.0578 0.0772 0.1113 0.1487-0.0572-0.4292-0.1082-0.8199-0.1617-1.21-0.0622-0.4629-0.1245-0.9257-0.1979-1.3874-0.0186-0.1244 0.0181-0.1785 0.14-0.2227 0.354-0.1294 0.7018-0.2768 1.052-0.4168 0.0268-0.0112 0.0548-0.0162 0.0965-0.028z"/>
<path d="m39.74 37.818-2.1345 2.0375-2.8662-3.0005 0.9599-0.9189 2.078 2.1725 1.2517-1.1952 0.7111 0.9046z"/>
<path d="m20.544 6.9262c-0.1095-0.53254-0.2146-1.0421-0.3254-1.5821 0.326-0.04479 0.629-0.17793 0.9643-0.12754 0.2439 0.03671 0.4113 0.43861 0.2022 0.6464 0.0772 0.07963 0.1773 0.14682 0.2265 0.24076 0.1313 0.24886 0.0193 0.517-0.2526 0.63458-0.0687 0.02754-0.14 0.04837-0.2128 0.06221-0.1928 0.04293-0.3869 0.08212-0.6022 0.12567zm0.191-0.74656c0.0311 0.13936 0.0622 0.2669 0.0908 0.40812 0.1214-0.02261 0.2414-0.05169 0.3596-0.0871 0.0242-0.00643 0.0469-0.01768 0.0667-0.03306 0.0198-0.01539 0.0362-0.0346 0.0484-0.05649 0.0122-0.02188 0.0199-0.046 0.0225-0.07091 0.0027-0.02491 4e-4 -0.0501-0.0069-0.07408-0.0293-0.12443-0.1033-0.18104-0.2265-0.16175-0.1232 0.01928-0.2308 0.04914-0.3546 0.0759v-6.3e-4zm-0.051-0.28182c0.1294-0.02862 0.2376-0.04604 0.3403-0.07839 0.021-0.00429 0.0408-0.01296 0.0582-0.02545s0.0319-0.02851 0.0426-0.04702c0.0108-0.0185 0.0175-0.03907 0.0198-0.06036 0.0022-0.02128-1e-4 -0.0428-0.0067-0.06314-0.0028-0.02141-0.0099-0.04202-0.0209-0.06058-0.0111-0.01855-0.0258-0.03465-0.0433-0.0473s-0.0373-0.02158-0.0584-0.02624c-0.0211-0.00467-0.0429-0.00497-0.0641-8.8e-4 -0.1114 0.01244-0.2215 0.03795-0.3496 0.06221l0.0821 0.34715z"/>
<path d="m31.276 6.5324c0.2489 0.13065 0.4921 0.2445 0.7211 0.38075 0.1418 0.08399 0.2364 0.21837 0.1984 0.40003-0.0379 0.18166-0.1318 0.31107-0.3054 0.34404 0.0118 0.11447 0.0485 0.22894 0.0286 0.33222-0.0579 0.30049-0.3241 0.4442-0.629 0.33221-0.2408-0.08834-0.4697-0.20965-0.7186-0.3235 0.2371-0.48962 0.466-0.96804 0.7049-1.4658zm-0.2787 1.3612c0.1244 0.05412 0.2389 0.1126 0.3584 0.15429 0.1194 0.04168 0.1916-0.02489 0.2357-0.12443 0.0122-0.02056 0.0198-0.04344 0.0226-0.06715s5e-4 -0.04774-0.0066-0.07053-0.0189-0.04385-0.0346-0.06182-0.035-0.03245-0.0566-0.04251c-0.107-0.05786-0.2178-0.10825-0.3354-0.16611l-0.1835 0.37826zm0.3067-0.63769c0.1045 0.05164 0.1991 0.10577 0.2993 0.14496 0.0199 0.01055 0.0417 0.01694 0.0642 0.01879 0.0224 0.00184 0.045-9e-4 0.0664-0.00806 0.0213-0.00715 0.041-0.01858 0.0578-0.03358s0.0304-0.03326 0.0399-0.05367c0.0132-0.01826 0.0222-0.03926 0.0262-0.06144s3e-3 -0.04498-3e-3 -0.06671c-6e-3 -0.02174-0.0167-0.04185-0.0315-0.05887-0.0148-0.01701-0.0332-0.03049-0.0539-0.03944-0.0971-0.05599-0.1972-0.10638-0.3067-0.16548l-0.1587 0.3235z"/>
<path d="m23.49 5.7946c0.0056 0.64826-0.5201 1.0141-1.0769 0.78451-0.2887-0.11883-0.4019-0.36581-0.451-0.65386-0.0759-0.4442 0.1244-0.82557 0.4902-0.94191 0.5195-0.16424 0.9668 0.12443 1.0296 0.67253 0.0069 0.0591 0.0069 0.11882 0.0081 0.13873zm-0.3434 0.03857c-0.0193-0.11644-0.0468-0.2314-0.0821-0.34404-0.0728-0.19161-0.214-0.26689-0.4106-0.24138-0.1867 0.02426-0.3148 0.13749-0.3266 0.33097-0.0121 0.16294 2e-3 0.32677 0.0416 0.48526 0.0622 0.23393 0.2788 0.32538 0.5096 0.24886 0.1804-0.06533 0.2563-0.20779 0.2681-0.47967z"/>
<path d="m19.258 6.5666 0.1114 0.35649 0.7522-0.22833c0.0124 0.03484 0.0224 0.05662 0.0286 0.07964 0.0553 0.21028 0.0547 0.20966-0.1574 0.27374-0.2843 0.08585-0.568 0.17295-0.871 0.26565-0.1599-0.51637-0.3167-1.0209-0.4778-1.5398l1.0539-0.32849c0.0311 0.09643 0.0585 0.18291 0.0908 0.28245l-0.7241 0.23143c0.0379 0.11136 0.0703 0.2078 0.1057 0.31107l0.6694-0.20219 0.0971 0.27996-0.6788 0.21836z"/>
<path d="m32.787 7.3325 0.9475 0.56863-0.1499 0.25445-0.6495-0.38634-0.173 0.27872 0.6035 0.37328-0.153 0.25196-0.6085-0.36395-0.196 0.3204 0.6844 0.4187-0.1804 0.23703-0.9569-0.57547 0.8318-1.3774z"/>
<path d="m30.448 6.1641 0.3365 0.12442c-0.153 0.38261-0.2868 0.76149-0.4566 1.123-0.0964 0.20468-0.298 0.28058-0.5301 0.24885-0.3496-0.04417-0.6115-0.23952-0.632-0.51139-0.0046-0.14801 0.0179-0.29561 0.0665-0.43549 0.0778-0.24885 0.1867-0.49335 0.2638-0.74656 0.0392-0.12443 0.0958-0.1294 0.1941-0.08274 0.0529 0.0255 0.1095 0.04355 0.1835 0.07279-0.0927 0.25569-0.1866 0.50517-0.2725 0.75713-0.0401 0.11159-0.0703 0.22651-0.0902 0.34342-0.0224 0.14931 0.0735 0.23205 0.2004 0.2756s0.2582 0.02987 0.321-0.10638c0.0927-0.20219 0.1698-0.41248 0.2488-0.62213 0.0573-0.13438 0.1077-0.27934 0.1668-0.44047z"/>
<path d="m15.441 7.1825 0.2992-0.16487 0.4169 0.76398c0.0311 0.05662 0.0622 0.11323 0.0976 0.16736 0.1039 0.15491 0.2333 0.1941 0.3827 0.11758 0.1679-0.08523 0.2221-0.21464 0.1362-0.39754-0.1076-0.22895-0.2352-0.44856-0.3546-0.67191-0.0442-0.08336-0.089-0.16611-0.1419-0.26378l0.2893-0.16611c0.0262 0.03733 0.0511 0.06719 0.0697 0.10016 0.1406 0.25694 0.285 0.51202 0.4193 0.77269 0.2489 0.48402-0.0584 0.98235-0.6078 0.98919-0.2352 0-0.3851-0.13687-0.5058-0.31853-0.0251-0.03697-0.0484-0.07517-0.0697-0.11447l-0.4311-0.81375z"/>
<path d="m27.471 5.7858c-0.0765 0.00647-0.1534 0.00501-0.2296-0.00435-0.025-0.00589-0.0484-0.01734-0.0684-0.03349-0.0201-0.01615-0.0362-0.0366-0.0473-0.05983-0.0354-0.14185-0.1076-0.22833-0.2582-0.24886-0.0714-0.01529-0.146-0.0065-0.2119 0.02501-0.066 0.03152-0.1196 0.08397-0.1526 0.14919-0.1031 0.1901-0.134 0.41104-0.0871 0.62213 0.0119 0.07447 0.0487 0.14273 0.1042 0.19375 0.0555 0.05103 0.1266 0.08184 0.2019 0.08746 0.1648 0.01929 0.265-0.05537 0.3166-0.20779 0.0091-0.01631 0.0199-0.03154 0.0324-0.04542l0.3303 0.04479c-0.0037 0.26877-0.2488 0.49771-0.5437 0.51264-0.5917 0.03422-0.9332-0.39194-0.8051-1.011 0.1033-0.50828 0.4324-0.74656 0.9158-0.66444 0.3242 0.05475 0.5145 0.2893 0.5027 0.64018z"/>
<path d="m15.013 7.4164 0.1674 0.24886-0.5879 0.40438 0.1953 0.29489 0.5599-0.3683 0.168 0.24326-0.5543 0.3795c0.1244 0.18664 0.2352 0.35835 0.3546 0.53939l-0.2862 0.19099-0.9008-1.3382 0.884-0.59476z"/>
<path d="m18.387 7.5751-0.3211 0.13936c-0.1692-0.40314-0.3353-0.79757-0.5058-1.2026l-0.4398 0.17731-0.1201-0.28121 1.2076-0.50392 0.1201 0.27498-0.4405 0.19224c0.1667 0.4019 0.3291 0.79446 0.4996 1.2038z"/>
<path d="m27.66 6.9816 0.3957-1.5553 0.339 0.08026c-0.1076 0.42927-0.2115 0.84237-0.3191 1.2692l0.7248 0.19037c-0.0231 0.07719-0.0516 0.15265-0.0853 0.22584-0.0118 0.01332-0.0267 0.02348-0.0435 0.02956-0.0167 0.00608-0.0347 0.0079-0.0523 0.00528-0.3123-0.07777-0.6234-0.15927-0.9593-0.24512z"/>
<path d="m25.038 6.245c-0.0025 0.07581-0.0121 0.15121-0.0287 0.22522-0.0084 0.01976-0.0213 0.03726-0.0377 0.0511-0.0165 0.01383-0.0359 0.02361-0.0568 0.02853-0.293 0.00373-0.5861 0-0.8785-0.00871-0.0239-0.0067-0.0458-0.01942-0.0634-0.03695-0.0177-0.01754-0.0305-0.0393-0.0374-0.06321-0.0068-0.49771-0.0043-0.99106-0.0043-1.4987h0.359v1.3027h0.7478z"/>
<path d="m27.546 22.981c0.3527 0.8927 0.1487 1.7133-0.3733 2.5183 0.3556-0.1087 0.6689-0.3247 0.8971-0.6184 0 0.2557-0.2856 0.7466-0.5717 0.9955-0.2952 0.254-0.6633 0.408-1.0514 0.4398 0.1001 0.5493 0.4429 0.6887 1.1708 0.4846-0.0454 0.1867-0.4355 0.3926-0.6881 0.3615-0.4933-0.0622-0.5829-0.4262-0.6165-0.8393-0.6028-0.0255-1.1062-0.283-1.5647-0.6401-0.3689-0.2874-0.6432-0.6614-0.9101-1.0396-0.4586-0.6476-0.8996-1.3133-1.3793-1.9448-0.4523-0.5979-0.9805-1.1248-1.6742-1.4514-0.0724-0.0311-0.1425-0.0675-0.2096-0.1089 0.3609 0.0466 0.7138 0.1423 1.0489 0.2843 0.7515 0.3148 1.3488 0.8343 1.8782 1.4371 0.3017 0.3435 0.5873 0.7006 0.8741 1.0577 0.3453 0.4299 0.7466 0.7857 1.2816 0.9574 0.7615 0.2433 1.4197-0.0734 1.6723-0.8336 0.0939-0.2831 0.1107-0.5923 0.1599-0.8903 0.0066-0.0578 0.0101-0.116 0.0105-0.1742l0.0455 0.0044z"/>
<path d="m26.44 27.145c-0.3111 0.2731-0.7466 0.2712-1.0048 0.0186-0.2127-0.2071-0.2376-0.6974-0.0174-0.9705-0.041 0.7453 0.2962 1.0601 1.0222 0.9519z"/>
</svg>
