<svg width="29" height="22" viewBox="0 0 29 22" fill="none" xmlns="http://www.w3.org/2000/svg">
<path fill-rule="evenodd" clip-rule="evenodd" d="M25.26 7.67C25.26 6.69 26.06 5.89 27.04 5.89V5.87C28.02 5.87 28.82 6.67 28.82 7.65C28.82 8.46 28.28 9.13 27.54 9.35V13.74C27.54 14.02 27.32 14.24 27.04 14.24H23.05V20.88C23.05 21.16 22.83 21.38 22.55 21.38H0.5C0.22 21.38 0 21.16 0 20.88V7.34C0 7.06 0.22 6.84 0.5 6.84H3.03V5.37C3.03 5.23 3.08 5.1 3.18 5.01C3.28 4.92 3.45 4.85 3.54 4.87L6.28 4.92C6.47 3.6 7.36 0.1 11.42 0H11.47H11.52H11.53H11.54H11.55H11.62C15.68 0.08 16.57 3.6 16.77 4.93L19.51 4.88C19.61 4.86 19.77 4.93 19.87 5.02C19.97 5.12 20.02 5.25 20.02 5.38V6.85H22.55C22.83 6.85 23.05 7.07 23.05 7.35V13.26H26.54V9.37C25.8 9.15 25.26 8.48 25.26 7.67ZM6.73 5.93L4.04 5.89H4.03V6.85H19V5.89L16.31 5.93C16.04 5.93 15.81 5.72 15.81 5.45C15.81 5.27 15.61 1.02 11.52 1C7.43 1.03 7.23 5.27 7.23 5.45C7.22 5.72 7 5.93 6.73 5.93ZM1 20.4H22.05V20.39V7.85H1V20.4ZM26.26 7.68C26.26 8.11 26.61 8.46 27.04 8.46C27.47 8.46 27.82 8.11 27.82 7.68C27.82 7.25 27.47 6.9 27.04 6.9C26.61 6.9 26.26 7.25 26.26 7.68ZM19.3198 9.62988H3.31982C2.76982 9.62988 2.31982 10.0799 2.31982 10.6299V17.4999C2.31982 18.0499 2.76982 18.4999 3.31982 18.4999H19.3198C19.8698 18.4999 20.3198 18.0499 20.3198 17.4999V10.6299C20.3198 10.0799 19.8698 9.62988 19.3198 9.62988ZM8.11982 17.4999H3.31982V10.6299H8.11982V17.4999ZM13.5198 17.4999H9.11982V10.6299H13.5198V17.4999ZM19.3198 17.4999H14.5198V10.6299H19.3198V17.4999ZM4.93016 15.3401L5.73016 14.9101L6.54016 15.3201L6.38016 14.4301L7.02016 13.7801L6.12016 13.6601L5.70016 12.8501L5.31016 13.6701L4.41016 13.8201L5.07016 14.4401L4.93016 15.3401ZM11.35 14.9101L10.55 15.3401L10.7 14.4401L10.04 13.8201L10.94 13.6701L11.33 12.8501L11.74 13.6601L12.65 13.7801L12 14.4301L12.17 15.3201L11.35 14.9101ZM16.1299 15.3401L16.9299 14.9101L17.7399 15.3201L17.5799 14.4301L18.2199 13.7801L17.3199 13.6601L16.8999 12.8501L16.5099 13.6701L15.6099 13.8201L16.2699 14.4401L16.1299 15.3401Z" fill="white"/>
</svg>
