<?xml version="1.0" encoding="UTF-8"?>
<svg xmlns="http://www.w3.org/2000/svg" xmlns:v="https://vecta.io/nano" width="60" height="60" fill="none">
  <g clip-path="url(#A)">
    <path d="M30 60c16.569 0 30-13.431 30-30S46.569 0 30 0 0 13.432 0 30s13.432 30 30 30z" fill="#fff"></path>
    <g fill="#000">
      <path d="M29.647 4.886a25.08 25.08 0 0 0-16.806 6.533c-4.599 4.186-7.479 9.93-8.082 16.118s1.114 12.381 4.818 17.375a25.08 25.08 0 0 0 15.229 9.654c6.098 1.219 12.43.13 17.77-3.056s9.306-8.242 11.129-14.186a25.09 25.09 0 0 0-1.262-17.987c-2.635-5.632-7.27-10.084-13.002-12.493-3.093-1.327-6.429-1.994-9.794-1.958zm0-2.825A27.93 27.93 0 0 1 40.38 4.117a27.94 27.94 0 0 1 9.123 6.016c2.615 2.586 4.694 5.664 6.117 9.056a27.92 27.92 0 0 1 2.174 10.71c.012 3.678-.702 7.323-2.102 10.724a27.93 27.93 0 0 1-15.138 15.175c-3.398 1.408-7.041 2.131-10.719 2.128h-.188A27.93 27.93 0 0 1 1.74 30.087C1.715 22.7 4.618 15.603 9.812 10.351s12.259-8.233 19.646-8.29h.188zM9.769 25.01l30.509 7.195a1.33 1.33 0 0 1 .739.481 1.34 1.34 0 0 1 .277.837v11.489a1.35 1.35 0 0 1-1.35 1.357.86.86 0 0 1-.302-.037L9.129 39.139c-.294-.072-.555-.242-.74-.482s-.282-.536-.277-.839v-11.49a1.35 1.35 0 0 1 1.356-1.356.94.94 0 0 1 .302.037z"></path>
      <path d="M49.737 20.15l-30.513-5.01c-.602-.263-1.017 0-1.017.64v11.527a2.97 2.97 0 0 0 .52 1.402c.29.415.681.749 1.137.971l30.509 5.011c.602.263 1.017 0 1.017-.64V22.523a2.48 2.48 0 0 0-1.653-2.373z"></path>
    </g>
    <path d="M9.769 24.033l30.509-12.622c.602-.263 1.017 0 1.017.64v11.527a2.97 2.97 0 0 1-.519 1.401c-.289.415-.68.75-1.135.972L9.128 38.57c-.6.264-1.017 0-1.017-.64V26.403c.052-.503.231-.985.521-1.4s.681-.748 1.136-.97z" fill="#fad749"></path>
    <g fill="#000">
      <path d="M19.827 34.242L50.34 21.619c.602-.263 1.017 0 1.017.64v11.527a2.97 2.97 0 0 1-.521 1.402c-.29.415-.682.749-1.138.971l-30.474 12.62c-.602.263-1.017 0-1.017-.64V36.649a2.99 2.99 0 0 1 .498-1.413c.284-.421.669-.763 1.122-.994z"></path>
      <g fill-rule="evenodd">
        <path d="M37.571 15.55l-1.695.716c-.063.011-.12.044-.162.093s-.065.111-.066.175v2.673c0 .038 0 .076-.075.113l-1.695.716c-.038.038-.075.038-.075-.037v-2.674c0-.151-.075-.189-.226-.113l-1.695.716c-.151.076-.226.151-.226.302v7.458c0 .151.076.188.227.111l1.695-.716c.151-.076.226-.151.226-.302v-2.75c0-.038 0-.076.075-.113l1.695-.716c.037-.037.075-.037.075.038v2.75c0 .151.075.189.226.113l1.695-.716c.151-.076.226-.151.226-.302v-7.421c0-.151-.075-.189-.226-.113zM26.307 27.946c-.201.007-.401-.026-.588-.098s-.359-.18-.504-.319c-.274-.324-.409-.743-.377-1.167v-.11c0-.151.075-.226.226-.302l1.657-.716c.151-.075.226-.038.226.038v.113c.001.098.035.192.097.268a.43.43 0 0 0 .242.149 1.14 1.14 0 0 0 .828-.113c.232-.088.438-.231.603-.417.104-.13.169-.287.188-.452 0-.151-.075-.263-.226-.263l-.828.037-.339.038c-.617.084-1.244.046-1.846-.113-.49-.151-.75-.602-.75-1.318 0-.49.13-.971.377-1.394a4.78 4.78 0 0 1 1.055-1.281c.458-.378.963-.694 1.503-.94.489-.248 1.035-.365 1.583-.339.21-.009.419.026.614.104s.371.196.516.348a1.63 1.63 0 0 1 .417 1.167v.038c0 .151-.075.226-.226.302l-1.658.716c-.151.076-.226.076-.226 0v-.075c.001-.102-.027-.202-.081-.288s-.13-.157-.221-.202c-.135-.051-.279-.071-.423-.058s-.282.058-.406.133c-.207.094-.398.221-.565.377-.065.063-.116.14-.148.224s-.046.175-.04.266c0 .151.037.226.151.263.145.05.298.075.452.075.133 0 .34-.019.609-.043h.001l.37-.032c.076 0 .339-.038.791-.113a1.52 1.52 0 0 1 1.167.263c.16.138.285.313.363.51a1.32 1.32 0 0 1 .088.62 2.81 2.81 0 0 1-.377 1.432c-.264.492-.623.927-1.055 1.281a6.61 6.61 0 0 1-1.583.979 4.44 4.44 0 0 1-1.657.414zm-3.919.867l.226.716c.04.113.113.151.258.069l1.808-.75c.113-.075.188-.15.188-.263v-.075l-2.333-6.442c-.038-.112-.113-.112-.226-.075l-2.297.979c-.058.019-.11.053-.15.1s-.066.103-.076.163l-2.333 8.4c-.038.113-.038.151 0 .188s.076.038.151 0l1.808-.75c.058-.019.11-.054.15-.1s.066-.103.076-.163l.226-.904.113-.113 2.297-1.018c.076-.037.113 0 .113.038zm-1.959-.867c-.038.037-.075 0-.075-.038l.716-2.975.075-.075c.019.004.023.007.027.011.01.017.011.022.011.027l.716 2.297v.075c-.014.014-.023.029-.031.041-.012.02-.021.034-.044.034l-1.394.603zm-8.63 5.675a1.49 1.49 0 0 0 .607.164c.577.023 1.15-.106 1.661-.377.592-.249 1.139-.593 1.62-1.017.449-.403.818-.887 1.089-1.427a3.48 3.48 0 0 0 .377-1.583v-.038c0-.023-.014-.018-.058-.002l-.13.04-1.695.64c-.019.019-.047.038-.075.057a.49.49 0 0 0-.075.057l-.002.003c-.037.037-.073.074-.073.111.005.297-.087.589-.263.828a1.51 1.51 0 0 1-.716.565c-.105.07-.227.11-.353.117s-.251-.021-.363-.079a.62.62 0 0 1-.263-.602v-2.373a1.39 1.39 0 0 1 .263-.867 1.51 1.51 0 0 1 .716-.565c.105-.07.227-.11.353-.117s.251.021.363.079c.188.075.263.301.263.602v.075c0 .037.037.037.151 0l.037-.038 1.695-.828c.113-.075.188-.151.188-.226a1.82 1.82 0 0 0-.377-1.243 1.56 1.56 0 0 0-1.092-.49c-.559-.019-1.115.097-1.62.339-.596.256-1.143.612-1.62 1.052-.452.418-.822.916-1.093 1.469-.253.515-.382 1.083-.377 1.657v2.26c-.031.482.102.96.377 1.357a1.49 1.49 0 0 0 .485.401z"></path>
      </g>
    </g>
    <path fill-rule="evenodd" d="M41.94 28.626v7.421c0 .151.075.188.19.113l1.695-.716c.151-.076.226-.151.226-.302v-1.846c0-.041.013-.081.037-.113l.452-.791c.014-.014.023-.029.031-.041.012-.02.021-.034.044-.034.038-.037.075-.037.075 0l1.506 2.035c.034.034.078.055.125.062s.096-.002.138-.025l1.883-.791c.113-.075.188-.151.188-.226.003-.021.001-.041-.006-.061s-.017-.038-.032-.052l-2.373-3.052c-.038 0-.038-.038 0-.113l2.26-4.106c.03-.044.043-.098.038-.151 0-.075-.038-.075-.151-.037l-1.921.791c-.112.042-.205.122-.263.226l-1.883 3.466c-.014.014-.023.029-.031.041-.012.02-.021.034-.044.034s-.028 0-.033-.005-.005-.014-.005-.033v-2.599c0-.151-.075-.189-.226-.113l-1.695.716c-.151.076-.226.151-.226.302zm-5.424 9.683a1.49 1.49 0 0 1-1.092-.565c-.275-.397-.407-.875-.377-1.357v-2.26c-.006-.574.123-1.142.377-1.657.27-.553.641-1.051 1.092-1.469.47-.448 1.019-.805 1.62-1.052.505-.242 1.061-.358 1.62-.339.205.006.408.052.595.136a1.56 1.56 0 0 1 .497.354 1.82 1.82 0 0 1 .377 1.243c0 .075-.075.151-.188.226l-1.695.828-.038.038c-.113.038-.151.038-.151 0v-.075c0-.302-.075-.527-.263-.602-.112-.059-.237-.086-.363-.079s-.248.047-.353.117a1.51 1.51 0 0 0-.716.565 1.39 1.39 0 0 0-.263.867V35.6a.62.62 0 0 0 .263.602c.112.059.237.086.363.079s.248-.047.353-.117c.291-.11.541-.307.716-.565.176-.24.269-.531.263-.828 0-.037.036-.073.073-.111l.002-.002c.019-.019.047-.038.075-.057s.057-.038.075-.057l1.695-.64c.059-.015.101-.029.13-.04h0c.045-.016.058-.021.058.002v.038c.001.55-.128 1.093-.377 1.583-.271.539-.64 1.023-1.089 1.427a5.91 5.91 0 0 1-1.62 1.017c-.512.267-1.084.397-1.661.378zM32.3 39.4l.226.716c0 .076.072.113.222.031l1.808-.75c.113-.075.188-.15.188-.263v-.075l-2.333-6.442c-.037-.112-.112-.112-.226-.075l-2.297.979c-.058.019-.11.053-.15.1s-.066.103-.076.163l-2.333 8.4c-.038.113-.038.151 0 .188s.076.037.151 0l1.808-.75c.058-.019.11-.054.15-.1s.066-.103.076-.163l.226-.904.113-.113 2.333-.979c.076-.038.113 0 .113.038zm-1.959-.867c-.037.038-.075 0-.075-.038l.716-2.975c.014-.014.023-.029.031-.041.012-.02.021-.034.044-.034.017.003.018.004.02.005.013.014.014.016.015.018l.718 2.312v.075c-.014.014-.023.029-.031.041-.012.02-.021.034-.044.034l-1.394.602zm-4.104.41c-.005-.005-.005-.014-.005-.033 0-.038 0-.038.037-.078a2.72 2.72 0 0 0 .791-1.883c0-.792-.226-1.243-.716-1.394-.742-.084-1.491.061-2.148.417l-2.863 1.206c-.151.076-.226.151-.226.302V44.9c0 .151.076.189.227.115l2.976-1.243a5.8 5.8 0 0 0 2.109-1.432 3.01 3.01 0 0 0 .791-2.034c.02-.329-.058-.657-.226-.942a1 1 0 0 0-.716-.417h0c-.019 0-.028 0-.033-.005zm-3.018.381V38.27h-.001c.009-.057.036-.109.076-.151l.867-.377c.565-.227.828-.151.828.263s-.301.753-.828.979l-.867.377c-.037.038-.075.038-.075-.038zm1.055 1.357c.527-.226.791-.115.791.302l-.001-.001c-.01.222-.093.434-.236.605s-.338.289-.554.338l-.979.417c-.038.038-.075.038-.075-.038v-1.093c0-.038 0-.076.075-.113l.979-.417z" fill="#fff"></path>
  </g>
  <defs>
    <clipPath id="A">
      <path fill="#fff" d="M0 0h60v60H0z"></path>
    </clipPath>
  </defs>
</svg>
