<svg version="1.1" xmlns="http://www.w3.org/2000/svg" xmlns:xlink="http://www.w3.org/1999/xlink">
	<symbol id="freebet" viewBox="0 0 59 54">
		<path fill-rule="evenodd" d="M51.22 10.58H31.2v4.12h5.48l-3.2 3.49 3.2 3.49H31.2v31.3h-.85V21.66H8.53L2.7 18.17l5.83-3.49h21.82v-4.12h-7.28l3.2-3.49-3.2-3.49h7.28V1.72h.85v1.87h20.03l5.83 3.49-5.84 3.5zm.29.99v.01H32.2v2.12h6.75l-4.12 4.49 4.12 4.49H32.2v30.56c0 .41-.24.74-.53.74h-1.79c-.29 0-.53-.33-.53-.74V22.66H8.25L.76 18.17l7.49-4.49h21.1v-2.12H20.8l4.12-4.49-4.12-4.49h8.55V1.46c0-.41.24-.74.53-.74h1.79c.29 0 .53.33.53.74v1.13h19.31L59 7.08l-7.49 4.49zM31.2 1.45zm-.85 0z" clip-rule="evenodd"/><path fill="#000" d="M34.14 10.24V3.92h4.26v.74h-3.42v1.96h2.96v.75h-2.96v2.87h-.84zM39.38 10.24V5.66h.7v.69c.18-.32.34-.54.49-.64a.9.9 0 01.5-.16c.26 0 .53.08.8.25l-.27.73a1.14 1.14 0 00-.57-.17.77.77 0 00-.46.15.86.86 0 00-.29.42c-.09.28-.13.58-.13.9v2.39h-.77v.02zM45.45 8.76l.8.1c-.13.47-.36.83-.7 1.09a2.1 2.1 0 01-1.31.39 2.1 2.1 0 01-1.59-.62 2.42 2.42 0 01-.59-1.73c0-.77.2-1.37.59-1.79.4-.42.91-.64 1.54-.64.61 0 1.11.21 1.5.62.39.42.58 1 .58 1.76v.21h-3.41c.03.5.17.89.43 1.15.26.26.57.4.96.4.28 0 .53-.07.73-.22.2-.15.36-.39.47-.72zm-2.54-1.25h2.55a1.57 1.57 0 00-.29-.87 1.2 1.2 0 00-.96-.45c-.36 0-.66.12-.9.36s-.37.56-.4.96zM50.36 8.76l.8.1c-.13.47-.36.83-.7 1.09a2.1 2.1 0 01-1.31.39 2.1 2.1 0 01-1.59-.62 2.42 2.42 0 01-.59-1.73c0-.77.2-1.37.59-1.79.4-.42.91-.64 1.54-.64.61 0 1.11.21 1.5.62.39.42.58 1 .58 1.76v.21h-3.41c.03.5.17.89.43 1.15.26.26.57.4.96.4.28 0 .53-.07.73-.22.19-.15.35-.39.47-.72zm-2.55-1.25h2.55a1.57 1.57 0 00-.29-.87 1.2 1.2 0 00-.96-.45c-.36 0-.66.12-.9.36s-.37.56-.4.96zM13 21.07v-5.93h2.59c.52 0 .92.05 1.19.16.27.11.49.29.65.56.16.27.24.57.24.89 0 .42-.13.78-.4 1.06s-.68.47-1.24.55c.2.1.36.2.47.3.23.21.44.47.64.79l1.02 1.61h-.97l-.77-1.23c-.23-.36-.41-.63-.56-.82a2.13 2.13 0 00-.39-.4 1.1 1.1 0 00-.35-.16 2.17 2.17 0 00-.43-.03h-.9v2.63H13v.02zm.77-3.31h1.66c.35 0 .63-.04.83-.11.2-.07.35-.19.45-.36a1 1 0 00.16-.53c0-.28-.1-.51-.3-.69-.2-.18-.52-.27-.95-.27h-1.85v1.96zM18.79 15.98v-.84h.72v.84h-.72zm0 5.09v-4.3h.72v4.3h-.72zM20.31 19.79l.71-.11a1 1 0 00.33.66c.18.15.44.23.76.23.33 0 .57-.07.73-.2.16-.14.24-.3.24-.48a.46.46 0 00-.21-.39c-.1-.06-.34-.15-.73-.25a6.65 6.65 0 01-1.09-.35c-.2-.1-.36-.23-.46-.41a1.15 1.15 0 01.32-1.52 2.06 2.06 0 011.08-.3c.33 0 .62.05.87.15.25.1.44.23.56.39.12.17.2.39.25.67l-.7.1a.77.77 0 00-.28-.52 1.03 1.03 0 00-.65-.19c-.33 0-.56.06-.7.17-.14.11-.21.24-.21.39 0 .09.03.18.09.25.06.08.15.14.27.19l.63.19c.51.14.86.25 1.06.34.2.09.36.22.47.38.11.17.17.38.17.62s-.07.47-.21.69c-.14.21-.34.38-.6.5-.26.12-.56.18-.89.18-.55 0-.97-.12-1.26-.35a1.62 1.62 0 01-.55-1.03zM24.68 21.07v-5.93h.72v3.38l1.7-1.75h.93l-1.62 1.59 1.78 2.7h-.89l-1.4-2.2-.51.49v1.7h-.71v.02z"/>
	</symbol>
    <symbol id="google" viewBox="0 0 32 32">
        <path d="M16 0a16 16 0 100 32 16 16 0 000-32zm0 25.6a9.6 9.6 0 116.3-16.7l-2.7 2.7A5.3 5.3 0 0016 10c-3.2 0-5.8 2.7-5.8 6s2.6 5.8 5.8 5.8c3.7 0 5-2.6 5.3-4h-5.3v-3.6h9l.2 2c0 5.4-3.6 9.3-9.2 9.3z"/>
    </symbol>
	<symbol id="kakaotalk" viewBox="0 0 34 34">
		<path d="M15.67 14.565a.8003.8003 0 00-.2893-.4091.7996.7996 0 00-.4757-.1569.80012.80012 0 00-.765.566l-1.36 3.6c-.18.539-.02.739.13.811a.88561.88561 0 00.37.079.46401.46401 0 00.2748-.0517.4643.4643 0 00.1952-.2003l.28-.741h1.75l.2801.74a.46323.46323 0 00.195.2005.46299.46299 0 00.2749.0515.88561.88561 0 00.37-.079c.16-.072.31-.272.13-.812l-1.36-3.598zm-1.34 2.481l.58-1.621.57 1.621h-1.15zm5.45.882h-1.2101v-3.356a.57612.57612 0 00-.1718-.4055.57612.57612 0 00-.4081-.1655.58502.58502 0 00-.59.571v3.88a.54.54 0 00.1673.3751.5396.5396 0 00.3826.1489H19.78c.0688 0 .1369-.0136.2005-.0399a.52302.52302 0 00.17-.1136.52383.52383 0 00.1137-.17.52418.52418 0 00.0398-.2005c0-.0688-.0135-.137-.0398-.2005a.52383.52383 0 00-.1137-.17.52302.52302 0 00-.17-.1136.52465.52465 0 00-.2005-.0399zM17 0A16.99993 16.99993 0 001.29406 10.4944a16.99988 16.99988 0 00-.9674 9.8221 16.99991 16.99991 0 004.65246 8.7043 17.00062 17.00062 0 008.70438 4.6526 17.001 17.001 0 009.8221-.9674 17.00026 17.00026 0 007.6294-6.2613A16.99975 16.99975 0 0034 17c0-4.5087-1.791-8.8327-4.9791-12.02081C25.8328 1.79107 21.5087 0 17 0zm0 24.141c-.5888.0003-1.177-.0408-1.76-.123-.57.4-3.8699 2.721-4.1799 2.765a.30814.30814 0 01-.1215.0174.30912.30912 0 01-.1187-.0314.25474.25474 0 01-.0753-.1042.25448.25448 0 01-.0146-.1278c.03-.223.86-3.065 1.01-3.588-2.79001-1.381-4.64003-3.827-4.64003-6.615 0-4.312 4.43003-7.807 9.90003-7.807 5.47 0 9.9 3.5 9.9 7.807s-4.43 7.807-9.9 7.807zm-3.45-9.58a.55972.55972 0 00-.1644-.3953.56009.56009 0 00-.3956-.1637h-2.9299a.55926.55926 0 00-.39568.1639.55946.55946 0 00-.16394.3956c0 .1484.05902.2907.16394.3956a.55926.55926 0 00.39568.1639h.8898v3.394a.57645.57645 0 00.18.3852.57606.57606 0 00.7903 0 .57667.57667 0 00.1798-.3852V15.12h.89c.1485 0 .291-.059.396-.164.105-.105.164-.2465.164-.395zm9.19 1.7l1.3-1.3a.43987.43987 0 00.1036-.1596.43955.43955 0 00.0264-.1884.5746.5746 0 00-.17-.362.56572.56572 0 00-.39-.169.4511.4511 0 00-.32.127L21.6999 15.8v-1.228a.575.575 0 00-.1683-.4066.5751.5751 0 00-.8132 0 .57468.57468 0 00-.1684.4066v3.908c0 .1525.0605.2988.1684.4066a.5751.5751 0 00.8132 0 .575.575 0 00.1683-.4066v-1.247l.2001-.2 1.33 1.775c.054.0707.1235.1281.2033.1674a.57692.57692 0 00.2566.0596.58702.58702 0 00.5701-.492.5811.5811 0 00-.11-.423l-1.41-1.859z"/>
	</symbol>
	<symbol id="graph" viewBox="0 0 32 32">
		<path d="M31.467 29.867h-1.067v-12.267h-6.4v12.267h-0.533v-7.467h-6.4v7.467h-0.533v-24h-6.4v24h-0.533v-19.733h-6.4v19.733h-1.067v-29.333c0-0.295-0.238-0.533-0.533-0.533s-0.533 0.238-0.533 0.533v29.333h-0.533c-0.295 0-0.533 0.238-0.533 0.533s0.238 0.533 0.533 0.533h0.533v0.533c0 0.295 0.238 0.533 0.533 0.533s0.533-0.238 0.533-0.533v-0.533h29.333c0.295 0 0.533-0.238 0.533-0.533s-0.238-0.533-0.533-0.533z"></path>
	</symbol>
	<symbol id="line-chart" viewBox="0 0 32 32">
		<path d="M29.314 0c-1.486 0-2.686 1.2-2.686 2.686s1.2 2.686 2.686 2.686 2.686-1.2 2.686-2.686c-0-1.486-1.2-2.686-2.686-2.686zM29.314 3.992c-0.722 0-1.306-0.584-1.306-1.306s0.584-1.306 1.306-1.306c0.722 0 1.306 0.584 1.306 1.306s-0.584 1.306-1.306 1.306z"></path>
		<path d="M2.686 15.31c-1.486 0-2.686 1.2-2.686 2.686s1.2 2.686 2.686 2.686 2.686-1.2 2.686-2.686-1.2-2.686-2.686-2.686zM2.686 19.302c-0.722 0-1.306-0.584-1.306-1.306s0.584-1.306 1.306-1.306c0.722 0 1.306 0.584 1.306 1.306s-0.584 1.306-1.306 1.306z"></path>
		<path d="M10.67 7.326c-1.486 0-2.686 1.2-2.686 2.686s1.2 2.686 2.686 2.686c1.486 0 2.686-1.2 2.686-2.686s-1.2-2.686-2.686-2.686zM10.67 11.318c-0.722 0-1.306-0.584-1.306-1.306s0.584-1.306 1.306-1.306c0.722 0 1.306 0.584 1.306 1.306s-0.584 1.306-1.306 1.306z"></path>
		<path d="M16.329 12.985c-1.486 0-2.686 1.2-2.686 2.686s1.2 2.686 2.686 2.686 2.686-1.2 2.686-2.686c0-1.486-1.2-2.686-2.686-2.686zM16.329 16.977c-0.722 0-1.306-0.584-1.306-1.306s0.584-1.306 1.306-1.306c0.722 0 1.306 0.584 1.306 1.306s-0.584 1.306-1.306 1.306z"></path>
		<path d="M17.257 13.765l10.147-10.167 0.977 0.975-10.147 10.167-0.977-0.975z"></path>
		<path d="M11.599 11.91l0.974-0.978 2.843 2.833-0.974 0.978-2.843-2.833z"></path>
		<path d="M3.616 16.090l5.158-5.157 0.976 0.976-5.157 5.157-0.976-0.976z"></path>
		<path d="M0.021 30.62h31.958v1.38h-31.958v-1.38z"></path>
		<path d="M28.624 11.339h1.38v19.971h-1.38v-19.971z"></path>
		<path d="M15.979 21.33h1.38v9.98h-1.38v-9.98z"></path>
		<path d="M1.996 23.326h1.38v7.984h-1.38v-7.984z"></path>
		<path d="M9.98 17.327h1.38v13.983h-1.38v-13.983z"></path>
	</symbol>

	<symbol id="fast_reg" viewBox="0 0 32 32">
		<path d="M25.067 11c-0.067-0.2-0.267-0.333-0.467-0.333h-6.333l6.267-9.867c0.133-0.133 0.133-0.4 0-0.533-0.067-0.133-0.267-0.267-0.467-0.267h-8.533c-0.2 0-0.4 0.133-0.467 0.267l-8 16c-0.067 0.2-0.067 0.4 0 0.533s0.267 0.267 0.467 0.267h5.467l-6 14.2c-0.133 0.267 0 0.533 0.2 0.667 0.133 0.067 0.267 0.067 0.333 0.067 0.133 0 0.333-0.067 0.4-0.2l17.067-20.267c0.133-0.133 0.2-0.4 0.067-0.533z"></path>
	</symbol>
	<symbol id="full_reg" viewBox="0 0 32 32">
		<path d="M16 20.667l-3.933-3.467-11.333 9.733c0.4 0.4 1 0.6 1.6 0.6h27.4c0.6 0 1.133-0.267 1.6-0.6l-11.333-9.733-4 3.467z"></path>
		<path d="M31.267 5.267c-0.4-0.333-0.933-0.6-1.6-0.6h-27.333c-0.667 0-1.2 0.267-1.6 0.6l15.267 13.133 15.267-13.133z"></path>
		<path d="M0 6.667v19l11.067-9.4z"></path>
		<path d="M20.933 16.267l11.067 9.4v-19z"></path>
	</symbol>
	<symbol id="short_reg" viewBox="0 0 32 32">
		<path d="M16 20.667l-3.933-3.467-11.333 9.733c0.4 0.4 1 0.6 1.6 0.6h27.4c0.6 0 1.133-0.267 1.6-0.6l-11.333-9.733-4 3.467z"></path>
		<path d="M31.267 5.267c-0.4-0.333-0.933-0.6-1.6-0.6h-27.333c-0.667 0-1.2 0.267-1.6 0.6l15.267 13.133 15.267-13.133z"></path>
		<path d="M0 6.667v19l11.067-9.4z"></path>
		<path d="M20.933 16.267l11.067 9.4v-19z"></path>
	</symbol>
	<symbol id="fast_email_reg" viewBox="0 0 32 32">
		<path d="M16 20.667l-3.933-3.467-11.333 9.733c0.4 0.4 1 0.6 1.6 0.6h27.4c0.6 0 1.133-0.267 1.6-0.6l-11.333-9.733-4 3.467z"></path>
		<path d="M31.267 5.267c-0.4-0.333-0.933-0.6-1.6-0.6h-27.333c-0.667 0-1.2 0.267-1.6 0.6l15.267 13.133 15.267-13.133z"></path>
		<path d="M0 6.667v19l11.067-9.4z"></path>
		<path d="M20.933 16.267l11.067 9.4v-19z"></path>
	</symbol>
	<symbol id="soc_reg" viewBox="0 0 32 32">
		<path d="M19.333 7.267c1.467 0.933 2.533 2.467 2.733 4.333 0.6 0.267 1.267 0.467 2 0.467 2.6 0 4.667-2.133 4.667-4.667 0-2.6-2.133-4.667-4.667-4.667-2.667-0.067-4.733 2-4.733 4.533zM16.267 16.867c2.6 0 4.667-2.133 4.667-4.667s-2.133-4.667-4.667-4.667-4.667 2.133-4.667 4.667 2.067 4.667 4.667 4.667zM18.2 17.2h-4c-3.333 0-6 2.667-6 6v4.933l0.333 0.133c3.133 1 5.933 1.333 8.2 1.333 4.4 0 7-1.267 7.133-1.333l0.333-0.133h0.067v-4.867c0-3.333-2.733-6.067-6.067-6.067zM26 12.4h-3.933c-0.067 1.6-0.733 3-1.8 4 2.933 0.867 5.067 3.6 5.067 6.867v1.533c3.933-0.133 6.133-1.267 6.267-1.333l0.333-0.133h0.067v-4.867c0-3.4-2.667-6.067-6-6.067zM8 12.067c0.933 0 1.8-0.267 2.467-0.733 0.2-1.533 1.067-2.8 2.2-3.733 0-0.067 0-0.2 0-0.267 0-2.6-2.133-4.667-4.667-4.667-2.6 0-4.667 2.133-4.667 4.667 0 2.6 2.067 4.733 4.667 4.733zM12.2 16.4c-1.067-1-1.733-2.467-1.8-4-0.133 0-0.267 0-0.467 0h-3.933c-3.333 0-6 2.667-6 6v4.933l0.333 0.133c2.533 0.8 4.8 1.133 6.8 1.267v-1.467c0-3.267 2.133-6 5.067-6.867z"></path>
	</symbol>
	<symbol id="phone_reg" viewBox="0 0 32 32">
		<path d="M23.067 0h-14.267c-1.133 0-2.133 1-2.133 2.133v27.667c0 1.2 1 2.2 2.133 2.2h14.267c1.2 0 2.133-1 2.133-2.133v-27.733c0.067-1.133-0.933-2.133-2.133-2.133zM13.667 1.533h4.533c0.133 0 0.267 0.133 0.267 0.267s-0.133 0.267-0.267 0.267h-4.533c-0.133 0-0.267-0.133-0.267-0.267s0.133-0.267 0.267-0.267zM15.933 30.933c-0.6 0-1.067-0.467-1.067-1.067s0.467-1.067 1.067-1.067c0.6 0 1.067 0.467 1.067 1.067 0.067 0.6-0.467 1.067-1.067 1.067zM23.733 28h-15.533v-24.6h15.6v24.6z"></path>
	</symbol>
	<symbol id="fast_phone_reg" viewBox="0 0 32 32">
		<path d="M23.067 0h-14.267c-1.133 0-2.133 1-2.133 2.133v27.667c0 1.2 1 2.2 2.133 2.2h14.267c1.2 0 2.133-1 2.133-2.133v-27.733c0.067-1.133-0.933-2.133-2.133-2.133zM13.667 1.533h4.533c0.133 0 0.267 0.133 0.267 0.267s-0.133 0.267-0.267 0.267h-4.533c-0.133 0-0.267-0.133-0.267-0.267s0.133-0.267 0.267-0.267zM15.933 30.933c-0.6 0-1.067-0.467-1.067-1.067s0.467-1.067 1.067-1.067c0.6 0 1.067 0.467 1.067 1.067 0.067 0.6-0.467 1.067-1.067 1.067zM23.733 28h-15.533v-24.6h15.6v24.6z"></path>
	</symbol>
	<symbol id="cancel" viewBox="0 0 32 32">
		<path d="M16 0c-8.8 0-16 7.2-16 16s7.2 16 16 16 16-7.2 16-16-7.2-16-16-16zM16 30.773c-8.16 0-14.773-6.613-14.773-14.773s6.613-14.773 14.773-14.773 14.773 6.613 14.773 14.773-6.613 14.773-14.773 14.773z"></path>
		<path d="M21.973 10.027c-0.267-0.267-0.64-0.267-0.853 0l-5.12 5.12-5.12-5.12c-0.267-0.267-0.64-0.267-0.853 0-0.267 0.267-0.267 0.64 0 0.853l5.12 5.12-5.12 5.12c-0.267 0.267-0.267 0.64 0 0.853 0.107 0.107 0.267 0.16 0.427 0.16s0.32-0.053 0.427-0.16l5.12-5.12 5.12 5.12c0.107 0.107 0.267 0.16 0.427 0.16s0.32-0.053 0.427-0.16c0.267-0.267 0.267-0.64 0-0.853l-5.12-5.12 5.12-5.12c0.267-0.213 0.267-0.587 0-0.853z"></path>
	</symbol>
	<symbol id="football" viewBox="0 0 32 32">
		<path d="M16 0c-8.836 0-16 7.164-16 16s7.164 16 16 16 16-7.164 16-16c-0.010-8.832-7.168-15.99-16-16zM28.391 7.675l-1.109 4.714-5.842 1.947-4.907-3.925v-5.783l5.6-2.24c2.535 1.149 4.702 2.979 6.258 5.287zM28.48 24.184l-5.289 0.835-2.88-3.804 1.467-5.867 5.777-1.925 3.309 3.971c-0.226 2.425-1.045 4.757-2.385 6.79zM8.833 25.023l-5.313-0.839c-1.34-2.034-2.159-4.366-2.384-6.792l3.307-3.971 5.777 1.925 1.467 5.87zM1.071 15.801c0.028-2.379 0.629-4.717 1.75-6.815l0.865 3.68zM12.683 20.8l-1.415-5.665 4.732-3.785 4.733 3.787-1.416 5.664zM28.314 12.664l0.865-3.68c1.121 2.098 1.722 4.436 1.75 6.815zM20.679 1.821l-4.679 1.871-4.704-1.863c3.045-1.015 6.336-1.018 9.383-0.009zM9.841 2.4l5.626 2.229v5.781l-4.907 3.925-5.842-1.947-1.109-4.714c1.551-2.3 3.708-4.125 6.232-5.275zM4.411 25.405l4.335 0.685 2.622 4.107c-2.731-0.897-5.146-2.56-6.957-4.792zM12.898 30.607l-3.183-4.983 2.818-3.758h6.933l2.859 3.776-2.773 4.86c-2.181 0.537-4.456 0.574-6.654 0.107zM21.034 30.058l2.273-3.978 4.284-0.676c-1.721 2.12-3.989 3.729-6.557 4.654z"></path>
	</symbol>
	<symbol id="gambling" viewBox="0 0 29 32">
		<path d="M5.333 14.507l1.333 0.747 0.693 1.333c0.16 0.267 0.373 0.373 0.693 0.373s0.533-0.16 0.693-0.373l0.693-1.333 1.333-0.747c0.267-0.16 0.373-0.373 0.373-0.693s-0.16-0.533-0.373-0.693l-1.333-0.747-0.693-1.333c-0.16-0.267-0.373-0.373-0.693-0.373s-0.533 0.16-0.693 0.373l-0.693 1.333-1.333 0.747c-0.267 0.16-0.373 0.373-0.373 0.693s0.107 0.533 0.373 0.693zM7.147 13.227c0.107-0.053 0.213-0.16 0.32-0.32l0.587-1.12 0.587 1.12c0.053 0.107 0.16 0.213 0.32 0.32l1.12 0.587-1.173 0.587c-0.107 0.053-0.213 0.16-0.32 0.32l-0.587 1.12-0.587-1.12c-0.053-0.107-0.16-0.213-0.32-0.32l-1.12-0.587 1.173-0.587z"></path>
		<path d="M25.493 19.413c-0.107-0.213-0.373-0.32-0.587-0.32s-0.427 0.107-0.587 0.32l-1.227 1.707c-0.16 0.267-0.16 0.587 0 0.8l1.227 1.707c0.107 0.213 0.373 0.32 0.587 0.32s0.427-0.107 0.587-0.32l1.227-1.707c0.16-0.267 0.16-0.587 0-0.8l-1.227-1.707zM24.907 22.88l-0.96-1.333 0.96-1.333 0.96 1.333-0.96 1.333z"></path>
		<path d="M17.013 3.84l-1.227-1.707c-0.107-0.213-0.373-0.32-0.587-0.32s-0.427 0.107-0.587 0.32l-1.227 1.707c-0.16 0.267-0.16 0.587 0 0.8l1.227 1.707c0.107 0.213 0.373 0.32 0.587 0.32v0c0.213 0 0.427-0.107 0.587-0.32l1.227-1.707c0.16-0.213 0.16-0.533 0-0.8zM15.2 5.6l-0.907-1.333 0.96-1.333 0.907 1.333-0.96 1.333z"></path>
		<path d="M23.093 12.373l-2.293-3.253c-0.16-0.267-0.48-0.373-0.747-0.373s-0.587 0.16-0.747 0.373l-2.293 3.253c-0.213 0.32-0.213 0.747 0 1.067l2.293 3.253c0.16 0.267 0.48 0.373 0.747 0.373 0.32 0 0.587-0.16 0.747-0.373l2.293-3.253c0.213-0.32 0.213-0.747 0-1.067zM20.053 16.107l-2.24-3.2 2.24-3.2 2.24 3.2-2.24 3.2z"></path>
		<path d="M10.453 22.613c-0.373 0-0.693 0.16-0.96 0.427-0.533 0.533-0.533 1.387 0 1.973 0.267 0.267 0.587 0.427 0.96 0.427s0.693-0.16 0.96-0.427c0.533-0.533 0.533-1.387 0-1.973-0.267-0.32-0.587-0.427-0.96-0.427zM10.773 24.267c-0.107 0.107-0.213 0.107-0.32 0.107s-0.213-0.053-0.32-0.107c-0.16-0.16-0.16-0.427 0-0.64 0.107-0.107 0.213-0.107 0.32-0.107s0.213 0.053 0.32 0.107c0.16 0.213 0.16 0.48 0 0.64z"></path>
		<path d="M10.453 27.733c-0.373 0-0.693 0.16-0.96 0.427-0.533 0.533-0.533 1.387 0 1.973 0.267 0.267 0.587 0.427 0.96 0.427s0.693-0.16 0.96-0.427c0.533-0.533 0.533-1.387 0-1.973-0.267-0.32-0.587-0.427-0.96-0.427zM10.773 29.387c-0.107 0.107-0.213 0.107-0.32 0.107s-0.213-0.053-0.32-0.107c-0.16-0.16-0.16-0.427 0-0.64 0.107-0.107 0.213-0.107 0.32-0.107s0.213 0.053 0.32 0.107c0.16 0.213 0.16 0.48 0 0.64z"></path>
		<path d="M5.6 27.733c-0.373 0-0.693 0.16-0.96 0.427-0.533 0.533-0.533 1.387 0 1.973 0.267 0.267 0.587 0.427 0.96 0.427s0.693-0.16 0.96-0.427c0.533-0.533 0.533-1.387 0-1.973-0.213-0.32-0.587-0.427-0.96-0.427zM5.92 29.387c-0.107 0.107-0.213 0.107-0.32 0.107s-0.213-0.053-0.32-0.107c-0.16-0.16-0.16-0.427 0-0.64 0.107-0.107 0.213-0.107 0.32-0.107s0.213 0.053 0.32 0.107c0.16 0.213 0.16 0.48 0 0.64z"></path>
		<path d="M9.013 25.493c-0.267-0.267-0.587-0.427-0.96-0.427s-0.693 0.16-0.96 0.427c-0.533 0.533-0.533 1.387 0 1.973 0.267 0.267 0.587 0.427 0.96 0.427s0.693-0.16 0.96-0.427c0.533-0.587 0.533-1.44 0-1.973zM8.32 26.773c-0.107 0.107-0.213 0.107-0.32 0.107s-0.213-0.053-0.32-0.107c-0.16-0.16-0.16-0.427 0-0.64 0.107-0.107 0.213-0.107 0.32-0.107s0.213 0.053 0.32 0.107c0.213 0.16 0.213 0.48 0 0.64z"></path>
		<path d="M5.6 25.333c0.373 0 0.693-0.16 0.96-0.427 0.533-0.533 0.533-1.387 0-1.973-0.267-0.267-0.587-0.427-0.96-0.427s-0.693 0.16-0.96 0.427c-0.533 0.533-0.533 1.387 0 1.973 0.267 0.32 0.587 0.427 0.96 0.427zM5.28 23.68c0.107-0.107 0.213-0.107 0.32-0.107s0.213 0.053 0.32 0.107c0.16 0.16 0.16 0.427 0 0.64-0.107 0.107-0.213 0.107-0.32 0.107s-0.213-0.053-0.32-0.107c-0.16-0.213-0.16-0.48 0-0.64z"></path>
		<path d="M27.093 0h-14.027c-0.907 0-1.653 0.747-1.653 1.707v0.747h-0.747c-0.907 0-1.653 0.747-1.653 1.707v1.707c-0.32-0.053-0.587-0.053-0.907-0.053-2.187 0-4.16 0.907-5.653 2.293 0 0-0.053 0-0.053 0.053 0 0-0.053 0.053-0.053 0.053-1.44 1.387-2.347 3.413-2.347 5.6s0.907 4.213 2.293 5.653c0 0 0 0.053 0.053 0.053 0 0 0.053 0 0.053 0.053 0.533 0.533 1.173 1.013 1.867 1.387h-0.053c-0.96 0-1.707 0.747-1.707 1.707v7.627c0 0.96 0.747 1.707 1.707 1.707h7.573c0.96 0 1.707-0.747 1.707-1.707v-2.027h11.093c0.907 0 1.653-0.747 1.653-1.707v-0.747h0.747c0.907 0 1.653-0.747 1.653-1.707v-22.4c0.107-0.96-0.64-1.707-1.547-1.707zM9.867 4.107v0c0-0.427 0.32-0.747 0.747-0.747h0.747v3.147c-0.48-0.213-0.96-0.373-1.493-0.533v-1.867zM8.48 6.72c1.6 0.107 3.040 0.747 4.213 1.76l-1.12 1.12c-0.853-0.693-1.92-1.173-3.040-1.28v-1.6zM12.213 17.333c0.693-0.853 1.173-1.92 1.28-3.093h1.6c-0.107 1.6-0.747 3.093-1.76 4.213l-1.12-1.12zM12.693 19.147c-1.12 1.013-2.613 1.653-4.213 1.76v-1.6c1.173-0.107 2.24-0.587 3.040-1.28l1.173 1.12zM13.493 13.333v0c-0.107-1.173-0.587-2.24-1.28-3.093l1.12-1.12c1.013 1.12 1.653 2.613 1.76 4.213h-1.6zM12.587 13.813c0 2.507-2.027 4.587-4.533 4.587s-4.533-2.027-4.533-4.587 2.027-4.587 4.533-4.587 4.533 2.080 4.533 4.587zM7.573 6.72v1.6c-1.173 0.107-2.24 0.587-3.093 1.28l-1.12-1.12c1.12-1.013 2.613-1.653 4.213-1.76zM2.72 9.12l1.12 1.12c-0.693 0.853-1.173 1.92-1.28 3.093h-1.6c0.107-1.6 0.747-3.040 1.76-4.213zM0.96 14.293h1.6c0.107 1.173 0.587 2.24 1.28 3.040l-1.12 1.12c-1.013-1.12-1.653-2.56-1.76-4.16zM3.36 19.147l1.12-1.12c0.853 0.693 1.92 1.173 3.040 1.28v1.6c-1.547-0.107-3.040-0.747-4.16-1.76zM12.587 30.293c0 0.427-0.373 0.8-0.8 0.8h-7.573c-0.427 0-0.8-0.373-0.8-0.8v-7.627c0-0.427 0.373-0.8 0.8-0.8h7.573c0.427 0 0.8 0.373 0.8 0.8v7.627zM25.387 26.56c0 0.427-0.32 0.747-0.747 0.747h-11.093v-1.493h11.84v0.747zM27.093 24.853h-13.547v-2.24c0-0.96-0.747-1.707-1.707-1.707h-0.053c0.693-0.373 1.333-0.853 1.867-1.387 0 0 0.053 0 0.053-0.053 0 0 0.053-0.053 0.053-0.053 1.44-1.44 2.293-3.467 2.293-5.653s-0.907-4.213-2.293-5.653c0 0 0-0.053-0.053-0.053 0 0-0.053 0-0.053-0.053-0.427-0.427-0.853-0.747-1.333-1.067v-5.333c0-0.427 0.32-0.747 0.747-0.747h14.027c0.427 0 0.747 0.32 0.747 0.747v22.453c-0.053 0.48-0.373 0.8-0.747 0.8z"></path>
	</symbol>

	<symbol id="check" viewBox="0 0 32 32">
		<path d="M14.467 26.8c-1.467 1.467-3.8 1.467-5.267 0l-8.2-8.2c-1.4-1.533-1.333-3.867 0.2-5.267 1.467-1.333 3.667-1.333 5.133 0l4.867 4.867c0.4 0.333 0.933 0.333 1.333 0l13.2-13.2c1.533-1.4 3.867-1.333 5.267 0.2 1.333 1.467 1.333 3.667 0 5.133l-16.533 16.467z"></path>
	</symbol>

	<symbol id="gplus" viewBox="0 0 32 32">
		<path d="M16 0c-8.833 0-16 7.161-16 16s7.161 16 16 16 16-7.161 16-16-7.161-16-16-16zM17.134 21.056c-1.635 2.105-4.655 2.719-7.11 1.898-2.443-0.802-4.266-3.164-4.435-5.72-0.013-0.169-0.013-0.345-0.013-0.514-0.003-0.048-0.005-0.104-0.005-0.16s0.002-0.112 0.005-0.167l-0 0.008c0.063-3.276 2.957-6.227 6.258-6.265 1.735-0.15 3.427 0.526 4.736 1.623v0c-0.539 0.595-1.084 1.178-1.673 1.729-1.159-0.702-2.55-1.24-3.897-0.764-2.18 0.62-3.502 3.195-2.694 5.325 0.2 0.637 0.541 1.181 0.989 1.615l0.001 0.001c1.153 1.128 2.982 1.572 4.511 0.896 1.096-0.395 1.823-1.41 2.143-2.5-1.259-0.025-2.518-0.013-3.778-0.044v0c-0.006-0.752-0.006-1.497-0.006-2.243 2.099-0.006 4.204-0.013 6.309 0.013v0c0.125 1.829-0.15 3.796-1.341 5.269zM26.33 15.774v1.879c-0.626 0.006-1.259 0.006-1.886 0.013v0.019c-0.006 0.62-0.006 1.234-0.013 1.848v0.013c-0.626-0.006-1.253 0-1.879 0-0.006-0.626-0.006-1.253-0.013-1.873v-0.006c-0.626-0.006-1.259-0.013-1.886-0.013v0-1.879c0.626-0.006 1.253-0.006 1.886-0.013v-0.013c0.006-0.62 0.006-1.247 0.019-1.867h1.873c0.006 0.626 0.013 1.259 0.013 1.886 0.633 0 1.259 0.006 1.886 0.006z"></path>
	</symbol>
	<symbol id="mailru" viewBox="0 0 32 32">
		<path d="M16.063 13.125c-1.553 0-2.813 1.259-2.813 2.813s1.259 2.813 2.813 2.813c1.553 0 2.813-1.259 2.813-2.813v0c-0.003-1.552-1.26-2.81-2.812-2.813h-0z"></path>
		<path d="M15.938 0c-8.787 0-15.938 7.15-15.938 15.938s7.15 16.063 15.938 16.063 16.063-7.275 16.063-16.063-7.275-15.938-16.063-15.938zM22.625 20.625c-1.263-0.001-2.379-0.629-3.055-1.588l-0.008-0.012c-0.864 0.987-2.127 1.606-3.534 1.606-2.591 0-4.691-2.1-4.691-4.691s2.1-4.691 4.691-4.691c1.075 0 2.066 0.362 2.858 0.971l-0.011-0.008v-0.025c0-0.518 0.42-0.938 0.938-0.938s0.938 0.42 0.938 0.938v0 4.688c0 1.036 0.839 1.875 1.875 1.875s1.875-0.839 1.875-1.875v0c0-6.275-4.15-9.375-8.438-9.375-4.65 0-8.438 3.787-8.438 8.438s3.787 8.438 8.438 8.438c0.009 0 0.020 0 0.031 0 1.929 0 3.705-0.654 5.119-1.752l-0.019 0.014c0.988-0.756 2.119 0.738 1.144 1.488-1.704 1.325-3.873 2.125-6.23 2.125-0.014 0-0.027-0-0.041-0h0.002c-5.688 0-10.313-4.625-10.313-10.313s4.619-10.313 10.306-10.313c5.181 0 10.313 3.819 10.313 11.25 0 2.071-1.679 3.75-3.75 3.75v0z"></path>
	</symbol>
	<symbol id="ok" viewBox="0 0 32 32">
		<path d="M16.013 13.263c1.511-0.014 2.73-1.242 2.73-2.755 0-1.522-1.234-2.755-2.755-2.755s-2.755 1.234-2.755 2.755c0 0.011 0 0.022 0 0.033v-0.002c0.007 1.506 1.229 2.724 2.737 2.724 0.015 0 0.031-0 0.046-0l-0.002 0z"></path>
		<path d="M16 0c-8.842 0-16 7.164-16 16s7.164 16 16 16 16-7.164 16-16-7.164-16-16-16zM16.019 4.866c3.119 0.006 5.617 2.555 5.605 5.711-0.019 3.081-2.555 5.573-5.667 5.561-3.081-0.013-5.605-2.561-5.586-5.649 0.010-3.108 2.531-5.623 5.64-5.623 0.003 0 0.006 0 0.009 0h-0zM22.331 18.355c-0.689 0.708-1.522 1.221-2.442 1.578-0.87 0.338-1.822 0.507-2.768 0.62 0.144 0.157 0.213 0.232 0.301 0.319q1.929 1.935 3.845 3.864c0.438 0.438 0.526 0.989 0.288 1.497-0.263 0.557-0.845 0.927-1.422 0.889-0.363-0.025-0.651-0.207-0.902-0.463-0.971-0.971-1.954-1.929-2.899-2.924-0.276-0.288-0.407-0.232-0.651 0.019-0.971 1.002-1.96 1.991-2.956 2.968-0.445 0.438-0.977 0.52-1.497 0.269-0.551-0.269-0.902-0.827-0.877-1.396 0.019-0.382 0.207-0.676 0.47-0.933q1.907-1.897 3.801-3.807c0.081-0.081 0.163-0.175 0.282-0.307-1.728-0.182-3.281-0.607-4.615-1.647-0.163-0.131-0.338-0.257-0.488-0.401-0.582-0.557-0.645-1.202-0.182-1.86 0.395-0.564 1.058-0.714 1.747-0.395 0.148 0.073 0.273 0.148 0.391 0.232l-0.009-0.006c2.486 1.71 5.893 1.753 8.391 0.075 0.229-0.187 0.501-0.331 0.798-0.416l0.016-0.004c0.595-0.15 1.152 0.069 1.472 0.589 0.363 0.595 0.357 1.177-0.094 1.641z"></path>
	</symbol>
	<symbol id="vk" viewBox="0 0 32 32">
		<path d="M16 0c-8.837 0-16 7.163-16 16s7.163 16 16 16 16-7.163 16-16-7.163-16-16-16zM25.17 23.012l-2.804 0.038s-0.602 0.119-1.399-0.427c-1.047-0.721-2.038-2.59-2.81-2.346-0.784 0.251-0.759 1.932-0.759 1.932s0.006 0.358-0.176 0.552c-0.194 0.207-0.571 0.251-0.571 0.251h-1.254s-2.772 0.169-5.212-2.371c-2.659-2.772-5.011-8.267-5.011-8.267s-0.138-0.357 0.013-0.533c0.163-0.194 0.615-0.207 0.615-0.207l3.004-0.019c0.183 0.036 0.345 0.104 0.488 0.198l-0.005-0.003c0.112 0.094 0.201 0.211 0.261 0.345l0.002 0.006c0.375 0.926 0.754 1.695 1.179 2.434l-0.050-0.095c1.254 2.164 1.838 2.641 2.264 2.408 0.621-0.339 0.433-3.061 0.433-3.061s0.013-0.991-0.314-1.43c-0.251-0.339-0.721-0.439-0.935-0.47-0.169-0.025 0.107-0.414 0.47-0.59 0.539-0.263 1.493-0.282 2.622-0.27 0.878 0.006 1.129 0.063 1.474 0.144 1.035 0.251 0.684 1.217 0.684 3.531 0 0.74-0.132 1.781 0.401 2.132 0.232 0.151 0.79 0.025 2.201-2.365 0.665-1.129 1.167-2.465 1.167-2.465s0.107-0.238 0.276-0.339c0.091-0.048 0.198-0.076 0.312-0.076 0.034 0 0.067 0.002 0.1 0.007l-0.004-0 3.161-0.019s0.947-0.113 1.104 0.314c0.163 0.452-0.358 1.499-1.643 3.218-2.12 2.822-2.352 2.559-0.596 4.196 1.681 1.562 2.026 2.321 2.089 2.415 0.69 1.142-0.778 1.229-0.778 1.229z"></path>
	</symbol>
	<symbol id="yandex" viewBox="0 0 32 32">
		<path d="M14.892 12.618c0 2.242 0.977 3.582 2.618 3.582h0.426v-7.364h-0.645c-1.165 0-2.398 0.996-2.398 3.782z"></path>
		<path d="M16 0c-8.836 0-16 7.164-16 16s7.164 16 16 16 16-7.164 16-16-7.164-16-16-16zM21.11 25.193c0 0.488-0.338 0.827-0.827 0.827h-1.547c-0.44-0.007-0.795-0.362-0.802-0.801v-6.163h-0.238l-3.288 6.425c-0.15 0.338-0.463 0.539-0.87 0.539h-1.772c-0.004 0-0.010 0-0.015 0-0.314 0-0.588-0.166-0.741-0.416l-0.002-0.004c-0.073-0.128-0.116-0.28-0.116-0.443 0-0.172 0.048-0.332 0.131-0.469l-0.002 0.004 3.507-6.344c-1.916-1.090-2.962-3.012-2.962-5.479 0-4.759 2.912-6.888 5.793-6.888h2.849c0.532 0 0.902 0.363 0.902 0.877v18.336z"></path>
	</symbol>
	<symbol id="telegram" viewBox="0 0 32 32">
		<path d="M16 0c-8.837 0-16 7.163-16 16s7.163 16 16 16c8.837 0 16-7.163 16-16v0c0-8.837-7.163-16-16-16v0zM21.673 23.793l-4.88-3.687-2.893 2.92 0.547-4.667 8.26-7.873-10.353 6.953-5.687-1.887 18.667-7.333z"></path>
	</symbol>
	<symbol id="twitter" viewBox="0 0 49.7 49.7">
		<path d="M24.8 0C11.1 0 0 11.1 0 24.8c0 13.7 11.1 24.8 24.8 24.8 13.7 0 24.8-11.1 24.8-24.8C49.7 11.1 38.5 0 24.8 0zM35.9 19.1c0 0.2 0 0.5 0 0.7 0 7.6-5.7 16.3-16.3 16.3 -3.2 0-6.2-0.9-8.8-2.6 0.4 0.1 0.9 0.1 1.4 0.1 2.7 0 5.1-0.9 7.1-2.4 -2.5 0-4.6-1.7-5.3-4 0.3 0.1 0.7 0.1 1.1 0.1 0.5 0 1-0.1 1.5-0.2 -2.6-0.5-4.6-2.8-4.6-5.6 0 0 0 0 0-0.1 0.8 0.4 1.7 0.7 2.6 0.7 -1.5-1-2.5-2.8-2.5-4.8 0-1 0.3-2 0.8-2.9 2.8 3.5 7 5.7 11.8 6 -0.1-0.4-0.1-0.9-0.1-1.3 0-3.2 2.6-5.7 5.7-5.7 1.6 0 3.1 0.7 4.2 1.8 1.3-0.3 2.5-0.7 3.6-1.4 -0.4 1.3-1.3 2.5-2.5 3.2 1.2-0.1 2.3-0.4 3.3-0.9C38 17.3 37 18.3 35.9 19.1z"/>
	</symbol>
	<symbol id="copy" viewBox="0 0 32 32">
		<path d="M9.267 2.933h17.467v20.333h2.933v-20.333c0-1.6-1.333-2.933-2.933-2.933h-17.467v2.933zM2 8.733v20.333c0 1.6 1.333 2.933 2.933 2.933h16c1.6 0 2.933-1.333 2.933-2.933v-20.333c0-1.6-1.333-2.933-2.933-2.933h-16c-1.6 0-2.933 1.333-2.933 2.933zM4.933 8.733h16v20.333h-16v-20.333z"></path>
	</symbol>
	<symbol id="fb" viewBox="0 0 32 32">
		<path d="M 16 0 C 7.164062 0 0 7.164062 0 16 C 0 24.835938 7.164062 32 16 32 C 24.835938 32 32 24.835938 32 16 C 32 7.164062 24.835938 0 16 0 Z M 20 10.667969 L 18.199219 10.667969 C 17.484375 10.667969 17.332031 10.960938 17.332031 11.703125 L 17.332031 13.332031 L 20 13.332031 L 19.722656 16 L 17.332031 16 L 17.332031 25.332031 L 13.332031 25.332031 L 13.332031 16 L 10.667969 16 L 10.667969 13.332031 L 13.332031 13.332031 L 13.332031 10.257812 C 13.332031 7.898438 14.574219 6.667969 17.371094 6.667969 L 20 6.667969 Z M 20 10.667969 "/>
	</symbol>
	<symbol id="key" viewBox="0 0 50 50">
		<path d="M24.884,0c-6.65,0-12.041,5.392-12.041,12.042c0,4.766,2.775,8.872,6.791,10.824v2.821h2.167v0.043l-2.188,2.4l2.188,1.641   v0.572l-2.292,2.477l2.292,1.736v0.474l-2.292,1.978l2.292,1.916v0.791l-2.083,2.146l2.083,2.812v1.229l-2.292,1l2.292,2.869h1.188   h0.896V25.688h1.209v24.084h3.625V25.688h1.416v-2.821c4.017-1.952,6.793-6.059,6.793-10.824C36.927,5.392,31.535,0,24.884,0z    M24.884,9.667c-1.795,0-3.25-1.455-3.25-3.25s1.455-3.25,3.25-3.25s3.25,1.455,3.25,3.25S26.679,9.667,24.884,9.667z"/>
	</symbol>
	<symbol id="update" viewBox="0 0 32 32">
		<path d="M 27.316406 4.265625 C 25.519531 2.472656 23.40625 1.195312 21.152344 0.429688 L 21.152344 5.257812 C 22.234375 5.796875 23.265625 6.5 24.167969 7.402344 C 28.671875 11.910156 28.671875 19.242188 24.167969 23.746094 C 19.660156 28.246094 12.335938 28.246094 7.824219 23.746094 C 3.324219 19.234375 3.324219 11.910156 7.824219 7.402344 C 7.835938 7.390625 7.871094 7.367188 7.886719 7.347656 L 7.890625 7.347656 L 10.5625 10.011719 L 10.546875 1.546875 L 2.085938 1.539062 L 4.746094 4.195312 C 4.730469 4.222656 4.703125 4.25 4.683594 4.265625 C -1.5625 10.511719 -1.5625 20.640625 4.683594 26.882812 C 10.941406 33.136719 21.0625 33.136719 27.316406 26.882812 C 33.558594 20.640625 33.5625 10.511719 27.316406 4.265625 Z M 27.316406 4.265625 "/>
	</symbol>
	<symbol id="eye" viewBox="0 0 32 32">
		<path d="M 31.621094 14.757812 C 29.953125 12.03125 27.714844 9.84375 24.902344 8.191406 C 22.085938 6.539062 19.117188 5.710938 15.988281 5.710938 C 12.859375 5.710938 9.886719 6.535156 7.074219 8.191406 C 4.261719 9.84375 2.023438 12.03125 0.355469 14.757812 C 0.117188 15.171875 0 15.585938 0 15.988281 C 0 16.394531 0.117188 16.804688 0.355469 17.21875 C 2.023438 19.945312 4.261719 22.132812 7.074219 23.785156 C 9.886719 25.441406 12.859375 26.265625 15.988281 26.265625 C 19.117188 26.265625 22.089844 25.441406 24.902344 23.796875 C 27.714844 22.148438 29.953125 19.957031 31.621094 17.21875 C 31.859375 16.804688 31.976562 16.394531 31.976562 15.988281 C 31.976562 15.585938 31.859375 15.171875 31.621094 14.757812 Z M 12.160156 9.875 C 13.226562 8.8125 14.5 8.28125 15.988281 8.28125 C 16.226562 8.28125 16.429688 8.363281 16.59375 8.53125 C 16.761719 8.695312 16.84375 8.898438 16.84375 9.136719 C 16.84375 9.375 16.761719 9.578125 16.59375 9.742188 C 16.429688 9.910156 16.226562 9.992188 15.988281 9.992188 C 14.964844 9.992188 14.089844 10.355469 13.367188 11.082031 C 12.640625 11.808594 12.277344 12.679688 12.277344 13.703125 C 12.277344 13.941406 12.195312 14.144531 12.027344 14.3125 C 11.859375 14.476562 11.65625 14.5625 11.421875 14.5625 C 11.183594 14.5625 10.980469 14.476562 10.8125 14.3125 C 10.648438 14.144531 10.5625 13.941406 10.5625 13.703125 C 10.5625 12.21875 11.097656 10.941406 12.160156 9.875 Z M 23.742188 21.816406 C 21.355469 23.261719 18.773438 23.984375 15.988281 23.984375 C 13.203125 23.984375 10.621094 23.261719 8.234375 21.816406 C 5.851562 20.371094 3.867188 18.425781 2.285156 15.988281 C 4.09375 13.179688 6.359375 11.082031 9.082031 9.691406 C 8.355469 10.925781 7.996094 12.265625 7.996094 13.703125 C 7.996094 15.90625 8.777344 17.789062 10.339844 19.351562 C 11.90625 20.917969 13.789062 21.699219 15.988281 21.699219 C 18.1875 21.699219 20.070312 20.917969 21.636719 19.351562 C 23.199219 17.789062 23.984375 15.90625 23.984375 13.703125 C 23.984375 12.265625 23.621094 10.925781 22.894531 9.691406 C 25.617188 11.082031 27.882812 13.179688 29.691406 15.988281 C 28.109375 18.425781 26.125 20.371094 23.742188 21.816406 Z M 23.742188 21.816406 "/>
	</symbol>
	<symbol id="crypt_reg" viewBox="0 0 32 32">
		<path d="M 26.65625 16.789062 C 25.910156 15.828125 24.789062 15.167969 23.289062 14.808594 C 25.199219 13.835938 26.039062 12.179688 25.808594 9.847656 C 25.730469 9 25.496094 8.265625 25.105469 7.644531 C 24.714844 7.023438 24.1875 6.523438 23.519531 6.144531 C 22.851562 5.765625 22.128906 5.476562 21.34375 5.28125 C 20.5625 5.082031 19.664062 4.9375 18.652344 4.847656 L 18.652344 0 L 15.691406 0 L 15.691406 4.710938 C 15.179688 4.710938 14.394531 4.726562 13.34375 4.75 L 13.34375 0 L 10.382812 0 L 10.382812 4.847656 C 9.960938 4.859375 9.335938 4.867188 8.515625 4.867188 L 4.4375 4.847656 L 4.4375 8 L 6.574219 8 C 7.546875 8 8.117188 8.4375 8.285156 9.308594 L 8.285156 14.828125 C 8.414062 14.828125 8.515625 14.835938 8.59375 14.847656 L 8.285156 14.847656 L 8.285156 22.582031 C 8.183594 23.234375 7.8125 23.5625 7.171875 23.5625 L 5.035156 23.5625 L 4.4375 27.082031 L 8.285156 27.082031 C 8.53125 27.082031 8.882812 27.085938 9.34375 27.089844 C 9.804688 27.097656 10.152344 27.101562 10.382812 27.101562 L 10.382812 32.003906 L 13.34375 32.003906 L 13.34375 27.160156 C 13.882812 27.171875 14.664062 27.175781 15.691406 27.175781 L 15.691406 32.003906 L 18.652344 32.003906 L 18.652344 27.101562 C 19.703125 27.050781 20.636719 26.953125 21.453125 26.8125 C 22.265625 26.671875 23.046875 26.449219 23.789062 26.148438 C 24.53125 25.847656 25.152344 25.472656 25.652344 25.023438 C 26.15625 24.574219 26.566406 24.003906 26.894531 23.3125 C 27.222656 22.617188 27.429688 21.816406 27.519531 20.90625 C 27.6875 19.125 27.398438 17.753906 26.65625 16.789062 Z M 13.402344 8.210938 C 13.492188 8.210938 13.746094 8.210938 14.160156 8.203125 C 14.578125 8.195312 14.925781 8.191406 15.199219 8.183594 C 15.476562 8.175781 15.847656 8.191406 16.316406 8.230469 C 16.785156 8.269531 17.179688 8.320312 17.5 8.386719 C 17.820312 8.449219 18.171875 8.554688 18.558594 8.703125 C 18.941406 8.851562 19.25 9.03125 19.480469 9.242188 C 19.710938 9.453125 19.90625 9.722656 20.066406 10.050781 C 20.226562 10.375 20.308594 10.75 20.308594 11.175781 C 20.308594 11.535156 20.25 11.859375 20.132812 12.15625 C 20.019531 12.449219 19.84375 12.695312 19.613281 12.894531 C 19.382812 13.09375 19.148438 13.269531 18.902344 13.414062 C 18.660156 13.5625 18.347656 13.679688 17.96875 13.769531 C 17.59375 13.859375 17.261719 13.929688 16.980469 13.984375 C 16.699219 14.035156 16.34375 14.070312 15.921875 14.089844 C 15.5 14.109375 15.179688 14.121094 14.960938 14.128906 C 14.742188 14.132812 14.445312 14.132812 14.066406 14.128906 C 13.6875 14.121094 13.464844 14.117188 13.402344 14.117188 Z M 21.492188 21.3125 C 21.367188 21.605469 21.210938 21.863281 21.019531 22.082031 C 20.828125 22.296875 20.574219 22.492188 20.257812 22.65625 C 19.945312 22.824219 19.640625 22.957031 19.347656 23.0625 C 19.050781 23.164062 18.695312 23.253906 18.277344 23.332031 C 17.859375 23.40625 17.496094 23.460938 17.179688 23.492188 C 16.867188 23.527344 16.492188 23.550781 16.054688 23.570312 C 15.621094 23.589844 15.28125 23.601562 15.035156 23.601562 C 14.792969 23.601562 14.484375 23.597656 14.113281 23.589844 C 13.742188 23.582031 13.503906 23.582031 13.402344 23.582031 L 13.402344 17.078125 C 13.503906 17.078125 13.808594 17.074219 14.316406 17.058594 C 14.824219 17.046875 15.234375 17.042969 15.554688 17.042969 C 15.875 17.042969 16.320312 17.058594 16.882812 17.097656 C 17.449219 17.136719 17.921875 17.195312 18.308594 17.269531 C 18.691406 17.347656 19.109375 17.46875 19.566406 17.628906 C 20.023438 17.789062 20.390625 17.984375 20.671875 18.214844 C 20.957031 18.445312 21.191406 18.738281 21.382812 19.097656 C 21.578125 19.457031 21.671875 19.867188 21.671875 20.328125 C 21.671875 20.6875 21.613281 21.015625 21.492188 21.3125 Z M 21.492188 21.3125 "/>
	</symbol>
	<symbol id="crypt_promo" viewBox="0 0 32 32">
		<path d="M 26.65625 16.789062 C 25.910156 15.828125 24.789062 15.167969 23.289062 14.808594 C 25.199219 13.835938 26.039062 12.179688 25.808594 9.847656 C 25.730469 9 25.496094 8.265625 25.105469 7.644531 C 24.714844 7.023438 24.1875 6.523438 23.519531 6.144531 C 22.851562 5.765625 22.128906 5.476562 21.34375 5.28125 C 20.5625 5.082031 19.664062 4.9375 18.652344 4.847656 L 18.652344 0 L 15.691406 0 L 15.691406 4.710938 C 15.179688 4.710938 14.394531 4.726562 13.34375 4.75 L 13.34375 0 L 10.382812 0 L 10.382812 4.847656 C 9.960938 4.859375 9.335938 4.867188 8.515625 4.867188 L 4.4375 4.847656 L 4.4375 8 L 6.574219 8 C 7.546875 8 8.117188 8.4375 8.285156 9.308594 L 8.285156 14.828125 C 8.414062 14.828125 8.515625 14.835938 8.59375 14.847656 L 8.285156 14.847656 L 8.285156 22.582031 C 8.183594 23.234375 7.8125 23.5625 7.171875 23.5625 L 5.035156 23.5625 L 4.4375 27.082031 L 8.285156 27.082031 C 8.53125 27.082031 8.882812 27.085938 9.34375 27.089844 C 9.804688 27.097656 10.152344 27.101562 10.382812 27.101562 L 10.382812 32.003906 L 13.34375 32.003906 L 13.34375 27.160156 C 13.882812 27.171875 14.664062 27.175781 15.691406 27.175781 L 15.691406 32.003906 L 18.652344 32.003906 L 18.652344 27.101562 C 19.703125 27.050781 20.636719 26.953125 21.453125 26.8125 C 22.265625 26.671875 23.046875 26.449219 23.789062 26.148438 C 24.53125 25.847656 25.152344 25.472656 25.652344 25.023438 C 26.15625 24.574219 26.566406 24.003906 26.894531 23.3125 C 27.222656 22.617188 27.429688 21.816406 27.519531 20.90625 C 27.6875 19.125 27.398438 17.753906 26.65625 16.789062 Z M 13.402344 8.210938 C 13.492188 8.210938 13.746094 8.210938 14.160156 8.203125 C 14.578125 8.195312 14.925781 8.191406 15.199219 8.183594 C 15.476562 8.175781 15.847656 8.191406 16.316406 8.230469 C 16.785156 8.269531 17.179688 8.320312 17.5 8.386719 C 17.820312 8.449219 18.171875 8.554688 18.558594 8.703125 C 18.941406 8.851562 19.25 9.03125 19.480469 9.242188 C 19.710938 9.453125 19.90625 9.722656 20.066406 10.050781 C 20.226562 10.375 20.308594 10.75 20.308594 11.175781 C 20.308594 11.535156 20.25 11.859375 20.132812 12.15625 C 20.019531 12.449219 19.84375 12.695312 19.613281 12.894531 C 19.382812 13.09375 19.148438 13.269531 18.902344 13.414062 C 18.660156 13.5625 18.347656 13.679688 17.96875 13.769531 C 17.59375 13.859375 17.261719 13.929688 16.980469 13.984375 C 16.699219 14.035156 16.34375 14.070312 15.921875 14.089844 C 15.5 14.109375 15.179688 14.121094 14.960938 14.128906 C 14.742188 14.132812 14.445312 14.132812 14.066406 14.128906 C 13.6875 14.121094 13.464844 14.117188 13.402344 14.117188 Z M 21.492188 21.3125 C 21.367188 21.605469 21.210938 21.863281 21.019531 22.082031 C 20.828125 22.296875 20.574219 22.492188 20.257812 22.65625 C 19.945312 22.824219 19.640625 22.957031 19.347656 23.0625 C 19.050781 23.164062 18.695312 23.253906 18.277344 23.332031 C 17.859375 23.40625 17.496094 23.460938 17.179688 23.492188 C 16.867188 23.527344 16.492188 23.550781 16.054688 23.570312 C 15.621094 23.589844 15.28125 23.601562 15.035156 23.601562 C 14.792969 23.601562 14.484375 23.597656 14.113281 23.589844 C 13.742188 23.582031 13.503906 23.582031 13.402344 23.582031 L 13.402344 17.078125 C 13.503906 17.078125 13.808594 17.074219 14.316406 17.058594 C 14.824219 17.046875 15.234375 17.042969 15.554688 17.042969 C 15.875 17.042969 16.320312 17.058594 16.882812 17.097656 C 17.449219 17.136719 17.921875 17.195312 18.308594 17.269531 C 18.691406 17.347656 19.109375 17.46875 19.566406 17.628906 C 20.023438 17.789062 20.390625 17.984375 20.671875 18.214844 C 20.957031 18.445312 21.191406 18.738281 21.382812 19.097656 C 21.578125 19.457031 21.671875 19.867188 21.671875 20.328125 C 21.671875 20.6875 21.613281 21.015625 21.492188 21.3125 Z M 21.492188 21.3125 "/>
	</symbol>
	<symbol id="partner_reg" viewBox="0 0 32 32">
		<path d="M 29.824219 7.960938 C 28.394531 5.511719 26.453125 3.574219 24.007812 2.144531 C 21.558594 0.714844 18.882812 0 15.984375 0 C 13.082031 0 10.410156 0.714844 7.960938 2.144531 C 5.511719 3.574219 3.574219 5.511719 2.144531 7.960938 C 0.714844 10.410156 0 13.082031 0 15.984375 C 0 18.882812 0.714844 21.554688 2.144531 24.003906 C 3.574219 26.453125 5.511719 28.394531 7.960938 29.824219 C 10.410156 31.25 13.082031 31.964844 15.984375 31.964844 C 18.882812 31.964844 21.558594 31.25 24.007812 29.824219 C 26.453125 28.394531 28.394531 26.453125 29.824219 24.003906 C 31.25 21.554688 31.964844 18.882812 31.964844 15.984375 C 31.964844 13.082031 31.25 10.410156 29.824219 7.960938 Z M 17.984375 24.390625 C 17.84375 24.226562 17.792969 24.085938 17.835938 23.976562 C 17.824219 24.046875 17.773438 24.109375 17.691406 24.164062 C 17.621094 24.078125 17.496094 23.976562 17.316406 23.851562 C 17.136719 23.726562 17.011719 23.621094 16.941406 23.539062 C 16.914062 23.496094 16.875 23.4375 16.828125 23.363281 C 16.777344 23.285156 16.714844 23.183594 16.640625 23.058594 C 16.5625 22.933594 16.507812 22.828125 16.472656 22.738281 C 16.4375 22.648438 16.4375 22.59375 16.464844 22.582031 C 16.199219 22.691406 15.816406 22.617188 15.320312 22.351562 C 15.222656 22.296875 15.074219 22.152344 14.882812 21.914062 C 14.6875 21.679688 14.488281 21.574219 14.277344 21.601562 C 14.207031 21.617188 14.113281 21.640625 13.996094 21.675781 C 13.878906 21.710938 13.777344 21.726562 13.695312 21.726562 C 13.613281 21.726562 13.5 21.699219 13.363281 21.644531 C 13.25 21.601562 13.101562 21.523438 12.914062 21.40625 C 12.726562 21.289062 12.597656 21.214844 12.53125 21.1875 C 12.351562 21.089844 12.257812 21.042969 12.257812 21.042969 L 11.925781 20.875 C 11.84375 20.832031 11.757812 20.769531 11.667969 20.675781 C 11.578125 20.585938 11.515625 20.492188 11.488281 20.394531 C 11.460938 20.3125 11.425781 20.148438 11.386719 19.898438 C 11.34375 19.648438 11.289062 19.464844 11.21875 19.355469 C 11.136719 19.21875 11.019531 19.078125 10.867188 18.941406 C 10.714844 18.800781 10.574219 18.730469 10.449219 18.730469 C 10.558594 18.730469 10.558594 18.636719 10.449219 18.449219 C 10.339844 18.261719 10.242188 18.128906 10.15625 18.042969 C 10.128906 18.015625 10.046875 17.925781 9.90625 17.773438 C 9.769531 17.621094 9.652344 17.488281 9.554688 17.378906 C 9.457031 17.265625 9.375 17.140625 9.304688 16.992188 C 9.234375 16.847656 9.222656 16.726562 9.261719 16.628906 C 9.277344 16.613281 9.261719 16.59375 9.222656 16.566406 C 9.179688 16.539062 9.128906 16.511719 9.066406 16.484375 C 9.003906 16.457031 8.945312 16.429688 8.886719 16.410156 C 8.832031 16.390625 8.792969 16.378906 8.761719 16.378906 C 8.792969 16.433594 8.824219 16.535156 8.855469 16.679688 C 8.890625 16.828125 8.929688 16.933594 8.972656 17.003906 C 9 17.058594 9.117188 17.261719 9.324219 17.605469 C 9.6875 18.191406 9.851562 18.621094 9.824219 18.898438 C 9.742188 18.925781 9.6875 18.910156 9.660156 18.855469 C 9.628906 18.800781 9.609375 18.726562 9.597656 18.628906 C 9.582031 18.53125 9.570312 18.460938 9.554688 18.417969 C 9.511719 18.335938 9.40625 18.246094 9.230469 18.148438 C 9.058594 18.050781 8.949219 17.953125 8.910156 17.855469 C 8.921875 17.855469 8.941406 17.851562 8.960938 17.835938 C 8.980469 17.824219 9 17.816406 9.011719 17.816406 C 9.027344 17.691406 8.953125 17.53125 8.792969 17.335938 C 8.636719 17.144531 8.570312 17.003906 8.597656 16.921875 C 8.484375 16.835938 8.390625 16.675781 8.304688 16.433594 C 8.222656 16.1875 8.152344 16.03125 8.097656 15.964844 C 8.042969 15.878906 7.972656 15.808594 7.890625 15.746094 C 7.804688 15.683594 7.703125 15.613281 7.578125 15.535156 C 7.453125 15.460938 7.367188 15.410156 7.328125 15.378906 C 7.300781 15.367188 7.246094 15.304688 7.160156 15.195312 C 6.703125 14.640625 6.5625 14.339844 6.746094 14.300781 C 6.566406 14.339844 6.414062 14.207031 6.296875 13.894531 C 6.179688 13.582031 6.140625 13.339844 6.183594 13.175781 L 6.140625 13.152344 C 6.15625 13.097656 6.164062 12.9375 6.164062 12.664062 C 6.164062 12.394531 6.179688 12.148438 6.214844 11.925781 C 6.25 11.703125 6.316406 11.59375 6.410156 11.59375 C 6.316406 11.605469 6.242188 11.519531 6.195312 11.332031 C 6.144531 11.144531 6.140625 11.015625 6.183594 10.949219 C 6.195312 10.90625 6.257812 10.933594 6.371094 11.03125 C 6.480469 11.128906 6.542969 11.191406 6.558594 11.21875 C 6.738281 11.121094 6.808594 10.996094 6.765625 10.84375 C 6.738281 10.789062 6.59375 10.640625 6.328125 10.40625 C 5.730469 10.019531 5.425781 9.832031 5.414062 9.84375 C 5.496094 9.691406 5.476562 9.558594 5.351562 9.449219 C 5.210938 9.53125 5.132812 9.554688 5.109375 9.511719 C 5.089844 9.46875 5.074219 9.394531 5.058594 9.28125 C 5.046875 9.171875 5.011719 9.109375 4.957031 9.09375 C 4.886719 9.082031 4.800781 9.027344 4.707031 8.929688 C 5.941406 6.960938 7.570312 5.417969 9.597656 4.308594 C 9.679688 4.296875 9.832031 4.289062 10.054688 4.289062 C 10.164062 4.300781 10.269531 4.335938 10.367188 4.390625 C 10.460938 4.449219 10.5625 4.523438 10.667969 4.621094 C 10.773438 4.71875 10.851562 4.789062 10.90625 4.828125 C 10.933594 4.746094 10.898438 4.621094 10.804688 4.453125 C 10.832031 4.371094 10.984375 4.289062 11.261719 4.203125 C 11.578125 4.164062 11.789062 4.167969 11.886719 4.226562 C 11.800781 4.101562 11.664062 3.925781 11.46875 3.707031 L 11.363281 3.808594 C 11.253906 3.710938 10.960938 3.761719 10.492188 3.953125 C 10.464844 3.96875 10.394531 4.007812 10.28125 4.070312 C 10.171875 4.132812 10.082031 4.175781 10.011719 4.203125 C 9.929688 4.230469 9.84375 4.238281 9.761719 4.226562 C 10.429688 3.863281 11.082031 3.578125 11.71875 3.371094 C 11.761719 3.398438 11.828125 3.457031 11.925781 3.546875 C 12.023438 3.636719 12.101562 3.703125 12.15625 3.746094 C 12.113281 3.71875 12.085938 3.730469 12.070312 3.789062 C 12.015625 3.953125 12.015625 4.09375 12.070312 4.203125 C 12.140625 4.300781 12.234375 4.355469 12.351562 4.371094 C 12.472656 4.382812 12.613281 4.378906 12.78125 4.347656 C 12.945312 4.320312 13.058594 4.308594 13.113281 4.308594 L 13.320312 4.328125 C 13.765625 4.371094 13.9375 4.328125 13.839844 4.203125 C 13.882812 4.257812 13.929688 4.375 13.988281 4.546875 C 14.042969 4.722656 14.105469 4.84375 14.175781 4.910156 C 14.242188 4.855469 14.257812 4.757812 14.214844 4.621094 C 14.175781 4.480469 14.175781 4.382812 14.214844 4.328125 C 14.230469 4.300781 14.269531 4.273438 14.339844 4.246094 C 14.410156 4.21875 14.488281 4.1875 14.578125 4.152344 C 14.671875 4.117188 14.730469 4.09375 14.757812 4.078125 C 14.839844 4.023438 14.785156 3.925781 14.589844 3.789062 C 14.5625 3.773438 14.503906 3.753906 14.414062 3.726562 C 14.324219 3.699219 14.242188 3.667969 14.175781 3.640625 C 14.105469 3.613281 14.03125 3.578125 13.957031 3.527344 C 13.878906 3.480469 13.84375 3.421875 13.851562 3.359375 C 13.859375 3.296875 13.898438 3.21875 13.964844 3.121094 C 14.050781 3.050781 14.183594 3.023438 14.371094 3.039062 C 14.558594 3.050781 14.703125 3.085938 14.796875 3.140625 C 15.171875 3.351562 15.230469 3.539062 14.964844 3.703125 C 15.105469 3.71875 15.269531 3.773438 15.464844 3.871094 C 15.660156 3.96875 15.734375 4.070312 15.695312 4.183594 C 15.804688 3.976562 15.914062 3.871094 16.027344 3.871094 C 16.097656 3.886719 16.164062 3.980469 16.222656 4.152344 C 16.285156 4.324219 16.324219 4.417969 16.339844 4.433594 C 16.449219 4.585938 16.558594 4.621094 16.671875 4.535156 C 16.78125 4.453125 16.898438 4.332031 17.015625 4.171875 C 17.132812 4.011719 17.199219 3.941406 17.210938 3.953125 C 17.074219 3.898438 17.058594 3.84375 17.171875 3.789062 C 17.378906 3.664062 17.566406 3.628906 17.734375 3.683594 C 17.773438 3.710938 17.832031 3.773438 17.898438 3.871094 C 18.023438 4.121094 18.003906 4.238281 17.835938 4.226562 C 17.960938 4.335938 18.011719 4.476562 17.992188 4.640625 C 17.972656 4.808594 17.863281 4.882812 17.671875 4.871094 C 17.601562 4.871094 17.5 4.835938 17.367188 4.765625 C 17.234375 4.695312 17.136719 4.660156 17.066406 4.652344 C 16.996094 4.644531 16.898438 4.683594 16.773438 4.765625 C 16.71875 4.835938 16.648438 4.953125 16.554688 5.121094 C 16.464844 5.285156 16.386719 5.40625 16.316406 5.472656 C 16.109375 5.683594 15.761719 5.757812 15.277344 5.703125 C 15.316406 5.703125 15.3125 5.742188 15.265625 5.828125 C 15.21875 5.910156 15.152344 6.003906 15.066406 6.109375 C 14.984375 6.210938 14.9375 6.269531 14.921875 6.285156 C 14.796875 6.425781 14.714844 6.582031 14.671875 6.765625 C 14.671875 6.792969 14.664062 6.886719 14.652344 7.042969 C 14.636719 7.203125 14.609375 7.324219 14.566406 7.410156 C 14.734375 7.367188 14.867188 7.449219 14.964844 7.660156 C 15.046875 7.851562 15.046875 7.957031 14.964844 7.972656 C 15.421875 7.902344 15.824219 7.929688 16.171875 8.054688 C 16.671875 8.234375 16.957031 8.414062 17.023438 8.59375 C 17.109375 8.46875 17.308594 8.464844 17.628906 8.574219 C 17.753906 8.644531 17.863281 8.851562 17.960938 9.199219 C 18.015625 9.40625 18.109375 9.585938 18.242188 9.738281 C 18.375 9.890625 18.515625 9.933594 18.667969 9.863281 L 18.730469 9.824219 C 18.785156 9.796875 18.832031 9.769531 18.867188 9.75 C 18.902344 9.730469 18.9375 9.703125 18.980469 9.667969 C 19.023438 9.632812 19.046875 9.601562 19.054688 9.574219 C 19.058594 9.546875 19.050781 9.519531 19.023438 9.492188 C 18.925781 9.40625 18.851562 9.292969 18.804688 9.148438 C 18.753906 9 18.765625 8.871094 18.835938 8.761719 C 18.875 8.707031 18.988281 8.625 19.167969 8.511719 C 19.347656 8.402344 19.460938 8.289062 19.5 8.179688 C 19.558594 8 19.488281 7.847656 19.292969 7.730469 C 19.097656 7.613281 19 7.507812 19 7.410156 C 19 7.339844 19.046875 7.257812 19.136719 7.160156 C 19.226562 7.0625 19.265625 6.972656 19.25 6.886719 C 19.25 6.847656 19.226562 6.761719 19.179688 6.628906 C 19.128906 6.496094 19.101562 6.398438 19.09375 6.335938 C 19.089844 6.273438 19.121094 6.203125 19.1875 6.117188 C 19.285156 6.0625 19.515625 6.066406 19.875 6.128906 C 20.234375 6.191406 20.472656 6.257812 20.582031 6.324219 C 20.625 6.355469 20.714844 6.394531 20.855469 6.449219 C 20.992188 6.507812 21.113281 6.566406 21.21875 6.628906 C 21.320312 6.691406 21.378906 6.75 21.394531 6.804688 L 21.289062 6.804688 C 21.386719 6.886719 21.445312 6.984375 21.46875 7.097656 C 21.488281 7.207031 21.4375 7.289062 21.3125 7.347656 C 21.394531 7.332031 21.507812 7.351562 21.644531 7.410156 C 21.867188 7.492188 21.875 7.566406 21.664062 7.636719 C 21.707031 7.625 21.765625 7.609375 21.84375 7.59375 C 21.917969 7.582031 21.976562 7.5625 22.019531 7.535156 C 22.046875 7.519531 22.082031 7.496094 22.121094 7.460938 C 22.164062 7.425781 22.195312 7.40625 22.214844 7.398438 C 22.238281 7.390625 22.269531 7.382812 22.308594 7.378906 C 22.351562 7.371094 22.394531 7.378906 22.433594 7.410156 C 22.449219 7.410156 22.480469 7.375 22.527344 7.304688 C 22.578125 7.234375 22.628906 7.164062 22.683594 7.097656 C 22.738281 7.027344 22.789062 6.992188 22.828125 6.992188 C 22.871094 6.992188 22.910156 7.007812 22.945312 7.042969 C 22.980469 7.078125 23.007812 7.117188 23.027344 7.160156 C 23.046875 7.199219 23.070312 7.246094 23.089844 7.292969 C 23.109375 7.34375 23.128906 7.382812 23.140625 7.410156 C 23.167969 7.476562 23.234375 7.550781 23.339844 7.625 C 23.441406 7.703125 23.507812 7.777344 23.535156 7.84375 C 23.550781 7.886719 23.578125 7.992188 23.621094 8.15625 C 23.660156 8.324219 23.71875 8.4375 23.785156 8.5 C 23.855469 8.5625 23.960938 8.617188 24.097656 8.65625 C 24.125 8.671875 24.1875 8.664062 24.285156 8.636719 C 24.382812 8.609375 24.460938 8.601562 24.523438 8.617188 C 24.585938 8.628906 24.617188 8.683594 24.617188 8.78125 C 24.703125 8.699219 24.742188 8.644531 24.742188 8.617188 C 24.757812 8.796875 24.800781 8.941406 24.878906 9.050781 C 24.953125 9.164062 25.074219 9.210938 25.242188 9.199219 L 25.199219 9.65625 C 25.160156 9.726562 25.054688 9.777344 24.886719 9.8125 C 24.722656 9.847656 24.617188 9.878906 24.578125 9.90625 C 24.535156 9.917969 24.433594 10.003906 24.273438 10.15625 C 24.113281 10.308594 24.050781 10.398438 24.078125 10.425781 C 23.839844 10.164062 23.488281 10.085938 23.015625 10.195312 C 22.488281 10.28125 22.128906 10.363281 21.933594 10.445312 C 21.710938 10.558594 21.558594 10.660156 21.476562 10.757812 C 21.460938 10.773438 21.4375 10.820312 21.402344 10.90625 C 21.367188 10.988281 21.332031 11.0625 21.300781 11.132812 C 21.265625 11.203125 21.234375 11.238281 21.207031 11.238281 C 21.289062 11.222656 21.382812 11.15625 21.488281 11.039062 C 21.589844 10.921875 21.65625 10.855469 21.683594 10.84375 C 22.042969 10.605469 22.34375 10.523438 22.582031 10.59375 C 22.886719 10.675781 22.933594 10.789062 22.726562 10.925781 C 22.699219 10.953125 22.625 10.964844 22.507812 10.957031 C 22.390625 10.953125 22.308594 10.953125 22.269531 10.96875 C 22.394531 10.996094 22.496094 11.035156 22.582031 11.082031 C 22.664062 11.132812 22.683594 11.199219 22.644531 11.28125 C 22.863281 11.40625 22.90625 11.542969 22.769531 11.699219 C 22.585938 11.878906 22.371094 11.953125 22.121094 11.925781 C 22.164062 11.925781 22.164062 11.953125 22.121094 12.007812 L 21.769531 12.238281 C 21.742188 12.253906 21.652344 12.285156 21.496094 12.34375 C 21.34375 12.398438 21.242188 12.460938 21.1875 12.53125 C 21.144531 12.585938 21.125 12.667969 21.125 12.78125 C 21.125 12.890625 21.117188 12.972656 21.101562 13.03125 C 21.089844 13.085938 21.03125 13.097656 20.9375 13.070312 C 20.894531 13.15625 20.765625 13.21875 20.550781 13.269531 C 20.335938 13.316406 20.195312 13.390625 20.125 13.488281 C 20.207031 13.597656 20.199219 13.707031 20.105469 13.820312 C 19.9375 13.960938 19.792969 13.945312 19.667969 13.777344 C 19.597656 13.804688 19.546875 13.875 19.511719 13.988281 C 19.476562 14.097656 19.421875 14.175781 19.355469 14.214844 C 19.453125 14.367188 19.4375 14.480469 19.3125 14.546875 C 19.328125 14.546875 19.359375 14.5625 19.40625 14.589844 C 19.453125 14.617188 19.507812 14.652344 19.5625 14.695312 C 19.617188 14.734375 19.652344 14.757812 19.667969 14.757812 C 19.609375 14.882812 19.535156 14.945312 19.4375 14.945312 C 19.519531 15.164062 19.417969 15.410156 19.125 15.671875 C 19.070312 15.726562 18.984375 15.78125 18.867188 15.839844 C 18.746094 15.894531 18.640625 15.9375 18.542969 15.972656 C 18.445312 16.007812 18.390625 16.03125 18.375 16.046875 C 18.238281 16.171875 18.132812 16.300781 18.0625 16.433594 C 17.996094 16.5625 17.984375 16.691406 18.03125 16.816406 C 18.082031 16.941406 18.210938 17.023438 18.417969 17.066406 L 18.4375 17.234375 L 18.4375 17.609375 L 18.457031 17.773438 C 18.472656 17.871094 18.484375 17.957031 18.492188 18.035156 C 18.496094 18.109375 18.496094 18.207031 18.492188 18.324219 C 18.484375 18.445312 18.453125 18.511719 18.398438 18.523438 C 18.34375 18.539062 18.265625 18.523438 18.167969 18.480469 C 18.058594 18.425781 17.925781 18.121094 17.773438 17.566406 C 17.746094 17.425781 17.660156 17.261719 17.523438 17.066406 C 17.453125 17.136719 17.394531 17.179688 17.34375 17.203125 C 17.296875 17.222656 17.261719 17.226562 17.242188 17.210938 C 17.222656 17.199219 17.183594 17.167969 17.128906 17.117188 C 17.070312 17.070312 17.023438 17.03125 16.980469 17.003906 C 16.914062 16.964844 16.792969 16.929688 16.617188 16.902344 C 16.445312 16.871094 16.335938 16.839844 16.296875 16.796875 C 15.960938 17.046875 15.761719 16.984375 15.691406 16.609375 C 15.664062 16.679688 15.667969 16.773438 15.703125 16.890625 C 15.738281 17.007812 15.753906 17.074219 15.753906 17.089844 C 15.65625 17.269531 15.503906 17.28125 15.296875 17.128906 C 15.210938 17.046875 15.023438 17.035156 14.722656 17.097656 C 14.425781 17.160156 14.226562 17.171875 14.128906 17.128906 C 14.144531 17.128906 14.171875 17.152344 14.214844 17.191406 C 14.253906 17.21875 14.285156 17.242188 14.296875 17.253906 C 14.28125 17.308594 14.261719 17.351562 14.234375 17.378906 C 14.207031 17.40625 14.179688 17.417969 14.152344 17.410156 C 14.125 17.402344 14.09375 17.402344 14.058594 17.410156 C 14.023438 17.417969 13.992188 17.425781 13.964844 17.441406 C 13.910156 17.484375 13.839844 17.554688 13.753906 17.660156 C 13.671875 17.765625 13.609375 17.828125 13.570312 17.855469 C 13.652344 18.078125 13.691406 18.25 13.683594 18.367188 C 13.675781 18.484375 13.65625 18.660156 13.621094 18.886719 C 13.585938 19.117188 13.570312 19.300781 13.570312 19.4375 C 13.570312 19.660156 13.632812 19.917969 13.765625 20.210938 C 13.898438 20.5 14.054688 20.703125 14.234375 20.8125 C 14.332031 20.867188 14.5 20.902344 14.734375 20.917969 C 14.96875 20.929688 15.136719 20.917969 15.234375 20.875 C 15.316406 20.832031 15.378906 20.785156 15.421875 20.730469 C 15.460938 20.675781 15.496094 20.59375 15.523438 20.488281 C 15.550781 20.386719 15.574219 20.3125 15.585938 20.273438 C 15.683594 20.007812 15.863281 19.871094 16.128906 19.855469 C 16.296875 19.839844 16.414062 19.859375 16.492188 19.90625 C 16.570312 19.957031 16.601562 20.023438 16.585938 20.105469 C 16.570312 20.1875 16.542969 20.273438 16.503906 20.363281 C 16.460938 20.457031 16.410156 20.554688 16.347656 20.667969 C 16.285156 20.777344 16.246094 20.863281 16.234375 20.917969 C 16.203125 21.027344 16.179688 21.183594 16.160156 21.386719 C 16.140625 21.585938 16.121094 21.707031 16.109375 21.75 C 16.136719 21.765625 16.238281 21.769531 16.417969 21.769531 C 16.417969 21.742188 16.429688 21.699219 16.449219 21.636719 C 16.472656 21.574219 16.480469 21.535156 16.480469 21.519531 C 16.550781 21.632812 16.664062 21.695312 16.816406 21.707031 C 16.96875 21.722656 17.078125 21.667969 17.148438 21.542969 C 17.175781 21.582031 17.257812 21.6875 17.398438 21.855469 C 17.535156 22.019531 17.613281 22.160156 17.628906 22.269531 C 17.640625 22.328125 17.667969 22.417969 17.710938 22.542969 C 17.753906 22.667969 17.765625 22.753906 17.753906 22.800781 C 17.738281 22.851562 17.667969 22.875 17.542969 22.875 C 17.488281 22.875 17.453125 22.894531 17.441406 22.9375 C 17.425781 22.980469 17.425781 23.03125 17.441406 23.09375 C 17.453125 23.15625 17.472656 23.214844 17.492188 23.269531 C 17.511719 23.324219 17.539062 23.382812 17.574219 23.445312 C 17.609375 23.507812 17.628906 23.546875 17.628906 23.5625 C 17.878906 24.019531 18.21875 24.144531 18.648438 23.933594 C 18.648438 24.335938 18.550781 24.558594 18.355469 24.601562 C 18.246094 24.628906 18.121094 24.558594 17.984375 24.390625 Z M 18.292969 29.09375 C 18.265625 28.957031 18.25 28.84375 18.253906 28.761719 C 18.238281 28.652344 18.289062 28.5 18.398438 28.3125 C 18.507812 28.128906 18.566406 27.984375 18.566406 27.886719 C 18.34375 27.832031 18.257812 27.652344 18.316406 27.347656 C 18.34375 27.136719 18.542969 26.859375 18.917969 26.515625 C 19.183594 26.277344 19.265625 25.945312 19.167969 25.515625 C 19.125 25.335938 19.089844 25.070312 19.0625 24.722656 C 19.035156 24.378906 19.007812 24.132812 18.980469 23.996094 C 18.980469 24.035156 19.046875 24.074219 19.179688 24.109375 C 19.308594 24.144531 19.390625 24.191406 19.417969 24.246094 C 19.445312 24.203125 19.480469 24.125 19.523438 24.015625 C 19.5625 23.90625 19.605469 23.820312 19.644531 23.765625 C 19.675781 23.722656 19.734375 23.671875 19.824219 23.609375 C 19.914062 23.546875 19.972656 23.507812 20 23.496094 C 20.027344 23.480469 20.089844 23.4375 20.1875 23.359375 C 20.285156 23.285156 20.363281 23.226562 20.425781 23.183594 C 20.488281 23.140625 20.570312 23.109375 20.675781 23.089844 C 20.78125 23.070312 20.851562 23.101562 20.894531 23.183594 C 20.964844 23.265625 20.949219 23.394531 20.851562 23.570312 C 20.757812 23.742188 20.757812 23.863281 20.851562 23.933594 C 20.867188 23.890625 20.882812 23.800781 20.894531 23.664062 C 20.910156 23.523438 20.949219 23.417969 21.019531 23.351562 C 21.101562 23.265625 21.183594 23.21875 21.257812 23.203125 C 21.335938 23.191406 21.40625 23.199219 21.464844 23.234375 C 21.53125 23.269531 21.601562 23.320312 21.683594 23.382812 C 21.769531 23.445312 21.84375 23.480469 21.914062 23.496094 C 22.121094 23.566406 22.371094 23.71875 22.664062 23.953125 C 22.648438 23.941406 22.648438 23.921875 22.664062 23.902344 C 22.675781 23.878906 22.703125 23.859375 22.746094 23.839844 C 22.789062 23.820312 22.828125 23.796875 22.859375 23.777344 C 22.894531 23.757812 22.933594 23.738281 22.976562 23.726562 L 23.039062 23.703125 C 23.132812 23.703125 23.203125 23.699219 23.246094 23.683594 C 23.285156 23.667969 23.347656 23.683594 23.421875 23.726562 C 23.5 23.765625 23.550781 23.796875 23.578125 23.820312 C 23.605469 23.839844 23.65625 23.878906 23.722656 23.933594 C 23.792969 23.988281 23.84375 24.03125 23.867188 24.058594 C 23.910156 24.085938 23.988281 24.132812 24.097656 24.203125 C 24.210938 24.273438 24.296875 24.328125 24.359375 24.371094 C 24.421875 24.410156 24.476562 24.472656 24.523438 24.554688 C 24.574219 24.640625 24.589844 24.730469 24.578125 24.828125 C 24.660156 24.839844 24.828125 24.894531 25.078125 24.992188 C 25.117188 25.019531 25.203125 25.046875 25.335938 25.066406 C 25.46875 25.085938 25.554688 25.117188 25.597656 25.160156 C 23.585938 27.285156 21.152344 28.59375 18.292969 29.09375 Z M 18.292969 29.09375 "/>
	</symbol>
	<symbol id="line" viewBox="0 0 1024 1024">
		<path d="M425.88 405.014h1.643c10.68 0 19.337 8.658 19.337 19.337v143.501c0 10.68-8.658 19.337-19.337 19.337h-1.643c-10.68 0-19.337-8.658-19.337-19.337v-143.501c0-10.68 8.658-19.337 19.337-19.337z"/>
		<path d="M602.744 405.014h-1.643c-10.671 0.022-19.316 8.666-19.337 19.335v84.077l-69.897-93.744c-3.396-5.88-9.65-9.776-16.814-9.783h-1.606c-10.671 0.022-19.316 8.666-19.337 19.335v143.465c0.043 10.662 8.675 19.294 19.333 19.337h1.609c10.671-0.022 19.316-8.666 19.337-19.335v-85.682l70.432 96.19c0.459 0.65 0.917 1.299 1.414 1.911v0c1.931 2.519 4.528 4.438 7.529 5.506l0.114 0.035c2.17 0.906 4.69 1.439 7.332 1.452h1.648c0.004 0 0.009 0 0.014 0 3.297 0 6.398-0.835 9.105-2.305l-0.101 0.050c1.863-0.841 3.432-2.030 4.685-3.498l0.015-0.018c3.444-3.486 5.573-8.277 5.58-13.566v-143.426c-0.022-10.684-8.688-19.337-19.376-19.337-0.013 0-0.027 0-0.040 0h0.002z"/>
		<path d="M371.613 546.834h-53.846v-122.291c-0.022-10.679-8.662-19.332-19.333-19.376h-1.609c-10.692 0.022-19.354 8.683-19.376 19.373v143.465c0.043 10.676 8.697 19.316 19.373 19.337h74.791c10.662-0.043 19.294-8.675 19.337-19.333v-1.609c0-0.045 0.001-0.099 0.001-0.153 0-10.695-8.649-19.371-19.334-19.414h-0.004z"/>
		<path d="M741.010 405.32h-74.827c-10.676 0.043-19.316 8.697-19.337 19.373v143.465c0.043 10.662 8.675 19.294 19.333 19.337h74.831c10.662-0.043 19.294-8.675 19.337-19.333v-1.647c-0.043-10.662-8.675-19.294-19.333-19.337h-53.965v-30.573h53.846c10.662-0.043 19.294-8.675 19.337-19.333v-1.609c-0.022-10.679-8.662-19.332-19.333-19.376h-53.85v-30.573h53.846c10.662-0.043 19.294-8.675 19.337-19.333v-1.609c0-0.012 0-0.025 0-0.039 0-10.655-8.583-19.305-19.212-19.413h-0.010z"/>
		<path d="M512.019 0c-282.823 0-512.096 229.273-512.096 512.096s229.273 512.096 512.096 512.096c282.823 0 512.096-229.273 512.096-512.096v0c0-282.823-229.273-512.096-512.096-512.096v0zM827.531 648.565c-2.214 3.209-4.474 6.015-6.921 8.644l0.042-0.046v0.229c-12.39 14.709-25.596 27.879-39.857 39.834l-0.499 0.408c-102.572 94.814-271.334 207.666-293.652 190.278-19.376-15.286 31.872-89.196-27.248-101.502-4.127-0.497-8.255-0.994-12.344-1.567v0c-173.73-24.688-305.729-146.215-305.729-292.429 0-164.023 166.087-296.977 370.925-296.977s370.696 132.954 370.696 296.977c-0.038 57.209-20.102 110.712-55.413 156.151z"/>
	</symbol>

	<symbol id="wallet" viewBox="0 0 72.8 64.6">
		<path d="M11.8 34a.8.8 0 01-.8-.8v-24a.8.8 0 011.7 0v24a.8.8 0 01-.9.8zM65.3 60.2H42.6a.8.8 0 110-1.7h22.7a4.2 4.2 0 003.2-1 3.2 3.2 0 00.8-2.2v-9.6a.8.8 0 111.7 0v9.6a5 5 0 01-1.3 3.3 5.8 5.8 0 01-4.4 1.6z"/>
		<path d="M70.2 26.4a.8.8 0 01-.9-.8v-7.9a4.5 4.5 0 00-3.3-4.2H17.4c-2.4 0-6.4-1-6.4-4.4A4 4 0 0114 5a.8.8 0 11.5 1.6 2.4 2.4 0 00-1.8 2.6c0 2.7 4.7 2.7 4.7 2.7h48.9a6.2 6.2 0 014.7 5.8v7.9a.8.8 0 01-.8.8z"/>
		<path d="M65.6 12a.8.8 0 01-.8-.8c0-1.9-.2-3.2-1.3-4a3.2 3.2 0 00-.7-.4.8.8 0 01.6-1.5 4.8 4.8 0 011.1.6c1.7 1.2 2 3.3 2 5.3a.8.8 0 01-1 .8zM59.3 40.4a4.8 4.8 0 114.7-4.7 4.7 4.7 0 01-4.7 4.7zm0-8.8a4 4 0 104 4 4 4 0 00-4-4zM13.8 14.5a.3.3 0 01-.2 0 6 6 0 01-.6-.3.3.3 0 01.4-.6 5.3 5.3 0 00.5.3.3.3 0 01-.1.7zM67.7 25a.3.3 0 01-.4-.3v-1.4a.3.3 0 01.7 0v1.4a.3.3 0 01-.3.3zm0-2.7a.3.3 0 01-.4-.3v-1.4a.3.3 0 01.7 0V22a.3.3 0 01-.3.3zm0-2.7a.3.3 0 01-.4-.4V18a.3.3 0 01.7 0v1.4a.3.3 0 01-.3.3zm-.2-2.7a.3.3 0 01-.3-.2 1.7 1.7 0 00-.8-.8.3.3 0 11.3-.6 2.4 2.4 0 011 1.1.3.3 0 010 .5.3.3 0 01-.2 0zm-2.3-1.3a5 5 0 00-1.1 0h-.2a.3.3 0 010-.7h.1a5.5 5.5 0 011.3 0 .3.3 0 010 .7zm-2.7 0h-1.4a.3.3 0 110-.7h1.4a.3.3 0 010 .7zm-2.7 0h-1.4a.3.3 0 010-.7h1.4a.3.3 0 110 .7zm-2.7 0h-1.4a.3.3 0 110-.7h1.4a.3.3 0 010 .7zm-2.7 0H53a.3.3 0 110-.7h1.4a.3.3 0 110 .7zm-2.8 0h-1.3a.3.3 0 110-.7h1.3a.3.3 0 110 .7zm-2.7 0h-1.3a.3.3 0 110-.7h1.3a.3.3 0 110 .7zm-2.7 0h-1.4a.3.3 0 010-.7h1.4a.3.3 0 110 .7zm-2.7 0h-1.4a.3.3 0 010-.7h1.4a.3.3 0 010 .7zm-2.7 0h-1.4a.3.3 0 010-.7h1.4a.3.3 0 110 .7zm-2.7 0h-1.4a.3.3 0 010-.7h1.4a.3.3 0 010 .7zm-2.7 0H34a.3.3 0 110-.7h1.4a.3.3 0 010 .7zm-2.7 0h-1.4a.3.3 0 110-.7h1.3a.3.3 0 010 .7zm-2.7 0h-1.4a.3.3 0 110-.7h1.3a.3.3 0 110 .7zm-2.8 0H26a.3.3 0 010-.7h1.3a.3.3 0 110 .7zm-2.7 0h-1.4a.3.3 0 110-.7h1.4a.3.3 0 010 .7zm-2.7 0h-1.4a.3.3 0 010-.7h1.4a.3.3 0 010 .7zm-2.7 0h-1.4a.3.3 0 010-.7H19a.3.3 0 110 .7zm-2.7-.2h-.1a10.8 10.8 0 01-1.4-.4.3.3 0 11.2-.6 9.9 9.9 0 001.3.3.3.3 0 010 .6zM67.7 27a.3.3 0 01-.4-.4v-.7a.3.3 0 11.7 0v.7a.3.3 0 01-.3.3zM67.7 46.3a.3.3 0 01-.4-.3v-.7a.3.3 0 11.7 0v.7a.3.3 0 01-.3.3zM63.8 57.2a.3.3 0 110-.7h1.4a.3.3 0 110 .7zm-1.4 0H61a.3.3 0 010-.7h1.4a.3.3 0 110 .7zm-2.8 0h-1.3a.3.3 0 110-.7h1.4a.3.3 0 110 .7zm-2.7 0h-1.4a.3.3 0 110-.7H57a.3.3 0 110 .7zm-2.8 0h-1.4a.3.3 0 010-.7h1.4a.3.3 0 110 .7zm-2.7 0H50a.3.3 0 110-.7h1.4a.3.3 0 010 .7zm-2.8 0h-1.4a.3.3 0 010-.7h1.4a.3.3 0 110 .7zm-2.7 0h-1.4a.3.3 0 110-.7h1.3a.3.3 0 010 .7zm20.6-.3a.3.3 0 01-.1-.6 1.6 1.6 0 00.8-.8.3.3 0 11.6.3 2.3 2.3 0 01-1.1 1 .3.3 0 01-.2.1zm1.2-2.3a.3.3 0 01-.3-.3 3.2 3.2 0 000-.6V53a.3.3 0 01.6 0v.7a3.2 3.2 0 010 .6.3.3 0 01-.2.4zm0-2.8a.3.3 0 01-.3-.3v-1.4a.3.3 0 01.6 0v1.4a.3.3 0 01-.3.3zm0-2.7a.3.3 0 01-.3-.4v-1.4a.3.3 0 11.6 0v1.4a.3.3 0 01-.3.4zM43 57.2h-.7a.3.3 0 010-.7h.7a.3.3 0 110 .7z"/>
		<path d="M70.3 44.3H59A8.6 8.6 0 0159 27h13.8v14.5a2.6 2.6 0 01-.8 2 2.6 2.6 0 01-1.7.7zM59 28.8a7 7 0 000 13.8h11.2a1.1 1.1 0 00.7-.2 1 1 0 00.3-.8V28.8zM33 34.8a5 5 0 01.7-.5 2.7 2.7 0 01-1.7-2 3 3 0 01.6-2.5v-.2a3.8 3.8 0 00-1.3-.8 5.1 5.1 0 00-1.8-.4 5.5 5.5 0 00-3.2.6 3 3 0 00-1.6 3 2.6 2.6 0 001 1.8 3.4 3.4 0 001 .5l-.2.1a3.1 3.1 0 00-2 2 2.8 2.8 0 010 .6v.3a.5.5 0 010 .3V37.9a3.4 3.4 0 001.3 2.4 4.5 4.5 0 002.1.9 6.7 6.7 0 003-.2 4.2 4.2 0 001.7-.9V40a3.5 3.5 0 01-1-2.3 3.1 3.1 0 011.4-2.8M27.3 31a1.8 1.8 0 011.4-.8 2.8 2.8 0 01.3 0 2 2 0 011.1.2 1.5 1.5 0 01.9 1.2 1.8 1.8 0 01-.5 1.6 1.6 1.6 0 01-.8.4 2.6 2.6 0 01-1.8-.2 1.5 1.5 0 01-.7-1.3 1.9 1.9 0 01.2-1m4 6.4a1.8 1.8 0 01-1 1.5 2.5 2.5 0 01-1.1.3 2.7 2.7 0 01-1.6-.3 1.8 1.8 0 01-1-1.5 1.8 1.8 0 01.5-1.5 2 2 0 011-.5 3.1 3.1 0 012.3.3 1.8 1.8 0 01.8 1.7M47.6 35.5a3.4 3.4 0 00-1.5-1.1l-.2-.1h.2a2.7 2.7 0 001.4-1.3 3.2 3.2 0 000-2.8 3.2 3.2 0 00-1.3-1.3 4.5 4.5 0 00-1.8-.6 6.4 6.4 0 00-2.8.2 3.9 3.9 0 00-1.6 1s-.1.1 0 .2a3 3 0 01.6 1.4 3.4 3.4 0 010 1.2 2.5 2.5 0 01-.9 1.4 3.1 3.1 0 01-.8.5v.1c0 .1 0 0 0 0l.4.2a3 3 0 011.5 1.9 3.9 3.9 0 010 2.3A3.3 3.3 0 0140 40v.2a4.2 4.2 0 001.4.8 6.5 6.5 0 002.4.3 5.3 5.3 0 002.8-.8 3.4 3.4 0 001.2-1.4 3.7 3.7 0 00.3-1.5 3.1 3.1 0 00-.5-2M42 30.8a1.8 1.8 0 011.2-.5 2.8 2.8 0 011 .1 1.6 1.6 0 011.1 1.5v.2a1.6 1.6 0 01-.7 1.4 1.7 1.7 0 01-.6.3 2.8 2.8 0 01-1.5-.1 1.5 1.5 0 01-1-1.3 1.7 1.7 0 01.4-1.6m3.8 6.7a1.8 1.8 0 01-.7 1.4 2.1 2.1 0 01-1.1.5 3 3 0 01-1.7-.2 1.7 1.7 0 01-1-1.4 1.8 1.8 0 011.3-2.2 2.6 2.6 0 01.9-.1 2.5 2.5 0 011.4.3 1.8 1.8 0 01.8 1.7M34.8 37.3l1.5-2 1.5 2-1.5 2.1-1.5-2M34.6 30.9v-.1a.4.4 0 000-.1.8.8 0 01.6-.7.9.9 0 011 .5l.1.3a4 4 0 01.3-.5.8.8 0 01.9-.3.8.8 0 01.6.7 1.3 1.3 0 01-.2.8l-.7 1a5 5 0 00-.8 1.3v.1a3.3 3.3 0 00-.6-1l-.4-.7a3.1 3.1 0 01-.8-1.3M22 51.1c-6.2 0-11.3.6-11.3 1.4v1.6a1 1 0 00.2.7.3.3 0 00-.2.3v1.1a1 1 0 00.2.7.3.3 0 00-.2.3v1.2a1 1 0 00.2.7.3.3 0 00-.2.3v1.1a1 1 0 00.2.7.3.3 0 00-.2.3v1.2a1 1 0 00.7 1 76 76 0 0010.7 1 76 76 0 0010.6-1 1 1 0 00.7-1v-1.2a.3.3 0 00-.2-.3 1 1 0 00.2-.7v-1.1a.3.3 0 00-.2-.3 1 1 0 00.2-.7v-1.2a.3.3 0 00-.2-.3 1 1 0 00.2-.7V55a.3.3 0 00-.2-.3 1 1 0 00.2-.6v-1.5a.2.2 0 000-.1c0-.8-5-1.4-11.3-1.4zM11.5 53c1.5.6 5.7 1 10.6 1s9.2-.4 10.7-1v1.2l-.1.3a75.4 75.4 0 01-10.6 1 75.5 75.5 0 01-10.5-1l-.1-.3zM22 52a56 56 0 019.8.6 56 56 0 01-9.8.7 56 56 0 01-9.8-.7 56 56 0 019.9-.7zm10.8 9.6v1.2l-.2.3a75.3 75.3 0 01-10.5 1 75.3 75.3 0 01-10.6-1l-.1-.3v-1.2a76.5 76.5 0 0010.7 1 76.5 76.5 0 0010.6-1h.1zm0-2.1v1.1c0 .2-.1.3-.2.3a75.8 75.8 0 01-10.5 1 75.8 75.8 0 01-10.6-1l-.1-.3v-1.1a76 76 0 0010.7 1 76 76 0 0010.6-1h.1zm0-2.2v1.2l-.2.3a75.3 75.3 0 01-10.5 1 75.3 75.3 0 01-10.6-1l-.1-.3v-1.2a76.5 76.5 0 0010.7 1 76.5 76.5 0 0010.6-1h.1zm0-2.1v1.1c0 .2-.1.3-.2.3a75.6 75.6 0 01-10.5 1 75.8 75.8 0 01-10.6-1l-.1-.3V55a76.2 76.2 0 0010.7 1 76.2 76.2 0 0010.6-1z"/>
		<path d="M.7 51.6a81.8 81.8 0 009.3 1 .3.3 0 000-.7 81.1 81.1 0 01-9.2-1l-.1-.2v-1.2a75.9 75.9 0 0010.7 1 56.8 56.8 0 006-.4.3.3 0 100-.7 56.3 56.3 0 01-6 .4 75 75 0 01-10.6-1l-.1-.2v-1.3a76.1 76.1 0 0010.7 1 56.8 56.8 0 006-.3.3.3 0 100-.7 56.3 56.3 0 01-6 .4 75.3 75.3 0 01-10.6-1l-.1-.3v-1.2a75.9 75.9 0 0010.7 1 56.8 56.8 0 006-.4.3.3 0 100-.7 56.3 56.3 0 01-6 .4 75.2 75.2 0 01-10.6-1l-.1-.3V43a76 76 0 0010.7 1 59.6 59.6 0 006.6-.4.3.3 0 000-.7 58.8 58.8 0 01-6.7.4 75.1 75.1 0 01-10.5-1l-.1-.2v-1.2a76.3 76.3 0 0010.6 1 76.3 76.3 0 0010.7-1V42a.3.3 0 00.2.4.3.3 0 00.4-.3 1 1 0 000-.1v-1.2a.3.3 0 00-.2-.3 1 1 0 00.2-.6v-1.1a.3.3 0 00-.2-.3 1 1 0 00.2-.7v-1.5a.3.3 0 00.1-.2c0-.7-5-1.3-11.3-1.3S0 35.4 0 36a.3.3 0 00.1.2H0v1.5a1 1 0 00.2.7.3.3 0 00-.2.3V40a1 1 0 00.2.6.3.3 0 00-.2.3v1.2a1 1 0 00.2.7.3.3 0 00-.2.2v1.2a1 1 0 00.2.6.3.3 0 00-.2.3v1.2a1 1 0 00.2.7.3.3 0 00-.2.3v1.2a1 1 0 00.2.7.3.3 0 00-.2.3v1.1a1 1 0 00.2.7.3.3 0 00-.2.2v1.2a1 1 0 00.2.7.3.3 0 00-.2.3V55a1 1 0 00.2.7.3.3 0 00-.2.3V57a1 1 0 00.2.7.3.3 0 00-.2.3v1.2a1 1 0 00.2.7.3.3 0 00-.2.3v1.1a1 1 0 00.7 1 83.3 83.3 0 009.3 1 .3.3 0 000-.7 82.4 82.4 0 01-9.2-1l-.1-.3v-1.1a82.8 82.8 0 009.3 1 .3.3 0 000-.7 82 82 0 01-9.2-1l-.1-.3V58a82.9 82.9 0 009.3 1 .3.3 0 000-.7 82 82 0 01-9.2-1s-.2 0-.2-.2v-1.2h.1a81.8 81.8 0 009.3 1 .3.3 0 000-.7 81.1 81.1 0 01-9.2-1s-.2-.1-.2-.3v-1.2h.1a82.8 82.8 0 009.3 1 .3.3 0 000-.7 82 82 0 01-9.2-1l-.1-.3v-1.1zm10.7-16.2a56 56 0 019.8.7 56 56 0 01-9.8.7 56 56 0 01-9.8-.7 56 56 0 019.8-.7zm0 2c4.9 0 9-.3 10.6-.9v1.3l-.1.3a75.5 75.5 0 01-10.5 1 75.5 75.5 0 01-10.6-1l-.1-.3v-1.2c1.5.5 5.7.9 10.7.9zM.7 38.8a76.3 76.3 0 0010.7 1 76.3 76.3 0 0010.6-1v1.5a75.5 75.5 0 01-10.6 1 75.5 75.5 0 01-10.5-1c-.1 0-.2-.1-.2-.3v-1.2z" class="cls-1"/>
		<path d="M41.1 44.1c0-.7-5-1.3-11.4-1.3s-11.3.6-11.3 1.3a.2.2 0 000 .2.3.3 0 000 .2v1.2a1 1 0 00.2.7.3.3 0 00-.2.3v1.1a1 1 0 00.2.7.3.3 0 00-.2.3V50a1 1 0 00.6.9.3.3 0 00.2-.7.3.3 0 01-.2-.2v-1.2a76.5 76.5 0 0010.7 1 76.4 76.4 0 0010.7-1V50l-.1.3-6.4.8a.3.3 0 000 .6c2.9-.2 5.5-.6 6.4-.8v1.2l-.1.3-6 .8a.3.3 0 000 .6l6-.7h.1v1.2l-.1.2a93 93 0 01-6.1.8.3.3 0 000 .7l6-.8h.2v1.2l-.2.3-6 .7a.3.3 0 000 .7c2.5-.2 4.9-.6 6-.8h.1v1.2l-.1.3a86 86 0 01-6 .8.3.3 0 000 .6l6-.7V60.9l-6.1.8a.3.3 0 000 .6c2.7-.2 5.2-.6 6-.7a1 1 0 00.8-1v-1.1a.3.3 0 00-.2-.3 1 1 0 00.2-.7v-1.2a.3.3 0 00-.2-.3 1 1 0 00.2-.6v-1.2a.3.3 0 00-.2-.3 1 1 0 00.2-.7V53a.3.3 0 00-.2-.3 1 1 0 00.2-.7V51a.3.3 0 00-.2-.3 1 1 0 00.2-.6v-1.2a.3.3 0 00-.2-.3 1 1 0 00.2-.6v-1.2a.3.3 0 00-.2-.3 1 1 0 00.2-.7v-1.2a.3.3 0 000-.2.2.2 0 00.3-.2zm-11.4-.6a56 56 0 019.8.6 56 56 0 01-9.8.7 56 56 0 01-9.8-.7 56 56 0 019.8-.6zm10.7 3.2v1.2l-.1.2a75.6 75.6 0 01-10.6 1 75.8 75.8 0 01-10.5-1l-.1-.2v-1.2a76.5 76.5 0 0010.7 1 76.4 76.4 0 0010.6-1zm0-1l-.1.2a75.6 75.6 0 01-10.6 1 75.8 75.8 0 01-10.5-.9l-.1-.3v-1.1c1.5.5 5.7.9 10.6.9s9.2-.4 10.7-1zM62.1 11a.3.3 0 01-.3-.3l-1-8a2.1 2.1 0 00-.8-1.6 4.2 4.2 0 00-2.9-.3c-.4 0-32.8 3.9-37 4.2-2.6.2-4 1.3-4.4 1.9a1.4 1.4 0 00-.3.8v2a.3.3 0 01-.7 0v-2a2 2 0 01.5-1.3c.6-.7 2-1.8 5-2L57 0a4.7 4.7 0 013.4.5 2.8 2.8 0 011.1 2l1 8a.3.3 0 01-.3.5z"/>
		<path d="M16.4 11.4a.3.3 0 01-.4-.4V8.7l44.1-4 .4 6a.3.3 0 01-.3.3.3.3 0 01-.4-.3l-.3-5.3-42.8 4V11a.3.3 0 01-.3.4z"/>
		<path d="M18 11a.3.3 0 010-.7l40.5-2v2.4a.3.3 0 11-.7 0V9L18 11z"/>
	</symbol>

	<symbol id="sport" viewBox="0 0 73.7 62.9">
		<path d="M13.1 31.6h-2.9v3.3H7v2.6h3.2v3.3h2.9v-3.3h3.2v-2.6h-3.2v-3.3zM23.3 40.7a4 4 0 010-1.1V29.3H18V32a.8.8 0 01.5.4 4.1 4.1 0 01.1 1.1v6.2a4.1 4.1 0 010 1.1.8.8 0 01-.6.4v2.6h5.7v-2.6a1 1 0 01-.5-.4zM35.6 30.1a6.6 6.6 0 00-4.2-1.1 6.2 6.2 0 00-4 1 4.1 4.1 0 00-1.2 3.3v6a4.3 4.3 0 001.3 3.5 6.3 6.3 0 004 1.2 6.2 6.2 0 004.1-1 4.4 4.4 0 001.3-3.6V34a8 8 0 00-.3-2.4 3.1 3.1 0 00-1-1.5zm-3.2 9.3a2.8 2.8 0 01-.1 1 .8.8 0 01-1.5 0 2.7 2.7 0 01-.1-1v-6q0-1.3.8-1.3a.8.8 0 01.7.3 2.1 2.1 0 01.2 1.2zM47.6 30.1a6.6 6.6 0 00-4.3-1.1 6.2 6.2 0 00-4 1 4.1 4.1 0 00-1.2 3.3v6a4.3 4.3 0 001.3 3.5 6.3 6.3 0 004 1.2 6.2 6.2 0 004.2-1 4.4 4.4 0 001.2-3.6V34a8 8 0 00-.3-2.4 3.1 3.1 0 00-1-1.5zm-3.3 9.3a2.8 2.8 0 010 1 .8.8 0 01-1.6 0 2.7 2.7 0 010-1v-6q0-1.3.7-1.3a.8.8 0 01.7.3 2.1 2.1 0 01.2 1.2zM58.4 29.3l-5.1 14.4H56l5.2-14.4h-2.8zM55.3 34.1v-2.6a2.5 2.5 0 00-.7-1.9 3.5 3.5 0 00-2.2-.6q-2.8 0-2.8 2.2v3q0 2.3 2.9 2.3t2.8-2.4zm-2.6 0q0 .6-.3.6t-.2-.6v-2.8q0-.5.2-.5t.3.6zM62 36.5q-2.8 0-2.8 2.3v2.9q0 2.3 2.8 2.3t2.8-2.3V39a2.5 2.5 0 00-.6-2 3.5 3.5 0 00-2.3-.5zm.3 5.2q0 .5-.3.5t-.3-.5v-3q0-.4.3-.4t.3.6z"/>
		<path d="M70.2 9.6H58.6C57.8 8 55.3 5.5 55.2 3s-2.6-4.3-4.7-1.8c-1 1.2-6.4 5-11 6.8a3.6 3.6 0 00-7.1 0A36.3 36.3 0 0121 1C19-1.2 16.5.7 16.4 3S13.8 8.1 13 9.6H3.4A3.4 3.4 0 000 13v46.5a3.4 3.4 0 003.4 3.4h66.8a3.4 3.4 0 003.5-3.4V13a3.4 3.4 0 00-3.5-3.4zm.2 49.9a.2.2 0 01-.2.2h-29V46H30.8v13.6H3.4a.2.2 0 01-.2-.2V13a.2.2 0 01.2-.2h27.3v14h10.6v-14h29a.2.2 0 01.1.2z"/>
	</symbol>

	<symbol id="casino" viewBox="0 0 79.3 76.8">
		<path d="M0 16.3V14h1.4a5.9 5.9 0 010-1.2H0v-2.5h1.8a8.8 8.8 0 013.3-4.5 9 9 0 015.5-1.8 15 15 0 013 .4l-1 4a6.5 6.5 0 00-2-.3 4 4 0 00-4 2.2H12l-.5 2.5H6a3.8 3.8 0 000 1.2h5.2l-.5 2.4H7A4.2 4.2 0 008.4 18a4.5 4.5 0 002.2.5 8.7 8.7 0 002.4-.3l.7 4a9.7 9.7 0 01-3.2.5A9 9 0 015 20.9a8.8 8.8 0 01-3.2-4.6zM23.7.5v16a4.9 4.9 0 00.1 1.5 1.4 1.4 0 001 .8v3.5h-7.3v-3.5a1.4 1.4 0 001-.9 4.5 4.5 0 00.2-1.3V6.2a4.5 4.5 0 00-.1-1.4 1.3 1.3 0 00-1-.8V.5zM43.2.5v5.9h-4.8q0-1.8-2-1.8h-2.6v4a10.8 10.8 0 013.6-.7 6 6 0 015.5 2.8 8 8 0 011 4.2 15.3 15.3 0 01-.4 3.9 4.8 4.8 0 01-2.5 3 10 10 0 01-4.9 1 16.1 16.1 0 01-7.3-2V15h5v.3a3.8 3.8 0 00.3 1.7 2.4 2.4 0 004.1 0 5 5 0 00.3-2 5.1 5.1 0 00-.4-2.5 2 2 0 00-1.8-1 2.8 2.8 0 00-2 1h-5.5V.6zM60.6 6v11a5.2 5.2 0 01-1.9 4.3 8.8 8.8 0 01-5.4 1.5 9.2 9.2 0 01-5.8-1.7 4.6 4.6 0 01-1.6-3.9V6a5.3 5.3 0 012-4.6A9 9 0 0153.2 0a8.8 8.8 0 015.6 1.6Q60.6 3 60.6 6zm-9.7 1.4v8.1a3 3 0 00.6 2.2 2.4 2.4 0 001.7.7 2.2 2.2 0 001.8-.9 3.3 3.3 0 00.6-2.1V7.2a2.9 2.9 0 00-.6-2 2.3 2.3 0 00-1.8-.8 2.2 2.2 0 00-1.6.7 3.2 3.2 0 00-.7 2.3zM77.6 6v11a5.2 5.2 0 01-1.9 4.3 8.8 8.8 0 01-5.4 1.5 9.2 9.2 0 01-5.8-1.7 4.6 4.6 0 01-1.6-3.9V6a5.3 5.3 0 012-4.6A9 9 0 0170.1 0 8.8 8.8 0 0176 1.6Q77.6 3 77.6 6zm-9.7 1.4v8.1a3 3 0 00.6 2.2 2.4 2.4 0 001.7.7 2.2 2.2 0 001.8-.9 3.3 3.3 0 00.6-2.1V7.2a2.9 2.9 0 00-.6-2 2.3 2.3 0 00-1.8-.8 2.2 2.2 0 00-1.7.7 3.2 3.2 0 00-.6 2.3zM12.3 25.4v16.1a4.9 4.9 0 000 1.4 1.4 1.4 0 001 .8v3.6H6.2v-3.6a1.4 1.4 0 001-.8 4.5 4.5 0 00.1-1.4V31.2a4.5 4.5 0 00-.1-1.4 1.3 1.3 0 00-1-.8v-3.6zM31.7 25.4v6H27q-.1-1.8-2.1-1.8h-2.5v4a10.8 10.8 0 013.5-.7 6 6 0 015.6 2.7 8 8 0 01.9 4.2 15.3 15.3 0 01-.4 4 4.8 4.8 0 01-2.5 2.9 10 10 0 01-4.8 1 16.1 16.1 0 01-7.3-2V40h5v.3a3.8 3.8 0 00.2 1.7 2.2 2.2 0 002 1.2 2.2 2.2 0 002.1-1.1 5 5 0 00.4-2.2 5.1 5.1 0 00-.4-2.5 2 2 0 00-1.9-.9 2.8 2.8 0 00-2 1h-5.4V25.4zM49.1 31v10.9a5.2 5.2 0 01-1.8 4.4 8.8 8.8 0 01-5.5 1.4 9.2 9.2 0 01-5.8-1.6 4.6 4.6 0 01-1.6-4V31a5.3 5.3 0 012-4.6 9 9 0 015.4-1.4 8.8 8.8 0 015.7 1.6Q49 27.9 49 31zm-9.7 1.3v8.2a3 3 0 00.6 2.1 2.4 2.4 0 001.7.7 2.2 2.2 0 001.8-.8 3.3 3.3 0 00.6-2.2v-8.2a2.9 2.9 0 00-.6-2 2.3 2.3 0 00-1.8-.8 2.2 2.2 0 00-1.6.8 3.2 3.2 0 00-.7 2.2zM52.8 47.3V29.2H64V33h-6.6v3.8h5.5v3.8h-5.5v6.7zM65.2 45l2.3-3.4a8.5 8.5 0 002 1.3 5.4 5.4 0 002.3.6 2.3 2.3 0 001.4-.3 1 1 0 00.5-1 1.4 1.4 0 00-.6-1 5 5 0 00-1.5-.8 19.7 19.7 0 01-2-.9 18.6 18.6 0 01-1.8-1.1 4.7 4.7 0 01-1.5-1.6 4.6 4.6 0 01-.6-2.4 5 5 0 011.8-4 7.1 7.1 0 014.7-1.5 8.2 8.2 0 015.7 2L76 34.5a6.9 6.9 0 00-1.8-1.1A5.5 5.5 0 0072 33a2.4 2.4 0 00-1.5.3 1.1 1.1 0 00-.4 1 1.4 1.4 0 00.5 1 5 5 0 001.5.9l2 .8a17.5 17.5 0 011.9 1 4.7 4.7 0 012 4 5.3 5.3 0 01-1.7 4 6.6 6.6 0 01-4.7 1.6 10 10 0 01-3.5-.6 8.4 8.4 0 01-3-2zM28 54.4l1-5.5a1.7 1.7 0 012-.8c1.6.5 5.7.6 7.5 3.3s2.4 3.4 2.7 3.6c.8 0 1.2-.3 1.7-.3s1.3.6 1.6.5a19.5 19.5 0 004.8-3.5 9.8 9.8 0 016.5-2.4c3 0 1.9 5.1 1.9 5.1h21.6v5.4H57s-2.5 4.6-2.5 5.4-1.2 1.3-2 .9-4.3-3.3-4.3-3.3a22.7 22.7 0 013.2 12.5 6.5 6.5 0 01-2.1-2 37.3 37.3 0 01-2.9 3.5 31.3 31.3 0 00-.2-9.2c-.8-3.7-2.7-6-2.8-8.2a.4.4 0 00-.8.2 19 19 0 00-2 7.6c-.2 3.9-.4 8.4-1 9.4a20.3 20.3 0 00-2.2-2.8s-2.7.7-3.3 1.6c-.1-3.1 1.5-7.6 5-14.5-2.6 1.8-3 3.9-3.8 4.6s-2 1.5-2.6.5-2-4.6-3.1-5.8H6v-5.9z"/>
	</symbol>

	<symbol id="percent" viewBox="0 0 256.3 218.9">
		<path d="M45.5 110h-10v11.5H24.4v9h11.1v11.6h10v-11.6h11v-9h-11V110zM81.2 141.6a13.8 13.8 0 01-.3-3.9V102H63v8.8a2.9 2.9 0 011.7 1.6 14.3 14.3 0 01.4 4v21.3a14.3 14.3 0 01-.4 4 2.9 2.9 0 01-1.6 1.5v8.8h19.7v-8.8a3.2 3.2 0 01-1.7-1.6zM124 104.8q-4.5-3.8-14.8-3.8-9.6 0-13.9 3.6T91 116.3V137q0 8.4 4.5 12.1t14.3 3.8q9.7 0 14.1-3.8t4.4-12.1v-19a28 28 0 00-1-8.4 10.8 10.8 0 00-3.3-5zM112.7 137a9.7 9.7 0 01-.4 3.4 2.9 2.9 0 01-5.1.1 9.4 9.4 0 01-.5-3.5v-20.8q0-4.5 3-4.5a2.6 2.6 0 012.2 1q.7 1 .7 4zM165.6 104.8q-4.6-3.8-14.8-3.8-9.6 0-13.9 3.6t-4.3 11.6v20.9q0 8.3 4.5 12.1t14.2 3.8q9.8 0 14.2-3.8t4.4-12.1v-19a28 28 0 00-1-8.4 10.8 10.8 0 00-3.3-5zM154.2 137a9.7 9.7 0 01-.4 3.4 2.9 2.9 0 01-5 .1 9.4 9.4 0 01-.5-3.5v-20.8q0-4.5 2.9-4.5a2.6 2.6 0 012.3 1q.7 1 .7 4zM203.2 102l-17.9 50.1h9.6l17.9-50.1h-9.6zM192.3 118.8v-9q0-4.9-2.3-6.8t-7.8-2q-9.5 0-9.5 7.8v10q0 8.2 9.8 8.2t9.8-8.2zm-8.9 0q0 2-1 2t-1-2v-10q0-1.6 1-1.6t1 1.8zM215.5 127q-9.7 0-9.7 7.9v10q0 8.1 10 8.1 9.7 0 9.7-8v-9.2q0-4.8-2.2-6.8t-7.8-2zm1.2 18q0 1.8-1 1.8t-1-1.9v-10q0-1.7 1-1.7t1 2z"/>
		<path d="M244.4 33.3h-40.5c-2.8-5-11.4-14.3-11.8-22.7S182.9-4.6 175.6 4a131.2 131.2 0 01-38 23.8 12.5 12.5 0 00-25 .2v.2C96.8 22.5 77.1 8.2 73.5 4 66.2-4.6 57.4 2 57 10.6s-9 17.7-11.8 22.7H12a12 12 0 00-12 12V207a12 12 0 0012 12h232.4a12 12 0 0012-12V45.2a12 12 0 00-12-11.9zM245 207a.6.6 0 01-.6.6H143.7v-47.1h-37v47.1H12a.6.6 0 01-.6-.6V45.2a.6.6 0 01.6-.6h94.7v48.9h37V44.6h100.7a.6.6 0 01.6.6z"/>
	</symbol>
	<symbol id="daily-freebet-or-freespin" viewBox="0 0 500 500">
		<path d="M85 354h-1c-2 0-3-2-4-4l-7-25-25-7c-2-1-3-3-3-5s0-4 2-5l21-15v-25a5 5 0 0 1 9-4l20 15 25-8a5 5 0 0 1 6 7l-8 24 15 21v6c-1 1-2 3-5 3l-25-1-15 21-5 2zm-28-43 20 7c2 0 3 2 3 3l7 21 12-17 4-3 22 1-13-17-1-5 7-20-20 6h-5l-16-13v21c0 2-1 3-3 4l-17 12zm49 19zm22-2zM88 212h-1l-4-4-5-19-19-6-4-4c0-2 1-4 3-5l16-11v-20a5 5 0 0 1 8-4l16 12 18-6c2-1 4-1 6 1s2 3 1 5l-7 19 12 16v5c-1 2-2 3-4 3h-20l-12 16-4 2zm-20-35 14 5c2 0 3 1 3 3l4 14 9-12 4-2h15l-8-12c-1-1-2-3-1-4l5-14-14 4h-5l-12-9v14l-2 5-12 8zm31-25zM380 273l1 1c2-2 4-3 7-2l-1 6-3 1v2h2l3-2c3-3 6-4 8-2s3 3 3 5v4l1 1-3 5-1-1c-3 3-6 4-9 4l1-7c2 1 3 0 4-2v-2c-1-1-1 0-2 1l-2 1c-3 3-6 4-8 2-2-1-4-3-4-5l1-4-1-1 3-5zM228 179c9 0 19-1 28-3 9 2 18 3 28 3 25 0 49-8 59-27 4-10 3-25-6-37-8-9-23-16-35-11-18 6-21 21-24 33-3 11-5 20-15 25l-7 3-7-3c-10-5-12-14-15-25-3-12-7-27-24-33-13-5-27 2-35 11a36 36 0 0 0-6 37c9 19 33 27 59 27zm61-39c3-12 5-21 17-25 7-3 17 2 22 8 6 7 7 18 4 24-8 16-32 22-56 20 8-7 11-18 13-27zm-105-17c4-5 11-9 18-9l4 1c12 4 14 13 17 25 2 9 5 20 13 27-25 2-49-4-56-20-3-6-2-17 4-24z"/>
		<path d="M380 297c5 3 10 5 16 5s11-2 14-6c5-8 0-21-11-28-11-8-24-7-30 1-2 4-3 9-1 15 2 5 6 10 12 13zm-8-26c3-3 7-5 11-5s9 2 14 5c9 6 14 16 9 23-2 3-5 4-10 4-4 1-10-1-14-4s-8-7-10-12c-2-4-1-8 0-11z"/>
		<path d="M377 283c0 2 2 4 4 5 2 2 5 1 8-2l2-1 2-1v2c-1 2-2 3-4 2l-1 7c3 0 6-1 9-4l1 1 3-5-1-1v-4c0-2-1-4-3-5s-5-1-8 2l-3 2h-2v-2l3-1 1-6c-3-1-5 0-7 2l-1-1-3 5 1 1-1 4z"/>
		<path d="m435 262-1-1a17 17 0 0 1-5-23l1-1-16-11-1 2v1c-2 3-6 6-10 6-5 1-9 0-13-2l-2-2-39 60-8 12 2 1c3 2 5 4 6 7 3 4 3 10 0 15v3l15 9 1-2c5-6 15-8 22-3l1 1 2 1 47-72-2-1zm-46 67c-9-5-20-3-26 4l-10-6a20 20 0 0 0-6-25l2-4 40-61c5 2 10 3 15 2 4-1 9-3 12-7l9 6c-5 9-2 20 6 26l-42 65zM317 320v17-18 1z"/>
		<path d="M462 245v-1c0-2-2-4-3-5l-57-38a8 8 0 0 0-11 3l-22 33v-49H142v68h20v118h187v-13l28 18a8 8 0 0 0 11-2l72-111 2-3v-18zm-184-45h79v45h-79v-45zm78 56-7 11v-11h7zM233 362h-60V256h60v106zm0-117h-79v-45h79v45zm34 117h-22V200h22v162zm71 0h-60V256h60v29l-20 30-1 4v18c0 2 1 4 3 5l18 12v8zm118-116-73 112h-2l-57-37-1-2 73-112a2 2 0 0 1 1 0h1l57 37 1 1v1z"/>
	</symbol>
	<symbol id="welcome-freebet" viewBox="0 0 53 53">
		<path d="M0 26.587V11h10.258v2.964h-6.59v3.61H9.31v2.965H3.67v6.048H0zM16.757 18.172h1.897c1.98 0 2.97-.773 2.97-2.319 0-.765-.258-1.299-.774-1.602-.499-.303-1.231-.454-2.196-.454h-1.897v4.375zm0 8.415h-3.669V11h5.865c1.73 0 3.203.35 4.418 1.052 1.231.685 1.847 1.952 1.847 3.801 0 1.148-.267 2.088-.799 2.821a5.069 5.069 0 0 1-2.096 1.674l3.693 6.24h-4.118l-3.12-5.619h-2.021v5.618zM28.394 26.587V11h10.183v2.964h-6.514v3.132h5.54v2.94h-5.54v3.587h6.764v2.964H28.394zM42.068 26.587V11H52.25v2.964h-6.514v3.132h5.541v2.94h-5.54v3.587H52.5v2.964H42.068zM6.544 46V30.413h5.566c1.68 0 3.095.27 4.243.813 1.164.541 1.747 1.562 1.747 3.06 0 .7-.192 1.378-.574 2.032-.366.653-.882 1.1-1.548 1.339v.095a4.185 4.185 0 0 1 2.072 1.22c.565.59.848 1.402.848 2.438 0 1.594-.615 2.757-1.847 3.49-1.214.733-2.703 1.1-4.467 1.1h-6.04zm3.669-9.348h1.722c.899 0 1.547-.167 1.947-.502.416-.334.624-.78.624-1.338 0-1.116-.849-1.674-2.546-1.674h-1.747v3.514zm0 6.623h2.071c2.014 0 3.02-.702 3.02-2.104 0-1.275-1.006-1.913-3.02-1.913h-2.071v4.017zM21.655 46V30.413h10.183v2.964h-6.514v3.132h5.54v2.94h-5.54v3.587h6.764V46H21.655zM38.498 46V33.377h-4.467v-2.964h12.628v2.964h-4.467V46h-3.694z"/>
	</symbol>
	<symbol id="google-new" viewBox="0 0 32 32">
		<path fill-rule="evenodd" d="M16 0C7.16344 0 0 7.16344 0 16C0 24.8366 7.16344 32 16 32C24.8366 32 32 24.8366 32 16C32 7.16344 24.8366 0 16 0ZM16.327 17.6205H13.8962C13.8512 17.6202 13.8069 17.6105 13.7656 17.5919C13.7242 17.5733 13.6867 17.5462 13.6553 17.5122C13.6239 17.4782 13.5993 17.438 13.5828 17.3939C13.5662 17.3498 13.5581 17.3027 13.5589 17.2553V15.9039C13.5581 15.8565 13.5662 15.8094 13.5828 15.7653C13.5993 15.7212 13.6239 15.681 13.6553 15.647C13.6867 15.613 13.7242 15.586 13.7656 15.5674C13.8069 15.5488 13.8512 15.539 13.8962 15.5387H18.3944C18.3944 15.5387 18.3858 16.7622 18.3858 16.7987C18.3271 17.8826 17.9651 18.9237 17.3456 19.7902C16.7262 20.6568 15.877 21.3099 14.9057 21.6668C13.9344 22.0237 12.8846 22.0684 11.8892 21.7952C10.8939 21.522 9.99768 20.9432 9.3141 20.1321C8.63053 19.321 8.19032 18.314 8.04918 17.2387C7.90805 16.1633 8.07226 15.0679 8.52119 14.0912C8.97012 13.1145 9.68359 12.3004 10.5711 11.7519C11.4586 11.2033 12.4803 10.945 13.507 11.0098C14.7578 11.0405 15.9497 11.5765 16.8373 12.5072C16.9038 12.5794 16.941 12.676 16.941 12.7766C16.941 12.8773 16.9038 12.9738 16.8373 13.0459L15.9378 13.9682C15.9089 14.0006 15.874 14.0264 15.8353 14.0441C15.7966 14.0617 15.755 14.0708 15.7128 14.0708C15.6707 14.0708 15.6289 14.0617 15.5902 14.0441C15.5516 14.0264 15.5168 14.0006 15.4879 13.9682C14.9275 13.4065 14.1846 13.0928 13.4118 13.0916C12.5839 13.1285 11.8013 13.5006 11.2266 14.1308C10.652 14.7609 10.3296 15.6006 10.3262 16.4753C10.3229 17.3499 10.639 18.1922 11.2088 18.8272C11.7786 19.4622 12.5583 19.8411 13.3858 19.885C14.0392 19.8809 14.6747 19.66 15.2025 19.2537C15.7303 18.8473 16.1237 18.2759 16.327 17.6205ZM22.512 14.3426V15.6574H23.7057C23.7456 15.6583 23.7848 15.6676 23.8213 15.6847C23.8577 15.7017 23.8904 15.7263 23.9178 15.7569C23.9451 15.7875 23.9665 15.8234 23.9806 15.8628C23.9947 15.9021 24.0012 15.944 23.9998 15.9861V17.091C24.0007 17.1745 23.9703 17.2549 23.9152 17.3148C23.8601 17.3747 23.7848 17.4091 23.7057 17.4105H22.512V18.7253C22.5129 18.8088 22.4825 18.8894 22.4274 18.9493C22.3723 19.0091 22.2969 19.0436 22.2178 19.045H21.2144C21.1354 19.0436 21.06 19.0091 21.0049 18.9493C20.9498 18.8894 20.9193 18.8088 20.9202 18.7253V17.4105H19.7266C19.6475 17.4091 19.5721 17.3747 19.517 17.3148C19.4619 17.2549 19.4315 17.1745 19.4324 17.091V15.9861C19.431 15.944 19.4376 15.9021 19.4516 15.8628C19.4657 15.8234 19.4871 15.7875 19.5145 15.7569C19.5418 15.7263 19.5747 15.7017 19.6111 15.6847C19.6475 15.6676 19.6868 15.6583 19.7266 15.6574H20.9202V14.3426C20.9193 14.2591 20.9498 14.1786 21.0049 14.1187C21.06 14.0589 21.1354 14.0244 21.2144 14.023H22.2178C22.2969 14.0244 22.3723 14.0589 22.4274 14.1187C22.4825 14.1786 22.5129 14.2591 22.512 14.3426Z"/>
	</symbol>
	<symbol id="tg-new" viewBox="0 0 32 32">
		<path fill-rule="evenodd" d="M16 0C7.16344 0 0 7.16344 0 16C0 24.8366 7.16344 32 16 32C24.8366 32 32 24.8366 32 16C32 7.16344 24.8366 0 16 0ZM12.8352 22.2868L10.8494 17.2508L7 15.7451L23 9L19.8753 23.2431L15.4329 19.6722L12.8352 22.2868ZM13.5317 17.6069L18.4259 13.0898L11.7906 17.0881L12.92 19.9367L13.5317 17.6069Z"/>
	</symbol>
	<symbol id="google-new" viewBox="0 0 32 32">
		<path fill-rule="evenodd" clip-rule="evenodd" d="M16 0C7.16344 0 0 7.16344 0 16C0 24.8366 7.16344 32 16 32C24.8366 32 32 24.8366 32 16C32 7.16344 24.8366 0 16 0ZM16.327 17.6205H13.8962C13.8512 17.6202 13.8069 17.6105 13.7656 17.5919C13.7242 17.5733 13.6867 17.5462 13.6553 17.5122C13.6239 17.4782 13.5993 17.438 13.5828 17.3939C13.5662 17.3498 13.5581 17.3027 13.5589 17.2553V15.9039C13.5581 15.8565 13.5662 15.8094 13.5828 15.7653C13.5993 15.7212 13.6239 15.681 13.6553 15.647C13.6867 15.613 13.7242 15.586 13.7656 15.5674C13.8069 15.5488 13.8512 15.539 13.8962 15.5387H18.3944C18.3944 15.5387 18.3858 16.7622 18.3858 16.7987C18.3271 17.8826 17.9651 18.9237 17.3456 19.7902C16.7262 20.6568 15.877 21.3099 14.9057 21.6668C13.9344 22.0237 12.8846 22.0684 11.8892 21.7952C10.8939 21.522 9.99768 20.9432 9.3141 20.1321C8.63053 19.321 8.19032 18.314 8.04918 17.2387C7.90805 16.1633 8.07226 15.0679 8.52119 14.0912C8.97012 13.1145 9.68359 12.3004 10.5711 11.7519C11.4586 11.2033 12.4803 10.945 13.507 11.0098C14.7578 11.0405 15.9497 11.5765 16.8373 12.5072C16.9038 12.5794 16.941 12.676 16.941 12.7766C16.941 12.8773 16.9038 12.9738 16.8373 13.0459L15.9378 13.9682C15.9089 14.0006 15.874 14.0264 15.8353 14.0441C15.7966 14.0617 15.755 14.0708 15.7128 14.0708C15.6707 14.0708 15.6289 14.0617 15.5902 14.0441C15.5516 14.0264 15.5168 14.0006 15.4879 13.9682C14.9275 13.4065 14.1846 13.0928 13.4118 13.0916C12.5839 13.1285 11.8013 13.5006 11.2266 14.1308C10.652 14.7609 10.3296 15.6006 10.3262 16.4753C10.3229 17.3499 10.639 18.1922 11.2088 18.8272C11.7786 19.4622 12.5583 19.8411 13.3858 19.885C14.0392 19.8809 14.6747 19.66 15.2025 19.2537C15.7303 18.8473 16.1237 18.2759 16.327 17.6205ZM22.512 14.3426V15.6574H23.7057C23.7456 15.6583 23.7848 15.6676 23.8213 15.6847C23.8577 15.7017 23.8904 15.7263 23.9178 15.7569C23.9451 15.7875 23.9665 15.8234 23.9806 15.8628C23.9947 15.9021 24.0012 15.944 23.9998 15.9861V17.091C24.0007 17.1745 23.9703 17.2549 23.9152 17.3148C23.8601 17.3747 23.7848 17.4091 23.7057 17.4105H22.512V18.7253C22.5129 18.8088 22.4825 18.8894 22.4274 18.9493C22.3723 19.0091 22.2969 19.0436 22.2178 19.045H21.2144C21.1354 19.0436 21.06 19.0091 21.0049 18.9493C20.9498 18.8894 20.9193 18.8088 20.9202 18.7253V17.4105H19.7266C19.6475 17.4091 19.5721 17.3747 19.517 17.3148C19.4619 17.2549 19.4315 17.1745 19.4324 17.091V15.9861C19.431 15.944 19.4376 15.9021 19.4516 15.8628C19.4657 15.8234 19.4871 15.7875 19.5145 15.7569C19.5418 15.7263 19.5747 15.7017 19.6111 15.6847C19.6475 15.6676 19.6868 15.6583 19.7266 15.6574H20.9202V14.3426C20.9193 14.2591 20.9498 14.1786 21.0049 14.1187C21.06 14.0589 21.1354 14.0244 21.2144 14.023H22.2178C22.2969 14.0244 22.3723 14.0589 22.4274 14.1187C22.4825 14.1786 22.5129 14.2591 22.512 14.3426Z"/>
	</symbol>
	<symbol id="telegram-new" viewBox="0 0 32 32">
		<path fill-rule="evenodd" clip-rule="evenodd" d="M16 0C7.16344 0 0 7.16344 0 16C0 24.8366 7.16344 32 16 32C24.8366 32 32 24.8366 32 16C32 7.16344 24.8366 0 16 0ZM12.8352 22.2868L10.8494 17.2508L7 15.7451L23 9L19.8753 23.2431L15.4329 19.6722L12.8352 22.2868ZM13.5317 17.6069L18.4259 13.0898L11.7906 17.0881L12.92 19.9367L13.5317 17.6069Z"/>
	</symbol>
	<symbol id="key-new" viewBox="0 0 15 15">
		<path fill-rule="evenodd" d="M14.9333 5.13333C14.9333 6.55278 14.4277 7.76805 13.4166 8.77917C12.425 9.77084 11.2194 10.2667 9.8 10.2667C9.46944 10.2667 9.14861 10.2375 8.8375 10.1792L8.1375 10.9666C8.00139 11.1222 7.82639 11.2 7.6125 11.2H6.53333V12.3667C6.53333 12.5611 6.46528 12.7264 6.32916 12.8625C6.19306 12.9986 6.02778 13.0667 5.83333 13.0667H4.66667V14.2334C4.66667 14.4277 4.59861 14.5931 4.4625 14.7292C4.32639 14.8653 4.16111 14.9333 3.96667 14.9333H0.7C0.505555 14.9333 0.340277 14.8653 0.204166 14.7292C0.0680556 14.5931 0 14.4277 0 14.2334V11.9583C0 11.7638 0.0680556 11.5986 0.204166 11.4625L4.92916 6.7375C4.75417 6.2125 4.66667 5.67778 4.66667 5.13333C4.66667 4.2 4.89028 3.34445 5.3375 2.56667C5.80417 1.76944 6.42639 1.14722 7.20417 0.7C8.00139 0.233333 8.86667 0 9.8 0C11.2194 0 12.425 0.505557 13.4166 1.51667C14.4277 2.50833 14.9333 3.71389 14.9333 5.13333ZM10.2083 2.74166C9.93611 3.01389 9.8 3.34445 9.8 3.73333C9.8 4.12222 9.93611 4.45278 10.2083 4.725C10.4806 4.99723 10.8111 5.13333 11.2 5.13333C11.5889 5.13333 11.9195 4.99723 12.1917 4.725C12.4639 4.45278 12.6 4.12222 12.6 3.73333C12.6 3.34445 12.4639 3.01389 12.1917 2.74166C11.9195 2.46944 11.5889 2.33333 11.2 2.33333C10.8111 2.33333 10.4806 2.46944 10.2083 2.74166Z"/>
	</symbol>
	<symbol id="man" viewBox="0 0 14 15">
		<path fill-rule="evenodd" d="M9.15834 6.3875C8.43889 7.10694 7.56389 7.46667 6.53333 7.46667C5.50277 7.46667 4.61806 7.10694 3.87917 6.3875C3.15972 5.64861 2.8 4.76389 2.8 3.73333C2.8 2.70277 3.15972 1.82778 3.87917 1.10833C4.61806 0.36944 5.50277 0 6.53333 0C7.56389 0 8.43889 0.36944 9.15834 1.10833C9.89717 1.82778 10.2667 2.70277 10.2667 3.73333C10.2667 4.76389 9.89717 5.64861 9.15834 6.3875ZM9.15834 8.4C10.2277 8.4 11.1417 8.78889 11.8999 9.56667C12.6778 10.325 13.0667 11.2389 13.0667 12.3084V13.5333C13.0667 13.9222 12.9306 14.2528 12.6583 14.525C12.3861 14.7972 12.0556 14.9333 11.6667 14.9333H1.4C1.01111 14.9333 0.680555 14.7972 0.408331 14.525C0.136107 14.2528 0 13.9222 0 13.5333V12.3084C0 11.2389 0.379168 10.325 1.1375 9.56667C1.91527 8.78889 2.83889 8.4 3.90833 8.4H4.40417C5.08473 8.71112 5.79444 8.86667 6.53333 8.86667C7.27222 8.86667 7.98194 8.71112 8.6625 8.4H9.15834Z"/>
	</symbol>
	<symbol id="copy-new" viewBox="0 0 18 19">
		<path d="M16.3125 0.25C16.7812 0.25 17.1797 0.414062 17.5078 0.742188C17.8359 1.07031 18 1.46875 18 1.9375V12.0625C18 12.5312 17.8359 12.9297 17.5078 13.2578C17.1797 13.5859 16.7812 13.75 16.3125 13.75H6.1875C5.71875 13.75 5.32031 13.5859 4.99219 13.2578C4.66406 12.9297 4.5 12.5312 4.5 12.0625V1.9375C4.5 1.46875 4.66406 1.07031 4.99219 0.742188C5.32031 0.414062 5.71875 0.25 6.1875 0.25H16.3125ZM6.1875 14.875H13.5V16.5625C13.5 17.0312 13.3359 17.4297 13.0078 17.7578C12.6797 18.0859 12.2812 18.25 11.8125 18.25H1.6875C1.21875 18.25 0.820312 18.0859 0.492188 17.7578C0.164062 17.4297 0 17.0312 0 16.5625V6.4375C0 5.96875 0.164062 5.57031 0.492188 5.24219C0.820312 4.91406 1.21875 4.75 1.6875 4.75H3.375V12.0625C3.375 12.8359 3.64453 13.5039 4.18359 14.0664C4.74609 14.6055 5.41406 14.875 6.1875 14.875Z"/>
	</symbol>
	<symbol id="check-circle" viewBox="0 0 104 104">
		<path d="M51.6667 0.333496C80.2011 0.333496 103.333 23.4654 103.333 52.0002C103.333 80.5346 80.2011 103.667 51.6667 103.667C23.1319 103.667 0 80.5346 0 52.0002C0 23.4654 23.1319 0.333496 51.6667 0.333496ZM51.6667 8.0835C27.4122 8.0835 7.75 27.7457 7.75 52.0002C7.75 76.2546 27.4122 95.9168 51.6667 95.9168C75.9211 95.9168 95.5833 76.2546 95.5833 52.0002C95.5833 27.7457 75.9211 8.0835 51.6667 8.0835ZM45.2083 59.4365L68.3018 36.3435C69.8151 34.8302 72.2682 34.8302 73.7816 36.3435C75.1574 37.7192 75.2825 39.8719 74.1567 41.3889L73.7816 41.8234L47.9482 67.6567C46.5729 69.0326 44.4199 69.1576 42.903 68.0318L42.4685 67.6567L29.5516 54.7401C28.0384 53.2267 28.0384 50.7736 29.5516 49.2603C30.9274 47.8844 33.0801 47.7594 34.5971 48.8852L35.0317 49.2603L45.2083 59.4365L68.3018 36.3435L45.2083 59.4365Z"/>
	</symbol>
	<symbol id="casino-new" viewBox="0 0 500 500">
		<path d="M161.902 207.879c-1.847-.309-3.699.77-4.316 2.543-1.078 3.082-25.664 76.453-8.172 106.133 10.328 17.34 32.906 23.12 50.25 12.793 4.16-2.47 7.707-5.625 10.484-9.407.305 4.547-.23 9.172-.925 13.18-1.078 6.012 5.09 4.703 5.707 4.317a3959.47 3959.47 0 0 0 30.672-18.188c1.308-.773 2.082-2.313 1.847-3.855-.23-1.54-1.387-2.774-2.926-3.16-3.468-.844-7.554-2.77-11.945-5.548 4.7-.69 9.25-2.312 13.41-4.777 17.34-10.254 23.047-32.758 12.793-50.25-17.496-29.597-93.644-43.234-96.879-43.777Zm80.23 87.398c-6.398 3.774-13.796 5.008-20.96 3.391-1.774-.387-3.547.46-4.317 2.078-.773 1.621-.386 3.547 1 4.625 4.547 3.774 10.637 8.246 16.958 11.328-5.625 3.313-11.25 6.703-16.88 10.02.387-7.09-.69-14.645-1.777-20.504-.304-1.774-1.847-3.004-3.62-3.082-1.852-.074-3.391 1.078-3.856 2.773-2.004 7.016-6.555 13.024-12.871 16.727-13.72 8.09-31.598 3.62-39.692-10.098-13.797-23.351 3.313-82.16 7.785-96.492 14.72 2.926 74.45 16.184 88.325 39.535 8.093 13.805 3.625 31.61-10.094 39.7ZM38.896 176.36c-1.848-.308-3.7.77-4.317 2.54-.848 2.468-7.86 24.046-2.156 33.757 3.625 6.086 11.332 8.324 17.648 5.32a3.3 3.3 0 0 0 1.309 1.618c.691.46 1.465.773 2.312.773.692 0 1.387-.156 2.004-.543 2.082-1.308 4.242-2.543 6.32-3.773l2.7-1.621c1.308-.77 2.078-2.309 1.847-3.852a3.605 3.605 0 0 0-.847-1.926c2.62-1.851 4.472-4.55 5.32-7.707.922-3.543.387-7.168-1.539-10.328-5.707-9.71-28.055-13.87-30.601-14.258Zm24.667 22.657c-.386 1.539-1.39 2.77-2.699 3.62-1.23.774-12.406 7.403-13.64 8.173-2.774 1.62-6.399.691-8.094-2.082-2.465-4.16-.617-15.645 1.777-24.122 8.551 1.926 19.496 5.778 22.043 10.016a5.82 5.82 0 0 1 .614 4.395Zm0 0"/>
		<path d="M477.895 279.79c16.57-21.274 24.273-47.63 21.578-74.759-4.703-45.86-38.227-82.777-83.313-91.87-.156-.052-.351-.032-.531-.016-.082.007-.16.015-.242.015-19.114-34.222-56.645-55.953-97.801-53.41l-5.781-24.043c-1.387-5.781-4.934-10.715-10.016-13.797-5.164-3.16-11.176-4.082-16.957-2.695L77.59 69.23a21.657 21.657 0 0 0-13.797 9.942c-3.156 5.09-4.086 11.176-2.695 17.031l8.632 36.223-58.652 34.762C5.914 170.195 2.29 174.972.75 180.754c-1.54 5.781-.691 11.867 2.39 17.11L164.677 470.39c4.16 7.011 11.637 10.941 19.27 10.941a22.35 22.35 0 0 0 11.327-3.082l85.09-50.328v25.125c0 15.648 12.715 28.363 28.36 28.363h151.441c15.649 0 28.363-12.719 28.363-28.363v-151.37c-.078-8.863-4.238-16.723-10.632-21.887Zm-17.727-6.47h-7.938c4.317-4.242 8.016-8.867 11.25-13.875l13.797 7.938c-1.773 2.851-3.773 5.55-5.855 8.246-3.547-1.465-7.324-2.313-11.254-2.313Zm-91.02 0-3.238-13.488c41.93-18.266 66.82-60.809 62.195-106.508-.046-.715-.18-1.402-.316-2.074-.086-.41-.16-.824-.223-1.242 23.664 11.562 39.536 35.07 41 61.582 1.387 23.894-9.168 46.86-28.128 61.734l-71.29-.008Zm3.704-163.93c14.562 13.102 23.273 30.985 24.351 50.563 1.54 28.442-13.871 55.492-38.844 68.75l-33.293-137.96c17.649.308 34.45 6.702 47.786 18.648Zm-11.72 126.555 8.016 13.871c-1.617.848-3.312 1.618-5.086 2.391l-3.777-15.797c.23-.156.54-.312.848-.465Zm79.384-105.976-8.016 13.953c-2.156-1.078-4.316-2.156-6.55-3.082-1.466-6.555-3.548-12.797-6.169-18.809a94.85 94.85 0 0 1 20.735 7.938ZM320.207 67.313v3.312l-.77-3.238c.231-.075.54-.075.77-.075ZM68.57 94.362c-.922-3.855-.304-7.785 1.778-11.175a14.091 14.091 0 0 1 9.015-6.473l207.242-50.02c3.778-.922 7.707-.304 11.102 1.696 3.313 2.007 5.625 5.242 6.55 9.02l56.958 235.91H347.73L225.027 66.386c-3.007-5.164-7.859-8.79-13.64-10.254-5.782-1.465-11.867-.617-16.957 2.469l-117.688 69.75Zm122.774 377.262c-6.938 4.086-15.953 1.773-20.114-5.09L9.766 193.941a14.576 14.576 0 0 1-1.54-11.175c1.004-3.778 3.391-6.938 6.786-8.864L198.359 65.234c3.391-2.004 7.32-2.543 11.102-1.62a14.83 14.83 0 0 1 8.937 6.706L338.79 273.406h-30.055c-15.648 0-28.363 12.719-28.363 28.36v117.222Zm289.402-18.574c0 11.406-9.25 20.656-20.656 20.656H308.719c-11.406 0-20.656-9.25-20.656-20.656V301.68c0-11.407 9.25-20.657 20.656-20.657H460.16c11.406 0 20.656 9.25 20.656 20.657v151.37h-.074ZM375.777 245.96l-8.015-13.871c3.773-2.465 12.793-10.633 16.105-13.64 3.008-3.313 5.707-6.86 8.172-10.634l14.027 8.09a110.832 110.832 0 0 1-10.793 13.95c-4.234 4.003-14.414 12.945-19.496 16.105ZM361.211 92.125l7.937-13.797c-5.164-2.773-18.113-7.008-23.734-8.781a101.798 101.798 0 0 0-17.496-2.238v15.8c4.547.157 9.016.852 13.41 1.774l.41.137c4.535 1.48 15.594 5.09 19.477 7.105Zm16.797 11.48a88.579 88.579 0 0 0-10.172-7.707l7.937-13.714c5.012 3.156 9.633 6.78 13.95 10.789 3.933 4.32 13.027 14.41 16.191 19.418h-.004l-13.715 7.937c-2.394-3.773-10.562-12.867-13.648-16.183a3.243 3.243 0 0 1-.149-.165 1.887 1.887 0 0 0-.39-.375Zm26.902 56.653 15.88-.004-.009-.16c-.078-1.95-.156-3.903-.379-5.926-.359-3.668-2.668-13.711-3.664-18.043l-.11-.473-.081-.363a100.213 100.213 0 0 0-6.79-16.262l-13.718 7.938a87.683 87.683 0 0 1 5.09 12.484c.18.883.445 2.098.75 3.508 1.137 5.23 2.848 13.129 3.031 16.531Zm4.934 48.941-13.953-8.094c2.082-4.003 5.78-15.488 7.171-19.804 1-4.395 1.618-8.79 1.774-13.336h15.953c-.234 5.933-.93 11.793-2.16 17.496-1.774 5.7-6.012 18.496-8.785 23.738Zm29.285-61.347c3.773 2.39 12.871 10.554 16.187 13.562 3.004 3.313 5.7 6.938 8.09 10.715l14.031-8.094c-3.164-5.008-6.71-9.71-10.714-14.027-4.317-4.008-14.489-13.024-19.504-16.11Zm35.375 50.793-.215-.665c-1.523-4.742-4.973-15.484-6.957-19.3l13.875-8.016c2.7 5.242 6.863 18.191 8.633 23.89.848 3.622 1.543 7.403 1.926 11.255.175 1.574.218 3.101.261 4.656v.004l.024.746c.008.25.012.504.023.758h-15.797v-.692c-.23-4.316-.847-8.476-1.777-12.636Zm-7.242 54.18 13.87 8.015c2.7-5.246 5.013-10.637 6.868-16.262 1.23-5.629 3.848-19.039 4.078-24.973h-15.875c-.234 4.547-2.7 16.493-3.621 20.887-1.39 4.238-3.238 8.324-5.32 12.332Zm0 0"/>
		<path d="M331.547 298.824c-14.184 0-25.664 11.488-25.664 25.664 0 14.184 11.484 25.664 25.66 25.664 14.105 0 25.664-11.484 25.664-25.664 0-14.18-11.562-25.664-25.664-25.664Zm0 43.547c-9.867 0-17.961-8.016-17.961-17.957a17.927 17.927 0 0 1 17.96-17.957c9.864 0 17.958 8.016 17.958 17.957s-8.098 17.957-17.957 17.957Zm52.863 9.32c-14.18 0-25.664 11.485-25.664 25.664 0 14.184 11.484 25.665 25.664 25.665 14.106 0 25.664-11.485 25.664-25.665.004-14.18-11.48-25.664-25.664-25.664Zm0 43.622c-9.863 0-17.957-8.016-17.957-17.958a17.926 17.926 0 0 1 17.957-17.957c9.867 0 17.961 8.016 17.961 17.957 0 9.946-8.094 17.957-17.96 17.957Zm52.867 9.246c-14.18 0-25.66 11.484-25.66 25.664 0 14.183 11.485 25.664 25.66 25.664 14.106 0 25.664-11.485 25.664-25.664.004-14.18-11.48-25.664-25.664-25.664Zm0 43.625c-9.863 0-17.957-8.02-17.957-17.961a17.926 17.926 0 0 1 17.957-17.957c9.868 0 17.961 8.015 17.961 17.957a17.93 17.93 0 0 1-17.96 17.96Zm0-149.36c-14.101 0-25.66 11.488-25.66 25.664 0 14.184 11.485 25.664 25.66 25.664 14.184 0 25.664-11.484 25.664-25.664.004-14.18-11.48-25.664-25.664-25.664Zm0 43.547c-9.863 0-17.957-8.016-17.957-17.957a17.926 17.926 0 0 1 17.957-17.957c9.942 0 17.961 8.016 17.961 17.957a17.927 17.927 0 0 1-17.96 17.957Zm-105.73 62.188c-14.106 0-25.664 11.484-25.664 25.664 0 14.183 11.484 25.664 25.66 25.664 14.184 0 25.664-11.485 25.664-25.664 0-14.18-11.562-25.664-25.664-25.664Zm0 43.625c-9.867 0-17.961-8.016-17.961-17.961a17.927 17.927 0 0 1 17.96-17.957c9.864 0 17.958 8.015 17.958 17.957 0 9.945-8.098 17.96-17.957 17.96Zm0 0"/>
	</symbol>
</svg>
