<svg width="24" height="24" viewBox="0 0 24 24" fill="none" xmlns="http://www.w3.org/2000/svg">
<path fill-rule="evenodd" clip-rule="evenodd" d="M17.16 5.80119H7.53998C7.46259 5.82329 7.38113 5.82714 7.302 5.81241C7.22288 5.79768 7.14827 5.76479 7.08401 5.71632C7.01976 5.66786 6.96763 5.60513 6.93173 5.5331C6.89584 5.46106 6.87717 5.38167 6.87717 5.30119C6.87717 5.2207 6.89584 5.14132 6.93173 5.06928C6.96763 4.99725 7.01976 4.93452 7.08401 4.88605C7.14827 4.83759 7.22288 4.8047 7.302 4.78997C7.38113 4.77524 7.46259 4.77908 7.53998 4.80119H10.88C11.0374 4.55552 11.2541 4.35339 11.5101 4.21339C11.7661 4.07338 12.0532 4 12.345 4C12.6368 4 12.9239 4.07338 13.1799 4.21339C13.4359 4.35339 13.6526 4.55552 13.81 4.80119H17.16C17.2687 4.83223 17.3642 4.89782 17.4323 4.98804C17.5003 5.07825 17.5372 5.18818 17.5372 5.30119C17.5372 5.41419 17.5003 5.52413 17.4323 5.61434C17.3642 5.70456 17.2687 5.77015 17.16 5.80119ZM15.44 9.77118H19.35C19.6481 9.75225 19.9469 9.79367 20.2287 9.89297C20.5104 9.99227 20.7692 10.1474 20.9895 10.3491C21.2099 10.5508 21.3873 10.7948 21.5111 11.0667C21.6349 11.3385 21.7025 11.6326 21.71 11.9312C21.7154 11.9643 21.7154 11.9981 21.71 12.0312C21.6155 12.6061 21.3248 13.1305 20.8872 13.5153C20.4496 13.9 19.8923 14.1211 19.31 14.1412L15.53 14.8112H15.28L15.01 15.7112L16.16 16.3112H16.24C16.6495 16.5255 16.9622 16.8877 17.1145 17.3241C17.2668 17.7605 17.2473 18.2386 17.06 18.6612C16.8668 19.016 16.5754 19.3076 16.2206 19.5009C15.8659 19.6942 15.4629 19.7811 15.06 19.7512H13.79C13.6875 20.0454 13.4955 20.3001 13.2408 20.4795C12.986 20.6588 12.6815 20.7539 12.37 20.7512C12.0568 20.756 11.75 20.6619 11.4933 20.4824C11.2366 20.3029 11.043 20.047 10.94 19.7512H10.87H9.57999C9.18532 19.7714 8.79298 19.6798 8.44803 19.487C8.10308 19.2942 7.81955 19.0079 7.63 18.6612C7.43204 18.2435 7.40042 17.7661 7.54156 17.326C7.68271 16.8858 7.98603 16.5159 8.38998 16.2912H8.47L9.66998 15.6612L9.38998 14.7912H9.19L5.39999 14.1212C4.81827 14.0993 4.26188 13.8774 3.82468 13.4931C3.38748 13.1087 3.09623 12.5853 3 12.0112V11.9112C3.0085 11.6111 3.07803 11.3159 3.20438 11.0436C3.33073 10.7713 3.51125 10.5276 3.73489 10.3273C3.95854 10.1271 4.22063 9.97448 4.50519 9.87887C4.78975 9.78325 5.0908 9.74661 5.38998 9.77118H9.23999V8.77118C9.23965 8.4999 9.29451 8.23139 9.40121 7.98199C9.50792 7.73258 9.66425 7.50749 9.86069 7.3204C10.0571 7.13332 10.2896 6.98815 10.5439 6.89373C10.7982 6.79931 11.0691 6.75761 11.34 6.77118H13.34C13.6109 6.75761 13.8818 6.79931 14.1361 6.89373C14.3904 6.98815 14.6229 7.13332 14.8193 7.3204C15.0157 7.50749 15.1721 7.73258 15.2788 7.98199C15.3855 8.23139 15.4403 8.4999 15.44 8.77118V9.77118ZM5.62 12.6712L9.23999 13.3112V11.3112H5.44998C4.49998 11.3512 4.5 11.9112 4.5 11.9112C4.55 12.5612 5.62 12.6712 5.62 12.6712ZM8.97 18.0512C9.08 18.3112 9.41999 18.3112 9.57999 18.3112L10.52 18.2812L10.16 17.1412L9.16 17.6412C9.16 17.6412 8.86 17.7912 8.97 18.0512ZM13.94 14.1212V10.6212L13.9 8.79118C13.8824 8.64869 13.8098 8.51872 13.6977 8.42903C13.5856 8.33934 13.4429 8.29705 13.3 8.31118H11.3C11.1571 8.29705 11.0144 8.33934 10.9023 8.42903C10.7902 8.51872 10.7176 8.64869 10.7 8.79118V14.0812L11.24 15.8212L12.18 18.8212L12.33 19.3112L12.45 18.9212L13.45 15.7512L13.94 14.1212ZM15.68 18.0312C15.8 17.8012 15.49 17.6212 15.49 17.6212L14.58 17.1912L14.24 18.3112L15.06 18.2912C15.23 18.2912 15.56 18.2612 15.68 18.0312ZM15.44 13.3112L19.11 12.6212V12.6312C19.11 12.6312 20.18 12.5212 20.24 11.9112C20.24 11.9112 20.29 11.3112 19.29 11.3112H15.44V13.3112Z" fill="white"/>
</svg>
