<svg xmlns="http://www.w3.org/2000/svg">
    <symbol id="score" viewBox="0 0 46 46">
        <path d="M41.8 24.9c0 3-.7 5.2-2 6.8-1.4 1.6-3.3 2.4-6 2.4-2.6 0-4.6-.8-5.9-2.3-1.4-1.5-2.1-3.7-2.1-6.6v-3.9c0-3 .7-5.3 2-6.8a7.8 7.8 0 015.9-2.3c2.6 0 4.6.8 5.9 2.3 1.4 1.5 2.1 3.7 2.1 6.6v3.8zm-4.7-4.4c0-1.8-.3-3.1-.8-3.9-.5-.8-1.4-1.2-2.5-1.2a3 3 0 00-2.5 1.2c-.5.8-.8 2-.8 3.6v5.2c0 1.7.3 3 .8 3.9.5.8 1.4 1.3 2.5 1.3s2-.4 2.5-1.2c.5-.8.8-2.1.8-3.7v-5.2zM11.2 34H7.1V16H4.2v-3l6.6-1h.4v22zM16.2 30.8c0-.7.2-1.2.7-1.6.4-.4 1-.6 1.7-.6s1.2.2 1.7.6c.4.4.7.9.7 1.6a2 2 0 01-.7 1.6c-.4.4-1 .6-1.7.6s-1.2-.2-1.7-.6a2 2 0 01-.7-1.6zm0-11.6c0-.7.2-1.2.7-1.6.4-.4 1-.6 1.7-.6s1.2.2 1.7.6c.4.4.7.9.7 1.6a2 2 0 01-.7 1.6c-.4.4-1 .6-1.7.6s-1.2-.2-1.7-.6a2 2 0 01-.7-1.6z"/>
    </symbol>
    <symbol id="basket" viewBox="0 0 46 46">
        <path d="M38.7 35.1c1.1-1.5 2-3.1 2.7-4.7a7 7 0 00-1.8-2.1 5 5 0 00-2.6-1c-.1 2.6-.6 5.2-1.3 7.8-.5 1.5-1 3.1-1.7 4.6 1.7-1.3 3.3-2.8 4.7-4.6zM14.8 38.4l2.6-.8c2-.9 3.5-2.7 5-4.5l2-2.4c2.5-2.6 5.8-5.6 9.9-6.1-.1-1.7-.3-3.3-.7-5a50.2 50.2 0 00-27.4 8.6l-2 1.5a21 21 0 006.7 9.2 23 23 0 003.9-.5z"/><path d="M5.8 25.4c3-2 6.2-3.6 9.7-4.9A59.4 59.4 0 0133 17l-1.3-3.4a3 3 0 00-.4-.8c-2.4.2-5.3-.1-8.6-1.3A26.8 26.8 0 0011.2 10l-1.2.1-2.7.5-.2.2a19.1 19.1 0 00-3.9 14.7l.2 1.4c.9-.4 1.6-1 2.4-1.5zM27.4 6.1L25 3.2a19.9 19.9 0 00-14.4 4.3c1.3-.1 2.9-.2 4.6-.1 2.5.1 5.4.6 8.5 1.7 2.4.8 4.5 1.2 6.4 1.2-.9-1.6-1.8-3-2.7-4.2zM30 41.6a30.6 30.6 0 004.5-14.4c-3.1.5-5.9 3-8 5.3a20 20 0 00-1.9 2.2c-1.6 2-3.3 4-5.8 5.2h-.1c-1.2.6-2.5.9-3.8 1.2a18.8 18.8 0 0015.1.5zM40.1 12.9l-1.5-2.3-2.2 1.1-.3.1-1.9.6.1.2a33 33 0 011.6 4.4l3.6.1 2.6.2c-.6-1.6-1.2-3-2-4.4zM42.6 20.4l-.1-.5-2.5-.2-3.7-.1.6 5c1.3.2 2.3.5 3.2 1 .9.5 1.6 1.1 2.2 1.7.5-2.3.6-4.6.3-6.9zM34.3 9.7c1-.3 1.8-.6 2.5-1l-1.7-1.5a19.6 19.6 0 00-5.9-3.1l2.6 3.8L33 10l1.3-.3z"/>
    </symbol>
    <symbol id="fifteen" viewBox="0 0 46 46">
        <path d="M43 13.5a6 6 0 00-4.9-2.9l-.2.2-.1 1.5.1.1.1.1c1.2 0 2.3.5 3 1.5.8 1 1 2.4.6 3.7-1.4 4.8-4.5 7.3-9.3 7.5l-.2.1-1 1.5v.2l.2.1c2.9-.1 9.9-1.2 12.1-8.9.6-1.6.4-3.3-.4-4.7zM14.7 26.9l-1.1-1.5-.2-.1c-4.8-.2-7.9-2.7-9.3-7.5-.4-1.3-.1-2.7.6-3.7s1.8-1.5 3-1.5l.1-.1.1-.1-.1-1.5-.2-.2-1.4.2A5 5 0 003 13.5c-.8 1.4-1 3.2-.5 4.8 2.2 7.7 9.2 8.8 12.1 8.9l.2-.1-.1-.2zM17 33.5h12v2H17zM14 38.5h18v2H14z"/><path d="M36.8 5.7c-.3-.3-.7-.4-1.1-.4H10.3c-.4 0-.8.2-1.1.4-.2.3-.4.7-.4 1.1l.1 1.6.1 1.4a39.6 39.6 0 004.7 16.3 15 15 0 005.4 5.5l.5.1.4-.1.1-.2-.2-1.5-.1-.2a13 13 0 01-4.4-4.6l-.9-1.6A37.8 37.8 0 0111 9.6l-.1-1.4v-1h24.5v1.1l-.1 1.3a37.8 37.8 0 01-4.4 15.5 13 13 0 01-4.4 4.6l-.1.2-.1 1.5.1.2.3.1.5-.1a15 15 0 005.4-5.5l1-1.7c2-4 3.3-9.1 3.7-14.6l.1-1.4V6.8c-.2-.4-.3-.8-.6-1.1z"/>
    </symbol>
    <symbol id="free" viewBox="0 0 46 46">
        <path d="M24.2 2A21 21 0 004.5 32.6l-2.8 9.9 10.2-1.8A21 21 0 0044.1 24 21 21 0 0024.2 2zm-1.8 38.7c-3.3-.2-6.5-1.2-9.2-3.1-.4-.3-.9-.4-1.4-.2L5.6 39l2.2-6c.2-.5.1-1-.1-1.4a18.6 18.6 0 01-2.3-9.5 17.8 17.8 0 1117 18.6z"/><path d="M11.4 29.8c-.4-.2-.6-.4-.6-.8v-.3l.4-1.8.5-1.8.2-.4.1-.3.1-.4v-.2-.1l.1-.2.4-.8.5-1.9.2-.6.1-.2v-.2-.1l-.5.1-.3.1H12.3c-.2 0-.3-.1-.3-.2l.2-.6c.1-.2.2-.3.4-.3l.6-.2.4-.1h.5l.2-.3c0-.2.1-.4.3-.5l.5-.2.3.1.2.3V18.2h.1l1-.3.5-.1.6-.1h.5l.3-.1c.1-.1.1 0 .2 0l.4-.1h.6l.2.1.1.1v.1h.1l.1.1.2.3v.4l-.1.2-.3.1H18.4l-1.8.3-.6.1-.3.1-.2.3-.3.7-.5 1.5-.3 1h.8l2.2-.3.9-.2.3.2.2.4v.3l-.2.2c-.2.2-.7.3-1.4.4l-2 .2h-.8l-.1.1v.2l-.7 2-.4 1.8-.1.7v.2l-.1.2c0 .2-.1.3-.3.3-1.1.4-1.2.3-1.3.2zM19.2 28.4l-.4-.3-.1-.5.2-1.4.1-.3.4-1.8.7-1.9.6-.2.5.1.2.3-.4 1.4-.1.4-.2.4v.2l.8-.9.9-.8.3-.2.2-.1.7-.2.5.1.3.2.1.2.1.1h.1l-.2.4-.5.3-.4.1-.4.2-.4.3-.9.6-.7.8-.2.3-.2.4-.2.6-.1.6-.1.2-.1.3-.2.3-.2.1-.7-.3zM27.1 28.2c-.6 0-1.2-.1-1.6-.4-.4-.3-.7-.8-.7-1.5v-.9l.2-1.1.7-1.5c.3-.5.7-.8 1.1-1.1l.5-.2.5-.1c.5 0 .8 0 1.1.2l.7.5.2.5v.1l-.2.8c-.1.4-.4.7-.7 1.1-.3.3-.7.5-1.3.6h-1.3c-.2 0-.3.1-.3.2v.6l.3.6c.2.1.4.2.6.1l.5-.2.6-.5.3-.3.3-.1.4.2.2.4-.3.6a3 3 0 01-.8.8c-.2.5-.6.6-1 .6zm.3-4.1l.4-.1.5-.5.3-.5-.2-.3-.4-.1h-.2l-.6.4-.7.9.3.1.6.1zM32.4 28.1c-1.3.1-2-.6-2.1-2.1 0-.5 0-1.1.3-1.8.2-.7.5-1.3.9-1.9.4-.6.7-1 1.1-1.2l.7-.2c.5 0 1 0 1.3.2.4.2.6.6.7 1.2l-.3 1.2-.8 1.1c-.3.3-.7.5-1 .5-.5 0-1-.1-1.3-.4-.2.4-.2.8-.2 1.1l.2.7c.1.1.2.2.5.2l.6-.1.4-.3.3-.2h.1l.4-.3.2-.2.5.1c.2.1.2.2.2.4l-.3.6-.6.6-.2.1-.3.2h-.1l-.4.3c-.3.2-.6.2-.8.2zM33 24c.3 0 .6-.2.7-.5l.3-.8-.1-.3-.2-.1-.6.3-.6.8-.2.4h.1l.2.1.2.2.2-.1z"/>
    </symbol>
    <symbol id="hockey" viewBox="0 0 46 46">
        <path d="M36.8 12.1c-3.7-1.4-8.6-2.2-13.8-2.2s-10.1.8-13.8 2.2c-4 1.5-6.2 3.6-6.2 5.8 0 2.3 2.2 4.3 6.2 5.8 3.7 1.4 8.6 2.2 13.8 2.2s10.1-.8 13.8-2.2c4-1.5 6.2-3.6 6.2-5.8 0-2.2-2.2-4.3-6.2-5.8z"/><path d="M37.9 24.7c-4 1.9-9.3 3-14.9 3s-10.9-1-14.9-3c-2.1-1-3.9-2.2-5.1-3.6v5c0 2.8 1.5 5.1 6.2 7.3 3.7 1.8 8.6 2.7 13.8 2.7s10.1-1 13.8-2.7c4-1.9 6.2-4.5 6.2-7.3v-5c-1.3 1.3-3 2.6-5.1 3.6z"/>
    </symbol>
    <symbol id="cyberfootball" viewBox="0 0 46 46">
        <path d="M20.7 25.8l4.7-6.7-5.7-5.3-8 2.9.3 7.5 8.7 1.6zM17.6 39.4l4.3 4.5 7.5-3.2 1.2-6.6-7.4-.9-5.6 6.2z"/><path d="M37 19c-2.7-4 5-4 5-7.5C42 8.7 39.5 8 40 5c.4-2.4 4.5-5 4.5-5S39 0 37 2c-2 2.5-.3 4.1-1.5 6-1.4 2.2-3.1 2.5-5.5 2.5-1.5 0-1.5-5.5-1.5-5.5s-4 4-6.5 3c-.5-.9-.5-3 0-4-7.4.9-10.6 7.5-11.3 9.1a17.4 17.4 0 00-8.1 21.5l.1.2a17.5 17.5 0 0029.7 4.9c1.5-1.1 3.3-2.4 4.6-3.7 1-1-.5-4.5 0-6 .2-.5 3.2-2.9 4.5-5.5 1-2 .5-5.5.5-5.5s-3.9 1.6-5 0zM7.5 40.4l3.2-2.8-3.1-7.9-5.2-1.8c.1-2 .5-3.9 1.2-5.7a19 19 0 015.2-6.9 18 18 0 013.8-2.2c2.7-1 7.2-2 12.4-.1l.3.1c2 .8 3.8 2 5.3 3.5a18 18 0 011.7 2.5L31.2 21l2.7 7.6h.1v5.9l-4.6 6.9a16.5 16.5 0 01-21.9-1z"/>
    </symbol>
    <symbol id="football" viewBox="0 0 46 46">
        <path d="M25.3 25.4l4-6.8-2.9-4.2h-8.2L15 18.3l4.2 7.1zM36.8 30.4l2.6-4.7-3.9-6.8h-5L26.4 26l2.8 4.4zM35.4 7l-.9 1.4h-4.7l-2.9-5.1h1.2c2.7.7 5.2 2 7.3 3.7zM9.2 30.4h6.6l2.7-4.2-4.2-7.3h-3.9l-3.8 6.6zM7.2 13.1L10.1 9l-.6-1.1c-1.5 1.4-2.8 3-3.8 4.7l1.5.5zM15 8.4l3-5.1c-2.9.7-5.5 2.1-7.7 3.9l.7 1.2h4zM28.8 8.7l-2.5 4.7H19l-3.1-4.5 3.2-5.6h6.6zM36.8 31.4h-7.5l-2.8 4.8 3.1 5.3c3.7-1.3 6.8-3.5 9.2-6.5l-2-3.6zM40.1 12.4a20.4 20.4 0 00-4-4.8l-.8 1.3 2.8 4.1 2-.6zM38.3 14l-1.7 4.8 3.8 6.6 2.4-.1.2-2.6a21 21 0 00-2.3-9.4l-2.4.7zM25.6 36.9h-5.8L17 41.8a19.8 19.8 0 0011.5.1l-2.9-5zM18.8 36.6l-3-5.2H9.2l-2 3.5a20 20 0 008.9 6.5l2.7-4.8zM5.6 25.4l-.1-.1 3.7-6.4H9l-1.7-4.7-2.1-.6a19.7 19.7 0 00-2 11.9h2.4z"/>
    </symbol>
    <symbol id="esports" viewBox="0 0 32 32">
        <path d="M26.63 20.43h-4l.42 2.71h3.54a1.36 1.36 0 1 0 .04-2.71zm3.36-1.36h-7.56l-.03-.14c-.16-1-.55-1.86-1.26-2.57h8.17V4.14H7.83V14c-1.02.09-1.9.23-2.69.41V3.46c0-1.12.9-2.03 2.02-2.03h22.82c1.12 0 2.02.9 2.02 2.03v13.57c0 1.13-.9 2.04-2.02 2.04zm-7.75 7.65c.03.19.05.37.05.55 0 1.79-1.56 3.27-3.54 3.3A4 4 0 0 1 14.94 28l-.26-.74H7.6l-.26.74a4 4 0 0 1-3.82 2.57c-1.98 0-3.53-1.51-3.53-3.3 0-.18.02-.36.05-.55l1.16-7.29c.49-2.72 2.93-4.29 9.9-4.29 7.07 0 9.48 1.59 9.96 4.3l1.17 7.28zM7.49 22.58h1.12c.49 0 .83-.37.83-.82s-.38-.83-.83-.83H7.49v-1.1a.83.83 0 0 0-1.67 0v1.1H4.71c-.46 0-.84.37-.84.82s.38.83.83.83h1.12v1.1a.84.84 0 0 0 1.67 0v-1.1zm6.16.8c0 .76.62 1.37 1.4 1.37s1.39-.58 1.39-1.37a1.4 1.4 0 0 0-2.79 0zm2.23-3.3c0 .75.62 1.37 1.4 1.37s1.38-.59 1.38-1.38a1.4 1.4 0 0 0-2.79 0z"/>
    </symbol>
</svg>
