<svg width="24" height="24" viewBox="0 0 24 24" fill="none" xmlns="http://www.w3.org/2000/svg">
<path d="M15.5395 4.80005C16.2754 4.80005 16.872 5.39663 16.872 6.13249V7.66796L18.2106 6.70344C18.3624 6.59466 18.5515 6.551 18.7338 6.58288C18.9167 6.61406 19.0802 6.71799 19.1862 6.87181L21.2774 9.89978C21.4943 10.2144 21.4153 10.646 21.1007 10.8636L16.872 13.7835V16.6327C16.872 17.3685 16.2754 17.9651 15.5395 17.9651H5.73222C4.99706 17.9651 4.39978 17.3685 4.39978 16.6327V6.13249C4.39978 5.39663 4.99706 4.80005 5.73222 4.80005H15.5395ZM15.4862 6.18585H5.78558V16.5793H15.4862V14.7404L14.0893 15.7049C13.9729 15.7853 13.835 15.8275 13.695 15.8275C13.6569 15.8275 13.6181 15.8241 13.5793 15.8178L10.9802 15.3771C10.7869 15.3446 10.6165 15.2316 10.5118 15.066C10.4058 14.9004 10.376 14.6981 10.428 14.5089L11.123 11.9993C11.1652 11.8475 11.2581 11.7145 11.3856 11.6223L15.4862 8.66711V6.18585ZM8.55738 13.1827C8.94055 13.1827 9.25028 13.4932 9.25028 13.8756C9.25028 14.2308 8.98322 14.5238 8.63828 14.5639L8.55738 14.5685H7.59494C7.21246 14.5685 6.90204 14.2581 6.90204 13.8756C6.90204 13.5205 7.1697 13.2274 7.51417 13.1874L7.59494 13.1827H8.55738ZM16.0363 9.97808L15.4862 10.3751L12.3938 12.6042L11.969 14.1389L13.5336 14.405L15.4862 13.0559L16.872 12.0997L17.2981 11.8053L16.872 11.1886L16.0363 9.97808ZM9.94318 10.4111C10.3263 10.4111 10.6361 10.7216 10.6361 11.104C10.6361 11.4592 10.369 11.7522 10.0241 11.7923L9.94318 11.7969H7.59494C7.21246 11.7969 6.90204 11.4865 6.90204 11.104C6.90204 10.7489 7.1697 10.4559 7.51417 10.4158L7.59494 10.4111H9.94318ZM18.4476 8.24098L17.1616 9.16739L18.4386 11.0174L19.7433 10.1167L18.4476 8.24098ZM12.715 7.63955C13.0975 7.63955 13.4079 7.94996 13.4079 8.33244C13.4079 8.6876 13.1402 8.98063 12.7957 9.02068L12.715 9.02534H7.59515C7.21198 9.02534 6.90225 8.71492 6.90225 8.33244C6.90225 7.97728 7.16931 7.68426 7.51425 7.64421L7.59515 7.63955H12.715Z" fill="white"/>
</svg>
