<svg width="32" height="31" viewBox="0 0 32 31" fill="none" xmlns="http://www.w3.org/2000/svg">
<path fill-rule="evenodd" clip-rule="evenodd" d="M29.1305 12.1497L31.8434 15.0947C31.9443 15.2061 32 15.3505 32 15.5C32 15.6496 31.9443 15.7939 31.8434 15.9054L29.1425 18.7908L29.9986 22.8327C30.0289 22.9793 30.0023 23.1318 29.9241 23.2599C29.8459 23.3881 29.7219 23.4824 29.5766 23.5243L25.7302 24.6331L24.5245 28.5677C24.4796 28.7168 24.3776 28.8427 24.2402 28.9184C24.1027 28.9942 23.9408 29.0138 23.789 28.9731L19.8823 27.9477L16.9162 30.8331C16.8029 30.9411 16.6515 31.001 16.4942 31C16.4151 31.001 16.3367 30.9856 16.264 30.9548C16.1913 30.924 16.126 30.8785 16.0721 30.8212L13.2024 27.9L9.24756 28.985C9.17155 29.0066 9.09193 29.0129 9.01343 29.0035C8.93493 28.994 8.85913 28.9691 8.79054 28.9302C8.72195 28.8913 8.66196 28.8392 8.61412 28.7769C8.56628 28.7146 8.53157 28.6435 8.51205 28.5677L7.36658 24.5258L3.48404 23.5243C3.33144 23.4849 3.20052 23.3879 3.11938 23.2542C3.03823 23.1204 3.01331 22.9606 3.04997 22.8089L4.01458 18.8504L1.15693 15.9054C1.05354 15.7952 0.996094 15.6504 0.996094 15.5C0.996094 15.3497 1.05354 15.2049 1.15693 15.0947L3.91812 12.1497L3.0138 8.17927C2.98016 8.03091 3.00512 7.87545 3.08356 7.74469C3.16201 7.61392 3.28802 7.51774 3.43581 7.47581L7.33041 6.42658L8.47588 2.43235C8.4955 2.35788 8.52981 2.28798 8.57684 2.22666C8.62387 2.16534 8.68268 2.11381 8.7499 2.07503C8.81713 2.03626 8.89144 2.01099 8.96856 2.0007C9.04569 1.9904 9.12411 1.99528 9.19933 2.01504L13.1663 3.05235L16.0721 0.178887C16.126 0.121612 16.1913 0.0761123 16.264 0.0453108C16.3367 0.0145093 16.4151 -0.000911519 16.4942 4.16381e-05C16.5732 -0.000911519 16.6516 0.0145093 16.7243 0.0453108C16.797 0.0761123 16.8623 0.121612 16.9162 0.178887L19.822 3.10004L23.7769 2.01504C23.9288 1.97436 24.0907 1.99398 24.2281 2.06972C24.3655 2.14546 24.4676 2.27132 24.5124 2.42043L25.7182 6.42658L29.5525 7.47581C29.7016 7.51262 29.8303 7.60543 29.9114 7.73454C29.9924 7.86364 30.0194 8.0189 29.9866 8.16735L29.1305 12.1497ZM27.8983 18.452C27.9234 18.3609 27.9696 18.2769 28.0332 18.2066L30.5412 15.5L28.0453 12.71C27.9808 12.6402 27.9341 12.5562 27.9089 12.465C27.8838 12.3738 27.8809 12.278 27.9006 12.1854L28.6964 8.46543L25.0791 7.47581C24.9796 7.44951 24.8886 7.39845 24.8147 7.32748C24.7409 7.25651 24.6866 7.16802 24.6571 7.07043L23.5358 3.31466L19.81 4.32812C19.7066 4.35801 19.5969 4.35936 19.4927 4.33205C19.3886 4.30473 19.294 4.24977 19.2192 4.17312L16.458 1.44273L13.733 4.13735C13.6573 4.20893 13.5646 4.26062 13.4635 4.2877C13.3624 4.31477 13.2561 4.31637 13.1542 4.29235L9.42842 3.31466L8.3553 7.07043C8.32657 7.16969 8.27275 7.26009 8.19892 7.3331C8.12509 7.40611 8.03367 7.45933 7.93329 7.48773L4.31602 8.47735L5.16005 12.1973C5.18284 12.2916 5.18154 12.39 5.15628 12.4837C5.13102 12.5774 5.08259 12.6633 5.01535 12.7339L2.42298 15.5L5.07564 18.2662C5.14299 18.3391 5.19136 18.4272 5.21657 18.5227C5.24178 18.6183 5.24307 18.7185 5.22033 18.8147L4.35219 22.5108L7.96946 23.4408C8.07038 23.4682 8.16236 23.521 8.23635 23.5942C8.31034 23.6674 8.3638 23.7583 8.39147 23.8581L9.4646 27.6616L13.1904 26.6481C13.242 26.6368 13.2955 26.6368 13.3471 26.6481C13.5101 26.6485 13.6662 26.7128 13.7812 26.827L16.5786 29.5574L19.3518 26.8627C19.4281 26.7921 19.5208 26.741 19.6217 26.7139C19.7226 26.6869 19.8286 26.6848 19.9306 26.7077L23.5478 27.6735L24.6812 23.9774C24.7053 23.881 24.7548 23.7927 24.8248 23.7214C24.8947 23.6502 24.9825 23.5986 25.0791 23.572L28.6964 22.5347L27.8886 18.7312C27.8698 18.6386 27.8732 18.5431 27.8983 18.452ZM11.9836 13.1731C11.9991 13.1664 12.0158 13.163 12.0327 13.163H12.6597C12.7803 13.163 12.7803 13.2107 12.7803 13.2942V18.445C12.7803 18.5642 12.7441 18.5642 12.6597 18.5642H12.0568C12.0254 18.5661 11.9941 18.5593 11.9664 18.5446C11.9387 18.5298 11.9157 18.5077 11.9001 18.4807L9.81409 14.9038V18.4807C9.81409 18.6 9.77792 18.6 9.69352 18.6H9.07858C8.95801 18.6 8.95801 18.5642 8.95801 18.4807V13.2584C8.95801 13.1273 8.99418 13.1273 9.07858 13.1273H9.6694C9.7008 13.1254 9.73211 13.1322 9.75981 13.1469C9.78751 13.1617 9.81048 13.1838 9.82615 13.2107L11.9121 16.7877V13.2942C11.9104 13.2776 11.9123 13.2608 11.9176 13.2449C11.9229 13.229 11.9315 13.2144 11.9429 13.2021C11.9542 13.1897 11.9681 13.1798 11.9836 13.1731ZM13.8642 13.1732C13.8797 13.1664 13.8964 13.163 13.9133 13.1631L17.2774 13.3062C17.398 13.3062 17.398 13.3539 17.398 13.4373V13.9619C17.398 14.0812 17.3618 14.0812 17.2774 14.0812H14.7091V15.5119H16.3851C16.402 15.5118 16.4188 15.5153 16.4342 15.522C16.4497 15.5287 16.4636 15.5386 16.475 15.551C16.4863 15.5633 16.4949 15.5779 16.5002 15.5938C16.5055 15.6097 16.5074 15.6265 16.5057 15.6431V16.1677C16.5076 16.1838 16.5059 16.2002 16.5005 16.2155C16.4951 16.2308 16.4863 16.2448 16.4747 16.2563C16.4631 16.2677 16.449 16.2765 16.4335 16.2818C16.418 16.2871 16.4014 16.2888 16.3851 16.2869H14.7091V17.825H17.2774C17.398 17.825 17.398 17.8727 17.398 17.9562V18.4808C17.398 18.6 17.3618 18.6 17.2774 18.6H13.9133C13.897 18.6019 13.8805 18.6002 13.865 18.5949C13.8495 18.5895 13.8354 18.5808 13.8238 18.5693C13.8122 18.5579 13.8033 18.5439 13.798 18.5286C13.7926 18.5132 13.7908 18.4969 13.7928 18.4808V13.2942C13.7911 13.2776 13.7929 13.2608 13.7982 13.2449C13.8035 13.2291 13.8121 13.2145 13.8235 13.2021C13.8349 13.1897 13.8487 13.1799 13.8642 13.1732ZM23.9456 13.163H23.3066C23.2914 13.1613 23.2759 13.1629 23.2613 13.1675C23.2468 13.1721 23.2333 13.1798 23.2219 13.1899C23.2105 13.2 23.2014 13.2124 23.1953 13.2263C23.1891 13.2402 23.1859 13.2552 23.186 13.2703L22.354 16.7638L21.498 13.2703C21.4964 13.2546 21.4918 13.2394 21.4843 13.2255C21.4768 13.2116 21.4666 13.1993 21.4543 13.1893C21.4419 13.1793 21.4277 13.1719 21.4125 13.1674C21.3972 13.1628 21.3812 13.1614 21.3653 13.163H20.7022C20.6863 13.1614 20.6703 13.1628 20.655 13.1674C20.6397 13.1719 20.6255 13.1793 20.6132 13.1893C20.6009 13.1993 20.5907 13.2116 20.5832 13.2255C20.5757 13.2394 20.571 13.2546 20.5695 13.2703L19.6893 16.7638L18.8453 13.2703C18.8438 13.2546 18.8391 13.2394 18.8316 13.2255C18.8242 13.2116 18.8139 13.1993 18.8016 13.1893C18.7893 13.1793 18.7751 13.1719 18.7598 13.1674C18.7445 13.1628 18.7285 13.1614 18.7127 13.163H18.0495H17.9651C17.9594 13.1762 17.9565 13.1904 17.9565 13.2047C17.9565 13.2191 17.9594 13.2333 17.9651 13.2465L19.2432 18.4807C19.2491 18.5134 19.2673 18.5426 19.2942 18.5625C19.321 18.5824 19.3545 18.5916 19.3879 18.588H19.9908C20.0208 18.5882 20.0497 18.5773 20.072 18.5574C20.0943 18.5376 20.1083 18.5102 20.1113 18.4807L20.8951 14.8322L21.8717 18.4807C21.8716 18.4959 21.8748 18.5109 21.881 18.5247C21.8872 18.5386 21.8963 18.551 21.9077 18.5611C21.919 18.5713 21.9325 18.5789 21.9471 18.5835C21.9617 18.5882 21.9771 18.5897 21.9923 18.588H22.6434C22.6593 18.5897 22.6753 18.5882 22.6906 18.5837C22.7058 18.5792 22.72 18.5717 22.7324 18.5617C22.7447 18.5517 22.7549 18.5394 22.7624 18.5255C22.7699 18.5116 22.7745 18.4964 22.7761 18.4807L23.9818 13.3061C23.9913 13.2898 23.9963 13.2713 23.9963 13.2524C23.9963 13.2336 23.9913 13.2151 23.9818 13.1988C23.9818 13.1988 23.9939 13.163 23.9456 13.163Z" fill="white"/>
</svg>
