<svg xmlns="http://www.w3.org/2000/svg" width="92" height="35"  fill-rule="evenodd" xmlns:v="https://vecta.io/nano"><path d="M75.428 14.063l-.096-.077h.128l-.032.077zm-7.8 3.515l-.132-.019-.451-.064-.391.225-.183.105.98-2.137c.024.223.079.432.164.629.08.397.359.724.837.983.164.089.396.182.696.28h-1.52zm-12.383 4.183a8.07 8.07 0 0 0 .806-.453l.078-.052.14-.108.117.155c.186.227.404.42.653.579l-1.794-.121zm-7.855-.453c.03.087.065.168.103.244l-1.87.022c.366-.201.702-.434 1.005-.701.373-.328.695-.706.969-1.131l-.282.614-.014.247c-.015.258.015.493.088.706h0zm-6.952-3.729l.12-.487h.152a2.31 2.31 0 0 0 .321.207c.164.089.396.182.695.279h-1.288zm-13.767-.276l-.174-1.094c.158-.109.425-.296.874-.716l.229-.214-.928 2.025zm-6.825-1.149l-1.263 1.181 1.262-5.119c.127-.35.211-.651.252-.904l.521 3.225h.001l.132.871c-.156.111-.432.303-.905.747h0zm-10.144-.495L8.45 17.553a1.9 1.9 0 0 0-.406-.043H6.294l1.511-3.286h2.832l-.935 1.434zm81.45 2.462c-.308-.361-.732-.542-1.269-.542h-2.255l2.691-5.868c.143-.311.214-.596.214-.853 0-.246-.057-.477-.171-.693v-.005a1.39 1.39 0 0 0-.669-.625 1.48 1.48 0 0 0-.625-.138h-2.885l-.182.052-.106.035c-.167-.057-.352-.086-.557-.086h-2.446l-.181.052c-.274.078-.517.224-.727.438a1.46 1.46 0 0 0-.591-.396l-.241-.093H78.65c-.183 0-.358.03-.526.087l-.053-.087h-5.592l-.171.047-.501.136-.114.041c-.751.281-1.388.642-1.91 1.085-.4.34-.733.726-.999 1.157-.02-.261-.071-.529-.153-.805l-.046-.152-.089-.148c-.21-.349-.46-.633-.752-.853-.314-.237-.669-.396-1.067-.478l-.15-.031h-3.898l-.174.047c-.729.195-1.37.485-1.923.869-.192-.204-.427-.377-.707-.518-.34-.172-.756-.297-1.246-.376l-.207-.021h-.593V3.699c0-1.511-1.225-2.735-2.735-2.735H36.471c-1.511 0-2.735 1.225-2.735 2.735v5.698h-6.08l-.672.141-.268.249-1.084 1.006a2.35 2.35 0 0 0-.076-.291c-.246-.737-.723-1.106-1.433-1.106h-3.053l-.334.217-.746.485c-.211-.467-.655-.702-1.335-.702h-3.837c-.198 0-.408.042-.628.127-.148.057-.292.129-.429.216l-.233.147-.322.468-.019-.053-.002.001c-.255-.604-.729-.906-1.422-.906H7.477l-.141.038c-.375.019-.768.098-1.178.238-.417.143-.858.353-1.321.63l-.119.077c-.414.312-.764.624-1.05.934-.323.351-.568.706-.733 1.065l-.066.132-.021.047-2.462 5.386c-.227.495-.354.969-.381 1.42a2.78 2.78 0 0 0 .304 1.477l.062.098a2.92 2.92 0 0 0 .793.834 2.95 2.95 0 0 0 1.052.461l.16.036h8.393l.792-.516.158-.26.64-1.037c-.247 1.209.236 1.814 1.46 1.814h2.265c.123 0 .244-.013.361-.039a1.35 1.35 0 0 0 .319.039h2.631l.222-.021.589-.102.291-.273 1.116-1.046c.024.162.063.312.116.449.245.638.695.967 1.346.988h.031.006l.01.005h3.016l.078-.051.122.051h6.345l.793-.516.158-.261.639-1.036c-.195.954.069 1.53.788 1.731-6.615.642-10.844 1.54-10.873 1.545l-.652.135-3.774 10.13 2.102-.395c28.216-5.308 44.498-.048 44.545-.033l1.055.332 4.062-9.864-1.418-.305a93.43 93.43 0 0 0-8.988-1.463h.777l.658-.193.181-.067a8.35 8.35 0 0 0 1.176-.643c.295-.197.552-.402.77-.617a1.91 1.91 0 0 0 .182-.142l.069.372c.069.372.239.676.512.913h0a1.51 1.51 0 0 0 1.02.377h4.13l.222-.021.991-.17.202-.052c.642-.219 1.21-.515 1.706-.887a2.56 2.56 0 0 0 .381.398c.344.29.781.515 1.312.675l.189.057h3.358l.183-.052.967-.273.212-.078a7.16 7.16 0 0 0 1.292-.782c.236.278.495.511.777.696.403.265.834.425 1.292.478l.15.01h5.8l.802-.524.912-1.99c.281-.612.217-1.157-.191-1.636h0z" fill="#fff"/><path d="M21.643 32.414l2.793-7.497s22.593-4.206 45.158.645l-2.822 6.852s-16.611-5.365-45.128 0" fill="#e4252e"/><path d="M53.482 2.815c1.326 0 2.402 1.075 2.402 2.402a2.4 2.4 0 0 1-2.402 2.402h0-1.851a2.4 2.4 0 1 1 0-4.803h0zm-16.26 0v2.111l2.268-1.896s.227-.215.652-.215h1.871L39.67 4.779l2.396 2.84h-1.701c-.444 0-.643-.27-.643-.27h0l-1.29-1.532-1.209 1.014v.788h-1.589V2.815h1.589zm11.667 0v1.589h-2.424v3.214h-1.589V4.405h-2.424V2.815h6.437zm4.598 1.586h-1.862c-.45 0-.816.366-.816.816s.366.816.816.816h1.862c.45 0 .816-.366.816-.816s-.366-.816-.816-.816h0z" fill="#f7001b"/><path d="M24.76 25.306l-2.435 6.536c25.7-4.698 41.577-.707 44.191.037l2.469-5.995c-20.971-4.381-41.756-1.008-44.225-.579h0zm-3.529 6.955l2.88-7.731.247-.045c.066-.012 22.679-4.222 45.326.646l.516.111-3.176 7.713-.384-.12c-.048-.015-16.508-5.332-44.917.012l-.764.144.272-.729z" fill="#221e20"/><path d="M11.763 10.719c.219 0 .272.125.157.375h0l-.657 1.432c-.115.25-.306.375-.574.375h0-3.435c-.186-.009-.325.082-.417.273h0l-2.434 5.291c-.071.218-.005.341.197.368h3.443c.22 0 .292.08.22.239h0l-.735 1.602c-.083.182-.199.273-.345.273h0-4.677c-.442-.1-.783-.338-1.024-.716-.246-.473-.211-1.053.103-1.739h0l2.462-5.386.086-.17c.216-.468.676-.968 1.382-1.5.759-.454 1.424-.682 1.995-.682h0l.125-.034zm6.891 0c.229 0 .203.375-.077 1.125h0l-2.211 8.966c-.066.091-.16.136-.282.136h0-2.265c-.195 0-.192-.273.009-.818.289-.981.412-1.516.369-1.602h0-2.083c-.055 0-.26.274-.615.822l-.19.297-.718 1.165-.209.136H7.9l-.063-.102 5.198-7.909 1.429-2.08c.144-.091.262-.136.354-.136h0zm5.467 0c.156 0 .243.262.262.784h0l.346 1.875c.298-.237 1.26-1.112 2.884-2.626h0l.162-.034h2.668l.042.068-5.383 5.046.757 5.046-.105.068h-2.631c-.156 0-.228-.216-.214-.648-.06-.136-.174-.818-.341-2.046h0-.073c-.092.041-1.059.927-2.901 2.659h0l-.198.034h-2.631c-.048 0-.058-.034-.026-.102l5.383-5.046c-.002-.282-.26-1.952-.772-5.012h0l.105-.068zm9.503 0c.083.032.084.134.006.307h0l-4.502 9.819-.157.102h-2.376c-.082-.032-.084-.134-.006-.307h0L31 11.026c.079-.173.175-.275.287-.307h0zm6.946 0c.229 0 .203.375-.077 1.125h0l-2.211 8.966c-.066.091-.16.136-.282.136h0-2.266c-.195 0-.192-.273.01-.818.289-.981.413-1.516.369-1.602h0-2.083c-.093 0-.6.761-1.522 2.284h0l-.209.136h-2.484l-.063-.102 5.198-7.909 1.429-2.08c.144-.091.262-.136.355-.136h0zm9.34 0l.062.102-.735 1.602c-.056.123-.141.202-.255.239h0-3.325c-.439.105-.721.298-.852.579h0l-.328.716c-.173.377.083.616.768.716.185 0 .874.17 2.068.511.49.368.537.982.143 1.841h0l-.656 1.432c-.516 1.123-1.394 1.895-2.635 2.318h0l-.992.17h-4.129c-.132 0-.21-.068-.235-.205h0l.782-1.705.297-.171.241.034h3.215c.423-.073.701-.255.835-.546h0l.391-.852c.142-.309.077-.514-.193-.614-1.994-.432-2.95-.739-2.867-.921-.262-.332-.23-.854.098-1.568h0l.672-1.466c.43-.936 1.247-1.63 2.452-2.08h0l.501-.136h4.677zm8.462 0c.704.114 1.145.336 1.324.668.077.341.001.755-.226 1.241h0l-2.762 6.103c-.261.495-.717.984-1.366 1.466-.75.477-1.425.727-2.025.75h0-4.604c-.073 0-.104-.091-.094-.273h0l4.392-9.58c.115-.25.257-.375.428-.375h0zm8.042 0c.396.082.713.321.95.716.144.482.15.868.017 1.159h0l-.385.92-2.001 4.364c-.553 1.205-.926 1.807-1.121 1.807-.365.405-.927.78-1.685 1.125h0l-.464.136h-3.618a1.49 1.49 0 0 1-1.029-1.261c-.02-.223.075-.564.286-1.023h0l2.61-5.693c.522-1.137 1.462-1.886 2.823-2.25h0zm10.917 0l.062.102-.735 1.602a.42.42 0 0 1-.255.239h0-3.326c-.438.105-.722.298-.851.579h0l-.328.716c-.173.377.083.616.768.716.185 0 .874.17 2.067.511.49.368.537.982.143 1.841h0l-.656 1.432c-.515 1.123-1.393 1.895-2.635 2.318h0l-.991.17h-4.129c-.132 0-.21-.068-.235-.205h0l.782-1.705.297-.171.241.034h3.216c.423-.073.701-.255.834-.546h0l.392-.852c.141-.309.077-.514-.194-.614-1.994-.432-2.95-.739-2.866-.921-.262-.332-.229-.854.098-1.568h0l.672-1.466c.429-.936 1.247-1.63 2.452-2.08h0l.5-.136h4.678zm3.583 0c.082.032.084.134.005.307h0l-3.428 7.398c-.04.364.083.546.371.546h.731c.18 0 .426-.136.736-.409h0l3.455-7.535c.079-.173.175-.275.287-.307h2.266c.171 0 .214.091.131.273h0l-3.502 7.637c-.387.845-1.127 1.527-2.216 2.046h0l-.967.273h-2.996c-.71-.214-1.115-.554-1.212-1.023-.117 0-.051-.409.197-1.227h0l3.512-7.739c.102-.159.224-.239.365-.239h0zm8.151 0c.17 0 .188.148.053.443h0l-3.33 7.261c-.121.318-.024.478.292.478h3.801c.268 0 .355.102.261.307h0l-.75 1.637-.156.102h-5.409c-.509-.059-.958-.355-1.348-.886-.134-.505-.103-.97.093-1.398h0l3.501-7.636c.08-.173.176-.275.287-.307h0zm-32.926 1.872l-.126.003h-1.096l-2.908 6.341c-.031.068.002.102.099.102h1.133c.468 0 .785-.159.95-.477h0l2.517-5.489c.154-.345-.078-.505-.695-.477zm8.067.071h-1.096c-.31.091-.492.25-.548.477h0l-2.345 5.114c-.198.432-.151.648.142.648.904.045 1.419-.069 1.545-.341h0l.177-.307 2.298-5.011c.182-.341.123-.534-.173-.579h0zm-48.689.273h-.037c-.112 0-.406.398-.883 1.193l-1.536 2.489.021.034h1.389l.104-.068.963-3.614-.021-.034zm21.916 0h-.037c-.112 0-.407.398-.883 1.193l-1.536 2.489.021.034h1.389l.104-.068.963-3.614-.02-.034z" fill="#fabf19"/><g fill="#221e20"><path d="M15.764 12.494l.251.406-.048.181-1.007 3.777-.357.233h-1.762l-.13-.21-.021-.034-.124-.2.098-.213c.074-.162.244-.459.51-.889l1.052-1.65.598-.924c.236-.318.455-.478.658-.478h.281zm21.92 0l.245.411-1.053 3.954-.357.233h-1.761l-.274-.444.098-.213c.074-.162.244-.459.51-.89l1.052-1.649.598-.924c.235-.318.455-.478.658-.478h.285zm-23.15 2.546l-.612.968-.124.202h.424zm21.915.001l-.61.965-.125.204h.424z"/><path d="M11.763 10.278c.304 0 .507.121.61.365h0c.076.18.058.391-.053.634h0l-.656 1.432c-.093.204-.223.36-.388.468a1.06 1.06 0 0 1-.586.166h0-3.435c-.012.005-.016.013-.021.023h0l-2.313 5.027h3.122c.238 0 .419.068.543.203h0c.05.056.085.113.11.174l1.74-2.628 2.226-3.441.009-.012 1.48-2.155.078-.049a1.58 1.58 0 0 1 .274-.14.89.89 0 0 1 .315-.065h3.837c.429 0 .626.251.592.752-.015.223-.098.536-.246.939h0l-1.976 8.013 3.425-3.187 1.222-1.129-.18-1.264-.039-.247-.585-3.578.458-.298h2.796c.289 0 .488.167.599.499a2.56 2.56 0 0 1 .101.677h0l.2 1.087.361-.327 2.02-1.866.332-.07h2.954l.137.224a.77.77 0 0 1 .34-.207h0l.061-.017H33.7l.081.031c.226.087.341.255.346.504a.93.93 0 0 1-.097.396h0L30.459 19l1.9-2.868 2.227-3.442 1.48-2.155.077-.049a1.58 1.58 0 0 1 .274-.14h0a.85.85 0 0 1 .315-.065h3.837c.429 0 .626.251.591.752-.015.223-.098.536-.246.939h0l-1.67 6.771.006-.012.552-.317.352.05h3.153c.135-.026.242-.066.323-.118.068-.044.118-.101.149-.169h0l.401-.875-2.132-.538c-.268-.085-.468-.164-.601-.236-.218-.118-.344-.258-.378-.422-.133-.227-.19-.494-.172-.8.02-.315.123-.677.309-1.084h0l.673-1.466a3.94 3.94 0 0 1 1.051-1.376c.446-.379.996-.69 1.648-.933h0l.038-.014.558-.152h4.982l.129.212.063.102.121.199-.097.212-.735 1.602a.9.9 0 0 1-.204.29.82.82 0 0 1-.318.185h0l-.07.022h-3.34c-.14.038-.253.086-.341.146a.44.44 0 0 0-.159.177h0-.001l-.321.701.02.009c.087.04.212.072.376.098.134.007.377.054.727.141l1.427.387.075.022.068.051c.352.264.545.616.578 1.055.029.38-.071.82-.3 1.32h0l-.656 1.432c-.285.62-.669 1.144-1.154 1.57a5.08 5.08 0 0 1-1.739.983h0l-.067.017-.991.17-.074.007h-4.129c-.174 0-.323-.053-.445-.16-.02-.017-.036-.036-.053-.055a.75.75 0 0 1-.193.136.8.8 0 0 1-.353.079h0-2.266c-.616 0-.75-.468-.406-1.405l.279-1.016H34.03c-.11 0 .082.124-.083.373l-1.064 1.698-.053.087-.083.054-.321.208h-2.859l-.134-.218-.335.218h-2.59l-.083-.035-.02-.01a.53.53 0 0 1-.208-.162h0l-.101.066-.216.14h-2.76l-.003-.002h-.016c-.264-.008-.448-.149-.554-.423-.056-.145-.084-.333-.084-.564h0l.001-.037c-.036-.128-.077-.33-.123-.605l-.108-.703-.238.218-2.2 2.052-.328.057-.074.007h-2.631a.49.49 0 0 1-.21-.046h0a.54.54 0 0 1-.084-.051h0l-.033.018c-.109.053-.227.079-.353.079h0-2.265c-.617 0-.75-.468-.406-1.405l.278-1.016h-1.576c-.11 0 .082.125-.084.375l-1.115 1.783-.084.054-.32.208H7.656l-.073-.118a.73.73 0 0 1-.399.118h0-4.72l-.053-.012c-.277-.063-.524-.17-.742-.323a2.05 2.05 0 0 1-.555-.586h0l-.021-.033a1.92 1.92 0 0 1-.207-1.019c.02-.344.121-.713.301-1.107h0l2.469-5.402.08-.158a3.3 3.3 0 0 1 .582-.839 6.97 6.97 0 0 1 .933-.827h0l.04-.026c.407-.244.792-.427 1.152-.551a3.36 3.36 0 0 1 1.014-.194h0l.127-.035zm46.61 0l.069.007c.398.064.728.162.988.294.303.153.521.353.655.6h0l.028.051.014.061a1.75 1.75 0 0 1 .03.557c.19-.234.403-.448.641-.638.518-.413 1.147-.719 1.886-.916h0l.058-.015h3.711l.05.01a1.76 1.76 0 0 1 .712.32c.203.153.379.353.528.601h0l.03.049.015.051c.083.277.126.535.13.772.004.253-.039.48-.129.682h0l-.385.921-.007.014-2.001 4.364-.721 1.404c-.184.298-.366.495-.544.592a4.27 4.27 0 0 1-.707.579c-.3.2-.651.392-1.052.574h0l-.06.022-.464.136-.065.019h-3.749l-.076-.028c-.37-.134-.667-.338-.89-.612a2.03 2.03 0 0 1-.423-.996h0l-.003-.028a1.13 1.13 0 0 1-.004-.119l-.144.163c-.245.263-.541.523-.889.781h0l-.026.017c-.405.258-.789.454-1.153.589a3.52 3.52 0 0 1-1.092.23h0l-.015.002h-4.604c-.245 0-.409-.122-.494-.366a.98.98 0 0 1-.04-.372h0l.005-.082 4.427-9.656a1.26 1.26 0 0 1 .303-.429c.155-.136.33-.204.524-.204h4.933zm19.206 0l.305.499.031-.057a1.04 1.04 0 0 1 .297-.31h0a.79.79 0 0 1 .438-.132h2.344l.08.031a.5.5 0 0 1 .344.504c.002.117-.031.249-.098.396h0v.002l-3.391 7.318h.665c.016 0 .051-.015.105-.045a1.8 1.8 0 0 0 .272-.194h0l3.413-7.444a1.19 1.19 0 0 1 .209-.325c.104-.112.224-.187.358-.225h0l.06-.017h2.326c.245 0 .421.09.527.267h0l.022-.026c.105-.112.224-.187.355-.225h0l.061-.017h2.764a.61.61 0 0 1 .259.056.53.53 0 0 1 .256.239h0a.61.61 0 0 1 .068.284c0 .134-.044.297-.131.488h0l-3.263 7.115h3.626c.269 0 .469.077.601.232.165.194.185.427.06.699h0l-.804 1.754-.372.243h-5.539l-.05-.003a2.09 2.09 0 0 1-.91-.336 2.93 2.93 0 0 1-.743-.727h0l-.049-.067-.022-.081a2.77 2.77 0 0 1-.095-.675 4.33 4.33 0 0 1-.54.6c-.403.372-.897.697-1.48.975h0l-.071.026-1.027.29h-3.117l-.063-.019c-.414-.124-.746-.292-.995-.502-.215-.182-.368-.393-.458-.634-.123-.131-.158-.359-.105-.684l.006-.036a4.47 4.47 0 0 1-.641.699 5.08 5.08 0 0 1-1.74.983h0l-.067.017-.991.17-.074.007h-4.13c-.174 0-.322-.053-.445-.16h0l-.065-.065c-.08-.092-.132-.206-.157-.342h0l-.025-.136.899-1.961.549-.315.355.051h3.154a.92.92 0 0 0 .322-.118h0a.41.41 0 0 0 .15-.169h0l.392-.852.011-.023-2.137-.54a3.65 3.65 0 0 1-.598-.235c-.217-.117-.343-.258-.376-.421-.134-.227-.191-.494-.172-.8.02-.316.123-.677.309-1.084h0l.673-1.466a3.94 3.94 0 0 1 1.05-1.376c.446-.379.996-.69 1.648-.933h0l.038-.014.558-.152h4.983zm-19.233.882h-4.867a.56.56 0 0 0-.067.116h0l-4.231 9.229h4.137a2.62 2.62 0 0 0 .804-.177 5.25 5.25 0 0 0 .967-.491 5.63 5.63 0 0 0 .76-.668 3.05 3.05 0 0 0 .463-.63h0l2.757-6.093c.101-.214.165-.403.196-.572a1.06 1.06 0 0 0 .014-.325.7.7 0 0 0-.246-.186 2.48 2.48 0 0 0-.688-.204h0zm8.026 0h-3.518c-.596.166-1.1.412-1.509.739-.416.332-.74.75-.971 1.253h0l-2.61 5.693a3.75 3.75 0 0 0-.206.535.89.89 0 0 0-.043.255 1.17 1.17 0 0 0 .235.559 1.1 1.1 0 0 0 .437.312h3.481l.368-.108c.345-.158.645-.323.899-.492s.453-.338.613-.515h0l.132-.146h.195c.064 0-.047-.081.053-.242.177-.286.4-.722.669-1.307h0l1.994-4.35.385-.92.007-.014c.039-.086.058-.193.056-.32a1.9 1.9 0 0 0-.08-.478 1.17 1.17 0 0 0-.274-.302.88.88 0 0 0-.313-.151h0zm-54.965 0h-3.72l-.125.034H7.51c-.238 0-.5.049-.786.146-.297.102-.616.254-.958.456-.326.247-.593.483-.802.71-.199.216-.343.42-.431.613h0l-.007.014-.086.17-2.455 5.371c-.134.293-.208.557-.222.793a1.06 1.06 0 0 0 .108.555c.085.127.185.231.3.311a1.17 1.17 0 0 0 .383.173h4.569l.007-.014.558-1.217H4.601l-.057-.005c-.251-.033-.428-.148-.531-.341-.091-.171-.1-.37-.027-.597h0l.019-.048 2.434-5.291c.086-.178.195-.308.332-.397a.82.82 0 0 1 .485-.133h0v-.001h3.435a.2.2 0 0 0 .104-.021c.022-.014.05-.049.071-.095h0l.542-1.183zm6.929 0h-3.519l-.046.024-1.365 1.987-2.236 3.452-2.577 3.883h1.663l.014-.009 1.027-1.64c.343-.514.615-.771.818-.771h2.355l.122.245c.068.137.06.39-.025.76l-.316 1.163-.009.028c-.055.151-.65.226-.423.226h2.169l2.177-8.815.17-.531zm62.037 0H78.68l-.01.013-3.488 7.686-.21.816.033.161c.027.134.104.253.229.359.144.122.35.225.617.311h2.874l.865-.244c.493-.237.904-.508 1.233-.812a3.15 3.15 0 0 0 .743-1.004h0l3.341-7.286H83.21l-.023.047-.002.002-3.494 7.62-.071.062a2.9 2.9 0 0 1-.493.36 1.11 1.11 0 0 1-.533.159h0-.731c-.298 0-.522-.111-.672-.331-.123-.181-.169-.416-.136-.704h0l.008-.072 3.31-7.144zm-31.039 0h-4.043l-.438.119c-.539.205-.99.461-1.353.769s-.633.661-.82 1.069h0l-.672 1.466c-.14.307-.217.563-.23.77-.009.151.016.266.077.343h0l.061.078a3.5 3.5 0 0 0 .399.148c.455.145 1.174.324 2.156.536h0l.06.019.077.032c.22.101.366.255.436.461.063.185.054.388-.028.611h0l-.045.105-.391.852a1.27 1.27 0 0 1-.469.541c-.19.124-.421.21-.691.256h0l-.074.007H40.13l-.062-.005-.092-.013-.042.024-.531 1.157h3.739l.916-.157c.55-.191 1.019-.458 1.407-.799a3.76 3.76 0 0 0 .937-1.274h0l.656-1.432c.165-.36.238-.656.22-.889a.55.55 0 0 0-.171-.37l-1.31-.356-.551-.114-.062-.005c-.259-.038-.474-.096-.645-.174-.184-.085-.323-.195-.417-.332a.75.75 0 0 1-.127-.553h0a1 1 0 0 1 .084-.275h0l.328-.716a1.3 1.3 0 0 1 .462-.537c.185-.126.414-.222.688-.287h0l.058-.014h3.233l.487-1.061zm-25.422 0h-2.055l.505 3.107.198 1.53.001.096-.04.089c-.041.09-.53.574-1.469 1.454l-3.302 3.07h1.612l.027-.005 2.013-1.876.915-.775.086-.038h.549l.052.382.21 1.418.099.509.039.089-.003.102.001.143.001.05h2.071l-.171-.879-.603-3.855.055-.121c.037-.08.524-.561 1.463-1.44l3.272-3.05h-1.615l-1.847 1.705-.973.858-.573.455-.479-2.596-.007-.064a2.79 2.79 0 0 0-.032-.359h0zm64.724 0H86.5l-.025.05h-.001l-3.5 7.635a1.46 1.46 0 0 0-.13.517 1.76 1.76 0 0 0 .043.506c.149.192.304.341.465.446a1.2 1.2 0 0 0 .5.192h5.215l.533-1.163h-3.517c-.322 0-.551-.11-.686-.331-.124-.203-.13-.451-.018-.744h0l.012-.026 3.247-7.081zm-48.385 0h-3.518l-.002.005c-.014.004-.029.011-.046.02h0l-1.365 1.987-2.229 3.44-2.585 3.894h1.663l.015-.009 1.028-1.642c.341-.513.613-.769.817-.769h2.353l.123.241c.07.138.062.392-.023.763l-.316 1.163-.009.028c-.056.151-.65.226-.423.226h2.169l2.178-8.815.17-.531zm-7.166 0h-1.663l-.024.048-4.263 9.297H28.8l4.285-9.345zm43.67 0h-4.044l-.438.119c-.539.204-.99.461-1.353.769a3.04 3.04 0 0 0-.819 1.069h0l-.672 1.466c-.14.307-.217.563-.23.771-.009.151.016.266.077.343h0l.062.078a3.43 3.43 0 0 0 .394.147c.455.145 1.175.325 2.159.538h0l.058.017c.271.1.444.269.52.509h0l.026.106a1.03 1.03 0 0 1-.104.594h0l-.392.852a1.26 1.26 0 0 1-.467.541h0a1.83 1.83 0 0 1-.693.256h0l-.074.007h-3.216l-.062-.005-.09-.013-.046.026-.53 1.155h3.739l.917-.157a4.18 4.18 0 0 0 1.407-.799 3.76 3.76 0 0 0 .936-1.274h0l.656-1.432c.165-.359.238-.656.22-.889a.55.55 0 0 0-.171-.37l-1.309-.355-.551-.114-.062-.005a2.39 2.39 0 0 1-.645-.174c-.184-.084-.323-.195-.417-.331a.75.75 0 0 1-.127-.553 1.01 1.01 0 0 1 .084-.275h0l.328-.716a1.3 1.3 0 0 1 .461-.537c.185-.126.415-.222.688-.287h0l.058-.014h3.234l.487-1.061zm-46.506.446l-3.482 3.245-1.202 1.101.556 3.548.115.856zm46.76 1.095a.89.89 0 0 1-.155.195.82.82 0 0 1-.316.185h0l-.07.022h-3.343c-.14.038-.254.086-.341.146a.44.44 0 0 0-.158.175h0l-.322.703.02.009a1.49 1.49 0 0 0 .376.098c.135.007.377.054.727.141l1.426.387.076.022.067.051c.345.259.536.603.576 1.031h0zm-20.993-.546c.319-.013.571.022.754.103a.74.74 0 0 1 .29.222.65.65 0 0 1 .136.376c.006.125-.022.257-.084.395h0l-.002.003-2.525 5.51a1.24 1.24 0 0 1-.556.547c-.222.112-.484.168-.785.168h0-1.133c-.173 0-.311-.054-.414-.162-.155-.161-.183-.348-.086-.563h0l.002-.002 3.026-6.599h1.377zm8.193.067l.065.005c.108.016.206.048.293.095a.65.65 0 0 1 .299.315.71.71 0 0 1 .05.406h0c-.018.119-.064.249-.139.392h0l-2.313 5.038-.162.281c-.125.263-.385.439-.781.526-.293.064-.679.085-1.159.063h0l-.118-.007a.74.74 0 0 1-.213-.061.61.61 0 0 1-.287-.263.69.69 0 0 1-.085-.341c0-.166.054-.366.161-.6h0l2.33-5.08a.98.98 0 0 1 .304-.471h0c.139-.122.317-.215.535-.279h0l.065-.019h1.156zm-7.964.811a2.48 2.48 0 0 0-.21.001h0l-.019.002H55.2l-2.55 5.561h.593c.167 0 .298-.024.392-.071.072-.036.128-.092.167-.168h.001zm7.717.071h-.783a.46.46 0 0 0-.146.079h0c-.022.018-.035.038-.041.061h0l-.028.079-2.36 5.148c.307.006.55-.01.727-.049l.175-.045.019-.034.165-.287 2.27-4.951z"/></g><path d="M64.462 26.241l3.278.67-.287.624-2.498-.516-.383.897 1.886.38-.28.628-1.876-.375-.377.899 2.498.502-.278.628-3.225-.63 1.542-3.707zm-36.127-.257l.342.513-.452.933-.501.359.287.465-.461.992-.883.686-2.918.48 1.754-4.024 2.833-.404zm-1.336 2.332l-1.779.273-.436 1.004 1.842-.292.304-.231.234-.512-.165-.242zm6.883-3.062l-.166 3.719-.826.094.043-.984-1.772.222-.877 1.103-.823.121 3.428-4.166.992-.109zm25.429.261l3.625.521-.323.587-1.418-.216-1.487 2.87-.745-.098 1.467-2.881-1.422-.187.303-.598zm-4.479-.482l3.282.344-.389.595-2.502-.264-.525.857 1.888.186-.378.6-1.877-.179-.515.861 2.5.236-.374.601-3.226-.284 2.116-3.552zm-13.894-.23l-.387.648-2.255.123-.456.294-.199.356.149.253 1.745-.109.333.615-.542.95-1.06.697-2.697.216.344-.664 2.364-.184.448-.292.229-.409-.145-.254-1.735.12-.348-.605.498-.908 1.086-.708 2.628-.138zm4.954-.205l.446.687-1.136 2.414-.532.344.244.761-.826.007-.161-.419-1.952.045-.46-.668 1.051-2.452 1.082-.706 2.244-.013zm3.152.093l.768.03-1.484 2.759.182.324 1.331.051.517-.294 1.538-2.73.768.05-1.702 2.977-1.112.635-2.012-.071-.393-.699 1.599-3.031zm-21.395 2.02l-1.696.245-.428.944 1.6-.241.432-.326.215-.454-.124-.169zm17.584-1.483l-1.514.013-.5.324-.837 1.913.213.31 1.103-.023-.167-.47.838-.011.082.236.116-.08.875-1.896-.209-.315zm-12.22.861l-1.256 1.502 1.189-.145.067-1.357z" fill="#fff"/></svg>