<svg xmlns="http://www.w3.org/2000/svg" width="45" height="48"  fill-rule="evenodd" xmlns:v="https://vecta.io/nano"><path d="M21.929 47.256C-.004 46.815-4.598 20.943 6.954 9.819l3.922 3.851C-.034 25.436 9.383 41.319 22 41.694c12.244.363 23.936-14.57 12.051-27.953l3.922-3.922c12.123 11.98 6.353 37.886-16.044 37.436" fill="#00416a"/><path d="M30.2 33.208l-3.708-3.922c-2.852 2.329-10.165 2.555-9.413-4.778.489-4.768 5.966-6.156 9.27-2.924l3.851-3.922c-5.942-5.728-18.367-3.625-18.682 7.63-.29 10.362 12.241 13.691 18.682 7.915" fill="#b82e4d"/><path fill="#00b96f" d="M22.499 7.609l-2.781 1.569.356-3.138-1.925-2.21 2.995-.428L22.428.763l1.569 2.781 2.71.428-1.925 2.211.428 2.995z"/></svg>