<svg width="142" height="55" viewBox="0 0 142 55" fill="none" xmlns="http://www.w3.org/2000/svg">
<path d="M57.4846 21.4583C57.4846 22.1595 58.2839 22.5076 59.1028 22.5076C59.9217 22.5076 60.6671 22.1595 60.6671 21.5269C60.6671 20.5462 59.5245 20.507 58.7841 20.4628C56.9158 20.3451 55.0475 19.5998 55.0475 17.4667C55.0475 15.2503 56.9305 14.1274 59.0146 14.1274C60.976 14.1274 62.9865 15.2503 62.9374 17.4667H60.4415C60.4415 16.7655 59.7697 16.486 59.0538 16.486C58.4555 16.486 57.6661 16.6478 57.6661 17.4177C57.6661 18.1042 58.2496 18.266 59.2303 18.369C61.4026 18.5602 63.3052 19.0702 63.3052 21.5514C63.3052 23.6943 61.2163 24.8222 59.1273 24.8222C56.9648 24.8222 54.8955 23.7385 54.9397 21.4485L57.4846 21.4583Z" fill="white"/>
<path d="M73.9759 14.348H74.9272V24.5966H72.2547V19.8842L70.0824 22.1595H69.7735L67.6012 19.8842V24.5966H64.9287V14.348H65.8751L69.9353 18.7613L73.9759 14.348Z" fill="white"/>
<path d="M79.2179 23.3265L78.6344 24.5965H75.8442V24.2336L80.5321 14.2744H81.758L86.4017 24.2336V24.5965H83.641L83.0427 23.3265H79.2179ZM80.081 21.0953H82.1944L81.1303 18.6435L80.081 21.0953Z" fill="white"/>
<path d="M96.003 24.2043V24.5819H93.1737L91.4182 21.3847H90.0206V24.5819H87.3433V14.3628C88.8585 14.3628 90.3345 14.3628 91.8399 14.3628C92.3244 14.338 92.8087 14.4142 93.2622 14.5865C93.7157 14.7589 94.1284 15.0235 94.4742 15.3638C94.82 15.7041 95.0913 16.1125 95.2709 16.5631C95.4505 17.0138 95.5345 17.4968 95.5176 17.9816C95.5263 18.5648 95.3923 19.1413 95.1274 19.6609C94.8624 20.1805 94.4746 20.6275 93.9975 20.963L96.003 24.2043ZM91.8301 19.2125C91.9892 19.2067 92.1455 19.1681 92.289 19.0992C92.4326 19.0303 92.5604 18.9324 92.6644 18.8118C92.7685 18.6912 92.8465 18.5505 92.8936 18.3983C92.9407 18.2462 92.9559 18.086 92.9383 17.9277C92.9563 17.7716 92.941 17.6134 92.8935 17.4637C92.846 17.3139 92.7673 17.1758 92.6626 17.0587C92.5579 16.9415 92.4296 16.8478 92.2861 16.7837C92.1426 16.7197 91.9872 16.6867 91.8301 16.6871H89.9765V19.2125H91.8301Z" fill="white"/>
<path d="M96.5273 16.7165V14.3774H104.118V16.7165H101.622V24.5966H99.038V16.7165H96.5273Z" fill="white"/>
<path d="M107.521 21.4583C107.521 22.1595 108.321 22.5076 109.139 22.5076C109.958 22.5076 110.704 22.1595 110.704 21.5269C110.704 20.5462 109.561 20.507 108.821 20.4628C106.952 20.3451 105.084 19.5998 105.084 17.4667C105.084 15.2503 106.967 14.1274 109.051 14.1274C111.013 14.1274 113.023 15.2503 112.974 17.4667H110.478C110.478 16.7655 109.806 16.486 109.09 16.486C108.492 16.486 107.703 16.6478 107.703 17.4177C107.703 18.1042 108.286 18.266 109.267 18.369C111.444 18.5602 113.342 19.0702 113.342 21.5514C113.342 23.6943 111.253 24.8222 109.164 24.8222C107.075 24.8222 104.932 23.7385 104.976 21.4485L107.521 21.4583Z" fill="white"/>
<path d="M119.648 24.7878C116.951 24.7878 114.426 23.0372 114.426 19.487C114.426 15.9368 117.034 14.1715 119.692 14.1715C122.35 14.1715 124.905 15.9564 124.905 19.487C124.905 22.6106 122.742 24.7878 119.648 24.7878ZM119.648 22.2625C120.003 22.2607 120.353 22.1861 120.678 22.0433C121.002 21.9005 121.294 21.6925 121.535 21.4323C121.776 21.1721 121.961 20.8651 122.078 20.5305C122.196 20.1959 122.243 19.8407 122.218 19.487C122.218 17.6629 120.948 16.7165 119.678 16.7165C118.408 16.7165 117.079 17.6187 117.079 19.487C117.079 21.3553 118.349 22.2723 119.663 22.2723L119.648 22.2625Z" fill="white"/>
<path d="M132.496 21.2915H129.225V24.5917H126.572V14.3774H132.947V16.7018H129.24V18.9623H132.511L132.496 21.2915Z" fill="white"/>
<path d="M133.707 16.7165V14.3774H141.283V16.7165H138.787V24.5966H136.202V16.7165H133.707Z" fill="white"/>
<path d="M60.1818 30.3289C62.1824 30.3289 64.139 31.2655 64.7225 33.3937H63.526C62.9866 31.9226 61.7166 31.4322 60.1818 31.4322C57.8035 31.4322 56.3177 33.2417 56.3177 35.566C56.3177 37.8903 57.7888 39.6948 60.1818 39.6948C62.2854 39.6948 63.7908 38.5719 63.9772 36.3555H60.3436V35.3159H65.105C65.17 36.2203 65.0344 37.1278 64.7078 37.9736C63.9477 39.8566 62.256 40.8373 60.1818 40.8373C57.2935 40.8373 55.0869 38.7337 55.0869 35.566C55.0869 32.3982 57.3377 30.3289 60.1818 30.3289Z" fill="white"/>
<path d="M68.0378 38.1697L66.8413 40.6951H65.5713V40.5332L70.3278 30.4318H70.8819L75.5992 40.5332V40.6951H74.3438L73.1474 38.1697H68.0378ZM68.4448 37.1154H72.7355L70.5926 32.3442L68.4448 37.1154Z" fill="white"/>
<path d="M85.9898 30.4613H86.4801V40.6951H85.2542V33.3397L81.8953 37.954H81.704L78.345 33.3397V40.6951H77.1191V30.4613H77.6095L81.8119 36.1691L85.9898 30.4613Z" fill="white"/>
<path d="M93.1149 39.7144V40.6951H88.3535V39.7144H90.1237V31.4371H88.4712V30.4564H92.9972V31.4371H91.3496V39.7144H93.1149Z" fill="white"/>
<path d="M96.1204 32.9719L96.2234 35.7768V40.6804H95.0122V30.4318H95.4339L102.093 38.1697L101.961 35.2276V30.4612H103.187V40.7098H102.789L96.1204 32.9719Z" fill="white"/>
<path d="M110.39 30.3289C112.391 30.3289 114.348 31.2655 114.931 33.3937H113.735C113.195 31.9226 111.925 31.4322 110.39 31.4322C108.012 31.4322 106.521 33.2417 106.521 35.566C106.521 37.8903 107.992 39.6948 110.39 39.6948C112.494 39.6948 113.999 38.5719 114.186 36.3555H110.552V35.3159H115.294C115.356 36.2202 115.221 37.1271 114.897 37.9736C114.137 39.8566 112.445 40.8373 110.371 40.8373C107.482 40.8373 105.276 38.7337 105.276 35.566C105.276 32.3982 107.522 30.3289 110.39 30.3289Z" fill="white"/>
<path d="M23.1792 24.9349C22.1212 24.5194 21.21 23.7998 20.5607 22.8668C19.9114 21.9338 19.5531 20.8294 19.5309 19.6929C19.5309 18.2117 20.1194 16.791 21.1668 15.7436C22.2142 14.6962 23.6349 14.1077 25.1162 14.1077C25.8599 14.0974 26.5972 14.2462 27.2787 14.5442C31.7507 16.5693 44.9316 23.1255 44.9316 23.1255C46.0476 23.7669 46.9747 24.6912 47.6195 25.8052C48.2644 26.9192 48.6041 28.1836 48.6044 29.4707V38.5866C48.6047 39.586 48.342 40.5679 47.8428 41.4338C47.3436 42.2997 46.6254 43.019 45.7604 43.5196L26.3666 54.2389C25.4999 54.7375 24.5175 55 23.5176 55C22.5177 55 21.5353 54.7375 20.6686 54.2389L1.37287 42.8919C1.19301 42.7918 1.03617 42.6551 0.912471 42.4906C0.788771 42.326 0.700967 42.1374 0.65475 41.9368C0.608533 41.7362 0.604922 41.5282 0.644155 41.3261C0.683389 41.1241 0.764592 40.9325 0.882512 40.7638L0.84329 40.8226C1.58103 39.7037 2.61045 38.8077 3.82035 38.2313C5.03026 37.6548 6.37466 37.4199 7.70834 37.5519C8.76752 37.6446 9.79108 37.9802 10.6995 38.5326C12.5482 39.6752 17.849 43.4656 23.395 43.4656C26.4641 43.4703 29.4473 42.4523 31.8733 40.5725C33.7514 39.1014 34.9626 36.3162 34.9626 33.7565C34.9635 32.6141 34.624 31.4973 33.9872 30.5488C33.3505 29.6002 32.4455 28.863 31.3879 28.4312L23.1792 24.9349Z" fill="#F0013A"/>
<path d="M20.6539 19.4772C20.6531 19.4903 20.6531 19.5034 20.6539 19.5165V19.4871V19.4772Z" fill="url(#paint0_linear_2468_3578)"/>
<path d="M20.561 19.4282C20.5623 19.4396 20.5623 19.4511 20.561 19.4625V19.4282Z" fill="url(#paint1_linear_2468_3578)"/>
<path d="M26.347 54.2389C25.4803 54.7375 24.4979 55 23.498 55C22.4981 55 21.5157 54.7375 20.649 54.2389L1.35335 42.8919C1.17349 42.7918 1.01663 42.6551 0.892931 42.4906C0.769231 42.326 0.681428 42.1374 0.635211 41.9368C0.588993 41.7362 0.585397 41.5282 0.624631 41.3261C0.663864 41.1241 0.745067 40.9325 0.862987 40.7638L0.82375 40.8226C1.56149 39.7037 2.59091 38.8077 3.80081 38.2313C5.01072 37.6548 6.35512 37.4199 7.6888 37.5519C8.74798 37.6446 9.77154 37.9802 10.68 38.5326C12.5287 39.6752 17.8295 43.4656 23.3754 43.4656C26.4445 43.4703 29.4277 42.4523 31.8538 40.5725C33.7319 39.1014 34.9431 36.3162 34.9431 33.7565C34.944 32.6141 34.6044 31.4973 33.9677 30.5488C33.331 29.6002 32.426 28.863 31.3683 28.4312L23.1842 24.9251C22.1262 24.5096 21.215 23.79 20.5657 22.857C19.9164 21.924 19.558 20.8196 19.5359 19.6831C19.535 18.9454 19.6805 18.2149 19.9642 17.5339C20.2479 16.8529 20.664 16.235 21.1884 15.7161C20.6362 16.2705 20.2318 16.9545 20.0123 17.7056C19.7928 18.4567 19.7652 19.2508 19.932 20.0153C20.0989 20.7798 20.4549 21.4903 20.9673 22.0816C21.4798 22.6729 22.1325 23.1262 22.8655 23.4001L34.4723 27.8133C36.555 28.5943 38.3704 29.9556 39.7036 31.7361C41.0368 33.5166 41.8319 35.6419 41.9949 37.8602C42.158 40.0785 41.682 42.2972 40.6235 44.2534C39.5649 46.2097 37.968 47.8218 36.0219 48.8988L26.347 54.2389Z" fill="url(#paint2_linear_2468_3578)"/>
<path d="M45.6624 11.2636C45.8797 11.4083 46.0578 11.6044 46.181 11.8346C46.3042 12.0647 46.3686 12.3217 46.3685 12.5827C46.3681 12.7931 46.3265 13.0013 46.2459 13.1957C45.6647 14.6591 44.6053 15.8828 43.24 16.6674C42.5128 17.0273 41.7215 17.2395 40.9118 17.2916C40.1021 17.3438 39.2901 17.235 38.5228 16.9714C38.0089 16.7934 37.5234 16.5424 37.0811 16.2261C35.561 15.1179 30.1278 11.4206 24.7289 11.4206C21.7257 11.4114 18.8006 12.3767 16.3928 14.1715C14.6275 15.4906 13.4506 17.9767 13.3672 20.3157V20.8061C13.3777 21.9057 13.7192 22.9766 14.3472 23.8793C14.9753 24.7819 15.8607 25.4745 16.888 25.8666L25.0378 29.2109C26.0656 29.588 26.957 30.2639 27.5976 31.1517C28.2381 32.0396 28.5984 33.0987 28.6322 34.1929C28.6207 34.9051 28.4684 35.6079 28.1839 36.2609C27.8993 36.9139 27.4883 37.504 26.9745 37.9973C26.4607 38.4906 25.8543 38.8772 25.1903 39.1349C24.5263 39.3926 23.8178 39.5162 23.1058 39.4986C22.3756 39.51 21.6509 39.3697 20.9776 39.0867C16.5644 37.1645 3.60416 30.932 3.60416 30.932C2.52026 30.3393 1.61454 29.4675 0.980842 28.407C0.347143 27.3466 0.00850694 26.1359 0 24.9006V16.3879C0.00344152 15.3937 0.2674 14.4178 0.76556 13.5574C1.26372 12.697 1.97869 11.9823 2.83919 11.4843L22.233 0.765014C23.0979 0.263897 24.0799 0 25.0795 0C26.0792 0 27.0611 0.263897 27.926 0.765014L45.6624 11.2636Z" fill="#E90531"/>
<path d="M45.6624 11.2636C45.8797 11.4083 46.0578 11.6044 46.181 11.8346C46.3042 12.0647 46.3686 12.3217 46.3685 12.5827C46.3681 12.7931 46.3265 13.0013 46.2459 13.1957C45.6647 14.6591 44.6053 15.8828 43.24 16.6674C42.5128 17.0273 41.7215 17.2395 40.9118 17.2916C40.1021 17.3438 39.2901 17.235 38.5228 16.9714C38.0089 16.7934 37.5234 16.5424 37.0811 16.2261C35.561 15.1179 30.1278 11.4206 24.7289 11.4206C21.7257 11.4114 18.8006 12.3767 16.3928 14.1715C14.6275 15.4906 13.4506 17.9767 13.3672 20.3157V20.8061C13.3777 21.9057 13.7192 22.9766 14.3472 23.8793C14.9753 24.7819 15.8607 25.4745 16.888 25.8666L25.0378 29.2109C26.0656 29.588 26.957 30.2639 27.5976 31.1517C28.2381 32.0396 28.5984 33.0987 28.6322 34.1929C28.6207 34.9051 28.4684 35.6079 28.1839 36.2609C27.8993 36.9139 27.4883 37.504 26.9745 37.9973C26.4607 38.4906 25.8543 38.8772 25.1903 39.1349C24.5263 39.3926 23.8178 39.5162 23.1058 39.4986C22.3756 39.51 21.6509 39.3697 20.9776 39.0867C16.5644 37.1645 3.60416 30.932 3.60416 30.932C2.52026 30.3393 1.61454 29.4675 0.980842 28.407C0.347143 27.3466 0.00850694 26.1359 0 24.9006V16.3879C0.00344152 15.3937 0.2674 14.4178 0.76556 13.5574C1.26372 12.697 1.97869 11.9823 2.83919 11.4843L22.233 0.765014C23.0979 0.263897 24.0799 0 25.0795 0C26.0792 0 27.0611 0.263897 27.926 0.765014L45.6624 11.2636Z" fill="url(#paint3_linear_2468_3578)"/>
<path d="M46.1824 13.3084C45.7476 14.0264 45.1656 14.6442 44.4748 15.1211C43.784 15.5979 43 15.923 42.1745 16.075C41.3489 16.2269 40.5006 16.2023 39.6852 16.0027C38.8699 15.803 38.1061 15.433 37.4441 14.9168V14.9168C33.5899 11.9746 28.4117 9.67975 23.1256 9.67975C15.4024 9.67975 8.93945 16.9077 8.93945 24.6308C8.93945 29.1765 11.7639 34.3155 15.2847 36.4878C17.56 37.5519 19.6489 38.5179 20.9631 39.0916C21.6378 39.3762 22.364 39.5181 23.0962 39.5084C23.8062 39.522 24.5119 39.3954 25.1728 39.1356C25.8337 38.8758 26.4369 38.4881 26.9476 37.9947C27.4583 37.5013 27.8666 36.9119 28.1489 36.2603C28.4313 35.6088 28.5823 34.9078 28.5931 34.1978C28.5877 33.3155 28.3602 32.4488 27.9317 31.6776C27.5032 30.9063 26.8875 30.2553 26.1413 29.7845L25.7981 29.5786C25.5559 29.442 25.3053 29.3208 25.0478 29.2157L22.9295 28.3527L16.8637 25.8518C15.8371 25.4615 14.952 24.7707 14.324 23.8697C13.6959 22.9688 13.354 21.8994 13.3429 20.8011V20.3108C13.4459 17.9717 14.6031 15.4856 16.3684 14.1665C18.7767 12.3731 21.7019 11.4096 24.7046 11.4205V11.4205C25.5488 11.4261 26.3907 11.5081 27.2201 11.6657C31.7118 12.5091 35.7867 15.2944 37.0715 16.231C37.5128 16.5477 37.9986 16.7972 38.5131 16.9714C38.7984 17.0683 39.0901 17.1453 39.386 17.2019C40.6846 17.446 42.0274 17.26 43.2108 16.6723C44.5441 15.908 45.5884 14.7258 46.1824 13.3084V13.3084Z" fill="url(#paint4_linear_2468_3578)"/>
<path d="M46.1824 13.3084C45.7476 14.0264 45.1656 14.6442 44.4748 15.1211C43.784 15.5979 43 15.923 42.1745 16.075C41.3489 16.2269 40.5006 16.2023 39.6852 16.0027C38.8699 15.803 38.1061 15.433 37.4441 14.9168V14.9168C33.5899 11.9746 28.4117 9.67975 23.1256 9.67975C15.4024 9.67975 8.93945 16.9077 8.93945 24.6308C8.93945 29.1765 11.7639 34.3155 15.2847 36.4878C17.56 37.5519 19.6489 38.5179 20.9631 39.0916C21.6378 39.3762 22.364 39.5181 23.0962 39.5084C23.8062 39.522 24.5119 39.3954 25.1728 39.1356C25.8337 38.8758 26.4369 38.4881 26.9476 37.9947C27.4583 37.5013 27.8666 36.9119 28.1489 36.2603C28.4313 35.6088 28.5823 34.9078 28.5931 34.1978C28.5877 33.3155 28.3602 32.4488 27.9317 31.6776C27.5032 30.9063 26.8875 30.2553 26.1413 29.7845L25.7981 29.5786C25.5559 29.442 25.3053 29.3208 25.0478 29.2157L22.9295 28.3527L16.8637 25.8518C15.8371 25.4615 14.952 24.7707 14.324 23.8697C13.6959 22.9688 13.354 21.8994 13.3429 20.8011V20.3108C13.4459 17.9717 14.6031 15.4856 16.3684 14.1665C18.7767 12.3731 21.7019 11.4096 24.7046 11.4205V11.4205C25.5488 11.4261 26.3907 11.5081 27.2201 11.6657C31.7118 12.5091 35.7867 15.2944 37.0715 16.231C37.5128 16.5477 37.9986 16.7972 38.5131 16.9714C38.7984 17.0683 39.0901 17.1453 39.386 17.2019C40.6846 17.446 42.0274 17.26 43.2108 16.6723C44.5441 15.908 45.5884 14.7258 46.1824 13.3084V13.3084Z" fill="url(#paint5_linear_2468_3578)"/>
<path d="M46.1824 13.3084C45.7476 14.0264 45.1656 14.6442 44.4748 15.1211C43.784 15.5979 43 15.923 42.1745 16.075C41.3489 16.2269 40.5006 16.2023 39.6852 16.0027C38.8699 15.803 38.1061 15.433 37.4441 14.9168V14.9168C33.5899 11.9746 28.4117 9.67975 23.1256 9.67975C15.4024 9.67975 8.93945 16.9077 8.93945 24.6308C8.93945 29.1765 11.7639 34.3155 15.2847 36.4878C17.56 37.5519 19.6489 38.5179 20.9631 39.0916C21.6378 39.3762 22.364 39.5181 23.0962 39.5084C23.8062 39.522 24.5119 39.3954 25.1728 39.1356C25.8337 38.8758 26.4369 38.4881 26.9476 37.9947C27.4583 37.5013 27.8666 36.9119 28.1489 36.2603C28.4313 35.6088 28.5823 34.9078 28.5931 34.1978C28.5877 33.3155 28.3602 32.4488 27.9317 31.6776C27.5032 30.9063 26.8875 30.2553 26.1413 29.7845L25.7981 29.5786C25.5559 29.442 25.3053 29.3208 25.0478 29.2157L22.9295 28.3527L16.8637 25.8518C15.8371 25.4615 14.952 24.7707 14.324 23.8697C13.6959 22.9688 13.354 21.8994 13.3429 20.8011V20.3108C13.4459 17.9717 14.6031 15.4856 16.3684 14.1665C18.7767 12.3731 21.7019 11.4096 24.7046 11.4205V11.4205C25.5488 11.4261 26.3907 11.5081 27.2201 11.6657C31.7118 12.5091 35.7867 15.2944 37.0715 16.231C37.5128 16.5477 37.9986 16.7972 38.5131 16.9714C38.7984 17.0683 39.0901 17.1453 39.386 17.2019C40.6846 17.446 42.0274 17.26 43.2108 16.6723C44.5441 15.908 45.5884 14.7258 46.1824 13.3084V13.3084Z" fill="url(#paint6_linear_2468_3578)"/>
<defs>
<linearGradient id="paint0_linear_2468_3578" x1="22.7575" y1="44.3488" x2="20.6039" y2="19.1389" gradientUnits="userSpaceOnUse">
<stop stop-color="#067993" stop-opacity="0"/>
<stop offset="0.34" stop-color="#0A6675" stop-opacity="0.23"/>
<stop offset="0.91" stop-color="#133425" stop-opacity="0.84"/>
<stop offset="1" stop-color="#152B17" stop-opacity="0.95"/>
</linearGradient>
<linearGradient id="paint1_linear_2468_3578" x1="22.6794" y1="44.2861" x2="20.5281" y2="19.0898" gradientUnits="userSpaceOnUse">
<stop stop-color="#067993" stop-opacity="0"/>
<stop offset="0.34" stop-color="#0A6675" stop-opacity="0.23"/>
<stop offset="0.91" stop-color="#133425" stop-opacity="0.84"/>
<stop offset="1" stop-color="#152B17" stop-opacity="0.95"/>
</linearGradient>
<linearGradient id="paint2_linear_2468_3578" x1="7.86043" y1="62.7368" x2="26.4255" y2="33.6045" gradientUnits="userSpaceOnUse">
<stop stop-color="#F0002F" stop-opacity="0"/>
<stop offset="0.46" stop-color="#EA042D" stop-opacity="0.9"/>
<stop offset="0.59" stop-color="#DD0426" stop-opacity="0.92"/>
<stop offset="0.82" stop-color="#B80614" stop-opacity="0.96"/>
<stop offset="1" stop-color="#940701"/>
</linearGradient>
<linearGradient id="paint3_linear_2468_3578" x1="23.1745" y1="-6.19811" x2="23.1745" y2="43.5882" gradientUnits="userSpaceOnUse">
<stop stop-color="#E90531" stop-opacity="0"/>
<stop offset="0.51" stop-color="#E7042B" stop-opacity="0"/>
<stop offset="0.64" stop-color="#D30521" stop-opacity="0.24"/>
<stop offset="0.93" stop-color="#A10708" stop-opacity="0.84"/>
<stop offset="1" stop-color="#940701"/>
</linearGradient>
<linearGradient id="paint4_linear_2468_3578" x1="12.0287" y1="47.4424" x2="29.7013" y2="13.0681" gradientUnits="userSpaceOnUse">
<stop stop-color="#F0002F" stop-opacity="0"/>
<stop offset="0.31" stop-color="#EA042D" stop-opacity="0.9"/>
<stop offset="0.51" stop-color="#E7042B" stop-opacity="0.94"/>
<stop offset="0.77" stop-color="#BD0616" stop-opacity="0.97"/>
<stop offset="1" stop-color="#940701"/>
</linearGradient>
<linearGradient id="paint5_linear_2468_3578" x1="27.7644" y1="61.707" x2="27.5732" y2="22.0074" gradientUnits="userSpaceOnUse">
<stop stop-color="#F0002F" stop-opacity="0"/>
<stop offset="0.46" stop-color="#EA042D" stop-opacity="0.9"/>
<stop offset="0.59" stop-color="#DD0426" stop-opacity="0.92"/>
<stop offset="0.82" stop-color="#B80614" stop-opacity="0.96"/>
<stop offset="1" stop-color="#940701"/>
</linearGradient>
<linearGradient id="paint6_linear_2468_3578" x1="25.1361" y1="21.8505" x2="-9.14015" y2="3.19226" gradientUnits="userSpaceOnUse">
<stop stop-color="#F0002F" stop-opacity="0"/>
<stop offset="0.51" stop-color="#E7042B" stop-opacity="0"/>
<stop offset="0.66" stop-color="#C70724" stop-opacity="0.29"/>
<stop offset="1" stop-color="#7A0F14"/>
</linearGradient>
</defs>
</svg>
