<?xml version="1.0" encoding="UTF-8"?>
<svg xmlns="http://www.w3.org/2000/svg" xmlns:v="https://vecta.io/nano" width="24" height="24" fill="#fff" fill-rule="evenodd">
  <path d="M12.55 11.265l-.002-.049-.002-1.898-1.594.011c-.28.002-.588.095-.917.278a4.63 4.63 0 0 0-.83.609l-.666.663-1.075-1.071.545-.543c.019-.022.038-.042.058-.06l.025-.023.007-.007L8.274 9l.009.009c.345-.299.678-.537 1.015-.723.552-.306 1.106-.464 1.647-.467l3.116-.012V8.82v.84l2.927-2.297-2.931-2.293v1.373l-2.666.002a6.01 6.01 0 0 0-1.941.348 5.97 5.97 0 0 0-1.784 1.012C7.056 8.306 6.56 8.91 6.191 9.6c-.125.234-.235.479-.328.729-.262.714-.35 1.679-.351 1.689l-.018.202L4 12.048l.018-.192c.113-1.222.382-1.944.394-1.974l.004-.01a7.42 7.42 0 0 1 .907-1.747A7.5 7.5 0 0 1 6.702 6.64a7.51 7.51 0 0 1 2.231-1.267l.009-.003c.738-.247 1.559-.394 2.44-.437h.005 1.156L12.545 2l6.895 5.36-6.889 5.374-.001-1.468zm-7.99 4.752l6.889-5.373.001 1.468.002.049.002 1.898 1.594-.011c.28-.002.588-.095.917-.278a4.63 4.63 0 0 0 .83-.609l.666-.663 1.076 1.071-.545.543-.058.06-.032.029-.175.174-.009-.009c-.345.3-.679.537-1.015.724-.552.306-1.107.464-1.647.467l-3.116.012v-1.012-.839l-2.93 2.296 2.931 2.293-.001-1.373 2.666-.002a6.01 6.01 0 0 0 1.941-.348 5.97 5.97 0 0 0 1.784-1.012c.61-.501 1.106-1.105 1.475-1.796.125-.234.235-.479.328-.729.262-.714.35-1.679.351-1.688l.018-.202 1.496.173-.018.192c-.113 1.222-.382 1.944-.394 1.974l-.004.011c-.224.621-.529 1.208-.907 1.747-.388.553-.852 1.053-1.379 1.485a7.49 7.49 0 0 1-2.231 1.267l-.01.003c-.738.247-1.559.394-2.44.437h-.005-1.156l-.002 2.932-6.895-5.36z"></path>
</svg>
