<svg width="67" height="79" viewBox="0 0 67 79" fill="none" xmlns="http://www.w3.org/2000/svg">
<path d="M1.54859 76.6835H3.82989C4.30774 76.6835 4.4918 76.3548 4.4918 75.9766C4.4918 75.5048 4.21216 75.2521 3.66883 75.2521H1.54505L1.54859 76.6835ZM1.54859 74.2095H3.70423C4.05819 74.2095 4.28649 74.0063 4.28649 73.5592C4.28649 73.181 4.12721 72.9106 3.49007 72.9106H1.55213L1.54859 74.2095ZM9.53674e-07 71.8132H4.27587C5.10415 71.8132 5.87933 72.2179 5.87933 73.333C5.87933 73.796 5.65456 74.3615 5.12185 74.5382V74.5558C5.78376 74.6725 6.13418 75.3652 6.13418 76.0137C6.13418 76.816 5.78022 77.8357 4.05996 77.8357H9.53674e-07V71.8132Z" fill="white"/>
<path d="M8.5199 74.4745H10.5693C10.6705 74.4797 10.7717 74.4631 10.8659 74.426C10.9602 74.3888 11.0453 74.3318 11.1156 74.2589C11.1859 74.1861 11.2398 74.099 11.2734 74.0035C11.3071 73.9081 11.3199 73.8066 11.3109 73.7058C11.3109 73.1085 10.8649 72.9565 10.4897 72.9565H8.5199V74.4745ZM6.97307 71.8079H11.1109C12.6913 71.8079 12.9533 72.8293 12.9533 73.4442C12.9533 74.1794 12.6754 74.6512 12.0294 74.8951V74.9127C12.7073 75.0223 12.8099 75.9324 12.8099 76.5226C12.8099 76.8195 12.8347 77.5263 13.1055 77.8303H11.4153C11.272 77.5529 11.2631 77.3001 11.2631 76.6746C11.2631 75.8316 10.9198 75.6143 10.4419 75.6143H8.5199V77.8232H6.97307V71.8079Z" fill="white"/>
<path d="M17.0717 73.1085L16.1867 75.4942H17.9725L17.0717 73.1085ZM18.3795 76.5916H15.7638L15.3001 77.8286H13.6329L16.1372 71.8062H18.0043L20.5175 77.8304H18.8503L18.3795 76.5916Z" fill="white"/>
<path d="M24.9916 73.5539C24.896 72.771 24.1863 72.6862 23.5651 72.6862C22.9439 72.6862 22.5032 72.9902 22.5032 73.3931C22.5032 73.7129 22.7581 73.8896 23.1563 73.9586L25.0942 74.2873C26.1313 74.464 26.9207 74.8775 26.9207 75.9731C26.9207 77.0952 26.2039 77.9983 23.9616 77.9983C22.574 77.9983 20.7759 77.8127 20.7564 75.9307H22.4944C22.5103 76.7577 23.2926 76.9009 23.9616 76.9009C24.6872 76.9009 25.1827 76.6729 25.1827 76.1498C25.1827 75.6868 24.8288 75.5596 24.2182 75.4589L22.8023 75.2309C21.813 75.0701 20.8555 74.7591 20.8555 73.5274C20.8555 72.1861 21.8926 71.6383 23.6872 71.6383C24.8588 71.6383 26.5986 71.8486 26.6959 73.5521L24.9916 73.5539Z" fill="white"/>
<path d="M27.841 71.8079H29.3878V77.8303H27.841V71.8079Z" fill="white"/>
<path d="M30.6727 71.8079H32.2195V76.6339H35.6883V77.8303H30.6727V71.8079Z" fill="white"/>
<path d="M36.6317 71.8079H41.95V72.9565H38.1785V74.2041H41.7553V75.2997H38.1749V76.6834H41.9783V77.8303H36.6281L36.6317 71.8079Z" fill="white"/>
<path d="M43.0366 71.8079H44.587V77.8303H43.0402L43.0366 71.8079Z" fill="white"/>
<path d="M47.4187 74.4745H49.4681C49.5695 74.48 49.6708 74.4636 49.7653 74.4265C49.8598 74.3895 49.9451 74.3325 50.0156 74.2596C50.0861 74.1867 50.1401 74.0995 50.1739 74.004C50.2077 73.9084 50.2205 73.8067 50.2115 73.7058C50.2115 73.1085 49.7637 72.9565 49.3885 72.9565H47.4187V74.4745ZM45.8719 71.8079H50.0115C51.5902 71.8079 51.8539 72.8293 51.8539 73.4442C51.8539 74.1794 51.5742 74.6512 50.9282 74.8951V74.9127C51.6061 75.0223 51.7105 75.9324 51.7105 76.5226C51.7105 76.8195 51.7335 77.5263 52.0061 77.8303H50.3141C50.1708 77.5529 50.1619 77.3001 50.1619 76.6746C50.1619 75.8316 49.8203 75.6143 49.3407 75.6143H47.4187V77.8232H45.8719V71.8079Z" fill="white"/>
<path d="M55.8076 73.1086L54.9227 75.4942H56.7102L55.8076 73.1086ZM53.8449 71.3785C54.0219 70.7035 54.3758 70.214 54.9864 70.214C55.4006 70.214 56.2465 70.5851 56.7244 70.5851C56.7719 70.5902 56.8199 70.5857 56.8656 70.5717C56.9113 70.5578 56.9537 70.5348 56.9902 70.5041C57.0267 70.4734 57.0567 70.4356 57.0782 70.393C57.0998 70.3505 57.1124 70.304 57.1155 70.2564H57.7686C57.6889 70.8979 57.4146 71.4121 56.7332 71.4121C56.2784 71.4121 55.2254 70.9915 54.9227 70.9915C54.7156 70.9915 54.5953 71.1682 54.5316 71.3785H53.8449ZM57.1155 76.5916H54.498L54.0343 77.8286H52.3742L54.8785 71.8062H56.7439L59.2481 77.8286H57.581L57.1155 76.5916Z" fill="white"/>
<path d="M62.4621 76.8531C63.8656 76.8531 64.3594 75.7557 64.3594 74.8191C64.3594 73.8825 63.8656 72.7869 62.4621 72.7869C61.0587 72.7869 60.5631 73.8843 60.5631 74.8191C60.5631 75.7539 61.0587 76.8531 62.4621 76.8531ZM62.4621 71.64C65.5239 71.64 66.0018 73.5627 66.0018 74.8209C66.0018 76.0791 65.5221 78.0017 62.4621 78.0017C59.4021 78.0017 58.9225 76.0773 58.9225 74.8209C58.9225 73.5644 59.4004 71.64 62.4621 71.64Z" fill="white"/>
<path d="M56.4625 18.7406C58.5172 13.7148 60.9189 8.18718 63.6054 2.30612C63.7204 2.05149 63.7683 1.77179 63.7448 1.49349C63.7213 1.21518 63.627 0.947478 63.4709 0.715694C63.3208 0.495197 63.119 0.314708 62.883 0.189962C62.647 0.0652164 62.384 0 62.117 0H62.0338L55.8784 0.30925C55.5517 0.325394 55.2373 0.439136 54.976 0.635742C54.7147 0.832347 54.5186 1.10276 54.413 1.41195C54.3564 1.58866 54.2997 1.74417 54.236 1.91028C53.8362 1.98482 53.4785 2.2053 53.2325 2.52878C47.9567 9.50724 37.0529 10.7513 32.6089 10.9634C31.7434 11.004 30.8868 11.0252 30.0621 11.0252C25.6588 11.0252 17.6274 10.3625 13.309 5.93761C13.0169 5.64236 12.6235 5.4687 12.2082 5.45164L11.8542 4.76246L11.8259 4.70944C11.8135 4.68823 11.7534 4.5769 11.6242 4.32597C11.4861 4.06001 11.2777 3.83698 11.0215 3.68118C10.7652 3.52538 10.4711 3.44278 10.1711 3.4424C10.1163 3.4424 10.0614 3.4424 10.0065 3.4424L3.88121 4.06443C3.59572 4.09298 3.32278 4.19602 3.08979 4.3632C2.8568 4.53039 2.67196 4.75585 2.55384 5.01692C2.43592 5.27809 2.38888 5.56564 2.41746 5.8507C2.44604 6.13575 2.54923 6.40829 2.71666 6.64093C2.75383 6.69218 6.38372 11.7656 10.2154 19.1753C5.8952 24.4992 3.53448 31.1415 3.52724 37.9936C3.51727 45.5631 6.39471 52.8524 11.5746 58.3794C16.705 63.884 23.7315 67.2464 31.2426 67.7912H31.255C31.5505 67.8124 31.8673 67.8301 32.2195 67.8424C32.2938 67.8424 32.3717 67.8424 32.4496 67.853C32.8319 67.8654 33.1575 67.8725 33.4495 67.8725C33.7416 67.8725 34.069 67.8725 34.4477 67.853L34.6725 67.8442C35.0264 67.8318 35.3344 67.8142 35.6335 67.7912H35.6494C43.1624 67.2491 50.1912 63.8871 55.3227 58.3812C60.5052 52.8549 63.3836 45.5643 63.3718 37.9936C63.3683 31.0386 60.9383 24.3021 56.4996 18.942L56.4147 18.8519L56.4625 18.7406ZM32.6921 12.5944C46.4966 11.9388 52.4344 6.30517 54.544 3.51485C49.6027 18.0956 46.6683 27.8396 44.941 34.6343L33.9504 14.6125L33.4371 13.6848L32.9274 14.6125L22.1687 34.2013C21.9811 33.3625 21.78 32.5178 21.5652 31.6672C19.5848 23.837 16.4168 15.5738 12.1445 7.07565C14.5231 9.51607 20.2166 13.1882 32.6921 12.5944ZM4.03872 5.68844L10.1764 5.07524C10.2809 5.27669 10.3711 5.44811 10.4101 5.51703C15.1479 14.6214 18.6273 23.473 20.744 31.821C21.0414 32.9991 21.3121 34.1654 21.5564 35.3199L20.0768 38.013L19.8892 38.3541L20.1334 38.6563C21.1228 39.8809 21.967 41.019 22.6944 42.0863C23.0584 44.9634 23.2323 47.8613 23.2147 50.7612C23.2018 53.1298 23.0243 55.4946 22.6837 57.8386C21.9654 57.4466 21.2688 57.016 20.5971 56.5486C22.3139 46.1525 18.9777 34.6042 14.8629 25.1412L14.7443 24.869C13.8594 22.8421 12.932 20.9159 12.017 19.117L11.6755 18.4349C7.72701 10.8079 4.03872 5.68844 4.03872 5.68844V5.68844ZM19.9352 54.0322C19.8821 54.6136 19.8166 55.1862 19.7352 55.7499C17.0117 53.6575 14.8064 50.9681 13.2895 47.8893C11.7726 44.8105 10.9849 41.4248 10.987 37.9936C10.9808 33.8562 12.1266 29.7986 14.2966 26.2739C14.45 26.6368 14.6022 27.002 14.7532 27.3695C14.8399 27.5745 14.9178 27.7777 15.001 27.981C13.3248 31.0532 12.4491 34.4969 12.4542 37.9954C12.4514 41.052 13.1198 44.072 14.4124 46.8427C15.7049 49.6135 17.5901 52.0676 19.9352 54.0322ZM61.7347 37.9936C61.7345 45.2843 58.9109 52.2926 53.8545 57.5524C48.7982 62.8122 41.9009 65.9161 34.6052 66.2149H34.3911C34.0778 66.2255 33.7628 66.2326 33.4478 66.2326C33.131 66.2326 32.8159 66.2326 32.5027 66.2149L32.2868 66.2061C24.9924 65.9082 18.0958 62.8058 13.0395 57.5477C7.98325 52.2896 5.15892 45.2831 5.15725 37.9936C5.14886 31.5135 7.38199 25.2294 11.479 20.2038C12.2489 21.7376 13.017 23.3564 13.7639 25.0457C11.2193 28.8856 9.86493 33.3893 9.87027 37.9936C9.87003 43.0477 11.4984 47.9678 14.5147 52.0266C17.531 56.0853 21.7752 59.0673 26.6198 60.5318C27.1508 58.2946 27.5472 55.8965 27.5472 53.8166C27.5472 47.8896 24.2642 42.8462 20.5865 38.294L33.4371 14.8917L46.2825 38.2923C42.6066 42.8444 39.32 47.8878 39.32 53.8149C39.32 55.8965 39.7271 58.2963 40.2527 60.53C45.102 59.0692 49.3515 56.0884 52.3723 52.0286C55.393 47.9688 57.0245 43.0459 57.0253 37.9883C57.0301 33.4317 55.704 28.9727 53.2095 25.1571V25.1571C53.829 23.5337 54.5062 21.8077 55.2413 19.9793C59.4494 25.0409 61.7471 31.4153 61.7347 37.9936V37.9936ZM23.7102 43.6485C26.5065 48.2112 26.9667 51.3179 26.9667 53.8113C26.9667 55.5325 26.6835 57.4852 26.2782 59.3955C25.3182 59.0737 24.381 58.6876 23.4731 58.2398C23.8421 55.7903 24.0373 53.3178 24.0571 50.8407C24.0712 48.4398 23.953 46.04 23.7032 43.652L23.7102 43.6485ZM43.4862 58.2062C42.5495 58.6719 41.5814 59.0716 40.589 59.4026C40.1819 57.4905 39.8952 55.5361 39.8952 53.8113C39.8952 50.2187 41.1766 46.9336 42.9411 43.9683C42.6251 45.9277 42.4653 47.909 42.4632 49.8936C42.4632 52.334 42.9234 55.3858 43.4862 58.2097V58.2062ZM52.045 28.2708C52.0435 28.2638 52.0435 28.2566 52.045 28.2496C52.2574 27.6664 52.4786 27.0727 52.7051 26.4612C54.8062 29.942 55.9156 33.9295 55.9138 37.9936C55.9164 41.3908 55.1444 44.7441 53.6563 47.7991C52.1682 50.8541 50.003 53.5308 47.3249 55.6262C47.2063 55.0784 47.1001 54.5305 47.0116 53.9898C49.3423 52.025 51.215 49.5757 52.4989 46.813C53.7828 44.0503 54.447 41.041 54.4449 37.9954C54.4465 34.6086 53.6229 31.2723 52.045 28.2743V28.2708ZM54.9493 18.1203L54.3422 19.6241C53.6254 21.4001 52.9405 23.1496 52.3034 24.8213L52.1264 25.2808C47.5744 37.3133 46.2011 43.7527 45.8259 46.9566C45.6517 48.4637 45.6262 49.9843 45.7498 51.4964C45.8595 53.1514 46.1094 54.7943 46.4966 56.4073C45.78 56.9173 45.0342 57.3852 44.2631 57.8086C43.7322 55.0837 43.2968 52.1855 43.2968 49.8971C43.2968 47.8772 43.5074 45.451 44.1109 42.1429C44.9463 40.92 45.84 39.7572 46.7302 38.6563L46.9745 38.3541L46.7869 38.013L45.5215 35.7158C47.3479 28.3521 50.546 17.8252 55.9634 1.94739L62.1188 1.63991C59.2623 7.8797 56.9031 13.349 54.9493 18.1203Z" fill="white"/>
<path d="M33.4371 29.0059C32.2682 29.0059 31.1107 29.2358 30.0307 29.6825C28.9507 30.1292 27.9695 30.784 27.143 31.6094C26.3165 32.4348 25.6609 33.4147 25.2137 34.4932C24.7665 35.5716 24.5365 36.7274 24.5367 37.8946V37.8946C24.5367 39.0615 24.767 40.2169 25.2143 41.295C25.6616 42.373 26.3173 43.3524 27.1438 44.1774C27.9703 45.0023 28.9515 45.6566 30.0314 46.1028C31.1112 46.5491 32.2685 46.7785 33.4371 46.778C34.6056 46.7783 35.7627 46.5487 36.8424 46.1023C37.922 45.656 38.903 45.0017 39.7293 44.1768C40.5557 43.3518 41.2112 42.3724 41.6584 41.2945C42.1056 40.2166 42.3358 39.0613 42.3358 37.8946C42.336 36.7275 42.106 35.5719 41.659 34.4936C41.2119 33.4153 40.5565 32.4354 39.7302 31.61C38.9039 30.7846 37.9228 30.1298 36.843 29.683C35.7633 29.2362 34.606 29.0061 33.4371 29.0059V29.0059ZM31.8337 45.9351C29.6977 45.5102 27.8181 44.2556 26.6084 42.4472C25.3987 40.6388 24.9578 38.4247 25.3827 36.2918V36.2918C25.7539 34.4331 26.7582 32.76 28.2248 31.5568C29.6915 30.3536 31.5301 29.6945 33.4283 29.6915C33.9697 29.6915 34.5097 29.7448 35.0406 29.8506C36.0986 30.0617 37.1045 30.4789 38.001 31.0782C38.8975 31.6776 39.667 32.4474 40.2655 33.3437C40.8641 34.24 41.2799 35.2452 41.4894 36.302C41.6988 37.3587 41.6978 38.4463 41.4863 39.5027C41.0587 41.6339 39.8013 43.5084 37.9905 44.7145C36.1796 45.9206 33.9632 46.3596 31.8284 45.9351H31.8337Z" fill="white"/>
<path d="M39.5058 40.2662C39.4946 40.1828 39.5121 40.0981 39.5554 40.0259C40.0391 39.1697 40.3364 38.2213 40.4279 37.2426C40.4367 37.2098 40.4576 37.1814 40.4863 37.1631L40.6739 37.096C40.7556 37.8357 40.7234 38.5837 40.5783 39.3137C40.3718 40.3456 39.9437 41.3204 39.3236 42.1712C39.5121 41.5549 39.5723 40.9066 39.5005 40.2662H39.5058ZM36.5679 44.1787C36.525 44.1936 36.4782 44.1936 36.4352 44.1787C35.9786 44.002 35.345 43.4418 35.0955 43.2067C35.088 43.1985 35.083 43.1884 35.0808 43.1775C35.0786 43.1666 35.0794 43.1554 35.0831 43.1449C35.7741 42.3585 36.3551 41.4823 36.8104 40.5401C36.8152 40.5251 36.825 40.5121 36.8382 40.5034C36.8514 40.4947 36.8672 40.4909 36.883 40.4924C37.6947 40.4852 38.5036 40.3952 39.297 40.2238V40.2326C39.3894 40.954 39.2981 41.687 39.0315 42.3638C39.0099 42.4168 38.9813 42.4667 38.9466 42.5123C38.7696 42.7278 38.0617 43.4824 36.5573 44.1734L36.5679 44.1787ZM36.4741 44.4543C36.5149 44.4072 36.5657 44.3698 36.6228 44.3448C37.0504 44.1396 37.4642 43.907 37.8617 43.6485C37.4169 43.9884 36.9355 44.2777 36.4264 44.5109L36.4759 44.4543H36.4741ZM31.4426 43.2456C31.4514 43.2456 31.4815 43.2262 31.5629 43.2456H31.5859C31.9833 43.3217 32.3854 43.3713 32.7894 43.3941C33.4596 43.4337 34.1321 43.3987 34.7946 43.2898C34.8157 43.2862 34.8372 43.2862 34.8583 43.2898C34.869 43.29 34.8792 43.2945 34.8866 43.3022L34.899 43.3145C35.3056 43.734 35.7809 44.0812 36.3042 44.3412C36.3048 44.3453 36.3048 44.3495 36.3042 44.3536C36.1837 44.4905 36.0491 44.6143 35.9025 44.723C35.1087 45.013 34.27 45.1613 33.4248 45.1612C32.9494 45.1603 32.4753 45.1135 32.0089 45.0216C31.4777 44.9153 30.96 44.7499 30.4656 44.5286C30.3574 44.4436 30.2584 44.3477 30.1701 44.2423C30.1701 44.2335 30.1701 44.2281 30.1577 44.2281C30.5576 44.0514 31.2514 43.4312 31.4549 43.2421L31.4426 43.2456ZM27.2605 40.0329C27.4239 40.0894 27.5913 40.1337 27.7613 40.1655C28.3575 40.275 28.9598 40.3488 29.5648 40.3864C29.5648 40.3864 29.5789 40.3864 29.5896 40.4147C30.0242 41.3957 30.6015 42.3074 31.3027 43.1201C31.3012 43.1294 31.2968 43.138 31.2904 43.1449C30.524 43.8517 30.1559 44.0391 30.0356 44.0832C30.0107 44.0902 29.9843 44.0902 29.9594 44.0832H29.9382C29.1046 43.7917 28.1153 42.8268 27.7313 42.4274C27.6711 42.3514 27.6109 42.2755 27.5543 42.1977C27.3871 41.7202 27.279 41.2241 27.2322 40.7204C27.2088 40.4975 27.219 40.2723 27.2623 40.0524L27.2605 40.0329ZM26.6499 38.7977C26.7736 39.176 26.9183 39.5471 27.0835 39.9092C27.0881 39.9308 27.0881 39.9531 27.0835 39.9746C27.0074 40.5466 27.0489 41.1281 27.2056 41.6835C26.3383 40.2647 25.9853 38.5915 26.2057 36.944C26.2381 36.9575 26.272 36.9676 26.3066 36.974C26.3227 37.5957 26.4387 38.2109 26.6499 38.7959V38.7977ZM27.818 34.0741C27.8128 34.0975 27.8063 34.1205 27.7985 34.1431C27.1368 34.9181 26.6411 35.8202 26.3419 36.7938C26.3048 36.7814 26.2694 36.7655 26.2375 36.7514C26.2517 36.6595 26.2676 36.5746 26.2853 36.4775C26.5275 35.243 27.0882 34.093 27.9118 33.1411C27.8333 33.4401 27.8016 33.7495 27.818 34.0582V34.0741ZM33.315 30.7696L33.2389 32.1833C33.2389 32.2063 33.2265 32.2663 33.1841 32.284C32.188 32.7267 31.2625 33.3132 30.4373 34.0247C30.4177 34.0431 30.3917 34.0532 30.3647 34.0529H30.3506C29.8517 33.9806 29.3486 33.941 28.8445 33.9345C28.5719 33.9285 28.2995 33.9522 28.0321 34.0052C28.0187 33.5929 28.0898 33.1822 28.241 32.7983C29.4142 31.6109 30.9583 30.859 32.6177 30.6671C32.783 30.6773 32.9473 30.6985 33.1097 30.7307C33.1717 30.7431 33.2354 30.7572 33.3009 30.7749H33.315V30.7696ZM38.7661 34.06C38.7661 34.1024 38.7466 34.1183 38.7377 34.1218C38.3546 34.0591 37.9668 34.029 37.5785 34.0317C37.1414 34.0317 36.7732 34.0635 36.552 34.0847L36.3998 34.0971H36.3803C36.3512 34.0972 36.3222 34.0942 36.2936 34.0883C36.2414 34.08 36.1921 34.0587 36.1503 34.0264C35.661 33.5751 35.1274 33.1743 34.5574 32.8301C34.2429 32.6426 33.9186 32.4721 33.5858 32.3194L33.5097 32.2858C33.4901 32.276 33.473 32.2618 33.4598 32.2444C33.4466 32.2269 33.4376 32.2066 33.4336 32.1851C33.4336 32.1267 33.4991 30.9816 33.5186 30.8473C33.5193 30.8227 33.5275 30.7989 33.542 30.7791C33.5565 30.7592 33.5767 30.7442 33.6 30.736C33.8036 30.6953 34.0101 30.6704 34.2176 30.6618C34.4442 30.6865 34.6512 30.7183 34.8495 30.7572C36.2865 31.0417 37.6033 31.7546 38.6262 32.8018C38.6952 32.9848 38.7392 33.1761 38.7572 33.3708C38.7812 33.6005 38.7812 33.8321 38.7572 34.0618L38.7661 34.06ZM40.4385 37.0094H40.4208C40.4208 37.0094 40.4208 37.0235 40.4049 36.9935C40.1248 36.0111 39.6472 35.096 39.0014 34.3039C38.9525 34.2343 38.9294 34.15 38.936 34.0653C38.9855 33.7438 38.9741 33.4159 38.9023 33.0987C39.8476 34.1749 40.4534 35.5058 40.6438 36.9245C40.5768 36.9551 40.5083 36.9822 40.4385 37.0058V37.0094ZM28.9914 34.136C29.428 34.1355 29.8638 34.1728 30.2939 34.2473H30.3081C30.3081 34.2473 30.324 34.2473 30.3276 34.2579C30.569 35.2872 30.8794 36.2991 31.2567 37.2868C31.2567 37.331 31.2567 37.3416 31.2143 37.4087C30.6156 38.2704 30.0758 39.1713 29.5984 40.1054C29.5825 40.1319 29.5489 40.1602 29.4214 40.1602H29.3294C28.8129 40.1238 28.2989 40.0589 27.7897 39.9658C27.6133 39.9348 27.4399 39.8893 27.2711 39.8297C27.2451 39.8161 27.2236 39.7952 27.2092 39.7696C26.5508 38.3347 26.4765 37.3363 26.4711 37.0641C26.4712 36.9852 26.4795 36.9064 26.4959 36.8291C26.7927 35.889 27.274 35.0173 27.9118 34.265C27.9657 34.2242 28.0302 34.1996 28.0976 34.1943C28.3966 34.1522 28.6983 34.1322 29.0002 34.1342L28.9914 34.136ZM39.4067 39.9128C39.3718 39.9625 39.3233 40.0012 39.2669 40.0241C38.4904 40.1921 37.6987 40.2803 36.9042 40.2874C36.8609 40.2726 36.8236 40.244 36.798 40.2061C36.3119 39.2571 35.7767 38.334 35.1946 37.4405C35.1849 37.4093 35.1816 37.3765 35.1849 37.344C35.1883 37.3115 35.1982 37.28 35.214 37.2515C35.214 37.2373 35.8388 35.7794 36.2494 34.3799C36.2582 34.3463 36.3485 34.3056 36.4122 34.2968C36.8305 34.2473 37.2511 34.2214 37.6723 34.219C38.014 34.2124 38.3554 34.2397 38.6917 34.3003V34.2508V34.3039C38.7518 34.3241 38.8063 34.358 38.851 34.4028C39.4791 35.1627 39.9441 36.0432 40.2173 36.9899C40.2359 37.0961 40.2395 37.2044 40.2279 37.3115C40.1275 38.2264 39.8421 39.1113 39.389 39.9128H39.4067ZM31.3824 37.5095C31.3972 37.4886 31.4168 37.4716 31.4396 37.4599C31.4624 37.4482 31.4877 37.4422 31.5134 37.4423H31.7558C32.2354 37.4423 33.8796 37.4423 34.899 37.4865H34.9344C34.9497 37.4893 34.9643 37.4952 34.9774 37.5037C34.9905 37.5122 35.0017 37.5231 35.0105 37.536C35.6105 38.4354 36.4051 39.9146 36.6033 40.3228C36.6182 40.3705 36.6182 40.4217 36.6033 40.4694C36.162 41.4084 35.5835 42.2767 34.8866 43.0459C34.86 43.072 34.828 43.0919 34.7928 43.1042C34.3031 43.184 33.8077 43.2236 33.3115 43.2226C32.7326 43.2241 32.1548 43.1709 31.5859 43.0636H31.5647C31.4992 43.0485 31.4384 43.0176 31.3877 42.9735C30.6884 42.1739 30.1209 41.2685 29.7064 40.2909C30.1895 39.2165 31.1682 37.7887 31.3612 37.5112L31.3824 37.5095ZM33.4336 32.4855C34.3735 32.9287 35.2434 33.5068 36.0158 34.2014C36.0458 34.2506 36.0559 34.3093 36.0441 34.3657C35.7505 35.3358 35.4055 36.2897 35.0105 37.2232C34.9959 37.2445 34.9767 37.2624 34.9544 37.2755C34.9321 37.2886 34.9071 37.2967 34.8813 37.2992C33.8672 37.2603 32.2266 37.255 31.7576 37.255H31.5452C31.5193 37.248 31.495 37.236 31.4737 37.2196C31.4524 37.2033 31.4346 37.1828 31.4213 37.1596C31.0762 36.2446 30.7884 35.3092 30.5594 34.3586C30.5546 34.3147 30.5589 34.2702 30.572 34.228C30.5851 34.1857 30.6067 34.1466 30.6355 34.113C31.4159 33.4525 32.2873 32.9074 33.223 32.4943C33.2898 32.4779 33.3597 32.4779 33.4265 32.4943L33.4725 32.5067L33.4336 32.4855ZM39.7925 33.6677C39.236 32.8326 38.5194 32.1159 37.6841 31.5587C36.8488 31.0015 35.9112 30.615 34.9256 30.4214C34.431 30.3213 33.9276 30.271 33.423 30.2712C31.6554 30.2767 29.944 30.8918 28.5785 32.0125C27.213 33.1331 26.2772 34.6905 25.9296 36.4209C25.5365 38.4084 25.9494 40.4704 27.0776 42.1542C28.2058 43.838 29.9571 45.0059 31.947 45.4015C32.4407 45.4992 32.9427 45.5489 33.446 45.55V45.55C35.2134 45.5455 36.9248 44.931 38.2902 43.8105C39.6556 42.69 40.5909 41.1325 40.9376 39.4021C41.1368 38.4185 41.1387 37.4052 40.943 36.4209C40.7474 35.4366 40.3582 34.5008 39.7979 33.6677" fill="white"/>
<path d="M26.9543 62.5393C27.0074 62.1982 26.7207 62.0798 26.4588 62.0091C26.1968 61.9385 25.9809 62.0091 25.9278 62.1859C25.8906 62.3202 25.9756 62.4244 26.1349 62.5004L26.9101 62.8698C27.3242 63.0677 27.6056 63.3345 27.4746 63.7957C27.3437 64.257 26.9313 64.5591 25.9915 64.2923C25.4093 64.128 24.6748 63.8346 24.8925 63.0429L25.6216 63.2497C25.5296 63.6031 25.8411 63.7533 26.1225 63.8328C26.4039 63.9124 26.6534 63.8823 26.7242 63.6561C26.795 63.4299 26.6481 63.3663 26.4021 63.2497L25.8358 62.9864C25.4393 62.8008 25.0748 62.557 25.2217 62.0392C25.3827 61.4772 25.8836 61.3694 26.6375 61.5833C27.1295 61.7229 27.8339 62.018 27.6746 62.746L26.9543 62.5393Z" fill="white"/>
<path d="M29.4055 61.5726L30.1435 61.6963L29.5612 62.1222L29.0126 62.0303L29.4055 61.5726ZM28.2498 62.0869L30.5382 62.4686L30.4568 62.9616L28.8321 62.6912L28.7418 63.2214L30.2833 63.4794L30.2055 63.9512L28.664 63.6932L28.5631 64.2887L30.2002 64.5626L30.1187 65.0557L27.818 64.6722L28.2498 62.0869Z" fill="white"/>
<path d="M31.508 63.7127L32.3929 63.7604C32.4368 63.7647 32.4811 63.7596 32.5229 63.7455C32.5646 63.7313 32.6029 63.7084 32.635 63.6783C32.6672 63.6481 32.6926 63.6115 32.7094 63.5708C32.7263 63.5302 32.7342 63.4863 32.7328 63.4423C32.7469 63.1808 32.5558 63.1048 32.3912 63.0889L31.5328 63.0447L31.508 63.7127ZM30.8939 62.5164L32.6974 62.6118C33.3858 62.6471 33.4779 63.0977 33.4637 63.3664C33.472 63.5026 33.4334 63.6376 33.3541 63.7488C33.2749 63.8601 33.1599 63.9409 33.0283 63.9778V63.9778C33.3221 64.0414 33.3469 64.4408 33.3327 64.697C33.3327 64.826 33.3203 65.1353 33.4318 65.2731L32.6956 65.236C32.6392 65.0731 32.6252 64.8986 32.6549 64.7288C32.6744 64.3613 32.5292 64.2605 32.3204 64.2499L31.4833 64.2057L31.4337 65.1688L30.7594 65.1335L30.8939 62.5164Z" fill="white"/>
<path d="M33.8548 62.6082L34.5291 62.5887L34.607 65.2147L33.9309 65.2342L33.8548 62.6082Z" fill="white"/>
<path d="M35.007 62.587L37.3077 62.3396L37.3608 62.8362L35.7237 63.0129L35.7821 63.5536L37.3361 63.3875L37.3874 63.8629L35.8335 64.029L35.899 64.6298L37.5502 64.4531L37.6033 64.9514L35.2813 65.2006L35.007 62.587Z" fill="white"/>
<path d="M40.281 62.2406L40.189 63.3486L40.9394 63.1383L40.281 62.2406ZM41.2438 63.55L40.1447 63.8593L40.097 64.4336L39.389 64.6298L39.7288 61.8023L40.5164 61.592L42.2862 63.8257L41.5783 64.0219L41.2438 63.55Z" fill="white"/>
</svg>
