<svg width="55" height="64" viewBox="0 0 55 64" fill="none" xmlns="http://www.w3.org/2000/svg">
<path fill-rule="evenodd" clip-rule="evenodd" d="M30.4505 0.674703C28.8736 0.0319905 27.1492 -0.156476 25.4713 0.130507C26.0057 0.210104 26.5218 0.384117 26.9957 0.64447L20.9476 3.37256L13.7136 5.27369C13.3636 5.21329 13.0439 5.03667 12.806 4.77218C10.9306 6.20914 9.73581 7.50027 9.76949 7.80972C9.83685 8.42861 14.77 7.28331 20.4796 5.31104C26.1963 3.34222 30.6562 1.26514 30.4505 0.674596V0.674703ZM14.6648 3.50788C16.0587 2.66525 17.5332 1.96462 19.0662 1.41646C20.333 0.966729 21.6376 0.632224 22.9642 0.416992C20.409 1.947 17.5961 2.99458 14.6648 3.50788ZM38.506 4.48066C36.8305 2.99091 35.7003 1.98608 35.7227 1.89502C36.4216 2.11058 37.0914 2.41162 37.7169 2.79134C39.3414 3.64365 40.8554 4.69309 42.2247 5.91603C44.2117 7.60272 45.8595 9.65437 47.0799 11.9609C45.0748 10.4427 43.1672 8.79917 41.3685 7.03999V7.03988C40.3292 6.10177 39.3505 5.23155 38.5091 4.48344L38.5061 4.48073L38.506 4.48066ZM39.3615 9.14497C41.9335 11.3189 43.5406 14.4279 43.8301 17.7895C44.2131 20.6534 43.6309 23.5636 42.1759 26.0575C40.7209 28.5513 38.4767 30.4855 35.8001 31.5526C35.8001 31.5526 35.7416 30.3077 35.6441 29.0486C35.5573 27.8517 35.3783 26.6851 35.3783 26.6851L36.6971 26.4681C37.5573 25.1485 38.3011 23.7561 38.9199 22.3066C39.4349 20.9923 39.8052 19.6255 40.0243 18.2305C39.3428 16.8542 38.5675 15.5267 37.7039 14.2575C36.8621 13.0867 35.9316 11.9826 34.9209 10.955C34.9209 10.955 32.675 10.9728 30.5 11.2218C29.1547 11.3865 27.8187 11.621 26.4975 11.9242C26.4975 11.9242 25.464 13.8271 24.6221 15.9026C23.8031 17.9477 23.1809 20.1636 23.1809 20.1636C23.7585 21.4866 24.4582 22.7524 25.2708 23.9446C26.1701 25.1925 27.1748 26.3605 28.2736 27.4356L29.7378 27.2809C29.7378 27.2809 29.9062 28.4902 30.0445 29.7155C30.1951 30.948 30.2997 32.1875 30.2997 32.1875C27.4509 31.7568 24.8275 30.3827 22.8467 28.2839C20.8659 26.1851 19.6414 23.482 19.368 20.6047C18.8907 17.2648 19.7541 13.8713 21.7684 11.1695C23.7828 8.46762 26.7836 6.67821 30.1118 6.19416C33.4629 5.90977 36.7896 6.97103 39.3615 9.14497ZM7.91587 13.5679C6.20885 13.7582 4.94143 15.8853 4.13135 18.4782C5.37809 17.8289 6.69976 17.3361 8.06654 17.011C9.92575 19.3908 11.3718 22.0681 12.3439 24.9303C12.3594 28.0178 12.0282 31.0973 11.3565 34.1105C9.73504 34.6088 8.01719 34.7047 6.35065 34.3897C7.77761 37.4966 9.62644 38.3146 11.6224 38.0923C14.8929 37.7242 16.2879 31.1707 15.671 25.1846C15.0028 18.7111 11.1863 13.2016 7.91587 13.5679ZM3.8745 26.7641C4.17762 29.2913 5.46276 31.2174 6.75322 31.059C8.03837 30.9043 8.83427 28.7328 8.53292 26.2039C8.23158 23.6768 6.94112 21.7561 5.6542 21.9108C4.36906 22.0656 3.56784 24.237 3.8745 26.7641ZM36.1294 18.6405C36.2096 19.4707 36.0437 20.3062 35.6523 21.042C35.261 21.7779 34.6617 22.3814 33.9297 22.7768C33.1977 23.1721 32.3655 23.3417 31.5378 23.2642C30.71 23.1868 29.9235 22.8657 29.277 22.3414C28.6305 21.817 28.1528 21.1128 27.9038 20.317C27.6549 19.5212 27.6458 18.6694 27.8777 17.8684C28.1096 17.0674 28.5722 16.3531 29.2074 15.8149C29.8425 15.2768 30.622 14.9389 31.4479 14.8437C32.0038 14.7845 32.5659 14.8357 33.1021 14.9945C33.6382 15.1532 34.1379 15.4164 34.5727 15.769C35.0074 16.1216 35.3687 16.5567 35.6358 17.0494C35.9029 17.5421 36.0706 18.0828 36.1294 18.6405ZM49.0563 16.7029C48.5334 16.5233 47.4592 20.8734 46.7129 26.1943C45.972 31.51 45.8071 35.9294 46.3566 35.9632C47.2482 36.0165 49.3523 31.2628 49.994 26.8025C50.5907 23.4126 50.2668 19.924 49.0563 16.7029ZM22.9143 46.2329C20.2554 45.6887 18.9206 44.6449 18.5537 43.1954C17.7348 39.9978 22.9143 37.0439 29.3259 36.0622C35.1861 35.1641 40.2256 37.051 40.7556 39.2367C41.1669 40.9351 40.3798 42.3027 38.1375 43.7877C38.3736 42.5758 38.4077 41.333 38.2385 40.1099C35.4513 39.4681 32.625 39.0112 29.7779 38.7423C26.9443 39.7146 24.2541 41.0653 21.7799 42.758C21.93 43.9791 22.3153 45.1593 22.9143 46.2329ZM30.8713 46.2237C33.3796 45.8217 35.2603 44.5715 35.0724 43.4351V43.4352C34.8934 42.2952 32.7113 41.6977 30.2119 42.0996C27.7055 42.4997 25.8194 43.7517 26.0073 44.8899C26.1863 46.0317 28.3595 46.6274 30.8713 46.2237ZM18.3616 54.2644C19.1198 54.224 19.8739 54.3988 20.5377 54.7687C21.2014 55.1386 21.7478 55.6886 22.1142 56.3558L20.3753 57.3126C20.1712 56.9538 19.8741 56.6573 19.5154 56.4544C19.1568 56.2514 18.7501 56.1498 18.3385 56.1602C16.9169 56.1602 16.2752 57.3197 16.2752 58.8367C16.2752 60.2505 16.924 61.3816 18.5318 61.3816C18.9628 61.3893 19.3829 61.2456 19.7196 60.9754C20.0562 60.7052 20.2881 60.3255 20.3753 59.902H18.4715V58.1591H22.63V58.6162C22.7136 59.2107 22.664 59.8164 22.4848 60.3893C22.3056 60.9622 22.0014 61.4878 21.5942 61.9278C21.187 62.3678 20.6872 62.7112 20.131 62.933C19.5749 63.1548 18.9765 63.2493 18.3793 63.2098C17.7975 63.2214 17.2194 63.1132 16.6809 62.8919C16.1423 62.6705 15.6548 62.3407 15.2483 61.9229C14.8417 61.5051 14.525 61.008 14.3174 60.4625C14.1099 59.917 14.0161 59.3346 14.0417 58.7513C14.0225 58.1698 14.12 57.5902 14.3284 57.0472C14.5367 56.5042 14.8518 56.0087 15.2547 55.5902C15.6576 55.1716 16.1403 54.8386 16.674 54.6109C17.2077 54.3831 17.7816 54.2653 18.3616 54.2644ZM28.3696 60.2857C28.3029 60.0926 28.2808 59.8868 28.3049 59.6839V54.5674L26.1353 54.5675V60.1411C26.1353 62.188 27.9256 63.1448 29.7549 63.1448C32.1763 63.1448 33.4703 61.8073 33.4703 59.9026V54.5674H31.2794V59.7942C31.2887 59.9873 31.2561 60.1802 31.1838 60.3594C31.1115 60.5387 31.0012 60.7001 30.8606 60.8323C30.72 60.9646 30.5524 61.0646 30.3694 61.1255C30.1865 61.1864 29.9925 61.2066 29.801 61.1849C29.5987 61.2091 29.3936 61.1869 29.2011 61.12C29.0087 61.0531 28.8338 60.9433 28.6898 60.7988C28.5457 60.6543 28.4363 60.4788 28.3696 60.2857ZM2.16436 54.5667V61.0134H4.79491V62.9057H0V54.5667H2.16436ZM8.2959 54.5668H10.4638V62.9058H8.2959V54.5668ZM39.6624 61.0526H42.3532V62.9057H37.4927V54.5667H42.3071V56.4607H39.6624V57.8123H42.1546V59.66H39.6624V61.0526ZM51.8277 62.9057H54.0027V54.5667H50.6348V56.354H51.8277V62.9057Z" fill="white"/>
</svg>
