<?xml version="1.0" encoding="utf-8"?>
<!-- Generator: Adobe Illustrator 25.4.1, SVG Export Plug-In . SVG Version: 6.00 Build 0)  -->
<svg version="1.1" id="Layer_1" xmlns="http://www.w3.org/2000/svg" xmlns:xlink="http://www.w3.org/1999/xlink" x="0px" y="0px"
	 viewBox="0 0 399.9 399.9" style="enable-background:new 0 0 399.9 399.9;" xml:space="preserve">
<style type="text/css">
	.st0{fill:#FFFFFF;}
</style>
<path class="st0" d="M215,246.4c0,13-0.1,26,0.1,39c0.1,4-1,5.6-5.3,5.4c-7.7-0.4-15.3-0.4-23,0c-5.1,0.3-6.6-1.4-6.6-6.4
	c0.2-25.8,0-51.6,0.2-77.4c0-4.3-1.2-5.5-5.3-5.3c-7,0.3-14,0-21,0.1c-3.1,0.1-4.5-0.8-4.4-4.2c0.2-7.5,0.1-15-0.1-22.5
	c-0.1-2.9,1.2-3.7,3.9-3.6c6,0.1,12,0.1,18,0c9.7,0,8.4,0.7,8.8-9c0.4-8.1,0.6-16.4,2.8-24.1c3.8-13,12.8-22.1,25.6-26.7
	c4.7-1.5,9.5-2.4,14.4-2.6c8-0.4,16-0.1,24-0.1c2.7,0,3.9,0.8,3.9,3.7c-0.2,8.2-0.2,16.3-0.2,24.5c0,3-1.2,4.1-4.2,4.1
	c-7.5,0-15,0.1-22.5,0.4c-6.1,0.2-8.2,1.9-8.8,8c-0.5,6.3-0.6,12.6-0.2,19c0,1,2.5,2.8,3.9,2.8c8.8,0.3,17.6,0.3,26.5,0.1
	c4-0.1,5.7,1,5.5,5.4c-0.3,6.6-0.2,13.3,0,20c0.1,3.7-1.1,5.1-4.8,5c-8.8-0.2-17.7,0.1-26.5-0.1c-3.6-0.1-4.9,1-4.9,4.8
	C215.1,219.8,215,233.1,215,246.4z"/>
</svg>
