<?xml version="1.0" encoding="utf-8"?>
<!-- Generator: Adobe Illustrator 25.4.1, SVG Export Plug-In . SVG Version: 6.00 Build 0)  -->
<svg version="1.1" id="Layer_1" xmlns="http://www.w3.org/2000/svg" xmlns:xlink="http://www.w3.org/1999/xlink" x="0px" y="0px"
	 viewBox="0 0 399.9 399.9" style="enable-background:new 0 0 399.9 399.9;" xml:space="preserve">
<style type="text/css">
	.st0{fill:#FFFFFF;}
</style>
<path d="M200.5,109.8c17.5,0,35-0.6,52.4,0.1c21.2,0.9,36.2,15.7,37.1,37.1c0.9,23,0.6,46,0.6,68.9c0,12,0.3,24-0.5,36
	c-1.6,22.7-16.5,37.4-39.3,37.8c-33.8,0.6-67.6,0.6-101.4,0c-22.9-0.4-38.7-16.5-39.1-39.6c-0.6-33.5-0.6-66.9,0-100.4
	c0.4-23.6,15.2-38.2,38.7-40c2.3-0.2,4.7-0.4,7-0.4c14.8,0,29.6,0,44.5,0L200.5,109.8z M267.2,199.6c0-8.3,0.1-16.7,0-25
	c-0.2-23.9-17.9-41.7-41.8-41.8c-16.7-0.1-33.3-0.1-50,0c-23.9,0.1-41.8,17.6-42.2,41.5c-0.3,17-0.3,34,0,51
	c0.4,23.4,18.1,41,41.3,41.4c17.1,0.3,34.3,0.3,51.5,0c23.3-0.4,40.8-18.3,41.1-41.6C267.3,216.6,267.2,208.1,267.2,199.6z"/>
<path d="M200.4,255.1c-8.5,0-17,0.1-25.5,0c-17.1-0.2-29.9-13-30-30.2c-0.1-16.8-0.1-33.7,0-50.5c0.1-16.9,12.7-29.9,29.6-30.2
	c17.2-0.3,34.3-0.3,51.5,0c16.9,0.2,29.7,13.2,29.8,30c0.2,17,0.2,34,0,51c-0.2,17.1-13.2,29.7-30.4,29.9
	C217.1,255.2,208.8,255.1,200.4,255.1z M200.3,233c18.4,0,33.3-14.9,33.3-33.2c0-18.4-14.9-33.3-33.2-33.3
	c-18.3,0-33.2,14.8-33.3,33.1C167,217.9,181.9,232.8,200.3,233z M236.9,171.4c4.5,0,8.1-3.6,8.2-8.1c0-0.1,0-0.1,0-0.2
	c-0.1-4.5-3.8-8.1-8.4-8.1c-4.3,0.2-7.8,3.7-7.9,8c-0.2,4.4,3.3,8.1,7.7,8.3C236.6,171.4,236.7,171.4,236.9,171.4L236.9,171.4z"/>
<path class="st0" d="M178.6,199.6c-0.1,12,9.6,21.7,21.6,21.8c12,0.1,21.7-9.6,21.8-21.6c0.1-11.9-9.5-21.6-21.3-21.8
	c-11.9-0.3-21.8,9.1-22.1,21C178.7,199.2,178.6,199.4,178.6,199.6z"/>
<path d="M178.6,199.6c0.1-12,9.9-21.6,21.8-21.6s21.6,9.9,21.6,21.8c-0.1,12-9.9,21.6-21.8,21.6c-0.1,0-0.2,0-0.2,0
	C188.1,221.2,178.5,211.5,178.6,199.6z"/>
</svg>
