<?xml version="1.0" encoding="utf-8"?>
<!-- Generator: Adobe Illustrator 25.4.1, SVG Export Plug-In . SVG Version: 6.00 Build 0)  -->
<svg version="1.1" id="Layer_1" xmlns="http://www.w3.org/2000/svg" xmlns:xlink="http://www.w3.org/1999/xlink" x="0px" y="0px"
	 viewBox="0 0 399.9 399.9" style="enable-background:new 0 0 399.9 399.9;" xml:space="preserve">
<style type="text/css">
	.st0{fill:#FFFFFF;}
</style>
<path class="st0" d="M156,251.5c-19,14.3-39.6,19.6-62.1,19c0.9,1.1,2,2.1,3.3,2.8c80.9,44.6,182.4-5.3,187.6-106.2
	c0.3-6.8,1.8-11.4,7.3-15.4c4.1-3,7.2-7.3,10.7-11.1c1-1.1,1.5-2.6,2.7-4.6l-20.8,5.5l-0.6-1.2c7.6-5.7,13.4-12.7,16.5-21.9
	c-8,2.9-15.5,5.7-23.1,8.5c-3,1.1-5.1,0.4-7.6-1.7c-13.4-11.6-28.8-14.4-45.2-8.1s-25.9,18.8-28.1,36.4c-0.6,4.7-0.1,9.5-0.1,14.9
	c-36.5-2.6-66.2-18.1-90-45.6c-11.9,14.8-7.6,36.7,10.9,58.8l-17.8-5c1.2,22,12.7,35.9,33,44.1h-17.5
	C122.8,239.5,136,249.1,156,251.5z"/>
<path class="st0" d="M156,251.5c-20-2.4-33.3-12-40.9-30.9h17.4c-20.2-8.2-31.7-22.1-33-44.1l17.8,5c-18.5-22.1-22.9-44-10.9-58.8
	c23.8,27.4,53.6,43,90,45.6c0-5.3-0.5-10.2,0.1-14.9c2.2-17.6,11.6-30.1,28.1-36.4s31.8-3.5,45.2,8.1c2.5,2.2,4.6,2.8,7.6,1.7
	c7.6-2.8,15.1-5.6,23.1-8.5c-3,9.2-8.9,16.2-16.5,21.9l0.6,1.2l20.8-5.5c-1.2,2-1.8,3.5-2.7,4.6c-3.5,3.8-6.6,8.2-10.7,11.1
	c-5.5,4-7,8.7-7.3,15.4C279.7,268,178.2,317.9,97.3,273.3c-1.3-0.7-2.4-1.6-3.3-2.8C116.5,271.1,137,265.8,156,251.5z"/>
</svg>
