<?xml version="1.0" encoding="UTF-8"?>
<svg viewBox="0 0 30 30" version="1.1" xmlns="http://www.w3.org/2000/svg" xmlns:xlink="http://www.w3.org/1999/xlink">
    <!-- Generator: Sketch 51.3 (57544) - http://www.bohemiancoding.com/sketch -->
    <title>icon_nav_promotions</title>
    <desc>Created with Sketch.</desc>
    <defs></defs>
    <g id="Screens" stroke="none" stroke-width="1" fill="none" fill-rule="evenodd">
        <rect id="Rectangle-8" fill-rule="nonzero" x="0" y="0" width="30" height="30"></rect>
        <path d="M16.4008396,20.4496302 L23.5174157,20.4496302 L23.5174157,15.7961404 L16.4008396,15.7961404 L16.4008396,20.4496302 Z M15.2997307,10.5504548 L19.7783955,10.5504548 L19.7783955,10.5508799 C19.7855122,10.5507949 19.7924635,10.5504548 19.7995802,10.5504548 C21.5971368,10.5504548 23.100507,11.710193 23.443683,13.2457706 L16.3604562,13.2457706 C16.243361,12.2517215 15.8681597,11.3327382 15.2997307,10.5504548 Z M6.48779772,20.4496302 C6.48779772,20.4496302 6.48672194,13.9440619 6.48672194,13.9126923 C6.48672194,12.0587435 8.15038442,10.5504548 10.2004198,10.5504548 C12.2503724,10.5504548 13.9142004,12.0587435 13.9142004,13.9126923 C13.9142004,13.9442319 13.9182553,20.4496302 13.9182553,20.4496302 L6.48779772,20.4496302 Z M19.7995802,8 C19.7924635,8 19.7855122,8.00051007 19.7783955,8.00051007 L19.7783955,8 L10.2004198,8 C6.77602576,8 4,10.6471988 4,13.9126923 L4.00521343,23 L26,23 L26,13.9126923 C26,10.6471988 23.2239742,8 19.7995802,8 Z" id="Fill-1" fill="#FFFFFF"></path>
    </g>
</svg>