<svg width="110" height="60" viewBox="0 0 110 60" fill="none" xmlns="http://www.w3.org/2000/svg">
<path d="M50.7828 10.3841C50.9998 15.5375 44.211 29.0033 41.2113 34.3541C38.9221 38.4215 37.7182 40.5737 36.7512 42.2322C36.7922 42.2831 36.8385 42.3294 36.8894 42.3704C43.0664 34.0974 55.7757 16.4062 55.4599 10.3841C55.2429 6.35621 52.0458 5.84285 49.6579 5.38873C47.2699 4.9346 43.1453 5.09256 38.7445 6.43519L40.0272 7.18549C47.3292 5.42822 50.6249 6.69187 50.7828 10.3841Z" fill="white"/>
<path d="M37.6787 6.67209C35.8174 7.11252 34.0201 7.78932 32.3305 8.68604C26.1929 12.0821 24.9102 17.8475 24.9102 17.8475H30.9293C30.9293 17.8475 27.9691 14.7674 29.1926 13.3853C30.2189 12.2401 33.9685 14.5502 34.6197 14.8859C33.3962 11.7267 35.3894 8.4491 39.3759 7.18545L38.4681 6.57336C38.2115 6.6326 37.9352 6.61285 37.6787 6.67209Z" fill="white"/>
<path d="M28.3835 9.83122C29.7255 7.63956 31.6595 6.31667 34.7974 6.51412C36.6525 6.63258 37.5208 7.26441 38.2905 8.07394C39.1391 9.06117 39.2969 10.4038 39.3364 12.2598C39.4548 17.5316 37.7773 27.0288 34.2843 36.9801C33.9488 37.9278 33.6725 38.7374 33.3962 39.4482C33.5146 39.5271 34.7184 40.5539 34.7184 40.5539C34.7184 40.5539 35.0144 40.3564 37.3432 36.3878C41.527 29.6351 45.6713 17.3342 45.4937 12.2796C45.395 9.73249 43.6978 8.03445 41.231 6.9485C38.2312 5.60586 29.1926 5.38867 27.2981 5.38867C26.3903 5.38867 24.4957 5.4479 24.4168 5.4479C24.4168 5.4479 27.4165 8.90322 25.8574 9.92994C24.2984 10.9567 20.825 8.27139 20.825 8.27139L20.7461 13.7801C25.3641 13.7604 27.1007 11.8254 28.3835 9.83122V9.83122Z" fill="white"/>
<path d="M16.6412 9.51933C17.845 6.87355 19.5817 5.90606 21.3381 5.62964C21.3381 5.62964 20.746 5.68887 19.8382 5.76785C17.0753 5.98504 12.3192 6.81432 10.5431 10.2104C10.1879 10.8463 9.98524 11.556 9.95101 12.2836C9.79313 16.8051 12.6744 26.5392 16.4043 33.9237C17.006 35.0641 18.0129 35.9376 19.2264 36.372C19.7001 36.4708 20.1935 36.5695 20.7263 36.6485C17.845 29.027 15.9899 17.8713 16.128 12.2836C16.137 11.3393 16.3107 10.4039 16.6412 9.51933Z" fill="white"/>
<path d="M14.4902 34.7292C10.4445 27.7396 4.58327 15.2413 4.78062 10.5618C4.97797 6.21797 8.80654 6.11925 11.9839 6.35618C11.9839 6.35618 9.20124 4.85559 6.06339 5.28997C3.00447 5.70461 0.221858 6.51414 0.00477321 10.542C-0.192576 14.2343 5.76737 24.5015 10.8787 31.5898C12.3588 33.6433 13.7008 34.3738 14.4902 34.7292V34.7292Z" fill="white"/>
<path d="M17.9241 41.3081C20.0752 43.7564 22.0289 47.4092 28.8375 48.041C33.416 48.4557 37.3038 47.8238 41.4284 52.5231C37.1459 45.494 31.9951 44.5462 27.9297 44.408C21.6934 44.2106 20.1936 42.8877 17.9241 41.3081V41.3081Z" fill="white"/>
<path d="M13.3257 35.1241C15.5755 37.5132 19.5817 42.252 25.4824 42.7061C29.5083 43.022 34.5802 42.7851 38.5864 47.0499C33.6921 39.468 30.0806 38.7374 23.9233 38.4412C18.8317 38.1648 15.6741 36.7432 13.3257 35.1241V35.1241Z" fill="white"/>
<path d="M33.3963 0.634195C31.5807 -0.0766116 27.91 0.00236671 27.91 0.00236671C27.91 0.00236671 24.2195 -0.0766116 22.4236 0.634195C20.6278 1.345 20.3317 2.50994 20.1936 4.46466C20.1936 4.46466 20.7067 1.64117 27.8705 1.64117C35.0343 1.64117 35.6263 4.46466 35.6263 4.46466C35.5079 2.49019 35.2119 1.32526 33.3963 0.634195V0.634195Z" fill="white"/>
<path d="M57.7886 52.6969C58.3125 52.5159 58.7583 52.1604 59.0517 51.69C59.3733 51.1684 59.5378 50.5651 59.5253 49.9524V49.7155C59.5253 47.4844 58.1044 46.3787 55.2626 46.3787H51.1182C50.8025 46.3787 50.5854 46.4182 50.4867 46.5169C50.3616 46.6799 50.305 46.8853 50.3288 47.0895V58.9165C50.3088 59.1203 50.365 59.3244 50.4867 59.4891C50.5854 59.5878 50.8025 59.6273 51.1182 59.6273H54.9863C56.6637 59.6273 57.907 59.3311 58.6767 58.7191C59.4464 58.107 59.8411 57.1592 59.8411 55.8561V55.5599C59.8545 54.9019 59.6536 54.2574 59.2687 53.7237C59.1053 53.4604 58.8896 53.2334 58.635 53.0568C58.3805 52.8802 58.0924 52.7577 57.7886 52.6969V52.6969ZM53.3088 48.906H54.8679C55.9138 48.906 56.4269 49.3009 56.4269 50.0709V50.3671C56.4269 51.2161 55.9533 51.6505 55.006 51.6505H53.3088V48.906ZM56.7427 55.6784C56.7427 56.5866 56.1901 57.0408 55.0849 57.0408H53.3285V54.0198H55.302C55.6924 53.9972 56.0779 54.1164 56.3874 54.3555C56.5181 54.4828 56.6193 54.6371 56.6841 54.8076C56.7489 54.9781 56.7756 55.1608 56.7624 55.3427V55.6784H56.7427Z" fill="white"/>
<path d="M68.8007 54.5135C70.1229 53.8619 70.7742 52.6772 70.7742 50.9397V50.4066C70.7742 49.0047 70.4387 47.978 69.748 47.3264C69.0572 46.6749 67.9718 46.3589 66.5114 46.3589H62.1895C61.9632 46.334 61.7349 46.3824 61.5382 46.4972C61.4131 46.6602 61.3565 46.8656 61.3803 47.0698V58.8968C61.3603 59.1006 61.4165 59.3047 61.5382 59.4694C61.6369 59.5681 61.854 59.6076 62.1895 59.6076H63.5906C63.9064 59.6076 64.1235 59.5681 64.2222 59.4694C64.3473 59.3063 64.4039 59.1009 64.38 58.8968V55.0071H65.9786L67.8731 58.8968C67.9663 59.1165 68.108 59.3123 68.2876 59.4694C68.4724 59.5773 68.6861 59.6256 68.8993 59.6076H70.6952C71.1097 59.6076 71.3268 59.4694 71.3268 59.2127C71.3245 59.1002 71.2903 58.9906 71.2281 58.8968L68.8007 54.5135ZM67.7153 50.9002C67.7153 51.9269 67.1429 52.4403 65.9983 52.4403H64.3603V48.9257H65.9983C67.1429 48.9257 67.7153 49.4391 67.7153 50.4461V50.9002Z" fill="white"/>
<path d="M83.6019 58.7783L79.6943 46.971C79.6529 46.7727 79.5492 46.5928 79.3983 46.4577C79.2357 46.3679 79.0508 46.3268 78.8655 46.3392H76.7144C76.5197 46.3199 76.3244 46.3687 76.1618 46.4774C76.015 46.6078 75.9116 46.7801 75.8658 46.971L71.9188 58.7783C71.8596 58.8376 71.8398 58.956 71.8398 59.1535C71.8398 59.4299 72.0175 59.5879 72.3529 59.5879H73.9712C74.09 59.5937 74.209 59.5871 74.3264 59.5681C74.4077 59.56 74.484 59.5253 74.5435 59.4694C74.6054 59.4042 74.6585 59.3312 74.7014 59.2522C74.7567 59.124 74.8029 58.992 74.8395 58.8573L75.4513 56.7841H79.8917L80.5232 58.8178C80.5535 58.9636 80.6068 59.1035 80.6811 59.2325C80.7172 59.3213 80.7709 59.4019 80.839 59.4694C80.8958 59.5293 80.9736 59.5647 81.056 59.5681C81.1669 59.5865 81.2793 59.5931 81.3916 59.5879H83.1282C83.4834 59.5879 83.6413 59.4497 83.6413 59.1535V58.9758C83.6611 58.956 83.6413 58.8771 83.6019 58.7783V58.7783ZM76.1815 54.4148L77.6617 49.4194L79.1812 54.4148H76.1815Z" fill="white"/>
<path d="M90.7263 51.9862L89.187 51.5123C88.4963 51.2951 88.0227 51.078 87.7661 50.841C87.6353 50.7097 87.5342 50.5519 87.4695 50.3782C87.4048 50.2045 87.3781 50.0189 87.3911 49.834C87.3911 48.9653 87.9043 48.5309 88.9107 48.5309C89.8383 48.5309 90.3909 48.906 90.5882 49.6366C90.6124 49.8222 90.6954 49.9952 90.825 50.1302C90.9892 50.2355 91.1833 50.284 91.3776 50.2684H92.838C93.058 50.2946 93.2805 50.2459 93.4695 50.1302C93.5287 50.0595 93.5732 49.9777 93.6003 49.8895C93.6275 49.8013 93.6367 49.7086 93.6274 49.6169C93.6219 49.1303 93.5073 48.6512 93.2919 48.215C93.0981 47.7749 92.8 47.3886 92.4235 47.0895C91.9735 46.7248 91.4576 46.45 90.904 46.28C90.2613 46.1028 89.597 46.0164 88.9305 46.0233C88.2821 46.0179 87.6366 46.1112 87.0162 46.2998C86.483 46.4663 85.9871 46.7345 85.5558 47.0895C85.1607 47.4247 84.844 47.8426 84.6282 48.3137C84.4084 48.8246 84.3007 49.3767 84.3125 49.9328V50.2289C84.3125 52.1047 85.3979 53.3486 87.549 54.0002L89.0884 54.474C89.6804 54.6517 90.0948 54.8492 90.3514 55.1059C90.4754 55.2297 90.5728 55.3777 90.6373 55.5408C90.7018 55.7038 90.7321 55.8784 90.7263 56.0536C90.7263 56.9421 90.154 57.3765 89.0291 57.3765C88.61 57.3979 88.1932 57.3022 87.8253 57.1001C87.5195 56.8715 87.3032 56.5433 87.2135 56.1721C87.1543 55.9154 87.0754 55.7377 86.957 55.6785C86.7761 55.5801 86.5697 55.5388 86.3649 55.56H84.944C84.724 55.5338 84.5015 55.5825 84.3125 55.6982C84.2533 55.7689 84.2088 55.8507 84.1817 55.9389C84.1545 56.0271 84.1454 56.1198 84.1546 56.2116C84.1558 56.6879 84.2567 57.1587 84.4506 57.5937C84.6386 58.0379 84.9215 58.4355 85.2795 58.7586C86.1084 59.5089 87.3319 59.8643 88.9502 59.8643C90.4895 59.8643 91.6736 59.5089 92.542 58.8179C93.4103 58.1268 93.8247 57.1396 93.8247 55.8759V55.5402C93.8445 53.783 92.7985 52.5983 90.7263 51.9862V51.9862Z" fill="white"/>
<path d="M97.7518 46.3589H96.3052C95.9895 46.3589 95.7724 46.3984 95.6737 46.4971C95.5486 46.6601 95.492 46.8655 95.5158 47.0697V58.8967C95.4958 59.1006 95.5521 59.3046 95.6737 59.4693C95.7724 59.5681 95.9895 59.6075 96.3052 59.6075H97.7459C98.0617 59.6075 98.2787 59.5681 98.3774 59.4693C98.5025 59.3063 98.5591 59.1009 98.5353 58.8967V47.0697C98.5553 46.8659 98.4991 46.6618 98.3774 46.4971C98.2787 46.3984 98.0676 46.3589 97.7518 46.3589Z" fill="white"/>
<path d="M108.843 57.0211C108.766 56.959 108.678 56.9131 108.583 56.8859C108.488 56.8588 108.388 56.851 108.29 56.8631H103.83V47.05C103.85 46.8462 103.794 46.6422 103.672 46.4774C103.574 46.3787 103.357 46.3392 103.041 46.3392H101.6C101.284 46.3392 101.067 46.3787 100.969 46.4774C100.844 46.6405 100.787 46.8459 100.811 47.05V58.881C100.791 59.0849 100.847 59.2889 100.969 59.4536C101.067 59.5523 101.284 59.5918 101.6 59.5918H108.31C108.408 59.6039 108.507 59.5962 108.602 59.569C108.697 59.5419 108.786 59.4959 108.863 59.4339C108.973 59.2356 109.021 59.0085 109.001 58.7823V57.6963C109.004 57.463 108.949 57.2326 108.843 57.025V57.0211Z" fill="white"/>
<path d="M83.6414 42.252C84.1892 42.2587 84.7283 42.1153 85.2005 41.8374C85.2005 41.9756 85.2202 42.0743 85.2794 42.1138C85.3386 42.1533 85.4373 42.1928 85.6149 42.1928H86.2465C86.4241 42.1928 86.5425 42.1731 86.5819 42.1138C86.6455 42.029 86.6738 41.9229 86.6609 41.8177V32.9128C86.6765 32.8013 86.6482 32.688 86.5819 32.5969C86.4768 32.5289 86.3508 32.5009 86.2267 32.5179H85.4965C85.3725 32.5009 85.2465 32.5289 85.1413 32.5969C85.075 32.688 85.0467 32.8013 85.0624 32.9128V35.4599C84.6677 35.065 84.0953 34.8478 83.3454 34.8478C82.4573 34.8478 81.7666 35.1242 81.293 35.6573C80.8194 36.1904 80.5825 36.9802 80.5825 38.007V39.3101C80.5825 40.2184 80.8588 40.9292 81.3917 41.4425C81.9245 41.9954 82.6744 42.252 83.6414 42.252V42.252ZM82.1811 38.0464C82.1811 36.8223 82.6744 36.2102 83.6414 36.2102C83.8448 36.1995 84.0481 36.2347 84.236 36.3133C84.4239 36.3919 84.5916 36.5119 84.7269 36.6643C84.9982 37.0722 85.1298 37.5573 85.1018 38.0464V39.0534C85.1018 40.2776 84.6282 40.8897 83.6612 40.8897C82.6942 40.8897 82.2008 40.2776 82.2008 39.0534V38.0464H82.1811Z" fill="white"/>
<path d="M90.8053 34.8676C89.8383 34.8676 89.0884 35.144 88.5555 35.6771C88.0227 36.2102 87.7661 36.9802 87.7661 37.9675V39.2706C87.7661 40.2183 88.0227 40.9489 88.5555 41.4623C89.0884 41.9756 89.8383 42.2323 90.8053 42.2323C91.7723 42.2323 92.5222 41.9559 93.0551 41.4228C93.5879 40.8897 93.8445 40.1196 93.8445 39.1324V37.8292C93.8445 36.8815 93.5879 36.151 93.0551 35.6376C92.5222 35.1242 91.7664 34.8676 90.8053 34.8676ZM92.246 39.0732C92.246 40.2776 91.7723 40.8897 90.8053 40.8897C89.8383 40.8897 89.3646 40.2776 89.3646 39.0732V38.0267C89.3646 36.8223 89.8383 36.2102 90.8053 36.2102C91.7723 36.2102 92.246 36.8223 92.246 38.0267V39.0732Z" fill="white"/>
<path d="M63.8078 39.1916V37.8885C63.8078 36.9407 63.5513 36.2102 63.0184 35.6968C62.4856 35.1834 61.7357 34.9268 60.7687 34.9268C59.8017 34.9268 59.0517 35.2032 58.5189 35.7363C57.986 36.2694 57.7295 37.0394 57.7295 38.0267V39.3338C57.7295 40.2815 57.986 41.0121 58.5189 41.5254C59.0517 42.0388 59.8017 42.2955 60.7687 42.2955C61.7357 42.2955 62.4856 42.019 63.0184 41.4859C63.5513 40.9528 63.8078 40.1788 63.8078 39.1916ZM62.2093 39.1324C62.2093 40.3368 61.7357 40.9489 60.7687 40.9489C59.8017 40.9489 59.328 40.3368 59.328 39.1324V38.0859C59.328 36.8815 59.8017 36.2694 60.7687 36.2694C61.7357 36.2694 62.2093 36.8815 62.2093 38.0859V39.1324Z" fill="white"/>
<path d="M65.2485 44.4042H65.9787C66.1027 44.4212 66.2288 44.3932 66.3339 44.3252C66.4002 44.2341 66.4285 44.1208 66.4129 44.0093V41.4425C66.8076 41.8374 67.3799 42.0546 68.1298 42.0546C69.0179 42.0546 69.7086 41.7979 70.1822 41.2648C70.6559 40.7317 70.8927 39.9814 70.8927 39.0139V37.7542C70.8927 36.8459 70.6361 36.1549 70.1033 35.6613C69.5705 35.1676 68.8205 34.911 67.8535 34.911C67.3472 34.9077 66.8472 35.0226 66.3931 35.2466C66.3945 35.21 66.3881 35.1735 66.3745 35.1395C66.3609 35.1055 66.3404 35.0748 66.3142 35.0492C66.255 34.9899 66.1563 34.9702 65.9787 34.9702H65.2682C65.0906 34.9702 64.9722 34.9899 64.9328 35.0492C64.8692 35.134 64.8409 35.2401 64.8538 35.3453V44.0132C64.8382 44.1248 64.8665 44.2381 64.9328 44.3291C64.9525 44.3884 65.0512 44.4081 65.2485 44.4081V44.4042ZM66.3734 38.0267C66.3734 37.4146 66.4918 36.9604 66.7286 36.684C66.9655 36.4076 67.3207 36.2694 67.8338 36.2694C68.3469 36.2694 68.7218 36.4076 68.9389 36.684C69.156 36.9604 69.2942 37.4146 69.2942 38.0267V38.8757C69.2942 40.0998 68.8008 40.7119 67.8338 40.7119C66.8668 40.7119 66.3931 40.0998 66.3931 38.8559V38.0267H66.3734Z" fill="white"/>
<path d="M72.3531 41.719C72.807 42.0744 73.4977 42.2521 74.445 42.2521C74.9562 42.2629 75.4629 42.1548 75.9251 41.9362C75.9198 42.0224 75.9481 42.1073 76.0041 42.1731C76.0633 42.2323 76.1619 42.2521 76.3396 42.2521H76.9711C77.1487 42.2521 77.2671 42.2323 77.3066 42.1731C77.3701 42.0883 77.3984 41.9821 77.3855 41.8769V37.3593C77.3909 37.0069 77.3511 36.6552 77.2671 36.3129C77.1863 36.025 77.0373 35.7609 76.8329 35.5428C76.5911 35.331 76.3092 35.1699 76.0041 35.069C75.5811 34.9471 75.1414 34.8937 74.7016 34.911C74.2136 34.893 73.7261 34.9598 73.2609 35.1085C72.9271 35.2237 72.6236 35.4126 72.3728 35.6613C72.1157 35.9186 71.9673 36.265 71.9584 36.6288C71.9528 36.6687 71.9571 36.7093 71.9709 36.7472C71.9846 36.7851 72.0075 36.819 72.0373 36.846C72.1262 36.9007 72.2291 36.9282 72.3334 36.925H73.2017C73.3018 36.9273 73.4017 36.914 73.4977 36.8855C73.568 36.8316 73.6169 36.7547 73.6359 36.6683C73.6984 36.4795 73.8333 36.3233 74.0108 36.2339C74.2306 36.1479 74.4657 36.1076 74.7016 36.1154C75.0216 36.0941 75.3381 36.1927 75.5896 36.3919C75.787 36.5696 75.8857 36.925 75.8857 37.4383V37.7937C75.6488 37.774 75.412 37.7542 75.1357 37.7345C74.8594 37.7147 74.6424 37.7148 74.4253 37.7148C74.0667 37.7129 73.709 37.7527 73.3596 37.8332C73.0487 37.9011 72.7538 38.0285 72.4912 38.2084C72.2334 38.3876 72.0289 38.6332 71.8992 38.9192C71.7459 39.2671 71.6717 39.6448 71.6821 40.0249C71.6821 40.7949 71.9189 41.3675 72.3531 41.7229V41.719ZM73.5372 39.1916C73.8182 39.0104 74.1513 38.9271 74.4845 38.9547C74.6621 38.9547 74.8595 38.9547 75.0765 38.9745C75.2936 38.9942 75.5502 39.0139 75.8462 39.0337V39.6458C75.8462 40.1591 75.7475 40.5145 75.5699 40.7317C75.3923 40.9489 75.0765 41.0476 74.6226 41.0476H74.3858C74.078 41.0679 73.7724 40.9845 73.5175 40.8107C73.4055 40.7097 73.3187 40.5839 73.2638 40.4433C73.209 40.3028 73.1878 40.1514 73.2017 40.0012C73.2412 39.626 73.3399 39.3496 73.5372 39.1916V39.1916Z" fill="white"/>
<path d="M51.6511 41.8769C52.2216 42.1999 52.8709 42.3571 53.5259 42.331C54.7297 42.331 55.6178 42.0349 56.2098 41.4228C56.4632 41.172 56.6585 40.8687 56.7822 40.5343C56.9124 40.1465 56.9725 39.7387 56.9598 39.3298C56.9727 39.2246 56.9444 39.1185 56.8808 39.0337C56.7784 38.977 56.6623 38.9497 56.5454 38.9547H55.7362C55.6212 38.9454 55.5056 38.9658 55.4007 39.0139C55.3641 39.0493 55.3361 39.0926 55.319 39.1406C55.3018 39.1885 55.296 39.2398 55.302 39.2904C55.2823 39.8432 55.1442 40.2381 54.8679 40.4948C54.5916 40.7515 54.1772 40.8897 53.6246 40.8897C52.9931 40.8897 52.5391 40.6922 52.2629 40.3171C51.9866 39.9419 51.8484 39.3101 51.8484 38.4611V36.2102C51.8484 35.3217 51.9866 34.6899 52.2431 34.3344C52.4997 33.979 52.9733 33.7816 53.6246 33.7816C54.1969 33.7816 54.6113 33.9001 54.8679 34.137C55.1244 34.3739 55.2429 34.7886 55.2626 35.3414C55.2585 35.3919 55.2652 35.4426 55.2822 35.4902C55.2993 35.5379 55.3262 35.5814 55.3613 35.6178C55.4655 35.6683 55.5816 35.6888 55.6967 35.6771H56.5256C56.7032 35.6771 56.8019 35.6573 56.8611 35.5981C56.9203 35.5389 56.9401 35.4599 56.9401 35.3019C56.9458 34.9079 56.8926 34.5153 56.7822 34.137C56.6661 33.8035 56.4774 33.5 56.2296 33.2485C55.677 32.6562 54.8284 32.36 53.6838 32.36C52.9683 32.3425 52.2607 32.5127 51.6314 32.8536C51.0807 33.1902 50.6626 33.7061 50.4473 34.3147C50.3451 34.6109 50.266 34.9146 50.2104 35.223C50.1591 35.6224 50.1327 36.0247 50.1315 36.4274V38.3821C50.126 38.8041 50.1458 39.2261 50.1907 39.6458C50.2248 39.9394 50.3047 40.2259 50.4275 40.4948C50.6872 41.0681 51.1136 41.5498 51.6511 41.8769Z" fill="white"/>
<path d="M18.2991 55.3269C17.8057 53.8264 18.753 51.615 20.4304 49.3641C20.9238 48.7125 22.0487 47.3501 22.0487 47.3501C22.0487 47.3501 21.1804 46.4419 20.7462 45.9482C18.378 47.6265 15.9901 49.6207 14.3915 51.6544C12.9114 53.5697 12.0628 55.7416 12.6943 57.3014C14.0561 60.658 26.2917 59.9077 26.2917 59.9077C26.2917 59.9077 19.5029 59.0192 18.2991 55.3269V55.3269Z" fill="white"/>
<path d="M37.2051 51.0977C37.4419 52.4403 37.5011 54.395 37.1854 55.323C36.1197 58.4624 31.0873 59.5879 29.5874 59.8445C29.5282 59.8445 29.5479 59.9235 29.5874 59.9433C31.7583 60.042 41.5468 60.2987 42.7703 57.3172C42.8661 57.0556 42.9323 56.7841 42.9677 56.5077C43.0072 55.3033 41.1718 52.4798 37.2051 51.0977V51.0977Z" fill="white"/>
</svg>
