<svg version="1.1" xmlns="http://www.w3.org/2000/svg">
    <symbol id="facebook" viewBox="0 0 32 32">
        <path d="M12 10.667h-4v5.333h4v16h6.667v-16h4.8l0.533-5.333h-5.333v-2.267c0-1.333 0.267-1.733 1.467-1.733h3.867v-6.667h-5.067c-4.8 0-6.933 2.133-6.933 6.133v4.533z"></path>
    </symbol>
    <symbol id="twitter" viewBox="0 0 32 32">
        <path d="M32 6c-1.2.6-2.4 1-3.8 1.1a6.6 6.6 0 003-3.6c-1.4.7-2.8 1.3-4.3 1.6a6.5 6.5 0 00-11.3 4.5c0 .5 0 1 .2 1.5A18.6 18.6 0 012.2 4.2c-.5 1-.9 2.1-.9 3.3 0 2.3 1.2 4.3 3 5.5-1.1 0-2.1-.4-3-.9v.1c0 3.2 2.3 5.9 5.3 6.5a6.7 6.7 0 01-3 0 6.6 6.6 0 006.1 4.6A13.2 13.2 0 010 26a18.5 18.5 0 0028.7-15.7v-.8C30 8.5 31.1 7.4 32 6z"/>
    </symbol>
    <symbol id="instagram" viewBox="0 0 32 32">
        <path d="M16 2.933h6.4c4.4 0.267 6.4 2.267 6.667 6.667 0.12 1.933 0.188 4.192 0.188 6.467s-0.068 4.534-0.203 6.775l0.015-0.308c-0.267 4.267-2.267 6.267-6.667 6.533-1.913 0.118-4.149 0.185-6.4 0.185s-4.487-0.067-6.706-0.2l0.306 0.015c-4.4-0.267-6.4-2.267-6.667-6.667-0.118-1.913-0.185-4.149-0.185-6.4s0.067-4.487 0.2-6.706l-0.015 0.306c0.267-4.4 2.267-6.4 6.667-6.667h6.4zM16 0h-6.667c-5.6 0.533-8.8 3.733-9.333 9.333-0.126 1.993-0.198 4.321-0.198 6.667s0.072 4.674 0.213 6.984l-0.016-0.317c0.4 5.733 3.6 8.933 9.333 9.333 1.993 0.124 4.321 0.195 6.667 0.195s4.674-0.071 6.984-0.21l-0.318 0.015c5.733-0.4 8.933-3.6 9.333-9.333 0.126-1.993 0.198-4.321 0.198-6.667s-0.072-4.674-0.213-6.984l0.016 0.317c-0.4-5.733-3.6-8.933-9.333-9.333h-6.667zM16 7.733c-4.566 0-8.267 3.701-8.267 8.267s3.701 8.267 8.267 8.267v0c4.566 0 8.267-3.701 8.267-8.267s-3.701-8.267-8.267-8.267v0zM16 21.333c-2.946 0-5.333-2.388-5.333-5.333s2.388-5.333 5.333-5.333v0c2.946 0 5.333 2.388 5.333 5.333s-2.388 5.333-5.333 5.333v0zM24.533 5.6c-1.031 0-1.867 0.836-1.867 1.867s0.836 1.867 1.867 1.867v0c1.031 0 1.867-0.836 1.867-1.867s-0.836-1.867-1.867-1.867v0z"></path>
    </symbol>
    <symbol id="vkontakte" viewBox="0 0 32 32">
        <path d="M17.6 25.333c0.8 0 1.067-0.533 1.067-1.333 0-2.4 0.933-3.867 2.667-2 2.267 2 2.667 3.333 5.067 3.333h4.267c1.067 0 1.467-0.4 1.467-0.933 0-1.067-1.867-3.2-3.467-4.667-2.267-2-2.4-2.133-0.4-4.667 2.267-3.067 5.333-7.067 2.4-7.067h-5.333c-0.933 0-1.067 0.533-1.333 1.333-1.333 3.2-4 7.333-4.933 6.667s-0.533-3.2-0.4-7.067c0-0.933 0-1.6-1.467-2-0.714-0.17-1.533-0.268-2.375-0.268-0.056 0-0.111 0-0.166 0.001l0.008-0c-2.667 0-4.933 1.333-3.733 1.467 2.133 0.4 1.867 4.933 1.333 6.933-0.8 3.333-4-2.667-5.333-5.733-0.267-0.8-0.267-1.333-1.6-1.333h-4.267c-0.667 0-1.067 0.267-1.067 0.667 0 0.8 4 8.933 7.733 13.067 3.6 4 7.333 3.6 9.867 3.6z"></path>
    </symbol>
    <symbol id="youtube" viewBox="0 0 32 32">
        <path d="M26.133 4.267c-4.8-0.4-15.467-0.4-20.267 0-5.333 0.4-5.867 3.467-5.867 11.733s0.667 11.333 5.867 11.733c4.8 0.4 15.467 0.4 20.267 0 5.333-0.267 5.867-3.467 5.867-11.733s-0.667-11.333-5.867-11.733zM12 21.333v-10.667l10.667 5.333-10.667 5.333z"></path>
    </symbol>
    <symbol id="telegram" viewBox="0 0 32 32">
        <path d="M24.4 30.267l-7.6-5.333-4 3.867c-0.267 0.267-0.667 0.4-1.067 0.267-0.4 0-0.8-0.267-0.8-0.667l-2.933-8.8-7.2-2.267c-0.533-0.133-0.8-0.533-0.8-1.067s0.267-0.933 0.667-1.067l29.993-11.199c0.069-0.014 0.14-0.021 0.213-0.021 0.282 0 0.538 0.109 0.728 0.287 0.4 0.267 0.4 0.667 0.4 0.933l-5.067 24.267c-0.133 0.533-0.4 0.933-1.067 1.067-0.4 0.267-0.933 0.133-1.333-0.133zM9.867 18.667l2.133 7.467 0.4-4.667 13.733-12.133v-0.4c0-0.133-0.267-0.267-0.4 0l-16 9.733z"></path>
    </symbol>
    <symbol id="whatsapp" viewBox="0 0 32 32">
        <path d="M26.596 5.343c-2.675-2.693-6.38-4.359-10.475-4.359-0.015 0-0.030 0-0.046 0h0.002c-8.209 0.017-14.856 6.676-14.856 14.887 0 2.727 0.733 5.283 2.014 7.482l-0.038-0.071-2.109 7.701 7.884-2.067c2.051 1.139 4.498 1.809 7.101 1.809h0.009c8.189 0 14.859-6.67 14.859-14.863 0.005-3.975-1.537-7.711-4.345-10.518zM16.077 28.217h-0.009c-2.217 0-4.387-0.6-6.286-1.725l-0.45-0.267-4.678 1.228 1.247-4.561-0.291-0.469c-1.18-1.861-1.88-4.128-1.88-6.558 0-6.828 5.53-12.364 12.355-12.374h0.001c3.3 0 6.398 1.289 8.732 3.628s3.619 5.437 3.614 8.737c-0.008 6.82-5.532 12.347-12.35 12.36h-0.001zM22.85 18.96c-0.37-0.188-2.194-1.083-2.536-1.209-0.342-0.122-0.591-0.188-0.834 0.188-0.248 0.375-0.961 1.209-1.177 1.453-0.22 0.253-0.436 0.281-0.806 0.094-0.375-0.183-1.57-0.577-2.986-1.842-0.799-0.74-1.485-1.587-2.039-2.521l-0.028-0.052c-0.216-0.37 0-0.553 0.164-0.755 0.322-0.376 0.628-0.79 0.902-1.227l0.026-0.044c0.122-0.248 0.061-0.469-0.033-0.656-0.094-0.183-0.834-2.011-1.144-2.756-0.3-0.722-0.609-0.623-0.834-0.637-0.22-0.009-0.469-0.009-0.712-0.009-0.248 0-0.652 0.094-0.994 0.464-0.337 0.375-1.298 1.266-1.298 3.094s1.331 3.6 1.519 3.844c0.188 0.248 2.616 4.003 6.342 5.611 0.891 0.384 1.58 0.609 2.119 0.783 0.891 0.281 1.701 0.244 2.344 0.145 0.708-0.103 2.194-0.895 2.503-1.762 0.309-0.872 0.309-1.612 0.216-1.767s-0.337-0.248-0.712-0.436z"></path>
    </symbol>
    <symbol id="tiktok" viewBox="0 0 32 32"><path d="M30 8a8 8 0 01-8-8h-5.3v22.1a4.7 4.7 0 11-3.2-4.5v-5.3l-1.5-.1a10 10 0 00-10 9.3 9.8 9.8 0 003.8 8.4 10 10 0 0013.2-.8c2-1.9 3-4.3 3-7V10.5a13.2 13.2 0 008 2.7V8z"/></symbol>
    <symbol id="tiktok-color" viewBox="0 0 32 32"><path d="M16 0a16 16 0 0111.3 27.3A16 16 0 010 16 16 16 0 0116 0zm3.1 7.8c.3 2.4 1.7 3.9 4 4v2.7c-1.3.2-2.5-.3-4-1.1v5c0 6.7-7 7.2-9 4-1.4-2.3-1-7.5 4-8.3V17c-1.2.2-1.8.5-2.1 1.2-2.1 4 5.2 6.3 4.7-.1V7.8H19zm7.1-2A14.4 14.4 0 001.5 16a14.4 14.4 0 0024.7 10.2 14.4 14.4 0 000-20.4z"/><path fill="#26f4ee" d="M19 7.2c.3 2.4 1.8 4.1 4.1 4.3v2.3-2c-2.3-.1-3.7-1.6-4-4h-2.4V18c.3 4.6-3.2 4.7-4.6 3 1.6 1 4.2.3 3.9-3.6V7.2h3zm-6.6 16.9A5.2 5.2 0 019 21.7c-1.8-3-.2-7.8 5-8.3v.7c-4.8.8-5.3 6-4 8.2.6.9 1.4 1.5 2.4 1.8z"/><path fill="#fb2c53" d="M19.8 8c.1 1.4.6 2.6 1.5 3.4-1.2-.7-2-1.8-2.1-3.4h.6zm3.3 4.3l.6.1v2.7c-1.3.2-2.5-.3-3.9-1.1l.2 4.6c0 1.5 0 2.2-.8 3.6a5 5 0 01-7.8 1.4c2.9 1.7 7.8.4 7.8-5.1v-5.1c1.4.8 2.6 1.3 4 1.1v-2.2zm-9 2l.9-.1V17c-1.2.2-2 .6-2.3 1.2-1 1.8 0 3.3 1.4 3.8-1.6 0-3.3-1.8-2.1-4 .3-.6 1-1 2-1.1v-2.6z"/></symbol>
</svg>
