<svg width="18" height="27" viewBox="0 0 18 27" fill="none" xmlns="http://www.w3.org/2000/svg">
<path d="M12.2343 1.09801L9.36208 11.6718C9.30757 11.8411 9.29436 12.0213 9.32361 12.1969C9.35285 12.3725 9.42366 12.5382 9.52994 12.6798C9.63622 12.8214 9.77476 12.9345 9.93363 13.0095C10.0925 13.0845 10.2669 13.1191 10.4419 13.1102H16.9206L7.2565 25.902L9.41607 16.8325C9.45469 16.6585 9.4546 16.478 9.4158 16.304C9.377 16.1301 9.30046 15.9672 9.19179 15.8272C9.08311 15.6873 8.94505 15.5737 8.78769 15.495C8.63034 15.4163 8.45766 15.3743 8.28229 15.3721H1.04774L5.66922 1.09801H12.1479M12.2343 0H5.7556C5.5279 0.000170566 5.30608 0.0735337 5.12184 0.209604C4.93761 0.345675 4.80039 0.537488 4.7298 0.757626L0.108329 15.0317C0.0566507 15.1922 0.0420512 15.3626 0.0656658 15.5297C0.0892803 15.6968 0.150472 15.8561 0.244486 15.9953C0.3385 16.1344 0.462802 16.2496 0.607733 16.332C0.752664 16.4144 0.914319 16.4616 1.08013 16.4701H8.28229C8.29407 16.4643 8.30699 16.4613 8.32009 16.4613C8.33318 16.4613 8.3461 16.4643 8.35788 16.4701C8.36382 16.484 8.36689 16.4989 8.36689 16.514C8.36689 16.5291 8.36382 16.5441 8.35788 16.558L6.19831 25.6275C6.1385 25.8712 6.16268 26.1284 6.26683 26.3562C6.37097 26.584 6.54879 26.7686 6.7706 26.8792C6.91867 26.9521 7.08118 26.9897 7.2457 26.989C7.4106 26.9886 7.57323 26.9498 7.72109 26.8756C7.86896 26.8014 7.99814 26.6937 8.09873 26.5608L17.7304 13.8129C17.8607 13.6539 17.9442 13.4607 17.9711 13.2555C17.9981 13.0504 17.9675 12.8416 17.8828 12.6534C17.7982 12.4651 17.6629 12.3051 17.4927 12.1916C17.3224 12.0782 17.1241 12.016 16.9206 12.0122H10.4419L13.3249 1.43839C13.3709 1.27182 13.3776 1.09654 13.3444 0.926846C13.3112 0.757147 13.239 0.597832 13.1338 0.46189C13.0285 0.325947 12.8931 0.217225 12.7387 0.144589C12.5843 0.0719534 12.4151 0.0374613 12.2451 0.0439213L12.2343 0Z" fill="white"/>
</svg>
