<?xml version="1.0" encoding="UTF-8"?>
<svg viewBox="0 0 30 30" version="1.1" xmlns="http://www.w3.org/2000/svg" xmlns:xlink="http://www.w3.org/1999/xlink">
    <!-- Generator: Sketch 53.2 (72643) - https://sketchapp.com -->
    <title>icon_nav_sports</title>
    <desc>Created with Sketch.</desc>
    <g id="Slicing" stroke="none" stroke-width="1" fill="none" fill-rule="evenodd">
        <g id="Group-15" transform="translate(-123.000000, -70.000000)" fill="#FFFFFF" fill-rule="nonzero">
            <g id="Group-3" transform="translate(0.000000, 50.000000)">
                <g id="running-sportive-shoe-for-soccer-players-svgrepo-com" transform="translate(138.217837, 35.723560) rotate(18.000000) translate(-138.217837, -35.723560) translate(125.217837, 29.723560)">
                    <path d="M11.6704521,1.09905405 C11.3781417,0.863324324 11.1279729,0.670378378 10.9461083,0.537405405 C10.0977771,-0.0824594595 9.61536875,-0.038972973 9.06349167,0.59572973 C9.05704583,0.603486486 8.58325,1.17324324 7.74512917,2.14605405 C8.75937292,2.10245946 9.60629583,1.77635135 10.2156708,1.43664865 C10.7603438,1.13356757 11.054875,1.08075676 11.6704521,1.09905405 Z" id="Path"></path>
                    <path d="M1.01210417,10.2534865 C1.04928958,10.4052162 1.20710417,10.5324054 1.3635375,10.5378108 C1.62432292,10.5468108 2.04888125,10.5613514 2.56695833,10.5787297 L2.75529583,11.3601622 C2.78684792,11.4911081 2.92183125,11.5972162 3.0567875,11.5972162 L4.01670208,11.5972162 C4.15165833,11.5972162 4.28664167,11.4910541 4.31819375,11.3601622 L4.49136458,10.6416216 C4.84921667,10.652973 5.212675,10.6643243 5.56960625,10.6751081 L5.74781458,11.4145676 C5.77936667,11.5455135 5.91435,11.6516216 6.04930625,11.6516216 L7.00922083,11.6516216 C7.14417708,11.6516216 7.27916042,11.5454595 7.3107125,11.4145676 L7.47600208,10.7287297 C7.80054167,10.736973 8.12505417,10.7468919 8.4495125,10.7578378 L8.61431458,11.4417568 C8.64589375,11.5727027 8.78082292,11.6788378 8.91583333,11.6788378 L9.87574792,11.6788378 C10.01065,11.6788378 10.1456875,11.5726486 10.1772396,11.4417568 L10.3244646,10.8308649 C12.0565521,10.9049189 13.7882604,10.9890541 15.521675,11.0194324 L15.6988542,11.7547027 C15.7304333,11.8856486 15.8653625,11.9917568 16.0003458,11.9917568 L16.9602875,11.9917568 C17.0952167,11.9917568 17.2302271,11.8855946 17.2617792,11.7547027 L17.4368729,11.0281351 C17.7796667,11.0249189 18.1224062,11.0188649 18.4650917,11.0096757 L18.6381,11.7274865 C18.6696792,11.8584324 18.8046083,11.9645405 18.9395917,11.9645405 L19.8994792,11.9645405 C20.0344354,11.9645405 20.1694458,11.8583784 20.2009979,11.7274865 L20.3953208,10.9211622 C20.7002792,10.9004595 21.0051292,10.8763784 21.3094646,10.8475946 L21.5215271,11.7275135 C21.5530792,11.8584595 21.6880354,11.9645676 21.8230187,11.9645676 L22.7829333,11.9645676 C22.9178625,11.9645676 23.0528729,11.8584054 23.084425,11.7275135 L23.361975,10.5758919 C23.7609396,10.5061892 24.1581167,10.4262432 24.5527479,10.3332703 C24.9480292,10.2401351 25.3403042,10.1338378 25.7282729,10.0138108 C25.8778,9.96756757 25.9984021,9.80121622 25.9985646,9.64502703 C25.9990792,9.21948649 25.9999458,8.46205405 25.9999458,8.44591892 C25.9999458,8.22143243 25.9059396,7.93848649 25.7985542,7.74383784 C25.5523667,7.29767568 25.0401667,7.07924324 24.5841375,6.91178378 C23.8941354,6.65840541 23.1728521,6.49048649 22.4592062,6.31875676 C22.1545458,6.24543243 21.8517812,6.16897297 21.5496125,6.08608108 C21.0963187,5.96172973 20.6442979,5.83283784 20.1919521,5.70518919 C19.2831708,5.44878378 18.3831104,5.17218919 17.5014667,4.84432432 C17.5905708,4.60416216 17.4683437,4.27686486 17.1342437,4.27686486 C16.9284104,4.27686486 16.8032854,4.40124324 16.7580562,4.55281081 C16.466775,4.43251351 16.1777146,4.30581081 15.8916062,4.17086486 C16.0291354,3.92978378 15.9161979,3.54210811 15.5526042,3.54210811 C15.3443604,3.54210811 15.2186667,3.66945946 15.1748458,3.82348649 C14.8681542,3.67137838 14.5583479,3.51183784 14.2556375,3.34064865 C14.4323833,3.10567568 14.3286812,2.67132432 13.9437729,2.67132432 C13.7486646,2.67132432 13.62595,2.78305405 13.5751417,2.92378378 C13.3014917,2.74048649 13.0414917,2.54372973 12.8042417,2.32975676 C12.6361354,2.17818919 12.4778062,2.01472973 12.2878167,1.88932432 C11.7334479,1.52351351 10.9644437,1.68389189 10.4199604,1.99086486 C9.58852917,2.45881081 7.71509375,3.02705405 6.12083333,2.54402703 C5.4509,2.34105405 4.80631667,1.98716216 4.31792292,1.48145946 C4.06924375,1.22397297 3.88022917,0.930945946 3.70946875,0.618621622 C3.56023958,0.345648649 3.39197083,0.0559459459 3.0511,0.0134054054 C2.37878333,-0.0704864865 1.7623125,0.872648649 1.39416875,1.31467568 C0.609320833,2.25721622 0.104325,3.43481081 0.0144625,4.66054054 C-0.0709854167,5.82654054 0.239010417,7.04005405 0.499308333,8.17010811 C0.659939583,8.86710811 0.8419125,9.55872973 1.01210417,10.2534865 Z M1.29981042,2.97091892 C3.64593125,4.58167568 7.15111042,5.55910811 11.3630292,6.35962162 C15.6153292,7.16797297 17.4502792,9.49381081 17.8195875,10.0226216 C17.4951563,10.0173514 17.1707792,10.0091892 16.8464833,9.99859459 C16.2058271,9.97767568 15.5655771,9.94802703 14.9255167,9.91281081 C13.3452042,9.82591892 11.7664354,9.70537838 10.1876125,9.59975676 C10.068175,9.59237838 9.94960417,9.58505405 9.83149375,9.57781081 C9.16589375,8.16775676 7.83821458,7.2962973 6.47429792,6.64116216 C5.09367083,5.97797297 3.4659625,5.57197297 2.35419167,4.47427027 C2.01380833,4.13818919 1.72344792,3.7547027 1.48408542,3.34116216 C1.45724583,3.2947027 1.26579375,3.03002703 1.29981042,2.97091892 Z" id="Shape"></path>
                </g>
            </g>
        </g>
    </g>
</svg>