<svg width="125" height="28" viewBox="0 0 125 28" fill="none" xmlns="http://www.w3.org/2000/svg">
<path d="M0 20.7861V18.8368C0.663066 15.5332 1.65444 12.3141 2.53976 9.06899C3.0272 7.26981 4.09136 5.68305 5.56689 4.55523C7.04242 3.42742 8.84671 2.82169 10.6994 2.83216C33.5775 2.83216 56.4559 2.83216 79.3346 2.83216C79.565 2.81678 79.7963 2.82988 80.0235 2.87115C80.2163 2.91942 80.2698 3.03081 80.1812 3.21367C80.0926 3.3764 79.9878 3.52972 79.8686 3.67129C78.9208 4.91211 78.2104 6.31937 77.7733 7.82144C76.9581 10.5402 76.0728 13.2405 75.2271 15.9593C74.7845 17.3906 74.2763 18.8034 73.9702 20.2737C73.6493 21.7335 73.774 23.2567 74.328 24.6439C74.5724 25.2574 74.4921 25.367 73.8235 25.3809C73.6243 25.3809 73.4242 25.3809 73.2241 25.3809C55.7234 25.3809 38.2227 25.3493 20.722 25.4013C15.7024 25.4162 10.6819 25.4867 5.66235 25.4607C3.52836 25.4496 1.81029 24.5436 0.631715 22.6955C0.257299 22.1042 0.0922206 21.4582 0 20.7861Z" fill="#3098D0"/>
<path d="M124.664 9.55426C124.346 10.1873 124.231 10.8872 124.039 11.5593C123.266 14.2716 122.544 16.9987 121.762 19.7073C121.2 21.6566 119.83 22.9701 118.184 24.018C116.781 24.9101 115.258 25.4104 113.551 25.3102C113.566 25.2535 113.564 25.2025 113.588 25.1765C114.959 23.7154 115.732 21.9277 116.375 20.0638C117.781 15.9795 118.972 11.8349 120.147 7.68201C120.562 6.21632 120.459 4.78313 119.887 3.37778C119.854 3.29516 119.828 3.20977 119.795 3.11694C121.935 3.18285 123.739 4.71073 124.39 6.97469C124.483 7.30793 124.483 7.66902 124.667 7.97719L124.664 9.55426Z" fill="#3098D0"/>
<path d="M5.08283 16.9804C5.2556 16.6067 5.37959 16.212 5.45171 15.8062C5.59834 14.9708 5.93495 14.1911 6.14429 13.3742C6.41173 12.3337 6.7677 11.32 7.0665 10.2897C7.28137 9.55638 7.55526 8.83885 7.79504 8.11204C7.91954 7.73425 7.94075 7.32954 8.10674 6.95917C8.25799 6.62222 8.43044 6.44678 8.85465 6.42915C10.5146 6.36324 12.1691 6.42079 13.8253 6.44771C14.4838 6.45885 15.1441 6.44214 15.7989 6.42636C17.4238 6.38738 18.607 8.22993 18.1708 9.66313C17.7041 11.1966 17.3694 12.7746 16.7192 14.2495C16.1659 15.5138 15.1625 16.3139 13.9434 16.8755C13.2056 17.2153 12.4383 17.3099 11.6305 17.2626C10.8927 17.2199 10.155 17.245 9.4172 17.2561C8.6573 17.2663 8.49499 17.464 8.30133 18.1945C8.09568 18.9771 8.00346 19.8041 7.53313 20.5031C7.43538 20.6479 7.37267 20.8038 7.17532 20.8205C6.23005 20.8994 5.28479 21.0006 4.33769 20.8289C3.85076 20.7361 3.80465 20.6729 3.95774 20.1949C3.99559 20.045 4.05559 19.9017 4.13572 19.7698C4.44097 19.2453 4.59683 18.6679 4.70657 18.0767C4.80801 17.7044 4.79141 17.2914 5.08283 16.9804Z" fill="#FEFEFE"/>
<path d="M48.0202 10.2971C47.6836 11.2699 47.3543 12.2464 47.0058 13.2145C46.8988 13.5134 46.9569 13.6517 47.2889 13.6517C48.224 13.6517 49.1591 13.6517 50.0933 13.6629C50.4622 13.6629 50.5941 13.4317 50.6909 13.1347C51.33 11.1594 51.9866 9.18877 52.5436 7.18749C52.6026 6.9323 52.7381 6.70156 52.9318 6.52659C53.0397 6.39014 53.1882 6.45976 53.3164 6.4579C54.128 6.4514 54.9395 6.45326 55.752 6.4579C56.297 6.4579 56.3744 6.55073 56.2223 7.09003C56.0185 7.81498 55.787 8.53344 55.5537 9.24911C55.159 10.4558 54.7919 11.6681 54.4055 12.8767C54.3225 13.1347 54.2672 13.4095 54.1049 13.6387C53.8181 14.2755 53.5128 14.9021 53.0969 15.4674C52.7419 16.0865 52.1886 16.4606 51.543 16.7344C50.9943 16.9674 50.453 17.2143 49.8609 17.3266C49.5372 17.3879 49.3731 17.6199 49.2882 17.9226C49.0743 18.6791 48.84 19.4291 48.6021 20.1782C48.4047 20.801 48.2904 20.8836 47.6421 20.8706C46.8453 20.8548 46.0494 20.9635 45.2526 20.8827C44.7168 20.8289 44.7058 20.8168 44.7915 20.3016C44.8009 20.2252 44.8201 20.1503 44.8487 20.0788C45.1669 19.2917 45.3698 18.4646 45.6704 17.6654C45.7626 17.4232 45.5782 17.3173 45.3615 17.2561C44.9004 17.1252 44.4042 17.0825 44.0178 16.7483C43.1445 15.989 42.9508 15.0097 43.1952 13.9376C43.3925 13.0725 43.7098 12.238 43.9864 11.3924C44.3996 10.1309 44.7639 8.85182 45.1853 7.58663C45.3006 7.24226 45.2517 6.80135 45.6538 6.58693C45.8622 6.46254 46.0937 6.4876 46.3206 6.4876C47.22 6.49132 48.1189 6.49596 49.0171 6.50153C49.2854 6.7308 49.1093 6.99813 49.0328 7.21441C48.7349 8.07489 48.508 8.95764 48.212 9.81905C48.1539 9.98427 48.1308 10.156 48.0202 10.2971Z" fill="#FEFEFE"/>
<path d="M5.08406 16.9802L4.78711 18.0811C4.64868 18.6553 4.46741 19.2182 4.24485 19.7649C3.82064 20.786 3.83263 20.8055 4.90515 20.8017C5.51934 20.8017 6.13446 20.7767 6.74957 20.8017C7.21067 20.8231 7.4403 20.6254 7.59615 20.2012C7.86267 19.4762 8.0757 18.7364 8.29334 17.9975C8.48885 17.3339 8.59951 17.2169 9.28287 17.203C10.1276 17.1853 10.9742 17.164 11.8171 17.203C14.1355 17.3079 16.2695 15.6751 16.9602 13.3452C17.3242 12.1193 17.6888 10.8931 18.054 9.66662C18.5049 8.15453 17.4693 6.57096 15.8942 6.52733C13.5453 6.46328 11.1909 6.50505 8.84482 6.50134C8.48332 6.50134 8.29703 6.69348 8.19374 7.03507C7.4363 9.52646 6.67272 12.0163 5.90298 14.5046C5.76742 14.9446 5.60511 15.3753 5.45479 15.8106C5.30816 15.0736 5.71485 14.461 5.93341 13.8177C6.21008 13.0036 6.33642 12.1469 6.65089 11.3412C6.77354 11.0274 7.03914 10.6292 6.83533 10.2124C6.83031 10.19 6.8308 10.1667 6.83674 10.1446C6.84269 10.1224 6.85392 10.1021 6.86945 10.0853C7.35453 9.65363 7.36376 9.05863 7.47534 8.48312C7.49287 8.3903 7.67638 8.18144 7.77229 8.019C7.8516 7.88348 7.81195 7.76931 7.66901 7.72568C7.23557 7.59573 7.46797 7.46392 7.66163 7.33025C7.83794 7.21163 7.97177 7.03919 8.04342 6.83829C8.19374 6.45957 8.46303 6.36117 8.92874 6.35189C9.67481 6.33611 10.4255 6.33704 11.1734 6.31848C11.8918 6.30084 12.6083 6.35839 13.3258 6.38902C14.308 6.43079 15.2957 6.35746 16.2769 6.31569C16.5314 6.30548 16.6458 6.51526 16.8302 6.60623C17.2489 6.80951 17.6602 7.04807 17.899 7.4797C17.9977 7.65885 18.0337 7.86584 18.1231 8.05706C18.2384 8.30119 18.3279 8.12111 18.4395 8.07841C18.2633 8.64649 18.3472 9.19879 18.3472 9.74924C18.4754 10.0156 18.7327 10.244 18.5824 10.5911C18.5252 10.722 18.5649 10.955 18.3666 10.9411C18.1526 10.9253 18.1674 10.7072 18.1656 10.5782C18.2209 10.8223 17.9618 10.9959 17.9138 11.2409C17.7755 11.9482 17.4905 12.6166 17.3891 13.335C17.3319 13.7379 17.0294 14.0405 16.856 14.3988C16.6887 14.7593 16.4757 15.0966 16.2225 15.4022C16.1054 15.5368 16.1976 15.6426 16.2031 15.7679C16.2188 16.1049 16.3516 16.4492 16.2308 16.789C15.7263 16.8957 15.6387 16.8224 15.6728 16.3351C15.6802 16.232 15.7245 16.09 15.6249 16.0343C15.5253 15.9786 15.4146 16.0399 15.3298 16.116C14.862 16.5527 14.3058 16.8821 13.6993 17.0814C13.3775 17.1798 13.1322 17.4638 12.766 17.4332C12.3114 17.396 11.8567 17.358 11.4012 17.3496C10.7104 17.3348 10.0179 17.3496 9.32806 17.3496C8.74061 17.3496 8.43259 17.6476 8.39478 18.2528C8.39263 18.404 8.35335 18.5523 8.28043 18.6844C8.084 19.0279 8.20481 19.2349 8.58937 19.298C8.60471 19.2994 8.62014 19.2994 8.63548 19.298C8.66644 19.2935 8.69803 19.2967 8.72748 19.3073C8.75693 19.3179 8.78335 19.3356 8.80445 19.3589C8.82555 19.3821 8.84067 19.4102 8.84851 19.4407C8.85635 19.4712 8.85667 19.5031 8.84943 19.5338C8.80516 19.9376 8.99883 20.3785 8.74061 20.7405C8.65392 20.8612 8.39847 20.8036 8.2334 20.6755C8.14118 20.6012 8.00838 20.5688 7.91616 20.4899C7.72434 20.3302 7.62198 20.3887 7.57125 20.6077C7.56197 20.6682 7.53567 20.7247 7.49547 20.7706C7.45526 20.8165 7.40284 20.8499 7.34439 20.8667C6.4254 21.1875 5.43659 21.2486 4.48555 21.0431C4.22088 20.9855 3.99401 20.6588 3.75793 21.1359C3.75793 20.8027 3.6777 20.5029 3.81972 20.2216C4.1886 19.4966 4.34076 18.6919 4.67184 17.9539C4.69839 17.8855 4.70227 17.8103 4.6829 17.7395C4.34814 17.629 4.39425 17.449 4.52613 17.1826C4.658 16.9161 4.87103 16.9802 5.08406 16.9802Z" fill="#3399CF"/>
<path d="M16.2291 16.7946C16.2162 16.6767 16.2761 16.5161 16.1461 16.4567C15.8786 16.3258 15.9331 16.2033 16.1203 16.0557C16.2448 15.9564 16.2761 15.8283 16.0963 15.7893C15.7274 15.7095 15.9773 15.5109 16.0456 15.4347C16.562 14.8657 16.8857 14.1649 17.202 13.4929C17.3966 13.0789 17.4787 12.5646 17.6013 12.0922C17.7111 11.6559 17.7111 11.1955 18.0228 10.8233C18.1261 10.7007 18.0763 10.5299 18.0228 10.3796C17.9822 10.2598 18.0624 10.1939 18.1593 10.1939C18.2561 10.1939 18.2441 10.2914 18.2515 10.3619C18.2782 10.5337 18.1805 10.7332 18.3889 10.9087C18.4525 10.5374 18.6656 10.2032 18.2921 9.89967C18.245 9.86068 18.2865 9.78549 18.3437 9.74744C18.5411 9.87553 18.6997 10.0491 18.9819 10.0408C19.2429 10.0333 19.2004 10.3192 19.2659 10.4891C19.4181 10.6618 19.3268 10.826 19.2604 11.0006C18.9016 11.9418 18.6702 12.9201 18.4405 13.8985C18.4295 13.9448 18.4118 13.9892 18.388 14.0303C18.1408 14.216 18.1058 14.4694 18.0578 14.7729C17.9601 15.4032 17.7341 16.013 17.5119 16.6145C17.3579 17.0313 17.2564 17.462 17.1255 17.8853C16.9991 18.0626 17.013 18.303 16.8691 18.4719C16.7511 18.4849 16.6976 18.536 16.7677 18.6576C16.7769 19.0428 16.5666 19.3482 16.4071 19.6712C16.3149 19.6991 16.2226 19.7362 16.2226 19.5784C16.2226 19.4206 16.2226 19.2702 16.2226 19.1143C16.2467 19.1 16.2667 19.0797 16.2806 19.0552C16.2945 19.0308 16.3018 19.0032 16.3018 18.975C16.3018 18.9469 16.2945 18.9193 16.2806 18.8948C16.2667 18.8704 16.2467 18.8501 16.2226 18.8358L16.2291 16.7946Z" fill="#309AD0"/>
<path d="M18.3672 13.9461C18.2685 13.4987 18.5516 13.1301 18.6199 12.718C18.7536 11.9485 19.0976 11.2421 19.271 10.4847C19.5347 9.96022 19.6398 9.38193 19.8141 8.82684C20.041 8.09818 20.2079 7.35187 20.5288 6.65384C20.5577 6.57344 20.6122 6.50486 20.6837 6.45872C20.7552 6.41257 20.8398 6.39144 20.9245 6.39858C21.9389 6.40322 22.9533 6.39858 23.9677 6.39858C24.2665 6.39858 24.3874 6.49975 24.2841 6.82742C24.0074 7.71667 23.7593 8.6152 23.4836 9.50445C23.42 9.70867 23.2991 9.88317 23.4052 10.1162C23.5113 10.3491 23.1913 10.4169 23.1498 10.6165C23.0455 11.1168 22.7458 11.5624 22.768 12.1128C22.768 12.1889 22.6213 12.4637 22.5346 12.6419C22.198 13.3297 22.1086 14.0955 21.8531 14.8103C21.618 15.4665 21.4354 16.1423 21.1993 16.7985C21.0988 17.077 21.1495 17.1633 21.4354 17.1615C22.3105 17.155 23.1876 17.1373 24.0609 17.1689C24.4842 17.1838 24.5358 16.8041 24.5589 16.6268C24.6557 15.8694 25.1307 15.2345 25.15 14.4455C25.1657 13.8217 25.6683 13.4495 26.3148 13.4485C27.0673 13.4485 27.8198 13.4485 28.5723 13.4485C29.1625 13.4485 29.3562 13.6639 29.1422 14.2032C28.7457 15.2029 28.6028 16.2732 28.1896 17.2775C27.9129 17.9393 27.7488 18.6884 27.568 19.4125C27.462 19.8386 27.3112 20.2521 27.118 20.6461C26.9539 20.9775 26.584 21.0517 26.2502 21.0526C23.1488 21.0629 20.0465 21.0526 16.9451 21.0629C16.6865 21.0575 16.4384 20.9586 16.2461 20.7844C15.9575 20.5208 16.2406 20.2627 16.4093 20.0316L16.4619 20.0891C16.5541 20.6461 16.5541 20.6461 17.125 20.6461C20.1375 20.6461 23.1476 20.6461 26.1552 20.6461C26.7925 20.6461 26.869 20.5969 27.0719 19.9648C27.6695 18.0971 28.1924 16.2063 28.8112 14.3452C28.9569 13.9043 28.8656 13.7883 28.3943 13.7734C27.6879 13.7576 26.9815 13.7734 26.2733 13.7688C25.9118 13.7688 25.7144 13.9386 25.6028 14.2784C25.3381 15.085 25.1021 15.9009 24.8457 16.7104C24.6483 17.3313 24.4694 17.4697 23.8128 17.4762C23.0751 17.4836 22.3373 17.4836 21.5995 17.4762C20.9374 17.4697 20.7797 17.2627 20.9687 16.6064C21.2113 15.7608 21.4612 14.9161 21.7388 14.0807C22.5088 11.7656 23.1793 9.41906 23.9244 7.09661C24.0517 6.70025 24.0046 6.63249 23.5813 6.63249C22.8593 6.61949 22.1372 6.64177 21.416 6.62321C20.9946 6.61207 20.7705 6.79308 20.6377 7.18665C20.2457 8.37479 19.9073 9.57964 19.5236 10.7696C19.2304 11.6812 18.9362 12.5918 18.6623 13.5089C18.6097 13.6797 18.5811 13.8802 18.3672 13.9461Z" fill="#399AC9"/>
<path d="M41.4058 14.2021C41.4426 14.8639 41.0894 15.432 40.9649 16.0585C40.8451 16.6359 40.5684 17.1659 40.454 17.7535C40.3286 18.3903 40.0686 19.0048 39.8288 19.61C39.7227 19.8782 39.7144 20.1669 39.5835 20.4343C39.3677 20.8779 39.0403 21.0441 38.6013 21.0515C37.834 21.0654 37.0659 21.0617 36.2958 21.0515C35.8347 21.0515 35.6171 20.7081 35.7536 20.2467C35.9832 19.4763 36.2211 18.7087 36.5227 17.9624C36.7209 17.4722 36.6361 17.3451 36.1335 17.3432C35.3819 17.3432 34.6294 17.3432 33.8769 17.3488C33.8335 17.3488 33.4923 17.2198 33.7745 17.501C33.8483 17.5744 33.7072 17.6328 33.6463 17.6133C33.283 17.4964 33.2774 17.7776 33.2009 17.9967C32.9362 18.7838 32.6024 19.5543 32.417 20.3591C32.2685 21.0088 31.7383 20.9801 31.3675 21.0218C30.5818 21.1146 29.7758 21.0469 28.979 21.0172C28.5244 21.0005 28.3953 20.8046 28.5235 20.36C28.6157 20.0379 28.7494 19.7279 28.8674 19.4141C29.3166 18.225 29.5877 16.9803 29.9861 15.7791C30.2065 15.1145 30.4075 14.4397 30.5975 13.7723C30.828 12.9666 31.1388 12.1943 31.3731 11.3895C31.4321 11.1881 31.315 11.0294 31.3482 10.8493C31.5262 10.6293 31.6433 10.6785 31.7171 10.9328C31.6829 11.5287 31.4358 12.069 31.256 12.6231C30.7072 14.3422 30.224 16.0808 29.6882 17.8027C29.4208 18.5843 29.193 19.3807 28.9458 20.1669C28.8269 20.5206 28.9744 20.6487 29.3202 20.6459C30.058 20.6394 30.7958 20.6347 31.5335 20.6459C31.8803 20.6515 32.0675 20.5048 32.1708 20.1753C32.4096 19.4085 32.666 18.6474 32.9251 17.8872C33.1492 17.2272 33.3005 17.1214 34.0014 17.1186C34.7548 17.1186 35.5073 17.1056 36.2598 17.1186C36.8371 17.1316 36.9976 17.3636 36.8316 17.9271C36.6103 18.6697 36.3419 19.3918 36.1141 20.1298C35.9841 20.5512 36.0394 20.6283 36.4738 20.6347C37.1802 20.6468 37.8875 20.6218 38.5949 20.644C39.0375 20.658 39.2708 20.4658 39.4009 20.0537C39.945 18.3299 40.4633 16.5988 41.0055 14.875C41.083 14.6291 41.0977 14.3534 41.332 14.1779L41.4058 14.2021Z" fill="#3599C5"/>
<path d="M61.8713 12.7105C61.6795 12.6391 61.5605 12.5184 61.5946 12.2938C61.5965 12.2628 61.5965 12.2318 61.5946 12.2009C61.5946 11.877 61.6666 11.5289 61.5716 11.2346C61.4545 10.868 60.9934 11.2059 60.7646 10.9682C60.8938 10.7826 61.0902 10.8383 61.2645 10.829C61.4683 10.8188 61.6647 10.8114 61.7505 10.5784C61.7966 10.4772 61.8363 10.3732 61.8851 10.273C61.9175 10.2142 61.9589 10.161 62.0078 10.1152C62.1978 9.9119 62.1609 9.61857 62.2909 9.39208C62.3831 9.22407 62.3831 8.99294 62.6091 8.90662C63.439 8.97159 63.4566 8.97159 63.4298 9.85435C63.4169 10.2674 63.522 10.4735 63.9573 10.389C64.2174 10.338 64.4913 10.6099 64.6287 10.5375C64.9395 10.3751 65.2401 10.4391 65.5417 10.4169C65.9373 10.389 66.3357 10.3974 66.7322 10.3927C66.7708 10.3873 66.8102 10.3904 66.8474 10.4019C66.8847 10.4134 66.919 10.433 66.9479 10.4593C66.9768 10.4855 66.9997 10.5179 67.0148 10.554C67.03 10.5902 67.0371 10.6292 67.0357 10.6684C66.8807 10.8364 66.6741 10.7993 66.4823 10.7956C65.9401 10.7854 65.4006 10.7956 64.874 10.9469C64.6315 10.8995 64.3963 10.893 64.2036 11.0889C63.5045 11.4296 62.8903 11.8993 62.2835 12.3782C62.1184 12.3903 62.0631 12.511 62.0225 12.6474C61.9866 12.7012 61.9451 12.7439 61.8713 12.7105Z" fill="#319AD1"/>
<path d="M42.1404 12.1537C42.3322 12.1917 42.5167 12.2586 42.7214 12.2465C43.1235 12.2307 43.6178 12.3774 43.5597 11.6775C43.5597 11.6534 43.6519 11.6218 43.7063 11.593C43.852 11.6988 43.8631 11.8399 43.8096 11.9959C43.6547 12.4489 43.5385 12.9158 43.3485 13.3557C43.046 13.3418 43.3485 13.5841 43.2305 13.6472C43.219 13.6854 43.2032 13.7222 43.1834 13.7567C43.0553 13.8895 43.1106 14.0352 43.1447 14.1874C43.1558 14.3559 43.1558 14.5249 43.1447 14.6933C43.1078 14.853 43.0626 15.0126 43.1373 15.1751C43.2646 15.7497 43.5579 16.2361 43.9304 16.6798C43.8382 17.0613 44.1066 16.9313 44.2836 16.9313C44.4479 16.9657 44.5988 17.0473 44.718 17.1662C44.6885 17.2469 44.5538 17.2701 44.599 17.3917C44.6203 17.4337 44.627 17.4817 44.6179 17.528C44.6089 17.5743 44.5847 17.6162 44.5492 17.647C44.0964 17.9793 43.5763 17.8085 43.0931 17.7871C42.7242 17.7704 42.7629 17.3973 42.786 17.1253C42.8229 16.6742 42.6864 16.2175 42.892 15.7673C42.9898 15.5547 42.6052 15.4146 42.6845 15.1268C42.8081 14.6757 42.4318 14.8762 42.2631 14.8483C42.0058 14.8103 42.051 14.6321 42.0445 14.4706C42.0316 14.1373 42.0445 13.7967 41.7679 13.5423C41.7198 13.5023 41.6873 13.4464 41.6761 13.3846C41.665 13.3227 41.6759 13.2589 41.707 13.2044C41.9099 12.8786 41.9458 12.4841 42.1404 12.1537Z" fill="#3199D1"/>
<path d="M50.9879 17.0732C51.2388 17.1753 51.3088 17.3693 51.259 17.6208C51.1963 17.9309 50.9464 17.8065 50.7749 17.8065C50.1579 17.8269 50.1579 17.8158 50.1579 18.4219C50.1579 19.028 50.1284 19.6509 50.1681 20.2626C50.1967 20.7081 50.0251 20.8464 49.6221 20.7805C49.2772 20.7248 48.8844 20.9356 48.5902 20.5949C48.4389 20.4482 48.5035 20.2709 48.5542 20.1187C48.817 19.3399 49.0513 18.5518 49.2754 17.7601C49.3307 17.5633 49.4368 17.4194 49.6203 17.3656C50.0703 17.2356 50.5019 17.0221 50.9879 17.0732Z" fill="#3298D0"/>
<path d="M67.4044 17.0729C67.385 16.5243 67.7059 16.076 67.8599 15.5794C67.9337 15.3418 67.978 15.0856 68.1053 14.8489C68.2178 14.6391 68.1053 14.3847 67.7806 14.3847C66.9368 14.3847 66.093 14.3894 65.2492 14.3847C64.7558 14.3847 64.7143 14.8489 64.6691 15.1051C64.5677 15.6704 64.3168 16.1846 64.2265 16.7499C64.1149 17.4507 63.7958 18.0958 63.603 18.7753C63.4666 19.2561 63.3485 19.7407 63.1834 20.2131C63.1207 20.3923 62.9686 20.6104 63.3162 20.6856C62.2741 21.1414 61.2155 21.0708 60.1632 21.0634C59.4384 21.0578 59.1303 20.7469 59.383 19.9495C59.5546 19.4056 59.8441 18.8746 59.7833 18.2444C59.7611 18.0095 60.0599 17.7552 60.1724 17.4916C60.2425 17.3217 60.0664 17.0497 60.3892 16.9838C60.4302 17.0166 60.4602 17.0613 60.4749 17.1119C60.4334 17.8313 60.1199 18.4801 59.9437 19.1652C59.8515 19.5235 59.7455 19.8799 59.632 20.2326C59.5398 20.5111 59.6523 20.6494 59.9354 20.6531C60.7341 20.6615 61.5327 20.6633 62.3332 20.6531C62.7196 20.6476 62.857 20.383 62.9427 20.0665C63.2102 19.0825 63.4804 18.0995 63.781 17.1258C64.0088 16.3832 64.2034 15.6406 64.4266 14.8981C64.611 14.2799 64.7733 14.1675 65.4226 14.1648C66.1751 14.1601 66.9276 14.1527 67.6801 14.1648C68.3386 14.1777 68.5101 14.4228 68.3174 15.0475C68.1615 15.5488 67.9844 16.0435 67.8433 16.5503C67.8004 16.7482 67.6976 16.9278 67.5492 17.0646C67.5287 17.0805 67.5039 17.0898 67.4781 17.0913C67.4522 17.0928 67.4265 17.0864 67.4044 17.0729V17.0729Z" fill="#3898CC"/>
<path d="M42.1408 12.1537C42.1658 12.4784 42.0799 12.8019 41.8974 13.0708C41.8006 13.2092 41.7547 13.3772 41.7673 13.546C41.8282 13.7864 41.8171 13.8069 41.3985 14.2023L41.3809 14.1865C41.2352 13.9693 41.3634 13.7679 41.4252 13.5692C41.8577 12.1676 42.3004 10.7697 42.5936 9.32905C42.6747 8.90242 42.6363 8.46151 42.483 8.05551C42.1381 7.06508 41.3505 6.68636 40.4108 6.64181C39.0929 6.57961 37.7604 6.51928 36.4517 6.65294C34.5409 6.84695 33.07 7.79375 32.2806 9.63815C32.1478 9.95004 32.0298 10.2684 31.9117 10.5877C31.8573 10.7381 31.8435 10.934 31.624 10.959C31.6046 10.7214 31.4728 10.7892 31.3418 10.8532C31.5004 10.5627 31.778 10.3483 31.814 9.9751C31.8333 9.77089 32.0491 9.61124 31.8582 9.35504C31.7909 9.26222 31.8721 8.98375 32.0943 8.9197C32.1958 8.88907 32.2954 8.88535 32.371 8.77953C33.4426 7.22938 34.0651 7.03909 35.6199 6.44131C35.7678 6.40207 35.9212 6.38858 36.0736 6.40139C37.6229 6.40139 39.1732 6.38376 40.7225 6.40139C41.8937 6.4181 42.814 7.39739 42.8887 8.56604C42.933 9.26686 42.6527 9.92034 42.72 10.6174C42.7329 10.7483 42.5706 10.947 42.5125 11.1335C42.4544 11.3201 42.3631 11.4473 42.5282 11.6264C42.6379 11.7471 42.601 11.8399 42.4018 11.8353C42.2026 11.8307 42.1584 11.9875 42.1408 12.1537Z" fill="#3698CA"/>
<path d="M62.0332 10.1966L61.9465 10.294C61.6348 10.1548 61.8201 9.93294 61.8709 9.75101C62.0605 9.0751 62.2859 8.40984 62.5459 7.75808C62.7101 7.34873 62.6427 7.27447 62.1982 7.27169C61.276 7.26519 60.3612 7.27169 59.4427 7.26612C59.1937 7.26612 59.0738 7.31903 59.119 7.60493C59.1514 7.89621 59.1558 8.18998 59.1319 8.48211C59.1144 8.94066 58.9862 9.08825 58.5362 9.00563C58.1673 8.9388 58.0419 9.08639 57.9469 9.3825C57.8205 9.77793 57.6702 10.1669 57.6352 10.5892C57.6241 10.7099 57.6352 10.8426 57.4876 10.9002C57.1713 10.8008 57.3271 10.5716 57.3456 10.3804C57.6121 9.35094 57.9911 8.35958 58.3296 7.35152C58.4301 7.04891 58.6754 6.94866 58.9844 6.94959C60.214 6.95454 61.4414 6.95454 62.6667 6.94959C62.9904 6.94959 63.1407 7.04241 62.9932 7.39236C62.947 7.52205 62.9097 7.65479 62.8816 7.78964C62.6547 8.61083 62.3712 9.41509 62.0332 10.1966V10.1966Z" fill="#F9FDFD"/>
<path d="M71.658 11.7821C72.203 11.9947 72.0979 12.5479 72.1717 12.9443C72.2787 13.5225 72.0979 14.1083 71.954 14.6968C71.7419 15.5656 71.4265 16.4038 71.243 17.2838C71.1111 17.9205 70.8197 18.535 70.6528 19.1774C70.6503 19.2096 70.6418 19.2411 70.6279 19.2702C70.39 19.5709 70.9304 19.7046 70.7828 19.9459C70.6842 20.1093 70.3512 19.9719 70.3162 20.3451C70.2775 20.7711 69.9409 20.9809 69.4973 20.9763C68.8123 20.9828 68.1286 21.0365 67.4509 21.1369C67.1613 21.174 67.0119 20.89 66.7362 20.8751C66.288 20.851 66.4651 20.4565 66.5066 20.2718C66.5481 20.087 66.1534 19.7297 66.6661 19.6758C66.7031 19.6863 66.7361 19.7074 66.7612 19.7366C66.7863 19.7658 66.8023 19.8018 66.8072 19.8401C66.7528 20.6616 66.7528 20.6616 67.5745 20.6616C68.173 20.6616 68.7734 20.6542 69.37 20.6616C69.7251 20.6672 69.9713 20.5344 70.0644 20.1854C70.6178 18.0978 71.3196 16.052 71.7954 13.9421C71.9596 13.2144 71.7954 12.5368 71.622 11.8489L71.658 11.7821Z" fill="#339BC9"/>
<path d="M55.1387 10.8539C55.3305 10.735 55.5878 10.7759 55.7529 10.5754C55.8451 10.4668 55.9623 10.5587 56.0296 10.6357C56.1356 10.7583 56.2666 10.748 56.3985 10.7629C56.5543 10.7796 56.7867 10.6701 56.8439 10.8696C56.8626 10.9667 56.8604 11.0667 56.8373 11.1628C56.8142 11.2589 56.7709 11.3488 56.7102 11.4266C56.6032 11.5723 56.475 11.7366 56.3182 11.8053C56.0886 11.9046 56.0287 12.0466 56.0554 12.2694C56.0821 12.4922 56.0157 12.6463 55.7935 12.6816C55.7441 12.6931 55.6929 12.6941 55.6432 12.6845C55.5934 12.6748 55.5463 12.6547 55.5048 12.6254C55.4633 12.5962 55.4284 12.5584 55.4023 12.5147C55.3763 12.4709 55.3597 12.4222 55.3536 12.3715C55.2826 11.8953 55.0391 11.4433 55.1341 10.9439C55.1248 10.9369 55.1178 10.9272 55.1141 10.9161C55.1105 10.9049 55.1104 10.8929 55.1138 10.8817C55.1258 10.8659 55.1332 10.8539 55.1387 10.8539Z" fill="#309AD3"/>
<path d="M60.4025 17.0835C60.4025 17.0482 60.3923 17.012 60.3877 16.9767C60.5551 15.6167 60.9896 14.3038 61.6659 13.1143C61.7406 12.9844 61.878 12.8832 61.8706 12.7115C61.902 12.6809 61.9324 12.6493 61.9628 12.6187C62.0384 12.5101 62.0929 12.3792 62.2395 12.3402C62.8094 11.7925 63.4116 11.2931 64.1761 11.0407C64.331 10.8894 64.5072 10.8021 64.7294 10.855C65.482 10.5951 66.2621 10.6851 67.035 10.6694C67.8751 10.6694 68.7143 10.6786 69.5544 10.6694C70.2848 10.6619 70.9101 10.92 71.4671 11.3795C71.5271 11.4268 71.5754 11.4875 71.6084 11.5567C71.6413 11.6259 71.658 11.7019 71.6571 11.7786L71.6349 11.7897C71.5972 11.7984 71.5579 11.7966 71.521 11.7847C71.4842 11.7728 71.4512 11.7511 71.4256 11.722C70.7911 10.9933 69.9122 10.9302 69.0564 10.9033C67.8456 10.8652 66.6283 10.8272 65.422 10.9961C63.8257 11.2133 62.6277 12.0487 61.7977 13.4281C61.2158 14.3953 60.9613 15.4804 60.6911 16.5618C60.645 16.7484 60.6717 17.0074 60.4025 17.0835Z" fill="#439CC5"/>
<path d="M43.2419 13.3604C43.4263 12.7812 43.7952 12.2512 43.703 11.5967C43.8164 11.541 43.9326 11.4621 43.9511 11.3405C44.0433 10.7103 44.4306 10.1338 44.4703 9.54163C44.5007 9.08493 44.7322 8.79904 44.852 8.42774C45.0144 7.92464 45.1287 7.40668 45.2836 6.89987C45.3325 6.73835 45.3288 6.44874 45.6525 6.59355C45.2836 7.20897 45.1573 7.91536 44.9443 8.58647C44.4039 10.2882 43.8813 11.9946 43.3765 13.7057C43.0427 14.8242 43.1921 15.8406 44.0857 16.6761C44.0957 16.686 44.1033 16.6981 44.1079 16.7115C44.1126 16.7248 44.1141 16.7391 44.1124 16.7531C44.1124 16.78 44.1023 16.7939 44.0958 16.7939C43.9916 16.845 43.9326 16.7939 43.8911 16.7011C43.3894 16.3298 43.2456 15.7645 43.0611 15.2159C43.0273 15.1433 43.0098 15.0641 43.0098 14.9839C43.0098 14.9037 43.0273 14.8244 43.0611 14.7518C43.0611 14.5346 43.0611 14.3183 43.0611 14.1021C43.0667 13.9721 43.0418 13.8347 43.1533 13.7308C43.2566 13.6259 43.1441 13.4662 43.2419 13.3604Z" fill="#3998CC"/>
<path d="M50.9885 17.0732C50.6925 17.2338 50.3365 17.2588 50.0331 17.3062C49.3332 17.4166 49.2566 17.9346 49.1625 18.4126C49.0602 18.9389 48.8057 19.4086 48.7014 19.9331C48.6473 20.1523 48.6103 20.3755 48.5908 20.6005C48.375 20.7861 48.1666 20.9848 47.853 20.9718C47.4472 20.879 47.0387 20.9189 46.6311 20.9514C46.478 20.9634 46.3194 21.0006 46.1774 20.9514C45.9634 20.879 46.1709 21.059 46.1008 21.0618C45.7974 21.0442 45.4959 21.0776 45.1888 20.9968C44.6022 20.8428 44.4851 20.465 44.8992 19.9479C44.9177 19.9629 44.9297 19.9845 44.9328 20.0082C44.9359 20.0319 44.9298 20.0558 44.9158 20.0751C44.7618 20.7973 44.7618 20.7973 45.5078 20.7982C46.2281 20.7982 46.9493 20.7676 47.6658 20.8084C48.1435 20.8363 48.3529 20.6432 48.47 20.2032C48.671 19.4467 48.9311 18.7069 49.1349 17.9504C49.2566 17.4955 49.5038 17.2347 49.9704 17.1595C51.1757 16.9742 52.2802 16.375 53.0967 15.4636C53.1382 15.6409 52.9832 15.7337 52.9242 15.8683C52.8846 16.1347 52.6476 16.1561 52.4631 16.2396C52.3988 16.3568 52.3029 16.4533 52.1865 16.5181C52.1445 16.5343 52.1064 16.5592 52.0747 16.5912C52.0429 16.6232 52.0181 16.6615 52.002 16.7038C51.9561 16.7536 51.8968 16.7889 51.8313 16.8054C51.7658 16.8219 51.6969 16.8188 51.6331 16.7966C51.4044 16.8517 51.1864 16.9452 50.9885 17.0732Z" fill="#399CC7"/>
<path d="M58.1603 11.8749C57.8836 11.8749 57.6069 11.8795 57.3303 11.8749C57.2608 11.8702 57.1941 11.8459 57.1377 11.8047C57.0814 11.7634 57.0379 11.707 57.0121 11.6419C56.9577 11.5296 57.0121 11.4368 57.0951 11.3541C57.4511 10.9829 58.8399 10.9188 59.2365 11.253C59.3536 11.3514 59.5058 11.4386 59.443 11.6243C59.4118 11.6963 59.3601 11.7575 59.2945 11.8003C59.2289 11.843 59.1523 11.8654 59.0742 11.8647C58.7698 11.8879 58.4627 11.8712 58.152 11.8712L58.1603 11.8749Z" fill="#3199D3"/>
<path d="M55.1396 10.854C55.1396 10.8847 55.1396 10.9162 55.1396 10.9469C54.7439 11.7099 54.6692 12.5843 54.316 13.3603C54.2644 13.4763 54.2432 13.5905 54.1067 13.6276C54.7695 11.4989 55.4322 9.37041 56.095 7.24228C56.1272 7.13924 56.1494 7.0325 56.1872 6.93225C56.2997 6.62871 56.1872 6.49319 55.8764 6.49597C54.8964 6.50402 53.9158 6.51145 52.9346 6.51825C53.0471 6.32425 53.2352 6.40315 53.3911 6.40129C54.186 6.39387 54.9819 6.39665 55.7768 6.40129C56.3301 6.40129 56.4583 6.56188 56.3025 7.10676C56.13 7.70918 55.9105 8.29861 55.7491 8.90382C55.5684 9.5638 55.2484 10.1764 55.1396 10.854Z" fill="#4199C7"/>
<path d="M44.9181 20.0725L44.9015 19.9453C44.9559 19.3781 45.1865 18.8602 45.3737 18.3348C45.4539 18.1092 45.4281 17.8475 45.6107 17.6479C45.6258 17.6248 45.635 17.5983 45.6373 17.5707C45.6396 17.5431 45.635 17.5154 45.6239 17.4901C45.6128 17.4648 45.5955 17.4427 45.5737 17.4258C45.5519 17.4089 45.5262 17.3979 45.4991 17.3936C45.2141 17.3862 45.0011 17.1615 44.7207 17.1643L44.2596 16.9787C44.2132 16.9718 44.1701 16.95 44.1369 16.9166C44.1037 16.8831 44.082 16.8398 44.0752 16.793C44.0752 16.7531 44.0817 16.7141 44.0853 16.6742C44.4656 16.9292 44.8942 17.102 45.3442 17.1819C45.6734 17.2432 45.8163 17.44 45.7001 17.7807L44.9181 20.0725Z" fill="#429AC6"/>
<path d="M48.1504 9.83823C48.4271 8.93598 48.6973 8.03188 48.9804 7.13149C49.0459 6.92356 49.1113 6.72492 49.02 6.5105C49.3013 6.5105 49.2681 6.71935 49.2174 6.86787C48.8679 7.88336 48.6502 8.93969 48.2223 9.92548C48.2051 9.91664 48.1898 9.90434 48.1774 9.88934C48.165 9.87433 48.1558 9.85694 48.1504 9.83823V9.83823Z" fill="#3D98C7"/>
<path d="M57.3459 10.3771C57.4031 10.5398 57.2334 10.7936 57.5378 10.8559C57.7167 10.6978 57.938 10.7155 58.151 10.7146C58.8888 10.7146 59.6266 10.7062 60.3643 10.7146C60.8697 10.7211 61.3714 10.709 61.8638 10.5779C61.8537 10.8494 61.6868 10.9498 61.447 10.9498C61.2072 10.9498 60.9924 10.9609 60.7655 10.9656C59.7446 10.96 58.7237 10.9563 57.7028 10.9479C57.2021 10.9479 57.1551 10.868 57.3459 10.3771Z" fill="#DFF8FC"/>
<path d="M66.7582 19.7651L66.666 19.6723C66.9119 18.806 67.1579 17.9396 67.4038 17.0732H67.508C67.6343 17.2245 67.591 17.3935 67.5476 17.555C67.3789 18.1908 67.1788 18.8183 67.0008 19.4523C66.962 19.5795 66.9058 19.7122 66.7582 19.7651Z" fill="#4398CD"/>
<path d="M16.4132 19.6721C16.3432 19.2599 16.76 18.9713 16.6899 18.5582C16.6931 18.5347 16.7039 18.5129 16.7205 18.4962C16.7372 18.4794 16.7588 18.4686 16.7821 18.4654C16.9666 18.3234 16.7821 18.0013 17.0588 17.9084C17.0681 17.901 17.0789 17.8958 17.0905 17.8932C17.1021 17.8906 17.1141 17.8907 17.1257 17.8935C17.1372 17.8963 17.148 17.9017 17.1572 17.9092C17.1664 17.9168 17.1737 17.9264 17.1787 17.9372C17.1363 18.6622 16.8236 19.3064 16.5765 19.9701C16.5634 19.9976 16.5425 20.0205 16.5163 20.0359C16.4902 20.0513 16.4601 20.0584 16.4298 20.0564L16.4077 20.0378C16.4068 19.9106 16.4068 19.789 16.4132 19.6721Z" fill="#399AC9"/>
<path d="M62.0332 10.1967C62.2752 9.37832 62.5584 8.57281 62.8816 7.78333C62.9084 8.18711 62.7092 8.53427 62.605 8.90556C62.4749 9.288 62.2555 9.64073 62.225 10.0566C62.2204 10.1726 62.13 10.1958 62.0332 10.1967Z" fill="#4A9DC9"/>
<path d="M46.1017 21.0593C46.0482 20.9459 45.9117 20.9979 45.7725 20.8669C46.5102 20.9347 47.1862 20.7581 47.8539 20.9673C47.2674 20.9189 46.6882 21.0296 46.1017 21.0593Z" fill="#3894C0"/>
<path d="M51.6348 16.7948C51.7448 16.7259 51.8735 16.6935 52.0028 16.702C52.0175 16.8207 52.2631 16.9255 52.0948 17.0303C51.8804 17.1658 51.7774 16.9042 51.6348 16.7948Z" fill="#3298D0"/>
<path d="M52.4639 16.2376L52.9239 15.8666C52.9515 16.2153 52.7307 16.2533 52.4639 16.2376Z" fill="#3298D0"/>
<path d="M52.1885 16.5152C52.2455 16.3933 52.3426 16.2952 52.4633 16.2375C52.3717 16.3246 52.5632 16.7068 52.1885 16.5152Z" fill="#3298D0"/>
<path d="M16.2285 18.8368C16.3201 18.8498 16.4117 18.8729 16.3943 18.9969C16.3824 19.0895 16.3027 19.1015 16.2285 19.1135V18.8368Z" fill="#399AC9"/>
<path d="M48.1499 9.83838L48.2252 9.93113C48.1995 10.0767 48.171 10.2214 48.0195 10.2947C48.0627 10.1417 48.1058 9.98956 48.1499 9.83838Z" fill="#438EB1"/>
<path d="M10.7707 10.2859C10.873 9.97681 11.1294 9.93411 11.3978 9.93226C12.2416 9.92761 13.0845 9.93225 13.9274 9.92761C14.2806 9.92761 14.454 10.0483 14.3304 10.4363C14.042 11.3453 13.7583 12.2556 13.4792 13.1672C13.3722 13.5152 13.1675 13.7241 12.7848 13.7157C11.8958 13.699 11.0068 13.6854 10.1177 13.6749C9.88811 13.6749 9.68707 13.6229 9.77837 13.3389C10.1048 12.3178 10.3271 11.2633 10.7734 10.2822C10.9662 10.7705 10.8352 11.2439 10.6508 11.6857C10.4586 12.1197 10.2977 12.567 10.1694 13.0242C10.0993 13.2962 10.1897 13.441 10.4903 13.4104C11.2539 13.3315 12.0166 13.273 12.7838 13.376C13.0181 13.4076 13.1417 13.2368 13.2099 13.0298C13.4469 12.3132 13.6636 11.5901 13.9052 10.8744C14.0897 10.3388 13.9975 10.2302 13.4543 10.2469C12.5985 10.2748 11.7371 10.1402 10.8887 10.3453C10.8426 10.3565 10.8029 10.3203 10.7707 10.2859Z" fill="#3698C8"/>
<path d="M4.24414 19.7651C4.37538 19.1889 4.55684 18.6254 4.7864 18.0813C4.7449 18.6856 4.59458 19.2564 4.24414 19.7651Z" fill="#E1F8FB"/>
<path d="M16.4273 20.0511C16.7009 19.3506 16.9355 18.6354 17.13 17.9087C17.1512 17.3833 17.3882 16.9164 17.5395 16.4235C17.7341 15.7997 17.9831 15.1936 18.0993 14.5457C18.1411 14.35 18.2273 14.1667 18.351 14.0101C18.3602 14.0024 18.3667 13.9919 18.3697 13.9803C18.3727 13.9686 18.372 13.9563 18.3676 13.9451C19.0052 11.9191 19.6427 9.89306 20.2803 7.86703C20.711 6.50066 20.7119 6.49973 22.1404 6.49695C22.6937 6.49695 23.247 6.50159 23.8003 6.49695C24.1204 6.49695 24.2365 6.58977 24.1259 6.93601C23.1207 10.1242 22.1232 13.3145 21.1333 16.5071C21.0918 16.6398 21.0531 16.7735 21.0217 16.908C20.948 17.2181 21.0503 17.3722 21.3906 17.3638C22.2354 17.3527 23.081 17.3415 23.9239 17.3703C24.385 17.3861 24.5815 17.1652 24.7013 16.7586C24.9586 15.887 25.2547 15.0265 25.5083 14.154C25.6162 13.7827 25.8135 13.6277 26.2008 13.6379C26.9995 13.6574 27.7981 13.6379 28.5986 13.6481C29.0376 13.6537 29.1215 13.7669 28.9905 14.192C28.3671 16.2249 27.7289 18.2521 27.1111 20.2859C26.9986 20.6572 26.803 20.8048 26.4166 20.8039C23.2064 20.7946 19.9972 20.8039 16.7879 20.7983C16.2862 20.7974 16.2779 20.7686 16.4273 20.0511Z" fill="#FEFEFE"/>
<path d="M18.3504 14.01C18.0203 15.3327 17.5629 16.6146 17.1294 17.9086C17.1045 17.9086 17.0796 17.9086 17.0557 17.9086C17.0889 17.36 17.3508 16.8727 17.4688 16.3482C17.6164 15.6892 18.0931 15.1137 17.9133 14.3655C17.8515 14.1028 18.1854 14.1093 18.3504 14.01Z" fill="#3999C9"/>
<path d="M16.7806 18.4652L16.6891 18.5576C16.6278 18.5262 16.5327 18.4763 16.5784 18.4144C16.6406 18.3284 16.7257 18.3848 16.7806 18.4652Z" fill="#3098D0"/>
<path d="M31.632 10.9616C31.8478 10.4186 32.0295 9.85885 32.2868 9.33718C33.173 7.53919 34.6845 6.65086 36.6211 6.51534C37.8283 6.43087 39.0475 6.49306 40.2602 6.50791C42.0336 6.52926 43.0065 7.71462 42.6847 9.46806C42.4292 10.866 41.9792 12.2129 41.5568 13.5653C41.4932 13.7704 41.4415 13.9793 41.3834 14.1863C40.8393 15.9314 40.2906 17.6765 39.7373 19.4215C39.6856 19.5831 39.6229 19.7409 39.574 19.9024C39.2531 20.9708 39.2826 20.7972 38.2977 20.8018C37.6383 20.8018 36.978 20.7851 36.3187 20.8018C35.9147 20.812 35.7902 20.6802 35.9295 20.2802C36.2062 19.4809 36.4634 18.6734 36.7235 17.8667C36.8914 17.3488 36.8157 17.2393 36.2559 17.2328C35.4426 17.2235 34.6292 17.243 33.8167 17.2263C33.4082 17.2179 33.2025 17.4063 33.0863 17.7832C32.8207 18.6353 32.5229 19.4782 32.2656 20.3331C32.1586 20.6895 31.9705 20.8232 31.6034 20.812C30.8371 20.7888 30.0698 20.8018 29.3025 20.8009C28.6228 20.8009 28.6053 20.7758 28.8414 20.1289C29.2333 19.3983 29.3809 18.5889 29.5884 17.7999C30.1297 15.7819 30.7753 13.7955 31.3904 11.7998C31.478 11.5204 31.5527 11.2401 31.632 10.9616Z" fill="#FEFEFE"/>
<path d="M29.5948 17.7974C29.687 18.2132 29.4602 18.5622 29.3615 18.9382C29.3145 19.1192 29.0793 19.3048 29.3818 19.4756C29.3984 19.4849 29.3818 19.5935 29.3818 19.5935C29.0415 19.6084 29.0987 20.0223 28.8506 20.1263C29.0673 19.341 29.2969 18.5585 29.5948 17.7974Z" fill="#F1FCFE"/>
<path d="M61.8627 10.5754C61.6349 10.8158 61.3555 10.864 61.0327 10.8594C59.8679 10.8427 58.7023 10.852 57.5375 10.852C57.4084 10.1187 57.8372 9.5181 58.0115 8.8572C58.0586 8.67155 58.1591 8.7913 58.2559 8.8275C58.86 9.05399 59.0269 8.94445 59.0066 8.2984C58.9965 7.96795 59.0988 7.62821 58.9144 7.30519C58.8139 7.13161 58.9918 7.14553 59.0841 7.14553C60.235 7.14553 61.385 7.14553 62.535 7.14553C62.7803 7.14553 62.8236 7.27641 62.7637 7.47784C62.6917 7.72382 62.6576 7.9958 62.5285 8.20836C62.1993 8.75045 62.1974 9.40207 61.9097 9.95437C61.8751 10.0065 61.8598 10.0692 61.8665 10.1315C61.8733 10.1938 61.9016 10.2517 61.9466 10.295C61.9927 10.4111 61.9125 10.49 61.8627 10.5754Z" fill="#FEFEFE"/>
<path d="M64.7282 10.8541L64.1758 11.0398C64.2982 10.7901 64.4759 10.7084 64.7282 10.8541Z" fill="#3098D0"/>
<path d="M62.2368 12.3391C62.1813 12.462 62.0837 12.5607 61.9619 12.6167C61.9866 12.4585 61.8749 12.1641 62.2368 12.3391Z" fill="#3098D0"/>
<path d="M44.0717 16.7946C44.1138 16.8105 44.1519 16.8353 44.1837 16.8673C44.2155 16.8994 44.2401 16.9379 44.2559 16.9802C44.1131 17.2337 43.8664 17.0656 43.7697 17.0081C43.6169 16.9153 43.7623 16.7779 43.8885 16.7018L44.0717 16.7946Z" fill="#3098D0"/>
<path d="M43.15 13.7313C43.1371 13.8593 43.1922 14.0049 43.0582 14.1023C42.9352 13.9391 42.8929 13.7972 43.15 13.7313Z" fill="#3098D0"/>
<path d="M43.2427 13.3602C43.2298 13.4882 43.2852 13.6338 43.1503 13.7312C43.1503 13.5847 43.1198 13.4261 43.167 13.2972C43.2002 13.2128 43.2279 13.3231 43.2427 13.3602Z" fill="#3098D0"/>
<path d="M43.0576 14.7523V15.2161C43.0253 15.1868 42.9995 15.151 42.9819 15.111C42.9642 15.0711 42.9551 15.0279 42.9551 14.9842C42.9551 14.9405 42.9642 14.8973 42.9819 14.8573C42.9995 14.8174 43.0253 14.7816 43.0576 14.7523Z" fill="#3098D0"/>
<path d="M66.759 19.7649C67.0468 18.8785 67.3483 17.9967 67.5097 17.0731C67.7578 16.3305 68.0151 15.599 68.2475 14.8555C68.3784 14.4359 68.2595 14.2791 67.8205 14.2726C66.9776 14.2596 66.1338 14.28 65.2909 14.2577C64.875 14.2466 64.6758 14.4434 64.5716 14.8147C64.1031 16.4734 63.6189 18.1266 63.1606 19.7882C62.8858 20.786 62.9014 20.786 61.8557 20.786C61.2581 20.786 60.6568 20.7906 60.062 20.7925C59.3574 20.7925 59.3307 20.7507 59.5271 20.0889C59.825 19.0883 60.1118 18.083 60.4032 17.0796C60.6227 16.2971 60.809 15.5016 61.0672 14.7348C61.7339 12.7465 62.966 11.2818 65.1028 10.9291C66.874 10.6284 68.6837 10.6385 70.4515 10.9588C70.9606 11.0516 71.3 11.4229 71.631 11.7886C72.1669 12.7029 72.0387 13.6618 71.7786 14.6086C71.2622 16.4911 70.7052 18.3615 70.1823 20.2421C70.0688 20.6533 69.8586 20.8166 69.4307 20.799C68.6505 20.7721 67.8684 20.799 67.0873 20.7916C66.5488 20.7916 66.5239 20.7572 66.641 20.2439C66.6803 20.0836 66.7197 19.924 66.759 19.7649Z" fill="#FEFEFE"/>
<path d="M10.7711 10.2859C11.0533 10.1003 11.3687 10.1086 11.6878 10.1114C12.4102 10.1182 13.1323 10.1182 13.854 10.1114C14.0717 10.1114 14.1713 10.1226 14.1307 10.4159C14.0209 11.1928 13.6511 11.8853 13.4695 12.6381C13.4381 12.7662 13.3883 12.8943 13.3607 13.0289C13.2749 13.4549 13.0582 13.5756 12.6367 13.506C12.077 13.4136 11.506 13.4136 10.9463 13.506C10.8855 13.5203 10.8239 13.5309 10.7619 13.5375C10.4852 13.5478 10.0794 13.6192 9.99644 13.4048C9.92728 13.2238 9.97984 12.8572 10.1468 12.6056C10.3755 12.2584 10.4677 11.8296 10.6134 11.4602C10.7324 11.1585 10.8578 10.6906 10.772 10.2785L10.7711 10.2859Z" fill="#3098D0"/>
<path d="M35.9573 13.662C35.5976 13.662 35.1679 13.662 34.7391 13.662C34.4532 13.662 34.3527 13.5589 34.4504 13.261C34.7474 12.3541 35.0268 11.4425 35.3117 10.5319C35.4326 10.1477 35.6871 9.94344 36.091 9.94065C36.9339 9.93509 37.7777 9.92394 38.6206 9.93044C39.0365 9.93044 39.1518 10.0873 39.0282 10.4809C38.7387 11.4091 38.4297 12.3244 38.13 13.2452C38.0433 13.5097 37.8635 13.635 37.5878 13.6675C37.0639 13.7316 36.5438 13.7 35.9573 13.662Z" fill="#3098D0"/>
<path d="M58.2668 9.29149C58.2521 9.34619 58.254 9.42777 58.1677 9.40644C58.0998 9.38976 58.0915 9.32023 58.0989 9.25904C58.1062 9.19785 58.1117 9.12276 58.198 9.14408C58.265 9.15984 58.2732 9.22938 58.2668 9.29149Z" fill="#F9FDFD"/>
<path d="M10.2517 13.3774C10.1113 13.1595 10.1085 13.0185 10.2692 12.8469C10.3509 13.0222 10.3426 13.1623 10.2517 13.3774Z" fill="#3698C8"/>
<path d="M97.5594 25.0327L96.6519 24.3913C96.118 24.0962 95.8662 23.5763 95.6606 23.0482C95.3479 22.2702 95.2958 21.4109 95.5121 20.6004C96.0968 18.4126 96.7598 16.247 97.4146 14.0796C97.7125 13.0919 98.0251 12.1089 98.3303 11.124C98.643 10.3954 98.8422 9.62588 99.1308 8.88793C99.2839 8.49621 99.4075 8.07943 99.5264 7.67194C99.7744 6.84881 100.192 6.08774 100.753 5.4386C101.237 5.05709 101.636 4.58184 102.1 4.17713C102.128 4.14332 102.159 4.11224 102.193 4.0843C102.798 3.68596 103.427 3.32423 104.075 3.00105C105.55 2.3355 107.135 2.36428 108.702 2.2826C109.237 2.25475 109.772 2.23649 110.306 2.22783C111.589 2.20834 112.862 2.27517 114.113 2.59077C114.163 2.60088 114.213 2.61485 114.261 2.63254C114.792 3.09666 115.509 3.31851 115.916 3.96642C116.301 4.57998 116.549 5.20097 116.589 5.94356C116.65 7.03145 116.371 8.03673 116.066 9.05594C115.736 10.1587 115.446 11.2744 115.095 12.3707C114.787 13.3323 114.542 14.3125 114.204 15.264C113.871 16.2006 113.666 17.1808 113.266 18.0951C112.82 19.4726 112.407 20.864 111.562 22.0707C110.75 23.231 109.685 24.0776 108.413 24.6698C108.175 24.7812 107.94 24.8898 107.752 25.0792C106.574 25.5043 105.341 25.5804 104.113 25.6417C103.168 25.689 102.218 25.6519 101.271 25.6509C101.196 25.6627 101.118 25.6447 101.055 25.6008V25.6008C100.376 25.585 99.6998 25.5451 99.0266 25.4755C98.5136 25.425 98.0153 25.2746 97.5594 25.0327Z" fill="#D22230"/>
<path d="M89.2655 25.1609C88.8252 25.3786 88.3447 25.5019 87.8545 25.5229C85.68 25.5656 83.5045 25.6965 81.3299 25.5146C80.7194 25.4635 80.1098 25.4078 79.5344 25.1674C77.7822 24.4341 76.9402 22.7187 77.4133 20.7221C77.6448 19.7363 77.9759 18.7728 78.2617 17.8028C78.5744 17.153 78.7228 16.4485 78.9377 15.7681C79.7456 13.2238 80.5128 10.6628 81.3622 8.13704C81.7089 7.1002 82.3047 6.22023 82.9613 5.36997C84.0052 4.283 85.2797 3.54969 86.6649 3.02338C87.1066 2.85537 87.5871 2.71335 88.0952 2.74491C88.5849 2.77462 89.0783 2.73563 89.5708 2.75419C91.2593 2.81453 92.9442 2.63167 94.6327 2.66137C95.0938 2.6688 95.5503 2.65023 96.0096 2.73285C96.3126 2.79326 96.6249 2.78915 96.9263 2.72078C97.5903 2.5537 98.2367 2.80153 98.8952 2.77833C99.1156 2.76997 99.2143 2.92128 99.1396 3.16076C98.7181 4.51135 98.3096 5.86471 97.8623 7.20695C97.8429 7.2645 97.7959 7.31184 97.7775 7.37032C97.5257 8.20109 97.5257 8.20573 96.6957 8.20573H87.7964C86.9711 8.20573 86.735 8.41829 86.5201 9.22679C86.2001 10.4289 85.8017 11.6086 85.4134 12.7884C84.8933 14.3664 84.4064 15.95 83.9029 17.5308C83.7028 18.1601 83.4713 18.7811 83.3495 19.43C83.2463 19.9683 83.3219 20.0463 83.842 20.0407C85.347 20.024 86.8521 20.0872 88.3562 19.9999C88.952 19.9656 89.1272 19.831 89.3033 19.2517C89.4961 18.6196 89.6962 17.9903 89.8825 17.3554C90.0125 16.9135 90.0023 16.8996 89.5283 16.8912C88.8828 16.8745 88.2372 16.9154 87.5917 16.855C87.2385 16.8216 87.2228 16.6694 87.3206 16.3993C87.8195 14.9475 88.217 13.4633 88.7039 12.0087C88.8625 11.5353 88.9575 11.4731 89.4582 11.4611C91.7453 11.4072 94.0324 11.5075 96.3185 11.4611C96.8239 11.4518 96.846 11.4908 96.6966 11.9772C96.2152 13.5552 95.7016 15.1174 95.2349 16.6954C94.8163 18.1109 94.405 19.5265 93.8433 20.891C93.6417 21.3596 93.3801 21.7996 93.065 22.1998C92.7671 22.5897 92.4665 22.9795 92.1631 23.3657C91.6727 23.7925 91.1602 24.1929 90.6276 24.565C90.579 24.6114 90.5207 24.6463 90.457 24.6671C90.0429 24.7867 89.6432 24.9523 89.2655 25.1609V25.1609Z" fill="#D22230"/>
<path d="M117.48 2.38742C116.65 1.2624 115.495 0.643268 114.174 0.278471C113.77 0.168939 113.344 0.185647 112.954 0H88.707C88.6849 0.0247528 88.6549 0.0408609 88.6221 0.0454827L88.707 0H87.877C87.8004 0.192145 87.5773 0.0426974 87.4749 0.175435C87.3513 0.176902 87.2279 0.188076 87.106 0.208853C83.0068 1.23734 80.1637 3.71016 78.785 7.74242C77.7549 10.7527 76.8483 13.8075 75.9114 16.8484C75.5037 18.1693 75.0159 19.4744 74.9292 20.876C74.7743 23.4203 76.2092 26.8762 79.9091 27.6744C80.041 27.7032 80.2254 27.6531 80.3094 27.8295H105.947C106.333 27.7366 106.738 27.7886 107.122 27.6967C110.335 26.9226 112.822 25.1394 114.392 22.1997C115.443 20.2346 115.989 18.0607 116.669 15.949C116.809 15.5145 117.038 15.095 117.007 14.6142C116.99 14.5947 116.974 14.5742 116.959 14.5538C117.199 13.9217 117.365 13.2673 117.543 12.6166C117.555 12.5563 117.566 12.4959 117.578 12.4365C117.744 12.0487 117.862 11.6419 117.93 11.2252C118.104 10.7865 118.233 10.3312 118.316 9.86622C118.516 9.1914 118.764 8.52678 118.907 7.84081C119.335 5.79498 118.814 3.97935 117.48 2.38742ZM107.797 24.9714C106.918 25.3158 105.994 25.4216 105.057 25.5024C103.755 25.6147 102.456 25.572 101.154 25.5349C101.104 25.5212 101.053 25.5122 101.002 25.5079C100.959 25.5163 100.917 25.5219 100.875 25.5284C100.832 25.5349 100.767 25.5284 100.714 25.5284C100.298 25.5172 99.8841 25.5033 99.4719 25.4662L99.2976 25.4485C98.8809 25.4069 98.4689 25.3273 98.0664 25.2109C97.9245 25.1546 97.7899 25.0814 97.6653 24.9928C97.3213 24.731 97.0087 24.421 96.5817 24.2864H96.5633C95.5424 23.0852 95.2722 21.7189 95.7397 20.1891C95.9675 19.4382 96.1768 18.6826 96.4019 17.9307C97.0825 15.6628 97.7649 13.3954 98.4492 11.1286C98.8328 9.99061 99.198 8.8461 99.6047 7.71643C99.897 6.9033 100.268 6.12358 100.856 5.47195C101.198 5.28166 101.432 4.96792 101.686 4.68945C101.843 4.51958 102.162 4.4871 102.147 4.16778C102.819 3.93108 103.346 3.43169 104.003 3.15972C105.109 2.76614 106.222 2.4589 107.43 2.47653C108.038 2.48582 108.678 2.38928 109.296 2.36236C110.344 2.31688 111.395 2.24076 112.456 2.45518C113.047 2.58044 113.648 2.65743 114.252 2.68539C114.529 3.00006 114.903 3.17921 115.238 3.41405C115.976 3.93201 116.496 5.16657 116.568 6.28323C116.563 6.56727 116.543 6.85317 116.526 7.13721C116.502 7.2719 116.466 7.40422 116.419 7.53264C116.134 8.29751 115.958 9.08836 115.732 9.86437C115.407 10.9718 115.051 12.0689 114.757 13.1875C114.495 14.1918 114.089 15.1572 113.835 16.1727C113.671 16.8299 113.374 17.4546 113.14 18.0932C112.981 18.8775 112.633 19.5979 112.369 20.3451C112 21.3856 111.372 22.2944 110.609 23.0667C109.905 23.7824 109.088 24.382 108.11 24.7087C107.981 24.7486 107.784 24.7477 107.797 24.9714ZM98.7535 9.37705H98.7489H98.7535ZM98.8457 6.48744V6.4958L98.8531 6.50137L98.8457 6.50601V6.4958H98.8393L98.8457 6.48744ZM99.1224 3.71573C99.1224 3.71573 99.1279 3.7148 99.1279 3.71573H99.1224ZM98.8457 9.18583L98.8365 9.18026L98.8466 9.17469C98.8466 9.1775 98.8463 9.18029 98.8457 9.18304V9.18583ZM87.8954 25.3761C86.1331 25.4337 84.3708 25.5144 82.6066 25.469C81.8239 25.456 81.0436 25.379 80.2734 25.2388C78.3368 24.8675 77.149 23.1298 77.4699 21.1647C77.6543 20.0332 78.0601 18.9602 78.3626 17.8593C78.3681 17.8333 78.3746 17.8064 78.3801 17.7804C78.4024 17.7683 78.4217 17.7512 78.4364 17.7305C78.4511 17.7097 78.4609 17.6858 78.465 17.6606C78.7287 16.4966 79.1575 15.3818 79.4932 14.2391C79.9368 12.7289 80.4154 11.2289 80.8885 9.72792C81.3717 8.20375 81.8937 6.69444 82.9902 5.47474C83.6411 4.85239 84.3645 4.31163 85.1445 3.86425C85.9625 3.40013 86.8192 2.94715 87.758 2.89703C89.5941 2.8042 91.4367 2.91652 93.2774 2.7977C94.3905 2.72623 95.5165 2.86268 96.6287 2.8404C97.3665 2.82462 98.0886 2.90724 98.818 2.88124C98.9287 2.88124 99.1362 2.81813 99.0551 3.07432C98.7372 4.06939 98.4187 5.06384 98.0996 6.05767C97.9539 6.51065 97.7455 6.95342 97.6266 7.39897C97.455 8.04874 97.5436 8.07194 96.8888 8.07194C93.7859 8.07194 90.6811 8.07194 87.5745 8.07194C87.0977 8.07194 86.739 8.22232 86.5822 8.71243C86.3978 9.28144 86.2023 9.8458 86.0289 10.4185C85.8205 11.1138 85.6453 11.8304 85.3953 12.4996C85.02 13.5077 84.7387 14.5418 84.4178 15.5628C84.0757 16.6479 83.7243 17.734 83.4107 18.8302C83.3564 19.0191 83.316 19.2118 83.2899 19.4066C83.2693 19.498 83.26 19.5915 83.2623 19.6851C83.2623 19.6953 83.2623 19.7055 83.2623 19.7167C83.2484 20.0109 83.3683 20.1344 83.6671 20.1334C85.2496 20.126 86.8321 20.1335 88.4146 20.127C88.9052 20.127 89.2262 19.8123 89.3553 19.3435C89.5397 18.6724 89.7426 18.0041 89.9713 17.3469C90.1318 16.8828 90.1004 16.8029 89.6273 16.7899C88.9246 16.7705 88.2219 16.8224 87.5173 16.7222C87.4533 16.719 87.3917 16.696 87.3412 16.6563C87.337 16.5937 87.3436 16.5309 87.3606 16.4706C87.6842 16.0232 87.6842 15.4718 87.8558 14.9771C88.2118 13.9495 88.4949 12.8969 88.8241 11.8591C88.8776 11.6921 89.0085 11.5027 89.2253 11.5417C90.3651 11.7431 91.5003 11.4377 92.6549 11.5584C93.9276 11.6911 95.2307 11.6457 96.5181 11.5519C96.7099 11.538 96.7652 11.602 96.6813 11.745C96.4452 12.1497 96.3926 12.6129 96.2451 13.0445C96.0081 13.7435 95.8061 14.4545 95.5912 15.1609C95.369 15.8905 95.1504 16.621 94.9282 17.3506C94.729 18.0004 94.5464 18.6622 94.3204 19.3055C94.0899 19.9636 93.8593 20.6263 93.532 21.2446C93.1188 22.0178 92.5019 22.6462 92.0223 23.3721L90.5514 24.5101L90.4822 24.6029C90.4561 24.6086 90.4307 24.6173 90.4066 24.6289C90.1023 24.7319 89.7832 24.8025 89.5093 24.9705C89.4032 25.0122 89.2945 25.0466 89.1838 25.0735C88.7632 25.2081 88.3455 25.365 87.8917 25.3789L87.8954 25.3761Z" fill="black"/>
<path d="M109.069 13.2454C109.53 11.7435 109.977 10.2388 110.452 8.74156C110.564 8.38883 110.544 8.25888 110.122 8.26445C108.771 8.28394 107.42 8.26445 106.064 8.25981C105.895 8.25981 105.726 8.25517 105.572 8.34613C105.269 8.40368 105.129 8.60418 105.094 8.89751C105.034 9.05438 104.965 9.20846 104.915 9.36812C104.515 10.6779 104.12 11.9895 103.716 13.2983C103.075 15.3859 102.434 17.4753 101.78 19.5583C101.677 19.8832 101.756 19.9556 102.074 19.9519C103.484 19.937 104.895 19.9305 106.305 19.9407C106.766 19.9407 107.01 19.717 107.14 19.304C107.288 18.8398 107.442 18.3702 107.593 17.9023C107.728 17.8568 107.753 17.7455 107.792 17.6239C108.08 16.7105 108.419 15.8129 108.66 14.8874C108.806 14.3416 109.093 13.8302 109.069 13.2454ZM105.13 10.275H105.12H105.13Z" fill="black"/>
</svg>
