<?xml version="1.0" encoding="UTF-8"?>
<svg xmlns="http://www.w3.org/2000/svg" width="30" height="27" viewBox="0 0 30 27" fill="none">
  <path fill-rule="evenodd" clip-rule="evenodd" d="M25.43 18.41C26.06 18.5 27.02 18.92 28.4 20.14V20.16C29.43 21.07 29.87 21.94 29.71 22.73C29.51 23.72 28.46 24.21 27.86 24.41L26.11 24.99C26.11 25 24.14 26.13 23.55 26.42L23.41 26.49C23.15 26.63 22.75 26.84 22.33 26.84C22.15 26.84 21.96 26.81 21.78 26.71C21.23 26.42 20.92 25.74 20.79 24.56C20.57 22.59 21.06 21.28 21.39 20.65C20.98 20.26 20.15 19.56 19.44 19.26C19.14 19.61 18.66 19.99 18.04 19.95C17.09 19.92 16.21 19.04 15.36 17.27L12.57 15.49C12.31 15.65 11.94 15.79 11.54 15.66C10.91 15.45 10.71 14.73 10.63 14.3L7.69003 12.34C7.21003 12.89 6.35003 13.66 5.60003 13.41C4.89003 13.17 4.75003 12.26 4.73003 11.49C3.93003 10.95 2.76003 10.27 2.29003 10.22C2.24003 10.23 1.00003 10.32 0.350029 9.53C-0.00997052 9.09 -0.0899705 8.5 0.100029 7.79C0.150029 7.48 0.43003 6.91 1.61003 6.08C1.57003 6.03 1.50003 5.94 1.50003 5.94L0.50003 4.74C0.230029 4.47 -0.16997 3.64 0.47003 2.68C0.49003 2.64 0.91003 1.88 2.25003 2.13C3.07003 1.62 6.42003 -0.209998 10.12 1.21C10.54 0.890002 11.06 0.700002 11.53 0.840002C11.61 0.750002 11.7 0.660002 11.81 0.580002C12.28 0.230002 12.85 0.150002 13.42 0.360002C13.94 0.130002 15.22 -0.299998 15.96 0.380002C16.7 0.330002 17.81 0.570002 18.2 1.66C18.82 1.87 19.63 2.38 19.74 3.31C20.17 3.78 21.37 5.22 21.23 6.62C21.47 7.01 21.94 7.98 21.84 9.31C21.91 9.37 21.99 9.44 22.05 9.54C22.13 9.67 22.19 9.86 22.15 10.11C22.49 10.49 22.99 11.14 23 11.75C23.14 11.88 23.28 12.05 23.32 12.28V12.36C24.24 13.01 24.55 13.41 24.66 13.65C24.97 13.78 25.36 14 25.53 14.36C25.59 14.49 25.61 14.62 25.61 14.76C25.9 15.13 26.01 15.52 25.9 15.83C26.06 16.37 26.18 17.15 25.79 17.54C25.787 17.543 25.784 17.547 25.7807 17.5513C25.7731 17.5612 25.764 17.573 25.75 17.58C25.78 17.76 25.77 17.96 25.67 18.15C25.62 18.23 25.54 18.33 25.43 18.41ZM2.53003 6.62C1.24003 7.5 1.09003 7.96 1.09003 7.96L1.11003 7.95C0.990029 8.42 1.00003 8.71 1.15003 8.89C1.29003 9.07 1.57003 9.15 1.82003 9.19C2.11003 9.16 3.83003 8.97 5.54003 7.5C5.60003 7.45 5.67003 7.42 5.75003 7.4C5.61653 7.34067 5.46653 7.26483 5.30003 7.18066C5.24203 7.15134 5.18203 7.121 5.12003 7.09C4.56003 7.48 3.48003 7.86 2.80003 8.07C2.75003 8.09 2.70003 8.09 2.65003 8.09C2.48003 8.09 2.31003 8 2.22003 7.85C2.10003 7.66 2.13003 7.4 2.29003 7.24L2.87003 6.66C2.87397 6.65211 2.87947 6.64578 2.88469 6.63978C2.8927 6.63056 2.90003 6.62211 2.90003 6.61C2.79003 6.6 2.66003 6.61 2.53003 6.62ZM3.96003 6.48V6.57C3.97503 6.565 3.99003 6.5575 4.00503 6.55C4.02003 6.5425 4.03503 6.535 4.05003 6.53C4.03503 6.52 4.02003 6.5125 4.00503 6.505C3.99003 6.4975 3.97503 6.49 3.96003 6.48ZM5.97003 11.7991C5.89564 11.7944 5.82564 11.79 5.76003 11.79C5.81003 12.35 5.94003 12.47 5.94003 12.47C6.04003 12.47 6.45003 12.19 6.85003 11.78C6.63003 11.81 6.42003 11.81 6.24003 11.81C6.14438 11.81 6.05438 11.8044 5.97003 11.7991ZM18.82 18.43C18.93 18.23 19.17 18.13 19.38 18.19L19.35 18.2C20.51 18.49 21.85 19.73 22.15 20.02C22.86 20.38 23.04 20.59 23.17 20.94C23.1728 20.9463 23.1755 20.9525 23.1782 20.9585C23.2135 21.0389 23.2406 21.1005 23.38 21.24C23.68 21.54 23.98 21.43 23.98 21.43L24.55 21.14C25.04 20.97 24.87 20.25 24.87 20.25V20.05L24.72 19.9C24.45 19.63 24.35 19.37 24.31 19.18C24.27 19.08 24.25 18.97 24.28 18.87V18.67C24.28 18.56 24.31 18.46 24.37 18.38C24.26 18.24 24.24 18.06 24.31 17.89C24.38 17.72 24.54 17.61 24.71 17.59C24.69 17.55 24.67 17.51 24.65 17.49C24.53 17.31 24.54 17.08 24.67 16.91C24.76 16.78 24.9 16.71 25.05 16.71C25.03 16.51 24.97 16.18 24.88 15.91C24.84 15.77 24.85 15.63 24.92 15.51C24.88 15.43 24.79 15.31 24.71 15.23C24.58 15.09 24.53 14.9 24.59 14.72C24.49 14.64 24.27 14.54 24.07 14.49C23.89 14.45 23.76 14.31 23.71 14.14C23.69 14.08 23.69 14.02 23.69 13.96V13.96C23.51 13.74 22.98 13.31 22.45 12.96C22.33 12.87 22.25 12.74 22.23 12.59C22.22 12.53 22.23 12.47 22.24 12.42C22.23 12.41 22.21 12.4 22.21 12.4C21.97 12.27 21.87 11.97 21.99 11.73C22.01 11.57 21.63 10.98 21.21 10.56C21.08 10.44 21.04 10.26 21.08 10.09C21.01 10.06 20.94 10.01 20.89 9.95C20.8 9.83 20.76 9.69 20.78 9.54C20.96 8.48 20.65 7.67 20.45 7.28C20.2 7.6 19.8 7.63 19.31 7.33C19.43 6.72 19.75 6.44 20.21 6.52C20.31 5.68 19.56 4.61 19.08 4.07C18.81 4.65 18.27 4.9 17.58 4.97C17.46 4.23 18.02 3.63 18.74 3.52C18.74 2.78 17.72 2.55 17.68 2.55C17.6485 2.55 17.6231 2.53133 17.5991 2.51363C17.5927 2.50889 17.5864 2.50422 17.58 2.5C17.2116 3.13165 16.6584 3.38617 16.015 3.6822C15.925 3.7236 15.8333 3.76582 15.74 3.81C15.56 3.53 15.71 3.18 15.83 2.97C16.17 2.45 16.65 2.12 17.25 2.06C16.9987 1.27801 16.0193 1.37134 15.8449 1.38796C15.832 1.38919 15.8235 1.39 15.82 1.39C15.74 1.41 15.65 1.39 15.57 1.36C15.2981 1.95982 14.8791 2.27182 14.3794 2.64383C14.2543 2.73697 14.1242 2.83388 13.99 2.94C13.56 2.18 14.16 1.34 14.94 1.02C14.54 1 13.96 1.19 13.63 1.35C13.57 1.38 13.5 1.4 13.43 1.4C13.38 1.9 13.06 2.09 12.53 2.36C12.22 2.06 12.22 1.67 12.39 1.37C12.25 1.47 12.15 1.61 12.1 1.71C12.02 1.85 11.89 1.95 11.73 1.97C11.58 1.99 11.41 1.94 11.3 1.83C11.23 1.76 11.13 1.77 11.02 1.81C11.6 2.38 12.44 3.44 12.44 4.97C12.44 5.25 12.22 5.47 11.94 5.47C11.66 5.47 11.44 5.25 11.44 4.97C11.44 3.36 10.15 2.35 9.95003 2.21C8.81003 1.72 7.68003 1.61 6.67003 1.69C6.99003 1.75 7.29003 1.87 7.49003 2.09C7.79003 2.42 7.84003 2.87 7.65003 3.45C7.62003 3.52 7.17003 4.47 6.00003 4.47H5.79003C5.65003 4.46 5.55003 4.34 5.56003 4.2C5.57003 4.06 5.68003 3.97 5.83003 3.97C6.74163 4.04597 7.12122 3.38253 7.1743 3.28976C7.17712 3.28483 7.17902 3.28151 7.18003 3.28C7.30003 2.92 7.28003 2.63 7.12003 2.45C6.67003 1.97 5.19003 2.2 4.71003 2.32C4.60003 2.35 4.50003 2.28 4.45003 2.19C4.05003 2.33 3.70003 2.48 3.42003 2.62C3.86003 2.85 4.46003 3.19 5.22003 3.7C5.45003 3.85 5.51003 4.16 5.36003 4.39C5.26003 4.53 5.10003 4.61 4.94003 4.61C4.84003 4.61 4.74003 4.59 4.66003 4.53C3.13003 3.51 2.30003 3.18 2.18003 3.14C1.48003 2.96 1.29003 3.2 1.29003 3.2C0.960029 3.7 1.15003 3.98 1.22003 4.06L1.32003 4.18C1.72003 4.07 2.27003 4.37 2.89003 4.74C5.42003 6.27 6.87003 6.86 6.88003 6.86C7.14003 6.96 7.26003 7.25 7.16003 7.51C7.06003 7.77 6.76003 7.89 6.51003 7.79C6.50282 7.78279 6.44886 7.76 6.36686 7.72537C6.3351 7.71195 6.29912 7.69676 6.26003 7.68C6.36003 7.88 6.33003 8.14 6.15003 8.29C5.29003 9.02 4.44003 9.47 3.71003 9.75C4.43003 10.12 5.11003 10.57 5.40003 10.77C5.98003 10.86 9.01003 11.16 10.96 8.49C11.12 8.27 11.44 8.22 11.66 8.38C11.67 8.38 11.68 8.4 11.68 8.4C11.88 8.27 12.15 8.3 12.32 8.48C12.59 8.78 13.44 9.56 14.27 10.12C14.8 10.47 15.8 10.2 16.14 10.07C16.55 9.98 16.77 9.86 16.86 9.7C17.06 9.36 16.84 8.68 16.73 8.36C16.57 7.87 15.65 7.32 14.33 6.93C13.63 6.72 12.45 6.87 12.05 6.94C11.78 6.99 11.52 6.81 11.47 6.54C11.42 6.27 11.6 6.01 11.87 5.96C11.874 5.95944 11.8829 5.95794 11.8962 5.95568C12.1195 5.91803 13.6011 5.66811 14.62 5.97C15.82 6.33 17.32 6.98 17.68 8.04C17.93 8.78 18.11 9.56 17.73 10.2C17.49 10.62 17.05 10.9 16.43 11.02C16.38 11.05 15.74 11.29 15.01 11.29C14.58 11.29 14.12 11.2 13.73 10.94C12.9 10.38 12.05 9.61 11.67 9.21C10.65 10.54 9.40003 11.21 8.27003 11.53L11.38 13.6C11.5 13.68 11.58 13.81 11.6 13.95C11.68 14.54 11.83 14.71 11.87 14.73C11.93 14.74 12.1 14.65 12.21 14.54C12.38 14.37 12.64 14.35 12.83 14.47L16.04 16.51C16.12 16.56 16.18 16.63 16.22 16.72C17.14 18.71 17.83 18.95 18.08 18.96H18.1C18.51 18.96 18.82 18.43 18.82 18.43ZM27.9004 22.8703C27.9777 22.9731 28.0579 23.0798 28.13 23.18L28.12 23.2C28.42 23.02 28.68 22.79 28.73 22.53C28.82 22.13 28.46 21.55 27.74 20.91C26.83 20.1 26.19 19.73 25.75 19.56C25.95 19.8 26.06 20.03 25.95 20.3C25.945 20.305 25.94 20.315 25.9338 20.3275C25.9275 20.34 25.92 20.355 25.91 20.37C25.96 20.97 25.81 21.79 24.95 22.08L24.43 22.34C24.3 22.41 24.09 22.47 23.85 22.47C23.5 22.47 23.08 22.35 22.69 21.96C22.42 21.69 22.33 21.49 22.26 21.31C22.2567 21.3033 22.2545 21.2967 22.2523 21.29C22.2478 21.2767 22.2434 21.2633 22.23 21.25C21.98 21.8 21.62 22.87 21.8 24.47C21.93 25.61 22.21 25.81 22.26 25.84C22.39 25.91 22.64 25.79 22.85 25.68C22.8324 25.5592 22.8119 25.437 22.7913 25.3141C22.672 24.6024 22.5492 23.8699 22.95 23.29C23.23 23.75 23.23 24.25 23.14 24.75C23.121 24.8707 23.1059 25.048 23.0898 25.2382C23.0806 25.3473 23.071 25.4606 23.06 25.57L23.13 25.53C23.2891 25.4543 23.5628 25.304 23.8774 25.1313C23.9782 25.0759 24.0832 25.0182 24.19 24.96C24.1675 24.9023 24.1442 24.844 24.1208 24.7854C23.8843 24.1933 23.6316 23.5604 23.95 23.06C24.28 23.38 24.36 23.78 24.35 24.21C24.35 24.37 24.37 24.62 24.39 24.85C24.6471 24.7105 24.9041 24.5655 25.1215 24.443C25.2002 24.3986 25.2736 24.3572 25.34 24.32C25.09 23.84 24.8 23.27 25.13 22.94C25.45 23.16 25.54 23.45 25.54 23.8C25.54 23.8818 25.5565 24.0048 25.5746 24.1391C25.5764 24.1526 25.5782 24.1663 25.58 24.18C25.66 24.13 25.73 24.09 25.73 24.09L26.54 23.81C26.5108 23.7782 26.4812 23.7462 26.4515 23.7141C26.0228 23.2508 25.5591 22.7498 25.69 22.17C26.11 22.35 26.32 22.69 26.46 23.09C26.4943 23.1815 26.5515 23.3024 26.6129 23.4322C26.6589 23.5294 26.7072 23.6315 26.75 23.73L27.56 23.45C27.69 23.4 27.83 23.34 27.96 23.28C27.8942 23.2282 27.8271 23.1765 27.7596 23.1246C27.2021 22.6952 26.6214 22.248 26.55 21.57C27.04 21.71 27.36 22.06 27.61 22.47C27.6759 22.5718 27.7849 22.7168 27.9004 22.8703ZM5.61999 2.49C5.89999 2.49 6.12999 2.72 6.12999 3C6.12999 3.28 5.89999 3.51 5.61999 3.51C5.33998 3.51 5.10999 3.28 5.10999 3C5.10999 2.72 5.33998 2.49 5.61999 2.49Z" fill="white"></path>
</svg>
