<svg version="1.1" xmlns="http://www.w3.org/2000/svg" xmlns:xlink="http://www.w3.org/1999/xlink">
    <symbol id="podium" viewBox="0 0 32 32">
        <path d="M31.995 16.641c-0.001-0.036-0.015-0.071-0.021-0.107-0.011-0.052-0.019-0.104-0.041-0.151-0.003-0.005-0.001-0.012-0.004-0.017l-1.333-2.667c-0.113-0.224-0.344-0.367-0.596-0.367h-7.332v-6c0-0.011-0.005-0.019-0.005-0.028-0.001-0.027-0.012-0.052-0.016-0.079-0.011-0.063-0.021-0.123-0.048-0.179-0.001-0.004-0.001-0.008-0.003-0.012l-1.333-2.667c-0.115-0.227-0.345-0.369-0.597-0.369h-9.333c-0.252 0-0.483 0.143-0.596 0.368l-1.333 2.667c-0.004 0.008-0.003 0.017-0.007 0.025-0.013 0.029-0.016 0.063-0.025 0.093-0.016 0.055-0.032 0.109-0.033 0.165 0 0.005-0.003 0.009-0.003 0.015v4.667h-7.333c-0.252 0-0.483 0.143-0.596 0.368l-1.333 2.667c-0.003 0.007-0.003 0.013-0.005 0.020-0.019 0.041-0.025 0.087-0.036 0.132-0.009 0.041-0.024 0.081-0.025 0.124 0 0.008-0.004 0.015-0.004 0.023v12c-0 0.368 0.299 0.667 0.667 0.667h30.667c0.368 0 0.667-0.299 0.667-0.667v-10.667c-0-0.009-0.005-0.017-0.005-0.025zM22.667 14.667h6.92l0.667 1.333h-7.587v-1.333zM11.744 5.333h8.509l0.667 1.333h-9.843l0.667-1.333zM2.412 13.333h6.921v1.333h-7.588l0.667-1.333zM30.667 26.667h-29.333v-10.667h8.667c0.368 0 0.667-0.299 0.667-0.667v-7.333h10.667v5.993c0 0.003-0.001 0.004-0.001 0.007s0.001 0.004 0.001 0.005v2.661c0 0.368 0.299 0.667 0.667 0.667h8.667v9.333z"></path>
        <path d="M16.923 10.716c-0.249-0.104-0.536-0.048-0.727 0.144l-1.333 1.333c-0.26 0.26-0.26 0.683 0 0.943s0.683 0.26 0.943 0l0.195-0.195v5.059c0 0.368 0.299 0.667 0.667 0.667s0.667-0.299 0.668-0.667v-6.667c-0-0.271-0.163-0.513-0.412-0.617z"></path>
        <path d="M26.667 24c-0.368 0-0.667-0.3-0.667-0.667 0-0.368-0.299-0.667-0.667-0.667s-0.667 0.299-0.667 0.667c0 1.103 0.897 2 2 2s2-0.897 2-2c0-0.512-0.193-0.979-0.511-1.333 0.317-0.355 0.511-0.821 0.511-1.333 0-1.103-0.897-2-2-2s-2 0.897-2 2c0 0.368 0.299 0.667 0.667 0.667s0.667-0.299 0.667-0.667c0-0.367 0.299-0.667 0.667-0.667s0.667 0.3 0.667 0.667c0 0.367-0.299 0.667-0.667 0.667s-0.667 0.299-0.667 0.667c0 0.368 0.299 0.667 0.667 0.667s0.667 0.3 0.667 0.667c-0 0.365-0.299 0.667-0.667 0.667z"></path>
        <path d="M7.333 19.331c0-1.103-0.897-2-2-2s-2 0.897-2 2c0 0.368 0.299 0.667 0.667 0.667s0.667-0.299 0.667-0.667c0-0.367 0.299-0.667 0.667-0.667s0.667 0.3 0.667 0.667c0 0.681-0.267 1.323-0.748 1.805l-1.724 1.724c-0.191 0.191-0.248 0.477-0.144 0.727 0.103 0.251 0.347 0.413 0.616 0.413h2.667c0.368 0 0.667-0.3 0.667-0.668s-0.299-0.667-0.667-0.667h-1.057l0.585-0.585c0.735-0.736 1.139-1.712 1.139-2.749z"></path>
    </symbol>
    <symbol id="tour" viewBox="0 0 49 32">
        <path d="M0 0v34.462h2.462v-34.462h-2.462zM2.462 32h46.769v2.462h-46.769v-2.462zM7.385 2.462v4.923h17.231v-4.923h-17.231zM7.385 12.308v4.923h17.231v-4.923h-17.231zM7.385 22.154v4.923h17.231v-4.923h-17.231zM29.538 12.308v4.923h17.231v-4.923h-17.231zM-2.462 29.538h51.692v2.462h-51.692v-2.462z"></path>
    </symbol>
    <symbol id="coef-graph" viewBox="0 0 32 32">
        <path d="M0 31.2v-1.6h32v1.6h-32z"></path>
        <path d="M3.2 29.6h-1.6v-6.4h1.6v6.4z"></path>
        <path d="M11.2 29.6h-1.6v-12.8h1.6v12.8z"></path>
        <path d="M17.6 29.6h-1.6v-8h1.6v8z"></path>
        <path d="M30.4 29.6h-1.6v-17.6h1.6v17.6z"></path>
        <path d="M3.84 17.28l-1.28-0.96 6.4-6.4 1.28 0.96z"></path>
        <path d="M10.633 10.966l1.131-1.131 4.8 4.8-1.131 1.131z"></path>
        <path d="M18.166 15.766l-1.131-1.131 11.2-11.2 1.131 1.131z"></path>
        <path d="M2.4 15.2v0c-1.325 0-2.4 1.074-2.4 2.4v0c0 1.325 1.074 2.4 2.4 2.4s2.4-1.074 2.4-2.4c0-1.325-1.074-2.4-2.4-2.4zM2.4 16.8c0.442 0 0.8 0.358 0.8 0.8s-0.358 0.8-0.8 0.8c-0.442 0-0.8-0.358-0.8-0.8v0c0-0.442 0.358-0.8 0.8-0.8v0z"></path>
        <path d="M10.4 7.2v0c-1.325 0-2.4 1.074-2.4 2.4v0c0 1.325 1.074 2.4 2.4 2.4s2.4-1.074 2.4-2.4c0-1.325-1.074-2.4-2.4-2.4zM10.4 8.8c0.442 0 0.8 0.358 0.8 0.8s-0.358 0.8-0.8 0.8c-0.442 0-0.8-0.358-0.8-0.8v0c0-0.442 0.358-0.8 0.8-0.8v0z"></path>
        <path d="M16.8 13.6v0c-1.325 0-2.4 1.074-2.4 2.4v0c0 1.325 1.074 2.4 2.4 2.4s2.4-1.074 2.4-2.4c0-1.325-1.074-2.4-2.4-2.4zM16.8 15.2c0.442 0 0.8 0.358 0.8 0.8s-0.358 0.8-0.8 0.8c-0.442 0-0.8-0.358-0.8-0.8v0c0-0.442 0.358-0.8 0.8-0.8v0z"></path>
        <path d="M29.6 0.8v0c-1.325 0-2.4 1.074-2.4 2.4v0c0 1.325 1.074 2.4 2.4 2.4s2.4-1.074 2.4-2.4c0-1.325-1.074-2.4-2.4-2.4zM29.6 2.4c0.442 0 0.8 0.358 0.8 0.8s-0.358 0.8-0.8 0.8c-0.442 0-0.8-0.358-0.8-0.8v0c0-0.442 0.358-0.8 0.8-0.8v0z"></path>
    </symbol>
    <symbol id="self-stat" viewBox="0 0 36 32">
        <path d="M5.405 22.486l1.009 0.396 6.559-4.162 2.883 4.162 9.874-6.829c-1.156-0.959-2.527-1.707-4.026-2.159l-0.082-0.021c-1.387-0.486-1.802-0.973-1.946-1.225s0 0 0 0v0 0 0c-0.075-0.223-0.144-0.496-0.193-0.776l-0.005-0.035c0.002 0.016 0.004 0.035 0.004 0.054s-0.001 0.038-0.004 0.056l0-0.002c-0.004-0.057-0.007-0.123-0.007-0.189s0.002-0.133 0.007-0.198l-0.001 0.009c0.444-0.562 0.81-1.212 1.066-1.915l0.015-0.049c0.311-0.405 0.538-0.89 0.645-1.419l0.004-0.022c0.288-0.793 0.198-1.207 0-1.405 0.16-0.476 0.252-1.024 0.252-1.593 0-0.809-0.186-1.575-0.517-2.257l0.013 0.031c-0.279-1.108-1.090-1.978-2.139-2.335l-0.023-0.007c-0.776-0.374-1.687-0.593-2.649-0.593-0.524 0-1.034 0.065-1.52 0.187l0.043-0.009c-3.027 0.504-3.604 4.054-3.604 4.054-0.035 0.237-0.055 0.51-0.055 0.788 0 0.68 0.119 1.332 0.338 1.936l-0.013-0.040c-0.012 0.112-0.019 0.242-0.019 0.374 0 0.361 0.053 0.71 0.152 1.039l-0.007-0.025c0.108 0.613 0.396 0.793 0.486 0.829 0.24 0.817 0.591 1.53 1.042 2.167l-0.015-0.022c0.016 0.089 0.025 0.192 0.025 0.297s-0.009 0.208-0.026 0.308l0.002-0.011c-0.047 0.277-0.109 0.519-0.19 0.753l0.010-0.033h-0.18c-0.139 0.188-0.275 0.352-0.419 0.509l0.004-0.005c-1.098 0.68-2.365 1.256-3.705 1.664l-0.115 0.030c-0.669 0.236-1.234 0.627-1.672 1.13l-0.004 0.005c-1.002 1.453-1.693 3.194-1.94 5.076l-0.006 0.059c0.090 1.279 0.649 1.423 0.649 1.423z"></path>
        <path d="M26.126 12.829l1.928 2.811-12.45 8.595-2.901-4.18-12.703 8.072 2.685 3.874 8.847-5.369 2.883 4.162 16.324-11.297 1.928 2.811 3.369-9.333-9.91-0.144z"></path>
    </symbol>
    <symbol id="general-stats" viewBox="0 0 40 32">
        <path d="M0 29.3h40V32H0v-2.7zM5.3 16h5.4v10.7H5.3V16zM13.3 5.3h5.4v21.4h-5.4V5.3zM21.3 10.7h5.4v16h-5.4v-16zM29.3 0h5.4v26.7h-5.4V0z"/>
    </symbol>
    <symbol id="general-stats-coin" viewBox="0 0 13 10">
        <path d="M8.42969 6.75h.99023c.15235 0 .33008-.15234.33008-.30469V3.01758c0-.15235-.17773-.33008-.33008-.33008h-.99023c-.15235 0-.30469.17773-.30469.33008v3.42773c0 .15235.15234.30469.30469.30469Zm2.43751 0h.9902c.1524 0 .3301-.15234.3301-.30469V.580078C12.1875.427734 12.0098.25 11.8574.25h-.9902c-.1524 0-.3047.177734-.3047.330078V6.44531c0 .15235.1523.30469.3047.30469Zm-7.31251 0h.99023c.15235 0 .33008-.15234.33008-.30469V4.64258c0-.15235-.17773-.33008-.33008-.33008h-.99023c-.15235 0-.30469.17773-.30469.33008v1.80273c0 .15235.15234.30469.30469.30469Zm2.4375 0h.99023c.15235 0 .33008-.15234.33008-.30469V1.39258c0-.15235-.17773-.33008-.33008-.33008h-.99023c-.15235 0-.30469.17773-.30469.33008v5.05273c0 .15235.15234.30469.30469.30469Zm6.60161 1.625H1.625V.65625C1.625.453125 1.42188.25 1.21875.25h-.8125C.177734.25 0 .453125 0 .65625V9.1875C0 9.64453.355469 10 .8125 10h11.7813c.2031 0 .4062-.17773.4062-.40625v-.8125c0-.20313-.2031-.40625-.4062-.40625Z"/>
    </symbol>
    <symbol id="general-stats-new" viewBox="0 0 14 10">
        <path d="M10.3145 7.70312H10.8647C11.0083 7.70312 11.1758 7.55957 11.1758 7.41602V1.88916C11.1758 1.74561 11.0083 1.57812 10.8647 1.57812H10.3145C10.1709 1.57812 10.0273 1.74561 10.0273 1.88916V7.41602C10.0273 7.55957 10.1709 7.70312 10.3145 7.70312ZM5.7207 7.70312H6.271C6.41455 7.70312 6.58203 7.55957 6.58203 7.41602V2.65479C6.58203 2.51123 6.41455 2.34375 6.271 2.34375H5.7207C5.57715 2.34375 5.43359 2.51123 5.43359 2.65479V7.41602C5.43359 7.55957 5.57715 7.70312 5.7207 7.70312ZM8.01758 7.70312H8.56787C8.71143 7.70312 8.87891 7.55957 8.87891 7.41602V4.18604C8.87891 4.04248 8.71143 3.875 8.56787 3.875H8.01758C7.87402 3.875 7.73047 4.04248 7.73047 4.18604V7.41602C7.73047 7.55957 7.87402 7.70312 8.01758 7.70312ZM12.707 8.85156H1.98828V1.19531C1.98828 1.00391 1.79688 0.8125 1.60547 0.8125H1.22266C1.00732 0.8125 0.839844 1.00391 0.839844 1.19531V9.23438C0.839844 9.66504 1.1748 10 1.60547 10H12.707C12.8984 10 13.0898 9.83252 13.0898 9.61719V9.23438C13.0898 9.04297 12.8984 8.85156 12.707 8.85156ZM3.42383 7.70312H3.97412C4.11768 7.70312 4.28516 7.55957 4.28516 7.41602V5.71729C4.28516 5.57373 4.11768 5.40625 3.97412 5.40625H3.42383C3.28027 5.40625 3.13672 5.57373 3.13672 5.71729V7.41602C3.13672 7.55957 3.28027 7.70312 3.42383 7.70312Z"/>
    </symbol>
</svg>
