<?xml version="1.0" encoding="UTF-8"?>
<svg xmlns="http://www.w3.org/2000/svg" xmlns:xlink="http://www.w3.org/1999/xlink" xmlns:v="https://vecta.io/nano" width="149" height="69" fill="none">
  <g clip-path="url(#A)">
    <g fill="#fff">
      <path d="M7.844 65.212c0 1.669-1.3 3.247-3.676 3.247-1.703 0-2.914-.541-3.721-.947v-1.488c.941.541 2.331 1.082 3.721 1.082 1.524 0 2.152-.812 2.152-1.849 0-.812-.538-1.533-1.659-1.759l-1.569-.361c-1.659-.361-2.69-1.308-2.69-3.067 0-1.714 1.39-3.157 3.9-3.157 1.255 0 2.196.316 3.003.631v1.533c-.941-.496-2.017-.812-3.003-.812-1.434 0-2.376.676-2.376 1.759 0 .857.493 1.443 1.434 1.624l1.659.361c1.838.451 2.824 1.578 2.824 3.202zm13.134-1.984v5.006h-1.434v-4.645c0-1.172-.672-1.849-1.614-1.849-.807 0-1.434.361-1.883.992 0 .18.045.316.045.496v5.006h-1.39v-4.645c0-1.172-.628-1.849-1.569-1.849-.807 0-1.434.406-1.928.992v5.502H9.772v-7.621h1.39v.721c.538-.541 1.255-.992 2.286-.992.852 0 1.659.361 2.107 1.037.403-.406 1.255-1.037 2.6-1.037 1.435.045 2.824.992 2.824 2.886zm1.883 2.57c0-1.579 1.39-2.48 2.914-2.48.852 0 1.659.225 2.152.496v-.812c0-.767-.583-1.353-1.748-1.353a5.41 5.41 0 0 0-2.869.857v-1.443a6.27 6.27 0 0 1 2.869-.677c2.241 0 3.138 1.308 3.138 2.796v5.051h-1.39v-.631c-.448.451-1.21.857-2.196.857-1.659 0-2.869-.947-2.869-2.661zm5.02.676v-1.398c-.269-.225-1.031-.586-1.883-.586-.941 0-1.703.451-1.703 1.263 0 .902.717 1.443 1.703 1.443.896.045 1.614-.406 1.883-.722zm3.631-5.862h1.39v1.308a2.47 2.47 0 0 1 2.331-1.578c.224 0 .404.045.538.045v1.578c-.224-.045-.493-.045-.672-.045-1.255 0-1.928.812-2.107 1.533v4.735h-1.434v-7.576h-.045zm6.634 5.727v-4.465h-1.39v-1.263h1.479v-2.255l1.3-.812v3.022h1.838v1.263h-1.838v4.239c0 .676.359 1.037 1.121 1.037a3.1 3.1 0 0 0 .717-.09v1.218a4.03 4.03 0 0 1-1.121.18c-1.3.045-2.107-.676-2.107-2.075zm9.997-9.2h1.524l4.169 6.81 4.169-6.81h1.479v11.094H58.05v-8.478l-4.17 6.765h-.179l-4.124-6.765v8.478h-1.434V57.139zM61.501 64.4c0-2.3 1.703-4.059 3.989-4.059s3.989 1.714 3.989 4.059-1.703 4.059-3.989 4.059-3.989-1.714-3.989-4.059zm6.5 0c0-1.759-1.21-2.706-2.465-2.706-1.3 0-2.465.947-2.465 2.706s1.21 2.706 2.465 2.706S68 66.204 68 64.4zm2.106-3.788h1.614l2.286 5.908 2.286-5.908h1.524l-3.093 7.621h-1.479l-3.138-7.621zm8.382 3.788c0-2.435 1.703-4.014 3.721-4.014 2.331 0 3.721 1.714 3.721 4.104 0 .18 0 .406-.045.496h-5.872c.045 1.263 1.076 2.165 2.376 2.165 1.21 0 2.152-.361 3.183-1.172v1.398c-.628.496-1.614 1.082-3.183 1.082-2.152 0-3.9-1.353-3.9-4.059zm5.872-.676c-.045-1.218-.807-2.075-2.152-2.075-1.255 0-2.062.947-2.152 2.075h4.303z"></path>
    </g>
    <path d="M142.276 13.304c3.407 0 6.365-2.931 6.365-6.404 0-3.427-2.913-6.404-6.365-6.404-3.496 0-6.41 2.931-6.41 6.404s2.914 6.404 6.41 6.404z" fill="#f72442"></path>
    <g fill="#fff">
      <use xlink:href="#B"></use>
      <use xlink:href="#B"></use>
    </g>
  </g>
  <defs>
    <clipPath id="A">
      <path fill="#fff" d="M0 0h149v69H0z"></path>
    </clipPath>
    <path id="B" d="M126.004 44.602h9.324V16.506h-9.324v28.096zm-19.23-9.471c-3.227 0-4.931-2.616-4.931-5.727 0-3.021 1.704-5.502 4.931-5.502 1.793 0 3.676.721 5.065 2.21v6.765c-1.389 1.443-3.272 2.255-5.065 2.255zm-.09 21.737c9.907 0 14.524-4.87 14.524-13.169V16.506h-9.324v1.578c-1.703-1.578-4.169-2.48-6.948-2.48-7.62 0-12.641 5.727-12.641 13.755 0 8.118 5.02 13.98 12.641 13.98 2.779 0 5.245-1.127 6.948-2.48V43.7c0 3.067-1.748 4.645-5.782 4.645-3.228 0-7.576-1.263-11.296-3.878v9.11c2.376 1.533 7.127 3.292 11.878 3.292zM71.586 45.504c3.452 0 5.827-1.308 7.531-2.976v2.029h9.189V16.506h-9.324v17.949c-1.076 1.533-2.6 2.48-4.348 2.48-2.241 0-3.765-1.533-3.765-3.969V16.506h-9.324v18.806c-.045 6.584 4.841 10.192 10.041 10.192zm-40.074-.902h25.775v-7.847H43.974l12.999-12.718v-7.531H31.736v7.667h12.775L31.512 36.89v7.712zm-30.974 0h27.568v-9.11H10.13v-6.404h16.227v-8.794H10.13V13.62h17.975V4.826H.538v39.777z"></path>
  </defs>
</svg>
