<?xml version="1.0" encoding="UTF-8"?>
<svg width="26px" height="26px" viewBox="0 0 26 26" version="1.1" xmlns="http://www.w3.org/2000/svg" xmlns:xlink="http://www.w3.org/1999/xlink">
    <!-- Generator: Sketch 51.3 (57544) - http://www.bohemiancoding.com/sketch -->
    <title>foooter_icon_18+</title>
    <desc>Created with Sketch.</desc>
    <defs></defs>
    <g id="Symbols" stroke="none" stroke-width="1" fill="none" fill-rule="evenodd">
        <g id="Footer" transform="translate(-243.000000, -520.000000)">
            <g id="footer/icon_18+" transform="translate(240.000000, 517.000000)">
                <g>
                    <g id="icon_18plus" transform="translate(3.240000, 3.240000)" fill="#FFFFFF" fill-rule="nonzero">
                        <polygon id="Shape" points="8.10421575 17.4551889 8.10421575 10.4317051 6.42913178 10.4317051 6.42913178 8.759447 10.2818249 8.759447 10.2818249 17.4551889"></polygon>
                        <path d="M18.6572447,10.9333825 C18.6572447,11.7695115 18.3222279,12.2711889 17.4846859,12.7728664 C18.4897363,13.107318 18.9922615,13.943447 18.9922615,14.9468018 C18.9922615,16.4518341 17.6521943,17.4551889 15.4745852,17.4551889 C13.296976,17.4551889 11.9569089,16.4518341 11.9569089,14.9468018 C11.9569089,13.943447 12.6269424,13.107318 13.6319928,12.7728664 C12.9619592,12.4384147 12.4594341,11.6022857 12.4594341,10.9333825 C12.4594341,9.59557604 13.6319928,8.5922212 15.4745852,8.5922212 C17.4846859,8.5922212 18.6572447,9.59557604 18.6572447,10.9333825 Z M14.134518,14.779576 C14.134518,15.4484793 14.6370432,15.9501567 15.6420936,15.9501567 C16.647144,15.9501567 17.1496692,15.6157051 17.1496692,14.779576 C17.1496692,14.1106728 16.647144,13.6089954 15.6420936,13.6089954 C14.6370432,13.6089954 14.134518,14.1106728 14.134518,14.779576 Z M14.3020264,11.1006083 C14.3020264,11.7695115 14.8045516,12.1039631 15.4745852,12.1039631 C16.1446188,12.1039631 16.647144,11.7695115 16.647144,11.1006083 C16.647144,10.4317051 16.1446188,10.0972535 15.4745852,10.0972535 C14.8045516,10.0972535 14.3020264,10.4317051 14.3020264,11.1006083 Z" id="Shape"></path>
                        <path d="M22.8449546,9.76280184 C23.1799714,10.7661567 23.3474798,11.9367373 23.3474798,13.107318 C23.3474798,18.9602212 18.6572447,23.6425438 12.7944508,23.6425438 C6.93165697,23.6425438 2.24142188,18.9602212 2.24142188,13.107318 C2.24142188,7.25441475 6.93165697,2.57209217 12.7944508,2.57209217 C13.9670096,2.57209217 15.1395684,2.73931797 16.1446188,3.07376959 L16.1446188,0.732608295 C14.97206,0.398156682 13.9670096,0.230930876 12.7944508,0.230930876 C5.7590982,0.230930876 0.0638127224,5.91660829 0.0638127224,12.9400922 C0.0638127224,19.963576 5.7590982,25.6492535 12.7944508,25.6492535 C19.8298035,25.6492535 25.525089,19.963576 25.525089,12.9400922 C25.525089,11.7695115 25.3575806,10.5989309 25.0225638,9.59557604 C25.1900722,9.76280184 22.8449546,9.76280184 22.8449546,9.76280184 Z" id="Shape"></path>
                        <polygon id="Shape" points="22.174921 3.74267281 22.174921 1.40151152 20.3323287 1.40151152 20.3323287 3.74267281 17.9872111 3.74267281 17.9872111 5.58215668 20.3323287 5.58215668 20.3323287 7.92331797 22.174921 7.92331797 22.174921 5.58215668 24.5200386 5.58215668 24.5200386 3.74267281"></polygon>
                    </g>
                    <rect id="Rectangle" x="0" y="0" width="32.4" height="32.4"></rect>
                </g>
            </g>
        </g>
    </g>
</svg>