<?xml version="1.0" encoding="UTF-8"?>
<svg xmlns="http://www.w3.org/2000/svg" xmlns:v="https://vecta.io/nano" width="44" height="44" fill="none">
  <path d="M22 44c12.15 0 22-9.85 22-22S34.15 0 22 0 0 9.85 0 22s9.85 22 22 22z" fill="#343434"></path>
  <path fill-rule="evenodd" d="M26.916 33.757a1.27 1.27 0 0 0 1.983-.764l4.082-19.95c.065-.308-.043-.628-.282-.834s-.569-.265-.863-.154L7.588 21.24a.91.91 0 0 0 .055 1.719l5.93 1.862 2.393 7.277c.103.308.34.55.653.634a.93.93 0 0 0 .879-.228l3.354-3.215 6.064 4.468zm-11.927-9.545l1.819 6.092.404-3.858 11.034-10.105a.31.31 0 0 0 .036-.415c-.096-.126-.274-.156-.407-.07l-12.885 8.356z" fill="#fff"></path>
</svg>
