<svg width="86" height="68" viewBox="0 0 86 68" fill="none" xmlns="http://www.w3.org/2000/svg">
<path d="M30.7646 56.4311H30.3089L29.8532 56.1999C29.7057 56.0764 29.5881 55.9212 29.5093 55.7461C29.4209 55.529 29.3827 55.2948 29.3975 55.061V51.9269C29.404 51.7504 29.4418 51.5765 29.5093 51.4131C29.5684 51.2425 29.6654 51.0874 29.793 50.9593L30.2487 50.6767C30.5997 50.5397 30.9897 50.5397 31.3407 50.6767L31.7964 50.9593C31.9241 51.0874 32.0211 51.2425 32.0802 51.4131C32.156 51.5949 32.194 51.7901 32.192 51.9869V52.2694H31.1602V52.0382C31.1755 51.8948 31.1356 51.751 31.0484 51.6358C31.0107 51.5801 30.9593 51.5352 30.899 51.5052C30.8388 51.4751 30.7717 51.4611 30.7045 51.4645C30.6366 51.4564 30.5678 51.4683 30.5067 51.4987C30.4455 51.5292 30.3947 51.5768 30.3605 51.6358C30.2854 51.7752 30.2469 51.9314 30.2487 52.0896V54.9411C30.2459 55.0833 30.2848 55.2231 30.3605 55.3436C30.4007 55.3936 30.4547 55.4307 30.5158 55.4505C30.5769 55.4703 30.6425 55.4718 30.7045 55.4549H30.9882L31.1 55.2837C31.1341 55.2109 31.1545 55.1326 31.1602 55.0525V54.7699H32.0802V55.1124C32.0737 55.2889 32.0359 55.4629 31.9684 55.6262C31.9062 55.7953 31.8096 55.9498 31.6847 56.08L31.2805 56.3626L30.7646 56.4311V56.4311ZM34.1438 56.4311L33.6279 56.3198L33.1722 56.0372C33.0266 55.9119 32.9093 55.7572 32.8282 55.5834C32.7441 55.3861 32.7059 55.1724 32.7165 54.9583V51.9783C32.7102 51.7645 32.7482 51.5517 32.8282 51.3532C32.9071 51.178 33.0247 51.0229 33.1722 50.8993L33.6279 50.6168C33.9613 50.4969 34.3263 50.4969 34.6597 50.6168L35.1154 50.8993C35.261 51.0247 35.3782 51.1794 35.4593 51.3532C35.5434 51.5505 35.5816 51.7642 35.5711 51.9783V54.9411C35.5774 55.155 35.5393 55.3678 35.4593 55.5663C35.3805 55.7414 35.2629 55.8966 35.1154 56.0201L34.6597 56.3027L34.1438 56.4311V56.4311ZM34.1438 51.5244L33.7998 51.6358C33.7491 51.6883 33.7123 51.7526 33.6927 51.8229C33.6732 51.8932 33.6716 51.9672 33.6881 52.0382V55.0011C33.6758 55.0722 33.6794 55.1452 33.6987 55.2148C33.7181 55.2844 33.7526 55.3488 33.7998 55.4036L34.1438 55.5149L34.4877 55.4036C34.5385 55.351 34.5753 55.2867 34.5948 55.2164C34.6143 55.1462 34.6159 55.0721 34.5995 55.0011V51.9783C34.6118 51.9072 34.6081 51.8342 34.5888 51.7646C34.5695 51.695 34.535 51.6306 34.4877 51.5758L34.1438 51.5244ZM39.2426 56.3712H38.4343L37.4025 53.5197H37.2907V56.3113H36.3707V50.6596H37.2907L38.3225 53.5111H38.4343V50.6596H39.3543V56.2599L39.2426 56.3712V56.3712ZM43.877 56.3712H43.0172V53.5197H42.9054L42.3293 55.3436H41.8134L41.2373 53.5197H41.1256V56.3113H40.154V50.6596H41.074L41.994 53.3398H42.1058L43.0258 50.6596H43.9372V56.2599L43.877 56.3712V56.3712ZM47.2561 56.3712H44.797V50.6681H47.3163V51.4131H45.7085V52.8346H47.0842V53.5796H45.7085V55.0097H47.3163V55.806L47.2561 56.3712ZM49.1478 56.3712H48.0042V50.6681H49.2681L49.956 50.7795L50.4117 51.122C50.5394 51.2501 50.6364 51.4052 50.6955 51.5758C50.7456 51.7627 50.7659 51.9564 50.7556 52.1496V52.3808C50.7482 52.5165 50.7281 52.6512 50.6955 52.7832L50.5837 53.0658L50.4117 53.297L50.2397 53.4083C50.3935 53.5037 50.5137 53.6444 50.5837 53.8108C50.6811 54.0464 50.7195 54.3021 50.6955 54.5558V54.787C50.7204 55.2235 50.5757 55.6528 50.2913 55.9859C49.9747 56.257 49.5647 56.3951 49.1478 56.3712V56.3712ZM48.9242 55.4036H49.5519L49.7239 55.2323C49.7651 55.1438 49.7857 55.0472 49.784 54.9497V54.5472C49.7926 54.4332 49.7926 54.3187 49.784 54.2047L49.6723 53.9735L49.5003 53.8622H48.9242V55.4036ZM48.9242 52.886H49.208C49.3015 52.902 49.3975 52.8948 49.4875 52.8649C49.5775 52.835 49.6587 52.7834 49.7239 52.7147C49.8206 52.5399 49.8597 52.3392 49.8356 52.141C49.8512 51.9624 49.8122 51.7833 49.7239 51.6272C49.656 51.5624 49.5745 51.5134 49.4853 51.4838C49.396 51.4541 49.3013 51.4446 49.208 51.4559H48.9242V52.886ZM52.759 56.4311L52.2431 56.3198L51.7874 56.0372C51.6418 55.9119 51.5246 55.7572 51.4435 55.5834C51.3594 55.3861 51.3212 55.1724 51.3317 54.9583V52.0468C51.3255 51.833 51.3635 51.6202 51.4435 51.4217C51.5224 51.2465 51.6399 51.0914 51.7874 50.9678L52.2431 50.6853C52.5765 50.5654 52.9415 50.5654 53.2749 50.6853L53.7307 50.9678C53.8763 51.0932 53.9935 51.2479 54.0746 51.4217C54.1587 51.619 54.1969 51.8327 54.1864 52.0468V55.0097C54.1926 55.2235 54.1546 55.4363 54.0746 55.6348C53.9957 55.8099 53.8782 55.9651 53.7307 56.0886L53.2749 56.3712L52.759 56.4311ZM52.759 51.5244L52.4151 51.6358C52.3643 51.6883 52.3275 51.7526 52.308 51.8229C52.2885 51.8932 52.2869 51.9672 52.3033 52.0382V55.0011C52.291 55.0722 52.2947 55.1452 52.314 55.2148C52.3333 55.2844 52.3679 55.3488 52.4151 55.4036L52.759 55.5149L53.103 55.4036C53.1537 55.351 53.1905 55.2867 53.2101 55.2164C53.2296 55.1462 53.2312 55.0721 53.2148 55.0011V52.0382C53.2271 51.9671 53.2234 51.8941 53.2041 51.8245C53.1848 51.755 53.1502 51.6905 53.103 51.6358L52.759 51.5244ZM57.2817 56.3712H54.8226V50.6681H55.7426V55.3436H57.3505V56.14L57.2817 56.3712V56.3712ZM58.7177 53.0059H59.9214C59.9965 53.0065 60.0682 53.0365 60.1213 53.0894C60.1744 53.1422 60.2045 53.2137 60.2052 53.2885V53.631C60.2045 53.7057 60.1744 53.7772 60.1213 53.8301C60.0682 53.8829 59.9965 53.9129 59.9214 53.9136H58.7177C58.6426 53.9129 58.5708 53.8829 58.5178 53.8301C58.4647 53.7772 58.4346 53.7057 58.4339 53.631V53.2885C58.4327 53.251 58.4392 53.2138 58.4531 53.1789C58.4669 53.1441 58.4878 53.1125 58.5144 53.086C58.5409 53.0595 58.5727 53.0387 58.6077 53.025C58.6426 53.0112 58.6801 53.0047 58.7177 53.0059V53.0059ZM26.1818 53.0059H27.3855C27.4606 53.0065 27.5323 53.0365 27.5854 53.0894C27.6385 53.1422 27.6686 53.2137 27.6693 53.2885V53.631C27.6686 53.7057 27.6385 53.7772 27.5854 53.8301C27.5323 53.8829 27.4606 53.9129 27.3855 53.9136H26.1818C26.1067 53.9129 26.0349 53.8829 25.9819 53.8301C25.9288 53.7772 25.8987 53.7057 25.898 53.631V53.2885C25.8968 53.251 25.9033 53.2138 25.9172 53.1789C25.931 53.1441 25.9519 53.1125 25.9785 53.086C26.0051 53.0595 26.0368 53.0387 26.0718 53.025C26.1068 53.0112 26.1442 53.0047 26.1818 53.0059V53.0059ZM0 67.0409C0.0211605 66.7452 0.109563 66.4582 0.258526 66.2015C0.407488 65.9449 0.613108 65.7253 0.859828 65.5595C1.51896 66.052 2.32299 66.3139 3.14697 66.3045C4.0068 66.3045 4.41092 66.0219 4.41092 65.6194C4.41092 65.2169 4.23895 64.9943 2.80304 64.6518C1.36712 64.3092 0.283741 63.7954 0.223553 62.2027C0.163365 60.61 1.42732 59.7536 3.25875 59.7536C4.23927 59.7073 5.20736 59.9875 6.0102 60.55C5.99372 60.8468 5.90729 61.1356 5.75791 61.393C5.60853 61.6504 5.40041 61.8691 5.15037 62.0314C4.56314 61.6226 3.86347 61.4043 3.14697 61.4063C2.39892 61.4063 2.0034 61.6889 2.0034 62.0314C2.0034 62.374 2.17536 62.6052 3.61128 62.9477C5.04719 63.2902 6.07039 63.9153 6.13058 65.3454C6.19077 66.7497 4.987 67.9486 3.09538 67.9486C1.98686 68.0331 0.885664 67.7102 0 67.0409V67.0409ZM6.87003 64.6432V59.9078H8.70146V64.5833C8.67071 64.7756 8.67838 64.9721 8.724 65.1614C8.76962 65.3508 8.8523 65.5294 8.96732 65.6869C9.08233 65.8443 9.22741 65.9777 9.39425 66.0793C9.56109 66.1808 9.74642 66.2486 9.93961 66.2788C10.0619 66.2987 10.1863 66.3016 10.3093 66.2873C11.2809 66.2873 11.9172 65.6622 11.9172 64.5747V59.8992H13.6971V64.5747C13.6971 66.7412 12.2611 68 10.3179 68C8.37472 68 6.87003 66.8696 6.87003 64.6432V64.6432ZM21.8224 63.7869C21.8224 66.3558 20.0426 67.9486 17.2997 67.9486C16.437 67.9512 15.575 67.894 14.7203 67.7773V59.9592C15.5732 59.8249 16.4365 59.7676 17.2997 59.7879C20.2232 59.7365 21.8224 61.3892 21.8224 63.7869V63.7869ZM19.819 63.7869C19.819 62.3568 18.9592 61.4491 17.4115 61.4491H16.5517V66.1846H17.4115C18.899 66.2445 19.7589 65.2683 19.7589 63.7869H19.819ZM38.2108 59.9677V67.8373H36.4911V62.8706L36.2074 63.7869L34.8316 67.2121H33.3441L31.9082 63.7869L31.6245 63.0419V67.8886H29.9048V59.9592L30.8248 59.8478H31.7964L33.9202 64.6946L34.0922 65.097L34.204 64.6946L36.1558 59.8478H37.1274L38.2108 59.9677V59.9677ZM52.6989 67.7773V59.9078H54.5303V67.7773H52.6989ZM44.6853 66.1846H41.1858V61.5605H44.5649C44.7025 61.0181 44.7025 60.4502 44.5649 59.9078H39.3543V67.7773H44.6853C44.7519 67.5168 44.7894 67.2497 44.797 66.9809C44.7858 66.7125 44.7483 66.4458 44.6853 66.1846V66.1846Z" fill="white"/>
<path d="M44.1694 64.5833C44.2367 64.3228 44.2742 64.0557 44.2812 63.7869C44.2742 63.5181 44.2367 63.2509 44.1694 62.9905H41.7017V63.5043C41.7022 63.7926 41.8174 64.0689 42.0221 64.2728C42.2268 64.4766 42.5042 64.5914 42.7937 64.5918H44.1694V64.5833ZM55.3902 63.8468C55.3277 62.7897 55.6893 61.7511 56.3955 60.9594C57.1018 60.1678 58.0948 59.6878 59.1562 59.6252C59.2937 59.6166 59.4315 59.6166 59.569 59.6252C60.4516 59.5741 61.3235 59.8382 62.0281 60.3702C61.9786 60.664 61.8662 60.9438 61.6985 61.1905C61.5309 61.4372 61.3119 61.6452 61.0565 61.8002C60.6603 61.5027 60.1769 61.3432 59.6807 61.3464C58.3652 61.3464 57.4452 62.2626 57.4452 63.7954C57.4452 65.3283 58.305 66.2445 59.6206 66.2445C60.2114 66.2711 60.789 66.065 61.2284 65.6708C61.5006 65.8186 61.7318 66.0312 61.9014 66.2898C62.0709 66.5483 62.1735 66.8446 62.2 67.1522C61.4439 67.7167 60.5126 67.9985 59.569 67.9486C56.9379 68.0085 55.3902 66.2959 55.3902 63.8468V63.8468ZM67.3074 59.9078H65.476L62.501 67.7259C62.8161 67.8182 63.1447 67.8559 63.4726 67.8373H64.3324L64.9085 66.2959H67.316L67.0323 65.4995C66.9514 65.2939 66.809 65.1179 66.6245 64.9954C66.44 64.8729 66.2222 64.8098 66.0005 64.8145H65.4846L66.1724 62.9905L66.4046 62.2455L66.6367 62.9905L68.4166 67.8972H69.1045L70.3082 67.7259L67.3074 59.9078V59.9078ZM26.3538 59.9078H24.5224L21.5474 67.7259C21.8624 67.8182 22.1911 67.8559 22.519 67.8373H23.3788L23.9549 66.2959H26.3624L26.0787 65.4995C25.9978 65.2939 25.8554 65.1179 25.6709 64.9954C25.4864 64.8729 25.2686 64.8098 25.0469 64.8145H24.531L25.2188 62.9905L25.451 62.2455L25.6831 62.9905L27.463 67.8972H28.1508L29.3546 67.7259L26.3538 59.9078V59.9078ZM83.0079 59.9078H81.1678L78.1928 67.7259C78.5079 67.8182 78.8366 67.8559 79.1644 67.8373H80.0243L80.6004 66.2959H83.0079L82.7241 65.4995C82.6432 65.2939 82.5009 65.1179 82.3164 64.9954C82.1319 64.8729 81.914 64.8098 81.6923 64.8145H81.1764L81.8643 62.9905L82.0965 62.2455L82.3286 62.9905L84.1085 67.8972H84.7963L86.0001 67.7259L83.0079 59.9078ZM77.6769 59.9078V67.7259C77.0905 67.8359 76.4927 67.8733 75.8971 67.8373L72.8619 63.333L72.5782 62.8792V67.7859H70.7467V59.9677C71.327 59.815 71.9317 59.7772 72.5266 59.8564L75.5618 64.4206L75.8455 64.8744V59.9078H77.6769ZM50.2914 64.7031C50.742 64.4897 51.119 64.148 51.3745 63.7212C51.6301 63.2944 51.7529 62.8017 51.7273 62.3055C51.7273 60.7641 50.7557 59.7965 48.3482 59.7965C47.4642 59.8087 46.5834 59.9033 45.7171 60.079V67.8373H47.5486V61.3892H48.5202C49.4402 61.3892 49.8959 61.7917 49.8959 62.4767C49.8959 63.1618 49.4918 63.6156 48.5804 63.6156H47.6088L50.1281 67.8972H50.5838C51.1046 67.9005 51.624 67.843 52.1314 67.7259L50.2914 64.7031V64.7031Z" fill="white"/>
<path d="M46.0008 44.674C44.2632 42.151 43.217 39.22 42.9656 36.1708C42.7142 39.22 41.668 42.151 39.9304 44.674H46.0008Z" fill="white"/>
<path d="M42.9656 36.1708C43.1375 38.9624 43.5417 41.8738 45.3129 44.674H46.0008C44.2632 42.151 43.217 39.22 42.9656 36.1708V36.1708Z" fill="white"/>
<path d="M42.9656 36.1708C42.7936 38.9624 42.3895 41.8738 40.6183 44.674H39.9304C41.6656 42.1498 42.7116 39.2194 42.9656 36.1708V36.1708Z" fill="white"/>
<path d="M38.2107 19.7466C39.6982 22.7094 42.5614 28.3012 42.9054 33.499H42.9655C43.3095 28.3611 46.1727 22.6581 47.6602 19.7466C46.9723 20.0891 43.705 22.0843 42.9054 27.1623C42.2175 22.0843 38.8986 20.3118 38.2107 19.7466Z" fill="white"/>
<path d="M42.9656 33.4905C42.9656 27.2137 45.7686 22.6495 47.6602 19.738C46.1727 22.7095 43.3095 28.3012 42.9656 33.4905Z" fill="white"/>
<path d="M42.9657 33.4905C42.9657 27.2137 40.1626 22.6495 38.271 19.738C39.7585 22.7095 42.6217 28.3012 42.9657 33.4905Z" fill="white"/>
<path d="M42.9571 2.82903e-07C36.474 2.82903e-07 31.2205 5.24065 31.2205 11.7058C31.2205 15.1225 32.7681 18.1539 34.1439 20.7742C34.1955 20.8855 38.8385 29.2175 38.8385 34.578C38.8385 38.3972 37.6348 41.4799 34.5996 44.674H36.0269C38.7182 41.42 40.0939 38.5684 40.0939 34.578C40.0939 29.1575 36.0871 22.2043 35.2273 20.6029C33.8515 17.9826 32.3038 15.0112 32.3038 11.7058C32.2695 11.1869 32.2695 10.6663 32.3038 10.1473C32.5128 7.34083 33.8319 4.73173 35.9714 2.89327C38.1108 1.05481 40.8955 0.137372 43.7138 0.342526C45.1096 0.444369 46.4715 0.819139 47.7218 1.44542C48.9721 2.0717 50.0863 2.93722 51.0006 3.9925C51.9148 5.04779 52.6114 6.27216 53.0503 7.59565C53.4893 8.91915 53.6621 10.3158 53.5588 11.7058C53.5588 15.0112 52.0111 17.9227 50.6354 20.6029C49.8357 22.0244 45.8289 29.3887 45.8289 34.578C45.8289 38.3972 47.2047 41.6426 49.8873 44.6654H51.3232C48.2881 41.4114 47.0843 38.4486 47.0843 34.5694C47.0843 29.3202 51.6672 20.9369 51.779 20.7656C53.1547 17.9741 54.7024 15.1225 54.7024 11.6973V11.6887C54.7008 8.58767 53.4625 5.61423 51.26 3.42227C49.0574 1.23031 46.0709 -0.000681321 42.9571 2.82903e-07V2.82903e-07Z" fill="white"/>
<path d="M48.4082 44.674H49.8957L49.8871 44.6654L48.4082 44.674V44.674Z" fill="white"/>
<path d="M42.9657 3.56226C40.7993 3.56226 38.7217 4.41933 37.1898 5.94494C35.658 7.47055 34.7974 9.53972 34.7974 11.6973C34.7974 13.8548 35.658 15.924 37.1898 17.4496C38.7217 18.9752 40.7993 19.8322 42.9657 19.8322C45.1321 19.8322 47.2098 18.9752 48.7416 17.4496C50.2735 15.924 51.1341 13.8548 51.1341 11.6973C51.1341 9.53972 50.2735 7.47055 48.7416 5.94494C47.2098 4.41933 45.1321 3.56226 42.9657 3.56226ZM43.4214 6.16545L45.528 4.63265H45.7C46.9117 5.11352 47.9779 5.89817 48.7954 6.91045C48.8205 6.93052 48.8395 6.95721 48.8501 6.98749C48.8607 7.01777 48.8626 7.05042 48.8556 7.08171L48.0559 9.53077L47.9441 9.6421L46.2245 10.2158H46.0525L43.4214 8.33193V8.28055C43.3963 8.26049 43.3773 8.23379 43.3667 8.20351C43.3561 8.17323 43.3542 8.14059 43.3612 8.10929V6.33672C43.356 6.30543 43.3588 6.27333 43.3693 6.24339C43.3798 6.21346 43.3977 6.18665 43.4214 6.16545V6.16545ZM42.9657 9.13687L43.7224 10.5669L43.8342 10.6782L45.3818 10.9094L44.2383 11.997C44.2131 12.017 44.1942 12.0437 44.1835 12.074C44.1729 12.1043 44.171 12.1369 44.1781 12.1682L44.4618 13.7096L43.0861 12.9646H42.9141L41.4782 13.7096L41.8222 12.1682C41.8274 12.1369 41.8247 12.1048 41.8141 12.0749C41.8036 12.045 41.7857 12.0182 41.762 11.997L40.6184 10.9094L42.1661 10.6782L42.2779 10.5669L42.9657 9.13687V9.13687ZM37.1103 6.91045C37.9361 5.91923 39.0012 5.15314 40.2057 4.68403H40.3776L42.4412 6.16545C42.4664 6.18552 42.4853 6.21222 42.496 6.2425C42.5066 6.27277 42.5085 6.30542 42.5014 6.33672V8.22061C42.5067 8.2519 42.5039 8.284 42.4934 8.31394C42.4829 8.34387 42.4649 8.37068 42.4412 8.39187L39.8102 10.2758H39.6382L37.9615 9.70204L37.8498 9.59072L37.0501 7.08171C37.0449 7.05043 37.0476 7.01833 37.0581 6.98839C37.0687 6.95845 37.0866 6.93164 37.1103 6.91045V6.91045ZM36.603 15.799C35.8896 14.7082 35.4747 13.4507 35.3992 12.1511C35.394 12.1198 35.3967 12.0877 35.4073 12.0578C35.4178 12.0278 35.4357 12.001 35.4594 11.9798L37.523 10.4984H37.695L39.4146 11.0721L39.5264 11.1835L40.5582 14.2662V14.1977C40.575 14.2231 40.5839 14.2529 40.5839 14.2833C40.5839 14.3138 40.575 14.3435 40.5582 14.369L39.5264 15.799H36.603ZM45.829 16.4327L45.0293 18.9417L44.9175 19.053C43.6601 19.3784 42.3401 19.3784 41.0827 19.053L40.9709 18.9417L40.1111 16.4327C40.0943 16.4072 40.0854 16.3775 40.0854 16.347C40.0854 16.3166 40.0943 16.2868 40.1111 16.2614L41.2031 14.8314H44.7542L45.786 16.2614C45.8057 16.2849 45.8198 16.3125 45.8272 16.3421C45.8347 16.3718 45.8353 16.4028 45.829 16.4327V16.4327ZM49.3886 15.8675H46.4652L45.3732 14.3861C45.3565 14.3607 45.3475 14.3309 45.3475 14.3005C45.3475 14.27 45.3565 14.2402 45.3732 14.2148L46.405 11.1321L46.5168 11.0208L48.1763 10.447L48.4084 10.507L50.5322 12.0483C50.5573 12.0684 50.5763 12.0951 50.587 12.1254C50.5976 12.1557 50.5995 12.1883 50.5924 12.2196C50.5142 13.5187 50.0995 14.7755 49.3886 15.8675V15.8675Z" fill="white"/>
<path d="M42.9743 22.7866C43.6391 22.7866 44.178 22.2499 44.178 21.5878C44.178 20.9257 43.6391 20.3889 42.9743 20.3889C42.3094 20.3889 41.7705 20.9257 41.7705 21.5878C41.7705 22.2499 42.3094 22.7866 42.9743 22.7866Z" fill="white"/>
</svg>
