<svg width="23" height="27" viewBox="0 0 23 27" fill="none" xmlns="http://www.w3.org/2000/svg">
<path fill-rule="evenodd" clip-rule="evenodd" d="M21.9597 0H4.27544C3.99955 0 3.73496 0.11043 3.53987 0.306993C3.34479 0.503557 3.23519 0.770153 3.23519 1.04814V3.24922H1.04025C0.764361 3.24922 0.49977 3.35965 0.304684 3.55622C0.109599 3.75278 0 4.01938 0 4.29736V25.9519C0 26.2298 0.109599 26.4964 0.304684 26.693C0.49977 26.8896 0.764361 27 1.04025 27H18.7246C19.0005 27 19.265 26.8896 19.4601 26.693C19.6552 26.4964 19.7648 26.2298 19.7648 25.9519V23.7613H21.9389C22.2148 23.7613 22.4794 23.6508 22.6745 23.4543C22.8696 23.2577 22.9792 22.9911 22.9792 22.7131V1.04814C22.9793 0.773748 22.8725 0.510278 22.6819 0.314306C22.4913 0.118334 22.232 0.00548777 21.9597 0ZM18.7454 25.9519H1.06106V4.29736H3.23519V22.7131C3.23519 22.9911 3.34479 23.2577 3.53987 23.4543C3.73496 23.6508 3.99955 23.7613 4.27544 23.7613H18.7454V25.9519ZM21.9597 22.7131H4.27544V1.04814H21.9597V22.7131ZM10.4753 5.39795H6.90723V8.65765H10.4753V5.39795ZM6.90723 11.0579H10.4753V14.3176H6.90723V11.0579ZM10.4753 16.7178H6.90723V19.9775H10.4753V16.7178ZM12.6287 16.7178H19.3071V19.9775H12.6287V16.7178ZM19.3071 11.0579H12.6287V14.3176H19.3071V11.0579ZM12.6287 5.39795H19.3071V8.65765H12.6287V5.39795Z" fill="white"/>
</svg>
