<svg width="83" height="35" viewBox="0 0 83 35" fill="none" xmlns="http://www.w3.org/2000/svg">
<path fill-rule="evenodd" clip-rule="evenodd" d="M9.08398 7.92708H13.3078C13.2828 7.61406 13.2654 7.30255 13.2481 6.99283V6.99282C13.2103 6.31516 13.173 5.64611 13.0569 4.98875C12.6521 2.68737 11.4472 1.00573 9.12959 0.309584C7.93228 -0.0504262 6.69982 -0.0771648 5.47685 0.130056C3.09079 0.533992 1.37655 1.82697 0.683824 4.19329C-0.347191 7.71604 0.451015 10.8473 2.95776 13.5211C3.46699 14.0641 3.99491 14.5894 4.5228 15.1146L4.52282 15.1147L4.52288 15.1147C5.09233 15.6813 5.66173 16.2479 6.20759 16.8366C6.90112 17.5737 7.53653 18.3639 8.10808 19.2001C8.84547 20.2963 9.02697 21.5511 8.80176 22.8536C8.60506 23.9957 7.93418 24.5926 6.85471 24.6117C5.68306 24.6317 4.97322 24.1113 4.78318 22.9329C4.69314 22.3705 4.6834 21.7942 4.67366 21.2182C4.66962 20.9796 4.66559 20.741 4.65584 20.5035C4.65143 20.3724 4.65287 20.2409 4.65434 20.1067V20.1067V20.1066V20.1066C4.65509 20.0385 4.65584 19.9698 4.65584 19.9H0.117478C0.129808 20.2285 0.137189 20.555 0.144531 20.8796C0.160387 21.5808 0.176059 22.2739 0.24101 22.9625C0.482372 25.5972 2.10539 27.5977 4.53896 28.3101C5.63925 28.6255 6.79223 28.7107 7.92658 28.5603C10.363 28.2605 12.0801 27.0191 12.8403 24.6317C13.0757 23.8558 13.2176 23.0543 13.2632 22.2444C13.419 19.9077 12.8165 17.7705 11.3722 15.897C10.4271 14.6718 9.29825 13.6313 8.16868 12.5901L8.1686 12.5901L8.16851 12.59C8.02948 12.4618 7.89045 12.3337 7.75174 12.2052C6.90697 11.4202 6.07171 10.62 5.48161 9.60586C4.71381 8.29091 4.42684 6.89385 4.86585 5.40415C5.14142 4.48169 5.83605 4.02618 6.86136 4.02045C7.90663 4.01568 8.63071 4.47213 8.88443 5.40797C8.99458 5.81557 9.02465 6.24568 9.0546 6.67411C9.06367 6.80376 9.07272 6.93325 9.08398 7.06191C9.09725 7.2512 9.09287 7.44218 9.08844 7.63485V7.63487L9.08844 7.63496C9.08622 7.73191 9.08398 7.82928 9.08398 7.92708ZM30.9153 28.3063H35.2864L35.2855 17.0095C35.5324 17.0095 35.7772 17.0029 36.02 16.9963C36.5602 16.9817 37.091 16.9674 37.6155 17.0267C38.6085 17.1384 39.2537 17.7543 39.4637 18.7389C39.5931 19.3459 39.6641 19.964 39.6756 20.5847C39.6873 21.2693 39.6847 21.9545 39.6821 22.6396C39.6788 23.518 39.6755 24.3963 39.7022 25.2735C39.7202 25.8699 39.7982 26.4642 39.8763 27.0586L39.8763 27.0589C39.914 27.3457 39.9516 27.6325 39.9825 27.9196C40.0177 28.2519 40.1859 28.3417 40.5109 28.3321C41.115 28.3151 41.7196 28.3184 42.324 28.3218H42.3241H42.3242H42.3243H42.3244C42.5688 28.3231 42.8132 28.3245 43.0575 28.3245H44.4829C44.4481 28.1473 44.4075 27.9743 44.3675 27.8038C44.2785 27.4247 44.1925 27.0585 44.1807 26.6896C44.1475 25.6044 44.1348 24.5182 44.1222 23.4318V23.4317V23.4312C44.1129 22.625 44.1035 21.8187 44.0857 21.0126C44.0804 20.2635 44.0313 19.5155 43.9384 18.7723C43.6894 17.0009 42.9654 15.5198 41.2654 14.6928C41.2574 14.6891 41.255 14.6751 41.2519 14.6576C41.2503 14.648 41.2484 14.6374 41.2454 14.6269C42.7192 13.8888 43.5669 12.6473 43.8253 11.0669C44.1902 8.83811 44.2263 6.5816 43.7664 4.36043C43.3977 2.57853 42.3306 1.30274 40.5584 0.777524C39.7216 0.529192 38.8563 0.390849 37.9842 0.365948C36.336 0.324279 34.6862 0.331097 33.0364 0.337916C32.4178 0.340473 31.7991 0.343031 31.1804 0.343031C31.124 0.343031 31.0679 0.349688 31.009 0.356685C30.9787 0.360289 30.9476 0.363983 30.9153 0.366904V28.3063ZM35.3092 12.9262V4.40245C35.5915 4.40245 35.8734 4.39392 36.1543 4.38543C36.7898 4.36621 37.4202 4.34715 38.0383 4.42728C39.0104 4.55333 39.5027 5.32969 39.5473 6.23592C39.6243 7.80297 39.6595 9.38529 39.5378 10.9466C39.44 12.2157 38.6864 12.8211 37.4207 12.9166C36.9454 12.9527 36.4673 12.9437 35.9805 12.9346L35.9804 12.9346C35.7587 12.9304 35.5352 12.9262 35.3092 12.9262ZM54.6038 28.309V0.360021C54.6331 0.357783 54.6607 0.355115 54.6871 0.352558C54.7396 0.347479 54.7876 0.342833 54.8357 0.342833C55.4318 0.342833 56.028 0.341298 56.6241 0.339763C58.2828 0.335491 59.9414 0.33122 61.5995 0.360021C62.3577 0.377834 63.112 0.476102 63.8497 0.653186C65.8452 1.12015 67.0662 2.41886 67.4986 4.40703C67.9067 6.27523 67.9067 8.21017 67.4986 10.0784C67.1945 11.4783 66.441 12.5937 65.1487 13.2889C65.094 13.3214 65.041 13.3568 64.99 13.3949C65.1013 13.4612 65.2114 13.5241 65.3197 13.5861L65.3198 13.5861L65.32 13.5862L65.3202 13.5863C65.5813 13.7357 65.8323 13.8792 66.0666 14.0499C67.1252 14.8206 67.7295 15.9044 67.9538 17.164C68.3415 19.3422 68.3776 21.5471 67.9699 23.7186C67.4948 26.2597 65.7454 27.8248 63.1817 28.1839C62.6305 28.2648 62.0747 28.3092 61.5178 28.3166C59.8877 28.3279 58.2577 28.3262 56.6272 28.3245C56.0402 28.3239 55.4532 28.3233 54.8661 28.3233C54.8214 28.3233 54.7766 28.3202 54.7232 28.3165C54.688 28.314 54.649 28.3113 54.6038 28.309ZM59.0101 15.6876V24.282C59.0523 24.2949 59.0955 24.3042 59.1393 24.3097C59.3853 24.3097 59.6313 24.3108 59.8773 24.3119H59.8773H59.8774H59.8775H59.8775H59.8776C60.4924 24.3146 61.107 24.3174 61.7211 24.3031C62.8814 24.2754 63.6292 23.6814 63.6938 22.5173C63.7794 20.9615 63.7736 19.4019 63.6767 17.8468C63.6055 16.6951 62.9878 15.9999 62.0052 15.8624C61.3221 15.7668 60.6325 15.745 59.9339 15.723C59.6277 15.7134 59.3199 15.7036 59.0101 15.6876ZM59.0101 4.3526V11.7237H60.692C60.8943 11.7276 61.0965 11.7171 61.2973 11.6922C62.4737 11.5136 63.1455 10.954 63.2529 9.7642C63.3567 8.54059 63.3497 7.31005 63.232 6.08771C63.137 5.04301 62.4718 4.45095 61.4579 4.36883C60.9011 4.32037 60.3392 4.33144 59.7678 4.34269L59.7678 4.34269C59.5172 4.34763 59.2647 4.3526 59.0101 4.3526ZM0 30.1731C0.148552 30.1492 0.298271 30.1332 0.448515 30.1254H82.4432H82.8736V34.0091H0.455167C0.345582 34.0091 0.236491 34.0026 0.127182 33.9962L0.126553 33.9961L0.125925 33.9961L0.125298 33.9961L0.124672 33.996L0.124047 33.996C0.082743 33.9936 0.0414067 33.9911 0 33.989V30.1731ZM20.2089 28.3052H15.8283V0.369633C15.8766 0.357265 15.9259 0.34896 15.9756 0.344803C16.5318 0.344803 17.0881 0.343813 17.6444 0.342823C19.406 0.339688 21.1678 0.336552 22.9285 0.364856C24.1724 0.38491 25.3611 0.688578 26.4102 1.40573C27.7548 2.32629 28.3934 3.67752 28.6556 5.23215C28.7613 5.84494 28.8151 6.46565 28.8162 7.08758C28.8162 7.3293 28.8166 7.57108 28.817 7.81291V7.81302V7.81313V7.81324V7.8133C28.8196 9.34927 28.8222 10.8867 28.7212 12.4171C28.6176 13.9755 28.0494 15.385 26.8207 16.4392C25.8809 17.2442 24.7596 17.6291 23.5547 17.7322C22.8939 17.789 22.2274 17.7967 21.5629 17.8044C21.2776 17.8077 20.9927 17.811 20.7087 17.8182H20.2108L20.2089 28.3052ZM20.9476 13.8074H20.9476C21.4824 13.8148 22.0118 13.822 22.5389 13.7931C23.5984 13.7349 24.2703 13.2259 24.3159 12.1745C24.4052 10.0861 24.3738 7.99095 24.3159 5.9006C24.3159 5.53501 24.1809 5.18243 23.9371 4.91111C23.6932 4.63979 23.3579 4.46904 22.996 4.43192C22.3739 4.34869 21.7424 4.33472 21.1027 4.32057C20.8103 4.3141 20.5161 4.30759 20.2203 4.2944L20.2175 13.8008C20.4621 13.8008 20.7054 13.8041 20.9475 13.8074H20.9476H20.9476ZM75.2649 24.3062H82.8099V28.2949H70.8662V0.368856H82.8146V4.31368H75.2725V12.1021H81.2458V16.1195H75.2649V24.3062ZM47.0143 28.3004H51.3588V0.36289H47.0143V28.3004Z" fill="white"/>
</svg>
