<?xml version="1.0" encoding="UTF-8"?>
<svg width="30px" height="30px" viewBox="0 0 30 30" version="1.1" xmlns="http://www.w3.org/2000/svg" xmlns:xlink="http://www.w3.org/1999/xlink">
    <title>icon_malandrinha</title>
    <g id="Slicing" stroke="none" stroke-width="1" fill="none" fill-rule="evenodd">
        <g id="icon" transform="translate(3.000000, 2.000000)">
            <path d="M24.8059805,12.4987175 C24.8059805,19.3487697 19.2529371,24.9017173 12.4030764,24.9017173 C5.55302422,24.9017173 -1.91454546e-05,19.3487697 -1.91454546e-05,12.4987175 C-1.91454546e-05,5.64866534 5.55302422,0.0957177 12.4030764,0.0957177 C19.2529371,0.0957177 24.8059805,5.64866534 24.8059805,12.4987175" id="Fill-1" fill="#DA0000"></path>
            <path d="M11.4060386,22.9045474 C10.6913387,22.9139501 9.64896447,22.5195537 8.84753575,21.6932359 C8.44260938,21.2755778 7.98589456,20.7911021 7.60221965,20.3027973 C7.58345711,20.3033716 7.56469456,20.3036588 7.54602775,20.3036588 C6.72822965,20.3036588 6.02741029,19.7420269 5.82676593,18.9760173 C4.42780756,18.6741892 4.33791965,17.694612 4.26545411,16.9033304 C4.25837029,16.8266528 4.25128647,16.7486351 4.24305393,16.6709045 C3.7248822,16.4135896 3.29257784,16.0799801 2.95609647,15.6771597 C1.89074765,14.401881 2.0937852,12.8246785 2.23048375,12.2057059 C2.37378747,11.5575365 2.63789902,11.0225168 3.08714711,10.4713192 C3.50097611,9.96358173 4.09352793,9.41851064 5.00025665,8.71280918 C5.13551929,8.262891 5.45237656,7.24272545 5.70902138,6.67649864 C5.77603047,6.45134809 5.83480702,6.25568155 5.88764847,6.08011773 C6.04033347,5.57209309 6.14132575,5.236569 6.24212656,4.83518455 C6.37202847,4.31777864 6.82797747,3.058965 8.25048475,2.54768564 C9.06273065,2.25581318 9.56146975,2.23408309 10.1390881,2.20909827 C10.1522027,2.20842818 10.1656046,2.208141 10.1793893,2.208141 C10.3252777,2.208141 10.4777712,2.240784 10.6391674,2.27534155 C10.7919481,2.30808027 10.9498024,2.341872 11.0806616,2.341872 C11.1013387,2.341872 11.1209627,2.34101045 11.1388637,2.33928736 C11.2786256,2.32550264 11.3913923,2.28223391 11.5219643,2.23226427 C11.6923588,2.16688255 11.8855365,2.09288536 12.133853,2.09288536 C12.7921695,2.09288536 13.3554287,2.25581318 14.0075229,2.44439591 L14.1031545,2.47196536 C14.9761872,2.72391955 15.937289,3.12693136 16.4468453,4.20740509 C16.8771394,5.11997318 17.3116455,6.25970209 17.6528175,7.36736236 C18.2997424,7.51076182 19.6025906,7.88639564 20.2022262,8.22096245 C21.1624665,8.756748 21.626648,9.45268527 21.5816562,10.2892459 C21.5389618,11.0834951 21.2129147,11.7866119 20.610503,12.3867262 C21.0549647,12.7140177 21.3334354,13.2394647 21.3334354,13.8184233 C21.3334354,14.042808 21.290741,14.2640337 21.2093728,14.470326 C22.0896808,14.8605104 22.6869233,15.7449346 22.6869233,16.7390624 C22.6869233,17.476641 22.3608762,18.1679834 21.8033606,18.6368555 C21.884633,19.1755129 21.7241941,19.5329585 21.5610748,19.7468133 C21.353921,20.0183915 20.9252543,20.3420455 20.0600712,20.3420455 L20.0599755,20.3420455 C19.618577,20.3420455 19.1101695,20.2580926 18.5491119,20.0924845 C18.0179213,19.9356832 17.5330627,19.8562295 17.1078421,19.8562295 C16.4712557,19.8562295 16.1114169,20.0319848 15.9215897,20.1794048 C15.800399,20.2736005 15.6600628,20.3856014 15.5116856,20.5043989 C15.2266097,20.7322298 14.9036259,20.9904063 14.6180715,21.1988045 C14.3663087,21.3824095 14.1039203,21.5897547 13.8501473,21.7901119 C13.0318706,22.4366539 12.022235,22.8961448 11.4060386,22.9045474" id="Fill-4" fill="#FFFFFF"></path>
            <path d="M8.01061135,16.9244191 C8.01061135,16.9244191 12.828565,16.872152 13.8958283,18.1072253 C14.9075699,19.278257 15.098833,19.5301154 15.098833,19.5301154 C15.098833,19.5301154 17.2303922,17.6841107 17.2628437,16.7949958 C17.2862012,16.1569735 16.7948331,15.5788765 17.0776114,15.1459021 C17.3603898,14.7128319 18.0972026,14.0619822 17.7233876,13.3854775 C17.7233876,13.3854775 13.5714086,16.1357221 8.01061135,16.9244191" id="Fill-6" fill="#E8E8E8"></path>
            <path d="M6.09120295,9.9396882 C6.09120295,9.9396882 5.92655204,10.5603838 5.92750515,11.422025 C5.92789222,11.7580277 6.07177031,12.3271264 6.24398367,12.7423913 C6.41610131,13.1577519 6.77948204,13.8845134 8.38626431,14.022935 C9.99295085,14.1614524 11.3385891,13.3686391 14.0381939,12.7499537 C17.0438389,12.061196 16.8697109,10.1837927 16.8697109,10.1837927 L16.5130311,8.73534338 C16.5130311,8.73534338 16.5182961,10.362707 15.638371,10.5703395 C14.7585417,10.7780677 13.2829058,10.8562768 12.0969406,11.1851 C10.9110711,11.5138275 9.83911713,12.1283966 8.2047654,11.8188146 C5.88136876,11.3784691 6.29529349,10.5645958 6.09120295,9.9396882" id="Fill-8" fill="#DA0000"></path>
            <path d="M10.8746756,5.43742396 C10.8746756,5.43742396 9.4312998,8.96162351 9.97952989,10.1879856 C10.5278557,11.4143477 12.111472,10.0511913 14.167981,10.2844787 C15.0871543,10.38863 15.6910019,9.11315978 14.6858655,8.28645905 C13.6806334,7.45975833 13.0876987,6.67431605 12.5921186,5.80626115 C12.0966343,4.93820624 11.4529641,4.51423015 10.8746756,5.43742396" id="Fill-10" fill="#E8E8E8"></path>
            <path d="M6.70128243,9.49741863 C6.81309188,9.85390699 7.20212752,10.797395 7.75590979,10.1891439 C8.30950061,9.58089281 8.95431952,5.57011154 8.62587925,5.34725845 C8.20400915,5.06093817 7.95186352,7.73862145 7.39817697,8.19179435 C6.84458615,8.64496726 6.58947297,9.14093026 6.70128243,9.49741863" id="Fill-12" fill="#E8E8E8"></path>
            <path d="M8.9588187,19.0437826 C8.9588187,19.0437826 9.09551725,18.9544691 9.19000006,18.8388305 C9.28457861,18.7232877 9.40615225,18.5400657 9.66882788,18.5453307 C9.93150352,18.5506914 9.98319625,18.7532503 10.2282581,18.6219125 C10.4675762,18.4937337 10.6912909,18.4180134 10.9922574,18.5499256 C11.4527056,18.7517187 11.9590072,19.2013497 12.3373213,19.0490476 C12.3373213,19.0490476 12.0325257,19.5849289 11.3127523,19.8897245 C10.5928832,20.1945202 9.81529061,20.315328 8.9588187,19.0437826" id="Fill-14" fill="#DA0000"></path>
            <path d="M13.3766706,20.5846758 C12.4266732,21.2776455 11.5498114,21.6234124 11.1370354,21.6514605 C10.8263046,21.6718504 10.3660479,21.393667 9.87439263,20.8866953 C9.36904835,20.3655561 8.84005945,19.62568 8.34486226,18.7471908 C7.97143017,18.0849495 7.70167072,17.439652 7.51366235,16.9112374 C8.50606699,16.9064511 10.2370075,16.8109153 12.2532154,16.3214617 C12.7703341,16.6227154 13.4205137,16.9978706 13.8643054,17.1971748 C14.6873684,17.5668735 15.3765091,17.7977677 15.8599318,17.9363808 C15.0312208,19.2226682 14.0748096,20.0755024 13.3766706,20.5846758 M4.01100145,14.7822629 C3.28050663,13.8077593 3.66466017,12.6394079 3.71099217,12.5094103 C4.3028739,10.8450002 5.98039863,9.99446335 5.99695945,9.9862308 L6.09125081,9.93970735 L6.12427672,9.84742625 C6.12896735,9.83469453 6.5826189,8.57530653 6.80757799,8.09446844 C7.10777872,7.4527128 7.42683772,6.29919916 7.64145826,5.44445035 C7.6482549,5.4172638 7.65543445,5.38710971 7.6629969,5.35437098 C7.75154463,4.97806707 7.89973045,4.34827735 8.5854249,4.10177962 C8.72355935,4.05219289 8.84752617,4.00490362 8.96230317,3.96106053 C9.3604329,3.80904562 9.62387435,3.70843625 10.0057304,3.69130107 C10.0444043,3.69723616 10.1437692,3.75888453 10.2096295,3.7998558 C10.3813643,3.90659171 10.5948361,4.03946116 10.8667973,4.03946116 C10.8930265,4.03946116 10.9191601,4.03821671 10.9456765,4.03563207 C11.1511073,4.01552935 11.3724287,3.94718007 11.5863792,3.88122398 C11.7812799,3.82101153 11.9827858,3.7587888 12.1007218,3.7587888 C12.3981464,3.7587888 12.5427904,3.81009862 12.7615272,3.88754198 C12.9100002,3.94019198 13.0949453,4.00566944 13.3587696,4.06358444 C14.2504692,4.25915525 14.8118139,4.62990698 15.1258951,5.23049989 L15.1310644,5.24045553 L15.1371909,5.24993253 C15.8056544,6.27880925 16.4622478,8.55759698 16.4687573,8.58057153 L16.513079,8.73536253 L16.6876855,8.76063453 C17.4325394,8.86851916 19.6726534,9.35988725 19.8606617,9.92104053 C20.0465641,10.4753014 18.575906,14.0262089 9.57773381,15.7134021 C6.47377699,16.2954239 4.55367935,15.5059611 4.01100145,14.7822629 M22.29089,16.7390241 C22.29089,15.7303458 21.5742756,14.8891903 20.6223636,14.696587 C20.8191789,14.4578432 20.9374021,14.1519945 20.9374021,13.818385 C20.9374021,13.1732789 20.4950464,12.6315583 19.8971338,12.4797348 C20.7132088,11.8672717 21.1405354,11.1169613 21.1861973,10.2680519 C21.231572,9.4239288 20.6126952,8.90345962 20.0093262,8.5667868 C19.3819296,8.21680789 17.819852,7.78498216 17.3426515,7.7096448 C17.0147856,6.60724953 16.5659204,5.38844989 16.0886243,4.37632544 C15.6367915,3.41828689 14.7534203,3.07175416 13.9933457,2.85253871 C13.3208616,2.6584038 12.7664093,2.48896653 12.1338434,2.48896653 C11.7950646,2.48896653 11.5765193,2.6942058 11.177528,2.73345398 C10.8259217,2.7679158 10.4045303,2.59388362 10.1563094,2.6047008 C9.58855099,2.62939844 9.14006872,2.6489268 8.38449335,2.92040935 C7.14137899,3.36716853 6.74076035,4.47578607 6.62617481,4.93163935 C6.5236509,5.33972471 6.42160563,5.67965225 6.26681463,6.19418635 C6.21205863,6.37625962 6.1508889,6.57996725 6.08081654,6.81593498 C5.80320745,7.41681507 5.4369549,8.63197707 5.34342935,8.94787707 C3.53140781,10.3462611 2.86610326,11.1647293 2.61730808,12.2911521 C2.49314981,12.8529754 2.30734317,14.2828537 3.26002099,15.4232527 C3.60282035,15.8335398 4.05388726,16.1611185 4.6092969,16.4050316 C4.74963308,17.3791523 4.56899572,18.3514543 6.01763654,18.6100136 C6.06846772,18.6191077 6.11882026,18.6230325 6.16850272,18.6226496 C6.21799372,19.3405084 6.81552335,19.9076925 7.54601817,19.9076925 C7.62681199,19.9076925 7.70588272,19.9006087 7.78265599,19.8873026 C8.14957863,20.3793408 8.62266281,20.8923433 9.13183617,21.4175031 C9.84031372,22.1480936 10.4890574,22.3869332 11.1102317,22.5017102 C12.0162904,22.6692329 13.3735116,21.6164243 14.3846788,20.87875 C14.8091335,20.569168 15.3197428,20.1453833 15.6787201,19.8666255 C16.1927755,19.4673471 17.1579936,19.2690959 18.661199,19.7126961 C20.6464869,20.2986427 21.7123144,19.7433288 21.3639628,18.4724535 C21.9227229,18.0986385 22.29089,17.4618607 22.29089,16.7390241" id="Fill-16" fill="#000000"></path>
            <path d="M8.2732104,16.4318544 C8.2732104,16.4318544 8.30642776,17.6024075 8.52344149,18.1154099 C8.70675922,18.5485759 10.1704292,17.7990313 10.7686289,17.841247 C10.7686289,17.841247 10.5975643,16.9321251 9.85347622,17.4226317 C8.41038758,18.3739693 9.53489585,16.2257536 8.82804567,16.3674299 C8.60863876,16.4114645 8.2732104,16.4318544 8.2732104,16.4318544" id="Fill-18" fill="#000000"></path>
        </g>
    </g>
</svg>