<svg width="121" height="39" viewBox="0 0 121 39" fill="none" xmlns="http://www.w3.org/2000/svg">
<path d="M44.4919 9.55092C45.9997 9.55092 47.5067 9.544 49.0145 9.55696C49.0063 13.9546 49.0063 18.3522 49.0145 22.7499C50.83 22.7499 52.6446 22.7499 54.4592 22.7499V26.6725C51.1376 26.6725 47.8161 26.6682 44.4998 26.6725C44.4885 20.9647 44.4998 15.257 44.4946 9.54919L44.4919 9.55092Z" fill="white"/>
<path d="M72.4426 9.54836C73.9487 9.55441 75.453 9.54836 76.9573 9.54836C76.9573 13.9489 76.9573 18.3482 76.9573 22.7465C78.7736 22.7516 80.59 22.7387 82.4072 22.7534C82.3994 24.0592 82.4072 25.3633 82.4072 26.6682C79.0857 26.6682 75.7642 26.6682 72.4426 26.6682C72.4473 20.9607 72.4473 15.2535 72.4426 9.54663V9.54836Z" fill="white"/>
<path d="M60.6083 12.7948C61.7009 12.5866 62.8687 12.6169 63.9106 13.034C64.6352 13.3224 65.2471 13.8164 65.8379 14.3113C65.8467 13.8501 65.8379 13.3898 65.8484 12.9295C67.233 12.9373 68.6193 12.9295 70.0047 12.9295C70.0047 17.5068 70.0135 22.0763 69.9986 26.6501C68.5878 26.6941 67.1727 26.657 65.7601 26.6674C65.7601 26.2416 65.7601 25.8149 65.7601 25.39C64.6492 26.3919 63.1737 27.0154 61.6589 26.9964C59.895 27.0275 58.0848 26.3625 56.91 25.0351C55.6863 23.6731 55.1776 21.8103 55.1671 20.0174C55.1303 18.4356 55.5935 16.8818 56.4922 15.5722C57.4414 14.1783 58.9291 13.1238 60.6091 12.7982M61.9281 16.6215C61.44 16.7236 60.9841 16.9406 60.5991 17.2541C60.2141 17.5676 59.9114 17.9683 59.7167 18.4222C59.0882 19.9146 59.5227 21.8975 60.9404 22.7965C62.2463 23.6118 64.1125 23.2836 65.1229 22.1505C66.3606 20.8188 66.2155 18.493 64.8336 17.3142C64.0566 16.625 62.9333 16.3901 61.9273 16.6181L61.9281 16.6215Z" fill="white"/>
<path d="M92.6935 13.8863C93.9565 12.85 95.6837 12.4907 97.2851 12.7455C98.4843 12.9044 99.5297 13.5918 100.356 14.4356C100.364 13.9347 100.356 13.4338 100.356 12.9329C101.697 12.9329 103.039 12.9277 104.382 12.9329C104.378 17.0248 104.378 21.1167 104.382 25.2086C104.362 26.7502 103.827 28.3177 102.729 29.4404C101.458 30.7592 99.6058 31.3853 97.7964 31.4708C95.9364 31.5572 93.9784 31.1668 92.4715 30.0363C91.9264 29.6361 91.4682 29.1317 91.1242 28.5531C90.7802 27.9745 90.5574 27.3335 90.4689 26.6682C92.0301 26.6768 93.5938 26.6552 95.1549 26.6777C95.4338 26.9946 95.6733 27.3686 96.0692 27.5603C96.6356 27.8367 97.2929 27.8125 97.9101 27.7598C98.6967 27.6734 99.5446 27.328 99.9388 26.6042C100.281 26.0083 100.133 25.3027 100.172 24.6516C99.0201 25.6016 97.556 26.2692 96.0334 26.2113C95.2999 26.2016 94.5755 26.0489 93.9019 25.762C93.2283 25.4751 92.6186 25.0596 92.1079 24.5393C90.7329 23.1575 90.1385 21.1668 90.2041 19.2616C90.26 17.2459 91.0738 15.1732 92.6909 13.8846M96.6365 16.2933C95.5876 16.4548 94.7563 17.3089 94.474 18.2995C94.1244 19.4922 94.2642 20.9241 95.1479 21.8629C96.2309 23.0487 98.299 22.9467 99.4039 21.843C100.646 20.665 100.684 18.5439 99.618 17.2442C98.9091 16.3909 97.7011 16.1292 96.6365 16.2942V16.2933Z" fill="white"/>
<path d="M109.238 13.7965C109.945 13.308 110.746 12.9678 111.591 12.7967C112.436 12.6255 113.308 12.6272 114.152 12.8016C115.175 13.0183 116.047 13.6307 116.817 14.3043C116.81 13.8483 116.811 13.3906 116.811 12.9337C118.209 12.9337 119.608 12.9233 121 12.9398V26.6664C119.586 26.675 118.17 26.6707 116.756 26.6664C116.756 26.2392 116.756 25.8123 116.756 25.3856C116.286 25.7803 115.789 26.1534 115.226 26.4116C113.752 27.1388 111.996 27.15 110.445 26.6707C109.033 26.2177 107.849 25.2517 107.132 23.9684C106.289 22.4829 106.055 20.7289 106.197 19.0508C106.407 16.9842 107.508 14.9918 109.24 13.7965M112.859 16.6327C111.716 16.8736 110.786 17.8228 110.532 18.9438C110.209 20.3143 110.654 21.938 111.869 22.7533C113.249 23.6635 115.294 23.2576 116.277 21.9561C117.315 20.6261 117.151 18.5292 115.908 17.3788C115.108 16.6361 113.916 16.3701 112.859 16.6327V16.6327Z" fill="white"/>
<path d="M85.6939 7.02218C86.9316 6.66809 88.3703 7.38664 88.7724 8.60695C88.936 9.08497 88.9533 9.60001 88.8223 10.0877C88.6912 10.5754 88.4176 11.0141 88.0356 11.349C87.6601 11.6744 87.1975 11.8859 86.7033 11.9579C86.2091 12.0299 85.7045 11.9594 85.2499 11.7549C84.2543 11.305 83.6765 10.1632 83.8513 9.10527C83.9185 8.61802 84.1289 8.16095 84.4564 7.79068C84.7839 7.42041 85.2142 7.15321 85.6939 7.02218V7.02218ZM84.235 12.9346C85.6336 12.926 87.0321 12.9346 88.4254 12.9303C88.4254 17.5105 88.4254 22.0906 88.4254 26.6708C87.0269 26.6708 85.6283 26.6751 84.235 26.6708C84.2403 22.0929 84.2403 17.5145 84.235 12.9355V12.9346Z" fill="white"/>
<path d="M16.8463 0.00431713H17.3165C17.771 2.27568 18.174 4.55741 18.6171 6.82704C18.7013 7.19716 18.747 7.5748 18.7535 7.95409C16.1872 8.36518 13.8289 9.92145 12.5248 12.1531C12.5083 12.2051 12.479 12.2523 12.4396 12.2904C12.4002 12.3285 12.3518 12.3564 12.2988 12.3715C12.2459 12.3867 12.1899 12.3886 12.136 12.3772C12.0821 12.3657 12.0318 12.3413 11.9898 12.306C9.85354 11.0925 7.73038 9.85668 5.59498 8.64068C5.46649 8.53877 5.21301 8.45241 5.30829 8.24513C5.42192 7.91954 5.64131 7.64059 5.82487 7.35559C7.14857 5.34609 8.89354 3.64085 10.9418 2.35514C12.7372 1.20737 14.765 0.455136 16.8463 0V0.00431713Z" fill="white"/>
<path d="M20.2177 1.93109C24.4649 1.54459 28.7049 2.7407 32.1053 5.28459C32.4278 5.54368 32.7879 5.76477 33.0537 6.08173C33.1953 6.25445 32.9977 6.41941 32.9016 6.54896C31.4279 8.22614 29.9568 9.90447 28.4883 11.584C28.2986 11.7904 28.1387 12.0253 27.9158 12.1997C27.7007 12.3155 27.5443 12.1134 27.387 11.9994C25.6991 10.6152 23.5463 9.90866 21.3557 10.0199C20.9886 10.032 20.6285 10.1166 20.2614 10.1063C20.1572 9.98489 20.0959 9.83333 20.0866 9.67446C19.7728 7.52746 19.4467 5.38218 19.1251 3.23604C19.077 2.88109 18.9896 2.52614 19.0088 2.16687C19.3672 1.94146 19.8208 1.99932 20.2177 1.93109Z" fill="white"/>
<path d="M17.8147 12.964C18.6872 12.8428 19.5756 12.8997 20.4249 13.1313C21.2742 13.3629 22.0664 13.7642 22.7524 14.3104C24.0667 15.3536 24.9126 16.866 25.1072 18.5206C25.2823 19.948 24.9612 21.3918 24.1964 22.6151C23.3305 24.0006 21.9616 25.0068 20.3697 25.428C18.9481 25.7979 17.4417 25.6807 16.0963 25.0955C14.6373 24.4529 13.4693 23.3013 12.8158 21.8612C12.45 21.0393 12.2625 20.1509 12.2652 19.2531C12.2679 18.3552 12.4608 17.4679 12.8315 16.6483C13.2805 15.669 13.9726 14.8178 14.8437 14.1737C15.7147 13.5296 16.7364 13.1135 17.8138 12.964M13.9242 15.8779C14.1435 15.7734 14.3612 15.6654 14.5815 15.5635C14.3035 16.1914 14.1304 16.8728 14.189 17.562C14.7633 17.8358 15.369 18.0517 15.918 18.379C15.2939 18.2926 14.6811 18.1406 14.064 18.0206C13.6007 18.5544 13.2878 19.1992 13.1567 19.8903C13.0431 19.6865 12.9364 19.4784 12.8202 19.2763C12.8289 20.5135 13.2333 21.7163 13.9757 22.7127C13.9285 22.4873 13.8883 22.2593 13.849 22.0322C14.3935 22.451 14.9774 22.8526 15.6671 22.9977C16.1041 22.5357 16.5045 22.0253 16.9966 21.6159C16.7142 22.185 16.3716 22.7231 16.0648 23.2801C16.4387 23.8574 16.9485 24.3365 17.5507 24.6766C17.3244 24.7319 17.0988 24.7915 16.8681 24.8295C17.4799 24.9633 18.1049 25.0886 18.7377 25.1007C19.3387 25.0727 19.9347 24.9792 20.5148 24.8217C20.2919 24.7751 20.0672 24.7353 19.8435 24.6896C20.4274 24.3398 20.9728 23.9019 21.3294 23.3155C21.1205 22.7188 20.6695 22.2239 20.4553 21.6237C20.9221 22.0555 21.3216 22.5555 21.7743 23.0055C22.4419 22.8193 23.056 22.4809 23.5671 22.0175C23.5382 22.2533 23.505 22.489 23.4692 22.7248C24.1685 21.7057 24.6055 20.5061 24.6003 19.2659C24.4945 19.4793 24.3817 19.6883 24.2664 19.8955C24.1323 19.208 23.8223 18.5658 23.3661 18.0301C22.7542 18.1458 22.1423 18.2814 21.5305 18.3902C22.0549 18.0214 22.6939 17.872 23.2349 17.5438C23.3145 16.8633 23.1143 16.1905 22.8468 15.5704C23.0578 15.6689 23.267 15.7699 23.4744 15.8736C22.7401 14.8624 21.696 14.1114 20.4964 13.7318C20.6791 13.9045 20.8618 14.0772 21.0419 14.2586C20.3365 14.1643 19.6184 14.2515 18.9571 14.5116C18.8697 15.1274 18.8584 15.7578 18.7019 16.3615C18.6145 15.7483 18.5516 15.13 18.4808 14.5133C17.8238 14.252 17.109 14.1651 16.4074 14.2612C16.5709 14.0884 16.7396 13.9157 16.9048 13.7378C15.7164 14.1364 14.6796 14.8839 13.9329 15.8805L13.9242 15.8779Z" fill="white"/>
<path d="M16.0903 18.4221C16.9644 17.7969 17.8385 17.1586 18.7178 16.5411C19.5858 17.1794 20.4739 17.7917 21.3401 18.4334C21.001 19.453 20.6647 20.4736 20.3314 21.495C19.2537 21.495 18.1759 21.495 17.0973 21.495C16.7538 20.4724 16.4111 19.4507 16.0903 18.4204V18.4221Z" fill="white"/>
<path d="M2.47376 8.47916C2.60487 8.39798 2.73599 8.52148 2.85836 8.56552C5.03833 9.7274 7.21977 10.8847 9.40265 12.0373C9.45402 12.0536 9.50054 12.0821 9.53811 12.1204C9.57568 12.1586 9.60315 12.2054 9.61809 12.2566C9.63304 12.3078 9.63499 12.3619 9.62379 12.414C9.61259 12.4661 9.58858 12.5147 9.55387 12.5555C8.96066 13.6578 8.61558 14.8737 8.54226 16.1201C8.46894 17.3664 8.66911 18.6136 9.12907 19.7764C9.25843 19.9733 9.06438 20.1547 8.8782 20.2082C6.79962 21.0033 4.71929 21.7961 2.63721 22.5867C2.3138 22.7041 1.99912 22.857 1.66085 22.9321C1.56084 22.8904 1.48099 22.8121 1.43797 22.7136C-0.360033 18.2227 -0.0383734 12.9709 2.2631 8.71321C2.3056 8.61458 2.37958 8.53239 2.47376 8.47916V8.47916Z" fill="white"/>
<path d="M32.4723 8.93167C32.7345 8.77622 32.9539 9.1044 33.1287 9.25554C36.5648 12.5909 38.4511 17.4169 38.1504 22.1678L38.0009 22.3586C35.522 22.28 33.0439 22.1211 30.565 22.0227C30.3588 21.995 30.0852 22.0408 29.9436 21.8499C29.9086 21.4933 29.9436 21.1349 29.9243 20.7782C29.8051 18.5476 28.8183 16.4489 27.1701 14.9201C26.9603 14.7707 27.0687 14.4978 27.2321 14.3631C28.9856 12.5581 30.704 10.7168 32.4767 8.92822L32.4723 8.93167Z" fill="white"/>
<path d="M6.89307 22.0287C7.06788 21.9717 7.26805 21.8404 7.44899 21.9501C7.53018 22.0658 7.59985 22.189 7.65702 22.318C8.57457 24.2832 10.204 25.8374 12.2241 26.6742C12.5545 26.8201 12.9147 26.8927 13.2346 27.0628C13.2984 27.2355 13.2389 27.4221 13.1891 27.5931C12.4322 29.9724 11.6866 32.3561 10.9331 34.7371C10.8015 34.7652 10.6653 34.7652 10.5336 34.7371C5.93593 33.3501 2.03139 29.9154 0.0821698 25.5765C0.00699825 25.39 0.0192299 25.1844 0 24.9892C2.29186 23.9917 4.59859 23.0262 6.89307 22.0321V22.0287Z" fill="white"/>
<path d="M27.5188 22.9459C27.7111 22.8345 27.9366 22.8829 28.1464 22.8915C30.5711 23.0901 32.9994 23.2603 35.4241 23.4598C35.6155 23.4451 35.7248 23.6385 35.6863 23.8052C35.3498 28.5889 32.794 33.1575 28.8973 36.0093C28.758 36.0916 28.6135 36.1649 28.4646 36.2286C26.9786 34.2785 25.5425 32.2896 24.0662 30.3309C23.9342 30.1452 23.7786 29.9664 23.7166 29.7427C23.7533 29.6037 23.8914 29.532 23.991 29.4422C25.7656 28.126 26.9691 26.1941 27.3589 24.0358C27.4288 23.6748 27.4367 23.3035 27.5188 22.9442V22.9459Z" fill="white"/>
<path d="M21.1345 28.4404C21.1688 28.408 21.2104 28.384 21.2559 28.3705C21.3014 28.3571 21.3495 28.3544 21.3963 28.3629C21.443 28.3713 21.487 28.3905 21.5248 28.419C21.5626 28.4475 21.5929 28.4844 21.6135 28.5268C22.9246 30.4423 24.2261 32.3717 25.5381 34.2907C25.6893 34.4952 25.823 34.7119 25.9376 34.9384C25.8335 35.2165 25.5346 35.3314 25.3056 35.4885C23.0522 36.8864 20.4992 37.7441 17.8505 37.9931C16.7623 37.9758 15.6705 37.9629 14.5832 38.0095C13.6383 37.886 12.6925 37.7418 11.773 37.4913C11.6183 37.4637 11.5107 37.348 11.3962 37.2547C12.1051 34.7899 12.7747 32.3138 13.4766 29.8473C13.4826 29.7997 13.5001 29.7542 13.5276 29.7147C13.5551 29.6752 13.5918 29.6428 13.6347 29.6202C13.6775 29.5976 13.7252 29.5855 13.7737 29.5849C13.8223 29.5842 13.8702 29.5952 13.9136 29.6167C16.3418 30.299 19.0428 29.8369 21.131 28.4473L21.1345 28.4404Z" fill="white"/>
</svg>
