<svg version="1.1" xmlns="http://www.w3.org/2000/svg">
        <symbol id="calendar" viewBox="0 0 12 12">
                <path d="M9 5.4a.5.5 0 1 0 0-1 .5.5 0 0 0 0 1z"/>
                <path d="M10.1 1h-.6V.4a.5.5 0 1 0-1 0v.4h-2V.5a.5.5 0 1 0-1 0v.4H3.4V.5a.5.5 0 1 0-1 0v.4H2C.9 1 0 1.8 0 3V10c0 1 .8 1.9 1.9 1.9h3.6a.5.5 0 0 0 0-1H1.9a1 1 0 0 1-1-.9V2.8c0-.5.5-1 1-1h.6v.5a.5.5 0 1 0 .9 0V2h2.1v.4a.5.5 0 1 0 1 0V2h2v.4a.5.5 0 1 0 1 0V2h.6c.5 0 1 .4 1 1v2.6a.5.5 0 0 0 .9 0V2.8c0-1-.8-1.9-1.9-1.9z"/>
                <path d="M9.2 6.3a2.8 2.8 0 1 0 0 5.7 2.8 2.8 0 0 0 0-5.7zm0 4.8a1.9 1.9 0 1 1 0-3.8 1.9 1.9 0 0 1 0 3.8z"/>
                <path d="M9.8 8.7h-.2v-.5a.5.5 0 1 0-.9 0v1c0 .2.2.4.5.4h.6a.5.5 0 0 0 0-.9zM7 5.4a.5.5 0 1 0 0-1 .5.5 0 0 0 0 1zM5 7.4a.5.5 0 1 0 0-1 .5.5 0 0 0 0 1zM3 5.4a.5.5 0 1 0 0-1 .5.5 0 0 0 0 1zM3 7.4a.5.5 0 1 0 0-1 .5.5 0 0 0 0 1zM3 9.5a.5.5 0 1 0 0-1 .5.5 0 0 0 0 1zM5 9.5a.5.5 0 1 0 0-1 .5.5 0 0 0 0 1zM5 5.4a.5.5 0 1 0 0-1 .5.5 0 0 0 0 1z"/>
        </symbol>
        <symbol id="pin" viewBox="0 0 14 14">
                <path d="M7.5 10.9l-.6-.3-3.5-3.5a.9.9 0 0 1 0-1.2l.2-.3c.3-.2.6-.4 1-.4h.6c.1 0 .3 0 .4-.2L7 3.6c.2-.1.2-.4.2-.5-.2-.5 0-1 .3-1.4l.5-.4c.3-.4.9-.4 1.2 0l3.5 3.5c.4.3.4.9 0 1.2l-.4.5c-.4.4-.9.5-1.4.3-.1 0-.4 0-.5.2L9 8.4l-.2.4v.6c0 .4-.2.7-.4 1l-.3.2c-.1.2-.3.3-.6.3zm-3-5l-.4.2-.2.3v.2L7.4 10h.2l.3-.2.1-.5v-.6c0-.3.2-.7.4-1L10 6.5c.3-.3.8-.4 1.3-.3l.5-.1.5-.5v-.2L8.7 1.8h-.2l-.5.5c-.1.1-.2.3-.1.5.1.5 0 1-.3 1.3L6 5.6c-.2.2-.6.4-1 .4h-.5z"/>
                <path d="M1.4 13a.4.4 0 0 1-.3-.6l4-4a.4.4 0 0 1 .6.5l-4 4-.3.1z"/>
                <path d="M7.5 10.9l-.6-.3-3.5-3.5a.9.9 0 0 1 0-1.2l.2-.3c.3-.2.6-.4 1-.4h.6c.1 0 .3 0 .4-.2L7 3.6c.2-.1.2-.4.2-.5-.2-.5 0-1 .3-1.4l.5-.4c.3-.4.9-.4 1.2 0l3.5 3.5c.4.3.4.9 0 1.2l-.4.5c-.4.4-.9.5-1.4.3-.1 0-.4 0-.5.2L9 8.4l-.2.4v.6c0 .4-.2.7-.4 1l-.3.2c-.1.2-.3.3-.6.3zm-3-5l-.4.2-.2.3v.2L7.4 10h.2l.3-.2.1-.5v-.6c0-.3.2-.7.4-1L10 6.5c.3-.3.8-.4 1.3-.3l.5-.1.5-.5v-.2L8.7 1.8h-.2l-.5.5c-.1.1-.2.3-.1.5.1.5 0 1-.3 1.3L6 5.6c-.2.2-.6.4-1 .4h-.5z"/>
                <path d="M1.4 13a.4.4 0 0 1-.3-.6l4-4a.4.4 0 0 1 .6.5l-4 4-.3.1z"/>
        </symbol>
        <symbol id="star" viewBox="0 0 12 12">
                <path stroke="currentColor" d="M10.993 4.806a.182.182 0 0 0-.145-.128L7.61 4.184l-1.448-3.08A.178.178 0 0 0 6.002 1c-.069 0-.131.04-.16.105l-1.45 3.08-3.237.493a.182.182 0 0 0-.145.128.194.194 0 0 0 .045.192L3.4 7.395l-.554 3.385a.193.193 0 0 0 .072.184.17.17 0 0 0 .188.014L6.002 9.38l2.896 1.598a.172.172 0 0 0 .188-.014.192.192 0 0 0 .071-.184l-.553-3.384 2.344-2.398a.195.195 0 0 0 .045-.192z"/>
        </symbol>
        <symbol id="coef-graph" viewBox="0 0 14 9">
                <path d="M.4 7.8H1V.6c0-.3.2-.4.5-.4.1 0 .4 0 .4.4v7.2h11.6c.3 0 .5.1.5.4 0 .2-.2.4-.5.4H.4c-.2 0-.4-.2-.4-.4 0-.3.2-.4.4-.4z"/>
                <path d="M10.2 4c0-.2-.2-.4-.3-.4h-6c-.2 0-.3.2-.3.4s0 .3.2.3h6c.2 0 .4-.1.4-.3zM10.2 5.9c0-.2-.2-.3-.3-.3h-6c-.2 0-.3.1-.3.3 0 .2 0 .3.2.3h6c.2 0 .4-.1.4-.3zM10.2 2l-.3-.3h-6c-.2 0-.3.2-.3.4 0 .1 0 .3.2.3h6c.2 0 .4-.2.4-.3z"/>
        </symbol>
        <symbol id="stat" viewBox="0 0 16 11">
                <path d="M14.76 9.38h-.47V.84c0-.22-.2-.4-.45-.4h-1.78c-.25 0-.45.18-.45.4v8.54h-.89V3.26c0-.22-.2-.4-.44-.4H8.49c-.24 0-.44.18-.44.4v6.12h-.9V6.5c0-.23-.2-.4-.44-.4H4.93c-.25 0-.45.17-.45.4v2.88H3.6v-4.5c0-.22-.2-.4-.44-.4H1.37c-.25 0-.45.18-.45.4v4.5H.45c-.25 0-.45.18-.45.4 0 .23.2.4.45.4h14.31c.25 0 .45-.17.45-.4 0-.22-.2-.4-.45-.4zM12.5 1.24h.9v8.14h-.9V1.24zM8.94 3.67h.9v5.71h-.9V3.67zM5.38 6.9h.89v2.48h-.9V6.9zM1.8 5.3h.9v4.09h-.9v-4.1z"/>
        </symbol>
        <symbol id="self_stat" viewBox="0 0 14 10">
                <path d="M13.1 5.4H9.7V1c0-.2-.2-.3-.4-.3H4.7c-.2 0-.4.1-.4.3v2.5H.8c-.2 0-.4.2-.4.4v4.8c0 .2.2.4.4.4h12.3c.2 0 .4-.2.4-.4V5.7c0-.2-.2-.3-.4-.3zm-12-1h3.2v4H1.2v-4zm4-3h3.8v7H5v-7zm7.7 7H9.7V6h3v2.5z"/>
                <path d="M7 3.6c-.3 0-.4.2-.4.4v1.4c0 .2.1.3.3.3.2 0 .4-.1.4-.3V4c0-.2-.2-.4-.4-.4z"/>
        </symbol>
        <symbol id="standings" viewBox="0 0 14 8">
                <path d="M.7 1.3c0-.2.2-.4.4-.4h2.2c.2 0 .4.2.4.4 0 .1-.2.3-.4.3H1.1c-.2 0-.4-.2-.4-.3zM.7 3.3c0-.2.2-.4.4-.4h2.2c.2 0 .4.2.4.4 0 .1-.2.3-.4.3H1.1c-.2 0-.4-.2-.4-.3zM.7 5.3c0-.2.2-.4.4-.4h2.2c.2 0 .4.2.4.4 0 .1-.2.3-.4.3H1.1c-.2 0-.4-.2-.4-.3zM.7 7.3c0-.2.2-.4.4-.4h2.2c.2 0 .4.2.4.4s-.2.3-.4.3H1.1c-.2 0-.4-.1-.4-.3zM5.2 1.3c0-.2.2-.4.4-.4h7.5c.2 0 .4.2.4.4 0 .1-.2.3-.4.3H5.6c-.2 0-.4-.2-.4-.3zM5.2 3.3c0-.2.2-.4.4-.4h7.5c.2 0 .4.2.4.4 0 .1-.2.3-.4.3H5.6c-.2 0-.4-.2-.4-.3zM5.2 5.3c0-.2.2-.4.4-.4h7.5c.2 0 .4.2.4.4 0 .1-.2.3-.4.3H5.6c-.2 0-.4-.2-.4-.3zM5.2 7.3c0-.2.2-.4.4-.4h7.5c.2 0 .4.2.4.4s-.2.3-.4.3H5.6c-.2 0-.4-.1-.4-.3z"/>
        </symbol>
        <symbol id="live" viewBox="0 0 15 13">
                <path fill="#596AF1" d="M.688 1.328c0-.22.179-.4.4-.4h13.2c.22 0 .4.18.4.4v8.638h-14V1.328z"/>
                <path fill="#4B5BE6" d="M7.688.928h6.6c.22 0 .4.18.4.4v8.843h-7V.928z"/>
                <path fill="#E4E4E4" d="M14.688 10.741a.4.4 0 0 1-.4.4H9.11l.31 1.145h.458a.3.3 0 0 1 .3.3v.114a.3.3 0 0 1-.3.3H5.586a.3.3 0 0 1-.3-.3v-.114a.3.3 0 0 1 .3-.3h.457l.311-1.145H1.088a.4.4 0 0 1-.4-.4v-.775h14v.775z"/>
                <path fill="#D2D2D2" d="M14.688 10.741a.4.4 0 0 1-.4.4H9.11l.31 1.145h.458a.3.3 0 0 1 .3.3v.114a.3.3 0 0 1-.3.3H7.688V9.969h7v.772z"/>
                <path fill="#fff" d="M4.699 6.101v-1.91h-.69v2.512h1.829V6.1h-1.14zM6.078 4.191v2.512h.69V4.19h-.69zM8.66 4.191l-.485 1.645-.488-1.633-.003-.012h-.729l.732 1.97.202.542h.573l.923-2.512H8.66zM10.266 6.101v-.396h.912v-.559h-.912v-.353h1.068V4.19H9.576v2.512h1.79V6.1h-1.1z"/>
                <path fill="#E1E1E3" d="M8.66 4.191h.725l-.923 2.512H7.89l-.202-.543V4.203l.488 1.633.485-1.645zM11.366 6.101v.602h-1.79V4.19h1.758v.602h-1.068v.353h.912v.559h-.912v.396h1.1z"/>
        </symbol>
        <symbol id="live-red" viewBox="0 0 15 13">
                <path d="M.7 1.3c0-.2.2-.4.4-.4h13.2c.2 0 .4.2.4.4V10H.7V1.3z"/>
                <path d="M7.7 1h6.6c.2 0 .4.1.4.3v8.9h-7V.9z"/>
                <path fill="#E4E4E4" d="M14.7 10.7a.4.4 0 01-.4.4H9l.3 1.2h.5a.3.3 0 01.3.3v.1a.3.3 0 01-.3.3H5.6a.3.3 0 01-.3-.3v-.1a.3.3 0 01.3-.3H6l.4-1.2H1a.4.4 0 01-.4-.4V10h14v.7z"/>
                <path fill="#D2D2D2" d="M14.7 10.7a.4.4 0 01-.4.4H9l.3 1.2h.5a.3.3 0 01.3.3v.1a.3.3 0 01-.3.3H7.7v-3h7v.7z"/>
                <path fill="#fff" d="M4.7 6.1v-2H4v2.6h1.8v-.6H4.7zm1.4-2v2.6h.7V4.2H6zm2.6 0l-.5 1.7-.5-1.6H7l.7 2 .2.5h.6l.9-2.5h-.7zm1.6 2v-.4h.9v-.6h-1v-.3h1.1v-.6H9.6v2.5h1.8v-.6h-1.1z"/>
                <path fill="#E1E1E3" d="M8.7 4.2h.7l-1 2.5H8l-.2-.5v-2l.5 1.6.5-1.6zM11.4 6v.6H9.6V4.2h1.7v.6h-1V5h.9v.6h-1v.4h1.2z"/>
        </symbol>


        <symbol id="live-mobile" viewBox="0 0 24 21">
                <path fill="rgb(240, 76, 68)" d="M23.000,16.000 C22.608,16.395 22.550,17.000 22.000,17.000 L15.000,17.000 C15.000,17.311 15.266,18.407 15.400,18.748 C15.533,19.088 15.666,19.387 15.800,19.644 C15.933,19.900 16.000,20.083 16.000,20.193 C16.000,20.411 15.921,20.601 15.762,20.761 C15.604,20.921 15.416,21.001 15.200,21.001 L8.800,21.001 C8.583,21.001 8.396,20.921 8.238,20.761 C8.079,20.601 8.000,20.411 8.000,20.193 C8.000,20.075 8.067,19.890 8.200,19.637 C8.334,19.385 8.467,19.091 8.600,18.754 C8.733,18.417 9.000,17.319 9.000,17.000 L2.000,17.000 C1.450,17.000 1.392,16.395 1.000,16.000 C0.608,15.604 0.001,16.306 0.001,15.750 L0.001,2.019 C0.001,1.463 0.196,0.988 0.588,0.592 C0.980,0.197 1.450,-0.001 2.000,-0.001 L21.999,-0.001 C22.549,-0.001 23.020,0.197 23.412,0.592 C23.803,0.988 23.999,1.463 23.999,2.019 L23.999,15.750 C23.999,16.306 23.392,15.604 23.000,16.000 ZM23.000,1.000 C22.921,0.920 22.108,1.000 22.000,1.000 L2.000,1.000 C1.892,1.000 1.079,0.920 1.000,1.000 C0.921,1.080 1.000,1.890 1.000,2.000 L1.000,13.000 C1.079,13.079 1.892,13.000 2.000,13.000 L22.000,13.000 C22.101,13.000 23.433,13.225 23.087,13.043 C23.042,13.043 23.000,13.033 23.000,13.000 L23.000,12.000 L23.000,2.000 C23.000,1.890 23.079,1.080 23.000,1.000 ZM10.472,9.954 C10.268,10.074 10.000,9.941 10.000,9.668 C10.000,9.391 10.000,4.529 10.000,4.338 C10.000,4.090 10.242,3.906 10.482,4.051 C10.674,4.167 14.514,6.510 14.841,6.711 C15.057,6.842 15.053,7.156 14.841,7.288 C14.605,7.435 10.751,9.790 10.472,9.954 Z"/>
        </symbol>


        <symbol id="live-blue" viewBox="0 0 131 81">
                <path d="M0 0h130.3v68.2H0z"/>
                <path fill="#1f72af" d="M6.2 6.1h118v55.7H6.2z"/>
                <path fill="#fff" d="M25.9 18.4v26.4h14.6V49H20.3V18.4zm24.7 0V49h-5.5V18.4zm10.1 0 8 23.9 8.2-23.9H83L71.5 49h-5.4L54.6 18.4zm44.7 12.8v4.2H92.2v9.4h15.4V49h-21V18.4h20.9v4.3H92.2v8.5z"/>
                <path d="M43.4 74.5h43.5v6.2H43.4z"/>
                <path d="M55.8 66.3h18.6v8.8H55.8z"/>
        </symbol>
        <symbol id="clock" viewBox="0 0 18 18">
                <path fill="rgb(50, 57, 70)" d="M9.000,18.000 C4.037,18.000 -0.000,13.963 -0.000,9.000 C-0.000,4.037 4.037,-0.000 9.000,-0.000 C13.962,-0.000 18.000,4.037 18.000,9.000 C18.000,13.963 13.962,18.000 9.000,18.000 ZM9.000,0.600 C4.368,0.600 0.600,4.368 0.600,9.000 C0.600,13.632 4.368,17.400 9.000,17.400 C13.632,17.400 17.400,13.632 17.400,9.000 C17.400,4.368 13.632,0.600 9.000,0.600 ZM15.600,9.264 L15.300,9.264 C15.134,9.264 15.000,9.130 15.000,8.964 C15.000,8.798 15.134,8.664 15.300,8.664 L15.600,8.664 C15.766,8.664 15.900,8.798 15.900,8.964 C15.900,9.130 15.766,9.264 15.600,9.264 ZM13.667,13.930 C13.590,13.930 13.513,13.901 13.455,13.843 L13.243,13.630 C13.125,13.513 13.125,13.324 13.243,13.206 C13.360,13.089 13.549,13.089 13.667,13.206 L13.879,13.418 C13.996,13.535 13.996,13.725 13.879,13.843 C13.820,13.901 13.744,13.930 13.667,13.930 ZM13.667,4.721 C13.608,4.779 13.531,4.809 13.455,4.809 C13.378,4.809 13.301,4.779 13.243,4.721 C13.125,4.603 13.125,4.414 13.243,4.297 L13.455,4.084 C13.572,3.967 13.762,3.967 13.879,4.084 C13.996,4.202 13.996,4.391 13.879,4.509 L13.667,4.721 ZM9.000,10.164 C8.443,10.164 7.977,9.780 7.843,9.264 L5.700,9.264 C5.534,9.264 5.400,9.130 5.400,8.964 C5.400,8.798 5.534,8.664 5.700,8.664 L7.843,8.664 C7.952,8.244 8.280,7.915 8.700,7.806 L8.700,4.764 C8.700,4.598 8.834,4.463 9.000,4.463 C9.166,4.463 9.300,4.598 9.300,4.764 L9.300,7.806 C9.816,7.940 10.200,8.406 10.200,8.964 C10.200,9.625 9.662,10.164 9.000,10.164 ZM9.000,8.364 C8.669,8.364 8.400,8.633 8.400,8.964 C8.400,9.295 8.669,9.564 9.000,9.564 C9.331,9.564 9.600,9.295 9.600,8.964 C9.600,8.633 9.331,8.364 9.000,8.364 ZM9.000,2.964 C8.834,2.964 8.700,2.829 8.700,2.663 L8.700,2.364 C8.700,2.198 8.834,2.064 9.000,2.064 C9.166,2.064 9.300,2.198 9.300,2.364 L9.300,2.663 C9.300,2.829 9.166,2.964 9.000,2.964 ZM4.545,13.843 C4.487,13.901 4.410,13.930 4.333,13.930 C4.256,13.930 4.180,13.901 4.121,13.843 C4.004,13.725 4.004,13.535 4.121,13.418 L4.333,13.206 C4.450,13.089 4.640,13.089 4.757,13.206 C4.875,13.324 4.875,13.513 4.757,13.630 L4.545,13.843 ZM4.545,4.809 C4.468,4.809 4.392,4.779 4.333,4.721 L4.121,4.509 C4.004,4.391 4.004,4.202 4.121,4.084 C4.238,3.967 4.428,3.967 4.545,4.084 L4.757,4.297 C4.875,4.414 4.875,4.603 4.757,4.721 C4.699,4.779 4.622,4.809 4.545,4.809 ZM9.000,14.964 C9.166,14.964 9.300,15.098 9.300,15.264 L9.300,15.563 C9.300,15.729 9.166,15.864 9.000,15.864 C8.834,15.864 8.700,15.729 8.700,15.563 L8.700,15.264 C8.700,15.098 8.834,14.964 9.000,14.964 ZM2.700,9.264 L2.400,9.264 C2.234,9.264 2.100,9.130 2.100,8.964 C2.100,8.798 2.234,8.664 2.400,8.664 L2.700,8.664 C2.866,8.664 3.000,8.798 3.000,8.964 C3.000,9.130 2.866,9.264 2.700,9.264 Z"/>
        </symbol>
        <symbol id="zone" viewBox="0 0 16 11">
                <path fill="#CFF09E" d="M12.69 2H2.47V8.7h10.22V2z"/>
                <path fill="#219653" d="M14.73 0h-3.6c-.17 0-.31.15-.31.34 0 .18.14.33.3.33h3.3v1.1H7.88V.33c0-.19-.14-.34-.3-.34H.3C.14 0 0 .15 0 .34v10.1c0 .18.14.33.3.33h14.43c.17 0 .3-.15.3-.34V.33c0-.18-.13-.33-.3-.33zm-.3 8.27h-1.78V2.44h1.77v5.83zm-2.4-5.83v5.83H7.89V5.7h2.63c.17 0 .3-.15.3-.33 0-.2-.13-.34-.3-.34H7.88V2.44h4.16zM.62 8.27V2.44h1.78v5.83H.6zm2.38-5.83h4.28v2.58H2.99V2.44zm0 3.25h4.28v2.58H2.99V5.7zM7.27.67v1.1H.6V.66h6.66zM.6 8.95h6.66v1.15H.6V8.95zm7.27 1.15V8.95h6.54v1.15H7.88z"/>
        </symbol>
        <symbol id="new-zone" viewBox="0 0 21 13">
                <path fill="#77a02e" d="M0 0h21v13H0z"/>
                <path fill="#c9d9ab" d="M10 0h1v13h-1zM7.99 5h1v3h-1zM3 2.99h1v7.02H3zM11.99 5h1v3h-1z" class="cls-2"/>
                <path fill="#c9d9ab" d="M10 3h1v3h-1z" transform="rotate(-90 10.5 4.5)"/>
                <path fill="#c9d9ab" d="M10 7h1v3h-1z" transform="rotate(-90 10.5 8.5)"/>
                <path fill="#c9d9ab" d="M1.5 7.5h1v4h-1z" transform="rotate(-90 2 9.5)"/>
                <path fill="#c9d9ab" d="M1.5 1.49h1v4h-1z" transform="rotate(-90 2 3.49)"/>
                <path fill="#c9d9ab" d="M1 5.99h1v1H1z" transform="rotate(-90 1.505 6.495)"/>
                <path fill="#c9d9ab" d="M17 2.99h1v7.02h-1z" transform="rotate(180 17.5 6.5)"/>
                <path fill="#c9d9ab" d="M18.5 1.5h1v4h-1z" transform="rotate(90 19 3.5)"/>
                <path fill="#c9d9ab" d="M18.5 7.51h1v4h-1z" transform="rotate(90 19 9.51)"/>
                <path fill="#c9d9ab" d="M19 6h1v1h-1z" transform="rotate(90 19.495 6.505)"/>
        </symbol>
        <symbol id="video" viewBox="0 0 22 22">
                <path d="M21.36 1.54c.35 0 .64.3.64.65v14.53a.65.65 0 0 1-.65.64h-6.48v1.8h1.07a.65.65 0 0 1 0 1.3H6.06a.65.65 0 0 1 0-1.3h1.07v-1.8H.64a.65.65 0 0 1-.64-.64V2.19c0-.36.29-.65.65-.65h20.7zM20.7 12.6V2.83H1.3v9.76H20.7zM8.42 19.17h5.16v-1.8H8.42v1.8zm-7.13-3.1H20.7v-2.19H1.3v2.2z"/>
                <path d="M5.88 10.07h1.77c.17 0 .25-.19.25-.38s-.08-.38-.25-.38H6.37V6.25c0-.19-.21-.26-.43-.26s-.44.07-.44.26V9.8c0 .18.19.27.38.27zm3.09 0c.22 0 .44-.09.44-.26V6.25c0-.19-.22-.26-.44-.26s-.44.07-.44.26V9.8c0 .18.22.27.44.27zm2.1-.25c.06.2.31.29.57.29.26 0 .5-.1.57-.3l1.04-3.4.01-.07c0-.2-.32-.35-.56-.35-.14 0-.25.04-.28.16l-.78 2.87-.79-2.87c-.03-.12-.14-.16-.28-.16-.24 0-.56.15-.56.35l.01.06 1.05 3.42zm3.17.25h2c.18 0 .26-.2.26-.37 0-.2-.1-.39-.26-.39h-1.5v-.95h.84c.18 0 .26-.18.26-.33 0-.18-.1-.34-.26-.34h-.84v-.94h1.5c.16 0 .26-.18.26-.39 0-.18-.08-.38-.26-.38h-2c-.19 0-.38.1-.38.27v3.56c0 .18.2.26.38.26z"/>
        </symbol>
        <symbol id="new-zone-2" viewBox="0 0 16 10" fill="none">
                <path stroke="#7A8188" d="M.5.5h15v9H.5z"/>
                <path stroke="#7A8188" d="M0 2.5h2.5V8H0m16-5.5h-3V8h3"/>
                <circle cx="8" cy="5" r="1.5" stroke="#7A8188"/>
                <path stroke="#7A8188" d="M8 0v3.5m0 3V10"/>
        </symbol>
        <symbol id="live-new" viewBox="0 0 12 12">
                <path d="M4.86185 4.0302L4.862 4.03011C4.97805 3.96325 5.12108 3.963 5.23737 4.03021M4.86185 4.0302L8.01061 6.19512C8.08042 6.15483 8.12336 6.08041 8.12336 5.99989C8.12336 5.91938 8.08042 5.84497 8.01061 5.80467L8.08562 5.67477L8.08561 5.67476L5.23737 4.03021M4.86185 4.0302C4.74573 4.09729 4.67422 4.22121 4.67422 4.3553V7.64448C4.67422 7.74406 4.71381 7.83956 4.78419 7.90993C4.85456 7.98031 4.95006 8.0199 5.04964 8.0199C5.11555 8.0199 5.18027 8.00253 5.23729 7.96962L5.23732 7.96961L8.0856 6.32503M4.86185 4.0302L8.0856 6.32503M5.23737 4.03021L5.16231 4.16008M5.23737 4.03021L5.23732 4.03018L5.16231 4.16008M5.16231 4.16008C5.09258 4.11978 5.0067 4.11986 4.93689 4.16008H5.16231ZM8.0856 6.32503C8.08561 6.32503 8.08561 6.32502 8.08562 6.32502L8.0856 6.32503ZM6.00017 11.15L6.00035 11.15C7.36558 11.1483 8.67455 10.6054 9.64004 9.63991L9.53397 9.53384L9.64004 9.6399C10.6054 8.67443 11.1485 7.36555 11.15 6.00025V6.00008C11.15 4.9814 10.848 3.98572 10.2821 3.13877L10.2821 3.13876C9.71614 2.29189 8.91186 1.63179 7.97077 1.24205C7.02973 0.852214 5.99422 0.750229 4.99523 0.948988C3.99627 1.14766 3.07855 1.63816 2.35837 2.35841C1.63812 3.07865 1.14763 3.99627 0.948944 4.99527C0.75025 5.99425 0.852233 7.02979 1.24206 7.97081C1.63181 8.91187 2.29197 9.71621 3.13886 10.2821L3.13888 10.2821C3.98597 10.8479 4.98156 11.15 6.00017 11.15ZM3.5561 2.34216C4.27952 1.85883 5.13008 1.60077 6.0001 1.60084C7.16626 1.60217 8.28471 2.06635 9.10948 2.89112C9.93418 3.7158 10.3981 4.83408 10.3994 6.0004C10.3994 6.87039 10.1413 7.72089 9.65803 8.4443C9.17462 9.16774 8.48751 9.73158 7.68365 10.0646C6.87979 10.3975 5.99521 10.4846 5.14187 10.3149C4.28846 10.1451 3.5046 9.72619 2.8893 9.1109C2.2741 8.49563 1.85512 7.71176 1.68537 6.85834C1.51569 6.00492 1.60283 5.12033 1.93576 4.31655C2.26876 3.51259 2.83258 2.82558 3.5561 2.34216ZM7.1472 5.99999L5.42506 6.99436V5.00555L7.1472 5.99999Z" stroke="#7A8188" stroke-width="0.3"/>
        </symbol>
        <symbol id="podium" viewBox="0 0 17 10">
                <path fill-rule="evenodd" clip-rule="evenodd" d="M16.4688 5.26381C16.4641 5.24885 16.4606 5.23363 16.4581 5.21831C16.4474 5.20013 16.4474 5.18201 16.4367 5.16382V5.15472L15.7648 4.04555C15.738 3.99789 15.6955 3.95791 15.6424 3.93047C15.5894 3.90303 15.5281 3.88939 15.4661 3.89107H11.7969V1.37287C11.7976 1.36794 11.7969 1.36294 11.7951 1.35823C11.7932 1.35351 11.7902 1.34917 11.7862 1.34557C11.7855 1.32029 11.7782 1.29549 11.7648 1.27289V1.26379L11.1034 0.154723C11.0746 0.10842 11.0317 0.0696226 10.9792 0.0424188C10.9266 0.015215 10.8662 0.000575756 10.8047 0.000138098H6.13281C6.07081 -0.00154609 6.00954 0.0122065 5.95651 0.0396445C5.90349 0.0670825 5.86096 0.107063 5.83412 0.154723L5.17266 1.26379C5.16199 1.26379 5.17265 1.27289 5.16198 1.27289C5.16348 1.27924 5.1633 1.2858 5.16146 1.29209C5.15961 1.29838 5.15614 1.30417 5.1513 1.30918C5.14252 1.33265 5.13889 1.35738 5.14063 1.38197C5.1378 1.38197 5.13533 1.38293 5.13333 1.38464C5.13133 1.38634 5.13021 1.38866 5.13021 1.39107V3.33654H1.47135C1.41066 3.33489 1.35064 3.3476 1.29792 3.37327C1.24519 3.39895 1.2018 3.43652 1.17266 3.48192L0.500781 4.60019V4.60918C0.490115 4.62736 0.490094 4.6456 0.479427 4.66378C0.46876 4.68196 0.46875 4.6911 0.46875 4.70928V9.71827C0.469309 9.79286 0.504255 9.86427 0.566146 9.91702C0.628037 9.96977 0.711954 9.99966 0.799479 10.0001H16.138C16.2255 9.99966 16.3095 9.96977 16.3714 9.91702C16.4332 9.86427 16.4682 9.79286 16.4688 9.71827V5.26381ZM15.7969 9.44561H1.13021V5.00014H5.47135C5.55888 4.99966 5.6428 4.96977 5.70469 4.91702C5.76658 4.86427 5.80152 4.79286 5.80208 4.71827V1.66373H11.1354V4.16373V5.27291C11.136 5.34751 11.1709 5.41891 11.2328 5.47166C11.2947 5.52441 11.3786 5.55419 11.4661 5.55467H15.7969V9.44561ZM7.99948 5.25471H8.79948V2.50014H7.99948V5.25471ZM4.74609 7.24557C4.75246 7.46421 4.68217 7.67957 4.54427 7.86402C4.40637 8.04846 4.20708 8.1936 3.97188 8.28106C3.73667 8.36851 3.47613 8.39428 3.2237 8.35496C2.97126 8.31565 2.73841 8.21303 2.55469 8.06033C2.37097 7.90763 2.2449 7.71179 2.19245 7.4977C2.14 7.28361 2.16348 7.06108 2.26016 6.85849C2.35683 6.6559 2.52227 6.48245 2.73516 6.36033C2.94804 6.23822 3.19885 6.17297 3.45547 6.1729C3.79312 6.17046 4.11815 6.28181 4.3599 6.48274C4.60164 6.68366 4.74048 6.95782 4.74609 7.24557ZM14.8474 7.45464C14.855 7.67479 14.7855 7.89192 14.6474 8.07809C14.5093 8.26425 14.309 8.41101 14.0724 8.49956C13.8358 8.58811 13.5735 8.61446 13.3193 8.57513C13.065 8.5358 12.8303 8.4326 12.6453 8.27884C12.4603 8.12507 12.3335 7.92774 12.281 7.7121C12.2285 7.49645 12.2526 7.27227 12.3505 7.06845C12.4485 6.86464 12.6156 6.69039 12.8305 6.56808C13.0454 6.44576 13.2984 6.38098 13.5568 6.38197C13.8944 6.37954 14.2195 6.49089 14.4612 6.69181C14.7029 6.89274 14.8418 7.16689 14.8474 7.45464Z"/>
        </symbol>
        <symbol id="tournament" viewBox="0 0 13 9">
                <path d="M3.56875 6.32022H6.86875C7.01875 6.32022 7.16875 6.16854 7.16875 6.01685V5.1573C7.16875 5.00562 7.01875 4.85393 6.86875 4.85393H3.56875C3.41875 4.85393 3.26875 5.00562 3.26875 5.1573V6.01685C3.26875 6.16854 3.41875 6.32022 3.56875 6.32022ZM12.0938 7.48315H1.96875V0.379213C1.96875 0.169698 1.80094 0 1.59375 0H0.84375C0.636562 0 0.46875 0.169698 0.46875 0.379213V8.24157C0.46875 8.66037 0.804609 9 1.21875 9H12.0938C12.3009 9 12.4688 8.8303 12.4688 8.62079V7.86236C12.4688 7.65284 12.3009 7.48315 12.0938 7.48315Z"/>
                <path d="M12.1687 3.89326H8.86875C8.71875 3.89326 8.56875 3.74157 8.56875 3.58989V2.73034C8.56875 2.57865 8.71875 2.42697 8.86875 2.42697H12.1687C12.3188 2.42697 12.4688 2.57865 12.4688 2.73034V3.58989C12.4688 3.74157 12.3188 3.89326 12.1687 3.89326Z"/>
                <path d="M6.86875 3.89326H3.56875C3.41875 3.89326 3.26875 3.74157 3.26875 3.58989V2.73034C3.26875 2.57865 3.41875 2.42697 3.56875 2.42697H6.86875C7.01875 2.42697 7.16875 2.57865 7.16875 2.73034V3.58989C7.16875 3.74157 7.01875 3.89326 6.86875 3.89326Z"/>
                <path d="M6.86875 1.46629H3.56875C3.41875 1.46629 3.26875 1.31461 3.26875 1.16292V0.303371C3.26875 0.151685 3.41875 0 3.56875 0H6.86875C7.01875 0 7.16875 0.151685 7.16875 0.303371V1.16292C7.16875 1.31461 7.01875 1.46629 6.86875 1.46629Z" />
        </symbol>
        <symbol id="coef-graphs-new" viewBox="0 0 14 12">
                <path fill-rule="evenodd" clip-rule="evenodd" d="M4.52952 8.60118H5.85853V11.0012H4.52952V8.60118ZM0.997518 6.55516H2.32651V11.0012H0.997518V6.55516ZM2.61652 4.39418L4.05552 5.40517C3.97257 5.71079 4.01379 6.03682 4.1702 6.31218C4.32661 6.58754 4.58554 6.7899 4.89052 6.87517C5.08085 6.92506 5.28056 6.92715 5.47188 6.88124C5.66321 6.83533 5.84021 6.74284 5.98717 6.61201C6.13413 6.48118 6.24649 6.31606 6.31424 6.13133C6.382 5.94661 6.40305 5.748 6.37552 5.55318L7.88451 4.26817C7.99121 4.38193 8.11943 4.47337 8.26174 4.53719C8.40405 4.601 8.55762 4.63594 8.71354 4.63994C8.86945 4.64394 9.02459 4.61693 9.16999 4.5605C9.31538 4.50407 9.44813 4.41931 9.56052 4.31117C9.73169 4.14724 9.85047 3.9363 9.90191 3.70494C9.95334 3.47358 9.93511 3.23219 9.84952 3.01118L11.2265 1.73817C11.296 1.8778 11.3925 2.00226 11.5105 2.10435C11.6284 2.20645 11.7654 2.28417 11.9135 2.33299C12.0616 2.38181 12.218 2.40076 12.3735 2.38878C12.529 2.3768 12.6806 2.33411 12.8195 2.26317C13.1012 2.11808 13.314 1.86749 13.4116 1.56605C13.5092 1.26462 13.4837 0.936841 13.3405 0.65419C13.2709 0.514526 13.1743 0.390025 13.0563 0.287918C12.9383 0.18581 12.8012 0.108097 12.653 0.0592799C12.5048 0.0104626 12.3483 -0.00850144 12.1928 0.00349374C12.0372 0.0154889 11.8855 0.0582059 11.7465 0.129165C11.5507 0.230392 11.3865 0.383606 11.272 0.572006C11.1575 0.760405 11.0972 0.976732 11.0975 1.19719C11.0975 1.22419 11.0975 1.25219 11.0975 1.27919L9.62252 2.64317C9.51941 2.52609 9.39406 2.43068 9.25374 2.36247C9.11343 2.29427 8.96095 2.25464 8.80518 2.24589C8.64941 2.23715 8.49346 2.25944 8.3464 2.31151C8.19933 2.36357 8.06409 2.44437 7.94852 2.54918C7.76285 2.71665 7.63413 2.93793 7.58034 3.18211C7.52656 3.4263 7.55039 3.6812 7.64852 3.91118L6.22751 5.12117C6.12967 4.94782 5.98957 4.80202 5.82024 4.69737C5.65091 4.59272 5.45786 4.53264 5.25905 4.52266C5.06025 4.51268 4.86215 4.55314 4.68319 4.6403C4.50423 4.72747 4.35023 4.85848 4.23552 5.02116L2.79952 4.01216C2.88526 3.70678 2.8466 3.37991 2.69201 3.10295C2.53741 2.82599 2.27945 2.62148 1.97452 2.53416C1.8237 2.49201 1.66602 2.48014 1.51058 2.49919C1.35514 2.51825 1.205 2.56785 1.06882 2.64519C0.932645 2.72252 0.813113 2.82604 0.717123 2.94978C0.621132 3.07352 0.550568 3.21504 0.509511 3.36616C0.423776 3.67154 0.462445 3.99845 0.61704 4.27541C0.771635 4.55236 1.02959 4.75685 1.33452 4.84416C1.56865 4.91001 1.81739 4.90205 2.04682 4.82133C2.27625 4.74062 2.47519 4.59111 2.61652 4.39317V4.39418ZM9.39052 11.0012H8.09652V6.27116H9.39052V11.0012ZM12.9225 11.0012H11.6285V4.04918H12.9225V11.0012ZM12.9225 11.0012H0.997518V9.77019H12.9225V11.0012Z"/>
        </symbol>
</svg>
