<svg width="112" height="37" viewBox="0 0 112 37" fill="none" xmlns="http://www.w3.org/2000/svg">
<path fill-rule="evenodd" clip-rule="evenodd" d="M106.633 21.5406L106.644 21.5471C106.75 21.605 106.849 21.6811 106.943 21.7752C107.188 22.0191 107.309 22.3077 107.309 22.6384C107.309 22.9621 107.191 23.2428 106.954 23.4801C106.718 23.717 106.435 23.8352 106.103 23.8352C105.774 23.8352 105.489 23.7153 105.249 23.4743C105.072 23.2986 104.961 23.1003 104.913 22.8803C104.86 22.666 104.763 22.5586 104.626 22.5586C104.383 22.5586 103.144 23.2667 102.857 23.5912C103.166 24.0154 103.378 24.3841 103.493 24.6971C103.607 25.0096 103.665 25.3453 103.665 25.7062C103.665 26.3317 103.513 26.8832 103.213 27.3619C102.911 27.8398 102.41 28.2623 101.711 28.629C101.011 28.9953 100.342 29.1784 99.7023 29.1784H98.5299C97.6961 29.1784 97.1445 29.266 96.8718 29.4372C96.5996 29.6178 96.463 29.8808 96.463 30.2251C96.463 30.5058 96.5732 30.7225 96.7959 30.8738C97.0179 31.023 97.4387 31.0991 98.0559 31.0991L100.715 31.0457C102.058 31.0457 103.023 31.2698 103.616 31.7196C104.209 32.169 104.504 32.7858 104.504 33.5692C104.504 34.4328 104.168 35.1591 103.493 35.7486C102.552 36.5825 101.149 37 99.2824 37C97.7407 37 96.5954 36.7164 95.8495 36.148C95.26 35.7023 94.9659 35.2021 94.9659 34.6481C94.9659 34.224 95.1544 33.8362 95.5319 33.4832C95.9081 33.1301 96.5418 32.8684 97.4321 32.6969C96.7208 32.5232 96.1866 32.2698 95.8273 31.9358C95.4688 31.6005 95.2889 31.1851 95.2889 30.6898C95.2889 30.2301 95.4349 29.8278 95.7254 29.4868C96.0162 29.1441 96.5204 28.851 97.2382 28.6062C96.6268 28.2693 96.168 27.8605 95.859 27.3834C95.5509 26.9043 95.3966 26.3565 95.3966 25.7372C95.3966 24.7599 95.7802 23.9397 96.5488 23.2779C97.3162 22.6164 98.3141 22.2865 99.5419 22.2865C100.044 22.2865 100.529 22.3576 100.994 22.5015C101.461 22.6454 101.914 22.8645 102.351 23.1596C103.069 22.4333 105.073 21.3684 105.715 21.3436C106.087 21.3283 106.401 21.3808 106.633 21.5406ZM100.155 32.7064C98.8343 32.7064 97.8921 32.8903 97.3294 33.2566C96.7658 33.6246 96.4836 34.0657 96.4836 34.5837C96.4836 35.0731 96.6957 35.4568 97.1198 35.7375C97.6788 36.112 98.4754 36.2993 99.5097 36.2993C100.744 36.2993 101.674 36.0942 102.297 35.6837C102.921 35.274 103.235 34.8172 103.235 34.3141C103.235 34.0185 103.137 33.7444 102.944 33.489C102.749 33.2335 102.441 33.0404 102.018 32.9065C101.594 32.7734 100.973 32.7064 100.155 32.7064ZM21.9264 29.1009C23.0692 29.1009 23.9937 30.0298 23.9937 31.1753C23.9933 32.318 23.0692 33.2461 21.9264 33.2461C20.7861 33.2461 19.8604 32.318 19.8604 31.1753C19.8604 30.0298 20.7861 29.1009 21.9264 29.1009ZM47.3773 17.2476L47.7766 23.6124H47.0761C46.539 21.7814 45.9032 20.4564 45.1726 19.6387C44.2415 18.5982 43.1721 18.0765 41.9683 18.0765C41.0438 18.0765 40.215 18.339 39.4844 18.8648C38.7529 19.3886 38.1922 20.1761 37.8007 21.2258C37.4109 22.2746 37.2149 23.3337 37.2149 25.2391C37.2149 27.0854 37.4109 28.1119 37.8007 29.1536C38.1922 30.1962 38.7306 30.9635 39.4192 31.4563C40.1073 31.9482 40.9134 32.1938 41.8388 32.1938C43.0933 32.1938 44.0628 31.8416 44.7477 31.1363C45.4308 30.4319 45.7733 29.522 45.7733 28.4078V26.908C45.7733 26.6699 45.6829 26.4876 45.4993 26.3578C45.3162 26.228 45.0166 26.1631 44.6004 26.1631H43.2546V25.4086H49.513V26.1631H49.0246C48.6223 26.1631 48.3368 26.2338 48.1636 26.3739C47.9924 26.5145 47.9061 26.7174 47.9061 26.9824V33.0781H47.1949C46.9367 32.1293 46.6677 31.2202 46.3875 30.35C45.8492 31.2335 45.2085 31.8974 44.4659 32.3389C43.7225 32.7821 42.8809 33.0028 41.9419 33.0028C40.5995 33.0028 39.3556 32.6581 38.2112 31.9681C37.066 31.2769 36.1613 30.3045 35.4991 29.049C34.8337 27.7935 34.5028 26.7935 34.5028 25.2106C34.5028 23.6223 34.8353 22.6152 35.5032 21.3568C36.1712 20.0993 37.085 19.0988 38.2442 18.3576C39.4035 17.6168 40.5747 17.2476 41.7587 17.2476C42.4337 17.2476 43.0777 17.3617 43.6915 17.5882C44.3054 17.8173 45.0001 18.2348 45.7745 18.8413L46.6565 17.2476H47.3773ZM54.5677 22.2904C55.7657 22.2904 56.6812 22.55 57.3132 23.0676C57.9452 23.5914 58.26 24.2289 58.26 24.9767V30.501C58.26 30.9897 58.3623 31.208 58.5001 31.4519C58.5867 31.6057 58.831 31.8186 59.0636 31.8471C59.2553 31.87 59.3983 31.8846 59.6747 31.8918L60.3678 31.8917C60.6557 31.8917 60.8765 31.8198 61.0299 31.6771C61.185 31.5329 61.2618 31.3489 61.2618 31.1261V24.5025C61.2618 24.1358 61.169 23.8621 60.9829 23.6831C60.796 23.5025 60.4227 23.3884 59.8624 23.3375V22.5934L62.749 22.4099C62.9054 23.161 63.0102 23.8766 63.0601 24.5571C63.6071 23.7691 64.1525 23.2147 64.6991 22.8931C65.2458 22.5698 65.8456 22.4099 66.5003 22.4099C67.1967 22.4099 67.7722 22.5926 68.2252 22.9564C68.6778 23.3218 69.0264 23.918 69.271 24.741C69.7516 23.9597 70.2851 23.3772 70.8734 22.9899C71.4612 22.6029 72.1024 22.4099 72.7975 22.4099C73.7142 22.4099 74.4015 22.6831 74.8607 23.2288C75.4481 23.9481 75.7431 24.8762 75.7431 26.0127V31.0285C75.7431 31.3315 75.8178 31.5366 75.9684 31.6441C76.1689 31.8086 76.4671 31.8917 76.8628 31.8917L78.4528 31.8918C78.7684 31.8918 79.0003 31.8157 79.1471 31.6599C79.2948 31.5053 79.3674 31.2808 79.3674 30.986V24.6213C79.3674 24.2174 79.2536 23.9144 79.0238 23.7093C78.794 23.5038 78.4528 23.4026 78.0015 23.4026H77.5898V22.5935L81.1876 22.4741V31.1692C81.1876 31.4065 81.2445 31.576 81.3592 31.6768C81.5259 31.8199 81.7334 31.8918 81.9846 31.8918L83.6297 31.8917C83.9808 31.8917 84.2486 31.8198 84.4305 31.6771C84.6149 31.5329 84.7057 31.3522 84.7057 31.1364V24.61C84.7057 24.1784 84.5889 23.851 84.355 23.6294C84.1223 23.4057 83.7861 23.2941 83.3492 23.2941H82.8319V22.5934L86.1805 22.3879C86.3163 23.0204 86.4173 23.7613 86.4817 24.61C86.9343 23.8766 87.4669 23.326 88.0811 22.9601C88.6946 22.5934 89.3889 22.4099 90.1645 22.4099C90.8312 22.4099 91.3914 22.5405 91.8428 22.8034C92.2958 23.0651 92.6576 23.481 92.9307 24.049C93.2034 24.6183 93.3407 25.2545 93.3407 25.9593V30.8776C93.3407 31.2447 93.4216 31.5056 93.5866 31.6602C93.7525 31.816 94.0289 31.8917 94.4159 31.8917H94.7096V32.7007H90.226V31.8917H90.3139C90.7883 31.8917 91.1183 31.816 91.3048 31.6647C91.4921 31.5138 91.5849 31.2881 91.5849 30.9863V26.6605C91.5849 25.7175 91.4414 25.0197 91.1551 24.5658C90.752 23.9192 90.1427 23.5963 89.3237 23.5963C88.5131 23.5963 87.8369 23.9229 87.2944 24.5773C86.7536 25.2322 86.4817 26.0846 86.4817 27.1351V30.8776C86.4817 31.2447 86.5663 31.5056 86.735 31.6602C86.9041 31.816 87.1822 31.8917 87.5692 31.8917H87.8522V32.7007H72.2975V31.8917H72.8033C73.2344 31.8917 73.5351 31.8198 73.7076 31.6771C73.8804 31.5316 73.9667 31.3166 73.9667 31.0277V26.0052C73.9667 25.2557 73.7835 24.6761 73.4188 24.2673C73.0529 23.8551 72.5735 23.6501 71.9786 23.6501C71.5273 23.6501 71.1197 23.772 70.755 24.0118C70.3886 24.2532 70.1027 24.5972 69.8956 25.0432C69.5874 25.6848 69.4332 26.2281 69.4332 26.6749V31.0277C69.4332 31.3224 69.5128 31.5407 69.6695 31.6817C69.828 31.8222 70.0718 31.8917 70.4026 31.8917H71.0916V32.7007H65.9455V31.8917H66.5259C66.8931 31.8917 67.1645 31.8198 67.3448 31.6771C67.5243 31.5329 67.615 31.3489 67.615 31.1261V26.4658C67.615 25.4802 67.4397 24.765 67.0919 24.3185C66.7437 23.8737 66.2755 23.6501 65.6864 23.6501C64.9252 23.6501 64.3402 23.9089 63.9314 24.4273C63.3509 25.1606 63.0601 26.0164 63.0601 26.9941V31.0285C63.0601 31.339 63.1286 31.5506 63.2651 31.6647C63.4578 31.816 63.7589 31.8917 64.1686 31.8917H64.6859V32.7007H59.6042C59.4248 32.7068 59.2389 32.7016 59.0562 32.7016C58.5686 32.7016 57.5921 32.6751 57.2521 32.4188C56.8845 32.1435 56.7781 31.8706 56.5273 31.2013C55.8453 31.9215 55.2447 32.401 54.729 32.6421C54.212 32.8827 53.5907 33.003 52.8671 33.003C51.832 33.003 51.0474 32.7805 50.5082 32.3349C49.9706 31.8892 49.7008 31.3163 49.7008 30.6197C49.7008 29.5684 50.3176 28.6969 51.5478 28.0028C52.778 27.3091 54.4171 26.8474 56.4625 26.6163V25.0846C56.4625 24.5381 56.2439 24.0701 55.8049 23.6832C55.3672 23.2942 54.8119 23.099 54.1366 23.099C53.512 23.099 52.974 23.2288 52.5218 23.4885C52.1988 23.6832 52.0371 23.8738 52.0371 24.0598C52.0371 24.1673 52.1229 24.3372 52.2962 24.5658C52.5045 24.8548 52.6081 25.1107 52.6081 25.3335C52.6081 25.6568 52.5045 25.9213 52.2962 26.1256C52.0878 26.3319 51.8147 26.4323 51.4777 26.4323C51.1187 26.4323 50.8192 26.3112 50.5787 26.0669C50.3378 25.8213 50.2182 25.51 50.2182 25.1276C50.2182 24.4149 50.6187 23.765 51.4183 23.1751C52.2182 22.5852 53.269 22.2904 54.5677 22.2904ZM23.7313 17.1532C23.1871 24.7859 18.8644 29.8933 13.4176 31.9375C13.3151 31.9753 13.2128 32.0128 13.1101 32.0491C13.0503 32.0702 12.9904 32.0909 12.9304 32.1111C8.83809 33.5053 4.16433 33.1989 0 30.9709C2.08875 26.2612 3.77915 20.9315 10.3761 18.435C13.5184 17.2377 17.7776 16.6851 23.7313 17.1532ZM21.9264 29.5246C21.0176 29.5246 20.2828 30.2621 20.2807 31.1753C20.2828 32.0869 21.0176 32.8261 21.9264 32.8261C22.8377 32.8261 23.5712 32.0869 23.5729 31.1753C23.5712 30.2621 22.8377 29.5246 21.9264 29.5246ZM21.8732 30.0666C22.1566 30.0695 22.3451 30.0695 22.5316 30.2208C22.6678 30.3291 22.7705 30.4998 22.7705 30.7479C22.7705 31.1035 22.5415 31.2574 22.4016 31.3153L22.348 31.3345L22.8225 32.2039H22.3678L21.9446 31.4089H21.5902V32.2039H21.1929V30.0666H21.8732ZM56.4625 27.3282C54.6395 27.5808 53.3469 27.9908 52.5866 28.5585C52.0193 28.9905 51.7368 29.6015 51.7368 30.3923C51.7368 30.9467 51.882 31.3799 52.1786 31.6925C52.4715 32.005 52.856 32.1613 53.3292 32.1613C54.1762 32.1613 54.9105 31.8396 55.5306 31.1964C56.1523 30.5527 56.4625 29.7449 56.4625 28.7734V27.3282ZM21.8991 30.4128L21.5902 30.4122V31.0794L21.8147 31.0788C21.8899 31.0776 21.9334 31.0749 21.9903 31.0724C22.079 31.0695 22.3645 31.0555 22.3645 30.7425C22.3645 30.697 22.3621 30.5404 22.1962 30.4573C22.145 30.4315 22.0875 30.4204 21.9989 30.4157L21.8991 30.4128ZM99.52 22.9761C98.8801 22.9761 98.3537 23.2117 97.937 23.683C97.5216 24.1535 97.3124 24.8137 97.3124 25.6624C97.3124 26.5677 97.5216 27.2722 97.937 27.7716C98.3537 28.271 98.8843 28.5215 99.5303 28.5215C100.178 28.5215 100.705 28.2776 101.119 27.7922C101.531 27.3073 101.737 26.6116 101.737 25.7062C101.737 24.8637 101.527 24.1977 101.108 23.7091C100.688 23.2217 100.159 22.9761 99.52 22.9761ZM79.9714 17.8158C80.2944 17.8158 80.5774 17.9378 80.8217 18.1829C81.0651 18.4268 81.1876 18.7146 81.1876 19.0461C81.1876 19.369 81.0688 19.6501 80.8328 19.887C80.596 20.1239 80.3122 20.2429 79.9817 20.2429C79.6521 20.2429 79.3666 20.1222 79.1261 19.8824C78.886 19.6414 78.7655 19.3582 78.7655 19.0345C78.7655 18.7117 78.8872 18.4268 79.1319 18.1829C79.3753 17.9378 79.655 17.8158 79.9714 17.8158ZM23.7313 15.7861L23.6944 15.7886C5.69322 17.2172 3.18532 9.29971 0.197841 2.44719L0 1.99703C0.45717 1.7524 0.920479 1.53093 1.38849 1.33232C1.4602 1.30222 1.53174 1.27225 1.60339 1.24281L1.38849 1.33232C1.47312 1.29641 1.55791 1.26124 1.64284 1.22682C1.69955 1.20353 1.75706 1.18044 1.81463 1.15769C1.86498 1.13852 1.91528 1.11906 1.96562 1.09985C11.5428 -2.57913 22.8291 3.1355 23.7313 15.7861ZM95.5303 5.10629C96.8859 5.10629 98.0266 5.59741 98.9478 6.57924C99.8707 7.56149 100.332 8.85462 100.332 10.4574C100.332 11.5649 100.125 12.5091 99.7123 13.2888C99.2993 14.0701 98.7118 14.6857 97.9474 15.1388C97.1834 15.5927 96.3595 15.8192 95.4766 15.8192C94.1697 15.8192 93.0632 15.3223 92.1556 14.3297C91.248 13.338 90.7934 12.0502 90.7934 10.4681C90.7934 8.8786 91.2492 7.58754 92.161 6.59495C93.0715 5.60278 94.1953 5.10629 95.5303 5.10629ZM56.2119 5.10629C57.5676 5.10629 58.7074 5.59741 59.6295 6.57924C60.5524 7.56149 61.0119 8.85462 61.0119 10.4574C61.0119 11.5649 60.8065 12.5091 60.3939 13.2888C59.9806 14.0701 59.3935 14.6857 58.6274 15.1388C57.8634 15.5927 57.0403 15.8192 56.1571 15.8192C54.8513 15.8192 53.7441 15.3223 52.836 14.3297C51.9288 13.338 51.475 12.0502 51.475 10.4681C51.475 8.8786 51.9309 7.58754 52.8422 6.59495C53.7531 5.60278 54.8769 5.10629 56.2119 5.10629ZM45.9624 5.40844V6.14223C45.3015 6.15629 44.8798 6.21582 44.6983 6.32C44.5139 6.42459 44.4232 6.57342 44.4232 6.7673C44.4232 6.92564 44.459 7.08438 44.5308 7.2423L47.2054 13.2081L49.6403 7.42379C49.6757 7.32292 49.6931 7.22287 49.6931 7.12242C49.6931 6.59863 49.1778 6.27163 48.1481 6.14223V5.40844H52.3251V6.14223C51.901 6.18523 51.5636 6.29974 51.3127 6.48701C51.0615 6.6747 50.868 6.92564 50.7323 7.24272L47.0358 15.8192H46.4537L42.485 7.00501C42.341 6.68834 42.1677 6.46841 41.9627 6.34191C41.7581 6.21582 40.893 6.14926 40.4565 6.14223V5.40844H45.9624ZM76.3287 5.22518V13.5205C76.3287 13.9021 76.4364 14.1948 76.6526 14.4007C76.8671 14.6053 77.1687 14.7078 77.5556 14.7078H78.191V15.4305L74.8006 15.5065L74.5853 13.5205C73.9817 14.2333 73.3769 14.769 72.7676 15.1291C72.1587 15.4888 71.5427 15.6682 70.9185 15.6682C70.0089 15.6682 69.2457 15.3623 68.6297 14.7513C68.0051 14.1464 67.6949 13.122 67.6949 11.6759V7.28559C67.6949 6.89699 67.5389 6.60264 67.2308 6.4009C67.0158 6.25704 66.5732 6.17808 65.9077 6.16402V5.40832L69.4812 5.22518V11.9244C69.4812 12.7446 69.6875 13.3775 70.0992 13.8232C70.5101 14.2692 71.0431 14.492 71.695 14.492C72.497 14.492 73.1789 14.1667 73.7404 13.516C74.3031 12.8645 74.5853 12.0505 74.5853 11.0724V7.28559C74.5853 6.93998 74.4603 6.67292 74.2136 6.48152C73.9665 6.29176 73.49 6.18511 72.787 6.16402V5.40832L76.3287 5.22518ZM80.9552 1.28734V5.40857L84.927 5.40861L88.9411 5.29037V13.9851C88.9411 14.222 88.9988 14.3911 89.1135 14.4919C89.2794 14.6366 89.4873 14.7081 89.7381 14.7081H90.463V15.5163H85.5573V14.7081H86.2063C86.5227 14.7081 86.7541 14.6304 86.9014 14.4758C87.0483 14.3208 87.1221 14.0963 87.1221 13.8011V7.62983C87.1221 7.22635 87.0079 6.92249 86.7781 6.71827C86.5479 6.51322 86.2063 6.41029 85.7549 6.41029H84.927L84.9269 6.40072L80.9552 6.40074V12.8846C80.9552 13.4456 81.0885 13.8759 81.3546 14.174C81.6198 14.4729 81.9573 14.6217 82.3661 14.6217C82.8546 14.6217 83.2704 14.3943 83.6145 13.9416C83.9594 13.489 84.1611 12.7411 84.2172 11.6985H84.94C84.8967 13.0429 84.591 14.0409 84.0246 14.6924C83.4573 15.3423 82.7222 15.668 81.817 15.668C80.9849 15.668 80.3339 15.4402 79.8632 14.983C79.3929 14.5262 79.1586 13.9276 79.1586 13.1868V6.40074H77.4036V5.64586C78.2023 5.50985 78.8116 5.17458 79.2291 4.64294C79.8479 3.84383 80.1842 2.72599 80.2345 1.28734H80.9552ZM103.47 5.20339C103.607 5.83673 103.707 6.57755 103.772 7.42544C104.223 6.69206 104.757 6.14223 105.371 5.77555C105.984 5.40844 106.679 5.2253 107.454 5.2253C108.122 5.2253 108.681 5.35635 109.133 5.61845C109.586 5.88179 109.948 6.29643 110.221 6.86486C110.494 7.43288 110.63 8.06952 110.63 8.77479V13.6935C110.63 14.0606 110.712 14.321 110.877 14.476C111.043 14.6307 111.319 14.708 111.707 14.708H112V15.5162H107.516V14.708H107.604C108.078 14.708 108.408 14.6323 108.595 14.4814C108.781 14.3297 108.875 14.1036 108.875 13.8014V9.47551C108.875 8.53336 108.732 7.83554 108.444 7.38203C108.042 6.73547 107.433 6.41301 106.615 6.41301C105.803 6.41301 105.126 6.73836 104.584 7.39361C104.043 8.04803 103.772 8.90047 103.772 9.95051V13.6935C103.772 14.0606 103.856 14.321 104.025 14.476C104.195 14.6307 104.472 14.708 104.859 14.708H105.142V15.5162H100.637V14.708H100.919C101.27 14.708 101.538 14.6364 101.72 14.4922C101.904 14.3483 101.996 14.1681 101.996 13.9527V7.42544C101.996 6.99385 101.88 6.66726 101.646 6.44402C101.413 6.2212 101.077 6.10958 100.638 6.10958H100.122V5.40844L103.47 5.20339ZM64.3703 0.213441V14.0282C64.3703 14.2295 64.4305 14.3837 64.553 14.492C64.7329 14.6367 64.9507 14.7082 65.2106 14.7082H65.8579V15.5164H60.9754V14.7082H61.5715C61.9012 14.7082 62.1462 14.6284 62.3075 14.4701C62.4696 14.3122 62.5505 14.0885 62.5505 13.8012V2.33916C62.5505 1.97909 62.4536 1.71658 62.2605 1.55163C61.9944 1.32054 61.6676 1.2052 61.2807 1.2052H60.3755V0.396992L64.3703 0.213441ZM40.7094 0.397158L41.0105 4.52665H40.2882C40.0027 2.82963 39.966 2.47823 39.3459 1.80232C38.7701 1.17507 37.6729 1.19799 36.722 1.20446L33.3879 1.20536C33.1358 1.20536 32.9468 1.2744 32.8173 1.41124C32.6882 1.54807 32.6242 1.7556 32.6242 2.03672V7.30431H33.9877C34.7175 7.30431 35.3103 7.04139 35.7641 6.51719C36.2192 5.99217 36.4642 5.18562 36.5001 4.10043H37.2423V11.49H36.5001C36.4642 10.2672 36.2155 9.39159 35.753 8.86326C35.2922 8.33452 34.6635 8.07076 33.8697 8.07076H32.6242V13.9961C32.6242 14.2259 32.701 14.4025 32.8561 14.5244C33.0091 14.6472 33.2653 14.708 33.6238 14.708H36.0859C38.7597 14.708 40.3005 13.832 40.7094 10.4082H41.4841L41.2148 15.5162H28.5086V14.708H29.1794C29.6023 14.708 29.8993 14.634 30.0726 14.4864C30.2438 14.34 30.3305 14.1255 30.3305 13.8452V2.03672C30.3305 1.7556 30.2558 1.54807 30.1044 1.41124C29.9542 1.2744 29.7174 1.20536 29.394 1.20536H28.5086V0.397158H40.7094ZM95.5303 5.87274C94.7258 5.87274 94.0653 6.23777 93.5496 6.96743C93.0323 7.69792 92.7744 8.85007 92.7744 10.4251C92.7744 12.0287 93.0306 13.2012 93.5443 13.942C94.0571 14.6832 94.7192 15.0532 95.5303 15.0532C96.3702 15.0532 97.0501 14.6832 97.5707 13.942C98.0906 13.2012 98.3509 11.9891 98.3509 10.3061C98.3509 8.74548 98.0938 7.61606 97.5815 6.91824C97.0678 6.22124 96.3834 5.87274 95.5303 5.87274ZM56.2119 5.87274C55.4083 5.87274 54.747 6.23777 54.2304 6.96743C53.7135 7.69792 53.4561 8.85007 53.4561 10.4251C53.4561 12.0287 53.7123 13.2012 54.2259 13.942C54.7383 14.6832 55.4004 15.0532 56.2119 15.0532C57.0515 15.0532 57.7305 14.6832 58.2512 13.942C58.7718 13.2012 59.0325 11.9891 59.0325 10.3061C59.0325 8.74548 58.7763 7.61606 58.2631 6.91824C57.7495 6.22124 57.0651 5.87274 56.2119 5.87274ZM87.724 0.630896C88.0479 0.630896 88.3309 0.753677 88.5755 0.998413C88.8194 1.24273 88.9411 1.53046 88.9411 1.86119C88.9411 2.18488 88.8227 2.46517 88.5863 2.70288C88.3495 2.94017 88.066 3.05882 87.736 3.05882C87.406 3.05882 87.1209 2.93769 86.88 2.69709C86.6394 2.45649 86.5198 2.17413 86.5198 1.85003C86.5198 1.52674 86.6423 1.24273 86.8853 0.998413C87.1296 0.753677 87.4093 0.630896 87.724 0.630896Z" fill="white"/>
</svg>
