<?xml version="1.0" encoding="UTF-8"?>
<svg xmlns="http://www.w3.org/2000/svg" width="24" height="24" viewBox="0 0 24 24" fill="none">
  <g clip-path="url(#clip0_413_12037)">
    <mask id="mask0_413_12037" style="mask-type:luminance" maskUnits="userSpaceOnUse" x="0" y="0" width="24" height="24">
      <path d="M24 0H0V24H24V0Z" fill="white"></path>
    </mask>
    <g mask="url(#mask0_413_12037)">
      <path d="M1.80436 9.64718L16.6077 13.1383C16.7503 13.1731 16.8768 13.2554 16.9665 13.3717C17.0561 13.4879 17.1036 13.6312 17.101 13.7779V19.3526C17.1014 19.4389 17.0847 19.5244 17.052 19.6042C17.0192 19.684 16.971 19.7566 16.9102 19.8177C16.8493 19.8789 16.777 19.9274 16.6973 19.9606C16.6177 19.9937 16.5323 20.0108 16.446 20.0109C16.3965 20.0138 16.3469 20.0077 16.2996 19.9927L1.49342 16.5028C1.35061 16.4679 1.22395 16.3854 1.13428 16.2689C1.04462 16.1524 0.997297 16.0089 1.00012 15.8619V10.2868C0.999798 10.2004 1.0166 10.1147 1.04954 10.0347C1.08249 9.95476 1.13094 9.88211 1.19209 9.82095C1.25324 9.7598 1.32589 9.71136 1.40585 9.67841C1.48581 9.64546 1.5715 9.62866 1.65798 9.62899C1.70744 9.62703 1.75688 9.63318 1.80436 9.64718Z" fill="black"></path>
      <path d="M21.1972 7.28951L6.39221 4.85861C6.09987 4.73084 5.89851 4.85861 5.89851 5.16915V10.762C5.92337 11.0065 6.01031 11.2406 6.15106 11.4421C6.29182 11.6435 6.48172 11.8057 6.70274 11.9132L21.5061 14.3445C21.7984 14.4722 21.9994 14.3445 21.9994 14.0339V8.44067C22.0028 8.18903 21.9272 7.94265 21.7833 7.73618C21.6394 7.5297 21.4344 7.37349 21.1972 7.28951Z" fill="black"></path>
      <path d="M1.80409 9.17375L16.6074 3.04919C16.8998 2.92141 17.1007 3.04919 17.1007 3.35972V8.95258C17.0761 9.19688 16.9894 9.43083 16.8491 9.63228C16.7087 9.83374 16.5192 9.99601 16.2985 10.1037L1.49315 16.2271C1.20203 16.3553 0.999855 16.2271 0.999855 15.9166V10.3237C1.02492 10.0794 1.11195 9.84556 1.25269 9.64432C1.39343 9.44308 1.58323 9.28111 1.80409 9.17375Z" fill="#FAD749"></path>
      <path d="M6.68455 14.1268L21.4895 8.00227C21.7819 7.87449 21.9832 8.00226 21.9832 8.3128V13.9057C21.9583 14.1502 21.8713 14.3843 21.7305 14.5858C21.5897 14.7873 21.3997 14.9494 21.1786 15.0568L6.39221 21.1802C6.09987 21.3079 5.89851 21.1802 5.89851 20.8696V15.295C5.91965 15.0496 6.0029 14.8136 6.14041 14.6092C6.27793 14.4049 6.46518 14.2389 6.68455 14.1268Z" fill="black"></path>
      <path fill-rule="evenodd" clip-rule="evenodd" d="M15.2934 5.05776L14.471 5.40509C14.4404 5.41046 14.4126 5.42637 14.3924 5.45007C14.3722 5.47377 14.361 5.50377 14.3606 5.53488V6.83201C14.3606 6.85061 14.3606 6.86881 14.3242 6.887L13.5018 7.23433C13.4836 7.25253 13.4654 7.25253 13.4654 7.21614V5.9186C13.4654 5.84528 13.4289 5.82695 13.3558 5.86361L12.5334 6.21094C12.4602 6.24774 12.4238 6.28413 12.4238 6.35731V9.97617C12.4238 10.0492 12.4606 10.0671 12.5342 10.0299L13.3566 9.68262C13.4298 9.64583 13.4662 9.60943 13.4662 9.53625V8.20192C13.4662 8.18332 13.4662 8.16513 13.5026 8.14693L14.325 7.7996C14.3432 7.7814 14.3614 7.7814 14.3614 7.8178V9.15212C14.3614 9.22544 14.398 9.24377 14.471 9.20711L15.2934 8.85978C15.3666 8.82299 15.403 8.7866 15.403 8.71341V5.11275C15.403 5.03943 15.3665 5.0211 15.2934 5.05776ZM9.82941 11.073C9.73204 11.0763 9.635 11.0601 9.54397 11.0254C9.45294 10.9907 9.36976 10.9381 9.29932 10.8708C9.16644 10.7134 9.1008 10.5101 9.11656 10.3048V10.2514C9.11656 10.1782 9.15295 10.1418 9.22614 10.105L10.0304 9.75768C10.1036 9.72129 10.1399 9.73948 10.1399 9.77587V9.83086C10.1405 9.8782 10.1571 9.92396 10.1869 9.96067C10.2168 9.99739 10.2583 10.0229 10.3045 10.033C10.4406 10.0663 10.5843 10.0466 10.7064 9.97804C10.8187 9.93519 10.919 9.86583 10.9988 9.77587C11.049 9.71274 11.0807 9.63685 11.0902 9.55672C11.0902 9.48353 11.0538 9.42895 10.9806 9.42895C10.9074 9.42895 10.7784 9.42895 10.5787 9.44714L10.4141 9.46534C10.1149 9.50632 9.81046 9.48763 9.51848 9.41035C9.28072 9.33716 9.15457 9.11801 9.15457 8.77068C9.1547 8.53301 9.21776 8.29961 9.33733 8.09421C9.47042 7.8588 9.64367 7.64847 9.84923 7.47274C10.0714 7.28946 10.3166 7.13612 10.5787 7.01664C10.8162 6.89614 11.0809 6.83943 11.3469 6.85208C11.4486 6.84753 11.5501 6.86472 11.6447 6.90251C11.7392 6.9403 11.8246 6.99782 11.8952 7.07123C12.0344 7.22601 12.107 7.42937 12.0974 7.63731V7.6555C12.0974 7.72869 12.061 7.76508 11.9878 7.80188L11.1836 8.14921C11.1105 8.18587 11.074 8.18587 11.074 8.14921V8.11281C11.0743 8.06346 11.0607 8.015 11.0349 7.97297C11.009 7.93094 10.9718 7.89701 10.9276 7.87506C10.8622 7.85037 10.7921 7.84081 10.7225 7.84712C10.6529 7.85342 10.5856 7.87541 10.5257 7.91145C10.425 7.95718 10.3325 8.0189 10.2515 8.09421C10.2199 8.12481 10.1954 8.16194 10.1796 8.203C10.1638 8.24407 10.1572 8.28808 10.1602 8.33197C10.1602 8.40515 10.1784 8.44154 10.2334 8.45974C10.3039 8.48377 10.378 8.49606 10.4525 8.49613C10.5168 8.49613 10.6174 8.48711 10.7478 8.47543C10.8026 8.47051 10.8627 8.46513 10.9276 8.45974C10.9643 8.45974 11.0922 8.44141 11.3113 8.40475C11.4094 8.38661 11.5102 8.38859 11.6075 8.41055C11.7048 8.43251 11.7966 8.47401 11.8774 8.53252C11.9552 8.59969 12.0157 8.68455 12.0538 8.77996C12.0919 8.87537 12.1066 8.97855 12.0966 9.08081C12.0988 9.32454 12.0357 9.56442 11.9138 9.77547C11.7855 10.0141 11.6116 10.2253 11.4019 10.3969C11.1695 10.5908 10.9109 10.7507 10.6336 10.872C10.3811 10.9904 10.108 11.0587 9.82941 11.073ZM7.92769 11.4932L8.03727 11.8406C8.05667 11.8956 8.09185 11.9137 8.16261 11.8741L9.04003 11.5102C9.09502 11.4738 9.13142 11.4374 9.13142 11.3824V11.3461L7.99926 8.22049C7.98106 8.1659 7.94467 8.1659 7.88968 8.1841L6.77491 8.6592C6.74668 8.66839 6.72152 8.68517 6.70219 8.70771C6.68286 8.73025 6.67011 8.75767 6.66533 8.78697L5.53318 12.8627C5.51498 12.9177 5.51498 12.9359 5.53318 12.9541C5.55137 12.9723 5.56997 12.9723 5.60636 12.9541L6.48379 12.5902C6.51202 12.581 6.53718 12.5642 6.5565 12.5417C6.57583 12.5192 6.58858 12.4917 6.59336 12.4624L6.70294 12.0237L6.75793 11.9687L7.8727 11.475C7.90949 11.4568 7.92769 11.475 7.92769 11.4932ZM6.97708 11.0727C6.95889 11.0909 6.94069 11.0727 6.94069 11.0545L7.28802 9.61102L7.32441 9.57463C7.32682 9.57458 7.32921 9.57501 7.33144 9.5759C7.33367 9.5768 7.3357 9.57814 7.3374 9.57984C7.3391 9.58154 7.34044 9.58357 7.34133 9.5858C7.34223 9.58803 7.34266 9.59042 7.34261 9.59283L7.68994 10.7076V10.744C7.68299 10.7509 7.67869 10.7579 7.67502 10.7638C7.66909 10.7734 7.66479 10.7804 7.65355 10.7804L6.97708 11.0727ZM2.78944 13.8262C2.88085 13.8734 2.98131 13.9007 3.08409 13.906C3.36414 13.9174 3.64222 13.8543 3.88994 13.7232C4.17704 13.6025 4.44254 13.4357 4.67598 13.2295C4.89382 13.0338 5.07307 12.799 5.20446 12.5373C5.3252 12.2992 5.38784 12.036 5.38722 11.769V11.7508C5.38722 11.7398 5.38052 11.7422 5.35887 11.7498C5.34486 11.7547 5.3246 11.7619 5.29584 11.769L4.47341 12.0796C4.46431 12.0889 4.45056 12.098 4.43682 12.1071C4.42307 12.1162 4.40932 12.1253 4.40022 12.1346L4.39906 12.1357C4.38126 12.1539 4.36383 12.1717 4.36383 12.1896C4.3665 12.3339 4.3216 12.4751 4.23606 12.5915C4.15136 12.7165 4.03003 12.8123 3.88873 12.8656C3.83779 12.8995 3.77866 12.9191 3.71756 12.9223C3.65645 12.9255 3.59561 12.9122 3.5414 12.8838C3.49491 12.8519 3.45829 12.8076 3.4357 12.7559C3.41312 12.7042 3.40547 12.6473 3.41363 12.5915V11.4399C3.40807 11.2894 3.45305 11.1414 3.5414 11.0194C3.6261 10.8943 3.74743 10.7986 3.88873 10.7452C3.93968 10.7113 3.9988 10.6918 4.0599 10.6886C4.12101 10.6854 4.18185 10.6987 4.23606 10.727C4.32744 10.7634 4.36383 10.873 4.36383 11.0194V11.0558C4.36383 11.074 4.38203 11.074 4.43702 11.0558L4.45521 11.0376L5.27764 10.6357C5.33264 10.5993 5.36903 10.5625 5.36903 10.5261C5.38447 10.3094 5.31939 10.0945 5.18626 9.92281C5.1179 9.85024 5.03589 9.79188 4.94492 9.75108C4.85396 9.71028 4.75583 9.68785 4.65617 9.68506C4.38473 9.67582 4.11507 9.73228 3.87013 9.84963C3.58106 9.97389 3.31526 10.1464 3.08409 10.3599C2.86481 10.5627 2.68507 10.8044 2.554 11.0728C2.4311 11.3229 2.3685 11.5983 2.37124 11.877V12.9736C2.35639 13.2073 2.42078 13.4392 2.554 13.6318C2.61775 13.7126 2.69802 13.7789 2.78944 13.8262Z" fill="black"></path>
      <path fill-rule="evenodd" clip-rule="evenodd" d="M17.415 11.402V15.0026C17.415 15.0758 17.4514 15.094 17.5072 15.0576L18.3297 14.7103C18.4028 14.6735 18.4392 14.6371 18.4392 14.5639V13.6683C18.4391 13.6485 18.4455 13.6291 18.4574 13.6133L18.6766 13.2296C18.6835 13.2226 18.6878 13.2157 18.6915 13.2097C18.6974 13.2001 18.7017 13.1932 18.713 13.1932C18.7312 13.175 18.7494 13.175 18.7494 13.1932L19.48 14.1806C19.4965 14.1969 19.5179 14.2075 19.5409 14.2108C19.5639 14.2141 19.5873 14.2099 19.6078 14.1988L20.5216 13.8151C20.5766 13.7787 20.613 13.7419 20.613 13.7055C20.6142 13.6955 20.6133 13.6855 20.6101 13.6759C20.607 13.6664 20.6017 13.6577 20.5948 13.6505L19.4432 12.1698C19.4249 12.1698 19.4249 12.1515 19.4432 12.1148L20.5398 10.1226C20.5543 10.1011 20.5607 10.0752 20.558 10.0494C20.558 10.013 20.5398 10.013 20.4848 10.0312L19.5528 10.415C19.4986 10.4353 19.4534 10.4741 19.425 10.5245L18.5112 12.2062C18.5043 12.2131 18.5 12.2201 18.4963 12.226C18.4904 12.2356 18.4861 12.2426 18.4748 12.2426C18.4657 12.2426 18.4612 12.2426 18.4589 12.2403C18.4566 12.238 18.4566 12.2335 18.4566 12.2244V10.9632C18.4566 10.8899 18.4201 10.8716 18.347 10.9083L17.5246 11.2556C17.4514 11.2924 17.415 11.3288 17.415 11.402ZM14.7823 16.0997C14.6795 16.0944 14.5791 16.0672 14.4877 16.0199C14.3962 15.9726 14.316 15.9064 14.2522 15.8256C14.119 15.6329 14.0546 15.401 14.0695 15.1673V14.0707C14.0667 13.792 14.1293 13.5166 14.2522 13.2665C14.3833 12.9981 14.5631 12.7564 14.7823 12.5536C15.0104 12.3362 15.277 12.1632 15.5684 12.0434C15.8133 11.926 16.083 11.8695 16.3544 11.8788C16.4541 11.8816 16.5522 11.904 16.6432 11.9448C16.7341 11.9856 16.8161 12.044 16.8845 12.1165C17.0176 12.2883 17.0827 12.5031 17.0673 12.7198C17.0673 12.7562 17.0309 12.793 16.9759 12.8294L16.1535 13.2313L16.1353 13.2495C16.0803 13.2677 16.0621 13.2677 16.0621 13.2495V13.2131C16.0621 13.0667 16.0257 12.9572 15.9343 12.9208C15.8801 12.8924 15.8193 12.8791 15.7581 12.8823C15.697 12.8855 15.6379 12.9051 15.587 12.939C15.4457 12.9923 15.3243 13.0881 15.2396 13.2131C15.1513 13.3351 15.1063 13.4831 15.1119 13.6336V14.7852C15.1037 14.841 15.1114 14.898 15.1339 14.9496C15.1565 15.0013 15.1931 15.0456 15.2396 15.0775C15.2939 15.1059 15.3547 15.1192 15.4158 15.116C15.4769 15.1128 15.536 15.0932 15.587 15.0593C15.7283 15.006 15.8496 14.9102 15.9343 14.7852C16.0198 14.6689 16.0647 14.5276 16.0621 14.3833C16.0621 14.3655 16.0795 14.3477 16.0973 14.3295L16.0985 14.3283C16.1076 14.319 16.1213 14.3099 16.1351 14.3008C16.1488 14.2917 16.1626 14.2826 16.1716 14.2733L16.9941 13.9628C17.0228 13.9556 17.0431 13.9485 17.0571 13.9435C17.0788 13.9359 17.0855 13.9335 17.0855 13.9446V13.9628C17.0861 14.2297 17.0234 14.493 16.9027 14.731C16.7713 14.9927 16.5921 15.2275 16.3742 15.4232C16.1407 15.6293 15.8753 15.7959 15.5882 15.9165C15.3399 16.0461 15.0623 16.1092 14.7823 16.0997ZM12.7371 16.6293L12.8466 16.9766C12.8466 17.0134 12.8818 17.0316 12.9546 16.9916L13.832 16.6276C13.887 16.5913 13.9234 16.5549 13.9234 16.4999V16.4635L12.7913 13.3379C12.7731 13.2833 12.7367 13.2833 12.6817 13.3015L11.5669 13.7766C11.5387 13.7858 11.5135 13.8026 11.4942 13.8251C11.4749 13.8477 11.4621 13.8751 11.4573 13.9044L10.3252 17.9802C10.307 18.0352 10.307 18.0534 10.3252 18.0716C10.3434 18.0897 10.362 18.0897 10.3984 18.0716L11.2758 17.7076C11.304 17.6985 11.3292 17.6817 11.3485 17.6591C11.3678 17.6366 11.3806 17.6092 11.3854 17.5799L11.4949 17.1412L11.5499 17.0862L12.6821 16.6111C12.7189 16.5929 12.7371 16.6111 12.7371 16.6293ZM11.7865 16.2087C11.7683 16.2269 11.7501 16.2087 11.7501 16.1906L12.0974 14.7471C12.1044 14.7401 12.1086 14.7332 12.1123 14.7272C12.1183 14.7176 12.1225 14.7107 12.1338 14.7107C12.1362 14.7106 12.1386 14.711 12.1408 14.7119C12.1431 14.7128 12.1451 14.7142 12.1468 14.7159C12.1485 14.7176 12.1498 14.7196 12.1507 14.7218C12.1516 14.7241 12.152 14.7265 12.152 14.7289L12.4993 15.8436V15.88C12.4924 15.887 12.4881 15.8939 12.4844 15.8999C12.4785 15.9095 12.4742 15.9164 12.4629 15.9164L11.7865 16.2087ZM9.81073 16.4103C9.79253 16.4103 9.79253 16.4103 9.79253 16.3921C9.79253 16.3739 9.79253 16.3739 9.81073 16.3541C10.0525 16.1109 10.1901 15.7832 10.1944 15.4403C10.1944 15.0562 10.0849 14.837 9.84712 14.7638C9.48729 14.723 9.12359 14.7936 8.80513 14.966L7.41622 15.5511C7.34303 15.5879 7.30664 15.6243 7.30664 15.6975V19.2985C7.30664 19.3716 7.3433 19.3902 7.41662 19.3543L8.86053 18.7511C9.24895 18.5983 9.59852 18.361 9.88392 18.0564C10.1308 17.787 10.2677 17.4348 10.2676 17.0694C10.2774 16.9096 10.2393 16.7505 10.1581 16.6125C10.118 16.5559 10.0662 16.5086 10.0063 16.4738C9.9464 16.4389 9.87971 16.4173 9.81073 16.4103ZM8.33043 16.5931V16.0816C8.33505 16.0541 8.34747 16.0285 8.36683 16.0084L8.78734 15.8256C9.06148 15.7157 9.18926 15.7525 9.18926 15.9534C9.18926 16.1544 9.04329 16.3189 8.78734 16.4285L8.36683 16.6113C8.34863 16.6295 8.33043 16.6295 8.33043 16.5931ZM8.84233 17.2514C9.09828 17.1418 9.22605 17.1956 9.22605 17.3977C9.22114 17.5054 9.18056 17.6081 9.11129 17.6908C9.04203 17.7734 8.94753 17.831 8.84233 17.8546L8.36723 18.0568C8.34903 18.075 8.33084 18.075 8.33084 18.0386V17.5085C8.33084 17.4899 8.33084 17.4717 8.36723 17.4535L8.84233 17.2514Z" fill="white"></path>
    </g>
  </g>
  <defs>
    <clipPath id="clip0_413_12037">
      <rect width="24" height="24" fill="white"></rect>
    </clipPath>
  </defs>
</svg>
