<?xml version="1.0" encoding="UTF-8"?>
<svg fill="none" height="38" width="107" viewBox="0 0 107 38" xmlns="http://www.w3.org/2000/svg">
<path d="m24.329 7c0.3155 0.06636 0.6349 0.1174 0.9464 0.20034 2.7893 0.716 4.7242 3.1451 4.7107 5.9133v1.9868c-0.0183 0.0906 0.0435 0.1784 0.138 0.1959 0.0041 8e-4 0.0083 0.0014 0.0124 0.0019 0.6362 0.1863 0.9996 0.6049 1.0648 1.2403 0.0508 0.7403 0.4659 1.4132 1.1181 1.812 0.5164 0.3525 0.7292 0.9886 0.5231 1.5632-0.29 0.6987-0.2087 1.4888 0.2183 2.1196 0.3304 0.527 0.2583 1.1996-0.177 1.6512-0.55 0.5219-0.8058 1.2649-0.6882 1.9982 0.0892 0.6624-0.2821 1.2251-0.9317 1.4854-0.6759 0.2563-1.1886 0.7997-1.387 1.47-0.1743 0.6493-0.8033 1.0898-1.5014 1.0515-0.6854-0.0302-1.3488 0.2358-1.8076 0.7248-0.2326 0.2634-0.5319 0.465-0.8692 0.5856h-0.7068l-0.3533-0.1543c-0.0592-0.0247-0.1188-0.0481-0.1791-0.069-0.7534-0.2552-1.4642-0.1466-2.1537 0.2233h-0.7587c-0.2556-0.1109-0.5165-0.2117-0.7015-0.4286-0.4944-0.6012-1.2649-0.9316-2.0618-0.8843-0.6412 0.0042-1.2066-0.4017-1.383-0.9928-0.1942-0.7104-0.7362-1.2862-1.4535-1.5442-0.6115-0.2493-0.9712-0.8622-0.8759-1.4928 0.109-0.6333-0.0768-1.2806-0.5085-1.7713-0.2399-0.2461-0.4308-0.5324-0.563-0.8447v-0.5869c0.0693-0.1751 0.1508-0.3456 0.2436-0.5105 0.3804-0.5835 0.458-1.3027 0.2103-1.9485-0.2596-0.6246-0.0206-1.338 0.5697-1.701 0.6179-0.3951 1.0039-1.0474 1.0409-1.7584 0.0375-0.571 0.4407-1.0598 1.0116-1.2263 0.1265-0.0133 0.2178-0.1221 0.2041-0.2433-6e-4 -4e-3 -0.0011-8e-3 -0.0018-0.0119 0-0.7746-0.0199-1.5504 0.0187-2.3237 0.1391-2.4805 1.843-4.6285 4.2993-5.4194 0.4628-0.12927 0.9331-0.23275 1.4083-0.31008l1.3244-0.00128zm16.951 17.202c0.1238 0.0461 0.1491 0.0957 0.0972 0.2107-0.0881 0.1836-0.1654 0.372-0.2316 0.564-0.0506 0.1517-0.1198 0.1543-0.2556 0.0943-0.2892-0.1368-0.6095-0.2025-0.9317-0.1914-0.1451 0.0077-0.2929 0.037-0.3315 0.1979-0.0386 0.1607 0.0879 0.2475 0.2143 0.31 0.3248 0.1634 0.6656 0.3013 0.9797 0.4811 0.576 0.3086 0.7893 1.0017 0.4805 1.5606-0.1705 0.3374-0.491 0.5826-0.8718 0.6674-0.6019 0.1556-1.2398 0.1249-1.8223-0.0881-0.1235-0.0237-0.2063-0.1355-0.189-0.2552 0.0147-0.2744 4e-3 -0.5435 4e-3 -0.8333 0.4446 0.1941 0.8745 0.3471 1.3471 0.3356 0.0708 0.0013 0.1416-0.0032 0.2116-0.0127 0.1274-0.0157 0.2324-0.1033 0.2662-0.2221 0.0262-0.1156-0.0376-0.2327-0.1517-0.2781-0.2037-0.1111-0.4166-0.2055-0.6256-0.3063-0.1118-0.0536-0.2263-0.1021-0.3341-0.1621-0.5657-0.3164-0.788-0.7847-0.6656-1.387 0.0959-0.4529 0.5391-0.8038 1.1221-0.8933 0.5719-0.0755 1.1545-0.0038 1.6878 0.208zm10.646-0.0688c0.0932 0.0319 0.1451 0.0663 0.0839 0.1772-0.0612 0.111-0.0719 0.1622-0.2156 0.1008-0.4462-0.1979-0.9534-0.23-1.423-0.0906-0.6655 0.198-0.9956 0.6815-1.0968 1.312-0.0825 0.4382-0.0439 0.8895 0.1118 1.3091 0.1957 0.5682 0.7522 0.9501 1.3764 0.9444 0.3291 0.0207 0.6598-0.0083 0.9796-0.0855 0.0493-0.0142 0.1332-0.0614 0.1505 0.0319 0.0173 0.093 0.0678 0.1914-0.0733 0.2257-0.6495 0.1609-1.3004 0.2222-1.926-0.0777-0.5817-0.2783-0.8506-0.7746-0.9571-1.3654-0.039-0.177-0.0551-0.3578-0.0479-0.5385 0.0266-0.7989 0.2516-1.5059 1.0556-1.8989 0.6455-0.3152 1.3151-0.2691 1.9819-0.0445zm-7.1665 0.0779c0.0972 0.037 0.1092 0.0803 0.0706 0.1646-0.0919 0.2067-0.1864 0.4133-0.2662 0.6264-0.0453 0.1276-0.1038 0.1137-0.2077 0.0716-0.3169-0.1498-0.6698-0.2165-1.0222-0.1927-0.1331 0.0166-0.2476 0.0713-0.2729 0.2067-0.013 0.116 0.0576 0.2259 0.1717 0.2667 0.2662 0.1276 0.5457 0.2552 0.8173 0.393 0.6921 0.3407 0.9317 0.7847 0.7747 1.4407-0.1198 0.4887-0.4752 0.7732-0.9557 0.902-0.6093 0.163-1.2575 0.1293-1.8449-0.0957-0.1098-0.0218-0.1828-0.1219-0.1664-0.2284 0.0186-0.2691 0.0093-0.5409 0.0093-0.8447 0.4579 0.1965 0.8972 0.3523 1.379 0.333 0.0943 0.0051 0.1886-0.0106 0.2755-0.0459 0.2117-0.1045 0.2423-0.2793 0.0666-0.4337-0.1376-0.0998-0.2884-0.1812-0.4486-0.2426-0.2076-0.1033-0.4259-0.1902-0.6282-0.3024-0.5231-0.2896-0.6815-0.7465-0.595-1.2914 0.0798-0.4988 0.4379-0.7657 0.9131-0.8933 0.6655-0.1722 1.3031-0.0738 1.93 0.1661zm25.957-0.2451c0.2978 0.0068 0.5923 0.0623 0.8705 0.1646 0.1078 0.0407 0.1504 0.0829 0.0892 0.1991-0.0506 0.0932-0.0771 0.1441-0.2036 0.0881-0.388-0.1709-0.8224-0.2188-1.2407-0.1366-0.7292 0.1339-1.2217 0.6802-1.2991 1.4367-0.0504 0.4964-0.0319 0.9917 0.229 1.4459 0.2232 0.414 0.657 0.6849 1.142 0.7132 0.4145 0.0432 0.8337 0.0059 1.2326-0.1096 0.0785 0.2348-0.0173 0.3088-0.2195 0.3393-0.3836 0.0753-0.7769 0.0925-1.1662 0.0512-0.6572-0.0656-1.213-0.4954-1.4187-1.0974-0.2427-0.617-0.2427-1.2973 0-1.9141 0.3419-0.8933 1.1472-1.2072 1.9845-1.1804zm-4.2568 0.0522c0.1105 0 0.1904 0 0.193 0.1469 0.0022 0.1223-0.0639 0.1373-0.1454 0.1389l-1.6981 2e-4c-0.1544 0-0.197 0.0381-0.1932 0.1863 0.0108 0.4579 0.0095 0.9174 0 1.3768 0 0.1276 0.0414 0.1621 0.1719 0.1607 0.5258-0.0063 1.0515 0 1.5773 0 0.1038 0 0.1717 0 0.173 0.1378 0.0012 0.1148-0.0486 0.134-0.1245 0.1365l-1.6258 2e-4c-0.1331 0-0.173 0.0319-0.1704 0.1606 8e-3 0.4965 0 0.9929 0 1.4892 0 0.1162 0 0.1965-0.1678 0.1992-0.1676 0.0024-0.1676-0.0791-0.1664-0.1941 0.0054-0.6431 0.0028-1.2747 0.0028-1.9063v-1.8273c0-0.1469 0.0199-0.2093 0.1968-0.2056 0.6591 0.0116 1.3179 0 1.9768 0zm7.2344-0.0191c0.0977-0.0025 0.1319 0.0471 0.1542 0.1054l0.0309 0.0886c0.3106 0.7512 0.6211 1.5028 0.9318 2.2548 0.2022 0.4938 0.4085 0.9877 0.6043 1.4842 0.0211 0.056 0.1409 0.1619 0 0.1925-0.1013 0.0217-0.2504 0.0728-0.317-0.0968-0.1489-0.3828-0.3194-0.7479-0.4578-1.1295-0.0251-0.1424-0.1654-0.2386-0.3142-0.2155-0.4392 0.0139-0.8785 0.0088-1.3176 0-0.1098-0.0173-0.2143 0.0513-0.2371 0.1556-0.1331 0.3445-0.2915 0.6776-0.4139 1.0208-0.0852 0.231-0.197 0.342-0.4686 0.2514l1.4762-3.5551c0.0492-0.1187 0.0945-0.2385 0.1504-0.3535 0.0399-0.0804 0.0319-0.1989 0.1784-0.2029zm-18.7 0.0205c0.1157 0 0.1837 0 0.1863 0.1493 0.0023 0.128-0.0687 0.1378-0.1528 0.138l-1.6907-2e-4c-0.1544 0-0.197 0.0383-0.193 0.1863 0.0106 0.3829 0.0093 0.7657 0 1.1485 0 0.1466 0.0399 0.1951 0.1969 0.1927 0.4938-0.0091 0.9891 0 1.4829 0 0.0959 0 0.2396-0.0702 0.2436 0.1351 0.0039 0.2056-0.1331 0.1443-0.2316 0.1456h-1.5069c-0.1331 0-0.1889 0.0241-0.1862 0.1697 0.0106 0.4594 0.0119 0.9174 0 1.3769 0 0.1608 0.0625 0.1798 0.2023 0.1785h1.6477c0.116 0 0.1878 0 0.1865 0.1507-0.0013 0.1506-0.0612 0.1557-0.1837 0.1557-0.6655 0-1.3191-0.0064-1.978 0-0.1464 0-0.1863-0.0383-0.185-0.1761 0.0039-0.6407 0-1.2724 0-1.9039v-1.8734c0-0.1415 0.0386-0.1761 0.1837-0.1734 0.6656 0.0077 1.3191 0 1.978 0zm2.698 0.0523c0.6191 0.1123 0.9518 0.4184 0.9904 0.8933 0.0531 0.6699-0.1757 1.0349-0.7986 1.2695l-0.0812 0.0319 1.1421 1.8441c-0.2223 0.0523-0.3727 0.0459-0.4939-0.1659-0.2822-0.4927-0.5964-0.9686-0.8878-1.4573-0.0481-0.1035-0.1612-0.1641-0.2782-0.1493-0.2275 0.0123-0.4555 0.0123-0.683 0-0.1542-0.0102-0.1797 0.0447-0.1769 0.1774 8e-3 0.4811 0 0.9633 0 1.4445 0 0.1059 0.0067 0.1863-0.153 0.1812-0.1331 0-0.1692-0.0523-0.1692-0.1748v-3.7925c0-0.0753-0.0133-0.1544 0.1105-0.1518 0.4925 0.014 0.9891-0.0396 1.4788 0.0497zm23.68-0.0537c0.1117 0 0.1876 0 0.189 0.1481 1e-3 0.1234-0.0644 0.1377-0.1448 0.139h-1.7215c-0.1331 0-0.1743 0.0295-0.1717 0.1595 0.0088 0.4059 0.0088 0.8121 0 1.2188 0 0.1276 0.0426 0.1505 0.1611 0.1493 0.5022-0.0051 1.0045-0.0051 1.5068 0 0.0958 0 0.2395-0.074 0.2435 0.134 0.0042 0.208-0.153 0.1442-0.2542 0.1454-0.4858 0-0.9729 0.0077-1.4642 0-0.1451 0-0.2036 0.023-0.1983 0.18 0.0121 0.4581 0.0121 0.9174 0 1.3768 0 0.148 0.0492 0.171 0.1863 0.1697 0.5498-0.0076 1.0982 0 1.6479 0 0.1199 0 0.2063 0 0.2025 0.1583-0.0036 0.1356-0.0656 0.1456-0.1512 0.1449l-2.0225-7e-4c-0.1638 0-0.1918-0.0524-0.1904-0.1927 0.0093-0.6266 0.0053-1.2507 0.0053-1.8758v-1.8503c0-0.148 0.0226-0.208 0.1983-0.2043l0.6619 0.0045 1.3162-0.0045zm-19.366-0.0036c0.1105 0 0.1689 0.0113 0.1689 0.1429 0 0.1313-0.0492 0.1479-0.1635 0.1453-0.3381 0-0.675 0.0064-1.0131 0-0.1611 0-0.2129 0.0319-0.209 0.194 0.0174 0.5729 0.0106 1.1447 0.0106 1.7163v1.7163c0 0.1276 0 0.2131-0.177 0.2118-0.1263-8e-4 -0.1516-0.0519-0.1558-0.1191l1e-4 -3.496c0-0.167-0.0305-0.2348-0.2248-0.2244-0.3369 0.0177-0.675 0-1.0131 0-0.0985 0-0.1611 0-0.1583-0.1276 0.0025-0.1276 0.0238-0.1595 0.1558-0.1595 0.9264 0.0051 1.8528 0.0051 2.7792 0zm5.44 0.0024c0.1384-0.0039 0.1557 0.0664 0.1557 0.1774-0.0028 0.624-0.0013 1.2493-0.0013 1.8733v1.8975c0 0.1148-0.0094 0.1786-0.1597 0.1748-0.1503-0.0039-0.1625-0.0664-0.1625-0.1812v-3.7708c0-0.1276 0.0294-0.1671 0.1678-0.171zm-4.5004 0c0.1543 0.0051 0.1691 0.046 0.1677 0.171-0.0045 1.2574-0.0045 2.5143 0 3.7708 0 0.1136-0.0121 0.1798-0.1611 0.1813-0.1489 0.0012-0.1623-0.0588-0.161-0.1749 0.0028-0.6241 0-1.2492 0-1.8734v-1.8973c0-0.1098 0-0.1826 0.1544-0.1775zm-17.201 0.0012c0.2429 0.0135 0.4865 0.0135 0.7294 0 0.1611-0.0088 0.209 0.0346 0.2076 0.1954-0.0079 0.9251 1e-4 1.8514-0.0079 2.7765 0 0.1686 0.0319 0.2324 0.2249 0.2248 0.4073-0.0166 0.816 0 1.2246-0.0077 0.1451 0 0.2156 0.023 0.2037 0.1838-0.0112 0.1954-0.0112 0.3913 0 0.5869 0 0.1122-0.0253 0.1607-0.1544 0.1596-0.8325-0.0044-1.6648-0.0044-2.4971 0-0.1451 0-0.1664-0.0587-0.1651-0.1761-0.0027-0.624-4e-3 -1.2493-4e-3 -1.8733 0-0.6176 8e-3 -1.234 0-1.8517 0-0.1863 0.0599-0.2283 0.2383-0.2182zm32.683-0.0025c0.1143 0 0.1423 0.0345 0.1451 0.1404 0.0025 0.1059-0.0346 0.1531-0.1571 0.1493-0.3367-0.0077-0.6748 0.0076-1.0116-0.0064-0.1744-0.0076-0.2211 0.0357-0.2196 0.208 0.0093 1.1357 0 2.2727 0 3.4084 0 0.0765 0.0612 0.1952-0.0919 0.2143-0.1532 0.0192-0.2329 0.0179-0.2289-0.1722 0.0306-0.5755 0.0226-1.1549 0.0226-1.7342v-1.738c0-0.1531-0.0479-0.1863-0.197-0.1812-0.3527 0.0102-0.7068 0-1.0648 0-0.1053 0-0.1544-0.0178-0.1531-0.134 0.0013-0.1161 0.0359-0.1556 0.1611-0.1544h2.7952zm-54.798-8.2222c-3.4738 0-6.2899 2.6997-6.2899 6.03 0 3.296 2.7952 5.9975 6.1815 6.0357 3.4856 0.0487 6.3524-2.6207 6.4031-5.9623 4e-4 -0.0249 6e-4 -0.0498 6e-4 -0.0748l-0.0053 0.0014c0-3.3303-2.816-6.03-6.29-6.03zm50.076 8.7441-0.7454 1.8465h1.4642l-0.7188-1.8465zm-17.171-0.2323c-0.1064 0-0.109 0.0512-0.1076 0.1276 0.0038 0.2501 0.0025 0.5053 0.0025 0.762h0.0013v0.7439c0 0.1008 0.0175 0.1493 0.1331 0.1442 0.3048-0.0115 0.6125 0 0.9159-0.018 0.5232-0.0356 0.8571-0.3611 0.8784-0.828 0.024-0.5233-0.2128-0.795-0.7693-0.8933-0.3501-0.0652-0.7042-0.0204-1.0543-0.0384zm-30.846-6.4427c0.5896 0 1.178 0.0089 1.7676 0 0.2237 0 0.2463 0.0587 0.1811 0.2437-0.189 0.5347-0.4659 0.9851-1.0782 1.1561-0.1452 0.032-0.2943 0.0453-0.4432 0.0396-0.7375 0.0153-1.4762-0.0332-2.2123 0.028-1.2113 0.0996-1.7517 0.5334-1.9966 1.6692-0.1319 0.6189-0.2116 1.247-0.2383 1.8783-0.0426 0.9443 0.5205 1.276 1.3138 1.3398 1.1833 0.0868 2.3706 0.023 3.5553 0.0383 0.3434 0 0.3434 0 0.2356 0.3217-0.2529 0.7438-0.7827 1.1203-1.5973 1.1139-0.965-0.0075-1.9327 0.0383-2.8964-0.0268-0.645-0.0365-1.2689-0.2337-1.8103-0.5716-0.7189-0.4227-1.1508-1.1785-1.1354-1.9869-0.0093-0.6725 0.1332-1.3308 0.2157-1.9958 0.045-0.3958 0.1519-0.783 0.3168-1.1484 0.4991-1.1025 1.4309-1.6717 2.6102-1.9294 0.5291-0.1103 1.0691-0.165 1.6106-0.1634 0.5338-0.0089 1.0675-0.0063 1.6013-0.0063zm45.16-2.8482c0.7908 0 1.5534 0.0676 2.271 0.3828 1.0474 0.4518 1.5465 1.2621 1.4641 2.3607-0.0458 0.6455-0.1289 1.2878-0.2489 1.9243-0.2264 1.2034-0.9317 2.0494-2.1498 2.4322-1.3192 0.4274-2.7449 0.4478-4.0771 0.0587-0.7773-0.2246-1.4082-0.6559-1.7077-1.4305-0.1274-0.3578-0.1729-0.7378-0.1331-1.114 0.0396-0.6536 0.1287-1.3034 0.2662-1.9447 0.3288-1.4368 1.3006-2.2816 2.8738-2.5521 0.4766-0.0746 0.9586-0.1138 1.4415-0.1174zm21.196 0.2221c1.0302 0.2756 1.7702 0.86 1.9194 1.9549 0 0.0089 0.0226 0.0153 0.0358 0.0242l-0.0025 0.7644c-0.0896 0.4165-0.1523 0.8381-0.1878 1.262-0.1331 1.054-0.5325 1.96-1.5147 2.5521-0.5035 0.2944-1.0675 0.4807-1.6532 0.5462-1.0011 0.1276-2.0046 0.1569-2.987-0.1174-0.7601-0.2118-1.4121-0.5781-1.7782-1.2965-0.1491-0.2917-0.224-0.6131-0.2184-0.9379 0.0118-0.8349 0.1203-1.6662 0.3236-2.4781 0.2941-1.1676 1.0808-1.9141 2.2773-2.2395 1.2338-0.3503 2.5451-0.3623 3.7857-0.0344zm-40.284-0.0039c0.9065 0.2412 1.6146 0.7299 1.8635 1.6704 0.0622 0.2414 0.0873 0.4904 0.0745 0.7388-0.0251 0.7671-0.1281 1.5299-0.3074 2.2778-0.3395 1.3347-1.2978 2.0595-2.6622 2.3518-0.5275 0.1105-1.067 0.1588-1.6066 0.1442-0.8226 0.0153-1.5973-0.0702-2.3214-0.4033-1.0302-0.4734-1.5094-1.2492-1.4269-2.3415 0.0459-0.6453 0.1322-1.2876 0.2583-1.9231 0.2582-1.276 1.0315-2.1246 2.34-2.4806 1.2348-0.349 2.5467-0.361 3.7882-0.0345zm-7.1066-0.0548c0.2077 0 0.209 0.065 0.1624 0.2169-0.2383 0.7656-0.6922 1.0987-1.5281 1.0987-0.5497 0-1.0994-0.0166-1.6492 0-1.1367 0.0408-1.8475 0.3828-2.0631 1.6142-0.1038 0.5168-0.1701 1.0401-0.1984 1.5657-0.0239 0.8575 0.3568 1.2453 1.2566 1.2888 0.7886 0.0383 1.5773 0.0256 2.3665 0.0206l0.7894-3e-4c0.3368 0 0.3368 0 0.2356 0.3051-0.2209 0.6636-0.7107 1.008-1.4388 1.0107h-1.2153c-0.6203-0.0166-1.3311 0.051-2.0246-0.1136-0.3584-0.0826-0.7009-0.2196-1.0142-0.4058-0.7188-0.43-1.0902-1.0578-1.0742-1.863 0.0096-0.8053 0.1191-1.607 0.3261-2.3875 0.3447-1.2621 1.2738-1.9358 2.5596-2.2089 0.4446-0.0937 0.8985-0.1411 1.3537-0.1416h3.156zm12.713 0.0395c0.2971 0.0503 0.5572 0.2209 0.7135 0.4683 0.5924 0.9213 1.1979 1.8362 1.7944 2.7537 0.0452 0.0689 0.0958 0.1353 0.1489 0.2119 0.9131-0.9928 1.8236-1.9664 2.7142-2.9579 0.2894-0.3229 0.7111-0.5092 1.1553-0.5105 0.3142-0.014 0.6282 0 0.9424-0.0089 0.1677-0.0077 0.1918 0.0523 0.173 0.1914-0.1038 0.7759-0.1997 1.5517-0.3008 2.3275-0.1504 1.1574-0.3074 2.3124-0.4511 3.471-0.0854 0.6839-0.5711 1.1139-1.2912 1.1166h-0.8254c-0.1331 0-0.1729-0.0308-0.1544-0.1646 0.1092-0.8053 0.209-1.6131 0.3115-2.4245 0.0612-0.4774 0.1234-0.9546 0.1864-1.4319l-0.0533-0.014-1.0342 1.2467c-0.3661 0.4415-0.728 0.8868-1.0982 1.3259-0.3993 0.4772-0.8186 0.4427-1.1181-0.0971-0.4126-0.7425-0.8184-1.4879-1.2272-2.2318l-0.1611-0.2948c-0.0681 0.2468-0.1106 0.4994-0.1264 0.7542-0.1052 0.753-0.1984 1.507-0.2929 2.2612-0.0544 0.6136-0.5956 1.0815-1.2379 1.0707-0.2981 0-0.5976-0.0102-0.8956 0-0.1705 0.0075-0.1918-0.0575-0.1732-0.1941 0.1013-0.7656 0.1983-1.5313 0.2956-2.3071l0.547-4.3003c0.0386-0.3063 0.0306-0.3114 0.3554-0.305l0.4427-0.0064c0.2212-2e-3 0.442 0.0046 0.6607 0.0498zm19.746-0.0408 1.8715 0.0012c0.7254 0.0102 1.5827-0.0344 2.4332 0.0894 0.5706 0.0617 1.1197 0.2453 1.6067 0.5372 0.6655 0.4262 0.9597 1.0425 0.953 1.7865-0.0119 0.798-0.1078 1.5927-0.2863 2.3721-0.2662 1.2212-1.1113 1.9141-2.3626 2.1694-0.5073 0.101-1.0246 0.1503-1.5426 0.1467h-2.5931c-0.2354 0.0078-0.4709-0.02-0.6974-0.0829-0.4087-0.1277-0.5724-0.3623-0.5192-0.7657 0.1759-1.3577 0.3581-2.7154 0.5325-4.0744 0.0173-0.1276 0.0745-0.157 0.1956-0.1544h0.9424c0.6003 0.0076 0.997 0.4593 0.9211 1.0374-0.1118 0.8588-0.2196 1.7177-0.3287 2.5751-0.0094 0.0689-0.0599 0.1646 0.076 0.162 0.6734-0.0139 1.3509 0.0626 2.0177-0.0906 0.6532-0.1239 1.1558-0.626 1.2579-1.2569 0.1106-0.5308 0.1898-1.0671 0.2369-1.6065 0.0888-0.9835-0.3824-1.4939-1.4136-1.5313-0.7452-0.0268-1.4921-0.0089-2.2388-0.0115h-0.2356c-0.7348 0-1.0649-0.2922-1.122-0.9953-0.0279-0.3075-0.0279-0.3075 0.2954-0.3075zm-27.564 1.1408c-0.9411 0.0625-1.5068 0.5244-1.753 1.4036-0.0775 0.3146-0.1317 0.634-0.1624 0.9558-0.0586 0.4543-0.1531 0.906-0.1185 1.3692 0.0386 0.5104 0.2982 0.8397 0.7987 0.9979 0.2723 0.0814 0.5579 0.1139 0.8425 0.0957h-0.0013c1.2991 0 1.9127-0.4428 2.151-1.5644 0.131-0.6191 0.215-1.2464 0.2516-1.8771 0.0479-0.8154-0.3634-1.2761-1.21-1.368-0.2652-0.0278-0.5327-0.032-0.7986-0.0127zm20.916 0.0051c-0.897 0.0408-1.4722 0.4772-1.7424 1.2977-0.0821 0.2672-0.1355 0.5417-0.1597 0.8193-0.0572 0.5231-0.1903 1.0387-0.1557 1.5695 0.0386 0.5883 0.3114 0.9022 0.9038 1.063 0.2465 0.0597 0.5011 0.0825 0.7547 0.0676h0.3675c0.7539 4e-3 1.4237-0.4607 1.6557-1.1485 0.1054-0.2994 0.1725-0.61 0.1997-0.9251 0.0587-0.4926 0.1745-0.98 0.1638-1.4777-0.0174-0.7541-0.3873-1.1484-1.1647-1.2505-0.2731-0.0297-0.5485-0.0348-0.8227-0.0153zm19.531-0.0013c-1.0422 0-1.7225 0.5104-1.9367 1.4955-0.1372 0.6559-0.2263 1.3204-0.2662 1.9881-0.0521 0.7555 0.3274 1.1791 1.1154 1.3106 0.1928 0.0239 0.3874 0.0321 0.5817 0.0242h0.3526c0.7638-7e-3 1.4336-0.4903 1.652-1.1918 0.0844-0.2486 0.1402-0.5055 0.1664-0.7657 0.0639-0.5665 0.2036-1.1267 0.169-1.7035-0.0386-0.6572-0.4086-1.0387-1.0823-1.1306-0.2497-0.026-0.5009-0.035-0.7519-0.0268zm-66.345-6.3132c-1.7796-0.01438-3.2346 1.357-3.2497 3.0631-4e-4 0.037 0 0.074 0.0011 0.111 0 0.0766 0 0.1276 0.1105 0.1544 0.7645 0.2236 1.595 0.0707 2.2189-0.4083 0.5244-0.3956 1.2631-0.3956 1.7876 0 0.4378 0.3266 0.9761 0.5053 1.5307 0.5078l-4e-3 0.0013c0.2035-0.0085 0.4059-0.0349 0.6043-0.0791 0.1465-0.0293 0.1957-0.0829 0.1957-0.2348 0.0152-1.7062-1.4155-3.1009-3.1951-3.1154z" clip-rule="evenodd" fill="#fff" fill-rule="evenodd"/>
</svg>
