<svg xmlns="http://www.w3.org/2000/svg">
    <!-- example TODO: удалить -->
    <symbol id="sports_1" viewBox="0 0 32 32">
        <path d="M16 0a16 16 0 100 32 16 16 0 000-32zm.6 4.6L22 2.4l1.9 1c.6.3 1.1.8 1.6 1.2l.7.6.1.1.7.7.6.7.1.2.6.8-1.1 4.7-5.5 1.8-5.2-4.2zM4.2 7v-.1l.6-.7.8-.8.7-.7L8 3.4l1.8-1 5.6 2.2V10l-5.2 4.2-5.5-1.8-1-4.7c0-.3.3-.5.5-.8zm-.7 17.3l-.4-.7v-.1l-.5-.8L2 21l-.2-.8V20l-.3-.8v-.1l-.3-1.8 3.3-4 5.4 1.9 1.6 6.3L8.8 25zm16 6.3l-.8.2-.8.1h-.8l-.2.1a14.4 14.4 0 01-1.7 0h-.8l-1.5-.3-3.2-5 2.6-3.3h7.4l2.6 3.4zm11-11.3l-.1.9-.3.9a15.1 15.1 0 01-1.1 2.4l-.5.8-5.3.8-2.6-3.4 1.6-6.3 5.4-1.8 3.3 3.9-.3 1.8z"/>
    </symbol>
    <symbol id="country_1" viewBox="0 0 512 512">
        <circle cx="256" cy="256" r="256" fill="#ffda44"/>
        <path fill="#338af3" d="M0 256a256 256 0 01512 0"/>
    </symbol>
    <!--  angle-bottom  -->
    <symbol id="angle" viewBox="0 0 320 190">
        <path d="M152 186L4 40c-5-5-5-11 0-16L23 4c5-5 13-5 17 0l120 118L280 4c4-5 12-5 17 0l19 20c5 5 5 11 1 16L169 186c-5 5-13 5-17 0z"/>
    </symbol>
    <symbol id="chevron-right" viewBox="0 0 250 440">
        <path d="M23 3L3 23c-4 5-4 12 0 17l179 180L3 400c-4 5-4 12 0 17l20 20c5 4 12 4 17 0l207-209c4-4 4-12 0-16L40 3c-5-4-12-4-17 0z"/>
    </symbol>
    <symbol id="chevron-down" viewBox="0 0 448 512">
        <path d="M207 381L13 187c-10-9-10-24 0-34l22-22c10-10 25-10 34-1l155 155 155-155c9-9 24-9 34 1l22 22c10 10 10 25 0 34L241 381c-9 10-25 10-34 0z"/>
    </symbol>
    <symbol id="chevron-left" viewBox="0 0 250 440">
        <path d="M227 3l20 20c4 5 4 12 0 17L68 220l179 180c4 5 4 12 0 17l-20 20c-5 4-12 4-17 0L3 228c-4-4-4-12 0-16L210 3c5-4 12-4 17 0z"/>
    </symbol>
    <symbol id="chevron-double-right" viewBox="0 0 448 512">
        <path d="M58 38l209 210c5 4 5 12 0 17L58 474c-5 5-13 5-17 0l-20-20c-5-5-5-12 0-17l181-181L21 75c-5-5-5-12 0-17l20-20c4-5 12-5 17 0zm143 0l-20 20c-5 5-5 12 0 17l181 181-181 181c-5 5-5 12 0 17l20 20c4 5 12 5 17 0l209-209c5-5 5-13 0-17L218 38c-5-5-13-5-17 0z"/>
    </symbol>
    <symbol id="chevron-double-down" viewBox="0 0 320 512">
        <path d="M152 428L4 281c-5-5-5-12 0-17l19-20c5-5 13-5 17 0l120 119 120-119c4-5 12-5 17 0l19 20c5 5 5 12 1 17L169 428c-5 5-13 5-17 0zm17-160l148-147c4-5 4-12 0-17l-20-20c-5-4-13-4-17 0L160 203 40 84c-4-4-12-4-17 0L4 104c-5 5-5 12 0 17l148 147c4 5 12 5 17 0z"/>
    </symbol>
    <symbol id="chevron-double-left" viewBox="0 0 448 512">
        <path d="M390 474L181 265c-5-5-5-13 0-17L390 38c5-5 13-5 17 0l20 20c5 5 5 12 0 17L246 256l181 181c5 5 5 12 0 17l-20 20c-4 5-12 5-17 0zm-143 0l20-20c5-5 5-12 0-17L86 256 267 75c5-5 5-12 0-17l-20-20c-4-5-12-5-17 0L21 248c-5 4-5 12 0 17l209 209c5 5 13 5 17 0z"/>
    </symbol>
    <symbol id="settings" viewBox="0 0 512 512">
        <path d="M487 316l-42-25c4-23 4-47 0-70l42-25c5-3 7-8 6-14-11-35-30-68-55-94-4-4-10-5-15-3l-42 25c-18-15-39-27-61-35V26c0-6-4-11-9-12-37-8-75-8-110 0-5 1-9 6-9 12v49c-22 8-43 20-61 35L89 86c-5-3-11-2-15 2-25 26-44 59-55 94-1 6 1 12 6 14l42 25c-4 23-4 47 0 70l-42 25c-5 3-7 8-6 14 11 35 30 68 55 94 4 4 10 5 15 3l42-25c18 15 39 27 61 35v49c0 6 4 11 10 12 36 8 74 8 109 0 5-1 9-6 9-12v-49c22-8 43-20 61-35l43 25c4 2 11 2 14-3 25-26 44-59 55-94 2-6-1-12-6-14zm-231 20a80 80 0 1 1 0-160 80 80 0 0 1 0 160z"/>
    </symbol>
    <symbol id="favorite" viewBox="0 0 576 512">
        <path d="M259 18l-65 132-146 22c-26 3-37 36-18 54l106 103-25 146c-5 26 23 46 46 33l131-68 131 68c23 13 51-7 46-33l-25-146 106-103c19-18 8-51-18-54l-146-22-65-132a32 32 0 0 0-58 0z"
              stroke-width="40"/>
    </symbol>
    <!--  = favorite  -->
    <symbol id="star-empty" viewBox="0 0 576 512">
        <path d="M528.1 171.5L382 150.2 316.7 17.8c-11.7-23.6-45.6-23.9-57.4 0L194 150.2 47.9 171.5c-26.2 3.8-36.7 36.1-17.7 54.6l105.7 103-25 145.5c-4.5 26.3 23.2 46 46.4 33.7L288 439.6l130.7 68.7c23.2 12.2 50.9-7.4 46.4-33.7l-25-145.5 105.7-103c19-18.5 8.5-50.8-17.7-54.6zM388.6 312.3l23.7 138.4L288 385.4l-124.3 65.3 23.7-138.4-100.6-98 139-20.2 62.2-126 62.2 126 139 20.2-100.6 98z"/>
    </symbol>
    <symbol id="star" viewBox="0 0 576 512">
        <path d="M259.3 17.8L194 150.2 47.9 171.5c-26.2 3.8-36.7 36.1-17.7 54.6l105.7 103-25 145.5c-4.5 26.3 23.2 46 46.4 33.7L288 439.6l130.7 68.7c23.2 12.2 50.9-7.4 46.4-33.7l-25-145.5 105.7-103c19-18.5 8.5-50.8-17.7-54.6L382 150.2 316.7 17.8c-11.7-23.6-45.6-23.9-57.4 0z"/>
    </symbol>
    <!--    -->
    <symbol id="fix" viewBox="0 0 15 14">
        <path d="M14.62 4L10.68.1a.37.37 0 0 0-.51 0l-.02.02a1.25 1.25 0 0 0-.21 1.51l-4.12 3.5a1.72 1.72 0 0 0-2.37.07l-.02.03a.36.36 0 0 0 0 .5l2.36 2.35-2.3 2.27c-.05.05-1.13 1.16-1.85 2.05l-.82 1a.36.36 0 1 0 .51.51l1.02-.82c.89-.7 2.01-1.78 2.06-1.83l2.3-2.28 2.23 2.22a.37.37 0 0 0 .51 0l.03-.03a1.69 1.69 0 0 0 .07-2.34l3.53-4.08a1.27 1.27 0 0 0 1.52-.21l.02-.02a.36.36 0 0 0 0-.51z"/>
    </symbol>
    <symbol id="check" viewBox="0 0 512 512">
        <path d="M436 83L173 347l-97-97c-5-5-12-5-17 0l-28 28c-5 5-5 12 0 17l133 134c5 4 13 4 17 0l300-300c5-5 5-13 0-17l-28-29c-5-4-12-4-17 0z"/>
    </symbol>
    <symbol id="search" viewBox="0 0 512 512">
        <path d="M505 443L405 343c-4-4-10-7-17-7h-16a208 208 0 1 0-36 36v16c0 7 3 13 7 17l100 100c9 9 24 9 34 0l28-28c9-10 9-25 0-34zM208 336a128 128 0 1 1 0-256 128 128 0 0 1 0 256z"/>
    </symbol>
    <symbol id="award" viewBox="0 0 38.7 48">
        <path class="cls-1"
              d="M25.3 31.2a4.4 4.4 0 014-2.3 2.4 2.4 0 002.6-2.7 4.4 4.4 0 012.3-4 2.4 2.4 0 001-3.6 4.5 4.5 0 010-4.6 2.4 2.4 0 00-1-3.6 4.4 4.4 0 01-2.3-4 2.4 2.4 0 00-2.6-2.7 4.4 4.4 0 01-4-2.3 2.4 2.4 0 00-3.7-1 4.5 4.5 0 01-4.6 0 2.4 2.4 0 00-3.6 1 4.4 4.4 0 01-4 2.3 2.4 2.4 0 00-2.6 2.7 4.5 4.5 0 01-2.3 4 2.4 2.4 0 00-1 3.6 4.4 4.4 0 010 4.6 2.4 2.4 0 001 3.6 4.4 4.4 0 012.3 4A2.4 2.4 0 009.4 29a4.4 4.4 0 014 2.3 2.4 2.4 0 003.7 1 4.5 4.5 0 014.6 0 2.4 2.4 0 003.6-1zm-6-5.3a9.6 9.6 0 119.6-9.6 9.6 9.6 0 01-9.5 9.6z"/>
        <path class="cls-1"
              d="M9.3 30.3c-1.9 0-2.1-.9-2.1-.9L0 43.6l5.8-.7L9 47.7 15.7 34c-3.5 0-2.2-3.5-6.4-3.6zM31.4 30c-5.3.6-4.2 1.9-5.4 2.9A3.7 3.7 0 0123 34L31 48l2-5.2 5.7.8zM21.4 14.2l-2-4-2 4-4.6.6 3.3 3.2-.8 4.5 4-2.1 4 2-.7-4.4 3.3-3.2-4.5-.6z"/>
    </symbol>
    <symbol id="globe-asia" viewBox="0 0 496 512">
        <path d="M248 8a248 248 0 100 496 248 248 0 000-496zm-11 240c-3 5-8 8-14 8-5 0-9 2-12 5l-5 5c-3 3-3 9 0 12l5 5c3 3 5 7 5 12v9c0 9-7 16-16 16h-6c-6 0-12-3-14-9l-23-45c-2-5-9-6-13-2l-19 19c-3 3-7 5-12 5H51A200 200 0 01310 66l-51 38c-5 4-4 11 1 14l11 6c6 2 9 8 9 14v78c0 4-4 8-8 8h-3c-3 0-6-2-7-4-2-4-6-4-8-1l-17 29zm171 110c0 5-2 9-5 12l-9 9c-3 3-7 5-12 5h-15c-4 0-8-2-11-5l-13-13a27 27 0 00-25-7l-22 6h-14c-4 0-8-2-11-5l-12-12a8 8 0 01-3-5v-10c0-4 2-7 6-8l39-16c2 0 4-1 5-3l24-17a8 8 0 015-1h12c3 0 6 2 7 5l6 13a4 4 0 003 2h4c2 0 3-1 4-3l4-14c1-2 2-3 4-3h6c2 0 4 2 4 4v13l2 6 12 12c3 3 5 7 5 11v24z"/>
    </symbol>
    <symbol id="faceless" viewBox="0 0 54 54">
        <path d="M27 0C12.1 0 0 12.1 0 27s12.1 27 27 27 27-12.1 27-27S41.9 0 27 0zm.1 10.2a6.02 6.02 0 016 6 6.02 6.02 0 01-6 6 6.02 6.02 0 01-6-6 6.02 6.02 0 016-6zM14.8 41.4c-.4 1-1.5 1.6-2.5 1.2s-1.6-1.5-1.2-2.5l4.7-13.4c1.2 1.4 2.2 2.8 2.7 4.5l-3.7 10.2zm6.6 2.4s.3-15.2-5-19.3c1.2-3.9 4.4-1.9 4.4-1.9s2.9 1.3 6.3 1.3c3.4.1 6.3-1.3 6.3-1.3s3.3-2 4.4 1.9c-5.4 4.1-5 19.3-5 19.3H21.4zm20.4-1.1c-1 .4-2.2-.2-2.6-1.2l-3.5-10.2c.5-1.7 1.5-3.2 2.7-4.5L43 40.1c.4 1.1-.2 2.2-1.2 2.6z"/>
    </symbol>
    <symbol id="times" viewBox="0 0 320 320">
        <path d="M208 160L315 52c7-6 7-16 0-22L290 5c-6-7-16-7-22 0L160 112 52 5c-6-7-16-7-22 0L5 30c-7 6-7 16 0 22l107 108L5 268c-7 6-7 16 0 22l25 25c6 7 16 7 22 0l108-107 108 107c6 7 16 7 22 0l25-25c7-6 7-16 0-22L208 160z"/>
    </symbol>
    <!-- соц сети | старт -->
    <symbol id="facebook" viewBox="0 0 32 32">
        <path d="M24 0h-4.2c-4.6 0-7.6 3-7.6 7.9v3.6H8c-.4 0-.7.3-.7.7v5.2c0 .4.3.7.7.7h4.2v13.2c0 .4.3.7.6.7h5.5c.3 0 .6-.3.6-.7V18.1h4.9c.4 0 .7-.3.7-.7v-5.2a.7.7 0 00-.7-.7h-4.9v-3c0-1.5.4-2.3 2.3-2.3H24c.4 0 .6-.3.6-.7V.7c0-.4-.2-.7-.6-.7z"/>
    </symbol>
    <symbol id="twitter" viewBox="0 0 32 32">
        <path d="M32 6c-1.2.6-2.4 1-3.8 1.1a6.6 6.6 0 003-3.6c-1.4.7-2.8 1.3-4.3 1.6a6.5 6.5 0 00-11.3 4.5c0 .5 0 1 .2 1.5A18.6 18.6 0 012.2 4.2c-.5 1-.9 2.1-.9 3.3 0 2.3 1.2 4.3 3 5.5-1.1 0-2.1-.4-3-.9v.1c0 3.2 2.3 5.9 5.3 6.5a6.7 6.7 0 01-3 0 6.6 6.6 0 006.1 4.6A13.2 13.2 0 010 26a18.5 18.5 0 0028.7-15.7v-.8C30 8.5 31.1 7.4 32 6z"/>
    </symbol>
    <symbol id="instagram" viewBox="0 0 32 32">
        <path d="M23.17 0H8.83A8.84 8.84 0 000 8.83v14.34A8.84 8.84 0 008.83 32h14.34A8.84 8.84 0 0032 23.17V8.83A8.84 8.84 0 0023.17 0zm6 23.17a6 6 0 01-6 6H8.83a6 6 0 01-5.99-6V8.83a6 6 0 016-6h14.33a6 6 0 016 6v14.34z"/>
        <path d="M16 7.75a8.26 8.26 0 000 16.5 8.25 8.25 0 000-16.5zm0 13.66a5.41 5.41 0 11.01-10.83A5.41 5.41 0 0116 21.41zM24.6 5.35a2.1 2.1 0 00-2.1 2.08 2.1 2.1 0 002.1 2.08 2.1 2.1 0 001.46-.6 2.1 2.1 0 000-2.95 2.1 2.1 0 00-1.47-.61z"/>
    </symbol>
    <symbol id="vk" viewBox="0 0 16 9">
        <path d="M15.98.65c.13.35-.3 1.15-1.25 2.42a56.88 56.88 0 0 1-1 1.28 4 4 0 0 0-.26.41c-.08.16-.12.27-.1.35l.11.28c.05.11.15.23.27.35a23.65 23.65 0 0 0 .52.47 8.2 8.2 0 0 1 1.64 1.92 1 1 0 0 1 .06.22c.02.1.02.2 0 .28-.02.08-.1.15-.2.22a.99.99 0 0 1-.5.1L13.14 9a.94.94 0 0 1-.47-.04 2.05 2.05 0 0 1-.43-.19l-.17-.1a3.93 3.93 0 0 1-.58-.52c-.22-.24-.42-.45-.57-.64a2.76 2.76 0 0 0-.51-.47c-.18-.13-.34-.17-.47-.13a.59.59 0 0 0-.07.03 1.01 1.01 0 0 0-.32.36 2.63 2.63 0 0 0-.2 1.06c0 .09 0 .16-.02.23a.58.58 0 0 1-.07.15l-.03.04c-.1.1-.25.17-.44.18h-.96a4.68 4.68 0 0 1-2.31-.57 9.81 9.81 0 0 1-1.45-1.01l-.2-.2a18.1 18.1 0 0 1-1.7-2.23A27 27 0 0 1 .06.97.65.65 0 0 1-.02.75c0-.06 0-.1.03-.13L.06.57C.14.47.3.4.53.4L2.82.4a.89.89 0 0 1 .32.12l.04.02c.1.06.16.15.2.27a13 13 0 0 0 .73 1.52l.13.23c.16.33.32.62.47.86.15.24.28.43.4.56.12.14.23.24.35.32.1.07.2.11.28.11.08 0 .15-.01.22-.04l.05-.04.1-.18c.05-.1.08-.23.1-.39l.09-.66a6.46 6.46 0 0 0-.08-1.63c-.04-.18-.08-.3-.11-.38L6.06 1C5.92.81 5.68.7 5.35.65c-.07 0-.06-.08.04-.2.09-.1.2-.18.32-.24.3-.14.95-.21 1.99-.2.45 0 .83.04 1.12.1.11.04.2.07.28.12.08.05.13.11.17.2.04.08.07.17.09.26a12.84 12.84 0 0 1 0 1.4 20.94 20.94 0 0 0 0 1.75.9.9 0 0 0 .1.32c.05.09.1.15.19.2l.14.04c.05 0 .12-.02.22-.1a3.07 3.07 0 0 0 .74-.83A13.3 13.3 0 0 0 12.21.73L12.3.6a.39.39 0 0 1 .1-.09l.03-.02.04-.02.11-.03h.17l2.4-.02c.21-.03.39-.02.53.02s.22.09.26.14l.05.08z"/>
    </symbol>
    <!-- todo v3 odnoklassniki и ok одно и тоже , в реге ok, в остальных местах odnoklassniki -->
    <symbol id="odnoklassniki" viewBox="0 0 13 19">
        <path d="M10.6 12.7a8 8 0 0 1-3.2 1L11 17c1 1-.6 2.6-1.6 1.6L6.5 16l-2.7 2.7c-1 1-2.7-.6-1.6-1.6l3.4-3.4a8 8 0 0 1-3.2-1c-1.2-.7-1.7-1.1-1.3-2 .3-.6 1-1 2-.3 0 0 1.3 1 3.4 1 2.1 0 3.4-1 3.4-1 1-.7 1.7-.3 2 .2.4 1-.1 1.4-1.3 2.1zm-5 1s0-.1 0 0zm1-3.6c-2.7 0-4.7-2-4.7-4.6C1.9 3 3.9 1 6.5 1c2.6 0 4.7 2 4.7 4.5 0 2.6-2.1 4.6-4.7 4.6zm0-6.8c-1.4 0-2.4 1-2.4 2.2 0 1.3 1 2.3 2.3 2.3 1.3 0 2.3-1 2.3-2.3 0-1.2-1-2.2-2.3-2.2z"/>
    </symbol>
    <symbol id="ok" viewBox="0 0 13 19">
        <path d="M10.6 12.7a8 8 0 0 1-3.2 1L11 17c1 1-.6 2.6-1.6 1.6L6.5 16l-2.7 2.7c-1 1-2.7-.6-1.6-1.6l3.4-3.4a8 8 0 0 1-3.2-1c-1.2-.7-1.7-1.1-1.3-2 .3-.6 1-1 2-.3 0 0 1.3 1 3.4 1 2.1 0 3.4-1 3.4-1 1-.7 1.7-.3 2 .2.4 1-.1 1.4-1.3 2.1zm-5 1s0-.1 0 0zm1-3.6c-2.7 0-4.7-2-4.7-4.6C1.9 3 3.9 1 6.5 1c2.6 0 4.7 2 4.7 4.5 0 2.6-2.1 4.6-4.7 4.6zm0-6.8c-1.4 0-2.4 1-2.4 2.2 0 1.3 1 2.3 2.3 2.3 1.3 0 2.3-1 2.3-2.3 0-1.2-1-2.2-2.3-2.2z"/>
    </symbol>
    <symbol id="yandex" viewBox="0 0 8 16">
        <path d="M7.3 0H5C2.8 0 .5 1.7.5 5.5c0 2 .8 3.5 2.3 4.4l-2.7 5c-.1.3-.1.5 0 .8.1.2.3.3.6.3H2c.3 0 .5-.2.7-.4l2.5-5.2h.2v5c0 .3.3.6.6.6h1.3c.3 0 .6-.3.6-.7V.7c0-.4-.3-.7-.7-.7zM5.5 8.2h-.3c-1.3 0-2-1.1-2-2.9 0-2.2.9-3 1.8-3h.5v5.9z"/>
    </symbol>
    <symbol id="mailru" viewBox="0 0 16 16">
        <path d="M13.8 2a7.8 7.8 0 0 0-5.5-2C6 0 4 .8 2.4 2.3A7.5 7.5 0 0 0 0 8c0 2.2.8 4 2.3 5.6A8.3 8.3 0 0 0 8.5 16c1.6 0 3.2-.3 4.7-1 .5-.2.7-.7.5-1.2a1 1 0 0 0-1.3-.6c-1.3.6-2.6.9-3.9.9A6 6 0 0 1 4 12.3 6.1 6.1 0 0 1 2.2 8a6 6 0 0 1 6.1-6.2c1.6 0 3 .5 4 1.5 1.1 1 1.7 2.2 1.7 3.6 0 1-.3 1.9-.8 2.6-.5.6-1 1-1.5 1-.3 0-.5-.2-.5-.5v-.9l.7-5H9.8l-.1.5C9 4.2 8.5 4 7.9 4c-1 0-1.9.4-2.6 1.2-.7.8-1.1 1.8-1.1 3 0 1.3.3 2.3 1 3a3 3 0 0 0 2.3 1.2c.8 0 1.5-.3 2-1 .5.6 1.1 1 2 1a4 4 0 0 0 3.2-1.6c.8-1.1 1.3-2.4 1.3-3.9 0-2-.7-3.5-2.2-4.9zM8.9 9.5c-.3.5-.8.8-1.3.8-.3 0-.6-.2-.8-.6-.3-.3-.4-.8-.4-1.3 0-.7.2-1.3.5-1.7.3-.4.7-.6 1.1-.6.4 0 .7.2 1 .5.3.3.5.7.5 1.2 0 .7-.2 1.2-.6 1.7z"/>
    </symbol>
    <symbol id="telegram" viewBox="0 0 17 14">
        <path d="M4 8.1l2.2 5L9 10.5l4.7 3.5L17 0 0 6.6l4 1.5zm8.1-4L7 8.4l-.6 2.3L5 7.9 12 4z"/>
    </symbol>
    <!-- todo v3 google-plus и gplus одно и тоже , в реге gplus, в остальных местах google-plus -->
    <symbol id="google-plus" viewBox="0 0 18 12">
        <path d="M17.66 7.01h-1.38v1.44c0 .2-.15.35-.34.35h-1.16a.35.35 0 0 1-.34-.35V7.01h-1.38a.35.35 0 0 1-.34-.35V5.45c0-.2.15-.36.34-.36h1.38V3.65c0-.19.15-.35.34-.35h1.16c.19 0 .34.16.34.35V5.1h1.38c.19 0 .34.16.34.36v1.2c0 .2-.15.36-.34.36zM5.93 6.84V5.36c0-.22.17-.4.39-.4h5.2l-.01 1.38A5.87 5.87 0 0 1 5.76 12 5.89 5.89 0 0 1 0 5.96 5.92 5.92 0 0 1 5.87 0c1.5.03 2.84.65 3.85 1.64.16.16.16.43 0 .59L8.68 3.24a.38.38 0 0 1-.52 0 3.48 3.48 0 0 0-2.4-.96 3.66 3.66 0 0 0-3.57 3.87 3.65 3.65 0 0 0 3.54 3.57 3.6 3.6 0 0 0 3.4-2.48H6.3a.4.4 0 0 1-.38-.4z"/>
    </symbol>
    <symbol id="gplus" viewBox="0 0 18 12">
        <path d="M17.66 7.01h-1.38v1.44c0 .2-.15.35-.34.35h-1.16a.35.35 0 0 1-.34-.35V7.01h-1.38a.35.35 0 0 1-.34-.35V5.45c0-.2.15-.36.34-.36h1.38V3.65c0-.19.15-.35.34-.35h1.16c.19 0 .34.16.34.35V5.1h1.38c.19 0 .34.16.34.36v1.2c0 .2-.15.36-.34.36zM5.93 6.84V5.36c0-.22.17-.4.39-.4h5.2l-.01 1.38A5.87 5.87 0 0 1 5.76 12 5.89 5.89 0 0 1 0 5.96 5.92 5.92 0 0 1 5.87 0c1.5.03 2.84.65 3.85 1.64.16.16.16.43 0 .59L8.68 3.24a.38.38 0 0 1-.52 0 3.48 3.48 0 0 0-2.4-.96 3.66 3.66 0 0 0-3.57 3.87 3.65 3.65 0 0 0 3.54 3.57 3.6 3.6 0 0 0 3.4-2.48H6.3a.4.4 0 0 1-.38-.4z"/>
    </symbol>
    <symbol id="pinterest-p" viewBox="0 0 384 512">
        <path d="M204 7C101 7 0 75 0 186c0 70 40 110 64 110 10 0 15-28 15-35 0-10-23-29-23-68 0-81 61-138 140-138 68 0 118 39 118 110 0 53-21 153-90 153-25 0-46-18-46-44 0-38 26-74 26-113 0-67-94-55-94 25 0 17 2 36 10 51-14 60-42 148-42 209 0 19 3 38 4 57 4 3 2 3 7 1 51-69 49-82 72-173 12 24 44 36 69 36 106 0 154-103 154-196C384 71 298 7 204 7z"/>
    </symbol>
    <!-- соц сети | конец -->
    <symbol id="clock" viewBox="0 0 512 512">
        <path d="M256 8a248 248 0 1 0 0 496 248 248 0 0 0 0-496zm0 448a200 200 0 1 1 0-400 200 200 0 0 1 0 400zm62-104l-85-62c-3-2-5-6-5-10V116c0-7 5-12 12-12h32c7 0 12 5 12 12v142l67 48c5 4 6 12 2 17l-18 26c-4 5-12 7-17 3z"/>
    </symbol>
    <symbol id="refresh" viewBox="0 0 512 512">
        <path d="M371 133a168 168 0 0 0-278 82c-1 5-6 9-12 9H24c-7 0-13-7-12-14A248 248 0 0 1 427 77l36-36c15-15 41-4 41 17v134c0 13-11 24-24 24H346c-21 0-32-26-17-41l42-42zM32 296h134c21 0 32 26 17 41l-42 42a168 168 0 0 0 278-82c1-5 6-9 12-9h57c7 0 13 7 12 14A248 248 0 0 1 85 435l-36 36c-15 15-41 4-41-17V320c0-13 11-24 24-24z"/>
    </symbol>
    <symbol id="fullscreen" viewBox="0 0 13 13">
        <path d="M12.4 0H.6C.3 0 0 .3 0 .6v11.1c0 .7.6 1.3 1.3 1.3h10.4c.7 0 1.3-.6 1.3-1.3V.6c0-.3-.3-.6-.6-.6zM.6.6h11.7V11H.6V.6z"/>
        <path d="M11.7 7.1v3.3H8.4z"/>
    </symbol>
    <symbol id="zone" viewBox="0 0 18.4 13">
        <path d="M7.1 7H5.5V1.8l-1.6.5V1.1L7 0h.1v7zM11.4 2.3L12.5 0h1.9l-2 3.5 2 3.5h-1.9l-1.2-2.4L10.2 7h-2l2-3.5L8.3 0h1.9l1.2 2.3zM1.6 11.9h2.3v1H0v-.8l2.2-2.9H.1v-1h3.8V9l-2.3 2.9zM4.3 10.5c0-.5.1-.9.3-1.2.2-.4.4-.7.8-.9.3-.2.7-.3 1.2-.3.6 0 1.1.2 1.5.6.4.4.6.9.7 1.6v.3c0 .7-.2 1.3-.6 1.7-.4.5-1 .7-1.7.7s-1.2-.2-1.6-.6c-.4-.5-.6-1.1-.6-1.9zm1.3.1c0 .4.1.8.3 1 .1.3.3.4.6.4s.5-.1.7-.3c.2-.2.3-.6.3-1.1 0-.4-.1-.8-.3-1-.1-.3-.4-.4-.7-.4-.3 0-.5.1-.7.3-.1.3-.2.6-.2 1.1zM10.6 8.2v.5c.4-.3.8-.6 1.4-.6.5 0 .9.1 1.1.4.2.3.4.7.4 1.3v3h-1.3v-3c0-.3-.1-.5-.2-.6-.1-.1-.3-.2-.6-.2-.4 0-.6.2-.8.5v3.3H9.4V8.2h1.2zM16.5 13c-.7 0-1.2-.2-1.7-.6-.4-.4-.6-1-.6-1.7v-.1c0-.5.1-.9.3-1.3s.4-.7.8-.9c.3-.2.7-.3 1.1-.3.6 0 1.1.2 1.5.6.4.4.6 1 .6 1.7v.6h-3c0 .3.2.6.4.7.2.2.5.3.8.3.5 0 .9-.2 1.1-.5l.6.7c-.2.3-.4.5-.8.6-.4.1-.7.2-1.1.2zm-.2-3.8c-.2 0-.4.1-.6.3-.2.2-.3.4-.3.7h1.7V10c0-.3-.1-.5-.2-.6-.1-.2-.3-.2-.6-.2z"/>
    </symbol>
    <symbol id="translation" viewBox="0 0 13 13">
        <path d="M12.3 0H.7C.3 0 0 .3 0 .8v7.7c0 .4.3.8.7.8h5.1v2.3H2.1c-.4 0-.7.3-.7.8 0 .4.3.8.7.8h8.8c.4 0 .7-.3.7-.8 0-.4-.3-.8-.7-.8H7.2V9.2h5.1c.4 0 .7-.3.7-.8V.8c0-.5-.3-.8-.7-.8zm-.7 7.7H1.4V1.5h10.1v6.2z"/>
    </symbol>
    <symbol id="live" viewBox="0 0 77 32">
        <path d="M6.4 0h64c3.5 0 6.4 2.9 6.4 6.4v19.2c0 3.5-2.9 6.4-6.4 6.4h-64A6.4 6.4 0 010 25.6V6.4C0 2.9 2.9 0 6.4 0z"/>
        <path fill="#fff" d="M15.4 22.2H23v3.4H11V7.4h4.4v14.8zM30.8 25.6h-4.4V7.4h4.4v18.2zM42.2 20.6l3.6-13.2h5l-6.2 18.2h-4.8l-6-18.2h4.8l3.6 13.2zM64.6 17.9h-6.9v4.3H66v3.4H53.3V7.4H66v3.4h-8.2v3.8h7V18z"/>
    </symbol>
    <symbol id="stats" viewBox="0 0 512 384">
        <path d="M397 288h22c7 0 13-6 13-13V45c0-7-6-13-13-13h-22c-7 0-13 6-13 13v230c0 7 6 13 13 13zm-192 0h22c7 0 13-6 13-13V77c0-7-6-13-13-13h-22c-7 0-13 6-13 13v198c0 7 6 13 13 13zm96 0h22c7 0 13-6 13-13V141c0-7-6-13-13-13h-22c-7 0-13 6-13 13v134c0 7 6 13 13 13zm195 48H48V16c0-9-7-16-16-16H16C7 0 0 7 0 16v336c0 18 14 32 32 32h464c9 0 16-7 16-16v-16c0-9-7-16-16-16zm-387-48h22c7 0 13-6 13-13v-70c0-7-6-13-13-13h-22c-7 0-13 6-13 13v70c0 7 6 13 13 13z"/>
    </symbol>
    <symbol id="external-link" viewBox="0 0 448 512">
        <path d="M400 32H48C21 32 0 53 0 80v352c0 27 21 48 48 48h352c27 0 48-21 48-48V80c0-27-21-48-48-48zm-6 400H54a6 6 0 0 1-6-6V86a6 6 0 0 1 6-6h340a6 6 0 0 1 6 6v340a6 6 0 0 1-6 6zm-54-304H204c-11 0-16 13-8 20l48 49-144 144c-5 5-5 12 0 17l22 22c5 5 12 5 17 0l144-144 49 48c7 8 20 3 20-8V140c0-7-5-12-12-12z"/>
    </symbol>
    <symbol id="alerts" viewBox="0 0 448 512">
        <path d="M224 512c35 0 64-29 64-64H160c0 35 29 64 64 64zm215-150c-19-20-55-52-55-154 0-78-55-140-128-155V32a32 32 0 1 0-64 0v21C119 68 64 130 64 208c0 102-36 134-55 154-6 7-9 14-9 22 0 16 13 32 32 32h384a32 32 0 0 0 23-54z"/>
    </symbol>
    <symbol id="table-view" viewBox="0 0 512 512">
        <path d="M464 32H48C21 32 0 53 0 80v352c0 27 21 48 48 48h416c27 0 48-21 48-48V80c0-27-21-48-48-48zM232 432H54a6 6 0 0 1-6-6V296h184v136zm0-184H48V112h184v136zm226 184H280V296h184v130a6 6 0 0 1-6 6zm6-184H280V112h184v136z"/>
    </symbol>
    <symbol id="roulette" viewBox="0 0 14 14">
        <path d="M13.59 9.341a6.982 6.982 0 0 1-5.424 4.554C7.786 13.959 7.398 14 7 14c-.399 0-.787-.041-1.167-.105A6.985 6.985 0 0 1 .409 9.341 6.985 6.985 0 0 1 0 7c0-.895.174-1.747.48-2.534A6.983 6.983 0 0 1 5.833.105C6.213.041 6.601 0 7 0c.398 0 .786.041 1.166.105a6.98 6.98 0 0 1 5.354 4.361c.306.787.48 1.639.48 2.534a6.96 6.96 0 0 1-.41 2.341zm-7.757 3.61A6.06 6.06 0 0 0 7 13.066a6.05 6.05 0 0 0 1.166-.115v-1.428A4.67 4.67 0 0 1 7 11.676c-.404 0-.793-.057-1.167-.153v1.428zm-3.468-2.045l1.23-.71A4.662 4.662 0 0 1 2.473 8.15l-1.243.717a6.058 6.058 0 0 0 1.135 2.039zm.139-7.966a6.092 6.092 0 0 0-1.203 2l1.224.706A4.683 4.683 0 0 1 3.74 3.654L2.504 2.94zm5.662-1.892A6.05 6.05 0 0 0 7 .933c-.4 0-.789.041-1.167.115v1.429A4.632 4.632 0 0 1 7 2.324c.403 0 .793.056 1.166.153V1.048zM7 3.257A3.747 3.747 0 0 0 3.257 7 3.747 3.747 0 0 0 7 10.743 3.747 3.747 0 0 0 10.743 7 3.747 3.747 0 0 0 7 3.257zm4.495-.316l-1.235.713a4.669 4.669 0 0 1 1.214 1.993l1.225-.707a6.073 6.073 0 0 0-1.204-1.999zm.032 5.209a4.664 4.664 0 0 1-1.123 2.046l1.23.71a6.058 6.058 0 0 0 1.135-2.039l-1.242-.717zm-4.209.945v.362a.343.343 0 1 1-.686 0v-.313a3.226 3.226 0 0 1-.779-.131.458.458 0 0 1-.312-.553l.003-.012a.371.371 0 0 1 .481-.257c.234.083.503.141.789.141.4 0 .672-.154.672-.434 0-.266-.224-.434-.741-.609-.75-.252-1.261-.602-1.261-1.281 0-.616.434-1.099 1.184-1.246V4.44c0-.2.171-.36.375-.341a.35.35 0 0 1 .31.351v.263c.246.011.45.044.622.088a.418.418 0 0 1 .3.508l-.007.024a.367.367 0 0 1-.465.261 2.14 2.14 0 0 0-.646-.097c-.455 0-.602.196-.602.392 0 .231.245.378.84.602.833.294 1.169.679 1.169 1.309 0 .623-.441 1.155-1.246 1.295z"/>
    </symbol>
    <symbol id="constructor" viewBox="0 0 12 12">
        <path d="M5.73 10.58a.31.31 0 0 1-.32-.3V8.43c0-.17.14-.3.32-.3h2.92c.18 0 .32.13.32.3v1.85c0 .17-.14.3-.32.3H5.73zM13.48 12H.52a.5.5 0 0 1-.52-.5c0-.27.23-.49.52-.49H2.2v-5.7h-.23a.34.34 0 0 1-.34-.33V3.84c0-.19.16-.33.34-.33h1.08L10.17 0a.25.25 0 0 1 .23 0c.07.05.12.12.12.2v.56c0 .08-.04.15-.1.19l-.67.47v3.62h.87c.13 0 .24.1.24.23v1.4c0 .13-.11.23-.24.23H8.4a.23.23 0 0 1-.24-.23v-1.4c0-.13.1-.23.24-.23h.87V1.76l-5.18 3v.22c0 .18-.15.32-.34.32h-.13v5.71h9.86a.5.5 0 0 1 .52.5.5.5 0 0 1-.52.49zm-.64-1.42H9.92a.31.31 0 0 1-.32-.3V8.43c0-.17.15-.3.32-.3h2.92c.18 0 .32.13.32.3v1.85c0 .17-.14.3-.32.3z"/>
    </symbol>
    <symbol id="player-bet" viewBox="0 0 36 32">
        <path d="M5.4 22.5l1 .4 6.6-4.2 2.9 4.2 9.8-6.8c-1.1-1-2.5-1.8-4-2.2-1.5-.5-1.9-1-2-1.3l-.2-.7a2.8 2.8 0 0 1 0-.3 7 7 0 0 0 1-2c.4-.4.6-.9.7-1.4.3-.8.2-1.2 0-1.4a5 5 0 0 0-.3-3.9c-.2-1-1-2-2-2.3h-.1a6.1 6.1 0 0 0-4.2-.4c-3 .5-3.5 4-3.5 4a5.5 5.5 0 0 0 .2 2.8 3.6 3.6 0 0 0 .2 1.3c0 .6.4.8.4.8.3.9.6 1.6 1 2.2l.1.3v.3l-.2.7h-.2l-.4.5c-1.1.7-2.4 1.3-3.7 1.7h-.1a4 4 0 0 0-1.7 1.1c-1 1.5-1.7 3.2-2 5.1.1 1.3.7 1.5.7 1.5z"/>
        <path d="M26.1 12.8l2 2.8-12.5 8.6-2.9-4.1L0 28 2.7 32l8.8-5.4 3 4.2 16.2-11.3 2 2.8L36 13l-9.9-.2z"/>
    </symbol>
    <symbol id="field-zone" viewBox="0 0 21 13">
        <path fill="#77a02e" d="M0 0h21v13H0z"/>
        <g fill="#c9d9ab">
            <path d="M10 0h1v13h-1zM8 5h1v3H8zM3 3h1v7H3zm9 2h1v3h-1z"/>
            <path d="M9 5V4h3v1zm0 4V8h3v1zm-9 1V9h4v1zm0-6V3h4v1zm1 3V6h1v1zm17 3h-1V3h1z"/>
            <path d="M21 3v1h-4V3zm0 6v1h-4V9zm-1-3v1h-1V6z"/>
        </g>
    </symbol>
    <symbol id="coef-graph" viewBox="0 0 13 11">
        <path d="M12.35 2.26c-.58.3-1.3.07-1.6-.52L9.39 3c.17.45.06.97-.29 1.3-.47.46-1.22.44-1.67-.04L5.9 5.55a1.19 1.19 0 1 1-2.32-.15l-1.44-1c-.3.4-.8.57-1.28.44a1.2 1.2 0 0 1 .64-2.31c.63.18 1 .84.82 1.48l1.44 1a1.18 1.18 0 0 1 2 .11l1.41-1.2a1.2 1.2 0 0 1 .3-1.37c.49-.44 1.24-.4 1.68.1l1.47-1.37V1.2a1.18 1.18 0 0 1 2.24-.54c.3.58.06 1.3-.52 1.6zm-10.5 7.5h2.21V8.6h1.33v1.17h2.24v-3.5h1.3v3.5h2.23V4.05h1.3V11H.52V6.55h1.33v3.22z"/>
    </symbol>
    <symbol id="tour-grid" viewBox="0 0 49 32">
        <path d="M0 0v34.5h2.5V0H0zm2.5 32h46.7v2.5H2.5V32zM7.4 2.5v4.9h17.2v-5H7.4zm0 9.8v5h17.2v-5H7.4zm0 9.9V27h17.2v-5H7.4zm22.1-9.9v5h17.3v-5H29.5zm-32 17.2h51.7V32H-2.5v-2.5z"/>
    </symbol>
    <symbol id="rating" viewBox="0 0 15 11">
        <path d="M14.7 11H.3a.3.3 0 0 1-.3-.3V5.2 5l.7-1.3.2-.1h3.5V1.5v-.1L5 .2l.3-.2h4.4c.1 0 .2 0 .3.2l.6 1.2v2.9h3.5l.2.1.7 1.3v5c0 .2-.1.3-.3.3zm-.3-4.9h-4a.3.3 0 0 1-.4-.3v-4H5v3.4c0 .2-.1.3-.3.3h-4v4.9h13.7V6zm-2.1 3.3c-.7 0-1.2-.5-1.2-1.2S11.6 7 12.3 7c.6 0 1.2.5 1.2 1.2s-.6 1.2-1.2 1.2zM7 2.7h.7v3h-.7v-3zM2.8 9.2c-.7 0-1.2-.6-1.2-1.2 0-.7.5-1.2 1.2-1.2S4 7.3 4 8c0 .6-.5 1.2-1.2 1.2z"/>
    </symbol>
    <symbol id="fast-reg" viewBox="0 0 11 15">
        <path d="M10 5.5l-.2-.1H6.6L9.8 1V.8H4.9l-4 7v.3h3l-3 6.3v.3h.4l8.7-9c.1 0 .1-.1 0-.2z"/>
    </symbol>
    <symbol id="phone-reg" viewBox="0 0 10 15">
        <path d="M8.7.7h-7C1 .7.4 1.1.4 1.7v12c0 .6.5 1 1.1 1h7.1c.6 0 1.1-.4 1.1-1v-12c0-.6-.5-1-1-1zM4 1.4h2.3l.1.1v.1H4v-.2zm1.2 12.8c-.3 0-.6-.2-.6-.4 0-.3.3-.5.6-.5s.5.2.5.5c0 .2-.2.4-.5.4zM9 13H1.3V2.2H9V13z"/>
    </symbol>
    <symbol id="ios" viewBox="0 0 305 305">
        <path d="M40.7 112.1C15 157 31.3 224.8 60 266 74 286.5 88.5 305 108.2 305h1.2c9.2-.4 16-3.2 22.4-6a61.5 61.5 0 0126.6-6.3c11.2 0 18.4 3 25.3 6 6.9 3 13.9 6.1 24.3 5.9 22.2-.4 35.9-20.3 48-38a168.2 168.2 0 0021-43v-.2c.4-1.2-.2-2.6-1.3-3l-.2-.2a63.7 63.7 0 01-38.6-58.3c-.4-33.8 25.7-51.6 31-54.9l.2-.1a2.5 2.5 0 00.7-3.5 72.1 72.1 0 00-61.7-31 99 99 0 00-35.6 8.8c-7 2.7-13 5.1-17 5.1-4.7 0-10.7-2.4-17.7-5.1a85.5 85.5 0 00-31.9-8 76.3 76.3 0 00-64.2 39z"/>
        <path d="M212.1 0a69.6 69.6 0 00-46 23.6c-9.6 11.1-19 29.7-16.5 48.4.2 1.1 1.1 2 2.3 2.1l3.2.2A59 59 0 00198.5 52c12-14.5 18-33.1 16.2-49.8A2.5 2.5 0 00212 0z"/>
    </symbol>
    <symbol id="android" viewBox="0 0 505.1 505.1">
        <path d="M69 165h-2c-16 0-30 13-30 30v131c0 17 14 30 30 30h2c16 0 30-13 30-30V195c0-17-14-30-30-30zM113 377c0 15 13 27 28 27h29v71c0 17 14 30 30 30h2c16 0 30-13 30-30v-71h41v71c0 17 14 30 30 30h2c16 0 30-13 30-30v-71h29c16 0 28-12 28-27V170H113v207zM322 44l24-36a5 5 0 10-9-6l-24 38a159 159 0 00-121 0L168 2c-1-2-5-3-7-1-2 1-3 4-1 7l23 36a119 119 0 00-70 113h280v-8c0-45-29-84-71-105zm-134 65a13 13 0 110-27 13 13 0 010 27zm129 0a13 13 0 110-27 13 13 0 010 27zM438 165h-1c-17 0-31 13-31 30v131c0 17 14 30 31 30h1c17 0 30-13 30-30V195c0-17-14-30-30-30z"/>
    </symbol>
    <symbol id="x-win" viewBox="0 0 16 15">
        <path fill-rule="evenodd" d="M14.6667 0H1.33333C0.597222 0 0 0.597222 0 1.33333V10.2222C0 10.9583 0.597222 11.5556 1.33333 11.5556H6.66667L6.22222 12.8889H4.22222C3.85556 12.8889 3.55556 13.1889 3.55556 13.5556C3.55556 13.9222 3.85556 14.2222 4.22222 14.2222H11.7778C12.1458 14.2222 12.4444 13.9236 12.4444 13.5556C12.4444 13.1875 12.1458 12.8889 11.7778 12.8889H9.77778L9.33333 11.5556H14.6667C15.4028 11.5556 16 10.9583 16 10.2222V1.33333C16 0.597222 15.4028 0 14.6667 0ZM14.2222 9.77778H1.77778V1.77778H14.2222V9.77778Z"/>
    </symbol>
    <symbol id="ios-new" viewBox="0 0 19 24">
        <path fill-rule="evenodd" d="M15.56 12.48a4.99 4.99 0 0 1 2.47-4.47 5.23 5.23 0 0 0-4.19-2.35c-1.75-.15-3.67 1.09-4.37 1.09-.74 0-2.44-1.04-3.78-1.04C2.93 5.76 0 8.06 0 12.74c0 1.38.24 2.8.71 4.28.63 1.93 2.92 6.68 5.3 6.6 1.25-.03 2.13-.94 3.75-.94 1.57 0 2.39.94 3.78.94 2.4-.04 4.47-4.35 5.07-6.3-3.22-1.61-3.05-4.74-3.05-4.84Zm-2.8-8.66C14.11 2.12 13.99.56 13.95 0c-1.2.07-2.57.86-3.36 1.84a5.25 5.25 0 0 0-1.27 3.8c1.3.1 2.47-.6 3.44-1.82Z"/>
    </symbol>
    <symbol id="android-new" viewBox="0 0 24 16">
        <path fill-rule="evenodd" d="M17.52 11.39c-.2 0-.39-.07-.55-.18-.17-.12-.3-.3-.37-.49a1.15 1.15 0 0 1 .22-1.17.98.98 0 0 1 .5-.3c.2-.03.4-.01.59.07.18.08.33.22.44.4a1.13 1.13 0 0 1-.12 1.35.97.97 0 0 1-.7.32Zm-11.04 0c-.2 0-.4-.07-.56-.18-.16-.12-.3-.3-.37-.49a1.15 1.15 0 0 1 .22-1.17.98.98 0 0 1 .51-.3c.2-.03.4-.01.58.07.18.08.34.22.45.4a1.13 1.13 0 0 1-.13 1.35.97.97 0 0 1-.7.32Zm11.4-6.47 2-3.72a.47.47 0 0 0 .06-.35.46.46 0 0 0-.07-.17.43.43 0 0 0-.13-.12.4.4 0 0 0-.48.05.44.44 0 0 0-.1.14l-2.02 3.77a11.81 11.81 0 0 0-10.28 0L4.84.75a.44.44 0 0 0-.1-.14.39.39 0 0 0-.48-.05.43.43 0 0 0-.13.12.46.46 0 0 0-.07.35c0 .06.03.12.06.17l2 3.72C2.69 6.92.34 10.65 0 15.06h24a12.77 12.77 0 0 0-6.12-10.14Z"/>
    </symbol>
    <symbol id="windows-new" viewBox="0 0 18 20">
        <path d="m0 2.69 7.38-1.1V9.3H0V2.69ZM0 16.8l7.38 1.1V10.3H0v6.52Zm8.19 1.22L18 19.5v-9.21H8.19v7.74Zm0-16.56V9.3H18V0L8.19 1.47Z"/>
    </symbol>
    <symbol id="support-new" viewBox="0 0 32 32">
        <path d="M11.94 14a2 2 0 0 0-2-2H9a4 4 0 0 0-4 4v3a4 4 0 0 0 4 4h1a2 2 0 0 0 2-2l-.06-7ZM16 0C7.06 0 .29 7.44 0 16v2.5c0 .83.67 1.5 1.44 1.5.78 0 1.56-.67 1.56-1.5V16a13 13 0 0 1 26 0v9a2.5 2.5 0 0 1-2.5 2.5h-6.92A2.98 2.98 0 0 0 17 26h-1.89c-1.45 0-2.78.98-3.05 2.4a3 3 0 0 0 2.88 3.6H17c1.1 0 2.06-.6 2.58-1.5h6.92A5.5 5.5 0 0 0 32 25v-9c-.29-8.56-7.06-16-16-16Zm7 23a4 4 0 0 0 4-4v-3a4 4 0 0 0-4-4h-1a2 2 0 0 0-2 2v7a2 2 0 0 0 2 2h1Z"/>
    </symbol>
    <symbol id="payments" viewBox="0 0 288 512">
        <path d="M209 233l-108-31c-12-4-21-15-21-28 0-17 13-30 30-30h66c12 0 24 4 34 11 6 4 14 3 20-2l34-34c7-7 6-19-1-25-25-19-56-30-87-30V16c0-9-7-16-16-16h-32c-9 0-16 7-16 16v48h-2C46 64-5 119 1 184c4 46 39 83 83 96l103 30c12 4 21 15 21 28 0 17-13 30-29 30h-67c-12 0-24-4-34-10-6-5-14-4-19 2l-35 34c-7 6-6 18 2 24 24 19 55 30 86 30v48c0 9 7 16 16 16h32c9 0 16-7 16-16v-48c47-1 90-29 106-73 21-61-15-125-73-142z"/>
    </symbol>
    <symbol id="bonus" viewBox="0 0 512 512">
        <path d="M479 100h-38a66 66 0 0 0-30-93c-24-12-51-7-71 11l-47 42a50 50 0 0 0-74 0l-47-42a65 65 0 0 0-71-12 66 66 0 0 0-40 68c1 9 5 18 10 26H33c-18 0-33 15-33 33v50c0 9 7 17 17 17h478c10 0 17-8 17-17v-50c0-18-15-33-33-33zm-273-6v6h-79a33 33 0 1 1 22-58l57 52zm211-24c-1 17-17 30-34 30h-77v-6l56-51c8-8 20-11 31-8 16 5 25 18 24 35zM33 233v245c0 19 15 34 34 34h156V233H33zM289 233v279h156c19 0 34-15 34-34V233H289z"/>
    </symbol>
    <symbol id="phone" viewBox="0 0 512 512">
        <path d="M493 25L389 1c-11-3-23 3-27 14l-48 112c-4 9-2 21 7 28l60 49c-36 77-99 141-177 177l-49-60c-7-9-19-11-28-7L15 362c-11 5-17 16-14 27l24 104c2 11 12 19 23 19 256 0 464-207 464-464 0-11-8-21-19-23z"/>
    </symbol>
    <symbol id="logout" viewBox="0 0 447.7 447.7">
        <path d="M182.7 379.2a7.4 7.4 0 0 1-.5-4c.1-1-.5-1.8-2-2.5-1.6-.6-2.3-1.2-2.3-1.5 0-.4-1.1-.7-3.3-.9l-3.3-.3H82.2A44 44 0 0 1 50 356.6a44 44 0 0 1-13.5-32.3v-201A44 44 0 0 1 50 91.1a44 44 0 0 1 32.2-13.4h91.4c2.5 0 4.4-.7 5.8-1.9 1.5-1.2 2.4-3 2.9-5.6A48 48 0 0 0 183 56l-.3-5.8c0-2.4-.9-4.6-2.7-6.4a8.8 8.8 0 0 0-6.4-2.7H82.2c-22.6 0-42 8-58 24.1A79.2 79.2 0 0 0 0 123.3v201c0 22.7 8 42 24.1 58.1s35.5 24.2 58.1 24.2h91.4c2.5 0 4.4-.7 5.8-1.9 1.5-1.2 2.4-3 2.9-5.6a48.1 48.1 0 0 0 .7-14.2l-.3-5.7z"/>
        <path d="M442.2 211L287 55.7a17.6 17.6 0 0 0-12.8-5.5c-5 0-9.2 1.9-12.9 5.5a17.6 17.6 0 0 0-5.4 12.8v82.2H128c-5 0-9.2 1.9-12.8 5.5a17.6 17.6 0 0 0-5.5 12.8v109.7c0 4.9 1.8 9.2 5.5 12.8 3.6 3.6 7.9 5.4 12.8 5.4h128v82.3c0 4.9 1.7 9.2 5.3 12.8 3.7 3.6 8 5.4 12.9 5.4 5 0 9.2-1.8 12.8-5.4l155.3-155.3c3.7-3.6 5.5-8 5.5-12.9 0-5-1.8-9.2-5.5-12.8z"/>
    </symbol>
    <symbol id="user" viewBox="0 0 448 512">
        <path d="M224 256c70.7 0 128-57.3 128-128S294.7 0 224 0 96 57.3 96 128s57.3 128 128 128zm89.6 32h-16.7c-22.2 10.2-46.9 16-72.9 16s-50.6-5.8-72.9-16h-16.7C60.2 288 0 348.2 0 422.4V464c0 26.5 21.5 48 48 48h352c26.5 0 48-21.5 48-48v-41.6c0-74.2-60.2-134.4-134.4-134.4z"></path>
    </symbol>
    <symbol id="message" viewBox="0 0 512 512">
        <path d="M502.3 190.8c3.9-3.1 9.7-.2 9.7 4.7V400c0 26.5-21.5 48-48 48H48c-26.5 0-48-21.5-48-48V195.6c0-5 5.7-7.8 9.7-4.7 22.4 17.4 52.1 39.5 154.1 113.6 21.1 15.4 56.7 47.8 92.2 47.6 35.7.3 72-32.8 92.3-47.6 102-74.1 131.6-96.3 154-113.7zM256 320c23.2.4 56.6-29.2 73.4-41.4 132.7-96.3 142.8-104.7 173.4-128.7 5.8-4.5 9.2-11.5 9.2-18.9v-19c0-26.5-21.5-48-48-48H48C21.5 64 0 85.5 0 112v19c0 7.4 3.4 14.3 9.2 18.9 30.6 23.9 40.7 32.4 173.4 128.7 16.8 12.2 50.2 41.8 73.4 41.4z"></path>
    </symbol>
    <symbol id="remove" viewBox="0 0 448 512">
        <path d="M32 464a48 48 0 0 0 48 48h288a48 48 0 0 0 48-48V128H32zm272-256a16 16 0 0 1 32 0v224a16 16 0 0 1-32 0zm-96 0a16 16 0 0 1 32 0v224a16 16 0 0 1-32 0zm-96 0a16 16 0 0 1 32 0v224a16 16 0 0 1-32 0zM432 32H312l-9-19a24 24 0 0 0-22-13H167a24 24 0 0 0-22 13l-9 19H16A16 16 0 0 0 0 48v32a16 16 0 0 0 16 16h416a16 16 0 0 0 16-16V48a16 16 0 0 0-16-16z"/>
    </symbol>
    <symbol id="calendar" viewBox="0 0 448 512">
        <path d="M0 464c0 27 22 48 48 48h352c27 0 48-21 48-48V192H0v272zm320-196c0-7 5-12 12-12h40c7 0 12 5 12 12v40c0 7-5 12-12 12h-40c-7 0-12-5-12-12v-40zm0 128c0-7 5-12 12-12h40c7 0 12 5 12 12v40c0 7-5 12-12 12h-40c-7 0-12-5-12-12v-40zM192 268c0-7 5-12 12-12h40c7 0 12 5 12 12v40c0 7-5 12-12 12h-40c-7 0-12-5-12-12v-40zm0 128c0-7 5-12 12-12h40c7 0 12 5 12 12v40c0 7-5 12-12 12h-40c-7 0-12-5-12-12v-40zM64 268c0-7 5-12 12-12h40c7 0 12 5 12 12v40c0 7-5 12-12 12H76c-7 0-12-5-12-12v-40zm0 128c0-7 5-12 12-12h40c7 0 12 5 12 12v40c0 7-5 12-12 12H76c-7 0-12-5-12-12v-40zM400 64h-48V16c0-9-7-16-16-16h-32c-9 0-16 7-16 16v48H160V16c0-9-7-16-16-16h-32c-9 0-16 7-16 16v48H48C22 64 0 86 0 112v48h448v-48c0-26-21-48-48-48z"/>
    </symbol>
    <symbol id="phone" viewBox="0 0 10 10">
        <path d="M9.7 7l-2.2-.9c-.2-.1-.4 0-.5.1L6 7.4a6.8 6.8 0 0 1-3.4-3.5l1.2-1c.1-.1.2-.3.1-.5L2.9.2c-.1-.2-.3-.3-.5-.2L.4.5C.2.5 0 .7 0 .9c0 5 4.1 9.1 9.1 9.1.2 0 .4-.2.5-.4l.5-2c-.1-.3-.2-.5-.4-.6z"/>
    </symbol>
    <symbol id="visible" viewBox="0 0 14 10">
        <path d="M13 4.9c-.8-1.3-1.8-2.3-3-2.9.3.6.5 1.2.5 1.9A3.58 3.58 0 0 1 7 7.6a3.58 3.58 0 0 1-3.5-3.7c0-.7.2-1.3.5-1.9-1.3.6-2.3 1.6-3 2.9.7 1.1 1.6 2 2.6 2.7s2.2 1 3.4 1 2.4-.3 3.4-1S12.3 6 13 4.9zM7.3 1.8c0-.1 0-.2-.1-.3-.1-.1-.1-.1-.2-.1-.7 0-1.2.2-1.7.7s-.7 1.1-.7 1.8c0 .1 0 .2.1.3.1 0 .1.1.3.1s.2 0 .3-.1v-.3c0-.5.2-.9.5-1.2s.7-.6 1.2-.6c.1 0 .2 0 .3-.1s0-.1 0-.2zM14 4.9c0 .2-.1.4-.2.6-.7 1.3-1.7 2.3-2.9 3S8.3 9.7 7 9.7s-2.7-.4-4-1.2C1.8 7.7.8 6.7.1 5.5 0 5.3 0 5.1 0 4.9c0-.2 0-.4.1-.6C.8 3 1.8 2 3 1.3S5.6.2 7 .2s2.7.4 3.9 1.1 2.2 1.8 2.9 3c.1.2.2.4.2.6z"/>
    </symbol>
    <symbol id="invisible" viewBox="0 0 14 11">
        <path d="M4.4 8.6L5 7.4c-.4-.3-.8-.7-1-1.2-.3-.6-.4-1.1-.4-1.7 0-.7.2-1.3.5-1.8-1.2.6-2.2 1.6-3 2.9.9 1.4 2 2.4 3.3 3zm3.1-6.2c0-.1 0-.2-.1-.3-.1 0-.2-.1-.3-.1-.6 0-1.2.3-1.7.7s-.7 1.1-.7 1.8c0 .1 0 .2.1.3.1.1.2.1.3.1s.2 0 .3-.1c.1-.1.1-.2.1-.3 0-.5.1-.9.5-1.2s.7-.5 1.1-.5c.1 0 .2 0 .3-.1 0-.1.1-.2.1-.3zM10.3.8c0 .1 0 .1 0 0-.5 1.1-1.4 2.7-2.5 4.8s-1.9 3.6-2.5 4.6l-.3.7c-.1.1-.1.1-.2.1s-.4-.2-1-.6c-.1-.1-.1-.1-.1-.2s.1-.3.3-.7c-.8-.3-1.5-.8-2.1-1.4-.6-.6-1.2-1.3-1.6-2-.1-.2-.2-.3-.2-.5s.1-.4.2-.6c.8-1.3 1.8-2.3 3-3a7.65 7.65 0 0 1 5.3-1L9 .2c0-.1.1-.1.2-.1h.1s.1.1.2.1.2.1.3.2.2.1.2.1.1.1.2.1c.1.1.1.2.1.2zm.3 3.7c0 .8-.2 1.5-.6 2.1-.4.6-1 1.1-1.6 1.3l2.2-4.1v.7zm3.5 1.1c0 .2-.1.4-.2.6-.2.3-.5.7-.9 1.2-.8.9-1.7 1.7-2.7 2.2-1 .5-2.1.8-3.3.8l.6-1.1a7.24 7.24 0 0 0 5.5-3.6c-.6-1-1.3-1.8-2.2-2.4l.5-.9c.5.3 1 .8 1.4 1.3s.8 1 1.1 1.5c.2 0 .2.2.2.4z"/>
    </symbol>
    <symbol id="email" viewBox="0 0 16 12">
        <path d="M1.6 3.7l1.8 1.2 2.3 1.6.4.3.5.2.5.3.5.2.4.1.4-.1.6-.2.5-.3.5-.3.4-.3 4.2-2.8 1.1-1c.2-.4.3-.8.3-1.3 0-.4-.1-.7-.4-1-.3-.2-.6-.3-1-.3H1.5C1 0 .7.1.4.4.2.7 0 1.1 0 1.5c0 .4.2.7.5 1.2l1.1 1z"/>
        <path d="M15.2 4.6l-4.4 2.9-.8.6-1 .4-1 .2-1-.2-.8-.4-.8-.6L.9 4.6 0 3.8v6.8c0 .4.1.7.4 1 .3.3.6.4 1 .4h13.1c.4 0 .7-.1 1-.4.3-.3.4-.6.4-1V3.8c-.1.3-.4.6-.7.8z"/>
    </symbol>
    <symbol id="home" viewBox="0 0 576 512">
        <path d="M280 148L96 300v164a16 16 0 0 0 16 16h112a16 16 0 0 0 16-16v-96a16 16 0 0 1 16-16h64a16 16 0 0 1 16 16v96a16 16 0 0 0 16 16h112a16 16 0 0 0 16-16V300L296 148a12 12 0 0 0-16 0zm292 103l-84-68V44a12 12 0 0 0-12-12h-56a12 12 0 0 0-12 12v73l-90-74a48 48 0 0 0-61 0L4 251a12 12 0 0 0-1 17l25 31a12 12 0 0 0 17 2l235-194a12 12 0 0 1 16 0l235 194a12 12 0 0 0 17-2l25-31a12 12 0 0 0-1-17z"/>
    </symbol>
    <symbol id="champ" viewBox="0 0 576 512">
        <path d="M552 64H448V24c0-13-11-24-24-24H152c-13 0-24 11-24 24v40H24C11 64 0 75 0 88v56c0 36 23 72 62 101 31 22 70 37 110 41 31 53 68 74 68 74v72h-48c-35 0-64 21-64 56v12c0 7 5 12 12 12h296c7 0 12-5 12-12v-12c0-35-29-56-64-56h-48v-72s37-21 68-74c40-4 79-19 110-41 39-29 62-65 62-101V88c0-13-11-24-24-24zM99 193c-24-18-35-37-35-49v-16h64c1 33 6 61 13 86-15-5-29-12-42-21zm413-49c0 16-18 36-35 49-13 9-27 16-42 21 7-25 12-53 13-86h64v16z"/>
    </symbol>
    <symbol id="edit" viewBox="0 0 529 529">
        <path d="M329 89l107 108-272 272L57 361 329 89zm189-26l-48-48a48 48 0 0 0-67 0l-46 46 108 108 53-54c14-14 14-37 0-52zM0 513c-2 9 6 16 15 14l120-29L27 391 0 513z"/>
    </symbol>
    <symbol id="menu" viewBox="0 0 448 512">
        <path d="M0 84V44c0-9 7-16 16-16h416c9 0 16 7 16 16v40c0 9-7 16-16 16H16c-9 0-16-7-16-16zm16 144h416c9 0 16-7 16-16v-40c0-9-7-16-16-16H16c-9 0-16 7-16 16v40c0 9 7 16 16 16zm0 256h416c9 0 16-7 16-16v-40c0-9-7-16-16-16H16c-9 0-16 7-16 16v40c0 9 7 16 16 16zm0-128h416c9 0 16-7 16-16v-40c0-9-7-16-16-16H16c-9 0-16 7-16 16v40c0 9 7 16 16 16z"/>
    </symbol>
    <symbol id="cyber" viewBox="0 0 504 356">
        <path d="M439 28C426 7 361-3 348 1l-22 11c-18 9-37 20-74 20-38 0-57-11-75-20L155 1c-12-5-78 6-91 27-53 85-84 280-49 316a34 34 0 0028 11c19-2 39-18 57-46l5-8c31-52 34-56 147-56 112 0 115 4 147 56l4 8c18 28 38 44 57 46 11 1 21-3 29-11 34-36 4-231-50-316zm-81 12h24c2 0 4 2 4 4v23l-2 4-12 7a4 4 0 01-4 0l-12-7-2-4V44c0-2 2-4 4-4zm-72 45c3-3 8-3 11 0a8 8 0 010 12l-6 2a8 8 0 01-8-8l3-6zm-79 0a8 8 0 0111 11 8 8 0 01-11 0 8 8 0 010-11zm-85 37a32 32 0 110-63 32 32 0 010 63zm114 56c0 2-2 3-4 3h-24v24c0 3-1 4-3 4h-24c-2 0-4-1-4-4v-24h-24c-2 0-4-1-4-3v-24c0-2 2-4 4-4h24v-24c0-2 2-4 4-4h24c2 0 3 2 3 4v24h24c2 0 4 2 4 4v24zm16-67a20 20 0 110-40 20 20 0 010 40zm58 87a32 32 0 110-63 32 32 0 010 63zm36-91h-23c-2 0-5-2-5-4V79c0-2 3-4 5-4h23l4 2 7 12v4l-7 12-4 2zm36 35h-24c-2 0-4-2-4-4v-23l2-4 12-7h4l12 7 1 4v23c0 2-1 4-3 4zm39-39c0 2-2 4-4 4h-24l-3-2-7-12v-4l7-12 3-2h24c2 0 4 2 4 4v24z"/>
    </symbol>
    <symbol id="filter" viewBox="0 0 512 512">
        <path d="M488 0H24C3 0-8 26 7 41l185 185v206c0 8 4 15 10 20l80 56c16 11 38-1 38-20V226L505 41c15-15 4-41-17-41z"/>
    </symbol>
    <symbol id="trash-alt" viewBox="0 0 448 512">
        <path d="M32 464a48 48 0 0048 48h288a48 48 0 0048-48V128H32zm272-256a16 16 0 0132 0v224a16 16 0 01-32 0zm-96 0a16 16 0 0132 0v224a16 16 0 01-32 0zm-96 0a16 16 0 0132 0v224a16 16 0 01-32 0zM432 32H312l-9.4-18.7A24 24 0 00281.1 0H166.8a23.72 23.72 0 00-21.4 13.3L136 32H16A16 16 0 000 48v32a16 16 0 0016 16h416a16 16 0 0016-16V48a16 16 0 00-16-16z"/>
    </symbol>
    <symbol id="sync-alt" viewBox="0 0 512 512">
        <path d="M484 28l-53 53A247 247 0 008 243c0 7 5 13 12 13h28c7 0 12-5 12-11a196 196 0 01335-128l-55 55c-7 7-2 20 9 20h143c7 0 12-5 12-12V37c0-11-13-16-20-9zm8 228h-28c-7 0-12 5-12 11a196 196 0 01-335 128l55-55c7-7 2-20-9-20H20c-7 0-12 5-12 12v143c0 11 13 16 20 9l53-53a247 247 0 00423-162c0-7-5-13-12-13z"/>
    </symbol>
    <symbol id="info" viewBox="0 0 192 512">
        <path d="M20 424h20V280H20c-11 0-20-9-20-20v-48c0-11 9-20 20-20h112c11 0 20 9 20 20v212h20c11 0 20 9 20 20v48c0 11-9 20-20 20H20c-11 0-20-9-20-20v-48c0-11 9-20 20-20zM96 0a72 72 0 100 144A72 72 0 0096 0z"/>
    </symbol>
    <symbol id="weather-temp" viewBox="0 0 11 9">
        <path d="M10.3 5.3A2 2 0 009 4.5c.2-.2.3-.5.3-.7 0-.4-.2-.8-.4-1-.3-.3-.6-.5-1-.5-.3 0-.6.1-.8.4-.2-.6-.6-1-1-1.4-1-.7-2.5-.6-3.4.4A3 3 0 002 4c-.4.2-.7.5-1 1-.2.3-.3.8-.3 1.3 0 .7.2 1.3.7 1.8.4.5 1 .8 1.6.8h5.7c.5 0 1-.3 1.4-.7a2.2 2.2 0 00.1-3z"/>
    </symbol>
    <symbol id="weather-wind" viewBox="0 0 11 9">
        <path d="M6.33 5.92H2.3v.63h4.03c.46.02.83.41.81.89a.76.76 0 01-.72.78.68.68 0 01-.65-.7h-.59c-.01.72.54 1.32 1.24 1.34a1.37 1.37 0 001.31-1.42c.02-.82-.6-1.5-1.4-1.52zM8.7.86a1.93 1.93 0 00-1.85 2h.59A1.32 1.32 0 018.7 1.49c.8.02 1.42.7 1.4 1.52.02.9-.67 1.65-1.55 1.67H.68v.64h7.87A2.23 2.23 0 0010.7 3 2.07 2.07 0 008.7.86zm-3.4.75c-.6.02-1.06.52-1.05 1.12h.59c0-.26.2-.48.45-.49.3.01.53.26.52.56 0 .35-.26.64-.59.64H2.3v.64h2.92c.67-.02 1.2-.59 1.18-1.27a1.16 1.16 0 00-1.1-1.2z"/>
    </symbol>
    <symbol id="weather-pressure" viewBox="0 0 9 9">
        <path d="M4.69 4.24a.62.62 0 11.14-1.22l.87-.68a.2.2 0 01.27 0 .2.2 0 010 .28l-.69.86.02.14c0 .34-.27.62-.61.62zm-4 3.08c0-.17.13-.31.3-.31h2.77v-.78a2.77 2.77 0 111.85 0v.78h2.77a.3.3 0 010 .61H.99a.3.3 0 01-.3-.3zm4-1.85a1.85 1.85 0 10-1.85-1.85c0 1.02.83 1.85 1.84 1.85zm3.69 2.77H.99a.3.3 0 000 .62h7.39a.3.3 0 000-.62z"/>
    </symbol>
    <symbol id="weather-humidity" viewBox="0 0 7 9">
        <path d="M3.5 1L1.1 4.8c-.5.8-.6 1.8 0 2.7a3.2 3.2 0 004 1c1.5-.8 2-2.4 1.2-3.7L3.9 1c-.1-.2-.3-.2-.4 0z"/>
    </symbol>
    <symbol id="stadium" viewBox="0 0 15 11">
        <path d="M13.56 2.51V2.5h-.12v.94a4.61 4.61 0 00-.9-.58 8.83 8.83 0 00-2.5-.8v-.44c.42-.38.8.17 1.08-.37-.66 0-.51-.4-1.08-.37V.85h-.12v1.19l-.63-.1a14.14 14.14 0 00-3.9.1V.84h-.1v.03c-.58-.03-.43.38-1.1.37.29.54.67 0 1.1.37v.45c-1 .15-1.94.47-2.82.96l-.6.42V2.5h-.1v.02c-.58-.04-.43.38-1.1.37.29.54.67 0 1.1.37v.3c-.44.35-.7.88-.72 1.45.06.64.4 1.23.91 1.6v.95a2.08 2.08 0 01-.54-.72 1.32 1.32 0 01-.08-.36v.04a1.39 1.39 0 00.1.61 2.34 2.34 0 00.52.75v.87a2.1 2.1 0 01-.53-.72 1.32 1.32 0 01-.08-.36v.17c0 .17.04.33.1.48a2.34 2.34 0 00.52.74l.03.03a4.12 4.12 0 001.14.78 8.98 8.98 0 002.44.77h.03l.07.22.13-.04.14-.04-.48-1.65a8.62 8.62 0 014.42 0l-.48 1.65.13.04.14.04.06-.22h.04a10.56 10.56 0 001.9-.53 6.71 6.71 0 001.03-.52c.23-.14.45-.31.65-.5l.02-.03a2.15 2.15 0 00.52-.74 1.4 1.4 0 00.11-.6v-.05.04l-.03.13a1.56 1.56 0 01-.18.43 1.8 1.8 0 01-.41.48v-.87l.1-.1c.17-.19.32-.4.42-.65a1.42 1.42 0 00.1-.6v-.05.04c0 .03 0 .07-.02.13a1.57 1.57 0 01-.18.43 2.66 2.66 0 01-.42.48v-.94c.53-.38.86-.96.92-1.6a2 2 0 00-.72-1.47v-.3c.42-.37.8.18 1.09-.36-.7 0-.55-.4-1.12-.37zm-3.47.14c.55.1 1.1.26 1.63.47.54.19 1.03.48 1.46.85L10.94 5.4a4.5 4.5 0 00-2.01-.76l1.16-1.98zm-1.69-.2c.45.02.9.07 1.33.14l-1.16 2a8.32 8.32 0 00-1.83 0l-1.17-2c.94-.15 1.88-.2 2.83-.14zm-5.86 1.2a7.18 7.18 0 012.68-1l1.16 1.99a4.5 4.5 0 00-2 .76L2.12 3.97l.4-.32zm1 5.94a6.52 6.52 0 01-1.26-.6v-.83a5.68 5.68 0 001.25.7v.73zm0-1.2a6.7 6.7 0 01-1.18-.54l-.08-.05v-.96l.36.21a7 7 0 00.9.41v.94zm-.3-1.69a3.7 3.7 0 01-1.28-.88 1.22 1.22 0 01-.35-.83c.02-.19.07-.37.14-.54l.15-.22 2.22 1.4a.93.93 0 00-.24.6c.03.39.25.72.58.91a7.54 7.54 0 01-1.22-.44zM5 9.97c-.38-.07-.76-.16-1.14-.28V9a9.24 9.24 0 001.36.38l.2.67L5 9.97zm6.45-.28a10.27 10.27 0 01-1.55.35l.19-.67A8.68 8.68 0 0011.45 9v.7zm0-1.18a10.56 10.56 0 01-1.5.33c-1.5-.4-3.08-.4-4.58 0a8.7 8.7 0 01-1.5-.33v-.94a13.93 13.93 0 007.58 0v.94zm1.58.48l-.08.05a4.6 4.6 0 01-1.17.54v-.72a5.16 5.16 0 001.25-.7v.83zm0-1.19l-.08.05a6.78 6.78 0 01-1.17.54v-.93a7.36 7.36 0 001.25-.62v.96zm.66-2.82a1.83 1.83 0 01-.9 1.31c-.6.39-1.24.67-1.93.84.33-.18.54-.52.57-.9 0-.22-.1-.43-.24-.6l2.21-1.4c.17.22.27.48.29.75z"/>
    </symbol>
    <symbol id="question" viewBox="0 0 384 512">
        <path d="M202 0C122 0 71 33 30 91c-7 11-5 25 5 33l43 33c11 7 25 6 33-5 26-31 44-49 83-49 31 0 69 20 69 50 0 22-19 34-49 51-35 20-82 44-82 106v10c0 13 11 24 24 24h72c13 0 24-11 24-24v-6c0-43 126-44 126-160C378 66 287 0 202 0zm-10 373a69 69 0 100 139 69 69 0 000-139z"/>
    </symbol>
    <symbol id="cast" viewBox="0 0 640 512">
        <path d="M631 97L437 0c-21 28-65 47-117 47S224 28 204 0L9 97c-8 4-11 13-7 21l57 115c4 7 13 11 21 7l57-28c11-5 23 3 23 14v254c0 18 14 32 32 32h256c18 0 32-14 32-32V226c0-11 12-19 23-14l56 28c8 4 18 0 22-8l57-114c4-8 1-18-7-21z"/>
    </symbol>
    <symbol id="football-corners" viewBox="0 0 12 22">
        <path stroke="currentColor" d="M.5.5h1v21h-1V.5z"/>
        <path d="M2 0h10v8H2V0z"/>
    </symbol>
    <symbol id="football-red-cards" viewBox="0 0 16 22">
        <path fill="#FF5C60" d="M3 0h10a3 3 0 013 3v16a3 3 0 01-3 3H3a3 3 0 01-3-3V3a3 3 0 013-3z"/>
        <path fill="#fff" fill-opacity=".1" d="M16 17V3a3 3 0 00-3-3H3a3 3 0 00-3 1l16 16z"/>
    </symbol>
    <symbol id="football-yellow-cards" viewBox="0 0 16 22">
        <path fill="#EFEC41" d="M3 0h10a3 3 0 013 3v16a3 3 0 01-3 3H3a3 3 0 01-3-3V3a3 3 0 013-3z"/>
        <path fill="#fff" fill-opacity=".1" d="M16 17V3a3 3 0 00-3-3H3a3 3 0 00-3 1l16 16z"/>
    </symbol>
    <symbol id="bullets-yes" viewBox="0 0 512 512">
        <path d="M256 8a248 248 0 100 496 248 248 0 000-496zm0 48a200 200 0 110 400 200 200 0 010-400m140 130l-22-22c-5-5-13-5-17-1L215 304l-59-61c-5-4-13-4-17 0l-23 23c-5 5-5 12 0 17l91 91c4 5 12 5 17 0l172-171c5-4 5-12 0-17z"/>
    </symbol>
    <symbol id="bullets-no" viewBox="0 0 512 512">
        <path d="M256 8a248 248 0 100 496 248 248 0 000-496zm0 448a200 200 0 110-400 200 200 0 010 400zm102-262l-62 62 62 62c5 5 5 12 0 17l-23 23c-5 5-12 5-17 0l-62-62-62 62c-5 5-12 5-17 0l-23-23c-4-5-4-12 0-17l62-62-62-62c-4-5-4-12 0-17l23-23c5-4 12-4 17 0l62 62 62-62c5-4 13-4 17 0l23 23c5 5 5 12 0 17z"/>
    </symbol>
    <symbol id="sign-out-alt" viewBox="0 0 512 512">
        <path d="M497 273L329 441c-15 15-41 5-41-17v-96H152c-13 0-24-11-24-24v-96c0-13 11-24 24-24h136V88c0-21 26-32 41-17l168 168c9 9 9 25 0 34zM192 436v-40c0-7-5-12-12-12H96c-18 0-32-14-32-32V160c0-18 14-32 32-32h84c7 0 12-5 12-12V76c0-7-5-12-12-12H96c-53 0-96 43-96 96v192c0 53 43 96 96 96h84c7 0 12-5 12-12z"/>
    </symbol>
    <symbol id="history" viewBox="0 0 512 512">
        <path d="M504 256a249 249 0 01-404 193c-11-9-12-25-1-36l11-11c8-8 22-9 32-2a184 184 0 10-12-278l51 51c10 10 3 27-12 27H24c-9 0-16-7-16-16V39c0-15 17-22 27-12l50 50a247 247 0 01419 179zm-181 78l10-12c8-11 6-26-4-34l-41-32V152c0-13-11-24-24-24h-16c-13 0-24 11-24 24v136l65 51c11 8 26 6 34-5z"/>
    </symbol>
    <symbol id="dollar-sign" viewBox="0 0 288 512">
        <path d="M209 233l-108-31c-12-4-21-15-21-28 0-17 13-30 30-30h66c12 0 24 4 34 11 6 4 14 3 20-2l34-34c7-7 6-19-1-25-25-19-56-30-87-30V16c0-9-7-16-16-16h-32c-9 0-16 7-16 16v48h-2C46 64-5 119 1 184c4 46 39 83 83 96l103 30c12 4 21 15 21 28 0 17-13 30-29 30h-67c-12 0-24-4-34-10-6-5-14-4-19 2l-35 34c-7 6-6 18 2 24 24 19 55 30 86 30v48c0 9 7 16 16 16h32c9 0 16-7 16-16v-48c47-1 90-29 106-73 21-61-15-125-73-142z"/>
    </symbol>
    <symbol id="upload" viewBox="0 0 512 512">
        <path d="M296 384h-80c-13 0-24-11-24-24V192h-88c-18 0-26-21-14-34L242 6c8-8 20-8 28 0l152 152c12 12 4 34-14 34h-88v168c0 13-11 24-24 24zm216-8v112c0 13-11 24-24 24H24c-13 0-24-11-24-24V376c0-13 11-24 24-24h136v8c0 31 25 56 56 56h80c31 0 56-25 56-56v-8h136c13 0 24 11 24 24zm-124 88c0-11-9-20-20-20s-20 9-20 20 9 20 20 20 20-9 20-20zm64 0c0-11-9-20-20-20s-20 9-20 20 9 20 20 20 20-9 20-20z"/>
    </symbol>
    <symbol id="exchange-alt" viewBox="0 0 512 512">
        <path d="M0 168v-16c0-13 11-24 24-24h360V80c0-21 26-32 41-17l80 80c9 9 9 25 0 34l-80 80c-15 15-41 4-41-17v-48H24c-13 0-24-11-24-24zm488 152H128v-48c0-21-26-32-41-17L7 335c-9 9-9 25 0 34l80 80c15 15 41 4 41-17v-48h360c13 0 24-11 24-24v-16c0-13-11-24-24-24z"/>
    </symbol>
    <symbol id="user" viewBox="0 0 448 512">
        <path d="M224 256a128 128 0 100-256 128 128 0 000 256zm90 32h-17a174 174 0 01-146 0h-17C60 288 0 348 0 422v42c0 27 22 48 48 48h352c27 0 48-21 48-48v-42c0-74-60-134-134-134z"/>
    </symbol>
    <symbol id="lock" viewBox="0 0 448 512">
        <path d="M400 224h-24v-72a152 152 0 00-304 0v72H48c-26 0-48 22-48 48v192c0 27 22 48 48 48h352c27 0 48-21 48-48V272c0-26-21-48-48-48zm-104 0H152v-72a72 72 0 01144 0v72z"/>
    </symbol>
    <symbol id="cog" viewBox="0 0 512 512">
        <path d="M487 316l-42-25c4-23 4-47 0-70l42-25c5-3 7-8 6-14-11-35-30-68-55-94-4-4-10-5-15-3l-42 25c-18-15-39-27-61-35V26c0-6-4-11-9-12-37-8-75-8-110 0-5 1-9 6-9 12v49c-22 8-43 20-61 35L89 86c-5-3-11-2-15 2-25 26-44 59-55 94-1 6 1 12 6 14l42 25c-4 23-4 47 0 70l-42 25c-5 3-7 8-6 14 11 35 30 68 55 94 4 4 10 5 15 3l42-25c18 15 39 27 61 35v49c0 6 4 11 10 12 36 8 74 8 109 0 5-1 9-6 9-12v-49c22-8 43-20 61-35l43 25c4 2 11 2 14-3 25-26 44-59 55-94 2-6-1-12-6-14zm-231 20a80 80 0 110-160 80 80 0 010 160z"/>
    </symbol>
    <symbol id="exclamation-triangle" viewBox="0 0 576 512">
        <path d="M249 205l6 112c1 6 6 11 12 11h42a12 12 0 0012-11l6-112c1-7-5-13-12-13h-54c-7 0-13 6-12 13zm81 179a42 42 0 11-84 0 42 42 0 0184 0zm0-360a48 48 0 00-84 0L6 440c-18 32 5 72 42 72h480c37 0 60-40 42-72L330 24zM53 455L283 57c2-4 8-4 10 0l230 398c2 4-1 9-5 9H58c-4 0-7-5-5-9z"/>
    </symbol>
    <!-- TOTO  -->
    <symbol id="1-0" viewBox="0 0 57 33">
        <path d="M43.8 32c-8.3 0-12.3-7.1-12.3-15.8 0-8.5 4-15.8 12.4-15.8C52 .4 56 7.2 56 16c0 8.5-3.5 16-12.3 16zm0-27.6c-5.4 0-7.3 5.2-7.3 11.8 0 5.2 1.8 11.8 7.3 11.8 5.9 0 7.3-6.1 7.3-12 0-5.2-1.6-11.6-7.2-11.6zm-23.4 20h5v7h-5v-7zm0-15h5v7.1h-5v-7zM7.7 7A21.6 21.6 0 01.6 9.2V5.6A18 18 0 009 1h3.7v30.4h-5V7z"/>
    </symbol>
    <symbol id="toto" viewBox="0 0 31 31">
        <path d="M13.92 14.82c0 .56-.43.91-1.14.91h-.56V14c.1-.02.3-.05.64-.05.66.01 1.06.3 1.06.88zM31 15.5c0 1.2-.47 2.33-1.32 3.18l-1.9 1.9v2.7a4.5 4.5 0 01-4.5 4.5h-2.7l-1.9 1.9a4.48 4.48 0 01-6.36 0l-1.9-1.9h-2.7a4.48 4.48 0 01-4.5-4.5v-2.7l-1.9-1.9a4.47 4.47 0 010-6.36l1.9-1.9v-2.7a4.5 4.5 0 014.5-4.5h2.7l1.9-1.9a4.47 4.47 0 016.36 0l1.9 1.9h2.7a4.48 4.48 0 014.5 4.5v2.7l1.9 1.9A4.48 4.48 0 0131 15.5zM9.72 12.93H5.86v6.32h1.43v-2.54h2.27v-1.16H7.3V14.1h2.44v-1.17zm5.86 6.32c-.13-.24-.32-1.07-.52-1.78-.16-.58-.4-1-.85-1.18v-.03c.55-.2 1.12-.75 1.12-1.56 0-.58-.2-1.02-.58-1.32-.45-.36-1.1-.5-2.05-.5-.76 0-1.44.06-1.9.13v6.24h1.41v-2.48h.44c.58 0 .85.22 1.02 1.01.19.78.34 1.3.44 1.47h1.47zm4.82-1.17h-2.6v-1.5h2.32V15.4H17.8V14.1h2.48v-1.17h-3.91v6.32h4.04v-1.17zm5 0h-2.6v-1.5h2.33V15.4H22.8V14.1h2.47v-1.17h-3.9v6.32h4.03v-1.17z"/>
    </symbol>
    <symbol id="info-circle" viewBox="0 0 512 512">
        <path d="M256 8a248 248 0 100 496 248 248 0 000-496zm0 110a42 42 0 110 84 42 42 0 010-84zm56 254c0 7-5 12-12 12h-88c-7 0-12-5-12-12v-24c0-7 5-12 12-12h12v-64h-12c-7 0-12-5-12-12v-24c0-7 5-12 12-12h64c7 0 12 5 12 12v100h12c7 0 12 5 12 12v24z"/>
    </symbol>
    <symbol id="long-arrow-right" viewBox="0 0 448 512">
        <path d="M255 154l65 66H24c-13 0-24 11-24 24v24c0 13 11 24 24 24h296l-65 66c-10 9-10 24 0 34l17 16c9 10 24 10 33 0l136-135c9-9 9-25 0-34L305 104c-9-10-24-10-33 0l-17 16c-10 10-10 25 0 34z"/>
    </symbol>
    <symbol id="light-long-arrow-right" viewBox="0 0 448 512">
        <path d="M311 132l-7 7c-5 4-5 12 0 17l84 83H12c-7 0-12 5-12 12v10c0 7 5 12 12 12h376l-84 83c-5 5-5 13 0 17l7 7c5 5 12 5 17 0l116-116c5-4 5-12 0-16L328 132c-5-5-12-5-17 0z"/>
    </symbol>
    <symbol id="free" viewBox="0 0 31 31">
        <path d="M14 14.8c0 .6-.5 1-1.2 1h-.6V14h.7c.6 0 1 .2 1 .8zm17 .7c0 1.2-.5 2.3-1.3 3.2l-2 1.9v2.7c0 2.5-2 4.5-4.4 4.5h-2.7l-2 1.9a4.5 4.5 0 01-6.3 0l-1.9-2H7.7a4.5 4.5 0 01-4.5-4.4v-2.7l-1.9-2a4.5 4.5 0 010-6.3l2-1.9V7.7c0-2.5 2-4.5 4.4-4.5h2.7l2-1.9a4.5 4.5 0 016.3 0l1.9 2h2.7a4.5 4.5 0 014.5 4.4v2.7l1.9 2c.8.8 1.3 1.9 1.3 3.1zM9.7 12.9H6v6.4h1.4v-2.6h2.3v-1.2H7.3v-1.4h2.4v-1.2zm5.9 6.4l-.5-1.8c-.2-.6-.4-1-.9-1.2.6-.2 1.1-.8 1.1-1.6 0-.6-.2-1-.6-1.3-.4-.4-1-.5-2-.5l-1.9.1v6.3h1.4v-2.5h.4c.6 0 .9.2 1 1l.5 1.5h1.5zm4.8-1.2h-2.6v-1.5H20v-1.2h-2.3v-1.3h2.5v-1.2h-4v6.4h4.1V18zm5 0h-2.6v-1.5h2.3v-1.2h-2.3v-1.3h2.5v-1.2h-4v6.4h4.1V18z"/>
    </symbol>
    <symbol id="print" viewBox="0 0 512 512">
        <path d="M448 192V77c0-8-3-16-9-22L393 9c-6-6-14-9-22-9H96C78 0 64 14 64 32v160c-35 0-64 29-64 64v112c0 9 7 16 16 16h48v96c0 18 14 32 32 32h320c18 0 32-14 32-32v-96h48c9 0 16-7 16-16V256c0-35-29-64-64-64zm-64 256H128v-96h256v96zm0-224H128V64h192v48c0 9 7 16 16 16h48v96zm48 72a24 24 0 110-48 24 24 0 010 48z"/>
    </symbol>
    <symbol id="arrow-down" viewBox="0 0 448 512">
        <path d="M413 223l22 22c10 9 10 24 0 34L241 473c-9 9-25 9-34 0L13 279c-10-10-10-25 0-34l22-22c9-10 25-10 34 0l115 120V56c0-13 11-24 24-24h32c13 0 24 11 24 24v287l115-120c9-10 25-10 34-1z"/>
    </symbol>
    <symbol id="arrow-up" viewBox="0 0 448 512">
        <path d="M35 290l-22-23c-10-9-10-24 0-34L207 39c9-9 25-9 34 0l194 194c10 10 10 25 0 34l-22 22c-9 10-25 10-34 0L264 169v287c0 13-11 24-24 24h-32c-13 0-24-11-24-24V169L69 289c-9 10-25 10-34 1z"/>
    </symbol>
    <symbol id="cherry" viewBox="0 0 480 512">
        <path d="M120 150c23 0 43-6 60-14-17 32-27 68-29 106-68 8-121 64-121 134 0 74 61 136 135 136 23 0 45-6 65-17a167 167 0 010-237c-16-8-32-14-49-16 6-106 86-193 189-209-26 37-40 81-40 127v83c-67 7-120 64-120 133 0 74 61 136 135 136s135-62 135-136c0-69-53-126-120-133v-83c0-51 20-99 56-134l25-26h-36c-70 0-134 29-181 75-12-12-51-45-104-45C57 30 13 77 11 79L0 90l11 11c2 2 46 49 109 49zm225 181c-25 0-45 20-45 45h-30c0-41 34-75 75-75v30zm-180 0c-25 0-45 20-45 45H90c0-41 34-75 75-75v30z"/>
    </symbol>
    <symbol id="friends" viewBox="0 0 512 512">
        <path d="M155 57c-51 0-93 45-93 99 0 55 42 99 93 99s94-44 94-99c0-54-42-99-94-99zM368 71h-1c-21 1-42 10-57 26a87 87 0 00-22 60c0 22 8 43 23 59s36 25 57 25h1c21 0 41-9 56-26 15-16 23-37 23-59 0-47-36-85-80-85zM372 257h-8c-36 0-69 14-94 37a181 181 0 0170 133h172v-29c0-78-63-141-140-141zM310 427a150 150 0 00-150-141h-9C67 286 0 354 0 437v18h311v-18l-1-10z"/>
    </symbol>
    <symbol id="ticket" viewBox="0 0 460 460">
        <path d="M460 110V80H340v300h120v-30c-16 0-30-13-30-30s14-30 30-30v-30c-16 0-30-13-30-30s14-30 30-30v-30c-16 0-30-13-30-30s14-30 30-30zM0 110c17 0 30 13 30 30s-13 30-30 30v30c17 0 30 13 30 30s-13 30-30 30v30c17 0 30 13 30 30s-13 30-30 30v30h310V80H0v30z"/>
    </symbol>
    <symbol id="customer-service" viewBox="0 0 460 460">
        <path d="M360 297c-19 25-48 41-81 41h-47c-16 0-30-10-35-24a118 118 0 01-54-34C76 295 25 355 25 427v9c0 13 11 24 24 24h362c13 0 23-11 23-24v-9c0-56-30-104-74-130z"/>
        <path d="M118 232c10 0 19-5 24-14a102 102 0 000 2c11 28 31 51 59 61 6-10 18-17 31-17h47c4 0 9-1 12-4 7-3 13-12 15-17 5-8 9-16 12-25 2 4 4 7 8 9v11c0 26-22 47-47 47h-47a16 16 0 000 32h47c43 0 78-35 78-79v-11c7-5 11-13 11-21v-67c0-9-4-17-11-22a128 128 0 00-254 0c-7 5-11 13-11 22v67c0 14 12 26 26 26zM230 32c49 0 90 38 95 86-3 3-6 6-7 9-16-39-49-66-88-66-40 0-73 28-88 66l-7-9c4-48 45-86 95-86z"/>
    </symbol>
    <symbol id="stream" viewBox="0 0 512 512">
        <path d="M16 128h416c9 0 16-7 16-16V48c0-9-7-16-16-16H16C7 32 0 39 0 48v64c0 9 7 16 16 16zm480 80H80c-9 0-16 7-16 16v64c0 9 7 16 16 16h416c9 0 16-7 16-16v-64c0-9-7-16-16-16zm-64 176H16c-9 0-16 7-16 16v64c0 9 7 16 16 16h416c9 0 16-7 16-16v-64c0-9-7-16-16-16z"/>
    </symbol>
    <symbol id="chart-pie-alt" viewBox="0 0 512 512">
        <path d="M461 288H224V51a16 16 0 00-18-16 240 240 0 10271 271c2-10-6-18-16-18zM240 464h-6c-99-3-183-87-186-186-3-85 50-160 128-187v245h245c-27 75-99 128-181 128zM289 0h-1c-9 0-16 7-16 16v224h224c9 0 17-8 16-17A241 241 0 00289 0z"/>
    </symbol>
    <symbol id="success-arrow" viewBox="0 0 29 21">
        <path d="M1 12.9l7.4 7.4c.8.7 2 .7 2.8 0L27.9 3.6c.7-.8.7-2 0-2.8a2 2 0 00-2.8 0L9.8 16.1l-6-6A2 2 0 001 12.9z"/>
    </symbol>
    <symbol id="error-cross" viewBox="0 0 22 22">
        <path d="M21.35 1.06a1.57 1.57 0 00-2.23 0l-7.78 7.79-7.79-7.79a1.57 1.57 0 10-2.22 2.22l7.79 7.8-7.79 7.78a1.57 1.57 0 102.22 2.22l7.79-7.78 7.79 7.78a1.57 1.57 0 002.23-2.22l-7.8-7.79 7.79-7.78c.61-.62.61-1.61 0-2.23z"/>
    </symbol>
    <symbol id="phone-alt" viewBox="0 0 512 512">
        <path d="M497 362l-112-48a24 24 0 00-28 7l-49 60a371 371 0 01-177-177l60-49a24 24 0 007-28L150 15a24 24 0 00-27-14L19 25A24 24 0 000 48c0 257 208 464 464 464a24 24 0 0023-19l24-104a24 24 0 00-14-27z"/>
    </symbol>
    <symbol id="file" viewBox="0 0 384 512">
        <path d="M224 136V0H24C11 0 0 11 0 24v464c0 13 11 24 24 24h336c13 0 24-11 24-24V160H248c-13 0-24-11-24-24zm160-14v6H256V0h6c7 0 13 3 17 7l98 98c5 5 7 11 7 17z"/>
    </symbol>
    <!-- registration  -->
    <symbol id="full-reg" viewBox="0 0 32 32">
        <path d="M16 20.667l-3.933-3.467-11.333 9.733c0.4 0.4 1 0.6 1.6 0.6h27.4c0.6 0 1.133-0.267 1.6-0.6l-11.333-9.733-4 3.467z"></path>
        <path d="M31.267 5.267c-0.4-0.333-0.933-0.6-1.6-0.6h-27.333c-0.667 0-1.2 0.267-1.6 0.6l15.267 13.133 15.267-13.133z"></path>
        <path d="M0 6.667v19l11.067-9.4z"></path>
        <path d="M20.933 16.267l11.067 9.4v-19z"></path>
    </symbol>
    <symbol id="soc-reg" viewBox="0 0 32 32">
        <path d="M19.333 7.267c1.467 0.933 2.533 2.467 2.733 4.333 0.6 0.267 1.267 0.467 2 0.467 2.6 0 4.667-2.133 4.667-4.667 0-2.6-2.133-4.667-4.667-4.667-2.667-0.067-4.733 2-4.733 4.533zM16.267 16.867c2.6 0 4.667-2.133 4.667-4.667s-2.133-4.667-4.667-4.667-4.667 2.133-4.667 4.667 2.067 4.667 4.667 4.667zM18.2 17.2h-4c-3.333 0-6 2.667-6 6v4.933l0.333 0.133c3.133 1 5.933 1.333 8.2 1.333 4.4 0 7-1.267 7.133-1.333l0.333-0.133h0.067v-4.867c0-3.333-2.733-6.067-6.067-6.067zM26 12.4h-3.933c-0.067 1.6-0.733 3-1.8 4 2.933 0.867 5.067 3.6 5.067 6.867v1.533c3.933-0.133 6.133-1.267 6.267-1.333l0.333-0.133h0.067v-4.867c0-3.4-2.667-6.067-6-6.067zM8 12.067c0.933 0 1.8-0.267 2.467-0.733 0.2-1.533 1.067-2.8 2.2-3.733 0-0.067 0-0.2 0-0.267 0-2.6-2.133-4.667-4.667-4.667-2.6 0-4.667 2.133-4.667 4.667 0 2.6 2.067 4.733 4.667 4.733zM12.2 16.4c-1.067-1-1.733-2.467-1.8-4-0.133 0-0.267 0-0.467 0h-3.933c-3.333 0-6 2.667-6 6v4.933l0.333 0.133c2.533 0.8 4.8 1.133 6.8 1.267v-1.467c0-3.267 2.133-6 5.067-6.867z"></path>
    </symbol>
    <symbol id="key" viewBox="0 0 50 50">
        <path d="M24.884,0c-6.65,0-12.041,5.392-12.041,12.042c0,4.766,2.775,8.872,6.791,10.824v2.821h2.167v0.043l-2.188,2.4l2.188,1.641   v0.572l-2.292,2.477l2.292,1.736v0.474l-2.292,1.978l2.292,1.916v0.791l-2.083,2.146l2.083,2.812v1.229l-2.292,1l2.292,2.869h1.188   h0.896V25.688h1.209v24.084h3.625V25.688h1.416v-2.821c4.017-1.952,6.793-6.059,6.793-10.824C36.927,5.392,31.535,0,24.884,0z    M24.884,9.667c-1.795,0-3.25-1.455-3.25-3.25s1.455-3.25,3.25-3.25s3.25,1.455,3.25,3.25S26.679,9.667,24.884,9.667z"></path>
    </symbol>
    <symbol id="update" viewBox="0 0 32 32">
        <path d="M 27.316406 4.265625 C 25.519531 2.472656 23.40625 1.195312 21.152344 0.429688 L 21.152344 5.257812 C 22.234375 5.796875 23.265625 6.5 24.167969 7.402344 C 28.671875 11.910156 28.671875 19.242188 24.167969 23.746094 C 19.660156 28.246094 12.335938 28.246094 7.824219 23.746094 C 3.324219 19.234375 3.324219 11.910156 7.824219 7.402344 C 7.835938 7.390625 7.871094 7.367188 7.886719 7.347656 L 7.890625 7.347656 L 10.5625 10.011719 L 10.546875 1.546875 L 2.085938 1.539062 L 4.746094 4.195312 C 4.730469 4.222656 4.703125 4.25 4.683594 4.265625 C -1.5625 10.511719 -1.5625 20.640625 4.683594 26.882812 C 10.941406 33.136719 21.0625 33.136719 27.316406 26.882812 C 33.558594 20.640625 33.5625 10.511719 27.316406 4.265625 Z M 27.316406 4.265625 "></path>
    </symbol>
    <symbol id="copy" viewBox="0 0 32 32">
        <path d="M9.267 2.933h17.467v20.333h2.933v-20.333c0-1.6-1.333-2.933-2.933-2.933h-17.467v2.933zM2 8.733v20.333c0 1.6 1.333 2.933 2.933 2.933h16c1.6 0 2.933-1.333 2.933-2.933v-20.333c0-1.6-1.333-2.933-2.933-2.933h-16c-1.6 0-2.933 1.333-2.933 2.933zM4.933 8.733h16v20.333h-16v-20.333z"></path>
    </symbol>
    <symbol id="microphone" viewBox="0 0 352 512">
        <path d="M176 352c53 0 96-43 96-96V96a96 96 0 10-192 0v160c0 53 43 96 96 96zm160-160h-16c-9 0-16 7-16 16v48c0 75-64 135-141 127-66-6-115-66-115-133v-42c0-9-7-16-16-16H16c-9 0-16 7-16 16v40c0 90 64 170 152 182v34H96c-9 0-16 7-16 16v16c0 9 7 16 16 16h160c9 0 16-7 16-16v-16c0-9-7-16-16-16h-56v-34c86-12 152-85 152-174v-48c0-9-7-16-16-16z"/>
    </symbol>
    <symbol id="warning" viewBox="0 0 95.1 95.1">
        <path d="M47.5 0C21.3 0 0 21.3 0 47.5c0 26.3 21.3 47.5 47.5 47.5 26.3 0 47.5-21.3 47.5-47.5C95.1 21.3 73.8 0 47.5 0zM55.6 80.1c0 0.8-0.6 1.4-1.4 1.4H40.9c-0.8 0-1.4-0.6-1.4-1.4V67.7c0-0.8 0.6-1.4 1.4-1.4H54.2c0.8 0 1.4 0.6 1.4 1.4V80.1zM55.6 57.8c0 0.8-0.6 1.4-1.4 1.4H40.9c-0.8 0-1.4-0.6-1.4-1.4l-1.2-42.7c0-0.4 0.1-0.7 0.4-1 0.3-0.3 0.6-0.4 1-0.4h15.7c0.4 0 0.7 0.2 1 0.4 0.3 0.3 0.4 0.6 0.4 1L55.6 57.8z"/>
    </symbol>
    <symbol id="copy-code" viewBox="0 0 34 40">
        <path d="M0 13c0-3.86599 3.13401-7 7-7h13c3.866 0 7 3.13401 7 7v20c0 3.866-3.134 7-7 7H7c-3.86599 0-7-3.134-7-7V13Zm24 1c0-2.7614-2.2386-5-5-5H8c-2.76142 0-5 2.2386-5 5v18c0 2.7614 2.23858 5 5 5h11c2.7614 0 5-2.2386 5-5V14Z" clip-rule="evenodd"/>
        <path d="M31 8c0-2.76142-2.2386-5-5-5H10.5C9.67157 3 9 2.32843 9 1.5S9.67157 0 10.5 0H27c3.866 0 7 3.13401 7 7v22.5c0 .8284-.6716 1.5-1.5 1.5s-1.5-.6716-1.5-1.5V8Z"/>
    </symbol>
</svg>
