<?xml version="1.0" encoding="utf-8"?>
<!-- Generator: Adobe Illustrator 27.2.0, SVG Export Plug-In . SVG Version: 6.00 Build 0)  -->
<svg version="1.1" id="Partner_Label" xmlns="http://www.w3.org/2000/svg" xmlns:xlink="http://www.w3.org/1999/xlink" x="0px"
	 y="0px" viewBox="0 0 425.2 174.2" style="enable-background:new 0 0 425.2 174.2;" xml:space="preserve">
<style type="text/css">
	.st0{fill:#FFFFFF;}
</style>
<path class="st0" d="M414.5,0H10.7C4.8,0,0,4.5,0,10v154.2c0,5.5,4.8,10,10.7,10h403.8c5.9,0,10.7-4.5,10.7-10V10
	C425.2,4.5,420.4,0,414.5,0z M424.4,164.2c0,5.1-4.5,9.2-9.9,9.2H10.7c-5.5,0-9.9-4.1-9.9-9.2V10c0-5.1,4.4-9.2,9.9-9.2h403.8
	c5.5,0,9.9,4.1,9.9,9.2V164.2L424.4,164.2z"/>
<path class="st0" d="M107.7,128.1c-0.9-0.5-1.8-0.8-3-0.8s-2.1,0.3-3,0.8c-0.9,0.5-1.5,1.3-2,2.3c-0.5,1-0.7,2.2-0.7,3.5v0.8
	c0,1.3,0.2,2.5,0.7,3.5c0.5,1,1.1,1.8,2,2.3c0.9,0.5,1.8,0.8,3,0.8s2.1-0.3,3-0.8s1.5-1.3,2-2.3c0.5-1,0.7-2.2,0.7-3.5v-0.8
	c0-1.3-0.2-2.5-0.7-3.5S108.5,128.6,107.7,128.1L107.7,128.1z M108,134.7c0,1.5-0.3,2.7-0.8,3.5c-0.6,0.8-1.4,1.2-2.4,1.2
	s-1.8-0.4-2.4-1.2c-0.6-0.8-0.9-2-0.9-3.5v-0.8c0-1.5,0.3-2.6,0.9-3.4c0.6-0.8,1.4-1.2,2.4-1.2s1.9,0.4,2.4,1.2
	c0.6,0.8,0.9,2,0.9,3.5L108,134.7L108,134.7z"/>
<polygon class="st0" points="116.6,141.1 119,141.1 119,135.4 124.5,135.4 124.5,133.5 119,133.5 119,129.4 125.3,129.4 
	125.3,127.5 116.6,127.5 "/>
<polygon class="st0" points="131,141.1 133.4,141.1 133.4,135.4 138.9,135.4 138.9,133.5 133.4,133.5 133.4,129.4 139.7,129.4 
	139.7,127.5 131,127.5 "/>
<rect x="145.5" y="127.5" class="st0" width="2.4" height="13.7"/>
<path class="st0" d="M157.5,130.3c0.6-0.8,1.4-1.1,2.4-1.1c0.9,0,1.6,0.2,2,0.6s0.8,1.1,0.9,2.1h2.4c-0.1-1.5-0.7-2.6-1.6-3.5
	c-0.9-0.8-2.1-1.2-3.6-1.2c-1.1,0-2.1,0.3-3,0.8c-0.9,0.5-1.5,1.3-2,2.3c-0.5,1-0.7,2.1-0.7,3.4v1.3c0,1.2,0.2,2.4,0.7,3.3
	s1.1,1.7,1.9,2.2s1.8,0.8,2.9,0.8c1.6,0,2.8-0.4,3.7-1.2c0.9-0.8,1.5-1.9,1.6-3.4h-2.4c-0.1,1-0.4,1.7-0.9,2.1s-1.2,0.6-2.1,0.6
	c-1,0-1.8-0.4-2.3-1.2c-0.5-0.8-0.8-1.9-0.8-3.4v-1.2C156.6,132.2,156.9,131.1,157.5,130.3L157.5,130.3z"/>
<rect x="171.3" y="127.5" class="st0" width="2.4" height="13.7"/>
<path class="st0" d="M184.4,127.5l-5.2,13.7h2.5l1.1-3.2h5.3l1.1,3.2h2.5l-5.2-13.7H184.4L184.4,127.5z M183.5,136.1l2-5.7l2,5.7
	H183.5L183.5,136.1z"/>
<polygon class="st0" points="199.7,127.5 197.3,127.5 197.3,141.1 205.9,141.1 205.9,139.2 199.7,139.2 "/>
<path class="st0" d="M225.4,127.5h-5.2v13.7h2.4v-5.1h2.8c1.6,0,2.8-0.4,3.7-1.1s1.3-1.8,1.3-3.1s-0.4-2.4-1.4-3.1
	C228.1,127.9,226.9,127.5,225.4,127.5L225.4,127.5z M227.3,133.6c-0.4,0.4-1.1,0.6-1.9,0.6h-2.9v-4.8h2.9c0.8,0,1.4,0.2,1.9,0.7
	c0.4,0.4,0.7,1,0.7,1.8S227.7,133.2,227.3,133.6z"/>
<path class="st0" d="M239.2,127.5l-5.2,13.7h2.5l1.1-3.2h5.3l1.1,3.2h2.5l-5.2-13.7H239.2L239.2,127.5z M238.3,136.1l2-5.7l2,5.7
	H238.3L238.3,136.1z"/>
<path class="st0" d="M261.1,133.9c0.4-0.6,0.7-1.4,0.7-2.3c0-1.3-0.4-2.4-1.3-3.1c-0.9-0.7-2.1-1.1-3.6-1.1h-4.8v13.6h2.4v-5.2h2.6
	l2.7,5.2h2.5V141l-3.1-5.7C260.1,135,260.7,134.5,261.1,133.9L261.1,133.9z M256.9,134h-2.4v-4.6h2.5c0.8,0,1.4,0.2,1.9,0.6
	c0.4,0.4,0.6,1,0.6,1.7s-0.2,1.2-0.7,1.7C258.3,133.8,257.7,134,256.9,134L256.9,134z"/>
<polygon class="st0" points="267,129.4 271.2,129.4 271.2,141.1 273.6,141.1 273.6,129.4 277.9,129.4 277.9,127.5 267,127.5 "/>
<polygon class="st0" points="292,137.2 285.9,127.5 283.5,127.5 283.5,141.1 285.9,141.1 285.9,131.4 292,141.1 294.4,141.1 
	294.4,127.5 292,127.5 "/>
<polygon class="st0" points="303.5,135 309.1,135 309.1,133.2 303.5,133.2 303.5,129.4 310,129.4 310,127.5 301.1,127.5 
	301.1,141.1 310,141.1 310,139.2 303.5,139.2 "/>
<path class="st0" d="M324.9,133.9c0.4-0.6,0.7-1.4,0.7-2.3c0-1.3-0.4-2.4-1.3-3.1c-0.9-0.7-2.1-1.1-3.6-1.1h-4.8v13.6h2.4v-5.2h2.6
	l2.7,5.2h2.5V141l-3.1-5.7C323.9,135,324.5,134.5,324.9,133.9z M320.7,134h-2.4v-4.6h2.5c0.8,0,1.5,0.2,1.9,0.6
	c0.4,0.4,0.6,1,0.6,1.7s-0.2,1.2-0.7,1.7C322.1,133.8,321.5,134,320.7,134L320.7,134z"/>
<path class="st0" d="M391.8,80.1c-0.2,0.1-0.3,0.2-0.5,0.3c-1.4,1.2-3,2.2-4.8,2.8c-1.6,0.5-3.3,0.8-5,0.8c-1,0-1.9-0.1-2.8-0.3
	c-2.1-0.6-3.8-1.8-5.3-3.4c-1.4-1.6-2.4-3.4-3.3-5.4c-1.3-3.1-2.2-6.4-2.6-9.8c0-0.1,0-0.2,0.1-0.2c1.3-1,2.7-2.1,4-3.1
	c1.6-1.3,3.2-2.6,4.6-4.1c0.5-0.5,0.9-1,1.3-1.6c0.3-0.4,0.5-0.9,0.4-1.5c-0.1-0.6-0.5-1-1-1.3c-0.6-0.3-1.2-0.5-1.9-0.7
	c-0.2,0-0.4,0-0.5,0.2c-1.7,2-3.5,4-5.5,5.8c-1.2,1.2-2.5,2.3-4,3.2c-0.3,0.2-0.6,0.3-0.9,0.5c0.1-0.4,0.1-0.7,0.2-1
	c0.5-1.6,0.9-3.2,1.4-4.7c0.7-2.2,1.4-4.4,1.9-6.7c0.2-1,0.4-2,0.4-3c0-0.9-0.4-1.7-1.3-2.2c-0.6-0.4-1.3-0.5-2.1-0.5
	c-0.9,0-1.7,0.1-2.5,0.3c-0.1,0-0.2,0.1-0.2,0.2c-0.2,0.8-0.3,1.6-0.5,2.4c-0.9,3.9-1.9,7.8-2.8,11.7c-1.1,4.4-2.1,8.8-3,13.2
	c-0.1,0.3,0,0.6-0.2,0.8c-0.6,1-1.3,2-2.2,2.8c-0.4,0.3-0.8,0.6-1.4,0.7c-0.3,0-0.5-0.1-0.6-0.3c-0.1-0.2-0.2-0.5-0.3-0.7
	c-0.3-1.4-0.3-2.9,0-4.3c0.3-1.6,0.6-3.1,0.9-4.7c0.2-1.1,0.4-2.1,0.4-3.2c0-0.4,0-0.8-0.1-1.2c-0.1-0.5-0.5-0.8-1-0.8
	c-0.4,0-0.8,0-1.3,0c-0.3,0-0.6,0-0.9,0c-0.5-0.1-0.9-0.4-1.1-0.8c-0.4-0.5-0.9-0.7-1.5-0.7c-1.3,0-2.6,0.4-3.8,1
	c-2.9,1.4-5.1,3.7-6.5,6.6c-1.1,2.1-1.6,4.2-1.7,6.5c0,0.1,0,0.2-0.1,0.3c-0.8,0.5-1.6,1-2.4,1.4c-0.8,0.4-1.6,0.8-2.5,1
	c-0.9,0.2-1.6-0.1-1.9-1c-0.2-0.5-0.2-1.1-0.2-1.7c0.1-0.8,0.3-1.7,0.5-2.5c0.8-3.2,1.6-6.4,2.4-9.7c0-0.2,0.1-0.3,0.3-0.3
	c2-0.5,4-0.9,6-1.4c0.5-0.1,1-0.3,1.3-0.7c0.8-1,1.6-2.1,2.3-3.1c0.6-0.8,0.3-1.5-0.7-1.8c0,0-0.1,0-0.2,0c-0.7-0.1-1.4,0-2,0.1
	c-1.7,0.3-3.4,0.7-5.1,1c-0.1,0-0.2,0-0.4,0.1c0-0.1,0-0.1,0-0.2c0.5-2.1,1-4.2,1.5-6.2c0.3-1.3,0.6-2.6,0.9-3.9
	c0.1-0.4,0-0.5-0.4-0.5c-0.2,0-0.3,0-0.5,0c-1,0.1-2.1,0.4-3.1,0.8c-0.6,0.2-1.2,0.5-1.6,0.9c-0.9,0.8-1.6,1.7-1.9,2.8
	c-0.7,2.5-1.3,5.1-2,7.6c0,0.2-0.1,0.2-0.3,0.3c-1.9,0.6-3.7,1.3-5.6,1.9c-1.7,0.6-3.4,1.2-5.1,1.8c-0.2,0.1-0.3,0.1-0.2,0.4
	c0.1,0.3,0.2,0.6,0.3,0.8c0.3,0.9,0.7,1.7,1.4,2.5c0.5,0.5,1,0.9,1.7,0.8c0.4,0,0.8-0.1,1.2-0.2c1.7-0.4,3.4-1,5-1.7
	c0.1,0,0.1,0,0.2-0.1c0,0.1,0,0.1,0,0.1c-0.8,3.3-1.6,6.7-2.1,10.1c-0.2,1-0.3,2-0.3,3.1c0,0.9,0.2,1.7,0.8,2.5
	c0.7,1,1.7,1.4,2.9,1.6c1.5,0.2,3,0.1,4.5-0.3c2.1-0.5,3.9-1.5,5.6-2.7c0.1-0.1,0.1-0.1,0.2-0.1c0.3,0.8,0.8,1.4,1.4,2
	c1.4,1.1,3,1.4,4.7,1.2c1.6-0.2,3-0.9,4.2-1.8c0.6-0.4,1.1-0.9,1.7-1.4c0,0,0,0.1,0.1,0.2c0.3,0.7,0.7,1.4,1.3,1.9
	c1.1,1.1,3.1,1.8,4.8,0.2c0.7-0.6,1.3-1.3,1.9-2.1c0-0.1,0.1-0.1,0.2-0.2c0,0.3,0,0.5,0,0.7c0.1,1.6,0.9,2.5,2.4,2.6
	c1.4,0.1,2.8-0.3,4-0.9c0.3-0.1,0.4-0.3,0.4-0.7c0-1.7,0.1-3.5,0.2-5.2c0.1-1.8,0.2-3.6,0.6-5.3c0.1-0.5,0.2-1,0.4-1.5
	c0,0,0.1,0,0.1,0.1c0.1,0.4,0.1,0.9,0.2,1.3c0.4,2.3,0.9,4.6,1.7,6.8c1,2.7,2.3,5.3,4.2,7.4c2.5,2.8,5.6,4.5,9.4,5
	c2.6,0.3,5.2,0.2,7.8-0.4c1.5-0.3,2.8-0.9,4-1.8c0.9-0.6,1.5-1.4,1.8-2.4c0.1-0.3,0.1-0.6,0.2-0.8v-0.8c0-0.3-0.1-0.5-0.2-0.8
	C392.1,80.1,392,80,391.8,80.1L391.8,80.1z M346.3,70.7c-0.3,1.2-0.8,2.4-1.5,3.5c-0.7,0.9-1.5,1.6-2.7,1.8c-0.5,0.1-0.9,0.1-1.4,0
	c-0.7-0.2-1-0.8-1.1-1.4c-0.1-0.8,0-1.7,0.2-2.5c0.9-2.9,2.4-5.4,4.5-7.6c0.6-0.6,1.2-1,2-1.3c0.3-0.1,0.6-0.1,0.9-0.2
	c0,0.1,0,0.1,0,0.2C347.2,65.6,347,68.2,346.3,70.7L346.3,70.7z"/>
<path class="st0" d="M315.1,69.2c-0.8-1.1-1.8-2.1-3-2.9c-1.8-1.4-3.9-2.5-5.9-3.6c-2.2-1.1-4.5-2.3-6.8-3.4c-1.5-0.8-3-1.6-4.4-2.7
	c-0.9-0.7-1.7-1.4-2.3-2.3c-0.6-0.8-0.9-1.8-0.9-2.8c0-0.8,0.1-1.6,0.2-2.4c0.6-3.3,2.4-5.8,5.5-7.2c1.5-0.7,3-1,4.6-1.2
	c1.5-0.2,2.9-0.2,4.4,0c1.2,0.2,2.4,0.5,3.4,1.3c1.1,0.9,1.8,2.1,2,3.5c0.1,0.9-0.2,1.7-0.6,2.5c-0.8,1.3-1.9,2.4-3,3.4
	c-0.3,0.2-0.3,0.2-0.1,0.5c0.3,0.5,0.8,0.8,1.3,1c1,0.4,2.1,0.4,3.2,0.2c2.3-0.4,3.9-1.7,4.8-3.8c0.5-1.3,0.7-2.7,0.7-4.1
	c0-0.8-0.2-1.6-0.5-2.4c-0.6-1.7-1.8-3-3.4-4c-2.1-1.4-4.5-2-7-2.3c-0.5,0-0.9-0.1-1.4-0.1h-2.3c-0.5,0-1,0-1.4,0.1
	c-2.9,0.2-5.8,0.7-8.6,1.8c-2.2,0.9-4.2,2.2-5.8,4.1c-1.4,1.7-2.3,3.7-2.7,5.9c-0.1,0.7-0.2,1.5-0.3,2.2c0,0.1,0,0.1,0,0.2v1.5
	c0.1,0.4,0.1,0.9,0.2,1.3c0.3,1.6,1.1,3.1,2.1,4.3c1.3,1.5,2.9,2.8,4.6,3.8c2.1,1.3,4.3,2.4,6.5,3.4c2.1,1,4.2,1.9,6.2,3.1
	c1.2,0.7,2.4,1.5,3.4,2.5c0.7,0.8,1.3,1.7,1.4,2.8c0.1,0.8,0,1.7-0.2,2.5c-0.5,2.8-2.2,4.9-4.5,6.5c-2,1.3-4.1,2.1-6.4,2.5
	c-0.8,0.1-1.5,0.2-2.3,0.2c-0.9,0-1.9-0.1-2.7-0.6c-1.5-0.9-2.3-2.1-2.1-3.9c0.2-2,0.9-3.8,2.2-5.2c1.3-1.4,2.9-2.4,4.8-3.1
	c0.2-0.1,0.2-0.2,0.2-0.3c-0.2-1.5-1.4-2.6-2.9-2.7c-2.5-0.1-4.7,0.6-6.6,2.2c-1.3,1.1-2.2,2.6-2.8,4.1c-0.8,2.1-1.1,4.3-1,6.6
	c0.1,2.1,0.9,3.9,2.4,5.3c1.1,1,2.5,1.7,3.9,2c0.6,0.1,1.2,0.2,1.9,0.3c0,0,0.1,0,0.2,0h1.8c0.1,0,0.1,0,0.2,0
	c2.4-0.1,4.7-0.4,7-1.1c2.8-0.8,5.5-1.9,7.9-3.6c1.7-1.2,3.1-2.7,4.2-4.5c1.3-2.1,1.9-4.4,1.9-6.9C316.5,72,316,70.5,315.1,69.2
	L315.1,69.2z"/>
<path class="st0" d="M374.8,75c0.7,2.1,2.1,3.6,4.2,4.4c1.7,0.6,3.4,0.7,5.2,0.5c1.9-0.3,3.7-1,5.2-2.1c0.6-0.4,1.2-0.9,1.7-1.5
	c0.4-0.4,0.5-0.9,0.3-1.5c-0.2-0.7-0.7-1.3-1.3-1.8c-0.1,0-0.1-0.1-0.2-0.1c-0.1-0.1-0.2-0.1-0.4,0.1c-0.4,0.4-0.8,0.8-1.3,1.2
	c-1.6,1.4-3.5,1.9-5.7,1.7c-1-0.1-1.8-0.7-2.2-1.7c-0.3-0.8-0.3-1.7-0.2-2.6c0.2,0,0.4,0,0.6,0c2.1,0.1,4.2-0.2,6.2-1
	c2.9-1.3,5-3.9,4.8-7.6c0-1-0.4-1.7-1.1-2.3c-0.5-0.4-1-0.7-1.6-1c-2.1-0.9-4.2-0.8-6.3,0.1c-3.6,1.5-6.2,4.1-7.8,7.6
	C374,69.9,373.9,72.4,374.8,75L374.8,75z M381.3,68.5c0.8-2.1,2-4,3.6-5.6c0.6-0.6,1.3-1,2.2-1.2c0.1,0,0.1,0,0.2,0
	c0.5-0.1,0.7,0.1,0.8,0.6c0.1,1.1-0.1,2.2-0.6,3.2c-0.8,1.6-1.9,2.8-3.5,3.6c-0.9,0.4-1.8,0.6-2.8,0.6c0,0-0.1,0-0.2,0
	C381,69.4,381.1,69,381.3,68.5L381.3,68.5z"/>
<path class="st0" d="M264.1,32.9c-0.3,0-0.5,0.2-0.5,0.5v60.5c0,0.3,0.2,0.5,0.5,0.5s0.5-0.2,0.5-0.5V33.4
	C264.6,33.1,264.3,32.9,264.1,32.9z"/>
<path class="st0" d="M117.6,81.3c0-0.4-0.3-0.8-0.8-0.8s-0.8,0.3-0.8,0.8s0.4,0.8,0.8,0.8S117.6,81.7,117.6,81.3z M116.2,81.3
	c0-0.3,0.3-0.6,0.6-0.6s0.6,0.3,0.6,0.6s-0.2,0.6-0.6,0.6S116.2,81.6,116.2,81.3L116.2,81.3z"/>
<polygon class="st0" points="136,93.9 144.8,93.9 144.8,91.5 138.7,91.5 138.7,88.3 143.6,88.3 143.6,85.9 138.7,85.9 138.7,82.7 
	144.8,82.7 144.8,80.3 136,80.3 "/>
<polygon class="st0" points="108,83.6 109.2,85.7 112.1,83.8 112.1,93.9 114.8,93.9 114.8,80.7 112.3,80.7 "/>
<path class="st0" d="M116.9,81.5c0,0.1,0,0.2,0.1,0.2h0.2c0,0,0-0.1-0.1-0.2c0-0.1-0.1-0.2-0.1-0.2l0,0c0.1,0,0.2-0.1,0.2-0.2
	c0-0.1,0-0.1-0.1-0.2c-0.1,0-0.1-0.1-0.3-0.1c-0.1,0-0.2,0-0.3,0v0.8h0.2v-0.3h0.1C116.8,81.4,116.9,81.4,116.9,81.5L116.9,81.5z
	 M116.7,81.2V81c0,0,0.1,0,0.1,0c0.1,0,0.2,0,0.2,0.1S116.9,81.2,116.7,81.2L116.7,81.2L116.7,81.2z"/>
<polygon class="st0" points="133.7,80.3 123.7,80.3 123.7,82.8 127.4,82.8 127.4,93.9 130.1,93.9 130.1,82.8 133.7,82.8 "/>
<path class="st0" d="M155,93.9h2.8l-3.1-13.6h-5.2l-3.1,13.6h2.8l0.5-2.5h4.8L155,93.9L155,93.9z M150.2,89.1l1.4-6.5h1l1.4,6.5
	H150.2L150.2,89.1z"/>
<polygon class="st0" points="101.2,89.1 106.1,89.1 106.1,86.7 101.2,86.7 101.2,82.7 107.1,82.7 107.1,80.3 98.5,80.3 98.5,93.9 
	101.2,93.9 "/>
<polygon class="st0" points="167.2,90.2 164.8,80.3 160.1,80.3 160.1,93.9 162.9,93.9 162.9,83.4 163.1,83.4 165.8,93.3 168.6,93.3 
	171.2,83.4 171.5,83.4 171.5,93.9 174.3,93.9 174.3,80.3 169.6,80.3 "/>
<path class="st0" d="M108.5,62.5c4.1-0.9,8.5-3.9,9.7-6.2c0-0.1-0.1-0.1-0.2-0.1H116c0,0-0.1,0-0.2,0.1c-1,1.6-4,3.6-6.9,4.4
	c-5.6,1.6-2.3-2.8-2.3-2.8c4.9-6,5.2-6.4,5.6-7c0.1-0.1-0.1-0.4-0.4-0.4h-3.6c-0.9,0-1.5,0.4-1.9,0.9c0-0.1-0.1-0.1-0.1-0.2
	c-1.6-2.4-7.3-2-11.7,0.8c-3,1.9-5,4.5-5.5,6.7c-2.3,0-4.2-0.2-5.9-0.8l4-5c8.5-2.4,22.5-15.9,15.5-15.7C96.9,37.9,89.2,44,79,55.7
	c-0.4-0.2-2.1-1.5-3.2-0.5c-0.6,0.5-0.4,1.5,0.2,2.2c-10.3,3.8-9.7,1.8-8.7,0.4c0.8-1.1,3.5-4.9,3.5-4.9
	c10.5-3.2,24.2-17.7,14.9-15.6c-4,0.9-12.3,6-23.9,20c-5.4,2.6-9.5,4-5.6-0.9c3.9-4.9,16-18.6,16-19c0-0.2-0.1-0.4-0.4-0.4h-4.9
	c-0.8,0-1.3,0.6-1.7,1.1c-2.9-1.8-6.5-1.2-6.5-1.2c-14.5,0.9-26.9,14.2-25.7,21.5c0.3,1.9,2.1,4.6,6.1,4.6c1,0,4.4-0.4,8-2.2
	c0,0-1.6,4.8,12.3-0.2c-0.1,0.1-2.1,5.3,15.8-0.9c-0.2,0.3-6.3,7.1-9.4,10.2c-7.2,7.4-12.2,2.6-12.6,2.3c0,0-0.1-0.1-0.2,0l-1.4,1.2
	c-0.1,0.1-0.1,0.2,0,0.2c11.6,8.6,23.9-7.5,30-14c2,0.4,4.4,0.6,7.4,0.2c0,0.5,0.2,1,0.5,1.5c1.4,2.1,6.1,2.1,10.2,0.1
	C99.6,61.5,100.2,64.4,108.5,62.5L108.5,62.5z M99.6,39.7c1.7-1,1.7,1.2-0.8,3.8c-5.7,6-10.2,6.9-10.2,6.9S94.7,42.7,99.6,39.7z
	 M83.8,39.7c1.7-1,1.7,1.2-0.8,3.8c-5.7,6-10.2,6.9-10.2,6.9S78.8,42.7,83.8,39.7z M43,59.1c-8.7-1-1-11.3,7.1-16.7
	c5.8-3.9,12-4.9,12.4-1.8c-0.1,0.9-0.7,2.1-2.2,3.7c-1.5,1.7-6.1,7-9.9,11.3C47.6,58.2,44.5,59.3,43,59.1L43,59.1z M94.8,59.7
	c-1.1-1.2,0.2-4,2.8-6.2c2.6-2.2,5.6-3,6.6-1.7c0.4,0.4,0.4,1.1,0.3,1.8c-1.2,1.5-2.8,3.4-4,5.1C98.2,60.3,95.8,60.8,94.8,59.7
	L94.8,59.7z"/>
<path class="st0" d="M236.3,54.8C236.3,54.8,236.3,54.8,236.3,54.8c6.1-1.7,6.9-5.9,6.9-6c0-0.1-0.1-0.1-0.2-0.2h-1.9
	c-0.1,0-0.1,0.1-0.1,0.1c0.1,1.7-1.6,3.2-4.2,4.1c0,0,0,0,0,0c-0.7-7.5-15.9-1.3-17.6,6c0,0,0,0,0,0c-6.9,3.5-10,0.7-10.4-0.2
	c0,0,9.7-2.9,10.1-7.5c0.1-3.9-13-0.9-15.4,7.7c-2.7,1.4-5.9,1.5-6,1c-0.2-1.4,4.2-5,5-7c1-2.4-1.6-2.2-1.6-2.2
	c-2.1,0.2-8,2.1-8,2.1c0.8-4.3-5.6-0.9-9.9-0.1c0.3-3-2.3-2.4-11.8,0.3c-0.7-7.5-16-1.3-17.6,6c-3.8,1.8-5.4,1.3-5.3,0.2
	c0.2-1.7,3.2-5,2.1-7.2c13.7-3.7,11.4-13.9,4.8-16.8c0,0,0,0,0,0c0.7-0.5,1.5-1.1,2-1.4c0.1,0,0.1-0.2-0.1-0.2h-2.5
	c-0.1,0-0.2,0-0.2,0.1c-0.4,0.2-0.7,0.5-1.1,0.7c-22.3-5.8-38.6,16.5-22.8,18.5l3.2-2.9c0.7-0.6,0.5-0.7-0.1-0.7
	c-1.5,0-2.6-0.3-3.2-0.8c-7-5.1,6.3-15.6,19.6-11.7c-8.1,6.1-17.6,25.6-26.6,19.7l0,0c-0.3-0.2-0.5-0.1-0.8,0.2
	c-1.7,1.8-4.5,4-4.5,4c-0.2,0.2-0.4,0.5,0,0.7c11,5,17.4-2.2,23.6-10.8c0.7,1.2,2.3,2.8,5.4,1.9c0,1.7-5.8,7.1-6.1,8.2
	c-1.4,4.2,8.2,1.8,12.6-0.1c2.8,6.1,15-0.2,17.1-5.7c5.8-1.9,4.9,0.2,4.3,0.9c-3.6,4.5-5.7,6.6-5.7,7c0,0.2,0.1,0.3,0.4,0.3h3.9
	c0.5,0,0.9-0.3,1.3-0.6c0.4-0.4,5.5-6.5,6.4-7.7c6.4-2.5,3.6,0.9,3.6,0.9c-3.6,4.4-5.7,6.6-5.7,7c0,0.2,0.1,0.3,0.4,0.3h3.9
	c0.5,0,1-0.3,1.3-0.6c0.4-0.4,5.6-6.8,6.4-7.7c6.1-2.1,3.4,0.9,3.2,1.2c-0.4,0.4-3.7,4.2-3.8,4.8c-0.6,3,2.8,3.6,12.8-0.4
	c2.9,6,14.2,0.5,15.5-0.2c0,0.1,0.1,0.2,0.1,0.4C222,66.6,234.2,60.3,236.3,54.8L236.3,54.8z M234.4,51.8c0.4,0.4,0.4,1.2,0.2,2
	c-2.9,1.2-2.1,3.3-2.6,3.7c-3.6,3.1-6.2,3-6.9,2.1C222.9,57,231.2,49.1,234.4,51.8z M152.3,37.7c6.6,4.3,1.8,9.8-2.9,12
	c-0.9-1-2.9-2.4-5.7-1.4C146.3,44.6,149.1,40.7,152.3,37.7z M143.5,49.9c1.2-1.3,4-0.1,3.9,0.8C145.1,51.7,143.4,50.1,143.5,49.9z
	 M169.3,53.6c0,0,0,0.1,0,0.1c-2.9,1.3-2.2,3.3-2.6,3.7c-3.6,3.1-6.1,2.9-6.9,2.1c-2.2-2.5,6-10.4,9.3-7.7
	C169.5,52.2,169.5,52.9,169.3,53.6z M215.6,51c0.5-0.1,0.6,0.2,0.5,0.5c-1,3.9-7.4,5.6-7.4,5.6S209.3,52,215.6,51L215.6,51z"/>
</svg>
