<?xml version="1.0" encoding="UTF-8"?>
<svg viewBox="0 0 30 30" version="1.1" xmlns="http://www.w3.org/2000/svg" xmlns:xlink="http://www.w3.org/1999/xlink">
    <!-- Generator: Sketch 53.2 (72643) - https://sketchapp.com -->
    <title>icon_nav_livecasino</title>
    <desc>Created with Sketch.</desc>
    <g id="Slicing" stroke="none" stroke-width="1" fill="none" fill-rule="evenodd">
        <g id="Group-6" transform="translate(5.000000, 3.000000)" fill="#FFFFFF">
            <path d="M12.8746239,2.64837865 C12.848641,2.64837865 12.8209487,2.65153879 12.7918034,2.65948185 L2.80735897,5.36063488 C2.69547863,5.39086975 2.63573504,5.47030036 2.61009402,5.5149694 C2.58445299,5.55963843 2.54599145,5.65119715 2.57624786,5.76308327 L6.75248718,21.1780868 C6.79906838,21.3498448 6.98376923,21.4554961 7.15530769,21.4090335 L17.1396667,18.7078804 C17.3114615,18.6613324 17.417359,18.4771046 17.3707778,18.305432 L13.1945385,2.89042847 C13.1642821,2.77854235 13.0847094,2.71892669 13.040094,2.69321851 C13.0070171,2.67434306 12.9482137,2.64837865 12.8746239,2.64837865 Z M7.06812821,23.9834391 C6.56932479,23.9834391 6.07624786,23.8530192 5.63077778,23.5975601 C4.9595812,23.2126206 4.47898291,22.5911829 4.27752991,21.8476954 L0.101205128,6.43269181 C-0.100162393,5.68920427 0.00103418803,4.91027189 0.386247863,4.23963843 C0.771376068,3.56891957 1.39325641,3.08866335 2.13735897,2.88743915 L12.1217179,0.186200712 C13.6611197,-0.230425623 15.2527436,0.68242847 15.6695812,2.22081993 L19.8458205,17.6359089 C20.0472735,18.3793964 19.9460769,19.1582434 19.5608632,19.8289623 C19.1756496,20.4996811 18.5537692,20.979852 17.8097521,21.1810762 L7.82539316,23.8822292 C7.57522222,23.9499587 7.32086325,23.9834391 7.06812821,23.9834391 Z M12.6045299,13.5783459 C12.0045299,13.9657623 11.3550427,13.9242534 10.8715385,13.6341181 C11.0495726,14.1739046 11.3125641,14.8246377 11.6246154,15.1437267 L10.222906,15.5229438 C10.3312821,15.0900897 10.2299145,14.395627 10.1111111,13.839869 C9.84008547,14.3342178 9.30017094,14.6975488 8.5865812,14.6654349 C7.32418803,14.6086377 5.43222222,12.4453922 9.06179487,8.46062349 C14.2073504,10.0713566 13.6658974,12.8929367 12.6045299,13.5783459 Z" id="Combined-Shape"></path>
        </g>
        <g id="Group-3"></g>
    </g>
</svg>