<?xml version="1.0" encoding="UTF-8"?>
<svg xmlns="http://www.w3.org/2000/svg" width="24" height="24" viewBox="0 0 24 24" fill="none">
  <path fill-rule="evenodd" clip-rule="evenodd" d="M15.8387 2.18101C15.6264 2.12064 15.4141 2.06023 15.2017 2V2.00052H15.0867C15.0849 2.01487 15.0836 2.02932 15.0822 2.04375L15.0822 2.04378L15.0822 2.0438C15.0794 2.07443 15.0766 2.105 15.0693 2.13438C14.9815 2.48615 14.8933 2.83793 14.805 3.18981L14.8047 3.19086C14.7383 3.45547 14.6719 3.72013 14.6057 3.9849C14.5516 4.20166 14.4982 4.41864 14.4442 4.63857C14.4125 4.7674 14.3806 4.89724 14.3481 5.02865C14.8536 5.15938 15.3366 5.28438 15.8288 5.41198L16.1144 4.27049C16.2715 3.6426 16.4273 3.01987 16.5843 2.39167C16.5302 2.37641 16.4798 2.36239 16.4314 2.3489C16.3856 2.33615 16.3415 2.32386 16.2975 2.31146L15.8387 2.18101ZM9.02581 19.6074L10.4181 22.0001H10.4559C10.522 21.9575 10.588 21.9146 10.654 21.8718C10.8065 21.7729 10.959 21.6739 11.1127 21.5772C11.2538 21.4887 11.3961 21.4022 11.5409 21.3142L11.5411 21.314C11.605 21.2752 11.6693 21.2361 11.7342 21.1965C10.9962 19.9302 10.2661 18.6782 9.53817 17.4297L9.51302 17.3865L9.51031 17.3819L9.01044 16.5246C9.88548 15.909 11.1423 15.2861 12.343 14.8887C14.3338 14.2293 16.363 14.0475 18.481 14.4506C17.048 11.9834 15.6272 9.53768 14.2081 7.09491L14.1653 7.02111L14.1633 7.01779L11.4403 2.33032L11.4319 2.35005C11.3924 2.44213 11.3643 2.50784 11.3366 2.57355C11.2662 2.74036 11.1994 2.90905 11.1325 3.07775C10.9889 3.44002 10.8454 3.80232 10.6675 4.14595C9.6197 6.17199 8.14664 7.81678 6.2657 9.06261C5.58218 9.51536 4.87873 9.93669 4.17523 10.358L4.17522 10.358L4.17521 10.3581C3.84606 10.5552 3.5169 10.7523 3.18976 10.9527C1.99987 11.6814 1.65895 13.0527 2.36532 14.2767C2.85344 15.1225 3.3431 15.9673 3.83684 16.81C4.55753 18.0413 5.91149 18.3876 7.12235 17.6543C7.23922 17.5834 7.35651 17.5128 7.47706 17.4404L7.47721 17.4403L7.69021 17.3121L9.02581 19.6074ZM15.674 12.6819C12.9594 12.8428 10.4932 13.685 8.22688 15.1793H8.22637L6.99686 13.0625L5.87572 11.1324C8.24529 9.81626 10.1518 8.01574 11.5931 5.65793C12.9553 8.0022 14.3062 10.3272 15.674 12.6819ZM4.62437 12.0412C5.38694 13.3539 6.14223 14.6541 6.90819 15.972C6.82642 16.0194 6.74635 16.068 6.66688 16.1162C6.4915 16.2226 6.31907 16.3273 6.13792 16.4137C5.81387 16.5678 5.41826 16.4501 5.22966 16.1329C4.68122 15.2105 4.14198 14.2829 3.61348 13.3486C3.43306 13.0293 3.53681 12.6267 3.81538 12.3996C3.85729 12.3652 3.90421 12.3369 3.95055 12.3089L3.959 12.3038C4.11621 12.2084 4.27342 12.1134 4.43989 12.0127L4.44179 12.0116L4.44318 12.0108L4.56417 11.9376L4.62437 12.0412ZM17.8227 7.686L17.6854 7.44973C17.4703 7.07967 17.2598 6.71769 17.0417 6.34329L19.6735 4.74902L19.9723 5.26223C20.1312 5.53525 20.291 5.80965 20.455 6.09173L18.6754 7.16955L17.8227 7.686ZM18.0369 9.21558C17.9091 9.72808 17.7859 10.2218 17.6592 10.7291L17.6681 10.7315C18.6638 10.9911 19.6376 11.245 20.6242 11.502C20.7019 11.1886 20.7776 10.8835 20.8533 10.5791C20.902 10.3826 20.9508 10.1864 20.9999 9.98849C20.659 9.89958 20.3217 9.81157 19.9861 9.724C19.3347 9.55404 18.6896 9.38572 18.0369 9.21558Z" fill="white"></path>
</svg>
