<svg width="21" height="30" viewBox="0 0 21 30" fill="none" xmlns="http://www.w3.org/2000/svg">
<path fill-rule="evenodd" clip-rule="evenodd" d="M6.69643 16.6362H6.51643C6.43009 16.6115 6.35059 16.5674 6.28402 16.5074C6.21746 16.4473 6.1656 16.3729 6.13243 16.2898C3.84043 10.0199 0.408427 8.76596 0.408427 8.76596C0.285321 8.72274 0.179324 8.64149 0.105921 8.53406C0.0325173 8.42663 -0.00444702 8.29865 0.000426914 8.16882C0.0077217 8.03904 0.0573718 7.91517 0.141837 7.81602C0.226302 7.71687 0.340968 7.64785 0.468426 7.61946C1.55414 7.43886 2.66864 7.55072 3.69626 7.94342C4.72389 8.33613 5.62719 8.99537 6.31243 9.85274C5.38805 3.70874 5.72512 1.06984 5.78741 0.582167C5.79304 0.538047 5.79643 0.511535 5.79643 0.501627C5.81844 0.406924 5.86248 0.318685 5.92501 0.244012C5.98753 0.169338 6.0668 0.110314 6.15643 0.0716896C6.2429 0.0246509 6.33988 0 6.43843 0C6.53698 0 6.63395 0.0246509 6.72043 0.0716896C8.14843 1.07487 10.5604 5.60115 11.8564 8.24048C12.8884 3.0693 15.6244 2.86628 15.7444 2.86628C15.8745 2.85452 16.0048 2.88713 16.1138 2.95874C16.2228 3.03035 16.3041 3.13672 16.3444 3.26038C16.3866 3.37785 16.3908 3.50552 16.3564 3.62547C16.3219 3.74542 16.2506 3.85163 16.1524 3.92918C14.7724 4.99207 15.2044 10.1752 15.8044 13.1847C15.8242 13.2719 15.8237 13.3625 15.8029 13.4494C15.7821 13.5364 15.7416 13.6174 15.6844 13.6863C15.6263 13.7533 15.5545 13.8071 15.4738 13.8442C15.3931 13.8812 15.3053 13.9007 15.2164 13.9013C12.2988 13.9652 9.46316 14.8741 7.05643 16.5168C6.95015 16.5896 6.82534 16.631 6.69643 16.6362ZM6.78043 12.4324C5.86094 10.8445 4.45705 9.58959 2.77243 8.84956C4.69278 10.5748 6.15598 12.7448 7.03243 15.1672C9.3055 13.7687 11.8895 12.9484 14.5564 12.7787C14.0703 10.3202 13.9852 7.79991 14.3044 5.31453C13.3877 6.85073 12.8759 8.59252 12.8164 10.3782C12.8053 10.5092 12.751 10.6329 12.6621 10.73C12.5731 10.8272 12.4544 10.8924 12.3244 10.9156C12.1933 10.9356 12.0592 10.9126 11.9423 10.8502C11.8254 10.7877 11.7321 10.6891 11.6764 10.5693C10.3114 7.58685 8.7062 4.71921 6.87643 1.99446C6.8774 5.36795 7.21912 8.73279 7.89643 12.0383C7.91889 12.1782 7.89163 12.3215 7.81935 12.4436C7.74707 12.5656 7.63429 12.6588 7.50043 12.707C7.36711 12.7528 7.22188 12.7503 7.09022 12.7C6.95856 12.6498 6.84888 12.555 6.78043 12.4324ZM9.1654 16.1327C10.4165 15.3008 11.8875 14.8567 13.3922 14.8567C15.409 14.8598 17.3423 15.6586 18.7683 17.0779C20.1944 18.4971 20.997 20.4212 21.0002 22.4283C21.0002 23.9259 20.554 25.3898 19.718 26.6349C18.882 27.8801 17.6938 28.8506 16.3036 29.4236C14.9135 29.9967 13.3837 30.1467 11.9079 29.8545C10.4321 29.5624 9.07651 28.8412 8.01251 27.7823C6.94852 26.7234 6.22393 25.3743 5.93037 23.9055C5.63681 22.4367 5.78748 20.9143 6.36331 19.5308C6.93914 18.1473 7.91427 16.9647 9.1654 16.1327ZM9.83209 27.7309C10.8859 28.4317 12.1248 28.8057 13.3922 28.8057C15.0907 28.8026 16.7188 28.1297 17.9198 26.9344C19.1209 25.739 19.797 24.1188 19.8002 22.4283C19.8002 21.167 19.4244 19.934 18.7202 18.8853C18.0161 17.8365 17.0153 17.0191 15.8444 16.5364C14.6735 16.0537 13.3851 15.9274 12.142 16.1735C10.899 16.4196 9.75722 17.027 8.86104 17.9189C7.96487 18.8107 7.35457 19.9471 7.10731 21.1842C6.86006 22.4213 6.98695 23.7035 7.47196 24.8689C7.95697 26.0342 8.7783 27.0302 9.83209 27.7309Z" fill="white"/>
</svg>
