<?xml version="1.0" encoding="UTF-8"?>
<svg xmlns="http://www.w3.org/2000/svg" width="24" height="24" viewBox="0 0 24 24" fill="none">
  <path d="M10.9321 17.6297C10.6855 17.5161 10.5026 17.582 10.3065 17.691C10.1103 17.8001 10.0643 17.6308 9.84848 17.6263C9.63264 17.6218 9.53403 17.7774 9.45734 17.875C9.40162 17.9412 9.33791 17.9996 9.26779 18.0488C9.969 19.1279 10.6056 19.0256 11.1939 18.7667C11.5366 18.6225 11.8289 18.3737 12.0321 18.0534C11.7231 18.1829 11.309 17.8012 10.9321 17.6297Z" fill="white"></path>
  <path d="M20.1837 16.0896C20.1838 15.6818 20.0479 15.2865 19.7991 14.9707C19.5504 14.6548 19.2039 14.4378 18.8185 14.3563C18.9395 14.2039 19.0215 14.0223 19.0567 13.8284C19.092 13.6344 19.0794 13.4343 19.0202 13.2467C18.9609 13.0591 18.857 12.8901 18.7179 12.7552C18.5788 12.6204 18.4092 12.5242 18.2247 12.4754C18.8919 11.9564 19.2425 11.3192 19.2798 10.5991C19.317 9.87897 18.8097 9.44168 18.3167 9.15659C17.8028 8.85901 16.5242 8.49327 16.1342 8.42967C15.8585 7.46243 15.5153 6.51722 15.1076 5.6015C14.7383 4.78825 14.0119 4.49408 13.3929 4.30894C12.8451 4.14425 12.3893 4 11.871 4C11.5939 4 11.4153 4.17378 11.0888 4.20785C10.8017 4.23625 10.4566 4.08859 10.2539 4.09427C9.75896 4.09405 9.26788 4.18441 8.80326 4.36119C7.78102 4.74964 7.45233 5.69009 7.36468 6.0774C7.28032 6.41814 7.19705 6.71118 7.06995 7.14847L6.91766 7.67549C6.69086 8.18547 6.39175 9.21565 6.31506 9.4837C4.83156 10.6706 4.28703 11.3646 4.08324 12.3232C3.98244 12.7991 3.83015 14.0122 4.61024 14.9799C4.91065 15.3425 5.2884 15.6275 5.71355 15.8124C5.82859 16.6393 5.68068 17.4639 6.86617 17.6831C6.90702 17.6908 6.94846 17.6946 6.98997 17.6945C7.00129 17.858 7.04551 18.0171 7.1198 18.1618C7.19408 18.3065 7.29677 18.4334 7.42125 18.5344C7.54573 18.6354 7.68925 18.7083 7.84255 18.7483C7.99585 18.7883 8.15553 18.7946 8.31131 18.7667C8.65074 19.2228 9.0174 19.6564 9.40915 20.0649C9.8342 20.5511 10.4045 20.8751 11.0285 20.9849C11.7702 21.1269 12.8801 20.2342 13.7084 19.6083C14.0558 19.3448 14.4754 18.9859 14.7668 18.7497C15.1875 18.4089 15.9775 18.242 17.2079 18.619C18.8327 19.1154 19.7049 18.6452 19.42 17.5661C19.6553 17.4049 19.8483 17.1855 19.9816 16.9278C20.1149 16.6701 20.1843 16.382 20.1837 16.0896V16.0896ZM12.8889 19.3516C12.111 19.94 11.3933 20.233 11.0559 20.2603C10.8017 20.2773 10.4248 20.0411 10.0227 19.6117C9.5344 19.062 9.11375 18.4515 8.77039 17.7944C8.5019 17.2958 8.27466 16.7745 8.09109 16.2361C8.27516 16.2361 8.49209 16.2361 8.73423 16.2179C8.75943 16.545 8.81202 16.9994 8.9172 17.2583C9.06731 17.6252 10.2648 16.9892 10.7546 17.0312C10.7546 17.0312 10.6143 16.26 10.0052 16.6757C9.23823 17.1981 9.35655 16.62 9.37628 16.1793C10.2492 16.1012 11.115 15.9543 11.9664 15.7398C12.3893 15.9953 12.9218 16.3133 13.2811 16.4826C13.811 16.732 14.3573 16.9423 14.9158 17.1118C14.3765 17.9826 13.6876 18.7433 12.8834 19.3562L12.8889 19.3516ZM9.77509 15.2241C7.2354 15.717 5.66425 15.048 5.21942 14.429C4.6223 13.6022 4.93674 12.6117 4.974 12.4981C5.45827 11.0852 6.83658 10.364 6.84535 10.3571L6.92204 10.3174C6.82994 10.7296 6.78507 11.1516 6.78838 11.5747C6.81483 11.9606 6.90219 12.3393 7.04695 12.6958C7.18828 13.0479 7.4852 13.6646 8.79997 13.7816C10.1147 13.8986 11.217 13.2262 13.4258 12.7015C15.8855 12.1177 15.743 10.5252 15.743 10.5252L15.4505 9.29629C15.4505 9.29629 15.4505 10.6763 14.735 10.8524C14.0196 11.0284 12.8078 11.0954 11.8371 11.3737C10.8663 11.652 9.98983 12.1688 8.65206 11.9121C6.75003 11.5384 7.08968 10.8478 6.92204 10.3219L6.94943 10.2436C6.94943 10.2333 7.32414 9.16454 7.50821 8.75678C7.75363 8.21273 8.01549 7.23366 8.19079 6.50901C8.19079 6.48516 8.20285 6.46017 8.20832 6.43177C8.28064 6.11261 8.40225 5.57878 8.96322 5.36979C9.07278 5.32777 9.18235 5.28688 9.27219 5.25053C9.60088 5.12105 9.81344 5.03586 10.1257 5.02337C10.1843 5.04749 10.2402 5.07835 10.2922 5.11537C10.4489 5.23556 10.6357 5.30618 10.8302 5.31868C10.8517 5.31981 10.8733 5.31981 10.8948 5.31868C11.0731 5.29192 11.2485 5.24742 11.4185 5.18579C11.5544 5.13425 11.6956 5.09955 11.8393 5.08243C12.0249 5.08163 12.2088 5.12029 12.3794 5.19601C12.5389 5.25687 12.7022 5.30658 12.8681 5.3448C13.5978 5.51063 14.0579 5.82525 14.3143 6.33523V6.34318L14.3198 6.35113C14.8676 7.22457 15.4034 9.15772 15.4089 9.17703L15.445 9.30879L15.5886 9.33037C16.1977 9.42123 18.0307 9.83808 18.1852 10.314C18.3397 10.7899 17.1378 13.7918 9.77509 15.2241Z" fill="white"></path>
</svg>
