<svg width="44" height="44" viewBox="0 0 44 44" fill="none" xmlns="http://www.w3.org/2000/svg">
<path d="M22 44C34.1503 44 44 34.1503 44 22C44 9.84974 34.1503 0 22 0C9.84974 0 0 9.84974 0 22C0 34.1503 9.84974 44 22 44Z" fill="#343434"/>
<path d="M23.0962 11.0009C25.1061 11.0043 25.524 11.0201 26.5354 11.0663C27.7063 11.1197 28.5059 11.3056 29.2056 11.5776C29.9289 11.8587 30.5424 12.2348 31.1539 12.8463C31.7654 13.4578 32.1416 14.0713 32.4227 14.7946C32.6946 15.4944 32.8805 16.294 32.934 17.4648C32.9875 18.638 33.0002 19.0126 33.0002 22.0001C33.0002 24.9875 32.9875 25.3621 32.934 26.5353C32.8805 27.7062 32.6946 28.5058 32.4227 29.2055C32.1416 29.9289 31.7654 30.5423 31.1539 31.1538C30.5424 31.7654 29.9289 32.1415 29.2056 32.4226C28.5059 32.6945 27.7063 32.8805 26.5354 32.9339C25.3622 32.9874 24.9876 33.0001 22.0002 33.0001C19.0127 33.0001 18.6382 32.9874 17.4649 32.9339C16.294 32.8805 15.4944 32.6945 14.7947 32.4226C14.0714 32.1415 13.4579 31.7654 12.8464 31.1538C12.2349 30.5423 11.8588 29.9288 11.5776 29.2055C11.3057 28.5058 11.1198 27.7062 11.0663 26.5353C11.0202 25.5239 11.0044 25.1061 11.001 23.0961V20.9041C11.0044 18.8941 11.0202 18.4762 11.0663 17.4648C11.1198 16.294 11.3057 15.4944 11.5776 14.7946C11.8588 14.0713 12.2349 13.4578 12.8464 12.8463C13.4579 12.2348 14.0714 11.8587 14.7947 11.5776C15.4944 11.3056 16.294 11.1197 17.4649 11.0663C18.4763 11.0201 18.8942 11.0043 20.9042 11.0009H23.0962ZM23.0767 12.9828H20.9236C18.9516 12.986 18.5552 13.0006 17.5552 13.0462C16.4827 13.0951 15.9003 13.2743 15.5127 13.4249C14.9992 13.6245 14.6328 13.8629 14.2479 14.2478C13.863 14.6327 13.6246 14.9992 13.4251 15.5126C13.2744 15.9002 13.0952 16.4827 13.0463 17.5552C12.9933 18.7151 12.9822 19.0629 12.9822 22.0001C12.9822 24.9372 12.9933 25.2851 13.0463 26.445C13.0952 27.5175 13.2744 28.0999 13.4251 28.4876C13.6246 29.001 13.863 29.3675 14.2479 29.7524C14.6328 30.1373 14.9992 30.3757 15.5127 30.5752C15.9003 30.7258 16.4827 30.905 17.5552 30.954C18.715 31.0069 19.0628 31.0181 22.0002 31.0181C24.9375 31.0181 25.2854 31.0069 26.4451 30.954C27.5176 30.905 28.1 30.7258 28.4877 30.5752C29.0011 30.3757 29.3676 30.1373 29.7525 29.7524C30.1374 29.3675 30.3758 29.001 30.5753 28.4876C30.7259 28.0999 30.9051 27.5175 30.9541 26.445C30.9997 25.4451 31.0143 25.0486 31.0174 23.0766V20.9236C31.0143 18.9515 30.9997 18.5551 30.9541 17.5551C30.9051 16.4827 30.7259 15.9002 30.5753 15.5126C30.3758 14.9992 30.1374 14.6327 29.7525 14.2478C29.3676 13.8629 29.0011 13.6245 28.4877 13.4249C28.1 13.2743 27.5176 13.0951 26.4451 13.0462C25.4452 13.0006 25.0487 12.986 23.0767 12.9828ZM22.022 16.3691C25.1439 16.3691 27.6748 18.9 27.6748 22.0219C27.6748 25.1438 25.1439 27.6747 22.022 27.6747C18.9001 27.6747 16.3692 25.1438 16.3692 22.0219C16.3692 18.9 18.9001 16.3691 22.022 16.3691ZM22.022 18.3525C19.9955 18.3525 18.3527 19.9954 18.3527 22.0219C18.3527 24.0484 19.9955 25.6912 22.022 25.6912C24.0485 25.6912 25.6914 24.0484 25.6914 22.0219C25.6914 19.9954 24.0485 18.3525 22.022 18.3525ZM27.8494 14.7977C28.5726 14.7977 29.1589 15.3839 29.1589 16.1072C29.1589 16.8304 28.5726 17.4167 27.8494 17.4167C27.1262 17.4167 26.5399 16.8304 26.5399 16.1072C26.5399 15.3839 27.1262 14.7977 27.8494 14.7977Z" fill="white"/>
</svg>
