<?xml version="1.0" encoding="UTF-8"?>
<svg xmlns="http://www.w3.org/2000/svg" xmlns:v="https://vecta.io/nano" width="134" height="47" fill="#fff">
  <path d="M32.791 27.145c0-6.332-3.554-11.859-8.723-14.704.592-1.127.915-2.415.915-3.81 0-2.629-1.238-4.937-3.177-6.44C19.922.742 17.984-.224 14.484.045 10.823.259 8.83 2.46 8.83 2.46c-.108.107-.162.215-.269.268-.969 1.073-1.4 2.361-1.4 3.649 0 1.556.646 3.166 1.938 4.239.269.215.485.376.754.537.377.215.862.054.969-.322l.485-1.342.054-.161v-.054c-.108-.054-.162-.054-.269-.107A4.26 4.26 0 0 1 9.1 4.981c.054-.537.269-1.02.485-1.503.162-.322 1.669-2.576 5.869-2.2a6.1 6.1 0 0 1 2.046.537c.377.107.7.268.969.429h.054c1.884 1.073 3.123 3.059 3.123 5.366 0 1.825-.646 3.703-1.938 4.83-.162.161-.377.322-.646.537-.754.429-1.615.698-2.531.859V9.168v-.054V6.86a.81.81 0 0 0-.539-.751l-2.1-.644v8.532h-1.831a1.03 1.03 0 0 0-1.023.751l-.538 1.449 3.177.054c1.992.107 3.877.483 5.6 1.127a19.89 19.89 0 0 1 1.561.698c2.531 1.342 4.523 3.542 5.546 6.279a12.09 12.09 0 0 1 .754 4.239 11.06 11.06 0 0 1-.162 1.878c-.162 1.288-.538 2.522-1.077 3.703-2.1 4.293-6.569 7.352-11.738 7.352a13.1 13.1 0 0 1-7.43-2.308l-.969-.805c-.431-.322-.808-.698-1.185-1.127-1.4-1.556-2.261-3.542-2.261-5.742 0-4.83 3.931-8.371 8.723-8.371 1.131 0 2.261.215 3.231.644.969.376 1.723.966 2.369 1.664.7.859 1.077 1.932 1.077 3.112a5.1 5.1 0 0 1-1.023 3.059c-.862.966-2.046 1.127-2.585 1.127-.754-.054-1.346-.161-1.831-.322-.377-.107-.754.054-.915.429l-.323.859c.754.376 1.561.59 2.423.698h.054.269.162.054.269.054c.108 0 .215 0 .323-.054 3.769-.376 6.838-3.864 6.838-7.889 0-3.381-2.1-6.225-5.061-7.405l-.323-.161c-1.292-.483-2.746-.751-4.2-.751-3.607 0-6.892 1.61-9.046 4.186C1.077 24.462 0 27.145 0 30.043v.268.054.268c0 .215.054.429.054.698.754 7.03 6.677 12.503 13.838 12.557V47l2.154-.537c.269-.054.485-.322.485-.644v-1.342-.107-.161c8.992-.322 16.207-7.674 16.207-16.689v-.107c.054-.161.054-.215.054-.268zm21.606-7.635c0 .744-.498 3.286-4.916 3.286h-4.667V10.085h4.667c3.92 0 4.356 2.728 4.356 3.286 0 1.736-1.182 2.542-2.24 2.914 1.307.31 2.8 1.116 2.8 3.224zm-5.227-8.805h-2.489v5.208h2.8c1.058 0 2.427-.806 2.427-2.48.062-1.736-1.12-2.728-2.738-2.728zm3.111 8.743c0-2.604-2.738-2.852-3.298-2.852h-2.24v5.58h2.738c0-.062 2.8-.124 2.8-2.728zm19.29-3.038c0 4.588-2.738 6.572-6.16 6.572s-6.16-1.984-6.16-6.572c0-4.402 2.738-6.572 6.16-6.572s6.16 2.108 6.16 6.572zm-2.116 0c0-4.092-1.805-6.014-4.045-6.014s-4.045 1.984-4.045 6.014c0 4.216 1.804 6.014 4.045 6.014s4.045-1.798 4.045-6.014zm20.784 6.386h-1.867l-1.493-8.681-4.729 8.681-4.294-8.122-.996 8.122h-.809l1.431-12.711 5.227 9.859 5.352-9.859 2.302 12.711h-.124zM104.8 19.51c0 .744-.498 3.286-4.916 3.286h-4.667V10.085h4.667c3.92 0 4.356 2.728 4.356 3.286 0 1.736-1.183 2.542-2.241 2.914 1.245.31 2.801 1.116 2.801 3.224zm-5.227-8.805h-2.489v5.208h2.8c1.058 0 2.427-.806 2.427-2.48 0-1.736-1.183-2.728-2.738-2.728zm3.111 8.743c0-2.604-2.738-2.852-3.298-2.852h-2.24v5.58h2.738c-.062-.062 2.8-.124 2.8-2.728zm6.099 3.348l5.725-12.711 5.849 12.711h-2.115l-1.12-2.418h-6.41l-1.058 2.418h-.871zm2.24-3.038h5.787l-2.924-6.386-2.863 6.386zm22.526-9.673l-4.604 7.192v5.456h-1.867v-5.27l-4.978-7.44h2.302l4.231 6.324 4.045-6.324h.871v.062zM44.814 33.304h1.302v4.354h2.412v1.111h-3.714v-5.465zm8.589 0h1.302v5.465h-1.302v-5.465zm6.075 0h1.485l1.461 3.582h.017l1.486-3.582h1.394l-2.437 5.465h-1.043l-2.362-5.465zm10.683 0h4.014v1.111h-2.712v1.019h2.562v1.112h-2.562v1.112h2.863v1.111h-4.165v-5.465z"></path>
</svg>
