<svg width="75" height="62" viewBox="0 0 75 62" fill="none" xmlns="http://www.w3.org/2000/svg">
<path d="M69.8011 10.1601C68.9467 10.1092 68.091 10.2338 67.2865 10.5262C66.482 10.8186 65.7457 11.2727 65.1228 11.8605C64.4999 12.4484 64.0036 13.1575 63.6644 13.9445C63.3252 14.7314 63.1502 15.5795 63.1502 16.4367C63.1502 17.2938 63.3252 18.1419 63.6644 18.9289C64.0036 19.7158 64.4999 20.425 65.1228 21.0128C65.7457 21.6007 66.482 22.0547 67.2865 22.3471C68.091 22.6396 68.9467 22.7641 69.8011 22.7132C69.934 22.7132 70.0596 22.7132 70.1888 22.7132V43.9507C70.1888 45.1161 69.7266 46.2337 68.9038 47.0577C68.0811 47.8818 66.9651 48.3447 65.8016 48.3447H4.38727C3.22369 48.3447 2.10776 47.8818 1.28499 47.0577C0.462222 46.2337 0 45.1161 0 43.9507V4.39396C0 3.22861 0.462222 2.11099 1.28499 1.28696C2.10776 0.462933 3.22369 0 4.38727 0H65.7979C66.9614 0 68.0774 0.462933 68.9001 1.28696C69.7229 2.11099 70.1851 3.22861 70.1851 4.39396V10.1601H69.8011ZM17.4087 34.1642C17.634 34.8151 17.922 35.6436 18.2618 36.6423C16.7846 35.9025 12.0428 38.0107 10.3514 38.5803C9.89051 38.1487 9.38261 37.7703 8.83731 37.4522C8.60632 37.3876 8.36343 37.378 8.12808 37.4243C7.89273 37.4705 7.67145 37.5713 7.48198 37.7186C7.38227 37.6557 7.25302 37.4855 7.03882 37.7999C6.89849 38.0033 6.96865 38.0477 7.11268 38.1476C7.025 38.2862 6.94487 38.4294 6.87264 38.5766C6.75446 38.5433 6.65844 38.4139 6.50334 38.7246C6.34823 39.0353 6.50334 39.0944 6.65845 39.1499C6.18575 40.1227 5.39545 40.7107 4.91906 41.7131C4.76764 41.6539 4.65684 41.5836 4.50543 41.9794C4.39464 42.2605 4.50543 42.3085 4.66792 42.3936C4.5939 42.6554 4.5335 42.9208 4.48697 43.1888C4.45269 43.1769 4.41617 43.1729 4.38013 43.1772C4.3441 43.1814 4.30949 43.1938 4.27893 43.2134C4.24836 43.233 4.22262 43.2592 4.20364 43.2902C4.18467 43.3212 4.17295 43.3561 4.16937 43.3922C4.11398 43.7917 4.16938 43.8509 4.40942 43.8768C4.40942 44.0469 4.40942 44.2355 4.40942 44.4426C4.54606 45.027 5.06308 45.1454 5.3659 44.9124C6.99451 43.6696 8.24643 42.8522 9.16229 42.1939C11.5775 41.9646 18.1842 41.517 20.1157 41.3469C21.0722 41.4098 23.9305 38.9391 23.9601 38.0958C24.0085 36.7847 23.9789 35.4718 23.8714 34.1642C23.7939 33.136 23.6905 31.9894 23.5945 30.3435L24.045 30.1992L24.0819 26.7558L24.9941 26.8039C24.9941 26.8039 24.9756 26.8039 25.0938 26.4156C27.4352 26.6671 31.8372 27.3661 34.7694 27.1553C35.0356 27.1349 35.3029 27.1759 35.5506 27.2753C35.7984 27.3747 36.0201 27.5298 36.1986 27.7286C36.9372 28.361 42.4139 28.938 46.9821 28.9676C47.1161 29.3922 47.3491 29.7787 47.6618 30.0951C47.9746 30.4116 48.3581 30.6488 48.7806 30.7873C48.8803 30.8465 48.9542 30.7873 49.2127 30.6616C49.3604 30.8169 49.4417 30.8983 49.7112 30.7577C49.9254 30.6431 49.9217 30.5432 49.8479 30.3694L50.0658 30.2288C50.2024 30.3731 50.328 30.4508 50.5311 30.3176C50.7342 30.1845 50.7564 30.1327 50.6086 29.9071C51.0739 29.6038 53.7477 27.5954 53.7477 27.5954C53.8437 27.6953 53.9028 27.7471 53.9619 27.736C54.1145 27.6708 54.2479 27.5677 54.3496 27.4364C54.3829 27.3587 54.3053 27.2662 54.2241 27.1627L54.682 26.7928C54.7596 26.8964 54.826 26.9556 54.8888 26.9334C55.0094 26.8817 55.1077 26.7886 55.1658 26.6708C55.1953 26.6079 55.1141 26.5043 55.0476 26.4082L55.3504 26.0383C55.2323 25.5057 54.7042 25.5649 54.2425 25.5982C53.0903 25.6832 49.811 26.1788 48.5516 26.1197C46.2066 25.3393 37.2917 21.9994 36.7636 21.8034C36.2272 21.6026 35.655 21.5157 35.0833 21.5482C32.6792 20.2574 28.1331 19.2698 27.7195 19.1552C27.6014 19.1219 27.6457 18.9259 27.6087 18.7853C26.4258 18.5745 25.2279 18.4583 24.0265 18.4376C24.4133 16.5462 24.6602 14.6288 24.7651 12.7011C24.9843 12.8534 25.2384 12.9476 25.5037 12.9748C26.0651 13.0339 26.6559 12.6234 27.3687 12.3312C27.738 12.1796 27.7934 12.4015 28.0076 12.2683C28.484 11.9724 28.724 11.107 29.4257 10.5818C29.8725 10.2119 30.3379 10.3376 30.5336 9.9271C30.8512 9.23916 30.6961 8.75834 30.5631 8.02971C30.3637 6.92012 30.1274 6.1804 29.2558 5.48875C28.6641 4.98189 27.903 4.71767 27.125 4.74903C26.0872 4.74903 24.3515 5.24095 23.4061 7.63765C22.5898 7.10227 21.7166 6.65942 20.8026 6.31725C18.7493 5.57752 12.2755 7.00519 11.5517 7.33806C11.5855 7.54844 11.6028 7.76114 11.6033 7.97423C11.6033 7.97423 10.813 8.00012 10.4955 8.45135C8.97025 10.6705 7.22347 13.7663 7.22347 13.7663C6.91819 13.8443 6.63622 13.995 6.40155 14.2056C6.16687 14.4162 5.98643 14.6803 5.87554 14.9757C5.56902 15.6267 5.28466 15.7154 4.63839 16.126C4.19153 16.2776 4.35402 16.7696 4.60884 16.7511C5.11575 16.6698 5.58803 16.4423 5.96786 16.0964C5.70935 16.8842 4.7861 17.4353 4.76025 17.7534C4.85257 18.1861 5.84968 18.7742 7.14223 17.7904C7.57064 17.5199 7.95438 17.1842 8.27966 16.7954C8.44215 16.5994 8.53079 15.745 8.71175 15.1237C8.9998 14.9905 11.186 12.997 12.774 11.4029C12.774 11.4029 15.9943 10.7519 17.5343 10.5115C17.5343 10.5115 16.3378 11.0811 15.1486 11.4916C13.1581 18.8889 13.3021 22.1584 14.3583 22.495C13.5459 23.9745 15.4145 29.9662 16.4042 32.4813L16.8917 32.5664C16.8917 32.5664 17.0874 33.1249 17.442 34.1568" fill="white"/>
<path d="M74.0184 16.4921C73.9981 17.2555 73.7535 17.9959 73.3153 18.6208C72.877 19.2456 72.2645 19.7273 71.5544 20.0054C70.8443 20.2835 70.0681 20.3458 69.3229 20.1844C68.5776 20.0231 67.8964 19.6453 67.3644 19.0983C66.8324 18.5513 66.4732 17.8593 66.3318 17.1089C66.1904 16.3586 66.273 15.5831 66.5693 14.8795C66.8656 14.1758 67.3624 13.5753 67.9976 13.153C68.6329 12.7307 69.3783 12.5053 70.1408 12.505C70.6568 12.5118 71.1664 12.6203 71.6406 12.8243C72.1147 13.0283 72.5441 13.3239 72.9042 13.6942C73.2643 14.0644 73.548 14.5021 73.7392 14.9821C73.9304 15.4622 74.0252 15.9753 74.0184 16.4921Z" fill="white"/>
<path d="M0.439453 53.6116H4.2506C4.54033 53.6028 4.82883 53.653 5.09861 53.7592C5.36839 53.8654 5.61385 54.0253 5.82012 54.2292C6.014 54.4316 6.16474 54.6715 6.26315 54.9341C6.36155 55.1967 6.40558 55.4766 6.39254 55.7568C6.39672 55.9957 6.3524 56.233 6.26226 56.4542C6.17211 56.6755 6.03802 56.8761 5.86813 57.0439C5.66621 57.2393 5.42245 57.3861 5.15539 57.4729C5.4934 57.5758 5.80307 57.7555 6.06017 57.9981C6.24717 58.1847 6.39408 58.4076 6.49189 58.6531C6.58969 58.8986 6.63631 59.1616 6.62889 59.4258C6.63667 59.753 6.57745 60.0784 6.45486 60.3818C6.33228 60.6852 6.14894 60.9603 5.91614 61.19C5.68301 61.395 5.41135 61.5513 5.1171 61.6498C4.82286 61.7482 4.51195 61.7868 4.2026 61.7633H0.439453V53.6116ZM1.54735 54.5177V57.0439H4.13244C4.28274 57.0463 4.43195 57.018 4.57099 56.9607C4.71003 56.9035 4.83599 56.8185 4.9412 56.711C5.06743 56.5778 5.16527 56.4202 5.22876 56.2479C5.29225 56.0756 5.32006 55.8921 5.3105 55.7087C5.31404 55.5404 5.2831 55.3731 5.21958 55.2173C5.15607 55.0614 5.06132 54.9203 4.9412 54.8025C4.84847 54.7083 4.73726 54.6344 4.61459 54.5854C4.49193 54.5364 4.36044 54.5133 4.22845 54.5177H1.54735ZM1.54735 57.95V60.8572H3.97363C4.1737 60.8742 4.37514 60.8501 4.56562 60.7865C4.75611 60.723 4.93165 60.6211 5.08152 60.4873C5.34821 60.2062 5.50086 59.8357 5.50973 59.448C5.51861 59.0604 5.38307 58.6833 5.12953 58.3902C4.97793 58.2444 4.7982 58.1311 4.60134 58.0573C4.40448 57.9836 4.19464 57.9508 3.98471 57.9611L1.54735 57.95Z" fill="white"/>
<path d="M8.24646 53.6116H9.35435V59.3518C9.3452 59.5564 9.37854 59.7607 9.45228 59.9516C9.52602 60.1426 9.63855 60.3162 9.78274 60.4614C10.2178 60.8018 10.754 60.9868 11.3061 60.9868C11.8582 60.9868 12.3944 60.8018 12.8295 60.4614C12.9736 60.3162 13.0862 60.1426 13.1599 59.9516C13.2337 59.7607 13.267 59.5564 13.2578 59.3518V53.6116H14.3657V59.3777C14.3778 59.6941 14.325 60.0095 14.2107 60.3047C14.0963 60.5998 13.9229 60.8684 13.701 61.0939C13.1914 61.6043 12.4011 61.8595 11.319 61.8595C10.237 61.8595 9.44668 61.6043 8.94074 61.0939C8.71764 60.8691 8.54316 60.6007 8.42816 60.3055C8.31316 60.0102 8.26011 59.6944 8.27231 59.3777L8.24646 53.6116Z" fill="white"/>
<path d="M16.057 53.6116H17.2462L21.0536 60.0472V53.6116H22.1615V61.7485H20.9687L17.1465 55.3277V61.7633H16.0386L16.057 53.6116Z" fill="white"/>
<path d="M23.816 53.6116H26.6707C27.1223 53.6039 27.5706 53.6886 27.9884 53.8603C28.4062 54.032 28.7846 54.2871 29.1007 54.6102C29.7987 55.3129 30.1458 56.3596 30.1458 57.7577C30.1458 59.0941 29.7765 60.1273 29.0379 60.8572C28.7229 61.162 28.3494 61.3995 27.9399 61.5553C27.5304 61.7111 27.0936 61.7818 26.6559 61.7633H23.8013L23.816 53.6116ZM24.9239 54.5177V60.8572H26.6375C26.9097 60.8671 27.181 60.8214 27.435 60.7228C27.689 60.6242 27.9202 60.4749 28.1147 60.2839C28.4279 59.9457 28.6695 59.5476 28.825 59.1135C28.9805 58.6793 29.0467 58.2181 29.0195 57.7577C29.0195 56.6148 28.7314 55.7568 28.1627 55.1687C27.967 54.9597 27.7308 54.7929 27.4685 54.6785C27.2063 54.564 26.9235 54.5043 26.6375 54.5029L24.9239 54.5177Z" fill="white"/>
<path d="M31.719 53.6116H36.952V54.5177H32.8121V57.0439H36.6676V57.95H32.8121V60.8572H37.192V61.7633H31.719V53.6116Z" fill="white"/>
<path d="M39.382 54.1737C39.8252 53.7298 40.5071 53.5079 41.4279 53.5079C42.4127 53.5079 43.1587 53.7619 43.6659 54.2698C43.8784 54.4731 44.0474 54.7177 44.1623 54.9886C44.2772 55.2595 44.3358 55.5511 44.3343 55.8455H43.2264C43.2333 55.6696 43.204 55.4941 43.1405 55.33C43.077 55.1659 42.9805 55.0165 42.8571 54.8912C42.6735 54.7354 42.4606 54.6179 42.2311 54.5455C42.0015 54.4731 41.7599 54.4473 41.5202 54.4696C40.8555 54.4696 40.3939 54.5953 40.1391 54.8394C40.0348 54.9371 39.9516 55.055 39.8944 55.1861C39.8373 55.3171 39.8074 55.4584 39.8067 55.6013C39.787 55.8251 39.8545 56.0477 39.995 56.2227C40.2484 56.4359 40.5406 56.5979 40.8555 56.6998C41.5941 57.0179 42.4103 57.3804 43.3298 57.8094C43.5988 57.9154 43.8419 58.0781 44.0425 58.2865C44.21 58.4461 44.343 58.6384 44.4332 58.8515C44.5234 59.0647 44.5689 59.2941 44.567 59.5256C44.5717 59.8267 44.5152 60.1255 44.4009 60.404C44.2866 60.6825 44.117 60.9348 43.9022 61.1456C43.4271 61.6239 42.6491 61.8631 41.5683 61.8631C41.1264 61.8908 40.6836 61.829 40.2661 61.6816C39.8486 61.5342 39.4651 61.3041 39.1383 61.005C38.9201 60.7594 38.7531 60.4725 38.6472 60.1612C38.5413 59.85 38.4986 59.5207 38.5215 59.1927H39.6294C39.5861 59.6382 39.7187 60.0829 39.9987 60.4318C40.221 60.6221 40.4787 60.7665 40.7569 60.8567C41.0352 60.9468 41.3285 60.9809 41.62 60.957C41.8855 60.9795 42.1528 60.949 42.4064 60.867C42.66 60.7851 42.8948 60.6535 43.0971 60.4798C43.316 60.2847 43.4488 60.0108 43.4664 59.7179C43.4709 59.5852 43.4479 59.4529 43.399 59.3294C43.3501 59.206 43.2762 59.0939 43.1821 59.0004C42.9573 58.7993 42.7001 58.638 42.4213 58.5233C42.1037 58.3679 41.6827 58.1756 41.1842 57.9537L39.803 57.3323C39.5518 57.2395 39.3237 57.0931 39.1346 56.9033C38.9895 56.7519 38.8766 56.5725 38.803 56.376C38.7293 56.1795 38.6964 55.97 38.7062 55.7604C38.7046 55.4637 38.7638 55.1698 38.88 54.8969C38.9962 54.624 39.1671 54.3779 39.382 54.1737V54.1737Z" fill="white"/>
<path d="M51.0259 61.9112H46.0293V53.434H47.7761V60.5427H51.0259V61.9112Z" fill="white"/>
<path d="M52.5991 53.434H54.3496V61.9223H52.5991V53.434Z" fill="white"/>
<path d="M63.0688 61.571C62.2336 61.8422 61.3617 61.9832 60.4837 61.9889C59.1025 61.9889 58.05 61.6597 57.2818 60.9533C56.8668 60.529 56.5435 60.0237 56.3319 59.4688C56.1204 58.914 56.0251 58.3214 56.0521 57.7281C56.0521 54.858 58.098 53.323 60.7089 53.323C61.4353 53.3054 62.1581 53.4311 62.8361 53.6929L62.4668 55.0392C61.9153 54.8141 61.3226 54.7082 60.7274 54.7285C59.1099 54.7285 57.8801 55.6569 57.8801 57.7096C57.8801 59.6773 58.988 60.6685 60.5021 60.6685C60.8073 60.6815 61.1124 60.6401 61.4032 60.5464V58.4715H60.0922V57.1807H63.0688V61.571Z" fill="white"/>
<path d="M71.6698 61.9112H69.8233L69.1733 59.6735H66.7396L66.1155 61.9112H64.3429L66.928 53.4229H69.1253L71.6698 61.9112ZM68.9407 58.4345L68.3978 56.5038C68.2575 55.9749 68.1024 55.2906 67.9842 54.7691H67.9473C67.8291 55.298 67.6777 55.9971 67.5484 56.4927L67.0018 58.4345H68.9407Z" fill="white"/>
</svg>
