<?xml version="1.0" encoding="UTF-8"?>
<svg viewBox="0 0 30 30" version="1.1" xmlns="http://www.w3.org/2000/svg" xmlns:xlink="http://www.w3.org/1999/xlink">
    <!-- Generator: Sketch 52.6 (67491) - http://www.bohemiancoding.com/sketch -->
    <title>icon_search_white</title>
    <desc>Created with Sketch.</desc>
    <g id="Slicing" stroke="none" stroke-width="1" fill="none" fill-rule="evenodd">
        <path d="M8.41071429,13.5906161 C8.41071429,10.7344018 10.7344821,8.41071429 13.5906161,8.41071429 C16.4469107,8.41071429 18.7705982,10.7344018 18.7705982,13.5906161 C18.7705982,16.4468304 16.4469107,18.7705179 13.5906161,18.7705179 C10.7344821,18.7705179 8.41071429,16.4468304 8.41071429,13.5906161 Z M23.92125,22.2690268 L19.7201786,18.0679554 C20.6386607,16.8126964 21.1813125,15.2650982 21.1813125,13.5906161 C21.1813125,9.39846429 17.7828482,6 13.5906161,6 C9.39846429,6 6,9.39846429 6,13.5906161 C6,17.7827679 9.39846429,21.1812321 13.5906161,21.1812321 C15.2382589,21.1812321 16.7630357,20.6560982 18.0073661,19.764375 L22.2166339,23.9736429 L23.92125,22.2690268 Z" id="Fill-1" fill="#FFFFFF"></path>
    </g>
</svg>