<svg width="22" height="30" viewBox="0 0 22 30" fill="none" xmlns="http://www.w3.org/2000/svg">
<path d="M9.7349 29C9.056 29 4.1886 28.791 0.943672 23.0328C0.0913901 21.4475 -0.173749 19.608 0.195727 17.8435C0.406885 17.1597 0.75337 16.5262 1.21421 15.9815C1.67506 15.4367 2.24067 14.992 2.87682 14.6741C2.98202 14.6191 3.10148 14.5982 3.21889 14.6143C3.3363 14.6304 3.44592 14.6826 3.53279 14.7639C3.61966 14.8452 3.67953 14.9516 3.70423 15.0685C3.72893 15.1854 3.71726 15.3072 3.6708 15.4171C3.43164 15.9154 3.36515 16.4803 3.48198 17.0213C3.59882 17.5622 3.89221 18.048 4.31518 18.4007C4.47341 18.481 4.65046 18.5159 4.82701 18.5016C5.00356 18.4872 5.17281 18.4242 5.31628 18.3194C5.4983 18.1561 5.61421 17.9308 5.64181 17.6866C5.66941 17.4424 5.60676 17.1965 5.46586 16.996C5.32433 16.8152 5.17054 16.6445 5.00559 16.4852C4.26423 15.8119 3.70909 14.9558 3.39463 14.0008C3.10712 12.9212 3.18798 11.7754 3.62421 10.7477C4.06043 9.72012 4.82665 8.87045 5.79956 8.33546C5.90521 8.26676 6.03024 8.23486 6.15554 8.24462C6.28085 8.25439 6.39954 8.30528 6.49348 8.38952C6.58742 8.47376 6.65143 8.58672 6.67573 8.71113C6.70003 8.83554 6.68329 8.96455 6.62806 9.07845C6.31754 9.71666 6.248 10.4471 6.43244 11.1333C6.51763 11.2964 6.63683 11.439 6.78183 11.5512C6.92683 11.6634 7.09421 11.7427 7.27244 11.7834C7.49495 11.8843 7.73615 11.9365 7.98011 11.9365C8.22407 11.9365 8.46527 11.8843 8.68778 11.7834C8.97818 11.5946 9.19078 11.3058 9.28614 10.9708C9.34535 10.3355 9.16451 9.70105 8.77984 9.19454L8.59573 8.91592C8.07795 8.33022 7.68921 7.64038 7.45515 6.89194C7.2211 6.1435 7.14706 5.35349 7.23792 4.57405C7.5371 2.58886 8.75682 1.24218 11.3344 0.0812532C11.456 0.0273558 11.5923 0.0175619 11.7202 0.0535347C11.8482 0.0895075 11.9598 0.169031 12.0363 0.278611C12.1194 0.382025 12.1648 0.511141 12.1648 0.644304C12.1648 0.777468 12.1194 0.906583 12.0363 1.01C11.6598 1.45589 11.4184 2.00162 11.3409 2.58209C11.2634 3.16257 11.353 3.7533 11.599 4.28382C12.069 5.07414 12.6958 5.75791 13.4401 6.29222C14.6107 7.08902 15.5674 8.16592 16.2248 9.42673C16.6533 10.4346 16.8651 11.5227 16.8461 12.6193C16.8045 13.2068 16.7121 13.7894 16.57 14.3607C16.6584 14.2364 16.7354 14.1043 16.8001 13.966C17.0888 13.1829 17.1487 12.3328 16.9727 11.5164C16.9513 11.3948 16.9674 11.2694 17.0189 11.1573C17.0703 11.0452 17.1546 10.9517 17.2604 10.8895C17.3696 10.831 17.4947 10.8095 17.617 10.8283C17.7393 10.8472 17.8523 10.9052 17.9393 10.994C19.0426 12.098 19.8913 13.4338 20.4248 14.9063C20.8394 16.0187 21.0387 17.201 21.0116 18.3891C21.0646 19.6636 20.8448 20.9346 20.3672 22.1157C19.6652 24.0201 18.4398 25.6832 16.8346 26.9103C16.7313 26.9922 16.6036 27.0367 16.4722 27.0367C16.3407 27.0367 16.2131 26.9922 16.1097 26.9103C16.0146 26.8166 15.9546 26.6925 15.9399 26.5591C15.9252 26.4258 15.9567 26.2915 16.0292 26.1789C16.2225 25.5945 16.3273 24.9839 16.3398 24.3679C16.3972 23.5348 16.2308 22.7015 15.8582 21.9557C15.4856 21.21 14.9205 20.5795 14.2226 20.1305C12.1168 18.5052 11.2998 17.1005 11.6565 15.4868C11.2418 15.7658 10.8977 16.139 10.6519 16.5766C10.4061 17.0141 10.2654 17.5037 10.2412 18.006C10.3355 18.8685 10.6399 19.6941 11.1272 20.4091C11.4741 20.8004 11.7287 21.2658 11.8722 21.7704C12.0157 22.275 12.0442 22.8058 11.9557 23.323C11.8494 23.6871 11.6462 24.0148 11.3683 24.2707C11.0904 24.5265 10.7484 24.7006 10.3793 24.7742C9.93015 24.8674 9.46533 24.8495 9.02452 24.7221C8.5837 24.5948 8.17997 24.3617 7.84778 24.0428C7.56594 23.6695 7.41606 23.2118 7.42203 22.7426C7.17855 23.0918 7.00643 23.4865 6.91573 23.9035C6.54751 25.6449 7.59463 27.0032 10.0111 27.9203C10.1637 27.945 10.3003 28.0297 10.3909 28.156C10.4816 28.2823 10.5188 28.4397 10.4944 28.5937C10.4699 28.7476 10.3859 28.8855 10.2608 28.9769C10.1356 29.0684 9.97955 29.1059 9.82696 29.0813L9.7349 29ZM2.27847 16.5432C1.82158 16.9863 1.48824 17.5428 1.31189 18.1569C1.02479 19.6195 1.24842 21.1373 1.94477 22.4524C2.97279 24.4238 4.58068 26.0257 6.54751 27.038C6.14952 26.5771 5.86664 26.0267 5.72251 25.4329C5.57838 24.8392 5.57718 24.2192 5.71901 23.6249C5.88062 22.9957 6.16414 22.405 6.55321 21.8869C6.94228 21.3689 7.4292 20.9337 7.98586 20.6065C8.08884 20.5504 8.20586 20.526 8.32244 20.5363C8.43901 20.5466 8.55003 20.5912 8.64176 20.6645C8.73158 20.7405 8.79624 20.8424 8.82709 20.9565C8.85794 21.0706 8.85349 21.1915 8.81436 21.303C8.49217 22.255 8.45764 22.9632 8.7223 23.2998C8.98696 23.6365 9.94203 23.6249 10.2297 23.6017C10.5174 23.5785 10.782 23.0909 10.8396 22.9283C11.0467 22.313 10.4138 21.3611 10.1837 21.0708C9.54972 20.1723 9.15365 19.1254 9.03299 18.0292C8.94093 14.9876 12.485 13.5596 12.6807 13.5016C12.7968 13.4553 12.9247 13.4483 13.0451 13.4819C13.1655 13.5154 13.2719 13.5875 13.3481 13.6873C13.4184 13.7874 13.4562 13.9071 13.4562 14.0298C13.4562 14.1525 13.4184 14.2722 13.3481 14.3723C12.37 15.9628 12.2664 17.1237 14.9015 19.1205C15.7565 19.6929 16.4442 20.4856 16.8934 21.4164C17.3426 22.3472 17.5368 23.3823 17.456 24.4143C17.4621 24.5342 17.4621 24.6543 17.456 24.7742C18.2353 23.855 18.8505 22.8061 19.2741 21.6745C19.6946 20.6329 19.8908 19.513 19.8494 18.3891C19.858 17.3394 19.6625 16.2981 19.2741 15.3242C19.0127 14.4946 18.6245 13.7112 18.1234 13.0024C18.0605 13.4951 17.9166 13.9738 17.6976 14.4187C17.5006 14.8785 17.1971 15.284 16.8127 15.6011C16.4283 15.9183 15.9742 16.1378 15.4883 16.2414C15.3839 16.2589 15.2768 16.2464 15.1791 16.2053C15.0814 16.1642 14.9972 16.0963 14.936 16.0092C14.8795 15.921 14.8495 15.8182 14.8495 15.7132C14.8495 15.6081 14.8795 15.5053 14.936 15.4171C15.286 14.4727 15.5067 13.4846 15.5919 12.48C15.6099 11.5779 15.4332 10.6826 15.0741 9.85627C14.6368 8.92753 14.2916 8.54442 12.6001 7.11648C11.6887 6.48879 10.9455 5.64325 10.4368 4.65531C10.0398 3.84132 9.94189 2.91158 10.1607 2.03161C9.66919 2.32037 9.24783 2.71619 8.92732 3.19018C8.60681 3.66418 8.39524 4.2044 8.30805 4.77141C8.24745 5.40086 8.31857 6.03613 8.51679 6.63609C8.71501 7.23605 9.03592 7.78732 9.45874 8.25419L9.65436 8.53281C10.2202 9.30246 10.464 10.2654 10.3333 11.2146C10.1636 11.8667 9.7515 12.428 9.18258 12.7818C8.83005 12.9658 8.4436 13.0742 8.04754 13.1001C7.65148 13.1261 7.25437 13.0691 6.88121 12.9327C6.54238 12.8475 6.22641 12.6878 5.95588 12.465C5.68535 12.2423 5.46694 11.9619 5.31628 11.6441C5.16021 11.2779 5.08558 10.8816 5.09765 10.4832C4.74448 10.9607 4.50305 11.5127 4.39145 12.0978C4.27985 12.6828 4.30098 13.2858 4.45326 13.8615C4.75218 14.5821 5.20385 15.228 5.77655 15.7538C5.98295 15.9651 6.17515 16.19 6.35189 16.4271C6.66577 16.8531 6.80821 17.3832 6.75057 17.9109C6.69294 18.4385 6.43951 18.9246 6.04121 19.2714C5.71101 19.5358 5.31012 19.6947 4.88987 19.7277C4.46963 19.7608 4.04915 19.6666 3.6823 19.4572C3.21276 19.1411 2.83518 18.7046 2.58844 18.1924C2.34169 17.6802 2.2347 17.111 2.27847 16.5432Z" fill="white"/>
</svg>
