<svg width="94" height="72" viewBox="0 0 94 72" fill="none" xmlns="http://www.w3.org/2000/svg">
<path fill-rule="evenodd" clip-rule="evenodd" d="M60.2145 57.5973V51.0204H61.2419V56.6576H62.9307V57.5973H60.2145ZM57.3383 56.0819C57.3383 56.5127 57.5169 56.73 57.8741 56.7338C58.2285 56.7338 58.4057 56.5151 58.4028 56.0819V52.5287C58.4028 52.0969 58.2256 51.881 57.8713 51.881C57.5169 51.881 57.3383 52.0984 57.3383 52.5287V56.0819ZM56.3124 56.02V52.5977C56.3124 52.071 56.4463 51.6637 56.7139 51.3759C56.9816 51.0881 57.3674 50.9442 57.8713 50.9442C58.3723 50.9442 58.7576 51.0881 59.0272 51.3759C59.2968 51.6637 59.4306 52.071 59.4287 52.5977V56.02C59.4287 56.5467 59.2949 56.954 59.0272 57.2418C58.7595 57.5297 58.3742 57.6736 57.8713 57.6736C57.3683 57.6736 56.9826 57.5297 56.7139 57.2418C56.4453 56.954 56.3115 56.5467 56.3124 56.02V56.02ZM53.5134 53.6972H53.9135C53.9987 53.7052 54.0846 53.6949 54.1656 53.6671C54.2466 53.6394 54.3208 53.5947 54.3835 53.5361C54.4982 53.3849 54.5522 53.1959 54.535 53.0065V52.638C54.535 52.1847 54.3664 51.9602 54.0163 51.9602H53.5191L53.5134 53.6972ZM53.5134 56.6576H54.0978C54.1708 56.6636 54.2442 56.6538 54.3132 56.629C54.3822 56.6042 54.4451 56.5649 54.4978 56.5136C54.6005 56.3677 54.6472 56.1893 54.6293 56.0114V55.4357C54.6293 55.1364 54.5779 54.9277 54.4778 54.8097C54.4103 54.7463 54.3302 54.6981 54.2427 54.6683C54.1552 54.6385 54.0625 54.6279 53.9706 54.637H53.5105L53.5134 56.6576ZM52.4861 57.5973V51.0204H54.0349C54.5636 51.0204 54.9493 51.1442 55.1922 51.3917C55.4351 51.6393 55.5561 52.0182 55.5552 52.5287V52.7632C55.5552 53.4348 55.3342 53.8767 54.8922 54.0887C55.4037 54.2902 55.659 54.7593 55.658 55.4962V56.0344C55.658 56.541 55.5261 56.9276 55.2623 57.1944C54.9984 57.4611 54.6102 57.5954 54.0978 57.5973H52.4861ZM48.9326 57.5973V51.0204H51.7317V51.9602H49.9542V53.7922H51.353V54.732H49.9542V56.6576H51.7259V57.5973H48.9326ZM43.7574 57.5973V51.0204H44.9676L45.9278 54.8025L46.8108 50.9614L48.1296 51.0204V57.5973H47.0966V54.3089L46.3822 57.5973H45.4106L44.6376 54.3089V57.5973H43.7574ZM39.651 57.5973V51.0204H40.8484L42.1114 54.6701L42.0857 51.0204H43.0002V57.5973H41.9528L40.6826 53.9577V57.5973H39.651ZM36.7848 56.0819C36.7848 56.5136 36.9648 56.7295 37.3192 56.7338C37.6735 56.7381 37.8521 56.5151 37.8479 56.0819V52.5287C37.8479 52.0969 37.6721 51.881 37.3163 51.881C36.9606 51.881 36.7848 52.0984 36.7848 52.5287V56.0819ZM35.7589 56.02V52.5977C35.7589 52.071 35.8923 51.6637 36.159 51.3759C36.4257 51.0881 36.8115 50.9442 37.3163 50.9442C37.8193 50.9442 38.2051 51.0881 38.4737 51.3759C38.7423 51.6637 38.8761 52.071 38.8752 52.5977V56.02C38.8752 56.5467 38.7413 56.954 38.4737 57.2418C38.206 57.5297 37.8202 57.6736 37.3163 57.6736C36.8143 57.6736 36.4286 57.5297 36.159 57.2418C35.8894 56.954 35.7561 56.5467 35.7589 56.02V56.02ZM32.0369 56.02V52.5977C32.0369 52.0653 32.1678 51.657 32.4298 51.373C32.6917 51.089 33.0728 50.9451 33.5728 50.9413C34.0729 50.9413 34.463 51.0852 34.7402 51.373C35.0174 51.6609 35.1531 52.0638 35.1531 52.5963V53.2396H34.1272V52.5287C34.1272 52.0969 33.9486 51.881 33.5943 51.881C33.2399 51.881 33.0642 52.0984 33.0642 52.5301V56.0862C33.0642 56.518 33.2428 56.7309 33.5986 56.7309C33.9543 56.7309 34.1301 56.5165 34.1272 56.0862V55.1421H35.1531V56.0171C35.1531 56.5496 35.0102 56.9583 34.7402 57.2433C34.4701 57.5282 34.0729 57.675 33.5728 57.675C33.0728 57.675 32.6913 57.5311 32.4298 57.2433C32.1683 56.9555 32.0369 56.5583 32.0369 56.02V56.02Z" fill="white"/>
<path fill-rule="evenodd" clip-rule="evenodd" d="M33.0028 47.9004C37.9393 43.1742 43.8289 21.9426 35.1574 5.18091C34.6445 5.59682 33.9001 6.42289 33.3885 6.8388C42.5087 21.9023 37.3564 42.3064 29.5307 47.0484L28.7263 47.4657L29.225 47.9061L33.0028 47.9004Z" fill="white"/>
<path fill-rule="evenodd" clip-rule="evenodd" d="M32.5684 47.4599C37.4035 42.8763 43.3431 21.8965 34.8545 5.62842L33.3499 6.84161C42.5272 21.8576 36.4933 43.2893 28.7349 47.4599H32.5684Z" fill="white"/>
<path fill-rule="evenodd" clip-rule="evenodd" d="M60.8417 47.8615C55.9052 43.1354 50.0156 21.9038 58.6871 5.13489C59.1986 5.55224 59.9444 6.37687 60.456 6.79422C51.3358 21.8577 56.4881 42.2618 64.3138 47.0038L65.1182 47.4212L64.621 47.8615H60.8417Z" fill="white"/>
<path fill-rule="evenodd" clip-rule="evenodd" d="M61.2762 47.4211C56.4411 42.836 50.5015 21.8576 58.9901 5.5896L60.4946 6.80136C51.3173 21.8188 57.3512 43.2505 65.1097 47.4211H61.2762Z" fill="white"/>
<path fill-rule="evenodd" clip-rule="evenodd" d="M39.8324 1.55566L37.1462 3.40352C44.8247 21.6101 40.2453 38.8755 36.6404 47.0599C36.6276 47.0901 36.2632 47.4988 36.2647 47.5002L36.7719 47.9219H40.2182C44.3417 34.6041 44.7275 16.7386 39.8324 1.55566Z" fill="white"/>
<path fill-rule="evenodd" clip-rule="evenodd" d="M54.0592 1.51538C54.9546 2.13133 55.85 2.74776 56.7454 3.36468C49.1184 17.8496 51.3545 32.5864 56.9083 46.8267C56.9197 46.8569 57.6427 47.447 57.6227 47.4671L57.124 47.8888H53.6777C49.5499 34.5652 49.1641 16.694 54.0592 1.51538Z" fill="white"/>
<path fill-rule="evenodd" clip-rule="evenodd" d="M39.5366 1.93848L37.0534 3.41503C44.5746 21.8591 39.911 39.6224 36.2646 47.4988H39.711C43.7559 34.1867 44.1631 16.9976 39.5366 1.93848Z" fill="white"/>
<path fill-rule="evenodd" clip-rule="evenodd" d="M54.3549 1.89966L56.8368 3.37622C49.3169 21.8202 53.9792 39.5821 57.6269 47.46H54.1806C50.1356 34.1465 49.7284 16.9574 54.3549 1.89966Z" fill="white"/>
<path fill-rule="evenodd" clip-rule="evenodd" d="M44.6791 47.614L44.8434 46.903L46.1665 46.0626L46.5323 43.7499L46.768 43.606C46.7837 43.5973 46.6551 43.1598 46.638 43.0792V43.0245C46.2738 42.9422 45.9427 42.7512 45.6878 42.4765C45.4329 42.2019 45.2662 41.8562 45.2092 41.4847C45.1406 41.4933 45.1363 41.5106 45.102 41.5552H45.0063L44.9734 41.6271H44.8706L44.8434 41.7207H44.7091L44.6934 40.7133H44.8463L44.8677 40.7996H44.9691L45.0206 40.8802C45.2092 40.9033 45.0677 40.9522 45.1963 40.9479C45.2318 40.506 45.4227 40.0915 45.7347 39.7789C46.0467 39.4662 46.4592 39.276 46.898 39.2425V39.2425C46.8295 39.1907 46.7552 39.218 46.668 39.2079C46.6923 39.1015 46.8437 39.0741 46.9252 39.0122C46.918 38.8683 46.8609 38.7244 46.8537 38.5503L47.0938 38.2826C47.0938 38.1847 47.1195 38.0566 47.0581 37.9818C46.9738 37.953 46.8295 38.0264 46.6937 37.9573C46.618 37.9199 46.408 37.8595 46.408 37.8134C46.428 37.7256 46.6094 37.8796 46.7452 37.8926C46.8752 37.8523 47.0666 37.812 47.1838 37.7702C47.2267 37.6263 47.0738 37.6436 47.2167 37.445C47.2249 37.4366 47.2347 37.43 47.2455 37.4255C47.2563 37.421 47.2678 37.4186 47.2795 37.4186C47.2912 37.4186 47.3028 37.421 47.3136 37.4255C47.3244 37.43 47.3342 37.4366 47.3424 37.445C47.4496 37.5889 47.3424 37.6609 47.3538 37.799C47.4253 37.8552 47.4496 37.8523 47.5067 37.93C47.6276 38.0987 47.7342 38.2773 47.8253 38.4639C47.8325 38.5028 47.8253 38.5344 47.7939 38.5258C47.7039 38.497 47.6982 38.2106 47.4396 38.0566C47.3538 38.1746 47.331 38.2005 47.3681 38.3445L47.4796 38.6323L47.7296 39.0914C47.7853 39.1921 47.7296 39.1777 47.6939 39.1547L47.4396 38.8568C47.3563 38.7439 47.2804 38.6256 47.2124 38.5028C46.9523 38.5531 46.9466 38.8712 47.0538 39.018C47.1381 39.0007 47.2667 38.9417 47.301 39.0065C47.3238 39.1274 47.1581 39.0597 47.0881 39.2022L47.1167 39.2425C47.4596 39.2741 47.7865 39.4035 48.0591 39.6156C48.3316 39.8277 48.5385 40.1136 48.6555 40.4399C48.7376 40.603 48.789 40.7802 48.8069 40.9623C48.9784 40.9723 48.8155 40.9162 49.0155 40.8932L49.067 40.8097H49.1613L49.1941 40.7248H49.327V41.7322H49.1999C49.127 41.5883 49.1541 41.6718 49.057 41.6113C49.0155 41.5868 49.0698 41.5955 48.9941 41.5638L48.9055 41.5206C48.8569 41.4847 48.9241 41.5005 48.8255 41.4861C48.7945 41.5229 48.7668 41.5624 48.7426 41.6041C48.6614 41.9369 48.4936 42.2419 48.2565 42.4877C48.0195 42.7336 47.7217 42.9114 47.3938 43.003L47.2395 43.6146L47.4767 43.7441L47.7439 46.0467L49.0555 46.9102L49.2913 47.5996L51.3402 47.5881C48.0254 32.6296 49.5628 15.9745 49.0127 0H44.7105C44.9334 16.4422 45.2749 35.5554 42.6802 47.624L44.6791 47.614Z" fill="white"/>
<path fill-rule="evenodd" clip-rule="evenodd" d="M72.0009 62.7926V65.7386H74.2799C75.34 65.7386 75.8825 65.2646 75.9073 64.3167C75.8816 63.3007 75.3391 62.7926 74.2799 62.7926H72.0009ZM73.8584 67.1432H72.0009V70.8763H70.4292V61.3895C72.0509 61.3449 75.2943 61.0268 76.5574 62.109C77.1575 62.6223 77.4637 63.3419 77.4761 64.2678C77.4885 65.1936 77.1823 65.9069 76.5574 66.4078C76.2403 66.6765 75.8672 66.8698 75.4658 66.9733L77.5147 70.8777H75.8301L73.8584 67.1432Z" fill="white" stroke="white" stroke-width="0.75" stroke-miterlimit="10"/>
<path d="M72.0009 62.7926V65.7386H74.2799C75.34 65.7386 75.8825 65.2646 75.9073 64.3167C75.8816 63.3007 75.3391 62.7926 74.2799 62.7926H72.0009ZM73.8584 67.1432H72.0009V70.8763H70.4292V61.3895C72.0509 61.3449 75.2943 61.0268 76.5574 62.109C77.1575 62.6223 77.4637 63.3419 77.4761 64.2678C77.4885 65.1936 77.1823 65.9069 76.5574 66.4078C76.2403 66.6765 75.8672 66.8698 75.4658 66.9733L77.5147 70.8777H75.8301L73.8584 67.1432Z" fill="white" stroke="white" stroke-width="0.75"/>
<path fill-rule="evenodd" clip-rule="evenodd" d="M64.5425 62.7466C64.176 62.7339 63.8114 62.8034 63.4748 62.95C63.1383 63.0966 62.8383 63.3166 62.5964 63.5942C62.1021 64.1584 61.8544 65.0118 61.8534 66.1545C61.8432 66.6648 61.9141 67.1735 62.0635 67.6612C62.1829 68.047 62.3771 68.4051 62.635 68.7147C62.8665 68.9858 63.1569 69.1995 63.4837 69.3393C63.8194 69.4785 64.1794 69.5485 64.5425 69.5451C64.9026 69.5521 65.26 69.4817 65.5909 69.3385C65.9218 69.1953 66.2186 68.9826 66.4614 68.7147C66.9748 68.1601 67.232 67.3067 67.2329 66.1545C67.2339 65.0022 66.9957 64.1488 66.5185 63.5942C66.0403 63.0291 65.3817 62.7466 64.5425 62.7466ZM64.5525 70.9497C63.9857 70.9607 63.4227 70.8537 62.8988 70.6356C62.3749 70.4174 61.9013 70.0927 61.5077 69.6818C60.7161 68.8365 60.3075 67.655 60.2817 66.1372C60.2817 64.6194 60.6842 63.4378 61.4891 62.5926C61.8818 62.1763 62.3582 61.8494 62.8865 61.6337C63.4149 61.418 63.9829 61.3186 64.5525 61.342C65.8041 61.342 66.8252 61.7641 67.6158 62.6084C68.4065 63.4527 68.8022 64.629 68.8032 66.1372C68.8032 67.6329 68.4074 68.8202 67.6158 69.6991C66.8376 70.553 65.8165 70.9698 64.5525 70.9497Z" fill="white" stroke="white" stroke-width="0.75" stroke-miterlimit="10"/>
<path d="M64.5425 62.7466C64.176 62.7339 63.8114 62.8034 63.4748 62.95C63.1383 63.0966 62.8383 63.3166 62.5964 63.5942C62.1021 64.1584 61.8544 65.0118 61.8534 66.1545C61.8432 66.6648 61.9141 67.1735 62.0635 67.6612C62.1829 68.047 62.3771 68.4051 62.635 68.7147C62.8665 68.9858 63.1569 69.1995 63.4837 69.3393C63.8194 69.4785 64.1794 69.5485 64.5425 69.5451C64.9026 69.5521 65.26 69.4817 65.5909 69.3385C65.9218 69.1953 66.2186 68.9826 66.4614 68.7147C66.9748 68.1601 67.232 67.3067 67.2329 66.1545C67.2339 65.0022 66.9957 64.1488 66.5185 63.5942C66.0403 63.0291 65.3817 62.7466 64.5425 62.7466ZM64.5525 70.9497C63.9857 70.9607 63.4227 70.8537 62.8988 70.6356C62.3749 70.4174 61.9013 70.0927 61.5077 69.6818C60.7161 68.8365 60.3075 67.655 60.2817 66.1372C60.2817 64.6194 60.6842 63.4378 61.4891 62.5926C61.8818 62.1763 62.3582 61.8494 62.8865 61.6337C63.4149 61.418 63.9829 61.3186 64.5525 61.342C65.8041 61.342 66.8252 61.7641 67.6158 62.6084C68.4065 63.4527 68.8022 64.629 68.8032 66.1372C68.8032 67.6329 68.4074 68.8202 67.6158 69.6991C66.8376 70.553 65.8165 70.9698 64.5525 70.9497Z" fill="white" stroke="white" stroke-width="0.75"/>
<path fill-rule="evenodd" clip-rule="evenodd" d="M52.509 62.7926V69.4716H53.562C54.0643 69.4771 54.5635 69.3928 55.0365 69.2227C55.4653 69.0657 55.8612 68.8295 56.2039 68.5261C56.5342 68.2302 56.7986 67.8673 56.9797 67.4611C57.1661 67.0401 57.2606 66.5837 57.2569 66.1227C57.2618 65.6561 57.1673 65.1938 56.9797 64.7671C56.8007 64.3622 56.5359 64.0017 56.2039 63.7107C55.8607 63.4123 55.4646 63.1818 55.0365 63.0315C54.5623 62.867 54.0635 62.7857 53.562 62.7911L52.509 62.7926ZM50.9373 70.8762V61.3894C52.4304 61.2685 54.5307 61.2095 55.9052 61.7406C56.4895 61.9589 57.0241 62.2937 57.4769 62.7249C57.9162 63.1454 58.2649 63.6524 58.5014 64.2144C58.7493 64.8108 58.8733 65.4519 58.8658 66.0983C58.8766 66.7855 58.7462 67.4675 58.4828 68.1016C58.2414 68.6757 57.8786 69.1899 57.4198 69.6083C56.9547 70.0269 56.411 70.3474 55.8209 70.551C55.1743 70.7728 54.4951 70.8827 53.812 70.8762H50.9373Z" fill="white" stroke="white" stroke-width="0.75" stroke-miterlimit="10"/>
<path d="M52.509 62.7926V69.4716H53.562C54.0643 69.4771 54.5635 69.3928 55.0365 69.2227C55.4653 69.0657 55.8612 68.8295 56.2039 68.5261C56.5342 68.2302 56.7986 67.8673 56.9797 67.4611C57.1661 67.0401 57.2606 66.5837 57.2569 66.1227C57.2618 65.6561 57.1673 65.1938 56.9797 64.7671C56.8007 64.3622 56.5359 64.0017 56.2039 63.7107C55.8607 63.4123 55.4646 63.1818 55.0365 63.0315C54.5623 62.867 54.0635 62.7857 53.562 62.7911L52.509 62.7926ZM50.9373 70.8762V61.3894C52.4304 61.2685 54.5307 61.2095 55.9052 61.7406C56.4895 61.9589 57.0241 62.2937 57.4769 62.7249C57.9162 63.1454 58.2649 63.6524 58.5014 64.2144C58.7493 64.8108 58.8733 65.4519 58.8658 66.0983C58.8766 66.7855 58.7462 67.4675 58.4828 68.1016C58.2414 68.6757 57.8786 69.1899 57.4198 69.6083C56.9547 70.0269 56.411 70.3474 55.8209 70.551C55.1743 70.7728 54.4951 70.8827 53.812 70.8762H50.9373Z" fill="white" stroke="white" stroke-width="0.75"/>
<path fill-rule="evenodd" clip-rule="evenodd" d="M46.8209 61.3894L49.9428 70.8762H48.2583L47.7024 69.1464H45.0734L45.5192 67.5374H47.1852L45.6921 62.8271L44.2361 67.5374L43.7389 69.1464L43.2031 70.8762H41.4985L44.6191 61.3894H46.8209Z" fill="white" stroke="white" stroke-width="0.75" stroke-miterlimit="10"/>
<path d="M46.8209 61.3894L49.9428 70.8762H48.2583L47.7024 69.1464H45.0734L45.5192 67.5374H47.1852L45.6921 62.8271L44.2361 67.5374L43.7389 69.1464L43.2031 70.8762H41.4985L44.6191 61.3894H46.8209Z" fill="white" stroke="white" stroke-width="0.75"/>
<path fill-rule="evenodd" clip-rule="evenodd" d="M39.7938 70.8762H38.0321V62.7926H35.2373V61.3894H42.5514V62.7926H39.7938V70.8762Z" fill="white" stroke="white" stroke-width="0.75" stroke-miterlimit="10"/>
<path d="M39.7938 70.8762H38.0321V62.7926H35.2373V61.3894H42.5514V62.7926H39.7938V70.8762Z" fill="white" stroke="white" stroke-width="0.75"/>
<path fill-rule="evenodd" clip-rule="evenodd" d="M29.1664 62.7926V65.7386H31.4525C32.5127 65.7386 33.0552 65.2646 33.0799 64.3167C33.0542 63.3007 32.5118 62.7926 31.4525 62.7926H29.1664ZM31.0239 67.1432H29.1664V70.8763H27.5947V61.3895C29.2736 61.3074 32.4527 60.998 33.7229 62.109C34.3159 62.63 34.6288 63.3409 34.6416 64.2678C34.6545 65.1946 34.3344 65.917 33.7229 66.4078C33.4059 66.6765 33.0327 66.8698 32.6313 66.9733L34.6802 70.8777H32.9971L31.0239 67.1432Z" fill="white" stroke="white" stroke-width="0.75" stroke-miterlimit="10"/>
<path d="M29.1664 62.7926V65.7386H31.4525C32.5127 65.7386 33.0552 65.2646 33.0799 64.3167C33.0542 63.3007 32.5118 62.7926 31.4525 62.7926H29.1664ZM31.0239 67.1432H29.1664V70.8763H27.5947V61.3895C29.2736 61.3074 32.4527 60.998 33.7229 62.109C34.3159 62.63 34.6288 63.3409 34.6416 64.2678C34.6545 65.1946 34.3344 65.917 33.7229 66.4078C33.4059 66.6765 33.0327 66.8698 32.6313 66.9733L34.6802 70.8777H32.9971L31.0239 67.1432Z" fill="white" stroke="white" stroke-width="0.75"/>
<path fill-rule="evenodd" clip-rule="evenodd" d="M20.2249 61.3894H25.873V62.7926H21.7951V65.3111H24.3413V66.7142H21.7951V69.4716H25.873V70.8762H20.2249V61.3894Z" fill="white" stroke="white" stroke-width="0.75" stroke-miterlimit="10"/>
<path d="M20.2249 61.3894H25.873V62.7926H21.7951V65.3111H24.3413V66.7142H21.7951V69.4716H25.873V70.8762H20.2249V61.3894Z" fill="white" stroke="white" stroke-width="0.75"/>
<path fill-rule="evenodd" clip-rule="evenodd" d="M89.5224 70.9496C88.9749 70.9522 88.4287 70.8948 87.8935 70.7783C87.3726 70.659 86.8703 70.4687 86.4004 70.2127L86.9377 68.7909C87.694 69.2896 88.5798 69.552 89.4838 69.545C90.071 69.545 90.524 69.4327 90.844 69.2111C91.1641 68.9895 91.3213 68.6354 91.3213 68.1548C91.3213 67.8123 91.1527 67.5302 90.814 67.3042C90.392 67.0347 89.954 66.7915 89.5024 66.576C89.2099 66.4283 88.8813 66.2844 88.5165 66.1443C88.1629 66.0047 87.8233 65.8317 87.502 65.6276C87.1948 65.4325 86.928 65.1794 86.7162 64.8822C86.4937 64.5412 86.3832 64.1385 86.4004 63.7309C86.3921 63.3871 86.4691 63.0467 86.6246 62.7406C86.78 62.4345 87.009 62.1723 87.2906 61.978C87.885 61.5453 88.6799 61.3285 89.6753 61.3275C90.186 61.3248 90.6957 61.373 91.197 61.4714C91.6386 61.5538 92.0591 61.7257 92.4329 61.9765L91.9914 63.4157C91.6851 63.2039 91.3476 63.0422 90.9912 62.9365C90.5566 62.8231 90.1084 62.7712 89.6596 62.7825C89.2592 62.7747 88.8607 62.8381 88.4822 62.9696C88.1436 63.0962 87.975 63.3236 87.975 63.6546C87.9764 63.8634 88.059 64.0633 88.205 64.2115C88.3861 64.3993 88.5924 64.5606 88.818 64.6908C89.0954 64.8577 89.3816 65.0095 89.6753 65.1455C89.9944 65.2942 90.3201 65.454 90.6526 65.6248C91.244 65.9139 91.7865 66.2952 92.26 66.7545C92.4548 66.9329 92.6113 67.1495 92.7199 67.391C92.8285 67.6326 92.8869 67.894 92.8915 68.1591C92.8915 69.1636 92.5853 69.8798 91.9728 70.3077C91.3603 70.7356 90.5435 70.9496 89.5224 70.9496Z" fill="white" stroke="white" stroke-width="0.75" stroke-miterlimit="10"/>
<path d="M89.5224 70.9496C88.9749 70.9522 88.4287 70.8948 87.8935 70.7783C87.3726 70.659 86.8703 70.4687 86.4004 70.2127L86.9377 68.7909C87.694 69.2896 88.5798 69.552 89.4838 69.545C90.071 69.545 90.524 69.4327 90.844 69.2111C91.1641 68.9895 91.3213 68.6354 91.3213 68.1548C91.3213 67.8123 91.1527 67.5302 90.814 67.3042C90.392 67.0347 89.954 66.7915 89.5024 66.576C89.2099 66.4283 88.8813 66.2844 88.5165 66.1443C88.1629 66.0047 87.8233 65.8317 87.502 65.6276C87.1948 65.4325 86.928 65.1794 86.7162 64.8822C86.4937 64.5412 86.3832 64.1385 86.4004 63.7309C86.3921 63.3871 86.4691 63.0467 86.6246 62.7406C86.78 62.4345 87.009 62.1723 87.2906 61.978C87.885 61.5453 88.6799 61.3285 89.6753 61.3275C90.186 61.3248 90.6957 61.373 91.197 61.4714C91.6386 61.5538 92.0591 61.7257 92.4329 61.9765L91.9914 63.4157C91.6851 63.2039 91.3476 63.0422 90.9912 62.9365C90.5566 62.8231 90.1084 62.7712 89.6596 62.7825C89.2592 62.7747 88.8607 62.8381 88.4822 62.9696C88.1436 63.0962 87.975 63.3236 87.975 63.6546C87.9764 63.8634 88.059 64.0633 88.205 64.2115C88.3861 64.3993 88.5924 64.5606 88.818 64.6908C89.0954 64.8577 89.3816 65.0095 89.6753 65.1455C89.9944 65.2942 90.3201 65.454 90.6526 65.6248C91.244 65.9139 91.7865 66.2952 92.26 66.7545C92.4548 66.9329 92.6113 67.1495 92.7199 67.391C92.8285 67.6326 92.8869 67.894 92.8915 68.1591C92.8915 69.1636 92.5853 69.8798 91.9728 70.3077C91.3603 70.7356 90.5435 70.9496 89.5224 70.9496Z" fill="white" stroke="white" stroke-width="0.75"/>
<path fill-rule="evenodd" clip-rule="evenodd" d="M79.1821 61.3894H84.8302V62.7926H80.7524V65.3111H83.2985V66.7142H80.7524V69.4716H84.8302V70.8762H79.1821V61.3894Z" fill="white" stroke="white" stroke-width="0.75" stroke-miterlimit="10"/>
<path d="M79.1821 61.3894H84.8302V62.7926H80.7524V65.3111H83.2985V66.7142H80.7524V69.4716H84.8302V70.8762H79.1821V61.3894Z" fill="white" stroke="white" stroke-width="0.75"/>
<path fill-rule="evenodd" clip-rule="evenodd" d="M13.2337 69.4716H15.4355C15.8188 69.4858 16.1929 69.3508 16.48 69.0945C16.6184 68.9639 16.727 68.8044 16.7981 68.6272C16.8691 68.45 16.901 68.2593 16.8915 68.0684C16.9035 67.8808 16.8735 67.6929 16.8038 67.5185C16.7341 67.3442 16.6263 67.1878 16.4885 67.061C16.2051 66.8217 15.8437 66.6966 15.4741 66.7099H13.2337V69.4716ZM15.1097 65.311C15.2682 65.311 15.4247 65.2765 15.5687 65.2099C15.7127 65.1433 15.8408 65.0463 15.9442 64.9253C16.1737 64.6833 16.3004 64.3606 16.2971 64.0259C16.302 63.863 16.274 63.7008 16.2148 63.5492C16.1556 63.3975 16.0665 63.2596 15.9527 63.1437C15.8437 63.03 15.7126 62.9401 15.5675 62.8797C15.4225 62.8193 15.2667 62.7896 15.1097 62.7925H13.2337V65.311H15.1097ZM16.1571 61.552C16.4811 61.654 16.7817 61.8198 17.0415 62.0399C17.2984 62.2577 17.5051 62.5293 17.6473 62.8357C17.8001 63.1774 17.8752 63.5491 17.8673 63.9237C17.878 64.2947 17.7876 64.6615 17.6059 64.9843C17.4257 65.2856 17.1818 65.5431 16.8915 65.7384C17.1185 65.7759 17.3377 65.8513 17.5401 65.9615C17.7522 66.0771 17.9416 66.2307 18.0988 66.4148C18.4685 66.8568 18.6638 67.4203 18.6475 67.9979C18.6475 68.8882 18.3431 69.5905 17.7345 70.1048C16.4371 71.2029 13.3051 70.9122 11.6577 70.8747V61.3894C12.7908 61.2915 15.1626 61.2267 16.1585 61.552H16.1571Z" fill="white" stroke="white" stroke-width="0.75" stroke-miterlimit="10"/>
<path d="M13.2337 69.4716H15.4355C15.8188 69.4858 16.1929 69.3508 16.48 69.0945C16.6184 68.9639 16.727 68.8044 16.7981 68.6272C16.8691 68.45 16.901 68.2593 16.8915 68.0684C16.9035 67.8808 16.8735 67.6929 16.8038 67.5185C16.7341 67.3442 16.6263 67.1878 16.4885 67.061C16.2051 66.8217 15.8437 66.6966 15.4741 66.7099H13.2337V69.4716ZM15.1097 65.311C15.2682 65.311 15.4247 65.2765 15.5687 65.2099C15.7127 65.1433 15.8408 65.0463 15.9442 64.9253C16.1737 64.6833 16.3004 64.3606 16.2971 64.0259C16.302 63.863 16.274 63.7008 16.2148 63.5492C16.1556 63.3975 16.0665 63.2596 15.9527 63.1437C15.8437 63.03 15.7126 62.9401 15.5675 62.8797C15.4225 62.8193 15.2667 62.7896 15.1097 62.7925H13.2337V65.311H15.1097ZM16.1571 61.552C16.4811 61.654 16.7817 61.8198 17.0415 62.0399C17.2984 62.2577 17.5051 62.5293 17.6473 62.8357C17.8001 63.1774 17.8752 63.5491 17.8673 63.9237C17.878 64.2947 17.7876 64.6615 17.6059 64.9843C17.4257 65.2856 17.1818 65.5431 16.8915 65.7384C17.1185 65.7759 17.3377 65.8513 17.5401 65.9615C17.7522 66.0771 17.9416 66.2307 18.0988 66.4148C18.4685 66.8568 18.6638 67.4203 18.6475 67.9979C18.6475 68.8882 18.3431 69.5905 17.7345 70.1048C16.4371 71.2029 13.3051 70.9122 11.6577 70.8747V61.3894C12.7908 61.2915 15.1626 61.2267 16.1585 61.552H16.1571Z" fill="white" stroke="white" stroke-width="0.75"/>
<path d="M9.80733 61.3894H8.23706V70.8762H9.80733V61.3894Z" fill="white" stroke="white" stroke-width="0.75" stroke-miterlimit="10"/>
<path d="M9.80733 61.3894H8.23706V70.8762H9.80733V61.3894Z" fill="white" stroke="white" stroke-width="0.75"/>
<path fill-rule="evenodd" clip-rule="evenodd" d="M1 61.3894H2.57027V69.4716H6.99245V70.8762H1V61.3894Z" fill="white" stroke="white" stroke-width="0.75" stroke-miterlimit="10"/>
<path d="M1 61.3894H2.57027V69.4716H6.99245V70.8762H1V61.3894Z" fill="white" stroke="white" stroke-width="0.75"/>
<path d="M30.3464 53.8196H28.0903V54.7996H30.3464V53.8196Z" fill="white"/>
<path d="M66.2842 53.8196H64.0281V54.7996H66.2842V53.8196Z" fill="white"/>
</svg>
