<?xml version="1.0" encoding="UTF-8"?>
<svg viewBox="0 0 30 30" version="1.1" xmlns="http://www.w3.org/2000/svg" xmlns:xlink="http://www.w3.org/1999/xlink">
    <!-- Generator: Sketch 51.3 (57544) - http://www.bohemiancoding.com/sketch -->
    <title>icon_nav_casino</title>
    <desc>Created with Sketch.</desc>
    <defs></defs>
    <g id="Screens" stroke="none" stroke-width="1" fill="none" fill-rule="evenodd">
        <g id="Group-3">
            <rect id="Rectangle-8" fill-rule="nonzero" x="0" y="0" width="30" height="30"></rect>
            <path d="M16.5115543,22.2437137 C15.3871395,22.2437137 14.4723992,21.3108955 14.4723992,20.1643501 C14.4723992,19.0177137 15.3871395,18.0848955 16.5115543,18.0848955 C17.6358798,18.0848955 18.5506202,19.0177137 18.5506202,20.1643501 C18.5506202,21.3108955 17.6358798,22.2437137 16.5115543,22.2437137 M8.71357364,19.9096228 C7.58924806,19.9096228 6.6744186,18.9767137 6.6744186,17.8301682 C6.6744186,16.6835319 7.58924806,15.7507137 8.71357364,15.7507137 C9.83798837,15.7507137 10.7527287,16.6835319 10.7527287,17.8301682 C10.7527287,18.9767137 9.83798837,19.9096228 8.71357364,19.9096228 M13.2525969,11.9605319 C14.3281589,10.7206228 15.5185426,9.72644097 16.8131395,8.9847137 C16.2294031,10.5572592 15.7309806,12.6835319 15.6537791,15.4385319 C14.7468837,15.6086228 13.9312752,16.0429864 13.2860271,16.6609864 C13.0356124,15.6393501 12.4647132,14.7473501 11.6884186,14.1023501 C12.0465233,13.5141682 12.5645581,12.7538955 13.2525969,11.9605319 M20.2297984,5.06407734 C20.0048798,4.99253188 19.7601705,4.97862279 19.519562,5.03389552 C13.6053527,6.39307734 10.3897209,10.9402592 9.18560853,13.0475319 C9.0304031,13.0317137 8.87287984,13.023441 8.71357364,13.023441 C6.11038372,13.023441 4,15.1755319 4,17.8301682 C4,20.4848046 6.11038372,22.6368046 8.71357364,22.6368046 C9.96181395,22.6368046 11.0958566,22.1411682 11.9391008,21.333441 C12.4512519,23.4230773 14.3038217,24.9709864 16.5115543,24.9709864 C19.1147442,24.9709864 21.2250388,22.8189864 21.2250388,20.1643501 C21.2250388,18.1640773 20.0267209,16.4497137 18.322314,15.7257137 C18.401031,11.647441 19.5103798,9.22098643 20.2031434,8.09553188 C20.6762481,10.3798046 22.2162674,13.1791682 26.8560271,13.6365319 C26.8560271,13.6365319 28.0436473,6.96489552 20.2297984,5.06407734" id="Fill-1" fill="#FFFFFF"></path>
        </g>
    </g>
</svg>