<?xml version="1.0" encoding="UTF-8"?>
<svg xmlns="http://www.w3.org/2000/svg" width="120" height="29" viewBox="0 0 120 29" fill="none">
  <path fill-rule="evenodd" clip-rule="evenodd" d="M23.8967 11.7223L37.7826 0H26.6738C24.155 0 22.7987 1.30248 22.7987 1.30248L9.42949 12.634V0H0V28.7196H9.42949V24.0307L16.5985 17.9742L24.2196 27.1566C24.2196 27.1566 25.3821 28.7847 28.0301 28.7847H38.1055L23.8967 11.7223ZM105.791 0H94.8116C86.9322 0 80.6028 6.44726 80.6028 14.3272C80.6028 22.2072 86.9967 28.6545 94.8116 28.6545H105.791C113.671 28.6545 120 22.2072 120 14.3272C120 6.44726 113.606 0 105.791 0ZM105.791 19.2115H94.747C92.099 19.2115 89.9031 16.9973 89.9031 14.3272C89.9031 11.6572 92.099 9.44295 94.747 9.44295H105.791C108.439 9.44295 110.635 11.6572 110.635 14.3272C110.635 17.0624 108.439 19.2115 105.791 19.2115ZM40.4306 9.50807V0H78.5361V9.50807H64.1981V28.7196H54.7686V9.50807H40.4306Z" fill="#DA0000"></path>
</svg>
