<?xml version="1.0" encoding="UTF-8"?>
<svg xmlns="http://www.w3.org/2000/svg" width="28" height="18" viewBox="0 0 28 18" fill="none">
  <path fill-rule="evenodd" clip-rule="evenodd" d="M24.94 2.15991H27C27.55 2.15991 28 2.60991 28 3.15991V16.8399C28 17.3899 27.55 17.8399 27 17.8399H2.98C2.43 17.8399 1.98 17.3899 1.98 16.8399V14.9599C1.92 14.9899 1.86 14.9999 1.8 14.9999H0.5C0.22 14.9999 0 14.7799 0 14.4999V0.659912C0 0.529912 0.0599996 0.399912 0.15 0.309912C0.24 0.209912 0.37 0.159912 0.5 0.159912L24.47 0.209911C24.75 0.209911 24.97 0.429911 24.97 0.709911V2.02991C24.97 2.07991 24.94 2.15991 24.94 2.15991ZM1.98 14.0399V3.15991H1.99C1.99 2.60991 2.44 2.15991 2.99 2.15991H24C23.98 2.11991 23.97 2.02991 23.97 2.02991V1.20991L1 1.15991V13.9999H1.8C1.86 13.9999 1.92 14.0199 1.98 14.0399ZM2.98 16.8399H27V3.15991H2.98V16.8399ZM19.5702 9.99994C19.5702 12.6499 17.4102 14.8099 14.7602 14.8099C12.1102 14.8099 9.9502 12.6499 9.9502 9.99994C9.9502 7.34994 12.1102 5.18994 14.7602 5.18994C17.4102 5.18994 19.5702 7.34994 19.5702 9.99994ZM18.5702 9.98994C18.5702 7.88994 16.8602 6.17994 14.7602 6.17994C12.6602 6.17994 10.9502 7.88994 10.9502 9.98994C10.9502 12.0899 12.6602 13.7999 14.7602 13.7999C16.8602 13.7999 18.5702 12.0899 18.5702 9.98994ZM22.2202 5.48999H24.7402V7.99999C24.7402 8.27999 24.9602 8.49999 25.2302 8.49999C25.5102 8.49999 25.7302 8.27999 25.7302 7.99999V4.98999C25.7302 4.85999 25.6802 4.72999 25.5902 4.63999C25.5002 4.54999 25.3702 4.48999 25.2402 4.48999H22.2202C21.9402 4.48999 21.7202 4.70999 21.7202 4.98999C21.7202 5.26999 21.9402 5.48999 22.2202 5.48999ZM25.2402 15.76H22.2202C21.9402 15.76 21.7202 15.54 21.7202 15.26C21.7202 14.98 21.9402 14.76 22.2202 14.76H24.7302V12.25C24.7302 11.97 24.9502 11.75 25.2302 11.75C25.5102 11.75 25.7402 11.97 25.7402 12.25V15.26C25.7402 15.39 25.6802 15.52 25.5902 15.61C25.5002 15.71 25.3702 15.76 25.2402 15.76ZM4.69018 8.51C4.97018 8.51 5.19018 8.29 5.19018 8.01V5.5H7.70018C7.98018 5.5 8.20018 5.28 8.20018 5C8.20018 4.72 7.98018 4.5 7.70018 4.5H4.68018C4.55018 4.5 4.42018 4.55 4.33018 4.65C4.24018 4.74 4.18018 4.87 4.18018 5V8.01C4.18018 8.29 4.41018 8.51 4.68018 8.51H4.69018ZM7.70994 15.76H4.68994H4.67994C4.54994 15.76 4.41994 15.7 4.32994 15.61C4.23994 15.52 4.18994 15.39 4.18994 15.26V12.25C4.18994 11.97 4.40994 11.75 4.68994 11.75C4.96994 11.75 5.18994 11.97 5.18994 12.25V14.76H7.70994C7.98994 14.76 8.20994 14.98 8.20994 15.26C8.20994 15.54 7.98994 15.76 7.70994 15.76Z" fill="white"></path>
</svg>
