<?xml version="1.0" encoding="UTF-8"?>
<svg xmlns="http://www.w3.org/2000/svg" width="26" height="26" viewBox="0 0 26 26" fill="none">
  <path fill-rule="evenodd" clip-rule="evenodd" d="M0 13C0 5.83 5.83 0 13 0C20.17 0 26 5.83 26 13C26 20.17 20.17 26 13 26C5.83 26 0 20.17 0 13ZM1 13C1 19.62 6.38 25 13 25C19.62 25 25 19.62 25 13C25 6.38 19.62 1 13 1C6.38 1 1 6.38 1 13ZM7.13989 12.9999C7.13989 9.76989 9.76989 7.13989 12.9999 7.13989C16.2299 7.13989 18.8599 9.76989 18.8599 12.9999C18.8599 16.2299 16.2299 18.8599 12.9999 18.8599C9.76989 18.8599 7.13989 16.2299 7.13989 12.9999ZM8.13989 12.9899C8.13989 15.6699 10.3199 17.8499 12.9999 17.8499C15.6799 17.8499 17.8599 15.6699 17.8599 12.9899C17.8599 10.3099 15.6799 8.12989 12.9999 8.12989C10.3199 8.12989 8.13989 10.3099 8.13989 12.9899ZM12.7399 5.02C13.0199 5.04 13.2499 4.83 13.2799 4.56C13.2999 4.28 13.0899 4.05 12.8199 4.03C5.98817 3.54062 4.34861 9.45043 4.26328 9.75801L4.25988 9.77C4.19988 10.04 4.35988 10.31 4.62988 10.37C4.64987 10.37 4.66987 10.3725 4.68986 10.375L4.68988 10.375L4.6899 10.375C4.7099 10.3775 4.72989 10.38 4.74988 10.38C4.97988 10.38 5.17988 10.23 5.23988 10C5.28988 9.78 6.61988 4.58 12.7499 5.02H12.7399ZM11.7499 11H14.7699C14.8499 11 14.8899 11.04 14.8899 11.11V11.62C14.8899 11.64 14.8799 11.69 14.8599 11.75L13.2699 15.76C13.2499 15.82 13.1999 15.85 13.1299 15.85H12.4699C12.3799 15.85 12.3499 15.81 12.3799 15.73L13.9699 11.74C13.9799 11.71 13.9399 11.69 13.9399 11.69H12.3799C12.3499 11.69 12.3399 11.73 12.3399 11.73V12.01C12.3399 12.08 12.2999 12.12 12.2199 12.12H11.7499C11.6699 12.12 11.6299 12.08 11.6299 12.01V11.11C11.6299 11.04 11.6699 11 11.7499 11Z" fill="white"></path>
</svg>
