<svg width="44" height="64" viewBox="0 0 44 64" fill="none" xmlns="http://www.w3.org/2000/svg">
<path fill-rule="evenodd" clip-rule="evenodd" d="M21.5937 52.5029L13.33 39.2371H0.623047L21.5937 52.5029ZM20.0133 50.9115L13.0524 39.7371H2.34872L20.0133 50.9115Z" fill="white"/>
<path fill-rule="evenodd" clip-rule="evenodd" d="M21.5938 52.5029L42.3742 39.2371H29.6672L21.5938 52.5029ZM23.1413 50.9218L40.6617 39.7371H29.9482L23.1413 50.9218Z" fill="white"/>
<path fill-rule="evenodd" clip-rule="evenodd" d="M21.5938 52.5029V39.2371H13.3301L21.5938 52.5029ZM21.0938 50.7546V39.7371H14.2306L21.0938 50.7546Z" fill="white"/>
<path fill-rule="evenodd" clip-rule="evenodd" d="M21.5938 52.5029L29.6672 39.2371H21.5938V52.5029ZM22.0938 39.7371V50.7196L28.7776 39.7371H22.0938Z" fill="white"/>
<path d="M42.3618 39.2371L25.7639 0H17.1289L0.62915 39.2371H13.3361L21.4955 16.3021L25.3067 26.9864H21.4955L19.3199 33.6318H27.6695L29.6671 39.2371H42.3618Z" fill="white"/>
<path d="M3.2375 63.9938C2.61651 63.9934 2.00048 63.8817 1.41783 63.6637C0.906322 63.4904 0.436763 63.2091 0.0400383 62.8385C0.0143428 62.8112 0 62.775 0 62.7372C0 62.6995 0.0143428 62.6633 0.0400383 62.636V62.636L0.960612 61.5586C1.00971 61.4932 1.06801 61.4901 1.14166 61.5586C1.74508 62.0944 2.51283 62.4014 3.31421 62.4274C3.66608 62.4474 4.01486 62.3512 4.30843 62.1534C4.42202 62.0706 4.51406 61.961 4.57661 61.834C4.63915 61.7071 4.67033 61.5666 4.66746 61.4247C4.67347 61.3051 4.65061 61.1859 4.60087 61.0774C4.55114 60.9688 4.47603 60.8742 4.38208 60.8019C4.08007 60.6187 3.73908 60.5119 3.38786 60.4905L2.94905 60.4126C1.19587 60.1469 0.320302 59.2988 0.322348 57.8684C0.310296 57.5161 0.375951 57.1655 0.514516 56.8423C0.653081 56.519 0.861056 56.2312 1.12325 56C1.72892 55.504 2.49415 55.2533 3.27125 55.2962C4.28186 55.2585 5.27546 55.5679 6.09128 56.1744C6.1044 56.1807 6.11613 56.1896 6.12576 56.2006C6.13538 56.2116 6.14272 56.2245 6.1473 56.2385C6.15189 56.2524 6.15364 56.2672 6.15245 56.2819C6.15126 56.2966 6.14715 56.3108 6.14037 56.3239C6.13741 56.3381 6.13223 56.3518 6.12503 56.3643L5.38243 57.4916C5.36809 57.5184 5.34414 57.5385 5.31556 57.5477C5.28699 57.557 5.25598 57.5548 5.22901 57.5415H5.21059C4.64419 57.1399 3.97418 56.9158 3.28353 56.8968C2.983 56.8712 2.6837 56.9588 2.44274 57.1429C2.34916 57.2246 2.27491 57.3266 2.22551 57.4415C2.1761 57.5563 2.15281 57.6809 2.15736 57.8061C2.15625 57.9241 2.18364 58.0406 2.23714 58.1454C2.29063 58.2501 2.36859 58.34 2.46422 58.4072C2.7647 58.5966 3.10572 58.7098 3.45844 58.7372L3.89724 58.7995C5.64429 59.0445 6.51781 59.8936 6.51781 61.3468C6.52971 61.7113 6.45963 62.0738 6.31288 62.4067C6.16613 62.7396 5.94658 63.0342 5.67088 63.2682C5.10319 63.754 4.30229 63.9969 3.25898 63.9969L3.2375 63.9938Z" fill="white"/>
<path d="M7.72979 63.7322V55.5578C7.72537 55.5293 7.73225 55.5002 7.74893 55.4768C7.76561 55.4535 7.79072 55.4378 7.81878 55.4332H13.1827C13.2107 55.4287 13.2394 55.4357 13.2624 55.4526C13.2854 55.4696 13.3009 55.4951 13.3054 55.5235C13.3084 55.5347 13.3084 55.5466 13.3054 55.5578V56.8812C13.3098 56.9097 13.3029 56.9388 13.2863 56.9622C13.2696 56.9855 13.2445 57.0012 13.2164 57.0058H9.59855C9.58189 57.0031 9.56484 57.0071 9.55107 57.017C9.5373 57.0269 9.52791 57.0419 9.52491 57.0587V58.7528C9.52223 58.7697 9.52619 58.787 9.53595 58.801C9.5457 58.815 9.56047 58.8245 9.57707 58.8275H12.5689C12.597 58.823 12.6257 58.83 12.6487 58.847C12.6717 58.8639 12.6872 58.8894 12.6917 58.9178C12.6947 58.9291 12.6947 58.9409 12.6917 58.9521V60.2662C12.6961 60.2947 12.6892 60.3238 12.6725 60.3472C12.6559 60.3705 12.6307 60.3862 12.6027 60.3908H9.59855C9.58189 60.3881 9.56484 60.3921 9.55107 60.402C9.5373 60.4119 9.52791 60.4269 9.52491 60.4437V62.2032C9.52223 62.2201 9.52619 62.2374 9.53595 62.2513C9.5457 62.2653 9.56047 62.2749 9.57707 62.2779H13.1827C13.2107 62.2734 13.2394 62.2804 13.2624 62.2973C13.2854 62.3142 13.3009 62.3397 13.3054 62.3682C13.3084 62.3794 13.3084 62.3912 13.3054 62.4025V63.7259C13.3098 63.7544 13.3029 63.7835 13.2863 63.8069C13.2696 63.8302 13.2445 63.8459 13.2164 63.8505C13.2054 63.8535 13.1937 63.8535 13.1827 63.8505H7.85253C7.82446 63.855 7.79578 63.848 7.77278 63.8311C7.74977 63.8141 7.73431 63.7887 7.72979 63.7602C7.72679 63.749 7.72679 63.7371 7.72979 63.7259V63.7322Z" fill="white"/>
<path d="M21.161 63.8568H19.4119C19.3722 63.86 19.3327 63.8494 19.2998 63.8268C19.2669 63.8042 19.2426 63.7708 19.2308 63.7322L17.8131 60.6462H16.7023C16.6857 60.6435 16.6686 60.6475 16.6548 60.6574C16.6411 60.6673 16.6317 60.6823 16.6287 60.6992V63.7322C16.6331 63.7607 16.6262 63.7898 16.6095 63.8132C16.5928 63.8365 16.5677 63.8522 16.5397 63.8568H14.9563C14.9282 63.8613 14.8995 63.8543 14.8765 63.8374C14.8535 63.8205 14.8381 63.795 14.8335 63.7665C14.8305 63.7553 14.8305 63.7435 14.8335 63.7322V55.5579C14.8291 55.5294 14.836 55.5003 14.8527 55.4769C14.8694 55.4536 14.8945 55.4379 14.9225 55.4333H18.2642C19.0122 55.3983 19.7445 55.6583 20.3079 56.1589C20.5639 56.3979 20.7658 56.6903 20.8999 57.0161C21.0339 57.3419 21.0968 57.6932 21.0842 58.046C21.0968 58.5521 20.9612 59.0506 20.6945 59.4785C20.4328 59.8932 20.0543 60.2186 19.6083 60.4127L21.2438 63.7322C21.2514 63.7477 21.2553 63.7648 21.2553 63.7821C21.2553 63.7994 21.2514 63.8164 21.2438 63.8319C21.2329 63.8424 21.2197 63.8501 21.2053 63.8545C21.1909 63.8588 21.1757 63.8596 21.161 63.8568V63.8568ZM18.1722 59.0892C18.4699 59.1041 18.762 59.0027 18.9884 58.8058C19.1835 58.6018 19.2927 58.3287 19.2927 58.0444C19.2927 57.7601 19.1835 57.487 18.9884 57.283C18.762 57.0862 18.4699 56.9848 18.1722 56.9997H16.69C16.6734 56.9969 16.6563 57.001 16.6426 57.0109C16.6288 57.0208 16.6194 57.0358 16.6164 57.0526V59.0176C16.6137 59.0345 16.6177 59.0518 16.6274 59.0658C16.6372 59.0797 16.652 59.0893 16.6686 59.0923H18.1568L18.1722 59.0892Z" fill="white"/>
<path d="M22.5081 63.7322V55.5578C22.5037 55.5293 22.5106 55.5002 22.5272 55.4768C22.5439 55.4535 22.569 55.4378 22.5971 55.4332H24.1805C24.2086 55.4287 24.2372 55.4357 24.2602 55.4526C24.2832 55.4696 24.2987 55.4951 24.3032 55.5235C24.3062 55.5347 24.3062 55.5466 24.3032 55.5578V63.7322C24.3076 63.7607 24.3008 63.7898 24.2841 63.8131C24.2674 63.8364 24.2423 63.8521 24.2142 63.8567H22.6309C22.6028 63.8612 22.5741 63.8542 22.5511 63.8373C22.5281 63.8204 22.5126 63.7949 22.5081 63.7664C22.5051 63.7552 22.5051 63.7434 22.5081 63.7322Z" fill="white"/>
<path d="M26.0709 63.7322V55.5578C26.0665 55.5293 26.0733 55.5002 26.09 55.4768C26.1067 55.4535 26.1318 55.4378 26.1599 55.4332H31.5145C31.5426 55.4287 31.5713 55.4357 31.5943 55.4526C31.6173 55.4696 31.6328 55.4951 31.6373 55.5235C31.6403 55.5347 31.6403 55.5466 31.6373 55.5578V56.8812C31.6417 56.9097 31.6348 56.9388 31.6182 56.9622C31.6015 56.9855 31.5764 57.0012 31.5483 57.0058H27.9397C27.923 57.0031 27.9059 57.0071 27.8922 57.017C27.8784 57.0269 27.869 57.0419 27.866 57.0587V58.7528C27.8633 58.7697 27.8673 58.787 27.877 58.801C27.8868 58.815 27.9016 58.8245 27.9182 58.8275H30.9162C30.9442 58.823 30.9729 58.83 30.9959 58.847C31.0189 58.8639 31.0344 58.8894 31.0389 58.9178C31.0419 58.9291 31.0419 58.9409 31.0389 58.9521V60.2662C31.0433 60.2947 31.0365 60.3238 31.0198 60.3472C31.0031 60.3705 30.978 60.3862 30.9499 60.3908H27.9397C27.923 60.3881 27.9059 60.3921 27.8922 60.402C27.8784 60.4119 27.869 60.4269 27.866 60.4437V62.2032C27.8623 62.2197 27.865 62.237 27.8735 62.2515C27.8821 62.266 27.8959 62.2766 27.912 62.281H31.5115C31.5395 62.2765 31.5682 62.2835 31.5912 62.3004C31.6142 62.3174 31.6297 62.3429 31.6342 62.3713C31.6372 62.3825 31.6372 62.3944 31.6342 62.4056V63.729C31.6386 63.7575 31.6318 63.7866 31.6151 63.81C31.5984 63.8333 31.5733 63.849 31.5452 63.8536C31.5342 63.8567 31.5225 63.8567 31.5115 63.8536H26.2028C26.1748 63.8581 26.1461 63.8511 26.1231 63.8342C26.1001 63.8173 26.0846 63.7918 26.0801 63.7633C26.0771 63.7521 26.0771 63.7403 26.0801 63.729L26.0709 63.7322Z" fill="white"/>
<path d="M35.4761 63.7322L38.3452 55.5578C38.3525 55.5216 38.3722 55.4891 38.4009 55.4663C38.4295 55.4435 38.4653 55.4318 38.5017 55.4332H40.036C40.0725 55.4311 40.1086 55.4426 40.1374 55.4655C40.1662 55.4884 40.1858 55.5213 40.1925 55.5578L43.0002 63.7322C43.0248 63.8163 43.0002 63.8567 42.9174 63.8567H41.3309C41.2944 63.8589 41.2583 63.8474 41.2295 63.8245C41.2007 63.8015 41.1811 63.7687 41.1744 63.7322L40.6988 62.2592H37.7959L37.3326 63.7322C37.3253 63.7684 37.3056 63.8009 37.2769 63.8237C37.2482 63.8465 37.2125 63.8582 37.1761 63.8567H35.5773C35.4945 63.8567 35.4669 63.8163 35.4914 63.7322H35.4761ZM38.2838 60.7116H40.214L39.2658 57.7657H39.2289L38.2838 60.7116Z" fill="white"/>
</svg>
