<svg width="70" height="81" viewBox="0 0 70 81" fill="none" xmlns="http://www.w3.org/2000/svg">
<path d="M5.84241 78.7537H7.9944C8.44134 78.7537 8.61588 78.4341 8.61588 78.082C8.61588 77.6338 8.36164 77.3941 7.85114 77.3941H5.84241V78.7537ZM5.84241 76.4037H7.88342C8.21737 76.4037 8.4252 76.2115 8.4252 75.7805C8.4252 75.4285 8.28194 75.1735 7.67559 75.1735H5.84241V76.4037ZM4.37646 74.1335H8.41208C9.20912 74.1335 9.92544 74.517 9.92544 75.5721C9.92544 76.0041 9.72366 76.5473 9.21921 76.7072V76.7234C9.84069 76.8346 10.1756 77.4902 10.1756 78.1134C10.1756 78.865 9.8407 79.8402 8.21434 79.8402H4.37949L4.37646 74.1335Z" fill="white"/>
<path d="M12.4296 76.6595H14.3576C14.6926 76.6595 15.0638 76.4673 15.0638 75.924C15.0638 75.3646 14.6492 75.2209 14.2819 75.2209H12.4336L12.4296 76.6595ZM10.9626 74.1304H14.8681C16.3663 74.1304 16.6055 75.0894 16.6055 75.6812C16.6055 76.3681 16.3502 76.8163 15.7449 77.0561V77.0712C16.3825 77.1724 16.4783 78.0313 16.4783 78.5887C16.4783 78.876 16.4945 79.5477 16.7487 79.835H15.1547C15.0275 79.5629 15.0114 79.3393 15.0114 78.7324C15.0114 77.9331 14.6926 77.7409 14.2466 77.7409H12.4306V79.835H10.9637L10.9626 74.1304Z" fill="white"/>
<path d="M20.4948 75.3647L19.6504 77.6187H21.3403L20.4948 75.3647ZM21.7388 78.6576H19.268L18.8211 79.8402H17.2593L19.6181 74.1335H21.3716L23.7475 79.8402H22.1686L21.7388 78.6576Z" fill="white"/>
<path d="M27.9718 75.7805C27.8921 75.045 27.2222 74.9651 26.632 74.9651C26.0418 74.9651 25.6231 75.2524 25.6231 75.6358C25.6231 75.9393 25.8622 76.1002 26.2446 76.1639L28.0778 76.4836C29.0504 76.6434 29.8 77.043 29.8 78.082C29.8 79.1372 29.1301 80.0041 27.0104 80.0041C25.6988 80.0041 23.9968 79.8281 23.9836 78.0385H25.6251C25.6413 78.8215 26.3747 78.9652 27.0124 78.9652C27.6974 78.9652 28.1595 78.7416 28.1595 78.2459C28.1595 77.8139 27.8245 77.6864 27.2515 77.5903L25.9117 77.388C24.9875 77.2282 24.0785 76.9398 24.0785 75.7694C24.0785 74.4906 25.0511 73.9788 26.741 73.9788C27.8568 73.9788 29.4983 74.171 29.5942 75.7856L27.9718 75.7805Z" fill="white"/>
<path d="M32.1315 74.1172H30.6494V79.8401H32.1315V74.1172Z" fill="white"/>
<path d="M33.3433 74.1335H34.7941V78.7052H38.0781V79.8402H33.3433V74.1335Z" fill="white"/>
<path d="M38.9548 74.1335H43.9762V75.2201H40.4208V76.4037H43.8006V77.4426H40.4208V78.7527H44.0074V79.8402H38.9548V74.1335Z" fill="white"/>
<path d="M46.4782 74.1172H44.9961V79.8401H46.4782V74.1172Z" fill="white"/>
<path d="M49.1405 76.6595H51.0696C51.4045 76.6595 51.7758 76.4673 51.7758 75.924C51.7758 75.3646 51.3611 75.2209 51.011 75.2209H49.1456L49.1405 76.6595ZM47.6736 74.1304H51.5952C53.0783 74.1304 53.3325 75.0894 53.3325 75.6812C53.3325 76.3681 53.0621 76.8163 52.4558 77.0561V77.0712C53.0934 77.1724 53.1893 78.0313 53.1893 78.5887C53.1893 78.876 53.2216 79.5477 53.4758 79.835H51.8827C51.7385 79.5629 51.7385 79.3393 51.7385 78.7324C51.7385 77.9331 51.4045 77.7409 50.9576 77.7409H49.1415V79.835H47.6746L47.6736 74.1304Z" fill="white"/>
<path d="M57.0635 75.3645L56.218 77.6185H57.9079L57.0635 75.3645ZM55.2141 73.7135C55.3897 73.0742 55.7085 72.6108 56.2816 72.6108C56.6851 72.6108 57.4771 72.9629 57.9241 72.9629C58.1258 72.9629 58.2742 72.883 58.2903 72.6594H58.9108C58.8311 73.2664 58.5768 73.7459 57.9392 73.7459C57.5084 73.7459 56.5197 73.3463 56.2331 73.3463C56.0314 73.3463 55.9143 73.5223 55.8508 73.7135H55.2141ZM58.2903 78.6534H55.8356L55.3897 79.836H53.8118L56.1867 74.1293H57.9402L60.3152 79.836H58.7372L58.2903 78.6534Z" fill="white"/>
<path d="M63.3439 78.9125C64.6666 78.9125 65.1286 77.8735 65.1286 76.9792C65.1286 76.0849 64.6666 75.0571 63.3439 75.0571C62.0212 75.0571 61.5581 76.0961 61.5581 76.9792C61.5581 77.8624 62.0202 78.9125 63.3439 78.9125ZM63.3439 73.9736C66.2293 73.9736 66.6914 75.7946 66.6914 76.9792C66.6914 78.178 66.2293 80 63.3439 80C60.4584 80 59.9963 78.1791 59.9963 76.9792C59.9963 75.7956 60.4584 73.9736 63.3439 73.9736V73.9736Z" fill="white"/>
<path d="M44.8013 8.53319C45.0767 8.91964 45.0565 9.29091 44.8214 9.65612C44.5864 10.0213 44.2423 10.0689 43.8852 9.97175C43.1689 9.77853 42.4646 9.54281 41.717 9.31317L42.6432 6.37939C43.4241 6.63736 44.1818 6.83969 44.8991 7.13914C45.4853 7.38194 45.4278 8.0648 44.8013 8.53319ZM42.8571 8.29141C42.7764 8.54938 42.7128 8.75373 42.6402 8.98338L43.6491 9.31418C43.8822 9.39107 44.0678 9.34453 44.1535 9.09567C44.2393 8.8468 44.089 8.70112 43.8721 8.62424C43.5573 8.51296 43.2354 8.41382 42.8571 8.29141V8.29141ZM43.0508 7.79368C43.3709 7.90972 43.6982 8.00501 44.0305 8.07897C44.1475 8.0992 44.3755 7.9778 44.4038 7.87664C44.432 7.77547 44.316 7.57314 44.202 7.4912C44.0759 7.39003 43.8912 7.36879 43.7308 7.31719C43.179 7.13813 43.179 7.13915 43.0508 7.79368V7.79368Z" fill="white"/>
<path d="M25.4364 8.9683C25.8118 8.89243 26.1205 8.58994 26.4918 8.98246C26.6835 9.18479 27.3665 9.00573 27.5289 8.75787C27.5854 8.67391 27.6217 8.50193 27.5743 8.44123C27.5327 8.3875 27.4805 8.34296 27.421 8.3104C27.3614 8.27785 27.2958 8.25798 27.2283 8.25205C26.8499 8.26419 26.4746 8.33501 26.0963 8.35929C25.5484 8.39368 25.2205 8.16809 25.1237 7.7088C25.0751 7.52918 25.0885 7.33835 25.1618 7.16735C25.235 6.99634 25.3638 6.85523 25.5272 6.76696C26.0184 6.45558 26.5963 6.31087 27.1758 6.3542C27.537 6.38455 27.8225 6.5454 27.9557 6.97535C27.6106 7.04313 27.3271 7.33449 26.9468 7.00368C26.745 6.82058 26.18 6.95411 26.0156 7.18881C25.958 7.27075 25.9147 7.43869 25.9601 7.50141C25.9993 7.54968 26.0485 7.58892 26.1042 7.6165C26.1599 7.64408 26.2208 7.65934 26.2829 7.66125C26.635 7.64911 26.9892 7.59954 27.3372 7.56009C27.9022 7.5004 28.2573 7.67643 28.3996 8.08817C28.5661 8.57173 28.4157 9.04923 27.8951 9.25864C27.362 9.45947 26.8052 9.59005 26.2385 9.64712C25.843 9.69871 25.5676 9.4286 25.4364 8.9683Z" fill="white"/>
<path d="M32.203 5.40828C32.8144 5.40828 33.4551 5.41536 34.0947 5.40828C34.4781 5.40221 34.8575 5.42041 35.033 5.82406C35.2086 6.22771 35.1601 6.62225 34.8787 6.84279C35.0038 7.38807 35.1147 7.87063 35.2308 8.37443C35.0895 8.38758 34.9856 8.3896 34.8847 8.40882C34.5225 8.47761 34.3702 8.35925 34.3681 7.96167C34.3681 7.40628 34.2209 7.30309 33.668 7.33344C33.4359 7.34659 33.2039 7.36278 32.9486 7.37896V8.45637C32.7672 8.48588 32.5836 8.50077 32.3998 8.50088C32.3557 8.48975 32.3151 8.46744 32.2821 8.43608C32.2491 8.40473 32.2246 8.36538 32.2111 8.32182C32.199 7.39009 32.203 6.4614 32.203 5.40828ZM32.9254 6.01526C32.8124 6.81447 32.8124 6.81446 33.5207 6.77906C33.6377 6.774 33.7547 6.76894 33.8728 6.7659C34.1472 6.75882 34.3349 6.64451 34.3248 6.34608C34.3147 6.04764 34.0927 5.95861 33.8344 5.96367C33.5358 5.96873 33.2382 5.99503 32.9254 6.01324V6.01526Z" fill="white"/>
<path d="M31.2861 6.79615C31.4546 7.28073 31.4445 7.30197 31.0187 7.36773L30.1662 7.50632C29.5608 7.60749 29.5608 7.62367 29.7929 8.28225L31.6089 8.02024C31.6442 8.17907 31.6785 8.33588 31.727 8.55945L29.0725 8.97827C28.9131 7.96662 28.7608 6.99645 28.5994 5.96862L31.2144 5.55688C31.2508 5.72988 31.2841 5.88668 31.3295 6.0971L29.461 6.41678C29.4953 6.63631 29.5235 6.82144 29.5619 7.03894L31.2861 6.79615Z" fill="white"/>
<path d="M37.4697 5.49927L39.8557 5.80276C40.2976 5.85941 40.0161 6.14267 40.0484 6.3885L38.2213 6.16695C37.9711 6.7183 38.0024 6.78406 38.5522 6.86499C38.9638 6.92569 39.3775 6.97627 39.8365 7.03697C39.8224 7.20895 39.8103 7.35766 39.7932 7.56201C39.3109 7.50131 38.8468 7.46085 38.3898 7.3779C38.0952 7.32731 37.9671 7.39712 37.9257 7.71174C37.8843 8.02636 38.0266 8.08908 38.2899 8.10931C38.6541 8.13663 39.0153 8.21048 39.3785 8.2469C39.8436 8.2995 39.8658 8.33592 39.6812 8.85389L37.0833 8.50689C37.2114 7.50941 37.3375 6.53014 37.4697 5.49927Z" fill="white"/>
<path d="M36.4385 8.46243H35.7061C35.7515 7.45078 35.7958 6.45735 35.8412 5.42749L36.5838 5.46695C36.5354 6.47657 36.488 7.45078 36.4385 8.46243Z" fill="white"/>
<path d="M29.4851 5.55901C29.6657 4.90954 29.7353 4.86301 30.4335 4.91763C30.2438 5.3142 30.0309 5.6531 29.4851 5.55901Z" fill="white"/>
<path d="M34.5054 3.72479H34.5145C38.9369 3.71896 43.3151 4.60771 47.3871 6.33788C47.7906 6.51087 48.1942 6.69296 48.5978 6.88113C48.7222 6.42049 48.8513 5.96019 48.9852 5.50023C48.6391 5.33938 48.2921 5.18257 47.939 5.03285C43.694 3.23092 39.1302 2.30572 34.5205 2.31254H34.464C29.8689 2.3115 25.3205 3.23659 21.089 5.03285C20.8549 5.13199 20.6229 5.23316 20.3928 5.33634C20.529 5.75618 20.6683 6.21041 20.8105 6.70207C21.0849 6.57662 21.3604 6.45421 21.6388 6.33585C25.7091 4.6074 30.0851 3.71936 34.5054 3.72479V3.72479Z" fill="white"/>
<path d="M59.7301 13.3182C59.4093 12.9722 59.1722 12.7112 58.9038 12.4442C56.3729 9.90057 53.461 7.76928 50.2737 6.12744C50.1391 6.5928 50.0113 7.05849 49.8903 7.52453C52.8438 9.0803 55.545 11.076 57.902 13.4437C58.1845 13.7269 58.4599 14.0163 58.7313 14.3086L55.8963 20.3219C55.1924 19.4132 54.4326 18.5496 53.6212 17.7361C52.087 16.195 50.3741 14.8439 48.5192 13.7118C48.4297 14.2156 48.3446 14.7187 48.2639 15.2211C49.8395 16.2315 51.3009 17.4106 52.6224 18.7376C53.3625 19.4798 54.0598 20.2638 54.7108 21.0857L55.9901 23.0189L60.3789 14.1275L59.7301 13.3182Z" fill="white"/>
<path d="M34.5106 9.79473C30.2221 9.78648 25.9938 10.8059 22.1777 12.768C22.2595 13.2434 22.3402 13.7341 22.4168 14.2409C26.1967 12.2208 30.4201 11.1801 34.7032 11.2133C38.9862 11.2465 43.1931 12.3526 46.9413 14.4311C47.0254 13.9421 47.1135 13.4518 47.2056 12.9602C43.298 10.8742 38.9375 9.7869 34.5106 9.79473V9.79473Z" fill="white"/>
<path d="M15.3957 17.7362C14.5843 18.5497 13.8245 19.4133 13.1207 20.322L10.2816 14.3087C10.553 14.0164 10.8284 13.727 11.1109 13.4438C13.5698 10.9727 16.4033 8.90734 19.506 7.32432C19.3654 6.82862 19.2279 6.37001 19.0934 5.94849C15.7958 7.58618 12.7878 9.75414 10.1888 12.3664C9.92343 12.6324 9.69441 12.9197 9.38165 13.2597L8.62598 14.1479L12.825 23.0119L14.2375 21.191C16.1382 18.7352 18.4616 16.6401 21.0981 15.0047C21.0227 14.4834 20.9444 13.9796 20.863 13.4933C18.8676 14.6681 17.0303 16.0939 15.3957 17.7362V17.7362Z" fill="white"/>
<path d="M22.0808 49.5586L34.6205 18.1682L47.6475 51.8125L34.6376 13.8606L22.0808 49.5586Z" fill="white"/>
<path d="M47.6919 51.9259L49.8852 57.5911L48.7351 51.5273C48.2155 46.3203 45.6589 31.52 48.2669 15.2223C47.8324 14.9445 47.3905 14.6801 46.9412 14.4292C44.0982 31.1386 46.5871 46.4772 47.6919 51.9259Z" fill="white"/>
<path d="M20.3062 50.4286L18.9341 57.4362L21.7328 50.4326C24.1138 33.9246 23.6164 22.1217 22.4168 14.241C21.9699 14.4817 21.531 14.7377 21.0982 15.0048C22.2211 22.7742 22.6438 34.3383 20.3062 50.4286Z" fill="white"/>
<path d="M18.807 1.43553L50.2132 1.67327C49.7639 2.9439 49.354 4.21823 48.9833 5.49628C49.4182 5.69861 49.849 5.906 50.2737 6.12553C50.6551 4.7969 51.0785 3.47029 51.544 2.1457L52.2068 0.272133L16.3433 0L17.5852 2.14672C17.6084 2.18617 18.2824 3.39307 19.0986 5.94849C19.5233 5.73604 19.9531 5.52966 20.388 5.33442C19.5203 2.66873 18.807 1.43553 18.807 1.43553Z" fill="white"/>
<path d="M20.8045 6.7002C20.6622 6.20854 20.523 5.75431 20.3868 5.33447C19.952 5.52972 19.5222 5.73913 19.0974 5.94854C19.2319 6.37074 19.3695 6.82935 19.5101 7.32438C19.9358 7.10721 20.3673 6.89915 20.8045 6.7002Z" fill="white"/>
<path d="M47.2077 12.9573C47.1155 13.4489 47.0274 13.9392 46.9434 14.4282C47.392 14.6791 47.8339 14.9435 48.2691 15.2213C48.3498 14.7196 48.4349 14.2164 48.5243 13.712C48.0905 13.4496 47.6516 13.198 47.2077 12.9573Z" fill="white"/>
<path d="M20.863 13.4934C20.9444 13.9797 21.0228 14.4835 21.0981 15.0048C21.5309 14.7377 21.9698 14.4818 22.4168 14.241C22.3401 13.7352 22.2594 13.2435 22.1776 12.7681C21.7331 13.0001 21.2948 13.2419 20.863 13.4934Z" fill="white"/>
<path d="M48.5959 6.87724C49.0325 7.08361 49.4639 7.29876 49.8904 7.52267C50.0135 7.05731 50.1413 6.59162 50.2738 6.12559C49.849 5.90606 49.4182 5.69766 48.9834 5.49634C48.8495 5.95697 48.7204 6.41728 48.5959 6.87724Z" fill="white"/>
<path d="M34.6204 17.2171L48.7451 58.4053C49.1486 58.1308 49.5482 57.8442 49.9437 57.5454L34.6376 12.9136L18.9683 57.4584C19.359 57.7592 19.7569 58.0479 20.1618 58.3244L34.6204 17.2171Z" fill="white"/>
<path d="M66.2971 23.5614C64.9283 20.3161 63.0719 17.3001 60.7925 14.6184L59.375 12.9502L55.1507 21.7444L55.6551 22.5022C59.0326 27.4508 60.5788 33.4276 60.0261 39.3985C59.4734 45.3694 56.8566 50.9588 52.6284 55.1996C51.788 56.0426 50.8907 56.8264 49.9427 57.5456L50.425 58.9518C51.5613 58.1188 52.6319 57.1992 53.6272 56.2011C58.0885 51.726 60.8492 45.8277 61.4316 39.5271C62.014 33.2265 60.3814 26.92 56.8164 21.6989L59.72 15.538C63.8157 20.3622 66.4479 26.2616 67.3054 32.5385C68.1629 38.8153 67.2099 45.2072 64.559 50.9581C61.9081 56.709 57.6702 61.5785 52.3465 64.9906C47.0228 68.4027 40.8359 70.2147 34.5176 70.2124H34.5085C28.1895 70.2164 22.0015 68.4053 16.6767 64.9936C11.352 61.5818 7.11324 56.712 4.46202 50.9604C1.81081 45.2089 0.85808 38.8162 1.71653 32.5387C2.57498 26.2612 5.20868 20.3617 9.30606 15.538L12.2097 21.6989C8.64465 26.92 7.01207 33.2265 7.59446 39.5271C8.17684 45.8277 10.9375 51.726 15.3988 56.2011C16.3581 57.163 17.3873 58.052 18.478 58.8607L18.9714 57.4586C18.0648 56.7633 17.205 56.0086 16.3977 55.1996C12.1695 50.9588 9.55272 45.3694 9.00001 39.3985C8.4473 33.4276 9.99344 27.4508 13.3709 22.5022L13.832 21.8314L9.66221 12.9502L8.22856 14.6184C3.95865 19.6479 1.21418 25.7982 0.319604 32.3421C-0.574976 38.886 0.417737 45.55 3.18039 51.5461C5.94304 57.5422 10.3601 62.6199 15.9094 66.1787C21.4587 69.7375 27.9082 71.6287 34.4954 71.6287H34.5368C40.2288 71.6212 45.8307 70.2025 50.8437 67.499C55.8567 64.7955 60.1253 60.891 63.2694 56.1332C66.4135 51.3754 68.3356 45.9119 68.8645 40.2291C69.3935 34.5462 68.5129 28.8204 66.3011 23.5614H66.2971Z" fill="white"/>
<path d="M19.6767 59.7033L20.162 58.3245C19.7584 58.048 19.3606 57.7593 18.9685 57.4585L18.4751 58.8606C18.8692 59.1527 19.2698 59.4336 19.6767 59.7033Z" fill="white"/>
<path d="M49.2143 59.7872C49.6239 59.5174 50.0275 59.2389 50.425 58.9516L49.9427 57.5454C49.5506 57.8435 49.1511 58.1301 48.7441 58.4053L49.2143 59.7872Z" fill="white"/>
<path d="M24.9723 60.89C23.2813 60.211 21.6685 59.3508 20.1618 58.3245L19.6765 59.7033C21.6966 61.0394 23.888 62.0943 26.191 62.8394C25.7114 62.2387 25.3025 61.5846 24.9723 60.89V60.89Z" fill="white"/>
<path d="M41.3782 63.2624C44.1597 62.5343 46.8057 61.3609 49.2143 59.7874L48.7412 58.4055C46.8691 59.6651 44.8377 60.6684 42.7008 61.3889C42.3328 62.062 41.889 62.6906 41.3782 63.2624V63.2624Z" fill="white"/>
<path d="M25.2195 56.6097C25.2182 55.2171 25.5477 53.8442 26.1808 52.6047C26.8138 51.3652 27.7322 50.2947 28.8599 49.4819C29.9876 48.6691 31.2922 48.1373 32.6657 47.9306C34.0391 47.7238 35.4419 47.8481 36.7579 48.2931C38.0739 48.7381 39.2652 49.491 40.2333 50.4896C41.2014 51.4881 41.9184 52.7034 42.3249 54.035C42.7314 55.3667 42.8157 56.7762 42.5709 58.147C42.3261 59.5178 41.7592 60.8104 40.917 61.9178C41.5224 61.7626 42.117 61.5863 42.7008 61.3887C43.5172 59.8893 43.9362 58.2049 43.9177 56.4967C43.8992 54.7885 43.4438 53.1137 42.595 51.6324C41.7463 50.1512 40.5327 48.9132 39.0703 48.0368C37.6078 47.1605 35.9456 46.6751 34.2426 46.6272C32.5396 46.5793 30.8528 46.9704 29.3437 47.7632C27.8346 48.556 26.5537 49.7238 25.6234 51.155C24.6932 52.5862 24.1449 54.2328 24.0309 55.9373C23.9169 57.6417 24.241 59.347 24.9723 60.8899C25.5474 61.1213 26.1312 61.3313 26.7238 61.5202C25.7414 60.0722 25.2172 58.3609 25.2195 56.6097V56.6097Z" fill="white"/>
<path d="M40.9172 61.9179C40.3754 62.6291 39.7291 63.2537 39.0002 63.7703C39.8013 63.6354 40.5926 63.4668 41.3742 63.2644C41.885 62.6926 42.3288 62.064 42.6969 61.3909C42.1124 61.5878 41.5191 61.7635 40.9172 61.9179Z" fill="white"/>
<path d="M26.7268 61.5201C26.1342 61.332 25.5504 61.1219 24.9753 60.8899C25.3056 61.5841 25.7146 62.2379 26.1941 62.8383C26.9636 63.0872 27.7458 63.301 28.5408 63.4797C27.8405 62.9226 27.2289 62.2618 26.7268 61.5201V61.5201Z" fill="white"/>
<path d="M30.4688 63.2938C30.5607 63.4036 30.662 63.5051 30.7715 63.5973C31.1617 63.7763 31.5668 63.9205 31.9822 64.0282C32.8176 64.1051 33.66 64.1466 34.5095 64.1476C34.797 64.1476 35.0836 64.1416 35.3691 64.1324C35.7634 64.0552 36.1512 63.948 36.5293 63.8117C36.6846 63.6952 36.828 63.5634 36.9571 63.4182V63.395C36.5678 63.2119 36.2069 62.9734 35.8857 62.6868C35.4283 62.7111 34.9696 62.7236 34.5095 62.7242C33.4956 62.7237 32.4827 62.6639 31.4757 62.5452C31.163 62.8193 30.7382 63.1663 30.4507 63.2867L30.4688 63.2938Z" fill="white"/>
<path d="M30.2378 63.1095C30.2664 63.1209 30.2981 63.1209 30.3266 63.1095C30.4275 63.0812 30.6919 62.9406 31.1953 62.5116C30.3249 62.3998 29.4608 62.2432 28.6064 62.0422C29.0867 62.4651 29.686 62.9244 30.2207 63.1095H30.2378Z" fill="white"/>
<path d="M37.2255 63.2168C37.7362 62.9842 38.2251 62.7062 38.6864 62.3862C37.8719 62.5211 37.048 62.6155 36.2146 62.6695C36.4781 62.8954 36.7702 63.0856 37.0833 63.235C37.1314 63.2392 37.1799 63.233 37.2255 63.2168V63.2168Z" fill="white"/>
<path d="M37.1367 63.5202L37.0833 63.5738C37.6193 63.3265 38.1267 63.0212 38.5966 62.6633C38.1826 62.9416 37.7474 63.1868 37.2951 63.3968C37.2323 63.423 37.1776 63.4656 37.1367 63.5202V63.5202Z" fill="white"/>
<path d="M37.0176 64.025C37.6855 63.9643 38.348 63.8793 39.0051 63.77C39.7339 63.2535 40.3803 62.6289 40.922 61.9177C40.5185 62.0229 40.1092 62.1177 39.6942 62.202C38.9332 62.9838 38.0229 63.6038 37.0176 64.025Z" fill="white"/>
<path d="M27.7974 61.8359C27.4375 61.7388 27.0797 61.6336 26.7239 61.5203C27.2265 62.2621 27.8389 62.9228 28.5399 63.4798C29.1352 63.6144 29.7365 63.7257 30.3428 63.8197C29.3702 63.3364 28.5045 62.6617 27.7974 61.8359V61.8359Z" fill="white"/>
<path d="M40.6306 52.0644C40.0404 51.1779 39.2816 50.4169 38.3976 49.8249C37.5136 49.2329 36.5219 48.8217 35.4791 48.6147C34.9629 48.5082 34.4373 48.4543 33.9103 48.4539C32.3646 48.4554 30.8518 48.9015 29.5515 49.7394C28.2512 50.5772 27.2179 51.7716 26.5743 53.1807C25.9307 54.5898 25.7039 56.1545 25.9207 57.689C26.1374 59.2235 26.7888 60.6635 27.7973 61.8379C28.0667 61.9108 28.3361 61.9806 28.6044 62.0403C28.3018 61.7702 28.0415 61.5162 27.8821 61.3554C27.8286 61.2664 27.758 61.1945 27.7045 61.1055C27.5255 60.5976 27.4116 60.069 27.3655 59.5324C27.3325 59.2999 27.3445 59.0633 27.4008 58.8354C27.57 58.8944 27.7429 58.9421 27.9184 58.978C28.6135 59.1035 29.5578 59.1803 29.8252 59.1925C29.8252 59.1925 29.8434 59.1925 29.8434 59.2289C30.0926 59.7823 30.7706 61.0873 31.6594 62.0888C31.6594 62.0888 31.6594 62.107 31.6422 62.107C31.4738 62.2638 31.3244 62.3964 31.1913 62.5117L31.4728 62.5471C31.6241 62.4146 31.7502 62.2982 31.8198 62.2335C31.8609 62.223 31.9039 62.223 31.9449 62.2335H31.9802C32.3984 62.3146 32.8213 62.3683 33.2464 62.3943C33.9544 62.431 34.6644 62.3951 35.3651 62.2871H35.4186C35.4357 62.2871 35.4539 62.2871 35.4539 62.3053H35.4721C35.6113 62.449 35.7475 62.5754 35.8756 62.6887L36.2035 62.6695C35.9795 62.4884 35.7828 62.3094 35.6637 62.1981C35.6494 62.1771 35.6429 62.1516 35.6456 62.1263C36.3735 61.2962 36.9845 60.37 37.4616 59.3736C37.4702 59.3574 37.483 59.3439 37.4986 59.3345C37.5142 59.325 37.5321 59.32 37.5504 59.3199C38.4075 59.3074 39.2613 59.2115 40.0999 59.0337C40.2004 59.8009 40.1085 60.5811 39.8325 61.3038C39.7962 61.3574 39.7427 61.4474 39.7256 61.4657C39.4146 61.8158 39.0607 62.1251 38.6723 62.3863C39.0086 62.3316 39.3429 62.2702 39.6751 62.2021C40.9653 60.8751 41.7626 59.1445 41.9339 57.2992C42.1052 55.4538 41.6402 53.6054 40.6165 52.0624L40.6306 52.0644ZM41.5386 55.5323C41.467 55.5678 41.3963 55.586 41.3065 55.6214H41.2894C41.2894 55.6214 41.2894 55.6396 41.2712 55.6042C41.1643 55.2106 40.7365 53.852 39.7922 52.7614C39.7527 52.6834 39.7284 52.5987 39.7205 52.5116C39.7806 52.1672 39.7685 51.8141 39.6852 51.4746C40.6884 52.6138 41.3336 54.0247 41.5396 55.5303L41.5386 55.5323ZM33.998 49.0973C33.9993 49.07 34.0084 49.0437 34.0241 49.0215C34.0399 48.9993 34.0616 48.982 34.0868 48.9718C34.3039 48.924 34.5246 48.8942 34.7466 48.8828C34.9787 48.9182 35.1926 48.9546 35.4065 48.99C36.925 49.2896 38.3173 50.0437 39.3997 51.1529C39.4681 51.3497 39.5158 51.5532 39.542 51.7599C39.5614 52.0037 39.5614 52.2486 39.542 52.4923C39.542 52.546 39.5248 52.5642 39.5067 52.5642C39.1074 52.4897 38.702 52.4538 38.296 52.4569C37.9322 52.4545 37.5687 52.4785 37.2084 52.5288H36.9239C36.8351 52.5106 36.7816 52.4751 36.7816 52.4569C36.2671 51.9782 35.7057 51.5528 35.1058 51.1873C34.7735 50.9856 34.428 50.8065 34.0717 50.6512C34.0354 50.634 34.0182 50.6157 34.0001 50.6157C33.9608 50.5893 33.93 50.5521 33.9113 50.5085C33.9274 50.4357 33.9819 49.2207 33.999 49.0952L33.998 49.0973ZM33.9092 50.8171C33.9227 50.8192 33.935 50.8256 33.9446 50.8353C35.2461 51.4251 36.3336 52.373 36.6363 52.6411C36.6726 52.6765 36.6726 52.7837 36.6726 52.8191C36.2973 54.0705 35.7455 55.4494 35.585 55.8409C35.5683 55.8645 35.5469 55.8846 35.5223 55.8999C35.4977 55.9151 35.4704 55.9254 35.4418 55.9299C34.3723 55.8763 32.6431 55.8763 32.1437 55.8763H31.9126C31.8604 55.8552 31.8165 55.8175 31.7875 55.7691C31.4264 54.799 31.1232 53.8082 30.8795 52.8019C30.8727 52.7124 30.8981 52.6234 30.9511 52.551C32.181 51.5141 33.2857 50.9961 33.6964 50.8312C33.7623 50.7967 33.8391 50.7894 33.9103 50.811L33.9092 50.8171ZM28.442 51.1539C29.6748 49.8899 31.3069 49.094 33.0598 48.902C33.2334 48.9009 33.4066 48.9189 33.5763 48.9556C33.6479 48.9728 33.7014 48.991 33.772 49.0093H33.7902L33.7186 50.5105V50.5287C33.7014 50.5459 33.7014 50.6178 33.6479 50.636C32.6 51.0953 31.6264 51.709 30.7595 52.4569C30.7323 52.4716 30.7014 52.4779 30.6707 52.4752C30.1392 52.3989 29.6034 52.357 29.0665 52.3497C28.7795 52.3509 28.4931 52.3749 28.2099 52.4215C28.2004 51.9876 28.2794 51.5562 28.442 51.1539V51.1539ZM26.3737 55.0508C26.6315 53.7478 27.2225 52.5343 28.0889 51.5293C28.0135 51.8451 27.9833 52.17 27.9991 52.4944C27.9991 52.5126 27.9819 52.5662 27.9638 52.5662C27.269 53.3951 26.7475 54.3557 26.4302 55.3907L26.3233 55.3371C26.3334 55.244 26.3515 55.155 26.3687 55.0478L26.3737 55.0508ZM26.285 55.5334C26.3195 55.5483 26.3553 55.5601 26.3919 55.5688C26.3919 56.1059 26.517 56.7666 26.748 57.5C26.9448 58.0898 27.1587 58.5541 27.2122 58.6796V58.7514C27.1052 59.4302 27.2303 60.0918 27.3544 60.5562C26.4264 59.0563 26.0466 57.2798 26.2799 55.5303L26.285 55.5334ZM29.69 58.9659H29.5831C29.039 58.9281 28.4974 58.8606 27.9607 58.7635C27.7469 58.7099 27.5511 58.6563 27.426 58.6209L27.3544 58.5491C26.6593 57.0316 26.5876 55.9754 26.5705 55.6891C26.5733 55.6048 26.5852 55.5211 26.6058 55.4393C26.6956 55.0811 27.1102 53.8834 28.0859 52.722C28.1384 52.6698 28.2078 52.6383 28.2816 52.633C28.3885 52.633 28.7275 52.5793 29.2441 52.5793C29.7039 52.5786 30.163 52.6145 30.6172 52.6866L30.6343 52.7038H30.6525C30.9109 53.7963 31.2384 54.8711 31.6332 55.9218C31.6332 55.9572 31.6332 55.9754 31.5797 56.0473C30.956 56.9642 30.3903 57.9194 29.8857 58.9072C29.8636 58.9436 29.8272 58.9628 29.685 58.9628L29.69 58.9659ZM37.3022 59.3048C36.7312 60.5926 35.7687 61.7186 35.4862 62.0362C35.4524 62.0576 35.4166 62.0755 35.3792 62.0898C34.8666 62.1765 34.3474 62.2185 33.8275 62.2153C33.212 62.214 32.5977 62.1602 31.9913 62.0544L31.9742 62.0362C31.9098 62.0174 31.8494 61.9873 31.7956 61.9472C30.7615 60.8202 30.1016 59.3007 30.031 59.1045C30.5294 57.9603 31.5636 56.4408 31.7774 56.1555C31.7877 56.1316 31.8055 56.1116 31.828 56.0987C31.8506 56.0857 31.8768 56.0805 31.9025 56.0837H32.1699C32.6693 56.0837 34.4157 56.0837 35.4862 56.1373H35.5215C35.5568 56.1373 35.575 56.1555 35.6103 56.1909C36.2348 57.1378 37.0722 58.7109 37.2861 59.1399C37.3063 59.1914 37.3102 59.2479 37.2972 59.3017L37.3022 59.3048ZM40.0827 58.8222C39.0133 59.0731 37.9792 59.0903 37.5877 59.1085C37.5406 59.0873 37.4981 59.0571 37.4626 59.0195C36.9501 58.0122 36.3846 57.0329 35.7687 56.0857C35.7569 56.0161 35.7698 55.9445 35.805 55.8834C35.805 55.8662 36.4638 54.3113 36.8916 52.8272C36.8916 52.7918 36.9995 52.7554 37.0702 52.7382C37.5083 52.689 37.9489 52.665 38.3898 52.6663C38.7484 52.6573 39.107 52.6871 39.4592 52.7554L39.4774 52.7018L39.4946 52.7554C39.548 52.7554 39.6197 52.8272 39.655 52.8626C40.563 53.9178 40.9928 55.2228 41.0997 55.5941C41.114 55.7068 41.1197 55.8204 41.1169 55.934C40.9393 57.3634 40.4399 58.3467 40.226 58.6867C40.1943 58.7474 40.1415 58.7946 40.0777 58.8192L40.0827 58.8222ZM41.4559 58.0716C41.2371 59.1617 40.7871 60.192 40.1362 61.0924C40.3335 60.4374 40.402 59.7502 40.338 59.0691C40.3286 59.0258 40.3285 58.9811 40.3377 58.9378C40.3469 58.8946 40.3652 58.8538 40.3915 58.8182C40.8928 57.9081 41.2019 56.9043 41.2995 55.8692C41.2995 55.851 41.3348 55.7802 41.3711 55.7802C41.4417 55.762 41.5134 55.7266 41.5668 55.7084C41.6529 56.4963 41.6137 57.2929 41.4508 58.0685L41.4559 58.0716Z" fill="white"/>
<path d="M37.2255 63.2167C37.1799 63.2329 37.1314 63.2391 37.0832 63.2349C36.7702 63.0855 36.4781 62.8953 36.2146 62.6694L35.8867 62.6886C36.2079 62.9752 36.5688 63.2137 36.9581 63.3968V63.414C36.829 63.5591 36.6857 63.6909 36.5304 63.8075C36.1523 63.9437 35.7644 64.0509 35.3701 64.1282C35.9217 64.1106 36.4705 64.0769 37.0166 64.027C38.0203 63.6059 38.9292 62.9867 39.6892 62.2061C39.3563 62.2735 39.022 62.3349 38.6864 62.3902C38.2249 62.7087 37.736 62.9854 37.2255 63.2167V63.2167ZM37.0832 63.5738L37.1367 63.5202C37.178 63.4649 37.2334 63.4219 37.2971 63.3958C37.7494 63.1858 38.1846 62.9406 38.5986 62.6623C38.1282 63.0206 37.62 63.3263 37.0832 63.5738V63.5738Z" fill="white"/>
<path d="M30.7726 63.5971C30.6631 63.505 30.5618 63.4034 30.4699 63.2936H30.4527C30.7403 63.1733 31.165 62.8263 31.4778 62.5521L31.1963 62.5167C30.6919 62.9456 30.4265 63.0863 30.3276 63.1146C30.2991 63.126 30.2674 63.126 30.2389 63.1146H30.2207C29.687 62.9294 29.0877 62.4702 28.6064 62.0473C28.3361 61.9836 28.0667 61.9138 27.7993 61.845C28.5059 62.6706 29.3708 63.3453 30.3428 63.8288C30.8869 63.9124 31.4344 63.9799 31.9853 64.0311C31.5691 63.9225 31.1633 63.7773 30.7726 63.5971V63.5971Z" fill="white"/>
</svg>
