<svg width="120" height="52" viewBox="0 0 120 52" fill="none" xmlns="http://www.w3.org/2000/svg">
<path d="M0 29.271H1.93788C2.98977 29.271 3.76488 29.3819 4.20777 29.5482C4.65087 29.77 5.03832 30.0471 5.3151 30.4906C5.59209 30.9341 5.70276 31.4331 5.70276 32.0429C5.70276 32.7081 5.53665 33.2625 5.20443 33.7059C4.87221 34.1494 4.37389 34.4821 3.76488 34.6484C3.43266 34.7592 2.76823 34.8147 1.82701 34.8147V38.8617H0V29.271ZM1.82701 33.0407H2.38077C2.82366 33.0407 3.15588 32.9853 3.32199 32.9298C3.4881 32.8744 3.65421 32.7635 3.76488 32.5972C3.87556 32.4309 3.93099 32.2646 3.93099 32.0429C3.93099 31.6548 3.76488 31.3776 3.4881 31.2113C3.32199 31.1004 2.93433 31.045 2.32533 31.045H1.82701V33.0407Z" fill="white"/>
<path d="M7.19775 29.271H9.13563C10.1875 29.271 10.9628 29.3819 11.4057 29.5482C11.8486 29.7145 12.2361 30.0471 12.5131 30.4906C12.7898 30.9341 12.9005 31.4331 12.9005 32.0429C12.9005 32.6527 12.7344 33.207 12.4576 33.6505C12.1808 34.094 11.6825 34.3712 11.0735 34.5929L13.3434 38.8617H11.3503L9.19107 34.8147H9.02496V38.8617H7.19775V29.271ZM9.02496 33.0407H9.57853C10.1875 33.0407 10.5752 32.9853 10.7967 32.819C11.0181 32.6527 11.1287 32.4309 11.1287 32.0429C11.1287 31.8211 11.0735 31.6548 10.9628 31.4885C10.852 31.3222 10.6859 31.2113 10.5197 31.1559C10.3536 31.1004 10.0214 31.045 9.52329 31.045H9.02496V33.0407Z" fill="white"/>
<path d="M18.1606 29.271H19.9876L23.6972 38.8617H21.8148L21.0397 36.866H17.1639L16.3888 38.8617H14.5063L18.1606 29.271ZM19.1018 31.8211L17.8283 35.1473H20.3752L19.1018 31.8211Z" fill="white"/>
<path d="M33.2744 30.8234L32.001 32.0984C31.1706 31.2114 30.2294 30.8234 29.1773 30.8234C28.2361 30.8234 27.461 31.156 26.7966 31.7658C26.1323 32.3756 25.8553 33.1517 25.8553 34.0387C25.8553 34.9811 26.1875 35.7572 26.852 36.4224C27.5164 37.0877 28.347 37.3651 29.2882 37.3651C29.8972 37.3651 30.4508 37.2542 30.8937 36.9768C31.3367 36.6996 31.6688 36.3116 31.9457 35.7018H29.1773V33.9832H33.9943V34.3713C33.9943 35.2028 33.7727 36.0344 33.3299 36.7551C32.887 37.5314 32.3332 38.0857 31.6135 38.4738C30.8937 38.8618 30.1185 39.0836 29.1773 39.0836C28.1809 39.0836 27.2949 38.8618 26.5198 38.4183C25.7447 37.9749 25.1357 37.3651 24.6928 36.5887C24.2497 35.8126 24.0283 34.9257 24.0283 33.9832C24.0283 32.7082 24.4712 31.5995 25.3018 30.6571C26.2982 29.5483 27.5717 28.994 29.1773 28.994C30.0079 28.994 30.783 29.1603 31.5029 29.4375C32.1119 29.7146 32.6654 30.2136 33.2744 30.8234Z" fill="white"/>
<path d="M36.4312 29.271H38.2029L40.4176 35.979L42.6877 29.271H44.4595L46.0649 38.8617H44.2934L43.2413 32.7635L41.1927 38.8617H39.5871L37.5385 32.7635L36.4866 38.8617H34.7148L36.4312 29.271Z" fill="white"/>
<path d="M50.937 29.271H52.7642L56.4736 38.8617H54.5912L53.8161 36.866H49.8851L49.11 38.8617H47.2275L50.937 29.271ZM51.823 31.8211L50.5495 35.1473H53.1517L51.823 31.8211Z" fill="white"/>
<path d="M56.252 29.271H61.5671V31.045H59.7953V38.8617H57.9683V31.045H56.252V29.271Z" fill="white"/>
<path d="M63.0073 29.271H64.8343V38.8617H63.0073V29.271Z" fill="white"/>
<path d="M75.5745 30.9342L74.301 32.1538C73.4153 31.2114 72.474 30.7679 71.3667 30.7679C70.4255 30.7679 69.6504 31.1006 69.0414 31.7104C68.4324 32.3202 68.1002 33.0963 68.1002 34.0387C68.1002 34.7039 68.2663 35.2583 68.543 35.7572C68.8198 36.2561 69.2075 36.6442 69.7056 36.9214C70.2039 37.1987 70.7577 37.3651 71.4221 37.3651C71.9757 37.3651 72.4186 37.2542 72.8615 37.0877C73.3046 36.8659 73.8029 36.5333 74.301 35.9789L75.5192 37.2542C74.7994 37.9749 74.1349 38.4183 73.5259 38.6955C72.9169 38.9727 72.1973 39.0836 71.3667 39.0836C69.8717 39.0836 68.6537 38.5847 67.7125 37.6422C66.7713 36.6996 66.2729 35.48 66.2729 33.9832C66.2729 33.0408 66.4945 32.1538 66.9374 31.4332C67.3803 30.7125 67.9893 30.1027 68.8198 29.6592C69.6504 29.2157 70.4809 28.994 71.4221 28.994C72.1973 28.994 72.9724 29.1603 73.692 29.4929C74.4119 29.8255 75.0209 30.3244 75.5745 30.9342Z" fill="white"/>
<path d="M81.7207 29.4371H83.6031C84.6552 29.4371 85.3749 29.548 85.8178 29.7143C86.2607 29.8806 86.6484 30.2132 86.8699 30.6567C87.1467 31.1002 87.2573 31.5991 87.2573 32.2089C87.2573 32.8743 87.0912 33.4287 86.759 33.8722C86.4268 34.3157 85.9287 34.5929 85.3749 34.7592C85.0427 34.87 84.3782 34.9255 83.4925 34.9255V38.9169H81.7207V29.4371ZM83.4925 33.1515H84.046C84.4891 33.1515 84.8213 33.0961 84.9873 33.0406C85.1534 32.9852 85.3195 32.8743 85.3749 32.708C85.4856 32.5417 85.541 32.3754 85.541 32.1535C85.541 31.7654 85.3749 31.5437 85.0981 31.3774C84.8766 31.2665 84.4891 31.211 83.9354 31.211H83.437V33.1515H83.4925Z" fill="white"/>
<path d="M88.4751 29.4371H90.2469V37.1429H92.8492V38.8615H88.4751V29.4371Z" fill="white"/>
<path d="M97.5551 29.4371H99.3821L102.981 38.8615H101.098L100.379 36.9212H96.5584L95.7833 38.8615H93.9009L97.5551 29.4371ZM98.4409 31.9317L97.1674 35.1472H99.6589L98.4409 31.9317Z" fill="white"/>
<path d="M101.653 29.4371H103.591L105.363 32.8189L107.135 29.4371H109.017L106.249 34.7592V38.8615H104.422V34.7592L101.653 29.4371Z" fill="white"/>
<path d="M119.093 32.8186L118.761 30.712L118.041 32.8186H117.488L116.768 30.712L116.38 32.8186H115.771L116.325 29.4924H116.934L117.709 31.8208L118.484 29.4924H119.093L119.647 32.8186H119.093ZM114.941 32.8186H114.276V30.1022H113.667V29.4924H115.494V30.1022H114.885V32.8186H114.941Z" fill="white"/>
<path d="M97.5003 20.2902C91.853 20.6228 94.3999 27.9961 100.601 27.608C106.691 27.1645 103.48 19.9022 97.5003 20.2902Z" fill="#F18F20"/>
<path d="M95.1194 15.7441C85.0982 15.7441 77.0146 23.8933 77.0146 33.872C77.0146 43.9062 85.1534 52.0001 95.1194 52.0001C105.141 52.0001 113.224 43.8507 113.224 33.872C113.224 23.8378 105.141 15.7441 95.1194 15.7441ZM95.1194 50.1152C86.1501 50.1152 78.8971 42.8529 78.8971 33.872C78.8971 24.8911 86.1501 17.629 95.1194 17.629C104.089 17.629 111.342 24.8911 111.342 33.872C111.342 42.8529 104.089 50.1152 95.1194 50.1152Z" fill="#F18F20"/>
<path d="M94.566 3.04906C90.2473 6.31986 91.0224 11.3092 91.0224 11.3092C91.0224 11.3092 88.3096 4.26868 84.8215 0C84.3232 5.54373 86.095 12.8614 86.095 12.8614C86.095 12.8614 83.8803 8.31565 78.5098 8.03846C82.9943 10.5885 84.7106 15.2452 85.0983 16.465C87.7004 14.8571 90.6904 13.9147 93.957 13.8038C93.5693 12.6951 92.2959 7.81666 94.566 3.04906Z" fill="#F18F20"/>
</svg>
