<?xml version="1.0" encoding="UTF-8"?><svg id="Layer_1" xmlns="http://www.w3.org/2000/svg" viewBox="0 0 309 208.37"><defs><style>.cls-1{fill:#fff;}</style></defs><path class="cls-1" d="M154.9,154.29c-9.62,.44-19.26,.62-28.85,1.4-14.73,1.2-26.74,7.83-37.32,18.16-10.17,10.03-20.94,19.42-32.25,28.14-16.32,12.42-49.3,6.73-54.81-23.51-.91-4.9-1.45-9.86-1.62-14.84-.55-19.55,3.53-38.44,8.95-57.06,7.27-25.14,15.16-50.09,29.3-72.44,3.52-5.66,7.51-11.02,11.94-16C66.87-.33,87-4.66,110,4.99c9.11,3.81,17.19,9.73,23.56,17.27,12.81,14.93,28.78,14.89,41.83,.21C191,4.99,210.24-3.21,233.55,1.76c14.68,3.13,24.45,13.77,32.76,25.53,11.85,16.7,19.69,35.42,26.16,54.78,8,24.06,15.52,48.28,16.43,73.85,.4,8.47-.37,16.96-2.28,25.23-5.85,23.61-31.27,34.57-52,21.87-10.95-6.65-20.88-14.86-29.48-24.36-15.44-17.32-34.14-24.67-56.72-23.97-4.5,.14-9,0-13.5,0l-.02-.4ZM80.72,87.29v14.92c.06,6.22,1.73,7.79,8.2,7.81,6.72,0,8.69-1.72,8.76-7.88,.06-4.78,0-9.55,0-14.86h12c9.09,0,10.73-1.28,10.76-8.39,0-7.3-1.58-8.62-10.53-8.62h-12.21c0-5.54,.06-10.34,0-15.14-.08-5.85-2.09-7.6-8.5-7.61-6.63,0-8.39,1.53-8.46,7.52v15.23c-5.54,0-10.34-.06-15.13,0-6.23,.09-7.79,1.92-7.75,8.83,0,6.27,1.79,8.11,7.93,8.17,4.76,.05,9.55,.01,14.93,.01h0Zm170.44-28.76c-.03-6.1-5-11.03-11.1-11-.04,0-.08,0-.12,0-6.12,.11-11.02,5.12-11,11.24,.18,6.11,5.17,10.97,11.28,11,6.09-.15,10.95-5.14,10.94-11.24Zm0,40.31c-.03-6.15-5.01-11.14-11.16-11.17-6.11,.15-11.01,5.1-11.1,11.21,.05,6.14,5.04,11.1,11.18,11.12,6.08,.04,11.03-4.85,11.07-10.93,0-.08,0-.15,0-.23h.01Zm-40.16-40.06c0-6.12-4.89-11.11-11-11.24-6.12-.09-11.15,4.8-11.24,10.92v.08c-.04,6.14,4.86,11.17,11,11.3,6.11-.07,11.07-4.95,11.24-11.06Zm-11.06,28.89c-6.14,.02-11.12,4.96-11.2,11.1-.07,6.12,4.83,11.14,10.95,11.21h.05c6.12,0,11.11-4.88,11.25-11-.07-6.12-4.94-11.1-11.05-11.31Z"/></svg>