<?xml version="1.0" encoding="utf-8"?>
<!-- Generator: Adobe Illustrator 26.3.1, SVG Export Plug-In . SVG Version: 6.00 Build 0)  -->
<svg version="1.1" id="Layer_1" xmlns="http://www.w3.org/2000/svg" xmlns:xlink="http://www.w3.org/1999/xlink" x="0px" y="0px"
	 viewBox="0 0 47.5 48.4" style="enable-background:new 0 0 47.5 48.4;" xml:space="preserve">
<style type="text/css">
	.st0{fill:none;stroke:#FFFFFF;stroke-miterlimit:10;}
</style>
<g>
	<path class="st0" d="M29.5,36.1c1.2-0.9,2.2-2.1,3.1-3.4c0.9-1.3,1.4-2.9,1.7-4.8c0.2-1.4,0.2-2.5-0.2-3.4s-0.8-1.5-1.5-2
		c-0.7-0.5-1.7-0.8-2.8-0.9c-1.2-0.1-2.5-0.1-3.9,0.1c-0.3,0-0.6,0.1-0.9,0.2c-0.4,0.1-0.7,0.2-1.1,0.3l-1.9,0.5l1.1-4.7l11.3-1.7
		l1.1-7.2l-17.2,2.7l-3.5,16.7c2.3-0.6,5.6-1.5,6-1.5c1-0.2,1.3-0.2,2-0.3c0.7,0,1.3,0.1,1.9,0.2c0.6,0.2,1.2,0.5,1.6,0.9
		c0.4,0.4,0.8,1,0.6,2.1c-0.2,1.1-0.7,2-1.6,2.6c-0.7,0.5-1.5,0.8-2.4,1c-1.5,0.2-2.5-0.3-3.1-0.8c-0.4-0.4-0.7-0.8-0.9-1.3
		l-7.3,2.1c0,1.2,0.3,2.4,0.7,3.1c0.5,0.8,1.2,1.4,2.1,2c0.9,0.5,2,0.8,3.2,1c1.2,0.2,2.5,0.1,3.9-0.1c1.3-0.2,2.7-0.6,4.1-1.1
		C27,37.8,28.3,37,29.5,36.1z"/>
</g>
</svg>
