<?xml version="1.0" encoding="utf-8"?>
<!-- Generator: Adobe Illustrator 16.0.0, SVG Export Plug-In . SVG Version: 6.00 Build 0)  -->
<!DOCTYPE svg PUBLIC "-//W3C//DTD SVG 1.1//EN" "http://www.w3.org/Graphics/SVG/1.1/DTD/svg11.dtd">
<svg version="1.1" id="Layer_1" xmlns="http://www.w3.org/2000/svg" xmlns:xlink="http://www.w3.org/1999/xlink" x="0px" y="0px"
	 width="100px" height="100px" viewBox="0 0 100 100" enable-background="new 0 0 100 100" xml:space="preserve">
<g>
	<g>
		<path fill="#FFFFFF" d="M38.668,98.038L1.961,61.331c-1.007-1.007-1.007-2.646,0-3.653L57.677,1.962
			c1.009-1.008,2.647-1.008,3.654,0l36.706,36.706c1.009,1.008,1.009,2.647,0,3.654L42.322,98.038
			C41.314,99.045,39.674,99.045,38.668,98.038z M4.52,59.503l35.975,35.976l54.983-54.981L59.504,4.521L4.52,59.503z"/>
	</g>
	<g>
		
			<rect x="22.798" y="48.447" transform="matrix(-0.7071 -0.7071 0.7071 -0.7071 49.9989 120.7063)" fill="#FFFFFF" width="54.4" height="3.101"/>
	</g>
	<g>
		<path fill="#FFFFFF" d="M41.851,58.146c-4.493-4.492-4.493-11.804,0-16.295c4.494-4.493,11.803-4.493,16.295,0
			c4.494,4.493,4.494,11.803,0.002,16.297C53.654,62.641,46.345,62.643,41.851,58.146z M55.954,44.044
			c-3.282-3.284-8.626-3.284-11.911,0s-3.285,8.627,0,11.912c3.284,3.283,8.628,3.283,11.911,0
			C59.238,52.671,59.238,47.329,55.954,44.044z"/>
	</g>
	<g>
		<path fill="#FFFFFF" d="M77.552,36.335L63.665,22.447c-1.009-1.008-1.009-2.647,0-3.655l6.578-6.578l2.192,2.193l-6.215,6.213
			L79.38,33.775l6.212-6.212l2.193,2.192l-6.578,6.579C80.199,37.342,78.561,37.342,77.552,36.335z"/>
	</g>
	<g>
		<path fill="#FFFFFF" d="M29.756,87.787l-2.193-2.194l6.212-6.212L20.62,66.225l-6.213,6.213l-2.193-2.193l6.579-6.577
			c1.007-1.008,2.647-1.008,3.654,0l13.888,13.888c1.008,1.008,1.007,2.646,0,3.653L29.756,87.787z"/>
	</g>
</g>
</svg>
