<?xml version="1.0" encoding="UTF-8"?>
<svg xmlns="http://www.w3.org/2000/svg" width="24" height="24" viewBox="0 0 24 24" fill="none">
  <path d="M12 5.8C15.42 5.8 18.2 8.58 18.2 12C18.2 15.42 15.42 18.2 12 18.2C8.58 18.2 5.8 15.42 5.8 12C5.8 8.58 8.58 5.8 12 5.8ZM12 4C7.58 4 4 7.58 4 12C4 16.42 7.58 20 12 20C16.42 20 20 16.42 20 12C20 7.58 16.42 4 12 4Z" fill="white"></path>
  <path d="M10.72 14.7C10.72 14.7 10.72 14.66 10.74 14.63L12.36 10.57C12.36 10.57 12.36 10.55 12.36 10.54C12.36 10.51 12.34 10.5 12.3 10.5H11.3C11.3 10.5 11.24 10.52 11.24 10.56V10.86C11.24 10.96 11.19 11.01 11.09 11.01H10.18C10.08 11.01 10.03 10.96 10.03 10.86V9.35996C10.03 9.25996 10.09 9.20996 10.19 9.20996H13.82C13.92 9.20996 13.97 9.25996 13.97 9.35996V10.4C13.97 10.46 13.96 10.52 13.94 10.58L12.31 14.68C12.28 14.76 12.23 14.8 12.13 14.8H10.85C10.76 14.8 10.71 14.77 10.71 14.7H10.72Z" fill="white"></path>
</svg>
