<?xml version="1.0" encoding="UTF-8"?>
<svg width="30px" height="30px" viewBox="0 0 30 30" version="1.1" xmlns="http://www.w3.org/2000/svg" xmlns:xlink="http://www.w3.org/1999/xlink">
    <title>icon_nav_livesports</title>
    <g id="Slicing" stroke="none" stroke-width="1" fill="none" fill-rule="evenodd">
        <path d="M24.9824384,9 C26.6489917,9 28,10.3443026 28,12.002584 C28,12.123919 27.9926086,12.2451425 27.9778663,12.3655875 L27.9778663,12.3655875 L27.2441116,18.3604195 C27.0596877,19.8671768 25.7741463,21 24.2486837,21 L24.2486837,21 L6.01756156,21 C4.35100833,21 3,19.6556974 3,17.997416 C3,17.876081 3.00739144,17.7548575 3.02213366,17.6344125 L3.02213366,17.6344125 L3.75588839,11.6395805 C3.94031229,10.1328232 5.22585373,9 6.75131629,9 L6.75131629,9 Z M24.9824384,10.6640827 L6.75131629,10.6640827 C6.07129081,10.6640827 5.49821812,11.1690761 5.41600505,11.8407631 L5.41600505,11.8407631 L4.68225032,17.8355952 C4.67567849,17.8892875 4.67238351,17.9433269 4.67238351,17.997416 C4.67238351,18.7366499 5.27464024,19.3359173 6.01756156,19.3359173 L6.01756156,19.3359173 L24.2486837,19.3359173 C24.9287092,19.3359173 25.5017819,18.8309239 25.5839949,18.1592369 L25.5839949,18.1592369 L26.3177497,12.1644048 C26.3243215,12.1107125 26.3276165,12.0566731 26.3276165,12.002584 C26.3276165,11.2633501 25.7253598,10.6640827 24.9824384,10.6640827 L24.9824384,10.6640827 Z M8.82758451,11.8992248 L8.87508989,11.9040482 C8.90352849,11.9104795 8.92550377,11.9233419 8.94101574,11.9426357 C8.96428368,11.9715762 8.97300916,12.012093 8.96719217,12.064186 L8.96719217,12.064186 L8.42621246,16.5094574 L8.42621246,16.5268217 L8.43202945,16.5557623 C8.43978543,16.5711972 8.4552974,16.5789147 8.47856534,16.5789147 L8.47856534,16.5789147 L11.0351307,16.5789147 L11.0826361,16.5837382 C11.1110747,16.5901694 11.13305,16.6030319 11.148562,16.6223256 C11.1718299,16.6512661 11.1805554,16.6917829 11.1747384,16.743876 L11.1747384,16.743876 L11.0438562,17.8117829 L11.0336765,17.8600172 C11.0239815,17.8896009 11.0084696,17.9140396 10.9871406,17.9333333 C10.9551472,17.9622739 10.912974,17.9767442 10.8606212,17.9767442 L10.8606212,17.9767442 L6.81199881,17.9767442 L6.76449343,17.9719208 C6.73605483,17.9654895 6.71407955,17.952627 6.69856758,17.9333333 C6.67529964,17.9043928 6.66657416,17.863876 6.67239115,17.8117829 L6.67239115,17.8117829 L7.37915496,12.064186 L7.39486082,12.0048 C7.42278236,11.9344165 7.47862542,11.8992248 7.56239002,11.8992248 L7.56239002,11.8992248 L8.82758451,11.8992248 Z M13.8954259,11.8992248 L13.9429313,11.9040482 C13.9713699,11.9104795 13.9933452,11.9233419 14.0088572,11.9426357 C14.0321251,11.9715762 14.0408506,12.012093 14.0350336,12.064186 L14.0350336,12.064186 L13.3282698,17.8117829 L13.3180901,17.8600172 C13.3083951,17.8896009 13.2928831,17.9140396 13.2715542,17.9333333 C13.2395607,17.9622739 13.1973876,17.9767442 13.1450347,17.9767442 L13.1450347,17.9767442 L11.8798402,17.9767442 L11.8323348,17.9719208 C11.8038962,17.9654895 11.781921,17.952627 11.766409,17.9333333 C11.7431411,17.9043928 11.7344156,17.863876 11.7402326,17.8117829 L11.7402326,17.8117829 L12.4469964,12.064186 L12.4627022,12.0048 C12.4906238,11.9344165 12.5464668,11.8992248 12.6302314,11.8992248 L12.6302314,11.8992248 L13.8954259,11.8992248 Z M16.3107217,11.8992248 L16.3620275,11.9051287 C16.4243856,11.9208724 16.462545,11.9681034 16.4765058,12.0468217 L16.4765058,12.0468217 L16.8517014,15.6065116 L16.8643048,15.6306288 C16.8733535,15.6434912 16.8836948,15.6499225 16.8953288,15.6499225 C16.9127797,15.6499225 16.9273222,15.6354522 16.9389562,15.6065116 L16.9389562,15.6065116 L18.1779742,12.0468217 L18.1996134,11.9936868 C18.23405,11.9307121 18.2908237,11.8992248 18.3699348,11.8992248 L18.3699348,11.8992248 L19.7136586,11.8992248 L19.7607761,11.903045 C19.8166192,11.913232 19.8445407,11.9437933 19.8445407,11.9947287 C19.8445407,12.0294574 19.8387238,12.0583979 19.8270898,12.0815504 L19.8270898,12.0815504 L17.4537594,17.8378295 L17.4334,17.8759345 C17.417888,17.8997301 17.3984981,17.9203101 17.3752301,17.9376744 C17.3403282,17.9637209 17.2996093,17.9767442 17.2530734,17.9767442 L17.2530734,17.9767442 L15.8831732,17.9767442 L15.8318674,17.9711876 C15.7695093,17.95637 15.7313498,17.9119173 15.7173891,17.8378295 L15.7173891,17.8378295 L14.7750373,12.0815504 L14.7750373,12.0468217 L14.7813197,11.9936868 C14.7980726,11.9307121 14.8483314,11.8992248 14.932096,11.8992248 L14.932096,11.8992248 L16.3107217,11.8992248 Z M24.7291471,11.8992248 L24.7722897,11.9040482 C24.7987893,11.9104795 24.8207646,11.9233419 24.8382156,11.9426357 C24.864392,11.9715762 24.8745718,12.012093 24.8687548,12.064186 L24.8687548,12.064186 L24.7378726,13.132093 L24.7221667,13.1914791 C24.6942452,13.2618625 24.6384021,13.2970543 24.5546375,13.2970543 L24.5546375,13.2970543 L22.0853269,13.2970543 L22.0494555,13.3047717 C22.0287729,13.3150617 22.0145536,13.3356417 22.0067976,13.3665116 L22.0067976,13.3665116 L21.9108173,14.1305426 L21.9176038,14.1691301 C21.9266524,14.18971 21.9447497,14.2 21.9718957,14.2 L21.9718957,14.2 L23.4814036,14.2 L23.5245462,14.2048234 C23.5510458,14.2112547 23.5730211,14.2241171 23.5904721,14.2434109 C23.6166485,14.2723514 23.6268282,14.3128682 23.6210112,14.3649612 L23.6210112,14.3649612 L23.4901291,15.424186 L23.4744232,15.4835721 C23.4465017,15.5539556 23.3906586,15.5891473 23.306894,15.5891473 L23.306894,15.5891473 L21.7973861,15.5891473 L21.7668469,15.5934884 C21.7406705,15.6021705 21.7275823,15.623876 21.7275823,15.6586047 L21.7275823,15.6586047 L21.6228765,16.5094574 L21.6228765,16.5268217 L21.6286935,16.5557623 C21.6364495,16.5711972 21.6519614,16.5789147 21.6752294,16.5789147 L21.6752294,16.5789147 L24.1532655,16.5789147 L24.1964081,16.5837382 C24.2229077,16.5901694 24.244883,16.6030319 24.262334,16.6223256 C24.2885104,16.6512661 24.2986901,16.6917829 24.2928731,16.743876 L24.2928731,16.743876 L24.1619909,17.8117829 L24.1513265,17.8600172 C24.1409852,17.8896009 24.1241805,17.9140396 24.1009126,17.9333333 C24.0660107,17.9622739 24.0252918,17.9767442 23.9787559,17.9767442 L23.9787559,17.9767442 L20.0086629,17.9767442 L19.9611575,17.9719208 C19.9327189,17.9654895 19.9107436,17.952627 19.8952316,17.9333333 C19.8719637,17.9043928 19.8632382,17.863876 19.8690552,17.8117829 L19.8690552,17.8117829 L20.575819,12.064186 L20.5915249,12.0048 C20.6194464,11.9344165 20.6752895,11.8992248 20.7590541,11.8992248 L20.7590541,11.8992248 L24.7291471,11.8992248 Z" id="Combined-Shape" fill="#FFFFFF" fill-rule="nonzero"></path>
    </g>
</svg>