<?xml version="1.0" encoding="UTF-8"?>
<svg xmlns="http://www.w3.org/2000/svg" xmlns:v="https://vecta.io/nano" width="113" height="62" fill="none">
  <g clip-path="url(#A)">
    <g fill="#fff">
      <path d="M57.954 56.05l.938.101.186 1.115c.334-.226.589-.359.783-.554.24-.242.419-.538.628-.803l.264.172.155-.842.838-.125.093-.85h.962v7.712h-1.923V59.2l-.884-.109-.163.967h-.799c-.163-.405.031-1.279-1.016-.834v2.753h-1.97v-7.728l.884-.039.147.905c.504.078 1.194-.016.869.936h.008zm11.557 5.934h-5.74v-7.72h5.755v1.91c-1.024 0-2.032-.031-3.04.023-.272.016-.52.312-.783.476.248.148.489.39.752.413.667.062 1.35.023 2.086.023v1.996H66.4c-.644-.031-.838.218-.605.904h3.715V62v-.016zm-36.718-7.727v1.918c-1.039 0-2.079-.008-3.118 0-.62.008-.62.031-.597.912h2.746v2.02c-.721 0-1.419.031-2.117-.008-.675-.039-.807.265-.605.912h3.661V62h-5.654v-7.743h5.693-.008zm22.222 7.727h-1.838l-.116-1.817h-1.815l-.101 1.809H49.33V55.27l.799-.187.14-.842H54.1l.078.873.845.093v6.768l-.008.008zm-1.947-5.708c-1.939-.296-2.18-.039-1.737 1.762h1.737v-1.762zm18.343-1.177l.093-.834h4.786v1.879h-3.614c-.31.717-.124.99.574.967h2.048l.14.936.869.117v2.76l-.869.218-.14.85h-4.716v-1.973h3.7c.178-.624.116-.951-.582-.92h-2.164l-.14-.912-.845-.101v-2.838l.869-.148h-.008zm20.306 5.856l-.853.156-.14.873h-3.746l-.163-.873-.799-.156v-5.747l.83-.14.085-.827h3.801l.109.834.876.109v5.763.008zm-3.707-4.733v3.72h1.776v-3.72H88.01zM6.771 55.216l.876-.093.093-.881h3.801l.101.85.877.148v5.419l-1.14 1.092.147.218H7.795l-.194-.873-.838-.14v-5.739h.008zm3.785 1.029h-1.73v3.72h1.73v-3.72zm36.865 4.889l-.163.858h-3.684l-.241-.889-.83-.148v-5.669l.884-.203.132-.834h3.769v1.895h-2.777v3.821h1.699c.45-.858-.24-.842-.783-.936v-1.856h2.87v3.735l-.884.226h.008zm31.816.858v-1.957h3.661c.098-.624-.207-.936-.915-.936h-1.722l-.171-.936-.845-.07v-2.885l.853-.125.124-.827h4.747v1.918c-1.001 0-2.009-.031-3.009.023-.256.016-.504.265-.752.413.256.164.504.444.776.476.636.07 1.295.023 2.001.023l.147.951.853.101v2.776l-.845.172-.147.889h-4.747l-.008-.008zm-53.215-4.873l-.838.101v1.762l.869.171v2.823h-1.939c0-.561-.054-1.139.015-1.708.109-.936-.202-1.349-1.163-1.17-.178.031-.364.023-.667.039v2.831h-1.931v-7.712h1.885v2.768h1.838v-2.776h1.939v2.862l-.008.008zm-12.441-1.864l.791-.148.155-.834h3.731l.171.811.869.187v1.833h-1.823l-.217-.866h-1.745v3.735h1.776l.14-.827h1.854v1.794l-.822.187-.217.881h-3.451L13.8 60.83l-.217.125V55.27v-.016zM1.947 59.068v2.901H.078V54.28h4.708l.101.85.861.093V58.1l-.861.07-.101.897H1.939h.008zm1.039-3.158c-.442.289-.962.452-1.008.702-.132.671.496.507.83.468.357-.047.683-.265 1.024-.413l-.845-.756zm89.786-1.661h5.755v1.918c-1.016 0-2.032-.031-3.041.023-.271.016-.527.304-.783.476.248.148.489.398.752.421.667.062 1.35.023 2.086.023v1.973h-2.8v2.893h-1.97v-7.712-.016zM35.741 62v-5.778l-1.885-.094v-1.879h5.716v1.871l-1.869.094v5.778h-1.955L35.74 62zm65.648-.039v-5.739l-1.854-.101v-1.864h5.701v1.856l-1.784.101v5.739h-2.063v.008zm-39.805-43.09H57.45v-4.172h4.134v4.172zM.023 14.675h4.134v4.18H.023v-4.18zm-.015 24.4H4.15v4.226H.008v-4.226zM0 43.948h4.165v4.226H0v-4.226zm61.6-10.41h-4.15v-4.211h4.15v4.211zm-57.443 0H0v-4.18h4.157v4.18zM0 38.388v-4.172h4.165v4.172H0zm61.615.039h-4.15v-4.203h4.15v4.203zm-4.141-13.958h4.142v4.117h-4.142v-4.117zm-53.309-.007v4.117H0v-4.117h4.165zm57.435-.71h-4.134v-4.148H61.6v4.148zM.031 19.604h4.142v4.117H.031v-4.117zm66.401-.726h-4.08v-4.18h4.08v4.18zm-62.29-4.912H.031V9.833h4.111v4.133zm43.659.717v4.195h-4.087v-4.195h4.087zm-8.943-.008h4.103v4.187h-4.103v-4.187zM4.91 14.668h4.08v4.18H4.91v-4.18zM9.734 0h4.142v4.156H9.734V0zm13.837 34.256v4.133h-4.134v-4.133h4.134zM18.724 4.211h-4.126V.016h4.126v4.195zM23.563.047v4.141h-4.126V.047h4.126zM28.45.031V4.18h-4.196V.031h4.196zm4.824.008v4.148h-4.142V.039h4.142zm4.871-.023v4.156h-4.188V.016h4.188zm38.013 4.187h-4.095V.023h4.095v4.18zm4.848.008H76.88V.016h4.126v4.195zm.675-.031V.031h4.188V4.18h-4.188zM90.717.047v4.141h-4.134V.047h4.134zm9.656 9.037h-4.142v-4.18h4.142v4.18zm-8.966-4.203h4.173v4.18h-4.173v-4.18zM9.726 9.069V4.905h4.173v4.164H9.726zm4.863 0V4.881h4.142v4.187h-4.142zm76.12 39.106h-4.134v-4.187h4.134v4.187zM86.551 9.069V4.913h4.126v4.156h-4.126zm-.69 39.106h-4.165v-4.187h4.165v4.187zm.024-28.556v4.117h-4.204v-4.117h4.204zm-9.044 28.517V43.98h4.173v4.156h-4.173zm-.66-4.164v4.18h-4.134v-4.18h4.134zm-8.997-.008h4.157v4.18h-4.157v-4.18zm18.7-39.083v4.195h-4.181V4.881h4.181zm-66.463-.015h4.119v4.219h-4.119V4.866zm80.967 38.443h-4.149v-4.18h4.149v4.18zm-4.824-.008h-4.165v-4.18h4.165v4.18zm-8.981-4.226h4.119v4.219h-4.119v-4.219zM80.982 9.084h-4.118v-4.18h4.118v4.18zm.714 34.201V39.09h4.157v4.195h-4.157zm4.188-14.667h-4.173v-4.141h4.173v4.141zm-4.87 14.699h-4.119v-4.203h4.119v4.203zM76.173 9.084h-4.165V4.897h4.165v4.187zm-4.862.016H67.2V4.889h4.111V9.1zm4.87 30.014v4.187h-4.15v-4.187h4.15zm-8.997-.024h4.15v4.18h-4.15v-4.18zM4.91 39.082h4.088v4.234H4.91v-4.234zm8.981-5.544h-4.15v-4.18h4.15v4.18zm.722-4.218h4.103v4.187h-4.103V29.32zm8.935 4.218h-4.126v-4.187h4.126v4.187zm4.894-4.211v4.195h-4.181v-4.195h4.181zm.69-.007h4.111v4.211h-4.111V29.32zm8.997.031v4.164h-4.173v-4.164h4.173zM28.411 9.092h-4.15V4.874h4.15v4.219zm67.812 29.304v-4.141h4.181v4.141h-4.181zm-4.832.008V34.24h4.157v4.164h-4.157zm9.013-9.038v4.172h-4.15v-4.172h4.15zm-33.228 4.843h4.15v4.172h-4.15v-4.172zM38.114 9.084h-4.142V4.913h4.142v4.172zm-8.958-4.21h4.103v4.187h-4.103V4.874zM9.742 34.232h4.157v4.164H9.742v-4.164zm8.974 4.172H14.59V34.24h4.126v4.164zm9.703.008h-4.157v-4.164h4.157v4.164zM66.432 13.95H62.36V9.833h4.072v4.117zm24.967-.008V9.833h4.165v4.109h-4.165zM4.894 34.217h4.111v4.172H4.894v-4.172zm57.427 4.195v-4.164h4.119v4.164h-4.119zm42.923-9.077v4.18h-4.096v-4.18h4.096zm-42.915 4.211v-4.203h4.111v4.203h-4.111zM38.858 4.881h4.072v4.187h-4.072V4.881zm56.729 19.588v4.117h-4.181v-4.117h4.181zm-52.602 4.874v4.172h-4.111v-4.172h4.111zM8.982 33.538h-4.08v-4.18h4.08v4.18zM62.344 4.881h4.072v4.187h-4.072V4.881zM4.91.008h4.08v4.195H4.91V.008zm85.814 24.477v4.102h-4.165v-4.102h4.165zm-28.388-.023h4.088v4.133h-4.088v-4.133zm-18.614-.008h4.064v4.148h-4.064v-4.148zm-.76.031v4.125h-4.087v-4.125h4.087zm-9.028 4.109V24.5h4.181v4.094h-4.181zM8.997 24.477v4.094H4.91v-4.094h4.088zm91.422-4.842v4.094h-4.188v-4.094h4.188zm-4.832-.031v4.117h-4.181v-4.117h4.181zm-4.878 4.14h-4.134v-4.141h4.134v4.141zm-24.262.008h-4.095v-4.141h4.095v4.141zm-18.661-.008h-4.072v-4.125h4.072v4.125zm48.437 4.866v-4.125h4.15v4.125h-4.15zm-57.365-9.014h4.08v4.133h-4.08v-4.133zm-33.972 4.14v-4.109h4.103v4.109H4.886zM9.005 4.905v4.18H4.894v-4.18h4.111z"></path>
    </g>
    <path d="M101.133 28.594v-4.125h4.087v4.125h-4.087z" fill="#17e691"></path>
    <g fill="#fff">
      <path d="M71.357 13.958h-4.181V9.825h4.181v4.133zm-66.463-.016V9.81h4.088v4.133H4.894zm29.055 0V9.841h4.165v4.102h-4.165zm4.902 0V9.833h4.103v4.109h-4.103zm8.95.016h-4.095V9.825h4.095v4.133zm52.603-.008h-4.157V9.825h4.157v4.125z"></path>
    </g>
    <path d="M95.479 48.167c-1.202 0-2.335.023-3.475-.023-.194-.008-.52-.335-.535-.53-.054-1.022-.062-2.051 0-3.072.016-.203.38-.538.605-.554l3.397-.023v4.203h.008z" fill="#ff4b00"></path>
    <path d="M105.19 38.334h-3.948v-4.047h3.948v4.047z" fill="#ff1928"></path>
    <path d="M61.522 9.942v3.907h-3.94V9.942h3.94z" fill="#fff"></path>
    <path d="M4.095 9.006H.07l.031-3.54c.008-.179.372-.476.589-.491.923-.055 1.854-.062 2.777 0 .225.016.597.359.605.561l.031 3.454-.008.016z" fill="#6415e6"></path>
    <path d="M38.936 4.086l.023-3.454c0-.179.31-.351.504-.499.054-.047.178-.016.272-.016 3.389-.156 3.529.016 3.118 3.977h-3.917v-.008z" fill="#ff6e00"></path>
    <path d="M33.227 36.182c0 2.059 0 2.074-2.079 2.059-2.125-.016-1.846.257-1.862-1.91-.015-2.059 0-2.066 2.086-2.059 2.133.016 1.831-.273 1.861 1.903l-.008.008z" fill="#e61adc"></path>
    <g fill="#fff">
      <path d="M111.449 56.004c.659-.452.364-1.731 1.551-1.809v3.337l-.341.062-.225-1.723-.946 1.099-1.055-1.068c0 .398.031.78-.016 1.154-.023.172-.186.328-.279.491-.124-.164-.357-.328-.365-.491l-.015-2.838c1.318-.039.993 1.38 1.691 1.778v.008z"></path>
      <path d="M109.44 54.475l-.784.46c-.287.772.264 1.809-.279 2.636l-.295-.039v-2.62l-.961-.359.062-.249h2.171l.086.179v-.008z"></path>
    </g>
    <path d="M4.894 43.948h4.088v4.234H4.894v-4.234z" fill="#19bee6"></path>
    <path d="M62.352 39.067h4.087v4.234h-4.087v-4.234z" fill="#1987e6"></path>
    <path d="M67.208.078h4.088v4.234h-4.088V.078z" fill="#ffb919"></path>
  </g>
  <defs>
    <clipPath id="A">
      <path fill="#fff" d="M0 0h113v62H0z"></path>
    </clipPath>
  </defs>
</svg>
